<?xml version="1.0"?>
<!DOCTYPE svg PUBLIC "-//W3C//DTD SVG 1.1//EN" "http://www.w3.org/Graphics/SVG/1.1/DTD/svg11.dtd">
<svg width="112.10368507632845mm" height="93.59811147208487mm" viewBox="0 0 112.10368507632845 93.59811147208487" xmlns="http://www.w3.org/2000/svg" version="1.1">
<g id="Body" transform="translate(56.051843,56.099056) scale(1,-1)">
<path id="Body_f0000"  d="M -41.23154132457336 -36.4 A 55 55 0 1 0 41.2315 -36.4L 41.23154132457334 -36.39999999999999 A 55 55 0 1 1 -41.2315 -36.4L -41.23154132457337 -36.39999999999998 Z " stroke="#191919" stroke-width="0.35 px" style="stroke-width:0.35;stroke-miterlimit:4;stroke-dasharray:none;fill:#cccccc;fill-opacity:1.0;fill-rule: evenodd"/>
<path id="Body_f0001"  d="M 41.23154132457334 -36.39999999999998 L -41.23154132457337 -36.39999999999998 L -41.23154132457337 -36.39999999999998 L 41.23154132457334 -36.39999999999999 L 41.23154132457334 -36.39999999999999 Z " stroke="#191919" stroke-width="0.35 px" style="stroke-width:0.35;stroke-miterlimit:4;stroke-dasharray:none;fill:#cccccc;fill-opacity:1.0;fill-rule: evenodd"/>
<circle cx="0.0" cy="0.0" r="7.0" stroke="#191919" stroke-width="0.35 px" style="stroke-width:0.35;stroke-miterlimit:4;stroke-dasharray:none;fill:#cccccc"/>
<circle cx="0.0" cy="0.0" r="7.0" stroke="#191919" stroke-width="0.35 px" style="stroke-width:0.35;stroke-miterlimit:4;stroke-dasharray:none;fill:#cccccc"/>
<circle cx="0.0" cy="0.0" r="7.0" stroke="#191919" stroke-width="0.35 px" style="stroke-width:0.35;stroke-miterlimit:4;stroke-dasharray:none;fill:#cccccc"/>
<path id="Body_f0005"  d="M -37.412920879397504 -30.087760821834923 L -37.412920879397504 -30.087760821834923 L -29.752476448207723 -23.65988472496953 L -29.752476448207723 -23.65988472496953 L -37.412920879397504 -30.087760821834923 Z " stroke="#191919" stroke-width="0.35 px" style="stroke-width:0.35;stroke-miterlimit:4;stroke-dasharray:none;fill:#cccccc;fill-opacity:1.0;fill-rule: evenodd"/>
<path id="Body_f0006"  d="M -36.127345660024424 -31.619849708072877 L -36.127345660024424 -31.619849708072877 L -37.412920879397504 -30.087760821834923 L -37.412920879397504 -30.087760821834923 L -36.127345660024424 -31.619849708072877 Z " stroke="#191919" stroke-width="0.35 px" style="stroke-width:0.35;stroke-miterlimit:4;stroke-dasharray:none;fill:#cccccc;fill-opacity:1.0;fill-rule: evenodd"/>
<path id="Body_f0007"  d="M -29.752476448207723 -23.65988472496953 L -29.752476448207723 -23.65988472496953 L -28.466901228834647 -25.191973611207484 L -28.466901228834647 -25.191973611207484 L -29.752476448207723 -23.65988472496953 Z " stroke="#191919" stroke-width="0.35 px" style="stroke-width:0.35;stroke-miterlimit:4;stroke-dasharray:none;fill:#cccccc;fill-opacity:1.0;fill-rule: evenodd"/>
<path id="Body_f0008"  d="M -28.466901228834647 -25.191973611207484 L -28.466901228834647 -25.191973611207484 L -36.127345660024424 -31.619849708072877 L -36.127345660024424 -31.619849708072877 L -28.466901228834647 -25.191973611207484 Z " stroke="#191919" stroke-width="0.35 px" style="stroke-width:0.35;stroke-miterlimit:4;stroke-dasharray:none;fill:#cccccc;fill-opacity:1.0;fill-rule: evenodd"/>
<path id="Body_f0009"  d="M -43.22230366078123 -20.900537463309888 L -43.22230366078123 -20.900537463309888 L -34.31223841889755 -16.360632465914417 L -34.31223841889755 -16.360632465914417 L -43.22230366078123 -20.900537463309888 Z " stroke="#191919" stroke-width="0.35 px" style="stroke-width:0.35;stroke-miterlimit:4;stroke-dasharray:none;fill:#cccccc;fill-opacity:1.0;fill-rule: evenodd"/>
<path id="Body_f0010"  d="M -42.31432266130213 -22.68255051168662 L -42.31432266130213 -22.68255051168662 L -43.22230366078123 -20.900537463309888 L -43.22230366078123 -20.900537463309888 L -42.31432266130213 -22.68255051168662 Z " stroke="#191919" stroke-width="0.35 px" style="stroke-width:0.35;stroke-miterlimit:4;stroke-dasharray:none;fill:#cccccc;fill-opacity:1.0;fill-rule: evenodd"/>
<path id="Body_f0011"  d="M -34.31223841889755 -16.360632465914417 L -34.31223841889755 -16.360632465914417 L -33.40425741941846 -18.142645514291154 L -33.40425741941846 -18.142645514291154 L -34.31223841889755 -16.360632465914417 Z " stroke="#191919" stroke-width="0.35 px" style="stroke-width:0.35;stroke-miterlimit:4;stroke-dasharray:none;fill:#cccccc;fill-opacity:1.0;fill-rule: evenodd"/>
<path id="Body_f0012"  d="M -33.40425741941846 -18.142645514291154 L -33.40425741941846 -18.142645514291154 L -42.31432266130213 -22.68255051168662 L -42.31432266130213 -22.68255051168662 L -33.40425741941846 -18.142645514291154 Z " stroke="#191919" stroke-width="0.35 px" style="stroke-width:0.35;stroke-miterlimit:4;stroke-dasharray:none;fill:#cccccc;fill-opacity:1.0;fill-rule: evenodd"/>
<path id="Body_f0013"  d="M -46.81611675684752 -10.64195526250806 L -46.81611675684752 -10.64195526250806 L -37.113159494087554 -8.222736306511381 L -37.113159494087554 -8.222736306511381 L -46.81611675684752 -10.64195526250806 Z " stroke="#191919" stroke-width="0.35 px" style="stroke-width:0.35;stroke-miterlimit:4;stroke-dasharray:none;fill:#cccccc;fill-opacity:1.0;fill-rule: evenodd"/>
<path id="Body_f0014"  d="M -46.33227296564819 -12.582546715060053 L -46.33227296564819 -12.582546715060053 L -46.81611675684752 -10.64195526250806 L -46.81611675684752 -10.64195526250806 L -46.33227296564819 -12.582546715060053 Z " stroke="#191919" stroke-width="0.35 px" style="stroke-width:0.35;stroke-miterlimit:4;stroke-dasharray:none;fill:#cccccc;fill-opacity:1.0;fill-rule: evenodd"/>
<path id="Body_f0015"  d="M -37.113159494087554 -8.222736306511381 L -37.113159494087554 -8.222736306511381 L -36.62931570288822 -10.163327759063371 L -36.62931570288822 -10.163327759063371 L -37.113159494087554 -8.222736306511381 Z " stroke="#191919" stroke-width="0.35 px" style="stroke-width:0.35;stroke-miterlimit:4;stroke-dasharray:none;fill:#cccccc;fill-opacity:1.0;fill-rule: evenodd"/>
<path id="Body_f0016"  d="M -36.62931570288822 -10.163327759063371 L -36.62931570288822 -10.163327759063371 L -46.33227296564819 -12.582546715060053 L -46.33227296564819 -12.582546715060053 L -36.62931570288822 -10.163327759063371 Z " stroke="#191919" stroke-width="0.35 px" style="stroke-width:0.35;stroke-miterlimit:4;stroke-dasharray:none;fill:#cccccc;fill-opacity:1.0;fill-rule: evenodd"/>
<path id="Body_f0017"  d="M -48.010141773944085 0.16213218616678304 L -48.010141773944085 0.16213218616678304 L -38.011664822380176 0.3366562505396189 L -38.011664822380176 0.3366562505396189 L -48.010141773944085 0.16213218616678304 Z " stroke="#191919" stroke-width="0.35 px" style="stroke-width:0.35;stroke-miterlimit:4;stroke-dasharray:none;fill:#cccccc;fill-opacity:1.0;fill-rule: evenodd"/>
<path id="Body_f0018"  d="M -47.97523696106952 -1.8375632041459937 L -47.97523696106952 -1.8375632041459937 L -48.010141773944085 0.16213218616678304 L -48.010141773944085 0.16213218616678304 L -47.97523696106952 -1.8375632041459937 Z " stroke="#191919" stroke-width="0.35 px" style="stroke-width:0.35;stroke-miterlimit:4;stroke-dasharray:none;fill:#cccccc;fill-opacity:1.0;fill-rule: evenodd"/>
<path id="Body_f0019"  d="M -38.011664822380176 0.3366562505396189 L -38.011664822380176 0.3366562505396189 L -37.97676000950561 -1.6630391397731579 L -37.97676000950561 -1.6630391397731579 L -38.011664822380176 0.3366562505396189 Z " stroke="#191919" stroke-width="0.35 px" style="stroke-width:0.35;stroke-miterlimit:4;stroke-dasharray:none;fill:#cccccc;fill-opacity:1.0;fill-rule: evenodd"/>
<path id="Body_f0020"  d="M -37.97676000950561 -1.6630391397731579 L -37.97676000950561 -1.6630391397731579 L -47.97523696106952 -1.8375632041459937 L -47.97523696106952 -1.8375632041459937 L -37.97676000950561 -1.6630391397731579 Z " stroke="#191919" stroke-width="0.35 px" style="stroke-width:0.35;stroke-miterlimit:4;stroke-dasharray:none;fill:#cccccc;fill-opacity:1.0;fill-rule: evenodd"/>
<path id="Body_f0021"  d="M 36.12734566002442 -31.619849708072884 L 36.12734566002442 -31.619849708072884 L 28.46690122883464 -25.191973611207487 L 28.466901228834637 -25.191973611207487 L 36.12734566002442 -31.619849708072877 Z " stroke="#191919" stroke-width="0.35 px" style="stroke-width:0.35;stroke-miterlimit:4;stroke-dasharray:none;fill:#cccccc;fill-opacity:1.0;fill-rule: evenodd"/>
<path id="Body_f0022"  d="M 37.4129208793975 -30.087760821834927 L 37.4129208793975 -30.087760821834927 L 36.12734566002442 -31.619849708072884 L 36.12734566002442 -31.619849708072877 L 37.41292087939749 -30.087760821834923 Z " stroke="#191919" stroke-width="0.35 px" style="stroke-width:0.35;stroke-miterlimit:4;stroke-dasharray:none;fill:#cccccc;fill-opacity:1.0;fill-rule: evenodd"/>
<path id="Body_f0023"  d="M 28.46690122883464 -25.191973611207487 L 28.46690122883464 -25.191973611207487 L 29.752476448207716 -23.659884724969537 L 29.752476448207712 -23.659884724969533 L 28.466901228834637 -25.191973611207487 Z " stroke="#191919" stroke-width="0.35 px" style="stroke-width:0.35;stroke-miterlimit:4;stroke-dasharray:none;fill:#cccccc;fill-opacity:1.0;fill-rule: evenodd"/>
<path id="Body_f0024"  d="M 29.752476448207716 -23.659884724969537 L 29.752476448207716 -23.659884724969537 L 37.4129208793975 -30.087760821834927 L 37.41292087939749 -30.087760821834923 L 29.752476448207712 -23.659884724969533 Z " stroke="#191919" stroke-width="0.35 px" style="stroke-width:0.35;stroke-miterlimit:4;stroke-dasharray:none;fill:#cccccc;fill-opacity:1.0;fill-rule: evenodd"/>
<path id="Body_f0025"  d="M 42.31432266130213 -22.682550511686625 L 42.31432266130213 -22.682550511686625 L 33.40425741941845 -18.142645514291154 L 33.40425741941844 -18.14264551429115 L 42.31432266130213 -22.682550511686618 Z " stroke="#191919" stroke-width="0.35 px" style="stroke-width:0.35;stroke-miterlimit:4;stroke-dasharray:none;fill:#cccccc;fill-opacity:1.0;fill-rule: evenodd"/>
<path id="Body_f0026"  d="M 43.22230366078122 -20.90053746330988 L 43.22230366078122 -20.90053746330988 L 42.31432266130213 -22.682550511686625 L 42.31432266130213 -22.682550511686618 L 43.222303660781215 -20.900537463309877 Z " stroke="#191919" stroke-width="0.35 px" style="stroke-width:0.35;stroke-miterlimit:4;stroke-dasharray:none;fill:#cccccc;fill-opacity:1.0;fill-rule: evenodd"/>
<path id="Body_f0027"  d="M 33.40425741941845 -18.142645514291154 L 33.40425741941845 -18.142645514291154 L 34.31223841889755 -16.36063246591442 L 34.31223841889754 -16.36063246591442 L 33.40425741941844 -18.14264551429115 Z " stroke="#191919" stroke-width="0.35 px" style="stroke-width:0.35;stroke-miterlimit:4;stroke-dasharray:none;fill:#cccccc;fill-opacity:1.0;fill-rule: evenodd"/>
<path id="Body_f0028"  d="M 34.31223841889755 -16.36063246591442 L 34.31223841889755 -16.36063246591442 L 43.22230366078122 -20.90053746330988 L 43.222303660781215 -20.900537463309877 L 34.31223841889754 -16.36063246591442 Z " stroke="#191919" stroke-width="0.35 px" style="stroke-width:0.35;stroke-miterlimit:4;stroke-dasharray:none;fill:#cccccc;fill-opacity:1.0;fill-rule: evenodd"/>
<path id="Body_f0029"  d="M 46.33227296564819 -12.582546715060044 L 46.33227296564819 -12.582546715060044 L 36.62931570288822 -10.163327759063367 L 36.629315702888235 -10.163327759063373 L 46.3322729656482 -12.582546715060044 Z " stroke="#191919" stroke-width="0.35 px" style="stroke-width:0.35;stroke-miterlimit:4;stroke-dasharray:none;fill:#cccccc;fill-opacity:1.0;fill-rule: evenodd"/>
<path id="Body_f0030"  d="M 46.81611675684752 -10.641955262508052 L 46.81611675684752 -10.641955262508052 L 46.33227296564819 -12.582546715060044 L 46.3322729656482 -12.582546715060044 L 46.816116756847535 -10.641955262508052 Z " stroke="#191919" stroke-width="0.35 px" style="stroke-width:0.35;stroke-miterlimit:4;stroke-dasharray:none;fill:#cccccc;fill-opacity:1.0;fill-rule: evenodd"/>
<path id="Body_f0031"  d="M 36.62931570288822 -10.163327759063367 L 36.62931570288822 -10.163327759063367 L 37.11315949408756 -8.222736306511381 L 37.11315949408757 -8.222736306511381 L 36.629315702888235 -10.163327759063373 Z " stroke="#191919" stroke-width="0.35 px" style="stroke-width:0.35;stroke-miterlimit:4;stroke-dasharray:none;fill:#cccccc;fill-opacity:1.0;fill-rule: evenodd"/>
<path id="Body_f0032"  d="M 37.11315949408756 -8.222736306511381 L 37.11315949408756 -8.222736306511381 L 46.81611675684752 -10.641955262508052 L 46.816116756847535 -10.641955262508052 L 37.11315949408757 -8.222736306511381 Z " stroke="#191919" stroke-width="0.35 px" style="stroke-width:0.35;stroke-miterlimit:4;stroke-dasharray:none;fill:#cccccc;fill-opacity:1.0;fill-rule: evenodd"/>
<path id="Body_f0033"  d="M 47.97523696106952 -1.8375632041460115 L 47.97523696106952 -1.8375632041460115 L 37.976760009505604 -1.663039139773172 L 37.976760009505604 -1.663039139773172 L 47.97523696106952 -1.8375632041460115 Z " stroke="#191919" stroke-width="0.35 px" style="stroke-width:0.35;stroke-miterlimit:4;stroke-dasharray:none;fill:#cccccc;fill-opacity:1.0;fill-rule: evenodd"/>
<path id="Body_f0034"  d="M 48.010141773944085 0.16213218616677239 L 48.010141773944085 0.16213218616677239 L 47.97523696106952 -1.8375632041460115 L 47.97523696106952 -1.8375632041460115 L 48.010141773944085 0.16213218616677239 Z " stroke="#191919" stroke-width="0.35 px" style="stroke-width:0.35;stroke-miterlimit:4;stroke-dasharray:none;fill:#cccccc;fill-opacity:1.0;fill-rule: evenodd"/>
<path id="Body_f0035"  d="M 37.976760009505604 -1.663039139773172 L 37.976760009505604 -1.663039139773172 L 38.01166482238017 0.3366562505396047 L 38.01166482238017 0.3366562505396047 L 37.976760009505604 -1.663039139773172 Z " stroke="#191919" stroke-width="0.35 px" style="stroke-width:0.35;stroke-miterlimit:4;stroke-dasharray:none;fill:#cccccc;fill-opacity:1.0;fill-rule: evenodd"/>
<path id="Body_f0036"  d="M 38.01166482238017 0.3366562505396047 L 38.01166482238017 0.3366562505396047 L 48.010141773944085 0.16213218616677239 L 48.010141773944085 0.16213218616677239 L 38.01166482238017 0.3366562505396047 Z " stroke="#191919" stroke-width="0.35 px" style="stroke-width:0.35;stroke-miterlimit:4;stroke-dasharray:none;fill:#cccccc;fill-opacity:1.0;fill-rule: evenodd"/>
<path id="Body_f0037"  d="M -46.743173144404935 10.957908759986264 L -46.743173144404935 10.957908759986264 L -36.96169713706688 8.878791851808668 L -36.96169713706688 8.878791851808668 L -46.743173144404935 10.957908759986264 Z " stroke="#191919" stroke-width="0.35 px" style="stroke-width:0.35;stroke-miterlimit:4;stroke-dasharray:none;fill:#cccccc;fill-opacity:1.0;fill-rule: evenodd"/>
<path id="Body_f0038"  d="M -47.158996526040454 9.001613558518653 L -47.158996526040454 9.001613558518653 L -46.743173144404935 10.957908759986264 L -46.743173144404935 10.957908759986264 L -47.158996526040454 9.001613558518653 Z " stroke="#191919" stroke-width="0.35 px" style="stroke-width:0.35;stroke-miterlimit:4;stroke-dasharray:none;fill:#cccccc;fill-opacity:1.0;fill-rule: evenodd"/>
<path id="Body_f0039"  d="M -36.96169713706688 8.878791851808668 L -36.96169713706688 8.878791851808668 L -37.3775205187024 6.922496650341062 L -37.3775205187024 6.922496650341062 L -36.96169713706688 8.878791851808668 Z " stroke="#191919" stroke-width="0.35 px" style="stroke-width:0.35;stroke-miterlimit:4;stroke-dasharray:none;fill:#cccccc;fill-opacity:1.0;fill-rule: evenodd"/>
<path id="Body_f0040"  d="M -37.3775205187024 6.922496650341062 L -37.3775205187024 6.922496650341062 L -47.158996526040454 9.001613558518653 L -47.158996526040454 9.001613558518653 L -37.3775205187024 6.922496650341062 Z " stroke="#191919" stroke-width="0.35 px" style="stroke-width:0.35;stroke-miterlimit:4;stroke-dasharray:none;fill:#cccccc;fill-opacity:1.0;fill-rule: evenodd"/>
<path id="Body_f0041"  d="M -43.08015551601852 21.191984350590232 L -43.08015551601852 21.191984350590232 L -34.01707764565202 16.965801733183238 L -34.01707764565202 16.965801733183238 L -43.08015551601852 21.191984350590232 Z " stroke="#191919" stroke-width="0.35 px" style="stroke-width:0.35;stroke-miterlimit:4;stroke-dasharray:none;fill:#cccccc;fill-opacity:1.0;fill-rule: evenodd"/>
<path id="Body_f0042"  d="M -43.92539203949992 19.37936877651693 L -43.92539203949992 19.37936877651693 L -43.08015551601852 21.191984350590232 L -43.08015551601852 21.191984350590232 L -43.92539203949992 19.37936877651693 Z " stroke="#191919" stroke-width="0.35 px" style="stroke-width:0.35;stroke-miterlimit:4;stroke-dasharray:none;fill:#cccccc;fill-opacity:1.0;fill-rule: evenodd"/>
<path id="Body_f0043"  d="M -34.01707764565202 16.965801733183238 L -34.01707764565202 16.965801733183238 L -34.86231416913342 15.15318615910994 L -34.86231416913342 15.15318615910994 L -34.01707764565202 16.965801733183238 Z " stroke="#191919" stroke-width="0.35 px" style="stroke-width:0.35;stroke-miterlimit:4;stroke-dasharray:none;fill:#cccccc;fill-opacity:1.0;fill-rule: evenodd"/>
<path id="Body_f0044"  d="M -34.86231416913342 15.15318615910994 L -34.86231416913342 15.15318615910994 L -43.92539203949992 19.37936877651693 L -43.92539203949992 19.37936877651693 L -34.86231416913342 15.15318615910994 Z " stroke="#191919" stroke-width="0.35 px" style="stroke-width:0.35;stroke-miterlimit:4;stroke-dasharray:none;fill:#cccccc;fill-opacity:1.0;fill-rule: evenodd"/>
<path id="Body_f0045"  d="M -37.20885469779701 30.33976156923834 L -37.20885469779701 30.33976156923834 L -29.328747161729787 24.183146815981758 L -29.328747161729787 24.183146815981758 L -37.20885469779701 30.33976156923834 Z " stroke="#191919" stroke-width="0.35 px" style="stroke-width:0.35;stroke-miterlimit:4;stroke-dasharray:none;fill:#cccccc;fill-opacity:1.0;fill-rule: evenodd"/>
<path id="Body_f0046"  d="M -38.440177648448326 28.7637400620249 L -38.440177648448326 28.7637400620249 L -37.20885469779701 30.33976156923834 L -37.20885469779701 30.33976156923834 L -38.440177648448326 28.7637400620249 Z " stroke="#191919" stroke-width="0.35 px" style="stroke-width:0.35;stroke-miterlimit:4;stroke-dasharray:none;fill:#cccccc;fill-opacity:1.0;fill-rule: evenodd"/>
<path id="Body_f0047"  d="M -29.328747161729787 24.183146815981758 L -29.328747161729787 24.183146815981758 L -30.560070112381105 22.607125308768317 L -30.560070112381105 22.607125308768317 L -29.328747161729787 24.183146815981758 Z " stroke="#191919" stroke-width="0.35 px" style="stroke-width:0.35;stroke-miterlimit:4;stroke-dasharray:none;fill:#cccccc;fill-opacity:1.0;fill-rule: evenodd"/>
<path id="Body_f0048"  d="M -30.560070112381105 22.607125308768317 L -30.560070112381105 22.607125308768317 L -38.440177648448326 28.7637400620249 L -38.440177648448326 28.7637400620249 L -30.560070112381105 22.607125308768317 Z " stroke="#191919" stroke-width="0.35 px" style="stroke-width:0.35;stroke-miterlimit:4;stroke-dasharray:none;fill:#cccccc;fill-opacity:1.0;fill-rule: evenodd"/>
<path id="Body_f0049"  d="M -29.430232808935244 37.932326540984455 L -29.430232808935244 37.932326540984455 L -23.13702889843687 30.160866926414748 L -23.13702889843687 30.160866926414748 L -29.430232808935244 37.932326540984455 Z " stroke="#191919" stroke-width="0.35 px" style="stroke-width:0.35;stroke-miterlimit:4;stroke-dasharray:none;fill:#cccccc;fill-opacity:1.0;fill-rule: evenodd"/>
<path id="Body_f0050"  d="M -30.984524731849184 36.67368575888478 L -30.984524731849184 36.67368575888478 L -29.430232808935244 37.932326540984455 L -29.430232808935244 37.932326540984455 L -30.984524731849184 36.67368575888478 Z " stroke="#191919" stroke-width="0.35 px" style="stroke-width:0.35;stroke-miterlimit:4;stroke-dasharray:none;fill:#cccccc;fill-opacity:1.0;fill-rule: evenodd"/>
<path id="Body_f0051"  d="M -23.13702889843687 30.160866926414748 L -23.13702889843687 30.160866926414748 L -24.691320821350807 28.902226144315076 L -24.691320821350807 28.902226144315076 L -23.13702889843687 30.160866926414748 Z " stroke="#191919" stroke-width="0.35 px" style="stroke-width:0.35;stroke-miterlimit:4;stroke-dasharray:none;fill:#cccccc;fill-opacity:1.0;fill-rule: evenodd"/>
<path id="Body_f0052"  d="M -24.691320821350807 28.902226144315076 L -24.691320821350807 28.902226144315076 L -30.984524731849184 36.67368575888478 L -30.984524731849184 36.67368575888478 L -24.691320821350807 28.902226144315076 Z " stroke="#191919" stroke-width="0.35 px" style="stroke-width:0.35;stroke-miterlimit:4;stroke-dasharray:none;fill:#cccccc;fill-opacity:1.0;fill-rule: evenodd"/>
<path id="Body_f0053"  d="M -20.143020999576557 43.580485369149116 L -20.143020999576557 43.580485369149116 L -15.75930953168578 34.59254490615745 L -15.75930953168578 34.59254490615745 L -20.143020999576557 43.580485369149116 Z " stroke="#191919" stroke-width="0.35 px" style="stroke-width:0.35;stroke-miterlimit:4;stroke-dasharray:none;fill:#cccccc;fill-opacity:1.0;fill-rule: evenodd"/>
<path id="Body_f0054"  d="M -21.94060909217489 42.70374307557096 L -21.94060909217489 42.70374307557096 L -20.143020999576557 43.580485369149116 L -20.143020999576557 43.580485369149116 L -21.94060909217489 42.70374307557096 Z " stroke="#191919" stroke-width="0.35 px" style="stroke-width:0.35;stroke-miterlimit:4;stroke-dasharray:none;fill:#cccccc;fill-opacity:1.0;fill-rule: evenodd"/>
<path id="Body_f0055"  d="M -15.75930953168578 34.59254490615745 L -15.75930953168578 34.59254490615745 L -17.55689762428411 33.715802612579296 L -17.55689762428411 33.715802612579296 L -15.75930953168578 34.59254490615745 Z " stroke="#191919" stroke-width="0.35 px" style="stroke-width:0.35;stroke-miterlimit:4;stroke-dasharray:none;fill:#cccccc;fill-opacity:1.0;fill-rule: evenodd"/>
<path id="Body_f0056"  d="M -17.55689762428411 33.715802612579296 L -17.55689762428411 33.715802612579296 L -21.94060909217489 42.70374307557096 L -21.94060909217489 42.70374307557096 L -17.55689762428411 33.715802612579296 Z " stroke="#191919" stroke-width="0.35 px" style="stroke-width:0.35;stroke-miterlimit:4;stroke-dasharray:none;fill:#cccccc;fill-opacity:1.0;fill-rule: evenodd"/>
<path id="Body_f0057"  d="M -9.82328054372029 46.99471416403517 L -9.82328054372029 46.99471416403517 L -7.573770000281641 37.25101351618283 L -7.573770000281641 37.25101351618283 L -9.82328054372029 46.99471416403517 Z " stroke="#191919" stroke-width="0.35 px" style="stroke-width:0.35;stroke-miterlimit:4;stroke-dasharray:none;fill:#cccccc;fill-opacity:1.0;fill-rule: evenodd"/>
<path id="Body_f0058"  d="M -11.772020673290761 46.54481205534745 L -11.772020673290761 46.54481205534745 L -9.82328054372029 46.99471416403517 L -9.82328054372029 46.99471416403517 L -11.772020673290761 46.54481205534745 Z " stroke="#191919" stroke-width="0.35 px" style="stroke-width:0.35;stroke-miterlimit:4;stroke-dasharray:none;fill:#cccccc;fill-opacity:1.0;fill-rule: evenodd"/>
<path id="Body_f0059"  d="M -7.573770000281641 37.25101351618283 L -7.573770000281641 37.25101351618283 L -9.522510129852108 36.8011114074951 L -9.522510129852108 36.8011114074951 L -7.573770000281641 37.25101351618283 Z " stroke="#191919" stroke-width="0.35 px" style="stroke-width:0.35;stroke-miterlimit:4;stroke-dasharray:none;fill:#cccccc;fill-opacity:1.0;fill-rule: evenodd"/>
<path id="Body_f0060"  d="M -9.522510129852108 36.8011114074951 L -9.522510129852108 36.8011114074951 L -11.772020673290761 46.54481205534745 L -11.772020673290761 46.54481205534745 L -9.522510129852108 36.8011114074951 Z " stroke="#191919" stroke-width="0.35 px" style="stroke-width:0.35;stroke-miterlimit:4;stroke-dasharray:none;fill:#cccccc;fill-opacity:1.0;fill-rule: evenodd"/>
<path id="Body_f0061"  d="M 47.158996526040454 9.001613558518645 L 47.158996526040454 9.001613558518645 L 37.3775205187024 6.922496650341049 L 37.377520518702404 6.922496650341051 L 47.15899652604047 9.001613558518645 Z " stroke="#191919" stroke-width="0.35 px" style="stroke-width:0.35;stroke-miterlimit:4;stroke-dasharray:none;fill:#cccccc;fill-opacity:1.0;fill-rule: evenodd"/>
<path id="Body_f0062"  d="M 46.743173144404935 10.957908759986253 L 46.743173144404935 10.957908759986253 L 47.158996526040454 9.001613558518645 L 47.15899652604047 9.001613558518645 L 46.74317314440495 10.957908759986257 Z " stroke="#191919" stroke-width="0.35 px" style="stroke-width:0.35;stroke-miterlimit:4;stroke-dasharray:none;fill:#cccccc;fill-opacity:1.0;fill-rule: evenodd"/>
<path id="Body_f0063"  d="M 37.3775205187024 6.922496650341049 L 37.3775205187024 6.922496650341049 L 36.96169713706688 8.87879185180866 L 36.96169713706689 8.878791851808664 L 37.377520518702404 6.922496650341051 Z " stroke="#191919" stroke-width="0.35 px" style="stroke-width:0.35;stroke-miterlimit:4;stroke-dasharray:none;fill:#cccccc;fill-opacity:1.0;fill-rule: evenodd"/>
<path id="Body_f0064"  d="M 36.96169713706688 8.87879185180866 L 36.96169713706688 8.87879185180866 L 46.743173144404935 10.957908759986253 L 46.74317314440495 10.957908759986257 L 36.96169713706689 8.878791851808664 Z " stroke="#191919" stroke-width="0.35 px" style="stroke-width:0.35;stroke-miterlimit:4;stroke-dasharray:none;fill:#cccccc;fill-opacity:1.0;fill-rule: evenodd"/>
<path id="Body_f0065"  d="M 38.44017764844833 28.763740062024894 L 38.44017764844833 28.763740062024894 L 30.560070112381112 22.60712530876831 L 30.56007011238112 22.607125308768314 L 38.44017764844834 28.7637400620249 Z " stroke="#191919" stroke-width="0.35 px" style="stroke-width:0.35;stroke-miterlimit:4;stroke-dasharray:none;fill:#cccccc;fill-opacity:1.0;fill-rule: evenodd"/>
<path id="Body_f0066"  d="M 37.208854697797015 30.339761569238338 L 37.208854697797015 30.339761569238338 L 38.44017764844833 28.763740062024894 L 38.44017764844834 28.7637400620249 L 37.20885469779702 30.339761569238345 Z " stroke="#191919" stroke-width="0.35 px" style="stroke-width:0.35;stroke-miterlimit:4;stroke-dasharray:none;fill:#cccccc;fill-opacity:1.0;fill-rule: evenodd"/>
<path id="Body_f0067"  d="M 30.560070112381112 22.60712530876831 L 30.560070112381112 22.60712530876831 L 29.328747161729797 24.18314681598175 L 29.328747161729805 24.183146815981758 L 30.56007011238112 22.607125308768314 Z " stroke="#191919" stroke-width="0.35 px" style="stroke-width:0.35;stroke-miterlimit:4;stroke-dasharray:none;fill:#cccccc;fill-opacity:1.0;fill-rule: evenodd"/>
<path id="Body_f0068"  d="M 29.328747161729797 24.18314681598175 L 29.328747161729797 24.18314681598175 L 37.208854697797015 30.339761569238338 L 37.20885469779702 30.339761569238345 L 29.328747161729805 24.183146815981758 Z " stroke="#191919" stroke-width="0.35 px" style="stroke-width:0.35;stroke-miterlimit:4;stroke-dasharray:none;fill:#cccccc;fill-opacity:1.0;fill-rule: evenodd"/>
<path id="Body_f0069"  d="M 43.92539203949992 19.379368776516927 L 43.92539203949992 19.379368776516927 L 34.86231416913342 15.153186159109932 L 34.86231416913341 15.15318615910993 L 43.92539203949991 19.379368776516927 Z " stroke="#191919" stroke-width="0.35 px" style="stroke-width:0.35;stroke-miterlimit:4;stroke-dasharray:none;fill:#cccccc;fill-opacity:1.0;fill-rule: evenodd"/>
<path id="Body_f0070"  d="M 43.080155516018515 21.191984350590225 L 43.080155516018515 21.191984350590225 L 43.92539203949992 19.379368776516927 L 43.92539203949991 19.379368776516927 L 43.08015551601851 21.191984350590225 Z " stroke="#191919" stroke-width="0.35 px" style="stroke-width:0.35;stroke-miterlimit:4;stroke-dasharray:none;fill:#cccccc;fill-opacity:1.0;fill-rule: evenodd"/>
<path id="Body_f0071"  d="M 34.86231416913342 15.153186159109932 L 34.86231416913342 15.153186159109932 L 34.01707764565202 16.965801733183234 L 34.017077645652016 16.96580173318323 L 34.86231416913341 15.15318615910993 Z " stroke="#191919" stroke-width="0.35 px" style="stroke-width:0.35;stroke-miterlimit:4;stroke-dasharray:none;fill:#cccccc;fill-opacity:1.0;fill-rule: evenodd"/>
<path id="Body_f0072"  d="M 34.01707764565202 16.965801733183234 L 34.01707764565202 16.965801733183234 L 43.080155516018515 21.191984350590225 L 43.08015551601851 21.191984350590225 L 34.017077645652016 16.96580173318323 Z " stroke="#191919" stroke-width="0.35 px" style="stroke-width:0.35;stroke-miterlimit:4;stroke-dasharray:none;fill:#cccccc;fill-opacity:1.0;fill-rule: evenodd"/>
<path id="Body_f0073"  d="M 1.0 48.00000000000002 L 1.0 48.00000000000002 L 1.0 38.00000000000002 L 1.0 38.000000000000014 L 0.9999999999999964 48.000000000000014 Z " stroke="#191919" stroke-width="0.35 px" style="stroke-width:0.35;stroke-miterlimit:4;stroke-dasharray:none;fill:#cccccc;fill-opacity:1.0;fill-rule: evenodd"/>
<path id="Body_f0074"  d="M -0.9999999999999964 48.000000000000014 L -0.9999999999999964 48.000000000000014 L 1.0 48.00000000000002 L 0.9999999999999964 48.000000000000014 L -1.0000000000000036 48.000000000000014 Z " stroke="#191919" stroke-width="0.35 px" style="stroke-width:0.35;stroke-miterlimit:4;stroke-dasharray:none;fill:#cccccc;fill-opacity:1.0;fill-rule: evenodd"/>
<path id="Body_f0075"  d="M 1.0 38.00000000000002 L 1.0 38.00000000000002 L -0.9999999999999964 38.000000000000014 L -0.9999999999999964 38.000000000000014 L 1.0 38.000000000000014 Z " stroke="#191919" stroke-width="0.35 px" style="stroke-width:0.35;stroke-miterlimit:4;stroke-dasharray:none;fill:#cccccc;fill-opacity:1.0;fill-rule: evenodd"/>
<path id="Body_f0076"  d="M -0.9999999999999964 38.000000000000014 L -0.9999999999999964 38.000000000000014 L -0.9999999999999964 48.000000000000014 L -1.0000000000000036 48.000000000000014 L -0.9999999999999964 38.000000000000014 Z " stroke="#191919" stroke-width="0.35 px" style="stroke-width:0.35;stroke-miterlimit:4;stroke-dasharray:none;fill:#cccccc;fill-opacity:1.0;fill-rule: evenodd"/>
<path id="Body_f0077"  d="M 11.772020673290765 46.54481205534744 L 11.772020673290765 46.54481205534744 L 9.522510129852114 36.80111140749509 L 9.522510129852112 36.801111407495085 L 11.772020673290765 46.544812055347435 Z " stroke="#191919" stroke-width="0.35 px" style="stroke-width:0.35;stroke-miterlimit:4;stroke-dasharray:none;fill:#cccccc;fill-opacity:1.0;fill-rule: evenodd"/>
<path id="Body_f0078"  d="M 9.823280543720294 46.99471416403517 L 9.823280543720294 46.99471416403517 L 11.772020673290765 46.54481205534744 L 11.772020673290765 46.544812055347435 L 9.823280543720294 46.99471416403516 Z " stroke="#191919" stroke-width="0.35 px" style="stroke-width:0.35;stroke-miterlimit:4;stroke-dasharray:none;fill:#cccccc;fill-opacity:1.0;fill-rule: evenodd"/>
<path id="Body_f0079"  d="M 9.522510129852114 36.80111140749509 L 9.522510129852114 36.80111140749509 L 7.573770000281648 37.25101351618282 L 7.573770000281645 37.25101351618281 L 9.522510129852112 36.801111407495085 Z " stroke="#191919" stroke-width="0.35 px" style="stroke-width:0.35;stroke-miterlimit:4;stroke-dasharray:none;fill:#cccccc;fill-opacity:1.0;fill-rule: evenodd"/>
<path id="Body_f0080"  d="M 7.573770000281648 37.25101351618282 L 7.573770000281648 37.25101351618282 L 9.823280543720294 46.99471416403517 L 9.823280543720294 46.99471416403516 L 7.573770000281645 37.25101351618281 Z " stroke="#191919" stroke-width="0.35 px" style="stroke-width:0.35;stroke-miterlimit:4;stroke-dasharray:none;fill:#cccccc;fill-opacity:1.0;fill-rule: evenodd"/>
<path id="Body_f0081"  d="M 21.940609092174903 42.703743075570955 L 21.940609092174903 42.703743075570955 L 17.556897624284126 33.71580261257928 L 17.556897624284126 33.71580261257928 L 21.940609092174903 42.703743075570955 Z " stroke="#191919" stroke-width="0.35 px" style="stroke-width:0.35;stroke-miterlimit:4;stroke-dasharray:none;fill:#cccccc;fill-opacity:1.0;fill-rule: evenodd"/>
<path id="Body_f0082"  d="M 20.143020999576564 43.58048536914911 L 20.143020999576564 43.58048536914911 L 21.940609092174903 42.703743075570955 L 21.940609092174903 42.703743075570955 L 20.143020999576564 43.58048536914911 Z " stroke="#191919" stroke-width="0.35 px" style="stroke-width:0.35;stroke-miterlimit:4;stroke-dasharray:none;fill:#cccccc;fill-opacity:1.0;fill-rule: evenodd"/>
<path id="Body_f0083"  d="M 17.556897624284126 33.71580261257928 L 17.556897624284126 33.71580261257928 L 15.759309531685796 34.59254490615744 L 15.759309531685796 34.59254490615744 L 17.556897624284126 33.71580261257928 Z " stroke="#191919" stroke-width="0.35 px" style="stroke-width:0.35;stroke-miterlimit:4;stroke-dasharray:none;fill:#cccccc;fill-opacity:1.0;fill-rule: evenodd"/>
<path id="Body_f0084"  d="M 15.759309531685796 34.59254490615744 L 15.759309531685796 34.59254490615744 L 20.143020999576564 43.58048536914911 L 20.143020999576564 43.58048536914911 L 15.759309531685796 34.59254490615744 Z " stroke="#191919" stroke-width="0.35 px" style="stroke-width:0.35;stroke-miterlimit:4;stroke-dasharray:none;fill:#cccccc;fill-opacity:1.0;fill-rule: evenodd"/>
<path id="Body_f0085"  d="M 30.98452473184919 36.67368575888477 L 30.98452473184919 36.67368575888477 L 24.691320821350818 28.902226144315065 L 24.691320821350814 28.902226144315062 L 30.98452473184919 36.673685758884766 Z " stroke="#191919" stroke-width="0.35 px" style="stroke-width:0.35;stroke-miterlimit:4;stroke-dasharray:none;fill:#cccccc;fill-opacity:1.0;fill-rule: evenodd"/>
<path id="Body_f0086"  d="M 29.43023280893525 37.93232654098445 L 29.43023280893525 37.93232654098445 L 30.98452473184919 36.67368575888477 L 30.98452473184919 36.673685758884766 L 29.430232808935244 37.93232654098444 Z " stroke="#191919" stroke-width="0.35 px" style="stroke-width:0.35;stroke-miterlimit:4;stroke-dasharray:none;fill:#cccccc;fill-opacity:1.0;fill-rule: evenodd"/>
<path id="Body_f0087"  d="M 24.691320821350818 28.902226144315065 L 24.691320821350818 28.902226144315065 L 23.137028898436878 30.160866926414737 L 23.137028898436874 30.160866926414734 L 24.691320821350814 28.902226144315062 Z " stroke="#191919" stroke-width="0.35 px" style="stroke-width:0.35;stroke-miterlimit:4;stroke-dasharray:none;fill:#cccccc;fill-opacity:1.0;fill-rule: evenodd"/>
<path id="Body_f0088"  d="M 23.137028898436878 30.160866926414737 L 23.137028898436878 30.160866926414737 L 29.43023280893525 37.93232654098445 L 29.430232808935244 37.93232654098444 L 23.137028898436874 30.160866926414734 Z " stroke="#191919" stroke-width="0.35 px" style="stroke-width:0.35;stroke-miterlimit:4;stroke-dasharray:none;fill:#cccccc;fill-opacity:1.0;fill-rule: evenodd"/>
<path id="Body_f0089"  d="M -28.466901228834647 -25.191973611207484 L -36.127345660024424 -31.619849708072877 L -37.412920879397504 -30.087760821834923 L -29.752476448207723 -23.65988472496953 L -28.466901228834647 -25.191973611207484 Z " stroke="#191919" stroke-width="0.35 px" style="stroke-width:0.35;stroke-miterlimit:4;stroke-dasharray:none;fill:#cccccc;fill-opacity:1.0;fill-rule: evenodd"/>
<path id="Body_f0090"  d="M -33.40425741941846 -18.142645514291154 L -42.31432266130213 -22.68255051168662 L -43.22230366078123 -20.900537463309888 L -34.31223841889755 -16.360632465914417 L -33.40425741941846 -18.142645514291154 Z " stroke="#191919" stroke-width="0.35 px" style="stroke-width:0.35;stroke-miterlimit:4;stroke-dasharray:none;fill:#cccccc;fill-opacity:1.0;fill-rule: evenodd"/>
<path id="Body_f0091"  d="M -36.62931570288822 -10.163327759063371 L -46.33227296564819 -12.582546715060053 L -46.81611675684752 -10.64195526250806 L -37.113159494087554 -8.222736306511381 L -36.62931570288822 -10.163327759063371 Z " stroke="#191919" stroke-width="0.35 px" style="stroke-width:0.35;stroke-miterlimit:4;stroke-dasharray:none;fill:#cccccc;fill-opacity:1.0;fill-rule: evenodd"/>
<path id="Body_f0092"  d="M -37.97676000950561 -1.6630391397731579 L -47.97523696106952 -1.8375632041459937 L -48.010141773944085 0.16213218616678304 L -38.011664822380176 0.3366562505396189 L -37.97676000950561 -1.6630391397731579 Z " stroke="#191919" stroke-width="0.35 px" style="stroke-width:0.35;stroke-miterlimit:4;stroke-dasharray:none;fill:#cccccc;fill-opacity:1.0;fill-rule: evenodd"/>
<path id="Body_f0093"  d="M 29.752476448207716 -23.659884724969537 L 37.4129208793975 -30.087760821834927 L 36.12734566002442 -31.619849708072884 L 28.46690122883464 -25.191973611207487 L 29.752476448207716 -23.659884724969537 Z " stroke="#191919" stroke-width="0.35 px" style="stroke-width:0.35;stroke-miterlimit:4;stroke-dasharray:none;fill:#cccccc;fill-opacity:1.0;fill-rule: evenodd"/>
<path id="Body_f0094"  d="M 34.31223841889755 -16.36063246591442 L 43.22230366078122 -20.90053746330988 L 42.31432266130213 -22.682550511686625 L 33.40425741941845 -18.142645514291154 L 34.31223841889755 -16.36063246591442 Z " stroke="#191919" stroke-width="0.35 px" style="stroke-width:0.35;stroke-miterlimit:4;stroke-dasharray:none;fill:#cccccc;fill-opacity:1.0;fill-rule: evenodd"/>
<path id="Body_f0095"  d="M 37.11315949408756 -8.222736306511381 L 46.81611675684752 -10.641955262508052 L 46.33227296564819 -12.582546715060044 L 36.62931570288822 -10.163327759063367 L 37.11315949408756 -8.222736306511381 Z " stroke="#191919" stroke-width="0.35 px" style="stroke-width:0.35;stroke-miterlimit:4;stroke-dasharray:none;fill:#cccccc;fill-opacity:1.0;fill-rule: evenodd"/>
<path id="Body_f0096"  d="M 38.01166482238017 0.3366562505396047 L 48.010141773944085 0.16213218616677239 L 47.97523696106952 -1.8375632041460115 L 37.976760009505604 -1.663039139773172 L 38.01166482238017 0.3366562505396047 Z " stroke="#191919" stroke-width="0.35 px" style="stroke-width:0.35;stroke-miterlimit:4;stroke-dasharray:none;fill:#cccccc;fill-opacity:1.0;fill-rule: evenodd"/>
<path id="Body_f0097"  d="M -37.3775205187024 6.922496650341062 L -47.158996526040454 9.001613558518653 L -46.743173144404935 10.957908759986264 L -36.96169713706688 8.878791851808668 L -37.3775205187024 6.922496650341062 Z " stroke="#191919" stroke-width="0.35 px" style="stroke-width:0.35;stroke-miterlimit:4;stroke-dasharray:none;fill:#cccccc;fill-opacity:1.0;fill-rule: evenodd"/>
<path id="Body_f0098"  d="M -34.86231416913342 15.15318615910994 L -43.92539203949992 19.37936877651693 L -43.08015551601852 21.191984350590232 L -34.01707764565202 16.965801733183238 L -34.86231416913342 15.15318615910994 Z " stroke="#191919" stroke-width="0.35 px" style="stroke-width:0.35;stroke-miterlimit:4;stroke-dasharray:none;fill:#cccccc;fill-opacity:1.0;fill-rule: evenodd"/>
<path id="Body_f0099"  d="M -30.560070112381105 22.607125308768317 L -38.440177648448326 28.7637400620249 L -37.20885469779701 30.33976156923834 L -29.328747161729787 24.183146815981758 L -30.560070112381105 22.607125308768317 Z " stroke="#191919" stroke-width="0.35 px" style="stroke-width:0.35;stroke-miterlimit:4;stroke-dasharray:none;fill:#cccccc;fill-opacity:1.0;fill-rule: evenodd"/>
<path id="Body_f0100"  d="M -24.691320821350807 28.902226144315076 L -30.984524731849184 36.67368575888478 L -29.430232808935244 37.932326540984455 L -23.13702889843687 30.160866926414748 L -24.691320821350807 28.902226144315076 Z " stroke="#191919" stroke-width="0.35 px" style="stroke-width:0.35;stroke-miterlimit:4;stroke-dasharray:none;fill:#cccccc;fill-opacity:1.0;fill-rule: evenodd"/>
<path id="Body_f0101"  d="M -17.55689762428411 33.715802612579296 L -21.94060909217489 42.70374307557096 L -20.143020999576557 43.580485369149116 L -15.75930953168578 34.59254490615745 L -17.55689762428411 33.715802612579296 Z " stroke="#191919" stroke-width="0.35 px" style="stroke-width:0.35;stroke-miterlimit:4;stroke-dasharray:none;fill:#cccccc;fill-opacity:1.0;fill-rule: evenodd"/>
<path id="Body_f0102"  d="M -9.522510129852108 36.8011114074951 L -11.772020673290761 46.54481205534745 L -9.82328054372029 46.99471416403517 L -7.573770000281641 37.25101351618283 L -9.522510129852108 36.8011114074951 Z " stroke="#191919" stroke-width="0.35 px" style="stroke-width:0.35;stroke-miterlimit:4;stroke-dasharray:none;fill:#cccccc;fill-opacity:1.0;fill-rule: evenodd"/>
<path id="Body_f0103"  d="M 36.96169713706688 8.87879185180866 L 46.743173144404935 10.957908759986253 L 47.158996526040454 9.001613558518645 L 37.3775205187024 6.922496650341049 L 36.96169713706688 8.87879185180866 Z " stroke="#191919" stroke-width="0.35 px" style="stroke-width:0.35;stroke-miterlimit:4;stroke-dasharray:none;fill:#cccccc;fill-opacity:1.0;fill-rule: evenodd"/>
<path id="Body_f0104"  d="M 29.328747161729797 24.18314681598175 L 37.208854697797015 30.339761569238338 L 38.44017764844833 28.763740062024894 L 30.560070112381112 22.60712530876831 L 29.328747161729797 24.18314681598175 Z " stroke="#191919" stroke-width="0.35 px" style="stroke-width:0.35;stroke-miterlimit:4;stroke-dasharray:none;fill:#cccccc;fill-opacity:1.0;fill-rule: evenodd"/>
<path id="Body_f0105"  d="M 34.01707764565202 16.965801733183234 L 43.080155516018515 21.191984350590225 L 43.92539203949992 19.379368776516927 L 34.86231416913342 15.153186159109932 L 34.01707764565202 16.965801733183234 Z " stroke="#191919" stroke-width="0.35 px" style="stroke-width:0.35;stroke-miterlimit:4;stroke-dasharray:none;fill:#cccccc;fill-opacity:1.0;fill-rule: evenodd"/>
<path id="Body_f0106"  d="M -0.9999999999999964 38.000000000000014 L -0.9999999999999964 48.000000000000014 L 1.0 48.00000000000002 L 1.0 38.00000000000002 L -0.9999999999999964 38.000000000000014 Z " stroke="#191919" stroke-width="0.35 px" style="stroke-width:0.35;stroke-miterlimit:4;stroke-dasharray:none;fill:#cccccc;fill-opacity:1.0;fill-rule: evenodd"/>
<path id="Body_f0107"  d="M 7.573770000281648 37.25101351618282 L 9.823280543720294 46.99471416403517 L 11.772020673290765 46.54481205534744 L 9.522510129852114 36.80111140749509 L 7.573770000281648 37.25101351618282 Z " stroke="#191919" stroke-width="0.35 px" style="stroke-width:0.35;stroke-miterlimit:4;stroke-dasharray:none;fill:#cccccc;fill-opacity:1.0;fill-rule: evenodd"/>
<path id="Body_f0108"  d="M 15.759309531685796 34.59254490615744 L 20.143020999576564 43.58048536914911 L 21.940609092174903 42.703743075570955 L 17.556897624284126 33.71580261257928 L 15.759309531685796 34.59254490615744 Z " stroke="#191919" stroke-width="0.35 px" style="stroke-width:0.35;stroke-miterlimit:4;stroke-dasharray:none;fill:#cccccc;fill-opacity:1.0;fill-rule: evenodd"/>
<path id="Body_f0109"  d="M 23.137028898436878 30.160866926414737 L 29.43023280893525 37.93232654098445 L 30.98452473184919 36.67368575888477 L 24.691320821350818 28.902226144315065 L 23.137028898436878 30.160866926414737 Z " stroke="#191919" stroke-width="0.35 px" style="stroke-width:0.35;stroke-miterlimit:4;stroke-dasharray:none;fill:#cccccc;fill-opacity:1.0;fill-rule: evenodd"/>
<title>b'Body'</title>
</g>
</svg>