%TF.GenerationSoftware,KiCad,Pcbnew,6.0.9+dfsg-1~bpo11+1*%
%TF.CreationDate,2022-12-30T14:53:09-06:00*%
%TF.ProjectId,Pedals,50656461-6c73-42e6-9b69-6361645f7063,rev?*%
%TF.SameCoordinates,Original*%
%TF.FileFunction,Profile,NP*%
%FSLAX46Y46*%
G04 Gerber Fmt 4.6, Leading zero omitted, Abs format (unit mm)*
G04 Created by KiCad (PCBNEW 6.0.9+dfsg-1~bpo11+1) date 2022-12-30 14:53:09*
%MOMM*%
%LPD*%
G01*
G04 APERTURE LIST*
%TA.AperFunction,Profile*%
%ADD10C,0.349999*%
%TD*%
G04 APERTURE END LIST*
D10*
X163336833Y-77300384D02*
X163402943Y-77352336D01*
X164097310Y-77664445D02*
X164183488Y-77679835D01*
X164359941Y-77697722D02*
X164449996Y-77699999D01*
X125210088Y-74988996D02*
X125421681Y-74687955D01*
X129208697Y-124027430D02*
X129284154Y-123988784D01*
X168510819Y-76621198D02*
X168625807Y-76968736D01*
X165852333Y-121402946D02*
X165800381Y-121336836D01*
X129268735Y-71974189D02*
X129621871Y-71876192D01*
X162911211Y-76784153D02*
X162953349Y-76857438D01*
X126702277Y-122540054D02*
X126709035Y-122628927D01*
X164012643Y-124144904D02*
X164097310Y-124164445D01*
X130144905Y-76387352D02*
X130164446Y-76302685D01*
X128921198Y-72089177D02*
X129268735Y-71974189D01*
X165745378Y-77126660D02*
X165800381Y-77063162D01*
X126953353Y-123357438D02*
X126998872Y-123428441D01*
X130190964Y-76128927D02*
X130197722Y-76040054D01*
X129563162Y-77300384D02*
X129626660Y-77245381D01*
X168913296Y-78408717D02*
X168940779Y-78778096D01*
X129626660Y-121154617D02*
X129563162Y-121099614D01*
X125013959Y-75299323D02*
X125210088Y-74988996D01*
X164449996Y-77699999D02*
X164449996Y-77699999D01*
X166093807Y-75348290D02*
X166062472Y-75268820D01*
X131449999Y-71650000D02*
X161449996Y-71650000D01*
X123986700Y-78408717D02*
X124032193Y-78042476D01*
X130179835Y-122716507D02*
X130190964Y-122628927D01*
X127768820Y-124062475D02*
X127848290Y-124093810D01*
X127288995Y-72910088D02*
X127599322Y-72713959D01*
X124669112Y-75945376D02*
X124833549Y-75618321D01*
X165912041Y-73121681D02*
X166203181Y-73348484D01*
X126755094Y-122012646D02*
X126735553Y-122097313D01*
X129563162Y-121099614D02*
X129497053Y-121047662D01*
X166093807Y-123051708D02*
X166121319Y-122970396D01*
X164628923Y-124190964D02*
X164716504Y-124179835D01*
X165051705Y-124093810D02*
X165131175Y-124062475D01*
X130164446Y-122097313D02*
X130144905Y-122012646D01*
X165357435Y-120953352D02*
X165284150Y-120911214D01*
X168804554Y-77679989D02*
X168867803Y-78042476D01*
X128802686Y-74235553D02*
X128716507Y-74220163D01*
X165208694Y-124027430D02*
X165284150Y-123988784D01*
X129208697Y-77527430D02*
X129284154Y-77488784D01*
X128887352Y-124144904D02*
X128970396Y-124121323D01*
X129745381Y-121273338D02*
X129687437Y-121212562D01*
X125890241Y-74116192D02*
X126146699Y-73846699D01*
X166190961Y-122628927D02*
X166197719Y-122540054D01*
X163402943Y-123852336D02*
X163471554Y-123901127D01*
X165901124Y-121471557D02*
X165852333Y-121402946D01*
X128271072Y-74209034D02*
X128183491Y-74220163D01*
X162755091Y-122887352D02*
X162778672Y-122970396D01*
X128449999Y-120699999D02*
X128449999Y-120699999D01*
X128449999Y-124199999D02*
X128449999Y-124199999D01*
X129626660Y-123745381D02*
X129687437Y-123687436D01*
X130121323Y-122970396D02*
X130144905Y-122887352D01*
X162998868Y-74971557D02*
X162953349Y-75042560D01*
X129946646Y-75042560D02*
X129901127Y-74971557D01*
X125648483Y-123903185D02*
X125421681Y-123612045D01*
X129800385Y-121336836D02*
X129745381Y-121273338D01*
X127154617Y-123626660D02*
X127212562Y-123687436D01*
X124274189Y-121331264D02*
X124176192Y-120978129D01*
X162872565Y-75191301D02*
X162837519Y-75268820D01*
X162778672Y-75429602D02*
X162755091Y-75512646D01*
X166483805Y-73590241D02*
X166753299Y-73846699D01*
X168949996Y-119150000D02*
X168940779Y-119521903D01*
X164887349Y-124144904D02*
X164970393Y-124121323D01*
X162720160Y-76216507D02*
X162735550Y-76302685D01*
X166199996Y-122449999D02*
X166199996Y-122449999D01*
X166179832Y-122716507D02*
X166190961Y-122628927D01*
X126702277Y-122359944D02*
X126700000Y-122449999D01*
X167886037Y-123000677D02*
X167689909Y-123311004D01*
X163047659Y-74902946D02*
X162998868Y-74971557D01*
X165852333Y-76997052D02*
X165901124Y-76928441D01*
X129626660Y-74654617D02*
X129563162Y-74599614D01*
X129428441Y-77401127D02*
X129497053Y-77352336D01*
X127336837Y-123800384D02*
X127402946Y-123852336D01*
X162735550Y-76302685D02*
X162755091Y-76387352D01*
X166199996Y-75949999D02*
X166197719Y-75859944D01*
X130093810Y-121848290D02*
X130062476Y-121768820D01*
X125421681Y-123612045D02*
X125210088Y-123311004D01*
X128012647Y-74255094D02*
X127929603Y-74278675D01*
X130027430Y-76708697D02*
X130062476Y-76631178D01*
X129357438Y-77446646D02*
X129428441Y-77401127D01*
X163212559Y-121212562D02*
X163154614Y-121273338D01*
X126806189Y-76551708D02*
X126837523Y-76631178D01*
X127615845Y-120911214D02*
X127542560Y-120953352D01*
X124176192Y-77321871D02*
X124274189Y-76968736D01*
X130062476Y-123131178D02*
X130093810Y-123051708D01*
X129621871Y-126423808D02*
X129268735Y-126325811D01*
X126696815Y-124951517D02*
X126416192Y-124709760D01*
X165131175Y-120837523D02*
X165051705Y-120806188D01*
X164970393Y-74278675D02*
X164887349Y-74255094D01*
X131449999Y-71650000D02*
X131449999Y-71650000D01*
X128802686Y-124164445D02*
X128887352Y-124144904D01*
X130093810Y-123051708D02*
X130121323Y-122970396D01*
X162911211Y-121615845D02*
X162872565Y-121691301D01*
X162720160Y-75683491D02*
X162709031Y-75771071D01*
X165284150Y-123988784D02*
X165357435Y-123946646D01*
X130199999Y-75949999D02*
X130199999Y-75949999D01*
X168867803Y-120257523D02*
X168804554Y-120620010D01*
X131449999Y-126650000D02*
X131449999Y-126650000D01*
X166197719Y-122359944D02*
X166190961Y-122271071D01*
X165131175Y-124062475D02*
X165208694Y-124027430D01*
X162911211Y-75115845D02*
X162872565Y-75191301D01*
X130027430Y-123208697D02*
X130062476Y-123131178D01*
X163615842Y-120911214D02*
X163542557Y-120953352D01*
X163631260Y-126325811D02*
X163278125Y-126423808D01*
X126720163Y-122183491D02*
X126709035Y-122271071D01*
X128802686Y-77664445D02*
X128887352Y-77644904D01*
X164359941Y-74202276D02*
X164271068Y-74209034D01*
X163615842Y-74411214D02*
X163542557Y-74453352D01*
X165284150Y-74411214D02*
X165208694Y-74372568D01*
X126953353Y-76857438D02*
X126998872Y-76928441D01*
X126735553Y-75597313D02*
X126720163Y-75683491D01*
X162709031Y-75771071D02*
X162702273Y-75859944D01*
X127154617Y-77126660D02*
X127212562Y-77187436D01*
X166062472Y-76631178D02*
X166093807Y-76551708D01*
X127099614Y-77063162D02*
X127154617Y-77126660D01*
X162837519Y-75268820D02*
X162806185Y-75348290D01*
X123959217Y-78778096D02*
X123986700Y-78408717D01*
X127848290Y-74306188D02*
X127768820Y-74337523D01*
X164981675Y-72533549D02*
X165300674Y-72713959D01*
X166062472Y-121768820D02*
X166027427Y-121691301D01*
X129131179Y-74337523D02*
X129051708Y-74306188D01*
X124833549Y-122681679D02*
X124669112Y-122354623D01*
X127336837Y-121099614D02*
X127273339Y-121154617D01*
X166753299Y-124453303D02*
X166753299Y-124453303D01*
X162720160Y-122716507D02*
X162735550Y-122802685D01*
X128970396Y-120778675D02*
X128887352Y-120755094D01*
X126998872Y-74971557D02*
X126953353Y-75042560D01*
X166190961Y-76128927D02*
X166197719Y-76040054D01*
X127099614Y-74836836D02*
X127047662Y-74902946D01*
X168379093Y-122020126D02*
X168230884Y-122354623D01*
X129687437Y-74712562D02*
X129626660Y-74654617D01*
X126735553Y-122802685D02*
X126755094Y-122887352D01*
X165497049Y-74547662D02*
X165428438Y-74498871D01*
X127047662Y-123497052D02*
X127099614Y-123563162D01*
X164540051Y-124197722D02*
X164628923Y-124190964D01*
X166199996Y-75949999D02*
X166199996Y-75949999D01*
X163099611Y-123563162D02*
X163154614Y-123626660D01*
X129051708Y-120806188D02*
X128970396Y-120778675D01*
X130179835Y-75683491D02*
X130164446Y-75597313D01*
X127599322Y-72713959D02*
X127918321Y-72533549D01*
X166190961Y-75771071D02*
X166179832Y-75683491D01*
X130197722Y-122540054D02*
X130199999Y-122449999D01*
X162920006Y-126504558D02*
X162557519Y-126567807D01*
X165626657Y-77245381D02*
X165687433Y-77187436D01*
X164449996Y-120699999D02*
X164449996Y-120699999D01*
X163278125Y-126423808D02*
X162920006Y-126504558D01*
X126700000Y-75949999D02*
X126702277Y-76040054D01*
X127929603Y-120778675D02*
X127848290Y-120806188D01*
X129208697Y-74372568D02*
X129131179Y-74337523D01*
X124520903Y-122020126D02*
X124389177Y-121678801D01*
X127154617Y-121273338D02*
X127099614Y-121336836D01*
X168949996Y-119150000D02*
X168949996Y-119150000D01*
X128579873Y-72220903D02*
X128921198Y-72089177D01*
X129051708Y-74306188D02*
X128970396Y-74278675D01*
X123950000Y-119150000D02*
X123950000Y-79150000D01*
X128628927Y-77690964D02*
X128716507Y-77679835D01*
X166753299Y-124453303D02*
X166483805Y-124709760D01*
X163273335Y-74654617D02*
X163212559Y-74712562D01*
X165428438Y-74498871D02*
X165357435Y-74453352D01*
X126872568Y-76708697D02*
X126911215Y-76784153D01*
X164320122Y-126079096D02*
X163978797Y-126210822D01*
X164540051Y-74202276D02*
X164449996Y-74199999D01*
X163929599Y-74278675D02*
X163848287Y-74306188D01*
X129988784Y-121615845D02*
X129946646Y-121542560D01*
X126911215Y-123284153D02*
X126953353Y-123357438D01*
X128802686Y-120735553D02*
X128716507Y-120720163D01*
X162702273Y-122359944D02*
X162699996Y-122449999D01*
X127336837Y-74599614D02*
X127273339Y-74654617D01*
X166027427Y-76708697D02*
X166062472Y-76631178D01*
X131078096Y-71659217D02*
X131449999Y-71650000D01*
X164359941Y-120702276D02*
X164271068Y-120709034D01*
X127471557Y-123901127D02*
X127542560Y-123946646D01*
X165497049Y-77352336D02*
X165563159Y-77300384D01*
X163848287Y-124093810D02*
X163929599Y-124121323D01*
X127212562Y-74712562D02*
X127154617Y-74773338D01*
X129979989Y-71795442D02*
X130342476Y-71732193D01*
X165051705Y-74306188D02*
X164970393Y-74278675D01*
X165300674Y-72713959D02*
X165611001Y-72910088D01*
X127154617Y-74773338D02*
X127099614Y-74836836D01*
X166121319Y-76470396D02*
X166144901Y-76387352D01*
X129852337Y-74902946D02*
X129800385Y-74836836D01*
X164183488Y-120720163D02*
X164097310Y-120735553D01*
X126872568Y-75191301D02*
X126837523Y-75268820D01*
X128449999Y-77699999D02*
X128449999Y-77699999D01*
X165051705Y-77593810D02*
X165131175Y-77562475D01*
X166197719Y-122540054D02*
X166199996Y-122449999D01*
X163768817Y-77562475D02*
X163848287Y-77593810D01*
X127929603Y-124121323D02*
X128012647Y-124144904D01*
X128716507Y-77679835D02*
X128802686Y-77664445D01*
X168949996Y-79150000D02*
X168949996Y-119150000D01*
X161449996Y-71650000D02*
X161449996Y-71650000D01*
X162702273Y-76040054D02*
X162709031Y-76128927D01*
X166062472Y-75268820D02*
X166027427Y-75191301D01*
X129745381Y-77126660D02*
X129800385Y-77063162D01*
X127691302Y-74372568D02*
X127615845Y-74411214D01*
X127848290Y-120806188D02*
X127768820Y-120837523D01*
X168723804Y-77321871D02*
X168804554Y-77679989D01*
X130144905Y-122012646D02*
X130121323Y-121929602D01*
X127212562Y-77187436D02*
X127273339Y-77245381D01*
X127402946Y-121047662D02*
X127336837Y-121099614D01*
X129901127Y-76928441D02*
X129946646Y-76857438D01*
X129497053Y-123852336D02*
X129563162Y-123800384D01*
X128921198Y-126210822D02*
X128579873Y-126079096D01*
X168066447Y-122681679D02*
X167886037Y-123000677D01*
X129208697Y-120872568D02*
X129131179Y-120837523D01*
X128183491Y-74220163D02*
X128097313Y-74235553D01*
X125648483Y-74396816D02*
X125890241Y-74116192D01*
X165687433Y-123687436D02*
X165745378Y-123626660D01*
X163978797Y-72089177D02*
X164320122Y-72220903D01*
X127273339Y-123745381D02*
X127336837Y-123800384D01*
X165563159Y-121099614D02*
X165497049Y-121047662D01*
X165988781Y-121615845D02*
X165946643Y-121542560D01*
X165563159Y-77300384D02*
X165626657Y-77245381D01*
X130342476Y-126567807D02*
X129979989Y-126504558D01*
X123950000Y-79150000D02*
X123959217Y-78778096D01*
X129946646Y-121542560D02*
X129901127Y-121471557D01*
X127929603Y-77621323D02*
X128012647Y-77644904D01*
X164802682Y-120735553D02*
X164716504Y-120720163D01*
X130199999Y-122449999D02*
X130199999Y-122449999D01*
X124520903Y-76279874D02*
X124669112Y-75945376D01*
X126416192Y-73590241D02*
X126696815Y-73348484D01*
X129988784Y-75115845D02*
X129946646Y-75042560D01*
X162837519Y-121768820D02*
X162806185Y-121848290D01*
X130062476Y-75268820D02*
X130027430Y-75191301D01*
X165946643Y-75042560D02*
X165901124Y-74971557D01*
X127768820Y-120837523D02*
X127691302Y-120872568D01*
X164716504Y-77679835D02*
X164802682Y-77664445D01*
X163691298Y-77527430D02*
X163768817Y-77562475D01*
X163047659Y-76997052D02*
X163099611Y-77063162D01*
X126998872Y-123428441D02*
X127047662Y-123497052D01*
X164359941Y-124197722D02*
X164449996Y-124199999D01*
X166144901Y-75512646D02*
X166121319Y-75429602D01*
X162699996Y-75949999D02*
X162699996Y-75949999D01*
X165852333Y-123497052D02*
X165901124Y-123428441D01*
X163273335Y-77245381D02*
X163336833Y-77300384D01*
X164970393Y-77621323D02*
X165051705Y-77593810D01*
X168230884Y-122354623D02*
X168066447Y-122681679D01*
X162872565Y-76708697D02*
X162911211Y-76784153D01*
X128887352Y-120755094D02*
X128802686Y-120735553D01*
X164887349Y-74255094D02*
X164802682Y-74235553D01*
X128245376Y-125930888D02*
X127918321Y-125766451D01*
X168949996Y-79150000D02*
X168949996Y-79150000D01*
X163929599Y-77621323D02*
X164012643Y-77644904D01*
X130164446Y-75597313D02*
X130144905Y-75512646D01*
X129497053Y-77352336D02*
X129563162Y-77300384D01*
X128359944Y-120702276D02*
X128271072Y-120709034D01*
X164097310Y-124164445D02*
X164183488Y-124179835D01*
X123986700Y-119891283D02*
X123959217Y-119521903D01*
X164271068Y-77690964D02*
X164359941Y-77697722D01*
X164012643Y-120755094D02*
X163929599Y-120778675D01*
X168867803Y-78042476D02*
X168913296Y-78408717D01*
X165563159Y-123800384D02*
X165626657Y-123745381D01*
X167009756Y-74116192D02*
X167251513Y-74396816D01*
X163099611Y-77063162D02*
X163154614Y-77126660D01*
X129852337Y-123497052D02*
X129901127Y-123428441D01*
X166199996Y-122449999D02*
X166199996Y-122449999D01*
X130197722Y-76040054D02*
X130199999Y-75949999D01*
X165852333Y-74902946D02*
X165800381Y-74836836D01*
X128097313Y-124164445D02*
X128183491Y-124179835D01*
X129428441Y-123901127D02*
X129497053Y-123852336D01*
X164449996Y-120699999D02*
X164359941Y-120702276D01*
X164271068Y-120709034D02*
X164183488Y-120720163D01*
X164716504Y-120720163D02*
X164628923Y-120709034D01*
X126755094Y-76387352D02*
X126778676Y-76470396D01*
X163768817Y-120837523D02*
X163691298Y-120872568D01*
X130190964Y-75771071D02*
X130179835Y-75683491D01*
X126720163Y-76216507D02*
X126735553Y-76302685D01*
X130164446Y-76302685D02*
X130179835Y-76216507D01*
X163471554Y-77401127D02*
X163542557Y-77446646D01*
X166164442Y-122802685D02*
X166179832Y-122716507D01*
X127273339Y-74654617D02*
X127212562Y-74712562D01*
X164097310Y-74235553D02*
X164012643Y-74255094D01*
X130164446Y-122802685D02*
X130179835Y-122716507D01*
X166190961Y-122271071D02*
X166179832Y-122183491D01*
X162191279Y-126613300D02*
X161821900Y-126640782D01*
X166164442Y-76302685D02*
X166179832Y-76216507D01*
X129946646Y-123357438D02*
X129988784Y-123284153D01*
X128628927Y-120709034D02*
X128540054Y-120702276D01*
X124095442Y-120620010D02*
X124032193Y-120257523D01*
X128359944Y-77697722D02*
X128449999Y-77699999D01*
X129800385Y-74836836D02*
X129745381Y-74773338D01*
X166093807Y-121848290D02*
X166062472Y-121768820D01*
X126709035Y-76128927D02*
X126720163Y-76216507D01*
X130027430Y-75191301D02*
X129988784Y-75115845D01*
X165901124Y-74971557D02*
X165852333Y-74902946D01*
X126872568Y-123208697D02*
X126911215Y-123284153D01*
X166144901Y-122012646D02*
X166121319Y-121929602D01*
X126735553Y-76302685D02*
X126755094Y-76387352D01*
X168625807Y-121331264D02*
X168510819Y-121678801D01*
X128970396Y-74278675D02*
X128887352Y-74255094D01*
X130062476Y-76631178D02*
X130093810Y-76551708D01*
X129621871Y-71876192D02*
X129979989Y-71795442D01*
X165051705Y-120806188D02*
X164970393Y-120778675D01*
X165946643Y-121542560D02*
X165901124Y-121471557D01*
X167689909Y-74988996D02*
X167886037Y-75299323D01*
X129901127Y-74971557D02*
X129852337Y-74902946D01*
X126806189Y-75348290D02*
X126778676Y-75429602D01*
X126700000Y-122449999D02*
X126700000Y-122449999D01*
X126720163Y-122716507D02*
X126735553Y-122802685D01*
X127099614Y-123563162D02*
X127154617Y-123626660D01*
X127402946Y-77352336D02*
X127471557Y-77401127D01*
X129284154Y-74411214D02*
X129208697Y-74372568D01*
X128540054Y-74202276D02*
X128449999Y-74199999D01*
X130708716Y-126613300D02*
X130342476Y-126567807D01*
X161821900Y-126640782D02*
X161449996Y-126650000D01*
X166093807Y-76551708D02*
X166121319Y-76470396D01*
X126911215Y-121615845D02*
X126872568Y-121691301D01*
X128097313Y-77664445D02*
X128183491Y-77679835D01*
X163273335Y-123745381D02*
X163336833Y-123800384D01*
X126998872Y-76928441D02*
X127047662Y-76997052D01*
X124095442Y-77679989D02*
X124176192Y-77321871D01*
X129428441Y-120998871D02*
X129357438Y-120953352D01*
X168510819Y-121678801D02*
X168379093Y-122020126D01*
X163471554Y-74498871D02*
X163402943Y-74547662D01*
X161449996Y-71650000D02*
X161821900Y-71659217D01*
X163471554Y-123901127D02*
X163542557Y-123946646D01*
X129268735Y-126325811D02*
X128921198Y-126210822D01*
X129497053Y-121047662D02*
X129428441Y-120998871D01*
X129687437Y-121212562D02*
X129626660Y-121154617D01*
X127615845Y-74411214D02*
X127542560Y-74453352D01*
X127336837Y-77300384D02*
X127402946Y-77352336D01*
X162806185Y-75348290D02*
X162778672Y-75429602D01*
X163336833Y-74599614D02*
X163273335Y-74654617D01*
X126953353Y-121542560D02*
X126911215Y-121615845D01*
X161449996Y-126650000D02*
X131449999Y-126650000D01*
X130121323Y-75429602D02*
X130093810Y-75348290D01*
X164887349Y-77644904D02*
X164970393Y-77621323D01*
X163631260Y-71974189D02*
X163978797Y-72089177D01*
X126806189Y-121848290D02*
X126778676Y-121929602D01*
X128579873Y-126079096D02*
X128245376Y-125930888D01*
X163154614Y-121273338D02*
X163099611Y-121336836D01*
X128449999Y-74199999D02*
X128449999Y-74199999D01*
X129357438Y-123946646D02*
X129428441Y-123901127D01*
X162806185Y-76551708D02*
X162837519Y-76631178D01*
X127615845Y-77488784D02*
X127691302Y-77527430D01*
X162735550Y-122802685D02*
X162755091Y-122887352D01*
X127542560Y-77446646D02*
X127615845Y-77488784D01*
X162557519Y-126567807D02*
X162191279Y-126613300D01*
X126987955Y-125178320D02*
X126696815Y-124951517D01*
X127615845Y-123988784D02*
X127691302Y-124027430D01*
X129988784Y-76784153D02*
X130027430Y-76708697D01*
X128716507Y-74220163D02*
X128628927Y-74209034D01*
X165745378Y-123626660D02*
X165800381Y-123563162D01*
X163471554Y-120998871D02*
X163402943Y-121047662D01*
X128183491Y-124179835D02*
X128271072Y-124190964D01*
X166121319Y-75429602D02*
X166093807Y-75348290D01*
X163154614Y-77126660D02*
X163212559Y-77187436D01*
X163542557Y-120953352D02*
X163471554Y-120998871D01*
X168230884Y-75945376D02*
X168379093Y-76279874D01*
X164012643Y-74255094D02*
X163929599Y-74278675D01*
X129979989Y-126504558D02*
X129621871Y-126423808D01*
X128449999Y-74199999D02*
X128359944Y-74202276D01*
X128359944Y-124197722D02*
X128449999Y-124199999D01*
X162709031Y-122271071D02*
X162702273Y-122359944D01*
X124833549Y-75618321D02*
X125013959Y-75299323D01*
X164449996Y-74199999D02*
X164359941Y-74202276D01*
X165131175Y-77562475D02*
X165208694Y-77527430D01*
X165497049Y-123852336D02*
X165563159Y-123800384D01*
X163336833Y-121099614D02*
X163273335Y-121154617D01*
X129745381Y-123626660D02*
X129800385Y-123563162D01*
X128183491Y-120720163D02*
X128097313Y-120735553D01*
X162953349Y-121542560D02*
X162911211Y-121615845D01*
X124389177Y-121678801D02*
X124274189Y-121331264D01*
X127691302Y-120872568D02*
X127615845Y-120911214D01*
X127929603Y-74278675D02*
X127848290Y-74306188D01*
X162778672Y-76470396D02*
X162806185Y-76551708D01*
X165208694Y-77527430D02*
X165284150Y-77488784D01*
X128628927Y-124190964D02*
X128716507Y-124179835D01*
X165357435Y-77446646D02*
X165428438Y-77401127D01*
X128271072Y-77690964D02*
X128359944Y-77697722D01*
X162837519Y-76631178D02*
X162872565Y-76708697D01*
X163691298Y-120872568D02*
X163615842Y-120911214D01*
X163768817Y-124062475D02*
X163848287Y-124093810D01*
X165800381Y-121336836D02*
X165745378Y-121273338D01*
X168940779Y-78778096D02*
X168949996Y-79150000D01*
X129800385Y-123563162D02*
X129852337Y-123497052D01*
X130144905Y-75512646D02*
X130121323Y-75429602D01*
X163768817Y-74337523D02*
X163691298Y-74372568D01*
X166199996Y-122449999D02*
X166197719Y-122359944D01*
X165497049Y-121047662D02*
X165428438Y-120998871D01*
X129946646Y-76857438D02*
X129988784Y-76784153D01*
X126702277Y-75859944D02*
X126700000Y-75949999D01*
X162709031Y-122628927D02*
X162720160Y-122716507D01*
X164628923Y-74209034D02*
X164540051Y-74202276D01*
X164271068Y-74209034D02*
X164183488Y-74220163D01*
X163402943Y-77352336D02*
X163471554Y-77401127D01*
X165988781Y-75115845D02*
X165946643Y-75042560D01*
X164320122Y-72220903D02*
X164654620Y-72369112D01*
X130062476Y-121768820D02*
X130027430Y-121691301D01*
X164716504Y-74220163D02*
X164628923Y-74209034D01*
X167886037Y-75299323D02*
X168066447Y-75618321D01*
X126778676Y-76470396D02*
X126806189Y-76551708D01*
X124669112Y-122354623D02*
X124520903Y-122020126D01*
X127099614Y-121336836D02*
X127047662Y-121402946D01*
X163212559Y-77187436D02*
X163273335Y-77245381D01*
X166164442Y-122097313D02*
X166144901Y-122012646D01*
X167689909Y-123311004D02*
X167478316Y-123612045D01*
X130199999Y-122449999D02*
X130197722Y-122359944D01*
X130190964Y-122271071D02*
X130179835Y-122183491D01*
X163154614Y-74773338D02*
X163099611Y-74836836D01*
X127848290Y-77593810D02*
X127929603Y-77621323D01*
X129626660Y-77245381D02*
X129687437Y-77187436D01*
X163848287Y-120806188D02*
X163768817Y-120837523D01*
X165626657Y-121154617D02*
X165563159Y-121099614D01*
X126911215Y-75115845D02*
X126872568Y-75191301D01*
X165687433Y-121212562D02*
X165626657Y-121154617D01*
X166753299Y-73846699D02*
X166753299Y-73846699D01*
X130121323Y-76470396D02*
X130144905Y-76387352D01*
X163212559Y-74712562D02*
X163154614Y-74773338D01*
X126837523Y-76631178D02*
X126872568Y-76708697D01*
X128540054Y-124197722D02*
X128628927Y-124190964D01*
X128887352Y-77644904D02*
X128970396Y-77621323D01*
X165800381Y-123563162D02*
X165852333Y-123497052D01*
X164802682Y-74235553D02*
X164716504Y-74220163D01*
X165626657Y-123745381D02*
X165687433Y-123687436D01*
X130093810Y-76551708D02*
X130121323Y-76470396D01*
X128449999Y-120699999D02*
X128359944Y-120702276D01*
X164449996Y-74199999D02*
X164449996Y-74199999D01*
X130342476Y-71732193D02*
X130708716Y-71686700D01*
X130197722Y-122359944D02*
X130190964Y-122271071D01*
X164628923Y-120709034D02*
X164540051Y-120702276D01*
X126700000Y-122449999D02*
X126702277Y-122540054D01*
X166203181Y-73348484D02*
X166483805Y-73590241D01*
X163402943Y-121047662D02*
X163336833Y-121099614D01*
X126416192Y-124709760D02*
X126146699Y-124453303D01*
X161821900Y-71659217D02*
X162191279Y-71686700D01*
X128628927Y-74209034D02*
X128540054Y-74202276D01*
X126720163Y-75683491D02*
X126709035Y-75771071D01*
X167478316Y-123612045D02*
X167251513Y-123903185D01*
X127047662Y-121402946D02*
X126998872Y-121471557D01*
X164097310Y-120735553D02*
X164012643Y-120755094D01*
X128012647Y-77644904D02*
X128097313Y-77664445D01*
X162720160Y-122183491D02*
X162709031Y-122271071D01*
X162998868Y-123428441D02*
X163047659Y-123497052D01*
X126709035Y-122628927D02*
X126720163Y-122716507D01*
X166203181Y-124951517D02*
X165912041Y-125178320D01*
X165687433Y-74712562D02*
X165626657Y-74654617D01*
X162778672Y-122970396D02*
X162806185Y-123051708D01*
X166027427Y-121691301D02*
X165988781Y-121615845D01*
X162872565Y-123208697D02*
X162911211Y-123284153D01*
X130179835Y-76216507D02*
X130190964Y-76128927D01*
X162755091Y-122012646D02*
X162735550Y-122097313D01*
X163542557Y-74453352D02*
X163471554Y-74498871D01*
X168940779Y-119521903D02*
X168913296Y-119891283D01*
X166483805Y-124709760D02*
X166203181Y-124951517D01*
X162755091Y-76387352D02*
X162778672Y-76470396D01*
X163047659Y-123497052D02*
X163099611Y-123563162D01*
X126806189Y-123051708D02*
X126837523Y-123131178D01*
X165626657Y-74654617D02*
X165563159Y-74599614D01*
X165901124Y-76928441D02*
X165946643Y-76857438D01*
X165563159Y-74599614D02*
X165497049Y-74547662D01*
X164540051Y-77697722D02*
X164628923Y-77690964D01*
X164887349Y-120755094D02*
X164802682Y-120735553D01*
X165284150Y-77488784D02*
X165357435Y-77446646D01*
X166179832Y-122183491D02*
X166164442Y-122097313D01*
X127288995Y-125389912D02*
X126987955Y-125178320D01*
X130121323Y-121929602D02*
X130093810Y-121848290D01*
X165687433Y-77187436D02*
X165745378Y-77126660D01*
X162709031Y-76128927D02*
X162720160Y-76216507D01*
X165300674Y-125586041D02*
X164981675Y-125766451D01*
X127047662Y-74902946D02*
X126998872Y-74971557D01*
X127273339Y-121154617D02*
X127212562Y-121212562D01*
X126778676Y-121929602D02*
X126755094Y-122012646D01*
X164449996Y-124199999D02*
X164449996Y-124199999D01*
X163691298Y-74372568D02*
X163615842Y-74411214D01*
X128970396Y-124121323D02*
X129051708Y-124093810D01*
X129745381Y-74773338D02*
X129687437Y-74712562D01*
X125890241Y-124183809D02*
X125648483Y-123903185D01*
X165611001Y-72910088D02*
X165912041Y-73121681D01*
X163848287Y-77593810D02*
X163929599Y-77621323D01*
X128970396Y-77621323D02*
X129051708Y-77593810D01*
X166164442Y-75597313D02*
X166144901Y-75512646D01*
X128716507Y-124179835D02*
X128802686Y-124164445D01*
X127471557Y-74498871D02*
X127402946Y-74547662D01*
X130708716Y-71686700D02*
X131078096Y-71659217D01*
X128097313Y-74235553D02*
X128012647Y-74255094D01*
X125210088Y-123311004D02*
X125013959Y-123000677D01*
X165428438Y-123901127D02*
X165497049Y-123852336D01*
X126146699Y-124453303D02*
X125890241Y-124183809D01*
X127471557Y-77401127D02*
X127542560Y-77446646D01*
X165131175Y-74337523D02*
X165051705Y-74306188D01*
X128716507Y-120720163D02*
X128628927Y-120709034D01*
X131449999Y-126650000D02*
X131078096Y-126640782D01*
X128449999Y-124199999D02*
X128540054Y-124197722D01*
X164183488Y-77679835D02*
X164271068Y-77690964D01*
X130199999Y-75949999D02*
X130197722Y-75859944D01*
X162998868Y-76928441D02*
X163047659Y-76997052D01*
X126146699Y-124453303D02*
X126146699Y-124453303D01*
X126700000Y-75949999D02*
X126700000Y-75949999D01*
X126778676Y-75429602D02*
X126755094Y-75512646D01*
X168804554Y-120620010D02*
X168723804Y-120978129D01*
X130144905Y-122887352D02*
X130164446Y-122802685D01*
X165428438Y-120998871D02*
X165357435Y-120953352D01*
X166753299Y-73846699D02*
X167009756Y-74116192D01*
X161449996Y-126650000D02*
X161449996Y-126650000D01*
X125421681Y-74687955D02*
X125648483Y-74396816D01*
X123950000Y-79150000D02*
X123950000Y-79150000D01*
X127273339Y-77245381D02*
X127336837Y-77300384D01*
X127471557Y-120998871D02*
X127402946Y-121047662D01*
X128183491Y-77679835D02*
X128271072Y-77690964D01*
X163542557Y-123946646D02*
X163615842Y-123988784D01*
X165745378Y-121273338D02*
X165687433Y-121212562D01*
X130027430Y-121691301D02*
X129988784Y-121615845D01*
X131078096Y-126640782D02*
X130708716Y-126613300D01*
X165800381Y-74836836D02*
X165745378Y-74773338D01*
X166027427Y-75191301D02*
X165988781Y-75115845D01*
X126837523Y-75268820D02*
X126806189Y-75348290D01*
X126987955Y-73121681D02*
X127288995Y-72910088D01*
X163691298Y-124027430D02*
X163768817Y-124062475D01*
X128271072Y-124190964D02*
X128359944Y-124197722D01*
X162702273Y-122540054D02*
X162709031Y-122628927D01*
X130179835Y-122183491D02*
X130164446Y-122097313D01*
X127047662Y-76997052D02*
X127099614Y-77063162D01*
X126709035Y-75771071D02*
X126702277Y-75859944D01*
X126696815Y-73348484D02*
X126987955Y-73121681D01*
X168379093Y-76279874D02*
X168510819Y-76621198D01*
X164449996Y-124199999D02*
X164540051Y-124197722D01*
X129051708Y-124093810D02*
X129131179Y-124062475D01*
X165901124Y-123428441D02*
X165946643Y-123357438D01*
X163212559Y-123687436D02*
X163273335Y-123745381D01*
X124389177Y-76621198D02*
X124520903Y-76279874D01*
X164271068Y-124190964D02*
X164359941Y-124197722D01*
X129131179Y-120837523D02*
X129051708Y-120806188D01*
X124176192Y-120978129D02*
X124095442Y-120620010D01*
X162920006Y-71795442D02*
X163278125Y-71876192D01*
X165357435Y-74453352D02*
X165284150Y-74411214D01*
X126709035Y-122271071D02*
X126702277Y-122359944D01*
X128449999Y-77699999D02*
X128540054Y-77697722D01*
X167251513Y-123903185D02*
X167009756Y-124183809D01*
X166121319Y-122970396D02*
X166144901Y-122887352D01*
X128540054Y-120702276D02*
X128449999Y-120699999D01*
X164802682Y-77664445D02*
X164887349Y-77644904D01*
X164183488Y-74220163D02*
X164097310Y-74235553D01*
X165946643Y-123357438D02*
X165988781Y-123284153D01*
X129687437Y-123687436D02*
X129745381Y-123626660D01*
X162778672Y-121929602D02*
X162755091Y-122012646D01*
X129284154Y-77488784D02*
X129357438Y-77446646D01*
X165800381Y-77063162D02*
X165852333Y-76997052D01*
X163154614Y-123626660D02*
X163212559Y-123687436D01*
X129901127Y-123428441D02*
X129946646Y-123357438D01*
X165208694Y-74372568D02*
X165131175Y-74337523D01*
X130199999Y-75949999D02*
X130199999Y-75949999D01*
X129428441Y-74498871D02*
X129357438Y-74453352D01*
X126146699Y-73846699D02*
X126416192Y-73590241D01*
X166197719Y-75859944D02*
X166190961Y-75771071D01*
X163099611Y-74836836D02*
X163047659Y-74902946D01*
X164183488Y-124179835D02*
X164271068Y-124190964D01*
X129988784Y-123284153D02*
X130027430Y-123208697D01*
X128097313Y-120735553D02*
X128012647Y-120755094D01*
X164628923Y-77690964D02*
X164716504Y-77679835D01*
X165745378Y-74773338D02*
X165687433Y-74712562D01*
X129852337Y-76997052D02*
X129901127Y-76928441D01*
X162735550Y-122097313D02*
X162720160Y-122183491D01*
X162699996Y-122449999D02*
X162699996Y-122449999D01*
X127402946Y-123852336D02*
X127471557Y-123901127D01*
X125013959Y-123000677D02*
X124833549Y-122681679D01*
X162872565Y-121691301D02*
X162837519Y-121768820D01*
X124032193Y-78042476D02*
X124095442Y-77679989D01*
X165988781Y-123284153D02*
X166027427Y-123208697D01*
X126911215Y-76784153D02*
X126953353Y-76857438D01*
X126872568Y-121691301D02*
X126837523Y-121768820D01*
X162953349Y-75042560D02*
X162911211Y-75115845D01*
X163929599Y-120778675D02*
X163848287Y-120806188D01*
X126837523Y-123131178D02*
X126872568Y-123208697D01*
X168723804Y-120978129D02*
X168625807Y-121331264D01*
X126953353Y-75042560D02*
X126911215Y-75115845D01*
X129563162Y-123800384D02*
X129626660Y-123745381D01*
X126735553Y-122097313D02*
X126720163Y-122183491D01*
X129687437Y-77187436D02*
X129745381Y-77126660D01*
X164970393Y-124121323D02*
X165051705Y-124093810D01*
X129497053Y-74547662D02*
X129428441Y-74498871D01*
X124274189Y-76968736D02*
X124389177Y-76621198D01*
X163542557Y-77446646D02*
X163615842Y-77488784D01*
X128359944Y-74202276D02*
X128271072Y-74209034D01*
X127768820Y-77562475D02*
X127848290Y-77593810D01*
X129357438Y-74453352D02*
X129284154Y-74411214D01*
X164981675Y-125766451D02*
X164654620Y-125930888D01*
X129131179Y-77562475D02*
X129208697Y-77527430D01*
X123959217Y-119521903D02*
X123950000Y-119150000D01*
X162806185Y-123051708D02*
X162837519Y-123131178D01*
X126837523Y-121768820D02*
X126806189Y-121848290D01*
X164540051Y-120702276D02*
X164449996Y-120699999D01*
X129901127Y-121471557D02*
X129852337Y-121402946D01*
X128012647Y-124144904D02*
X128097313Y-124164445D01*
X163402943Y-74547662D02*
X163336833Y-74599614D01*
X163099611Y-121336836D02*
X163047659Y-121402946D01*
X166199996Y-75949999D02*
X166199996Y-75949999D01*
X162998868Y-121471557D02*
X162953349Y-121542560D01*
X127918321Y-72533549D02*
X128245376Y-72369112D01*
X163615842Y-123988784D02*
X163691298Y-124027430D01*
X162699996Y-75949999D02*
X162702273Y-76040054D01*
X164716504Y-124179835D02*
X164802682Y-124164445D01*
X163615842Y-77488784D02*
X163691298Y-77527430D01*
X162837519Y-123131178D02*
X162872565Y-123208697D01*
X166027427Y-123208697D02*
X166062472Y-123131178D01*
X162953349Y-76857438D02*
X162998868Y-76928441D01*
X164012643Y-77644904D02*
X164097310Y-77664445D01*
X129284154Y-123988784D02*
X129357438Y-123946646D01*
X127542560Y-74453352D02*
X127471557Y-74498871D01*
X165988781Y-76784153D02*
X166027427Y-76708697D01*
X127848290Y-124093810D02*
X127929603Y-124121323D01*
X163978797Y-126210822D02*
X163631260Y-126325811D01*
X126778676Y-122970396D02*
X126806189Y-123051708D01*
X126702277Y-76040054D02*
X126709035Y-76128927D01*
X127542560Y-123946646D02*
X127615845Y-123988784D01*
X127542560Y-120953352D02*
X127471557Y-120998871D01*
X168066447Y-75618321D02*
X168230884Y-75945376D01*
X166062472Y-123131178D02*
X166093807Y-123051708D01*
X129852337Y-121402946D02*
X129800385Y-121336836D01*
X162702273Y-75859944D02*
X162699996Y-75949999D01*
X162806185Y-121848290D02*
X162778672Y-121929602D01*
X163848287Y-74306188D02*
X163768817Y-74337523D01*
X164802682Y-124164445D02*
X164887349Y-124144904D01*
X166144901Y-122887352D02*
X166164442Y-122802685D01*
X127918321Y-125766451D02*
X127599322Y-125586041D01*
X128887352Y-74255094D02*
X128802686Y-74235553D01*
X126755094Y-122887352D02*
X126778676Y-122970396D01*
X165208694Y-120872568D02*
X165131175Y-120837523D01*
X165284150Y-120911214D02*
X165208694Y-120872568D01*
X128012647Y-120755094D02*
X127929603Y-120778675D01*
X164970393Y-120778675D02*
X164887349Y-120755094D01*
X129284154Y-120911214D02*
X129208697Y-120872568D01*
X127212562Y-123687436D02*
X127273339Y-123745381D01*
X164654620Y-125930888D02*
X164320122Y-126079096D01*
X168625807Y-76968736D02*
X168723804Y-77321871D01*
X127402946Y-74547662D02*
X127336837Y-74599614D01*
X127212562Y-121212562D02*
X127154617Y-121273338D01*
X164449996Y-77699999D02*
X164540051Y-77697722D01*
X163273335Y-121154617D02*
X163212559Y-121212562D01*
X167478316Y-74687955D02*
X167689909Y-74988996D01*
X130093810Y-75348290D02*
X130062476Y-75268820D01*
X128271072Y-120709034D02*
X128183491Y-120720163D01*
X164654620Y-72369112D02*
X164981675Y-72533549D01*
X163278125Y-71876192D02*
X163631260Y-71974189D01*
X128540054Y-77697722D02*
X128628927Y-77690964D01*
X127768820Y-74337523D02*
X127691302Y-74372568D01*
X166144901Y-76387352D02*
X166164442Y-76302685D01*
X129563162Y-74599614D02*
X129497053Y-74547662D01*
X166179832Y-76216507D02*
X166190961Y-76128927D01*
X130197722Y-75859944D02*
X130190964Y-75771071D01*
X165428438Y-77401127D02*
X165497049Y-77352336D01*
X127691302Y-77527430D02*
X127768820Y-77562475D01*
X162557519Y-71732193D02*
X162920006Y-71795442D01*
X126998872Y-121471557D02*
X126953353Y-121542560D01*
X124032193Y-120257523D02*
X123986700Y-119891283D01*
X165611001Y-125389912D02*
X165300674Y-125586041D01*
X130190964Y-122628927D02*
X130197722Y-122540054D01*
X127691302Y-124027430D02*
X127768820Y-124062475D01*
X162953349Y-123357438D02*
X162998868Y-123428441D01*
X163929599Y-124121323D02*
X164012643Y-124144904D01*
X162191279Y-71686700D02*
X162557519Y-71732193D01*
X167251513Y-74396816D02*
X167478316Y-74687955D01*
X162755091Y-75512646D02*
X162735550Y-75597313D01*
X129051708Y-77593810D02*
X129131179Y-77562475D01*
X162735550Y-75597313D02*
X162720160Y-75683491D01*
X162699996Y-122449999D02*
X162702273Y-122540054D01*
X127599322Y-125586041D02*
X127288995Y-125389912D01*
X167009756Y-124183809D02*
X166753299Y-124453303D01*
X163047659Y-121402946D02*
X162998868Y-121471557D01*
X129357438Y-120953352D02*
X129284154Y-120911214D01*
X166121319Y-121929602D02*
X166093807Y-121848290D01*
X165912041Y-125178320D02*
X165611001Y-125389912D01*
X165357435Y-123946646D02*
X165428438Y-123901127D01*
X129131179Y-124062475D02*
X129208697Y-124027430D01*
X165946643Y-76857438D02*
X165988781Y-76784153D01*
X168913296Y-119891283D02*
X168867803Y-120257523D01*
X163336833Y-123800384D02*
X163402943Y-123852336D01*
X130199999Y-122449999D02*
X130199999Y-122449999D01*
X129800385Y-77063162D02*
X129852337Y-76997052D01*
X166179832Y-75683491D02*
X166164442Y-75597313D01*
X126146699Y-73846699D02*
X126146699Y-73846699D01*
X162911211Y-123284153D02*
X162953349Y-123357438D01*
X126755094Y-75512646D02*
X126735553Y-75597313D01*
X128245376Y-72369112D02*
X128579873Y-72220903D01*
X166197719Y-76040054D02*
X166199996Y-75949999D01*
M02*
