%TF.GenerationSoftware,KiCad,Pcbnew,6.0.9+dfsg-1~bpo11+1*%
%TF.CreationDate,2022-12-30T18:56:56-06:00*%
%TF.ProjectId,hall_pcb,68616c6c-5f70-4636-922e-6b696361645f,rev?*%
%TF.SameCoordinates,Original*%
%TF.FileFunction,Copper,L2,Bot*%
%TF.FilePolarity,Positive*%
%FSLAX46Y46*%
G04 Gerber Fmt 4.6, Leading zero omitted, Abs format (unit mm)*
G04 Created by KiCad (PCBNEW 6.0.9+dfsg-1~bpo11+1) date 2022-12-30 18:56:56*
%MOMM*%
%LPD*%
G01*
G04 APERTURE LIST*
G04 Aperture macros list*
%AMRoundRect*
0 Rectangle with rounded corners*
0 $1 Rounding radius*
0 $2 $3 $4 $5 $6 $7 $8 $9 X,Y pos of 4 corners*
0 Add a 4 corners polygon primitive as box body*
4,1,4,$2,$3,$4,$5,$6,$7,$8,$9,$2,$3,0*
0 Add four circle primitives for the rounded corners*
1,1,$1+$1,$2,$3*
1,1,$1+$1,$4,$5*
1,1,$1+$1,$6,$7*
1,1,$1+$1,$8,$9*
0 Add four rect primitives between the rounded corners*
20,1,$1+$1,$2,$3,$4,$5,0*
20,1,$1+$1,$4,$5,$6,$7,0*
20,1,$1+$1,$6,$7,$8,$9,0*
20,1,$1+$1,$8,$9,$2,$3,0*%
G04 Aperture macros list end*
%TA.AperFunction,ComponentPad*%
%ADD10RoundRect,0.250000X0.600000X0.725000X-0.600000X0.725000X-0.600000X-0.725000X0.600000X-0.725000X0*%
%TD*%
%TA.AperFunction,ComponentPad*%
%ADD11O,1.700000X1.950000*%
%TD*%
%TA.AperFunction,ViaPad*%
%ADD12C,0.800000*%
%TD*%
G04 APERTURE END LIST*
D10*
%TO.P,J1,1,Pin_1*%
%TO.N,+3V3*%
X138000000Y-58700000D03*
D11*
%TO.P,J1,2,Pin_2*%
%TO.N,/Vout*%
X135500000Y-58700000D03*
%TO.P,J1,3,Pin_3*%
%TO.N,GNDREF*%
X133000000Y-58700000D03*
%TD*%
D12*
%TO.N,+3V3*%
X139000000Y-76000000D03*
%TD*%
%TA.AperFunction,Conductor*%
%TO.N,+3V3*%
G36*
X149199052Y-51833185D02*
G01*
X149522595Y-51841205D01*
X149528788Y-51841511D01*
X149799416Y-51861646D01*
X149842305Y-51864837D01*
X149848490Y-51865451D01*
X150159297Y-51904059D01*
X150165411Y-51904971D01*
X150473068Y-51958653D01*
X150479092Y-51959858D01*
X150658830Y-52000386D01*
X150783029Y-52028391D01*
X150789006Y-52029893D01*
X151088716Y-52113064D01*
X151094603Y-52114854D01*
X151389552Y-52212444D01*
X151395338Y-52214516D01*
X151685025Y-52326313D01*
X151690700Y-52328663D01*
X151690707Y-52328666D01*
X151974613Y-52454459D01*
X151980164Y-52457083D01*
X152127563Y-52531192D01*
X152257741Y-52596643D01*
X152263169Y-52599540D01*
X152511294Y-52739867D01*
X152533884Y-52752643D01*
X152539166Y-52755803D01*
X152686863Y-52849148D01*
X152802544Y-52922260D01*
X152807683Y-52925687D01*
X153063166Y-53105258D01*
X153068144Y-53108943D01*
X153315222Y-53301420D01*
X153320026Y-53305356D01*
X153558205Y-53510546D01*
X153562805Y-53514712D01*
X153751480Y-53694260D01*
X153758185Y-53701348D01*
X153762292Y-53707857D01*
X153796602Y-53738158D01*
X153804453Y-53745723D01*
X154013679Y-53965584D01*
X154017855Y-53970195D01*
X154204642Y-54187011D01*
X154223054Y-54208383D01*
X154226990Y-54213187D01*
X154261686Y-54257725D01*
X154419462Y-54460258D01*
X154423147Y-54465236D01*
X154602721Y-54720722D01*
X154606148Y-54725861D01*
X154772598Y-54989227D01*
X154775758Y-54994509D01*
X154819932Y-55072617D01*
X154928874Y-55265247D01*
X154931771Y-55270675D01*
X155071334Y-55548259D01*
X155073960Y-55553816D01*
X155199738Y-55837687D01*
X155202090Y-55843363D01*
X155214467Y-55875433D01*
X155313913Y-56133112D01*
X155315962Y-56138834D01*
X155413559Y-56433810D01*
X155415345Y-56439686D01*
X155498518Y-56739402D01*
X155500020Y-56745378D01*
X155568550Y-57049296D01*
X155569761Y-57055354D01*
X155575703Y-57089406D01*
X155610313Y-57287761D01*
X155623442Y-57363007D01*
X155624354Y-57369121D01*
X155654202Y-57609412D01*
X155662960Y-57679921D01*
X155663574Y-57686104D01*
X155686901Y-57999608D01*
X155686902Y-57999626D01*
X155687209Y-58005835D01*
X155688054Y-58039915D01*
X155695147Y-58326108D01*
X155695184Y-58329999D01*
X155694791Y-58394367D01*
X155695175Y-58395711D01*
X155695267Y-58397056D01*
X155695267Y-85316048D01*
X155695265Y-85316789D01*
X155695259Y-85317809D01*
X155695222Y-85320180D01*
X155689035Y-85569798D01*
X155687209Y-85643451D01*
X155686902Y-85649661D01*
X155672086Y-85848796D01*
X155663575Y-85963184D01*
X155662961Y-85969367D01*
X155624353Y-86280173D01*
X155623441Y-86286288D01*
X155569759Y-86593943D01*
X155568548Y-86600000D01*
X155500025Y-86903894D01*
X155498523Y-86909871D01*
X155415344Y-87209609D01*
X155413555Y-87215493D01*
X155329286Y-87470188D01*
X155315974Y-87510421D01*
X155313905Y-87516200D01*
X155303487Y-87543195D01*
X155202097Y-87805909D01*
X155199748Y-87811579D01*
X155120756Y-87989860D01*
X155073949Y-88095501D01*
X155071325Y-88101052D01*
X155022539Y-88198084D01*
X154931774Y-88378611D01*
X154928877Y-88384039D01*
X154775760Y-88654777D01*
X154772599Y-88660060D01*
X154606140Y-88923444D01*
X154602733Y-88928554D01*
X154482899Y-89099046D01*
X154423149Y-89184054D01*
X154419464Y-89189032D01*
X154226993Y-89436102D01*
X154223057Y-89440905D01*
X154152397Y-89522926D01*
X154017867Y-89679084D01*
X154013695Y-89683691D01*
X153931116Y-89770468D01*
X153807096Y-89900792D01*
X153798069Y-89909384D01*
X153766389Y-89936682D01*
X153761506Y-89944216D01*
X153758797Y-89947321D01*
X153750707Y-89955769D01*
X153585048Y-90113414D01*
X153562814Y-90134572D01*
X153558203Y-90138748D01*
X153558179Y-90138769D01*
X153320033Y-90343931D01*
X153315227Y-90347869D01*
X153068145Y-90540349D01*
X153063167Y-90544034D01*
X152807667Y-90723617D01*
X152802557Y-90727024D01*
X152586713Y-90863438D01*
X152539188Y-90893474D01*
X152533900Y-90896638D01*
X152263181Y-91049745D01*
X152257753Y-91052643D01*
X151980154Y-91192213D01*
X151974597Y-91194838D01*
X151690708Y-91320624D01*
X151685037Y-91322974D01*
X151395319Y-91434785D01*
X151389549Y-91436851D01*
X151094591Y-91534442D01*
X151088736Y-91536222D01*
X150788994Y-91619402D01*
X150783032Y-91620900D01*
X150479128Y-91689427D01*
X150479115Y-91689430D01*
X150473056Y-91690641D01*
X150165405Y-91744320D01*
X150159280Y-91745234D01*
X149848492Y-91783839D01*
X149842309Y-91784453D01*
X149804404Y-91787273D01*
X149528770Y-91807782D01*
X149522577Y-91808088D01*
X149208133Y-91815882D01*
X149199049Y-91816107D01*
X149195927Y-91816146D01*
X122211605Y-91816146D01*
X122208483Y-91816107D01*
X122201929Y-91815945D01*
X121884945Y-91808087D01*
X121878752Y-91807781D01*
X121587822Y-91786135D01*
X121565229Y-91784454D01*
X121559046Y-91783840D01*
X121518866Y-91778849D01*
X121248240Y-91745232D01*
X121242137Y-91744322D01*
X121133526Y-91725371D01*
X120934470Y-91690638D01*
X120928413Y-91689427D01*
X120624519Y-91620904D01*
X120618542Y-91619402D01*
X120318804Y-91536223D01*
X120312917Y-91534433D01*
X120017983Y-91436850D01*
X120012208Y-91434782D01*
X119722499Y-91322974D01*
X119716828Y-91320625D01*
X119432912Y-91194828D01*
X119427355Y-91192201D01*
X119340393Y-91148478D01*
X119149792Y-91052648D01*
X119144364Y-91049751D01*
X118873637Y-90896641D01*
X118868349Y-90893477D01*
X118820819Y-90863438D01*
X118604983Y-90727029D01*
X118599873Y-90723622D01*
X118377649Y-90567427D01*
X118344359Y-90544028D01*
X118339381Y-90540343D01*
X118150297Y-90393044D01*
X118092289Y-90347855D01*
X118087501Y-90343931D01*
X117849343Y-90138757D01*
X117844734Y-90134584D01*
X117656054Y-89955030D01*
X117649348Y-89947941D01*
X117645244Y-89941437D01*
X117610949Y-89911149D01*
X117603080Y-89903567D01*
X117496772Y-89791855D01*
X117393831Y-89683681D01*
X117389655Y-89679070D01*
X117184481Y-89440909D01*
X117180543Y-89436103D01*
X117165990Y-89417421D01*
X117023376Y-89234351D01*
X116988060Y-89189017D01*
X116984375Y-89184039D01*
X116843009Y-88982912D01*
X116804806Y-88928560D01*
X116801382Y-88923425D01*
X116781690Y-88892267D01*
X116634928Y-88660053D01*
X116631768Y-88654771D01*
X116583772Y-88569904D01*
X116478668Y-88384061D01*
X116475770Y-88378633D01*
X116336196Y-88101026D01*
X116333570Y-88095469D01*
X116216382Y-87830984D01*
X116207787Y-87811585D01*
X116205441Y-87805921D01*
X116093630Y-87516201D01*
X116091561Y-87510421D01*
X116080059Y-87475656D01*
X115993972Y-87215472D01*
X115992183Y-87209589D01*
X115986795Y-87190171D01*
X115909010Y-86909871D01*
X115907509Y-86903898D01*
X115907508Y-86903894D01*
X115878442Y-86774988D01*
X118084491Y-86774988D01*
X118100144Y-87089406D01*
X118100785Y-87093137D01*
X118100786Y-87093145D01*
X118121807Y-87215476D01*
X118153456Y-87399665D01*
X118154544Y-87403304D01*
X118154545Y-87403307D01*
X118196381Y-87543195D01*
X118243656Y-87701273D01*
X118369437Y-87989860D01*
X118371360Y-87993131D01*
X118371362Y-87993135D01*
X118414013Y-88065686D01*
X118528977Y-88261246D01*
X118719964Y-88511500D01*
X118722608Y-88514214D01*
X118862152Y-88657460D01*
X118939633Y-88736997D01*
X119184802Y-88934470D01*
X119451919Y-89101059D01*
X119737114Y-89234351D01*
X119740724Y-89235534D01*
X119740723Y-89235534D01*
X120032654Y-89331234D01*
X120032661Y-89331236D01*
X120036258Y-89332415D01*
X120345015Y-89393831D01*
X120501965Y-89405769D01*
X120655138Y-89417421D01*
X120655143Y-89417421D01*
X120658915Y-89417708D01*
X120973410Y-89403702D01*
X121283945Y-89352015D01*
X121586021Y-89263396D01*
X121875262Y-89139128D01*
X121878540Y-89137224D01*
X121878546Y-89137221D01*
X122144208Y-88982912D01*
X122144214Y-88982908D01*
X122147480Y-88981011D01*
X122338613Y-88836720D01*
X122395706Y-88793619D01*
X122395707Y-88793618D01*
X122398730Y-88791336D01*
X122625374Y-88572851D01*
X122705764Y-88474107D01*
X122821734Y-88331661D01*
X122821737Y-88331657D01*
X122824128Y-88328720D01*
X122826149Y-88325517D01*
X122990090Y-88065686D01*
X122990093Y-88065680D01*
X122992113Y-88062479D01*
X123126897Y-87777985D01*
X123226526Y-87479360D01*
X123289557Y-87170928D01*
X123315078Y-86857157D01*
X123315652Y-86802379D01*
X123314230Y-86778780D01*
X123314001Y-86774988D01*
X148084491Y-86774988D01*
X148100144Y-87089406D01*
X148100785Y-87093137D01*
X148100786Y-87093145D01*
X148121807Y-87215476D01*
X148153456Y-87399665D01*
X148154544Y-87403304D01*
X148154545Y-87403307D01*
X148196381Y-87543195D01*
X148243656Y-87701273D01*
X148369437Y-87989860D01*
X148371360Y-87993131D01*
X148371362Y-87993135D01*
X148414013Y-88065686D01*
X148528977Y-88261246D01*
X148719964Y-88511500D01*
X148722608Y-88514214D01*
X148862152Y-88657460D01*
X148939633Y-88736997D01*
X149184802Y-88934470D01*
X149451919Y-89101059D01*
X149737114Y-89234351D01*
X149740724Y-89235534D01*
X149740723Y-89235534D01*
X150032654Y-89331234D01*
X150032661Y-89331236D01*
X150036258Y-89332415D01*
X150345015Y-89393831D01*
X150501965Y-89405769D01*
X150655138Y-89417421D01*
X150655143Y-89417421D01*
X150658915Y-89417708D01*
X150973410Y-89403702D01*
X151283945Y-89352015D01*
X151586021Y-89263396D01*
X151875262Y-89139128D01*
X151878540Y-89137224D01*
X151878546Y-89137221D01*
X152144208Y-88982912D01*
X152144214Y-88982908D01*
X152147480Y-88981011D01*
X152338613Y-88836720D01*
X152395706Y-88793619D01*
X152395707Y-88793618D01*
X152398730Y-88791336D01*
X152625374Y-88572851D01*
X152705764Y-88474107D01*
X152821734Y-88331661D01*
X152821737Y-88331657D01*
X152824128Y-88328720D01*
X152826149Y-88325517D01*
X152990090Y-88065686D01*
X152990093Y-88065680D01*
X152992113Y-88062479D01*
X153126897Y-87777985D01*
X153226526Y-87479360D01*
X153289557Y-87170928D01*
X153315078Y-86857157D01*
X153315652Y-86802379D01*
X153314230Y-86778780D01*
X153296936Y-86491921D01*
X153296936Y-86491917D01*
X153296708Y-86488143D01*
X153293303Y-86469500D01*
X153240829Y-86182180D01*
X153240828Y-86182176D01*
X153240149Y-86178458D01*
X153231901Y-86151893D01*
X153175225Y-85969368D01*
X153146796Y-85877812D01*
X153135331Y-85852240D01*
X153047905Y-85657256D01*
X153018000Y-85590558D01*
X152855627Y-85320857D01*
X152853250Y-85317809D01*
X152664367Y-85075613D01*
X152664363Y-85075608D01*
X152662030Y-85072617D01*
X152440011Y-84849433D01*
X152192788Y-84654538D01*
X151923942Y-84490756D01*
X151920495Y-84489189D01*
X151920488Y-84489185D01*
X151640812Y-84362024D01*
X151637366Y-84360457D01*
X151337212Y-84265531D01*
X151199843Y-84239699D01*
X151031552Y-84208052D01*
X151031547Y-84208051D01*
X151027828Y-84207352D01*
X150713695Y-84186763D01*
X150709915Y-84186971D01*
X150709914Y-84186971D01*
X150616876Y-84192091D01*
X150399364Y-84204062D01*
X150395637Y-84204723D01*
X150395633Y-84204723D01*
X150195339Y-84240221D01*
X150089388Y-84258998D01*
X150085763Y-84260103D01*
X150085758Y-84260104D01*
X149955666Y-84299753D01*
X149788257Y-84350775D01*
X149500332Y-84478066D01*
X149229785Y-84639024D01*
X148980535Y-84831319D01*
X148977834Y-84833978D01*
X148977827Y-84833984D01*
X148758900Y-85049500D01*
X148756192Y-85052166D01*
X148753828Y-85055133D01*
X148753825Y-85055136D01*
X148594621Y-85254925D01*
X148560005Y-85298365D01*
X148394817Y-85566351D01*
X148263020Y-85852240D01*
X148166524Y-86151893D01*
X148165805Y-86155609D01*
X148165803Y-86155617D01*
X148112054Y-86433424D01*
X148106725Y-86460968D01*
X148106458Y-86464744D01*
X148106457Y-86464749D01*
X148084854Y-86769860D01*
X148084491Y-86774988D01*
X123314001Y-86774988D01*
X123296936Y-86491921D01*
X123296936Y-86491917D01*
X123296708Y-86488143D01*
X123293303Y-86469500D01*
X123240829Y-86182180D01*
X123240828Y-86182176D01*
X123240149Y-86178458D01*
X123231901Y-86151893D01*
X123175225Y-85969368D01*
X123146796Y-85877812D01*
X123135331Y-85852240D01*
X123047905Y-85657256D01*
X123018000Y-85590558D01*
X122855627Y-85320857D01*
X122853250Y-85317809D01*
X122664367Y-85075613D01*
X122664363Y-85075608D01*
X122662030Y-85072617D01*
X122440011Y-84849433D01*
X122192788Y-84654538D01*
X121923942Y-84490756D01*
X121920495Y-84489189D01*
X121920488Y-84489185D01*
X121640812Y-84362024D01*
X121637366Y-84360457D01*
X121337212Y-84265531D01*
X121199843Y-84239699D01*
X121031552Y-84208052D01*
X121031547Y-84208051D01*
X121027828Y-84207352D01*
X120713695Y-84186763D01*
X120709915Y-84186971D01*
X120709914Y-84186971D01*
X120616876Y-84192091D01*
X120399364Y-84204062D01*
X120395637Y-84204723D01*
X120395633Y-84204723D01*
X120195339Y-84240221D01*
X120089388Y-84258998D01*
X120085763Y-84260103D01*
X120085758Y-84260104D01*
X119955666Y-84299753D01*
X119788257Y-84350775D01*
X119500332Y-84478066D01*
X119229785Y-84639024D01*
X118980535Y-84831319D01*
X118977834Y-84833978D01*
X118977827Y-84833984D01*
X118758900Y-85049500D01*
X118756192Y-85052166D01*
X118753828Y-85055133D01*
X118753825Y-85055136D01*
X118594621Y-85254925D01*
X118560005Y-85298365D01*
X118394817Y-85566351D01*
X118263020Y-85852240D01*
X118166524Y-86151893D01*
X118165805Y-86155609D01*
X118165803Y-86155617D01*
X118112054Y-86433424D01*
X118106725Y-86460968D01*
X118106458Y-86464744D01*
X118106457Y-86464749D01*
X118084854Y-86769860D01*
X118084491Y-86774988D01*
X115878442Y-86774988D01*
X115838980Y-86599974D01*
X115837772Y-86593933D01*
X115816587Y-86472518D01*
X115784091Y-86286285D01*
X115783178Y-86280165D01*
X115744572Y-85969368D01*
X115743958Y-85963185D01*
X115726159Y-85723957D01*
X115720631Y-85649653D01*
X115720325Y-85643460D01*
X115712306Y-85319928D01*
X115712267Y-85316807D01*
X115712267Y-58333244D01*
X115712269Y-58332503D01*
X115712275Y-58331483D01*
X115712312Y-58329102D01*
X115720326Y-58005818D01*
X115720633Y-57999608D01*
X115721197Y-57992035D01*
X115743958Y-57686104D01*
X115744572Y-57679926D01*
X115769040Y-57482947D01*
X115783180Y-57369114D01*
X115784093Y-57362995D01*
X115793309Y-57310177D01*
X115837775Y-57055341D01*
X115838983Y-57049301D01*
X115838985Y-57049296D01*
X115891986Y-56814240D01*
X115901373Y-56772609D01*
X118084491Y-56772609D01*
X118084680Y-56776401D01*
X118098266Y-57049296D01*
X118100144Y-57087027D01*
X118100785Y-57090758D01*
X118100786Y-57090766D01*
X118149294Y-57373063D01*
X118153456Y-57397286D01*
X118154544Y-57400925D01*
X118154545Y-57400928D01*
X118238908Y-57683017D01*
X118243656Y-57698894D01*
X118369437Y-57987481D01*
X118371360Y-57990752D01*
X118371362Y-57990756D01*
X118413526Y-58062479D01*
X118528977Y-58258867D01*
X118719964Y-58509121D01*
X118939633Y-58734618D01*
X119184802Y-58932091D01*
X119451919Y-59098680D01*
X119737114Y-59231972D01*
X119740724Y-59233155D01*
X119740723Y-59233155D01*
X120032654Y-59328855D01*
X120032661Y-59328857D01*
X120036258Y-59330036D01*
X120345015Y-59391452D01*
X120497857Y-59403078D01*
X120655138Y-59415042D01*
X120655143Y-59415042D01*
X120658915Y-59415329D01*
X120973410Y-59401323D01*
X121283945Y-59349636D01*
X121586021Y-59261017D01*
X121875262Y-59136749D01*
X121878540Y-59134845D01*
X121878546Y-59134842D01*
X122144208Y-58980533D01*
X122144214Y-58980529D01*
X122147480Y-58978632D01*
X122274303Y-58882890D01*
X131641500Y-58882890D01*
X131656080Y-59054720D01*
X131657418Y-59059875D01*
X131657419Y-59059881D01*
X131710518Y-59264461D01*
X131713999Y-59277872D01*
X131716191Y-59282738D01*
X131716192Y-59282741D01*
X131776861Y-59417421D01*
X131808688Y-59488075D01*
X131937441Y-59679319D01*
X132096576Y-59846135D01*
X132281542Y-59983754D01*
X132286293Y-59986170D01*
X132286297Y-59986172D01*
X132348704Y-60017901D01*
X132487051Y-60088240D01*
X132492145Y-60089822D01*
X132492148Y-60089823D01*
X132692020Y-60151885D01*
X132707227Y-60156607D01*
X132712516Y-60157308D01*
X132930489Y-60186198D01*
X132930494Y-60186198D01*
X132935774Y-60186898D01*
X132941103Y-60186698D01*
X132941105Y-60186698D01*
X133050966Y-60182574D01*
X133166158Y-60178249D01*
X133171468Y-60177135D01*
X133386572Y-60132002D01*
X133391791Y-60130907D01*
X133396750Y-60128949D01*
X133396752Y-60128948D01*
X133601256Y-60048185D01*
X133601258Y-60048184D01*
X133606221Y-60046224D01*
X133705184Y-59986172D01*
X133798757Y-59929390D01*
X133798756Y-59929390D01*
X133803317Y-59926623D01*
X133843493Y-59891760D01*
X133973412Y-59779023D01*
X133973414Y-59779021D01*
X133977445Y-59775523D01*
X134041383Y-59697545D01*
X134120240Y-59601373D01*
X134120244Y-59601367D01*
X134123624Y-59597245D01*
X134141552Y-59565750D01*
X134192632Y-59516445D01*
X134262262Y-59502583D01*
X134328333Y-59528566D01*
X134355573Y-59557716D01*
X134437441Y-59679319D01*
X134596576Y-59846135D01*
X134781542Y-59983754D01*
X134786293Y-59986170D01*
X134786297Y-59986172D01*
X134848704Y-60017901D01*
X134987051Y-60088240D01*
X134992145Y-60089822D01*
X134992148Y-60089823D01*
X135192020Y-60151885D01*
X135207227Y-60156607D01*
X135212516Y-60157308D01*
X135430489Y-60186198D01*
X135430494Y-60186198D01*
X135435774Y-60186898D01*
X135441103Y-60186698D01*
X135441105Y-60186698D01*
X135550966Y-60182574D01*
X135666158Y-60178249D01*
X135671468Y-60177135D01*
X135886572Y-60132002D01*
X135891791Y-60130907D01*
X135896750Y-60128949D01*
X135896752Y-60128948D01*
X136101256Y-60048185D01*
X136101258Y-60048184D01*
X136106221Y-60046224D01*
X136205184Y-59986172D01*
X136298757Y-59929390D01*
X136298756Y-59929390D01*
X136303317Y-59926623D01*
X136343493Y-59891760D01*
X136473412Y-59779023D01*
X136473414Y-59779021D01*
X136477445Y-59775523D01*
X136507006Y-59739471D01*
X136565666Y-59699476D01*
X136636636Y-59697545D01*
X136697384Y-59734290D01*
X136711584Y-59753059D01*
X136798063Y-59892807D01*
X136807099Y-59904208D01*
X136921829Y-60018739D01*
X136933240Y-60027751D01*
X137071243Y-60112816D01*
X137084424Y-60118963D01*
X137238710Y-60170138D01*
X137252086Y-60173005D01*
X137346438Y-60182672D01*
X137352854Y-60183000D01*
X137727885Y-60183000D01*
X137743124Y-60178525D01*
X137744329Y-60177135D01*
X137746000Y-60169452D01*
X137746000Y-60164884D01*
X138254000Y-60164884D01*
X138258475Y-60180123D01*
X138259865Y-60181328D01*
X138267548Y-60182999D01*
X138647095Y-60182999D01*
X138653614Y-60182662D01*
X138749206Y-60172743D01*
X138762600Y-60169851D01*
X138916784Y-60118412D01*
X138929962Y-60112239D01*
X139067807Y-60026937D01*
X139079208Y-60017901D01*
X139193739Y-59903171D01*
X139202751Y-59891760D01*
X139287816Y-59753757D01*
X139293963Y-59740576D01*
X139345138Y-59586290D01*
X139348005Y-59572914D01*
X139357672Y-59478562D01*
X139358000Y-59472146D01*
X139358000Y-58972115D01*
X139353525Y-58956876D01*
X139352135Y-58955671D01*
X139344452Y-58954000D01*
X138272115Y-58954000D01*
X138256876Y-58958475D01*
X138255671Y-58959865D01*
X138254000Y-58967548D01*
X138254000Y-60164884D01*
X137746000Y-60164884D01*
X137746000Y-58427885D01*
X138254000Y-58427885D01*
X138258475Y-58443124D01*
X138259865Y-58444329D01*
X138267548Y-58446000D01*
X139339884Y-58446000D01*
X139355123Y-58441525D01*
X139356328Y-58440135D01*
X139357999Y-58432452D01*
X139357999Y-57927905D01*
X139357662Y-57921386D01*
X139347743Y-57825794D01*
X139344851Y-57812400D01*
X139293412Y-57658216D01*
X139287239Y-57645038D01*
X139201937Y-57507193D01*
X139192901Y-57495792D01*
X139078171Y-57381261D01*
X139066760Y-57372249D01*
X138928757Y-57287184D01*
X138915576Y-57281037D01*
X138761290Y-57229862D01*
X138747914Y-57226995D01*
X138653562Y-57217328D01*
X138647145Y-57217000D01*
X138272115Y-57217000D01*
X138256876Y-57221475D01*
X138255671Y-57222865D01*
X138254000Y-57230548D01*
X138254000Y-58427885D01*
X137746000Y-58427885D01*
X137746000Y-57235116D01*
X137741525Y-57219877D01*
X137740135Y-57218672D01*
X137732452Y-57217001D01*
X137352905Y-57217001D01*
X137346386Y-57217338D01*
X137250794Y-57227257D01*
X137237400Y-57230149D01*
X137083216Y-57281588D01*
X137070038Y-57287761D01*
X136932193Y-57373063D01*
X136920792Y-57382099D01*
X136806261Y-57496829D01*
X136797247Y-57508243D01*
X136711277Y-57647713D01*
X136658505Y-57695207D01*
X136588434Y-57706631D01*
X136523310Y-57678357D01*
X136512847Y-57668570D01*
X136492951Y-57647713D01*
X136403424Y-57553865D01*
X136218458Y-57416246D01*
X136213707Y-57413830D01*
X136213703Y-57413828D01*
X136115703Y-57364003D01*
X136012949Y-57311760D01*
X136007855Y-57310178D01*
X136007852Y-57310177D01*
X135797871Y-57244976D01*
X135792773Y-57243393D01*
X135763559Y-57239521D01*
X135569511Y-57213802D01*
X135569506Y-57213802D01*
X135564226Y-57213102D01*
X135558897Y-57213302D01*
X135558895Y-57213302D01*
X135460368Y-57217001D01*
X135333842Y-57221751D01*
X135328623Y-57222846D01*
X135308849Y-57226995D01*
X135108209Y-57269093D01*
X135103250Y-57271051D01*
X135103248Y-57271052D01*
X134898744Y-57351815D01*
X134898742Y-57351816D01*
X134893779Y-57353776D01*
X134889220Y-57356543D01*
X134889217Y-57356544D01*
X134790832Y-57416246D01*
X134696683Y-57473377D01*
X134692653Y-57476874D01*
X134528785Y-57619071D01*
X134522555Y-57624477D01*
X134519168Y-57628608D01*
X134379760Y-57798627D01*
X134379756Y-57798633D01*
X134376376Y-57802755D01*
X134358448Y-57834250D01*
X134307368Y-57883555D01*
X134237738Y-57897417D01*
X134171667Y-57871434D01*
X134144427Y-57842284D01*
X134115035Y-57798627D01*
X134062559Y-57720681D01*
X134026625Y-57683012D01*
X133967446Y-57620977D01*
X133903424Y-57553865D01*
X133718458Y-57416246D01*
X133713707Y-57413830D01*
X133713703Y-57413828D01*
X133615703Y-57364003D01*
X133512949Y-57311760D01*
X133507855Y-57310178D01*
X133507852Y-57310177D01*
X133297871Y-57244976D01*
X133292773Y-57243393D01*
X133263559Y-57239521D01*
X133069511Y-57213802D01*
X133069506Y-57213802D01*
X133064226Y-57213102D01*
X133058897Y-57213302D01*
X133058895Y-57213302D01*
X132960368Y-57217001D01*
X132833842Y-57221751D01*
X132828623Y-57222846D01*
X132808849Y-57226995D01*
X132608209Y-57269093D01*
X132603250Y-57271051D01*
X132603248Y-57271052D01*
X132398744Y-57351815D01*
X132398742Y-57351816D01*
X132393779Y-57353776D01*
X132389220Y-57356543D01*
X132389217Y-57356544D01*
X132290832Y-57416246D01*
X132196683Y-57473377D01*
X132192653Y-57476874D01*
X132028785Y-57619071D01*
X132022555Y-57624477D01*
X132019168Y-57628608D01*
X131879760Y-57798627D01*
X131879756Y-57798633D01*
X131876376Y-57802755D01*
X131873738Y-57807390D01*
X131873735Y-57807394D01*
X131830382Y-57883555D01*
X131762325Y-58003114D01*
X131683663Y-58219825D01*
X131682714Y-58225074D01*
X131682713Y-58225077D01*
X131643377Y-58442608D01*
X131643376Y-58442615D01*
X131642639Y-58446692D01*
X131641500Y-58470844D01*
X131641500Y-58882890D01*
X122274303Y-58882890D01*
X122398730Y-58788957D01*
X122625374Y-58570472D01*
X122806048Y-58348549D01*
X122821734Y-58329282D01*
X122821737Y-58329278D01*
X122824128Y-58326341D01*
X122851002Y-58283748D01*
X122990090Y-58063307D01*
X122990093Y-58063301D01*
X122992113Y-58060100D01*
X123126897Y-57775606D01*
X123226526Y-57476981D01*
X123289557Y-57168549D01*
X123315078Y-56854778D01*
X123315652Y-56800000D01*
X123314230Y-56776401D01*
X123314145Y-56774988D01*
X148084491Y-56774988D01*
X148090168Y-56889029D01*
X148098449Y-57055354D01*
X148100144Y-57089406D01*
X148100785Y-57093137D01*
X148100786Y-57093145D01*
X148152404Y-57393541D01*
X148153456Y-57399665D01*
X148154544Y-57403304D01*
X148154545Y-57403307D01*
X148239120Y-57686104D01*
X148243656Y-57701273D01*
X148369437Y-57989860D01*
X148371360Y-57993131D01*
X148371362Y-57993135D01*
X148412614Y-58063307D01*
X148528977Y-58261246D01*
X148719964Y-58511500D01*
X148722608Y-58514214D01*
X148934665Y-58731897D01*
X148939633Y-58736997D01*
X149184802Y-58934470D01*
X149218797Y-58955671D01*
X149444877Y-59096667D01*
X149451919Y-59101059D01*
X149737114Y-59234351D01*
X149740724Y-59235534D01*
X149740723Y-59235534D01*
X150032654Y-59331234D01*
X150032661Y-59331236D01*
X150036258Y-59332415D01*
X150345015Y-59393831D01*
X150501965Y-59405770D01*
X150655138Y-59417421D01*
X150655143Y-59417421D01*
X150658915Y-59417708D01*
X150973410Y-59403702D01*
X151283945Y-59352015D01*
X151586021Y-59263396D01*
X151875262Y-59139128D01*
X151878540Y-59137224D01*
X151878546Y-59137221D01*
X152144208Y-58982912D01*
X152144214Y-58982908D01*
X152147480Y-58981011D01*
X152398730Y-58791336D01*
X152625374Y-58572851D01*
X152730007Y-58444329D01*
X152821734Y-58331661D01*
X152821737Y-58331657D01*
X152824128Y-58328720D01*
X152852503Y-58283748D01*
X152990090Y-58065686D01*
X152990093Y-58065680D01*
X152992113Y-58062479D01*
X153115162Y-57802755D01*
X153125272Y-57781415D01*
X153126897Y-57777985D01*
X153226526Y-57479360D01*
X153289557Y-57170928D01*
X153315078Y-56857157D01*
X153315433Y-56823301D01*
X153315629Y-56804600D01*
X153315629Y-56804592D01*
X153315652Y-56802379D01*
X153315376Y-56797789D01*
X153296936Y-56491921D01*
X153296936Y-56491917D01*
X153296708Y-56488143D01*
X153296028Y-56484419D01*
X153240829Y-56182180D01*
X153240828Y-56182176D01*
X153240149Y-56178458D01*
X153235578Y-56163735D01*
X153147918Y-55881427D01*
X153146796Y-55877812D01*
X153135331Y-55852240D01*
X153019555Y-55594027D01*
X153018000Y-55590558D01*
X152855627Y-55320857D01*
X152853290Y-55317860D01*
X152664367Y-55075613D01*
X152664363Y-55075608D01*
X152662030Y-55072617D01*
X152440011Y-54849433D01*
X152436994Y-54847054D01*
X152195769Y-54656888D01*
X152192788Y-54654538D01*
X151923942Y-54490756D01*
X151920495Y-54489189D01*
X151920488Y-54489185D01*
X151640812Y-54362024D01*
X151637366Y-54360457D01*
X151337212Y-54265531D01*
X151199843Y-54239699D01*
X151031552Y-54208052D01*
X151031547Y-54208051D01*
X151027828Y-54207352D01*
X150713695Y-54186763D01*
X150709915Y-54186971D01*
X150709914Y-54186971D01*
X150616876Y-54192091D01*
X150399364Y-54204062D01*
X150395637Y-54204723D01*
X150395633Y-54204723D01*
X150195339Y-54240221D01*
X150089388Y-54258998D01*
X150085763Y-54260103D01*
X150085758Y-54260104D01*
X149955666Y-54299753D01*
X149788257Y-54350775D01*
X149500332Y-54478066D01*
X149229785Y-54639024D01*
X149226784Y-54641339D01*
X149226780Y-54641342D01*
X149209676Y-54654538D01*
X148980535Y-54831319D01*
X148977834Y-54833978D01*
X148977827Y-54833984D01*
X148814741Y-54994529D01*
X148756192Y-55052166D01*
X148753828Y-55055133D01*
X148753825Y-55055136D01*
X148582070Y-55270675D01*
X148560005Y-55298365D01*
X148394817Y-55566351D01*
X148263020Y-55852240D01*
X148192069Y-56072566D01*
X148178516Y-56114655D01*
X148166524Y-56151893D01*
X148165805Y-56155609D01*
X148165803Y-56155617D01*
X148107653Y-56456170D01*
X148106725Y-56460968D01*
X148106458Y-56464744D01*
X148106457Y-56464749D01*
X148084759Y-56771199D01*
X148084491Y-56774988D01*
X123314145Y-56774988D01*
X123296936Y-56489542D01*
X123296936Y-56489538D01*
X123296708Y-56485764D01*
X123293998Y-56470923D01*
X123240829Y-56179801D01*
X123240828Y-56179797D01*
X123240149Y-56176079D01*
X123233796Y-56155617D01*
X123147918Y-55879048D01*
X123146796Y-55875433D01*
X123138015Y-55855847D01*
X123019555Y-55591648D01*
X123018000Y-55588179D01*
X122855627Y-55318478D01*
X122853290Y-55315481D01*
X122664367Y-55073234D01*
X122664363Y-55073229D01*
X122662030Y-55070238D01*
X122440011Y-54847054D01*
X122420052Y-54831319D01*
X122195769Y-54654509D01*
X122192788Y-54652159D01*
X122155247Y-54629289D01*
X121927186Y-54490353D01*
X121927183Y-54490351D01*
X121923942Y-54488377D01*
X121920495Y-54486810D01*
X121920488Y-54486806D01*
X121712233Y-54392118D01*
X121637366Y-54358078D01*
X121337212Y-54263152D01*
X121199843Y-54237320D01*
X121031552Y-54205673D01*
X121031547Y-54205672D01*
X121027828Y-54204973D01*
X120713695Y-54184384D01*
X120709915Y-54184592D01*
X120709914Y-54184592D01*
X120616876Y-54189712D01*
X120399364Y-54201683D01*
X120395637Y-54202344D01*
X120395633Y-54202344D01*
X120195339Y-54237842D01*
X120089388Y-54256619D01*
X120085763Y-54257724D01*
X120085758Y-54257725D01*
X119955666Y-54297374D01*
X119788257Y-54348396D01*
X119500332Y-54475687D01*
X119229785Y-54636645D01*
X119226784Y-54638960D01*
X119226780Y-54638963D01*
X119114134Y-54725869D01*
X118980535Y-54828940D01*
X118977834Y-54831599D01*
X118977827Y-54831605D01*
X118758900Y-55047121D01*
X118756192Y-55049787D01*
X118753828Y-55052754D01*
X118753825Y-55052757D01*
X118582368Y-55267922D01*
X118560005Y-55295986D01*
X118394817Y-55563972D01*
X118263020Y-55849861D01*
X118252855Y-55881427D01*
X118170893Y-56135948D01*
X118166524Y-56149514D01*
X118165805Y-56153230D01*
X118165803Y-56153238D01*
X118111521Y-56433800D01*
X118106725Y-56458589D01*
X118106458Y-56462365D01*
X118106457Y-56462370D01*
X118084759Y-56768820D01*
X118084491Y-56772609D01*
X115901373Y-56772609D01*
X115907512Y-56745384D01*
X115909014Y-56739407D01*
X115992185Y-56439697D01*
X115993975Y-56433810D01*
X116078252Y-56179094D01*
X116091562Y-56138867D01*
X116093631Y-56133088D01*
X116104052Y-56106087D01*
X116205444Y-55843363D01*
X116207788Y-55837704D01*
X116212226Y-55827689D01*
X116333582Y-55553794D01*
X116336207Y-55548242D01*
X116366379Y-55488233D01*
X116460216Y-55301595D01*
X116475764Y-55270672D01*
X116478661Y-55265244D01*
X116542357Y-55152617D01*
X116631772Y-54994516D01*
X116634928Y-54989240D01*
X116801381Y-54725869D01*
X116804808Y-54720730D01*
X116984380Y-54465246D01*
X116988065Y-54460268D01*
X117140314Y-54264830D01*
X117180543Y-54213189D01*
X117184478Y-54208387D01*
X117184482Y-54208383D01*
X117389648Y-53970231D01*
X117393834Y-53965609D01*
X117600443Y-53748499D01*
X117609470Y-53739907D01*
X117634347Y-53718472D01*
X117634350Y-53718469D01*
X117641147Y-53712612D01*
X117646029Y-53705080D01*
X117648735Y-53701978D01*
X117656823Y-53693532D01*
X117844728Y-53514715D01*
X117849342Y-53510537D01*
X118087506Y-53305358D01*
X118092291Y-53301437D01*
X118339389Y-53108943D01*
X118344358Y-53105265D01*
X118441216Y-53037186D01*
X118599855Y-52925683D01*
X118604989Y-52922259D01*
X118868345Y-52755816D01*
X118873634Y-52752652D01*
X118896241Y-52739867D01*
X119144368Y-52599538D01*
X119149796Y-52596641D01*
X119279970Y-52531192D01*
X119427369Y-52457083D01*
X119432920Y-52454459D01*
X119716826Y-52328666D01*
X119722503Y-52326315D01*
X120012205Y-52214512D01*
X120017991Y-52212440D01*
X120312928Y-52114855D01*
X120318814Y-52113065D01*
X120618526Y-52029893D01*
X120624504Y-52028391D01*
X120748703Y-52000386D01*
X120928441Y-51959858D01*
X120934465Y-51958653D01*
X121242132Y-51904969D01*
X121248233Y-51904059D01*
X121535960Y-51868319D01*
X121559041Y-51865452D01*
X121565224Y-51864838D01*
X121608125Y-51861646D01*
X121878760Y-51841510D01*
X121884953Y-51841204D01*
X122208485Y-51833185D01*
X122211606Y-51833146D01*
X149195929Y-51833146D01*
X149199052Y-51833185D01*
G37*
%TD.AperFunction*%
%TD*%
M02*
