%TF.GenerationSoftware,KiCad,Pcbnew,6.0.9+dfsg-1~bpo11+1*%
%TF.CreationDate,2022-12-30T18:56:56-06:00*%
%TF.ProjectId,hall_pcb,68616c6c-5f70-4636-922e-6b696361645f,rev?*%
%TF.SameCoordinates,Original*%
%TF.FileFunction,Copper,L1,Top*%
%TF.FilePolarity,Positive*%
%FSLAX46Y46*%
G04 Gerber Fmt 4.6, Leading zero omitted, Abs format (unit mm)*
G04 Created by KiCad (PCBNEW 6.0.9+dfsg-1~bpo11+1) date 2022-12-30 18:56:56*
%MOMM*%
%LPD*%
G01*
G04 APERTURE LIST*
G04 Aperture macros list*
%AMRoundRect*
0 Rectangle with rounded corners*
0 $1 Rounding radius*
0 $2 $3 $4 $5 $6 $7 $8 $9 X,Y pos of 4 corners*
0 Add a 4 corners polygon primitive as box body*
4,1,4,$2,$3,$4,$5,$6,$7,$8,$9,$2,$3,0*
0 Add four circle primitives for the rounded corners*
1,1,$1+$1,$2,$3*
1,1,$1+$1,$4,$5*
1,1,$1+$1,$6,$7*
1,1,$1+$1,$8,$9*
0 Add four rect primitives between the rounded corners*
20,1,$1+$1,$2,$3,$4,$5,0*
20,1,$1+$1,$4,$5,$6,$7,0*
20,1,$1+$1,$6,$7,$8,$9,0*
20,1,$1+$1,$8,$9,$2,$3,0*%
G04 Aperture macros list end*
%TA.AperFunction,SMDPad,CuDef*%
%ADD10RoundRect,0.250000X0.475000X-0.337500X0.475000X0.337500X-0.475000X0.337500X-0.475000X-0.337500X0*%
%TD*%
%TA.AperFunction,SMDPad,CuDef*%
%ADD11RoundRect,0.150000X-0.150000X0.587500X-0.150000X-0.587500X0.150000X-0.587500X0.150000X0.587500X0*%
%TD*%
%TA.AperFunction,ComponentPad*%
%ADD12RoundRect,0.250000X0.600000X0.725000X-0.600000X0.725000X-0.600000X-0.725000X0.600000X-0.725000X0*%
%TD*%
%TA.AperFunction,ComponentPad*%
%ADD13O,1.700000X1.950000*%
%TD*%
%TA.AperFunction,ViaPad*%
%ADD14C,0.800000*%
%TD*%
%TA.AperFunction,Conductor*%
%ADD15C,0.250000*%
%TD*%
G04 APERTURE END LIST*
D10*
%TO.P,C2,1*%
%TO.N,+3V3*%
X137000000Y-76037500D03*
%TO.P,C2,2*%
%TO.N,GNDREF*%
X137000000Y-73962500D03*
%TD*%
%TO.P,C1,1*%
%TO.N,/Vout*%
X132000000Y-76000000D03*
%TO.P,C1,2*%
%TO.N,GNDREF*%
X132000000Y-73925000D03*
%TD*%
D11*
%TO.P,U1,1,VCC*%
%TO.N,+3V3*%
X136450000Y-80000000D03*
%TO.P,U1,2,OUTPUT*%
%TO.N,/Vout*%
X134550000Y-80000000D03*
%TO.P,U1,3,GND*%
%TO.N,GNDREF*%
X135500000Y-81875000D03*
%TD*%
D12*
%TO.P,J1,1,Pin_1*%
%TO.N,+3V3*%
X138000000Y-58700000D03*
D13*
%TO.P,J1,2,Pin_2*%
%TO.N,/Vout*%
X135500000Y-58700000D03*
%TO.P,J1,3,Pin_3*%
%TO.N,GNDREF*%
X133000000Y-58700000D03*
%TD*%
D14*
%TO.N,+3V3*%
X139000000Y-76000000D03*
%TD*%
D15*
%TO.N,/Vout*%
X133000000Y-76000000D02*
X135000000Y-74000000D01*
X135450000Y-64550000D02*
X135000000Y-65000000D01*
X132000000Y-76000000D02*
X133000000Y-76000000D01*
X135000000Y-65000000D02*
X135000000Y-67000000D01*
X135000000Y-74000000D02*
X135000000Y-66532500D01*
X134550000Y-80000000D02*
X134550000Y-78550000D01*
X135450000Y-58700000D02*
X135450000Y-64550000D01*
X134550000Y-78550000D02*
X132000000Y-76000000D01*
%TO.N,+3V3*%
X137000000Y-76037500D02*
X138962500Y-76037500D01*
X138962500Y-76037500D02*
X139000000Y-76000000D01*
X136962500Y-79487500D02*
X136450000Y-80000000D01*
X137000000Y-76000000D02*
X136962500Y-79487500D01*
%TD*%
%TA.AperFunction,Conductor*%
%TO.N,GNDREF*%
G36*
X149199052Y-51833185D02*
G01*
X149522595Y-51841205D01*
X149528788Y-51841511D01*
X149799416Y-51861646D01*
X149842305Y-51864837D01*
X149848490Y-51865451D01*
X150159297Y-51904059D01*
X150165411Y-51904971D01*
X150473068Y-51958653D01*
X150479092Y-51959858D01*
X150658830Y-52000386D01*
X150783029Y-52028391D01*
X150789006Y-52029893D01*
X151088716Y-52113064D01*
X151094603Y-52114854D01*
X151389552Y-52212444D01*
X151395338Y-52214516D01*
X151685025Y-52326313D01*
X151690700Y-52328663D01*
X151690707Y-52328666D01*
X151974613Y-52454459D01*
X151980164Y-52457083D01*
X152127563Y-52531192D01*
X152257741Y-52596643D01*
X152263169Y-52599540D01*
X152511294Y-52739867D01*
X152533884Y-52752643D01*
X152539166Y-52755803D01*
X152686863Y-52849148D01*
X152802544Y-52922260D01*
X152807683Y-52925687D01*
X153063166Y-53105258D01*
X153068144Y-53108943D01*
X153315222Y-53301420D01*
X153320026Y-53305356D01*
X153558205Y-53510546D01*
X153562805Y-53514712D01*
X153751480Y-53694260D01*
X153758185Y-53701348D01*
X153762292Y-53707857D01*
X153796602Y-53738158D01*
X153804453Y-53745723D01*
X154013679Y-53965584D01*
X154017855Y-53970195D01*
X154204642Y-54187011D01*
X154223054Y-54208383D01*
X154226990Y-54213187D01*
X154261686Y-54257725D01*
X154419462Y-54460258D01*
X154423147Y-54465236D01*
X154602721Y-54720722D01*
X154606148Y-54725861D01*
X154772598Y-54989227D01*
X154775758Y-54994509D01*
X154819932Y-55072617D01*
X154928874Y-55265247D01*
X154931771Y-55270675D01*
X155071334Y-55548259D01*
X155073960Y-55553816D01*
X155199738Y-55837687D01*
X155202090Y-55843363D01*
X155214467Y-55875433D01*
X155313913Y-56133112D01*
X155315962Y-56138834D01*
X155413559Y-56433810D01*
X155415345Y-56439686D01*
X155498518Y-56739402D01*
X155500020Y-56745378D01*
X155568550Y-57049296D01*
X155569761Y-57055354D01*
X155575703Y-57089406D01*
X155604110Y-57252210D01*
X155623442Y-57363007D01*
X155624354Y-57369121D01*
X155654202Y-57609412D01*
X155662960Y-57679921D01*
X155663574Y-57686104D01*
X155686901Y-57999608D01*
X155686902Y-57999626D01*
X155687209Y-58005835D01*
X155688469Y-58056672D01*
X155695147Y-58326108D01*
X155695184Y-58329999D01*
X155694791Y-58394367D01*
X155695175Y-58395711D01*
X155695267Y-58397056D01*
X155695267Y-85316048D01*
X155695265Y-85316789D01*
X155695259Y-85317809D01*
X155695222Y-85320180D01*
X155689035Y-85569798D01*
X155687209Y-85643451D01*
X155686902Y-85649661D01*
X155672086Y-85848796D01*
X155663575Y-85963184D01*
X155662961Y-85969367D01*
X155624353Y-86280173D01*
X155623441Y-86286288D01*
X155569759Y-86593943D01*
X155568548Y-86600000D01*
X155500025Y-86903894D01*
X155498523Y-86909871D01*
X155415344Y-87209609D01*
X155413555Y-87215493D01*
X155329286Y-87470188D01*
X155315974Y-87510421D01*
X155313905Y-87516200D01*
X155303487Y-87543195D01*
X155202097Y-87805909D01*
X155199748Y-87811579D01*
X155120756Y-87989860D01*
X155073949Y-88095501D01*
X155071325Y-88101052D01*
X155022539Y-88198084D01*
X154931774Y-88378611D01*
X154928877Y-88384039D01*
X154775760Y-88654777D01*
X154772599Y-88660060D01*
X154606140Y-88923444D01*
X154602733Y-88928554D01*
X154482899Y-89099046D01*
X154423149Y-89184054D01*
X154419464Y-89189032D01*
X154226993Y-89436102D01*
X154223057Y-89440905D01*
X154152397Y-89522926D01*
X154017867Y-89679084D01*
X154013695Y-89683691D01*
X153931116Y-89770468D01*
X153807096Y-89900792D01*
X153798069Y-89909384D01*
X153766389Y-89936682D01*
X153761506Y-89944216D01*
X153758797Y-89947321D01*
X153750707Y-89955769D01*
X153585048Y-90113414D01*
X153562814Y-90134572D01*
X153558203Y-90138748D01*
X153558179Y-90138769D01*
X153320033Y-90343931D01*
X153315227Y-90347869D01*
X153068145Y-90540349D01*
X153063167Y-90544034D01*
X152807667Y-90723617D01*
X152802557Y-90727024D01*
X152586713Y-90863438D01*
X152539188Y-90893474D01*
X152533900Y-90896638D01*
X152263181Y-91049745D01*
X152257753Y-91052643D01*
X151980154Y-91192213D01*
X151974597Y-91194838D01*
X151690708Y-91320624D01*
X151685037Y-91322974D01*
X151395319Y-91434785D01*
X151389549Y-91436851D01*
X151094591Y-91534442D01*
X151088736Y-91536222D01*
X150788994Y-91619402D01*
X150783032Y-91620900D01*
X150479128Y-91689427D01*
X150479115Y-91689430D01*
X150473056Y-91690641D01*
X150165405Y-91744320D01*
X150159280Y-91745234D01*
X149848492Y-91783839D01*
X149842309Y-91784453D01*
X149804404Y-91787273D01*
X149528770Y-91807782D01*
X149522577Y-91808088D01*
X149208133Y-91815882D01*
X149199049Y-91816107D01*
X149195927Y-91816146D01*
X122211605Y-91816146D01*
X122208483Y-91816107D01*
X122201929Y-91815945D01*
X121884945Y-91808087D01*
X121878752Y-91807781D01*
X121587822Y-91786135D01*
X121565229Y-91784454D01*
X121559046Y-91783840D01*
X121518866Y-91778849D01*
X121248240Y-91745232D01*
X121242137Y-91744322D01*
X121133526Y-91725371D01*
X120934470Y-91690638D01*
X120928413Y-91689427D01*
X120624519Y-91620904D01*
X120618542Y-91619402D01*
X120318804Y-91536223D01*
X120312917Y-91534433D01*
X120017983Y-91436850D01*
X120012208Y-91434782D01*
X119722499Y-91322974D01*
X119716828Y-91320625D01*
X119432912Y-91194828D01*
X119427355Y-91192201D01*
X119340393Y-91148478D01*
X119149792Y-91052648D01*
X119144364Y-91049751D01*
X118873637Y-90896641D01*
X118868349Y-90893477D01*
X118820819Y-90863438D01*
X118604983Y-90727029D01*
X118599873Y-90723622D01*
X118377649Y-90567427D01*
X118344359Y-90544028D01*
X118339381Y-90540343D01*
X118150297Y-90393044D01*
X118092289Y-90347855D01*
X118087501Y-90343931D01*
X117849343Y-90138757D01*
X117844734Y-90134584D01*
X117656054Y-89955030D01*
X117649348Y-89947941D01*
X117645244Y-89941437D01*
X117610949Y-89911149D01*
X117603080Y-89903567D01*
X117496772Y-89791855D01*
X117393831Y-89683681D01*
X117389655Y-89679070D01*
X117184481Y-89440909D01*
X117180543Y-89436103D01*
X117165990Y-89417421D01*
X117023376Y-89234351D01*
X116988060Y-89189017D01*
X116984375Y-89184039D01*
X116843009Y-88982912D01*
X116804806Y-88928560D01*
X116801382Y-88923425D01*
X116781690Y-88892267D01*
X116634928Y-88660053D01*
X116631768Y-88654771D01*
X116583772Y-88569904D01*
X116478668Y-88384061D01*
X116475770Y-88378633D01*
X116336196Y-88101026D01*
X116333570Y-88095469D01*
X116216382Y-87830984D01*
X116207787Y-87811585D01*
X116205441Y-87805921D01*
X116093630Y-87516201D01*
X116091561Y-87510421D01*
X116080059Y-87475656D01*
X115993972Y-87215472D01*
X115992183Y-87209589D01*
X115986795Y-87190171D01*
X115909010Y-86909871D01*
X115907509Y-86903898D01*
X115907508Y-86903894D01*
X115878442Y-86774988D01*
X118084491Y-86774988D01*
X118100144Y-87089406D01*
X118100785Y-87093137D01*
X118100786Y-87093145D01*
X118121807Y-87215476D01*
X118153456Y-87399665D01*
X118154544Y-87403304D01*
X118154545Y-87403307D01*
X118196381Y-87543195D01*
X118243656Y-87701273D01*
X118369437Y-87989860D01*
X118371360Y-87993131D01*
X118371362Y-87993135D01*
X118414013Y-88065686D01*
X118528977Y-88261246D01*
X118719964Y-88511500D01*
X118722608Y-88514214D01*
X118862152Y-88657460D01*
X118939633Y-88736997D01*
X119184802Y-88934470D01*
X119451919Y-89101059D01*
X119737114Y-89234351D01*
X119740724Y-89235534D01*
X119740723Y-89235534D01*
X120032654Y-89331234D01*
X120032661Y-89331236D01*
X120036258Y-89332415D01*
X120345015Y-89393831D01*
X120501965Y-89405769D01*
X120655138Y-89417421D01*
X120655143Y-89417421D01*
X120658915Y-89417708D01*
X120973410Y-89403702D01*
X121283945Y-89352015D01*
X121586021Y-89263396D01*
X121875262Y-89139128D01*
X121878540Y-89137224D01*
X121878546Y-89137221D01*
X122144208Y-88982912D01*
X122144214Y-88982908D01*
X122147480Y-88981011D01*
X122338613Y-88836720D01*
X122395706Y-88793619D01*
X122395707Y-88793618D01*
X122398730Y-88791336D01*
X122625374Y-88572851D01*
X122705764Y-88474107D01*
X122821734Y-88331661D01*
X122821737Y-88331657D01*
X122824128Y-88328720D01*
X122826149Y-88325517D01*
X122990090Y-88065686D01*
X122990093Y-88065680D01*
X122992113Y-88062479D01*
X123126897Y-87777985D01*
X123226526Y-87479360D01*
X123289557Y-87170928D01*
X123315078Y-86857157D01*
X123315652Y-86802379D01*
X123314230Y-86778780D01*
X123314001Y-86774988D01*
X148084491Y-86774988D01*
X148100144Y-87089406D01*
X148100785Y-87093137D01*
X148100786Y-87093145D01*
X148121807Y-87215476D01*
X148153456Y-87399665D01*
X148154544Y-87403304D01*
X148154545Y-87403307D01*
X148196381Y-87543195D01*
X148243656Y-87701273D01*
X148369437Y-87989860D01*
X148371360Y-87993131D01*
X148371362Y-87993135D01*
X148414013Y-88065686D01*
X148528977Y-88261246D01*
X148719964Y-88511500D01*
X148722608Y-88514214D01*
X148862152Y-88657460D01*
X148939633Y-88736997D01*
X149184802Y-88934470D01*
X149451919Y-89101059D01*
X149737114Y-89234351D01*
X149740724Y-89235534D01*
X149740723Y-89235534D01*
X150032654Y-89331234D01*
X150032661Y-89331236D01*
X150036258Y-89332415D01*
X150345015Y-89393831D01*
X150501965Y-89405769D01*
X150655138Y-89417421D01*
X150655143Y-89417421D01*
X150658915Y-89417708D01*
X150973410Y-89403702D01*
X151283945Y-89352015D01*
X151586021Y-89263396D01*
X151875262Y-89139128D01*
X151878540Y-89137224D01*
X151878546Y-89137221D01*
X152144208Y-88982912D01*
X152144214Y-88982908D01*
X152147480Y-88981011D01*
X152338613Y-88836720D01*
X152395706Y-88793619D01*
X152395707Y-88793618D01*
X152398730Y-88791336D01*
X152625374Y-88572851D01*
X152705764Y-88474107D01*
X152821734Y-88331661D01*
X152821737Y-88331657D01*
X152824128Y-88328720D01*
X152826149Y-88325517D01*
X152990090Y-88065686D01*
X152990093Y-88065680D01*
X152992113Y-88062479D01*
X153126897Y-87777985D01*
X153226526Y-87479360D01*
X153289557Y-87170928D01*
X153315078Y-86857157D01*
X153315652Y-86802379D01*
X153314230Y-86778780D01*
X153296936Y-86491921D01*
X153296936Y-86491917D01*
X153296708Y-86488143D01*
X153293303Y-86469500D01*
X153240829Y-86182180D01*
X153240828Y-86182176D01*
X153240149Y-86178458D01*
X153231901Y-86151893D01*
X153175225Y-85969368D01*
X153146796Y-85877812D01*
X153135331Y-85852240D01*
X153047905Y-85657256D01*
X153018000Y-85590558D01*
X152855627Y-85320857D01*
X152853250Y-85317809D01*
X152664367Y-85075613D01*
X152664363Y-85075608D01*
X152662030Y-85072617D01*
X152440011Y-84849433D01*
X152192788Y-84654538D01*
X151923942Y-84490756D01*
X151920495Y-84489189D01*
X151920488Y-84489185D01*
X151640812Y-84362024D01*
X151637366Y-84360457D01*
X151337212Y-84265531D01*
X151199843Y-84239699D01*
X151031552Y-84208052D01*
X151031547Y-84208051D01*
X151027828Y-84207352D01*
X150713695Y-84186763D01*
X150709915Y-84186971D01*
X150709914Y-84186971D01*
X150616876Y-84192091D01*
X150399364Y-84204062D01*
X150395637Y-84204723D01*
X150395633Y-84204723D01*
X150195339Y-84240221D01*
X150089388Y-84258998D01*
X150085763Y-84260103D01*
X150085758Y-84260104D01*
X149955666Y-84299753D01*
X149788257Y-84350775D01*
X149500332Y-84478066D01*
X149229785Y-84639024D01*
X148980535Y-84831319D01*
X148977834Y-84833978D01*
X148977827Y-84833984D01*
X148758900Y-85049500D01*
X148756192Y-85052166D01*
X148753828Y-85055133D01*
X148753825Y-85055136D01*
X148594621Y-85254925D01*
X148560005Y-85298365D01*
X148394817Y-85566351D01*
X148263020Y-85852240D01*
X148166524Y-86151893D01*
X148165805Y-86155609D01*
X148165803Y-86155617D01*
X148112054Y-86433424D01*
X148106725Y-86460968D01*
X148106458Y-86464744D01*
X148106457Y-86464749D01*
X148084854Y-86769860D01*
X148084491Y-86774988D01*
X123314001Y-86774988D01*
X123296936Y-86491921D01*
X123296936Y-86491917D01*
X123296708Y-86488143D01*
X123293303Y-86469500D01*
X123240829Y-86182180D01*
X123240828Y-86182176D01*
X123240149Y-86178458D01*
X123231901Y-86151893D01*
X123175225Y-85969368D01*
X123146796Y-85877812D01*
X123135331Y-85852240D01*
X123047905Y-85657256D01*
X123018000Y-85590558D01*
X122855627Y-85320857D01*
X122853250Y-85317809D01*
X122664367Y-85075613D01*
X122664363Y-85075608D01*
X122662030Y-85072617D01*
X122440011Y-84849433D01*
X122192788Y-84654538D01*
X121923942Y-84490756D01*
X121920495Y-84489189D01*
X121920488Y-84489185D01*
X121640812Y-84362024D01*
X121637366Y-84360457D01*
X121337212Y-84265531D01*
X121199843Y-84239699D01*
X121031552Y-84208052D01*
X121031547Y-84208051D01*
X121027828Y-84207352D01*
X120713695Y-84186763D01*
X120709915Y-84186971D01*
X120709914Y-84186971D01*
X120616876Y-84192091D01*
X120399364Y-84204062D01*
X120395637Y-84204723D01*
X120395633Y-84204723D01*
X120195339Y-84240221D01*
X120089388Y-84258998D01*
X120085763Y-84260103D01*
X120085758Y-84260104D01*
X119955666Y-84299753D01*
X119788257Y-84350775D01*
X119500332Y-84478066D01*
X119229785Y-84639024D01*
X118980535Y-84831319D01*
X118977834Y-84833978D01*
X118977827Y-84833984D01*
X118758900Y-85049500D01*
X118756192Y-85052166D01*
X118753828Y-85055133D01*
X118753825Y-85055136D01*
X118594621Y-85254925D01*
X118560005Y-85298365D01*
X118394817Y-85566351D01*
X118263020Y-85852240D01*
X118166524Y-86151893D01*
X118165805Y-86155609D01*
X118165803Y-86155617D01*
X118112054Y-86433424D01*
X118106725Y-86460968D01*
X118106458Y-86464744D01*
X118106457Y-86464749D01*
X118084854Y-86769860D01*
X118084491Y-86774988D01*
X115878442Y-86774988D01*
X115838980Y-86599974D01*
X115837772Y-86593933D01*
X115816587Y-86472518D01*
X115784091Y-86286285D01*
X115783178Y-86280165D01*
X115744572Y-85969368D01*
X115743958Y-85963185D01*
X115726159Y-85723957D01*
X115720631Y-85649653D01*
X115720325Y-85643460D01*
X115712306Y-85319928D01*
X115712267Y-85316807D01*
X115712267Y-82526484D01*
X134692001Y-82526484D01*
X134692195Y-82531420D01*
X134694430Y-82559836D01*
X134696730Y-82572431D01*
X134739107Y-82718290D01*
X134745352Y-82732721D01*
X134821911Y-82862178D01*
X134831551Y-82874604D01*
X134937896Y-82980949D01*
X134950322Y-82990589D01*
X135079779Y-83067148D01*
X135094210Y-83073393D01*
X135228605Y-83112439D01*
X135242706Y-83112399D01*
X135246000Y-83105130D01*
X135246000Y-83099378D01*
X135754000Y-83099378D01*
X135757973Y-83112909D01*
X135765871Y-83114044D01*
X135905790Y-83073393D01*
X135920221Y-83067148D01*
X136049678Y-82990589D01*
X136062104Y-82980949D01*
X136168449Y-82874604D01*
X136178089Y-82862178D01*
X136254648Y-82732721D01*
X136260893Y-82718290D01*
X136303269Y-82572435D01*
X136305570Y-82559833D01*
X136307807Y-82531416D01*
X136308000Y-82526486D01*
X136308000Y-82147115D01*
X136303525Y-82131876D01*
X136302135Y-82130671D01*
X136294452Y-82129000D01*
X135772115Y-82129000D01*
X135756876Y-82133475D01*
X135755671Y-82134865D01*
X135754000Y-82142548D01*
X135754000Y-83099378D01*
X135246000Y-83099378D01*
X135246000Y-82147115D01*
X135241525Y-82131876D01*
X135240135Y-82130671D01*
X135232452Y-82129000D01*
X134710116Y-82129000D01*
X134694877Y-82133475D01*
X134693672Y-82134865D01*
X134692001Y-82142548D01*
X134692001Y-82526484D01*
X115712267Y-82526484D01*
X115712267Y-76387900D01*
X130766500Y-76387900D01*
X130766837Y-76391146D01*
X130766837Y-76391150D01*
X130776389Y-76483207D01*
X130777474Y-76493666D01*
X130833450Y-76661446D01*
X130926522Y-76811848D01*
X131051697Y-76936805D01*
X131057927Y-76940645D01*
X131057928Y-76940646D01*
X131117444Y-76977332D01*
X131202262Y-77029615D01*
X131282005Y-77056064D01*
X131363611Y-77083132D01*
X131363613Y-77083132D01*
X131370139Y-77085297D01*
X131376975Y-77085997D01*
X131376978Y-77085998D01*
X131420031Y-77090409D01*
X131474600Y-77096000D01*
X132147906Y-77096000D01*
X132216027Y-77116002D01*
X132237001Y-77132905D01*
X133879595Y-78775499D01*
X133913621Y-78837811D01*
X133916500Y-78864594D01*
X133916500Y-78912550D01*
X133896498Y-78980671D01*
X133885941Y-78993771D01*
X133886011Y-78993825D01*
X133881156Y-79000084D01*
X133875547Y-79005693D01*
X133871511Y-79012517D01*
X133871509Y-79012520D01*
X133807893Y-79120089D01*
X133790855Y-79148899D01*
X133744438Y-79308669D01*
X133741500Y-79345998D01*
X133741500Y-80654002D01*
X133744438Y-80691331D01*
X133790855Y-80851101D01*
X133794892Y-80857927D01*
X133871509Y-80987480D01*
X133871511Y-80987483D01*
X133875547Y-80994307D01*
X133993193Y-81111953D01*
X134000017Y-81115989D01*
X134000020Y-81115991D01*
X134107589Y-81179607D01*
X134136399Y-81196645D01*
X134144010Y-81198856D01*
X134144012Y-81198857D01*
X134196231Y-81214028D01*
X134296169Y-81243062D01*
X134302574Y-81243566D01*
X134302579Y-81243567D01*
X134331042Y-81245807D01*
X134331050Y-81245807D01*
X134333498Y-81246000D01*
X134566000Y-81246000D01*
X134634121Y-81266002D01*
X134680614Y-81319658D01*
X134692000Y-81372000D01*
X134692000Y-81602885D01*
X134696475Y-81618124D01*
X134697865Y-81619329D01*
X134705548Y-81621000D01*
X135227885Y-81621000D01*
X135243124Y-81616525D01*
X135244329Y-81615135D01*
X135246000Y-81607452D01*
X135246000Y-80992342D01*
X135263547Y-80928203D01*
X135305108Y-80857927D01*
X135309145Y-80851101D01*
X135355562Y-80691331D01*
X135358500Y-80654002D01*
X135358500Y-79345998D01*
X135355562Y-79308669D01*
X135309145Y-79148899D01*
X135292107Y-79120089D01*
X135228491Y-79012520D01*
X135228489Y-79012517D01*
X135224453Y-79005693D01*
X135218844Y-79000084D01*
X135213989Y-78993825D01*
X135215496Y-78992656D01*
X135186379Y-78939333D01*
X135183500Y-78912550D01*
X135183500Y-78628768D01*
X135184027Y-78617585D01*
X135185702Y-78610092D01*
X135183562Y-78542001D01*
X135183500Y-78538044D01*
X135183500Y-78510144D01*
X135182996Y-78506153D01*
X135182063Y-78494311D01*
X135180923Y-78458036D01*
X135180674Y-78450111D01*
X135175021Y-78430652D01*
X135171012Y-78411293D01*
X135170846Y-78409983D01*
X135168474Y-78391203D01*
X135165558Y-78383837D01*
X135165556Y-78383831D01*
X135152200Y-78350098D01*
X135148355Y-78338868D01*
X135138230Y-78304017D01*
X135138230Y-78304016D01*
X135136019Y-78296407D01*
X135125705Y-78278966D01*
X135117008Y-78261213D01*
X135112472Y-78249758D01*
X135109552Y-78242383D01*
X135083563Y-78206612D01*
X135077047Y-78196692D01*
X135058578Y-78165463D01*
X135054542Y-78158638D01*
X135040221Y-78144317D01*
X135027380Y-78129283D01*
X135020131Y-78119306D01*
X135015472Y-78112893D01*
X134981395Y-78084702D01*
X134972616Y-78076712D01*
X133484999Y-76589095D01*
X133450973Y-76526783D01*
X133456038Y-76455968D01*
X133484999Y-76410905D01*
X134437757Y-75458148D01*
X135392253Y-74503652D01*
X135400539Y-74496112D01*
X135407018Y-74492000D01*
X135453644Y-74442348D01*
X135456398Y-74439507D01*
X135476135Y-74419770D01*
X135478615Y-74416573D01*
X135486320Y-74407551D01*
X135499795Y-74393202D01*
X135516586Y-74375321D01*
X135520405Y-74368375D01*
X135520407Y-74368372D01*
X135526348Y-74357566D01*
X135537199Y-74341047D01*
X135546557Y-74328982D01*
X135604112Y-74287413D01*
X135675004Y-74283561D01*
X135736725Y-74318647D01*
X135769680Y-74381532D01*
X135771446Y-74393202D01*
X135777257Y-74449206D01*
X135780149Y-74462600D01*
X135831588Y-74616784D01*
X135837761Y-74629962D01*
X135923063Y-74767807D01*
X135932099Y-74779208D01*
X136046828Y-74893738D01*
X136055762Y-74900794D01*
X136096823Y-74958712D01*
X136100053Y-75029635D01*
X136064426Y-75091046D01*
X136056593Y-75097846D01*
X136050652Y-75101522D01*
X135925695Y-75226697D01*
X135921855Y-75232927D01*
X135921854Y-75232928D01*
X135859841Y-75333532D01*
X135832885Y-75377262D01*
X135777203Y-75545139D01*
X135766500Y-75649600D01*
X135766500Y-76425400D01*
X135766837Y-76428646D01*
X135766837Y-76428650D01*
X135772872Y-76486808D01*
X135777474Y-76531166D01*
X135833450Y-76698946D01*
X135926522Y-76849348D01*
X136051697Y-76974305D01*
X136057927Y-76978145D01*
X136057928Y-76978146D01*
X136195090Y-77062694D01*
X136202262Y-77067115D01*
X136250552Y-77083132D01*
X136267131Y-77088631D01*
X136325491Y-77129062D01*
X136352728Y-77194626D01*
X136353457Y-77209579D01*
X136338176Y-78630642D01*
X136317442Y-78698544D01*
X136263290Y-78744457D01*
X136222072Y-78754898D01*
X136202588Y-78756432D01*
X136202580Y-78756433D01*
X136196169Y-78756938D01*
X136096231Y-78785972D01*
X136044012Y-78801143D01*
X136044010Y-78801144D01*
X136036399Y-78803355D01*
X136029572Y-78807392D01*
X136029573Y-78807392D01*
X135900020Y-78884009D01*
X135900017Y-78884011D01*
X135893193Y-78888047D01*
X135775547Y-79005693D01*
X135771511Y-79012517D01*
X135771509Y-79012520D01*
X135707893Y-79120089D01*
X135690855Y-79148899D01*
X135644438Y-79308669D01*
X135641500Y-79345998D01*
X135641500Y-80654002D01*
X135644438Y-80691331D01*
X135690855Y-80851101D01*
X135694892Y-80857927D01*
X135736453Y-80928203D01*
X135754000Y-80992342D01*
X135754000Y-81602885D01*
X135758475Y-81618124D01*
X135759865Y-81619329D01*
X135767548Y-81621000D01*
X136289884Y-81621000D01*
X136305123Y-81616525D01*
X136306328Y-81615135D01*
X136307999Y-81607452D01*
X136307999Y-81372000D01*
X136328001Y-81303879D01*
X136381657Y-81257386D01*
X136433999Y-81246000D01*
X136666502Y-81246000D01*
X136668950Y-81245807D01*
X136668958Y-81245807D01*
X136697421Y-81243567D01*
X136697426Y-81243566D01*
X136703831Y-81243062D01*
X136803769Y-81214028D01*
X136855988Y-81198857D01*
X136855990Y-81198856D01*
X136863601Y-81196645D01*
X136892411Y-81179607D01*
X136999980Y-81115991D01*
X136999983Y-81115989D01*
X137006807Y-81111953D01*
X137124453Y-80994307D01*
X137128489Y-80987483D01*
X137128491Y-80987480D01*
X137205108Y-80857927D01*
X137209145Y-80851101D01*
X137255562Y-80691331D01*
X137258500Y-80654002D01*
X137258500Y-80139594D01*
X137278502Y-80071473D01*
X137295405Y-80050499D01*
X137354956Y-79990948D01*
X137359838Y-79986553D01*
X137364204Y-79983848D01*
X137414223Y-79931718D01*
X137416044Y-79929860D01*
X137438634Y-79907270D01*
X137441056Y-79904147D01*
X137443613Y-79901248D01*
X137447198Y-79897351D01*
X137475021Y-79868354D01*
X137486991Y-79847125D01*
X137497184Y-79831789D01*
X137507254Y-79818807D01*
X137507258Y-79818799D01*
X137512113Y-79812541D01*
X137515258Y-79805273D01*
X137515263Y-79805265D01*
X137528048Y-79775719D01*
X137533917Y-79763899D01*
X137553633Y-79728930D01*
X137559944Y-79705403D01*
X137566006Y-79688004D01*
X137572532Y-79672924D01*
X137572534Y-79672917D01*
X137575681Y-79665645D01*
X137581957Y-79626023D01*
X137584707Y-79613092D01*
X137593049Y-79581994D01*
X137595103Y-79574337D01*
X137595365Y-79549969D01*
X137596909Y-79531614D01*
X137599479Y-79515387D01*
X137599479Y-79515386D01*
X137600719Y-79507557D01*
X137596944Y-79467620D01*
X137596392Y-79454412D01*
X137601278Y-79000084D01*
X137606203Y-78542002D01*
X137620467Y-77215534D01*
X137641201Y-77147632D01*
X137695353Y-77101719D01*
X137706583Y-77097366D01*
X137791993Y-77068870D01*
X137791995Y-77068869D01*
X137798946Y-77066550D01*
X137949348Y-76973478D01*
X138074305Y-76848303D01*
X138146684Y-76730883D01*
X138199455Y-76683391D01*
X138253943Y-76671000D01*
X138336981Y-76671000D01*
X138405102Y-76691002D01*
X138411034Y-76695059D01*
X138543248Y-76791118D01*
X138549276Y-76793802D01*
X138549278Y-76793803D01*
X138685654Y-76854521D01*
X138717712Y-76868794D01*
X138811112Y-76888647D01*
X138898056Y-76907128D01*
X138898061Y-76907128D01*
X138904513Y-76908500D01*
X139095487Y-76908500D01*
X139101939Y-76907128D01*
X139101944Y-76907128D01*
X139188888Y-76888647D01*
X139282288Y-76868794D01*
X139314346Y-76854521D01*
X139450722Y-76793803D01*
X139450724Y-76793802D01*
X139456752Y-76791118D01*
X139611253Y-76678866D01*
X139739040Y-76536944D01*
X139811809Y-76410905D01*
X139831223Y-76377279D01*
X139831224Y-76377278D01*
X139834527Y-76371556D01*
X139893542Y-76189928D01*
X139913504Y-76000000D01*
X139893542Y-75810072D01*
X139834527Y-75628444D01*
X139823245Y-75608902D01*
X139782662Y-75538611D01*
X139739040Y-75463056D01*
X139632115Y-75344303D01*
X139615675Y-75326045D01*
X139615674Y-75326044D01*
X139611253Y-75321134D01*
X139456752Y-75208882D01*
X139450724Y-75206198D01*
X139450722Y-75206197D01*
X139288319Y-75133891D01*
X139288318Y-75133891D01*
X139282288Y-75131206D01*
X139167016Y-75106704D01*
X139101944Y-75092872D01*
X139101939Y-75092872D01*
X139095487Y-75091500D01*
X138904513Y-75091500D01*
X138898061Y-75092872D01*
X138898056Y-75092872D01*
X138832984Y-75106704D01*
X138717712Y-75131206D01*
X138711682Y-75133891D01*
X138711681Y-75133891D01*
X138549278Y-75206197D01*
X138549276Y-75206198D01*
X138543248Y-75208882D01*
X138537907Y-75212762D01*
X138537906Y-75212763D01*
X138410329Y-75305454D01*
X138388747Y-75321134D01*
X138384334Y-75326036D01*
X138384332Y-75326037D01*
X138351671Y-75362311D01*
X138291225Y-75399550D01*
X138258035Y-75404000D01*
X138254046Y-75404000D01*
X138185925Y-75383998D01*
X138146902Y-75344303D01*
X138077332Y-75231880D01*
X138073478Y-75225652D01*
X137948303Y-75100695D01*
X137943765Y-75097898D01*
X137903176Y-75040647D01*
X137899946Y-74969724D01*
X137935572Y-74908313D01*
X137944068Y-74900938D01*
X137954207Y-74892902D01*
X138068739Y-74778171D01*
X138077751Y-74766760D01*
X138162816Y-74628757D01*
X138168963Y-74615576D01*
X138220138Y-74461290D01*
X138223005Y-74447914D01*
X138232672Y-74353562D01*
X138233000Y-74347146D01*
X138233000Y-74234615D01*
X138228525Y-74219376D01*
X138227135Y-74218171D01*
X138219452Y-74216500D01*
X136872000Y-74216500D01*
X136803879Y-74196498D01*
X136757386Y-74142842D01*
X136746000Y-74090500D01*
X136746000Y-73690385D01*
X137254000Y-73690385D01*
X137258475Y-73705624D01*
X137259865Y-73706829D01*
X137267548Y-73708500D01*
X138214884Y-73708500D01*
X138230123Y-73704025D01*
X138231328Y-73702635D01*
X138232999Y-73694952D01*
X138232999Y-73577905D01*
X138232662Y-73571386D01*
X138222743Y-73475794D01*
X138219851Y-73462400D01*
X138168412Y-73308216D01*
X138162239Y-73295038D01*
X138076937Y-73157193D01*
X138067901Y-73145792D01*
X137953171Y-73031261D01*
X137941760Y-73022249D01*
X137803757Y-72937184D01*
X137790576Y-72931037D01*
X137636290Y-72879862D01*
X137622914Y-72876995D01*
X137528562Y-72867328D01*
X137522145Y-72867000D01*
X137272115Y-72867000D01*
X137256876Y-72871475D01*
X137255671Y-72872865D01*
X137254000Y-72880548D01*
X137254000Y-73690385D01*
X136746000Y-73690385D01*
X136746000Y-72885116D01*
X136741525Y-72869877D01*
X136740135Y-72868672D01*
X136732452Y-72867001D01*
X136477905Y-72867001D01*
X136471386Y-72867338D01*
X136375794Y-72877257D01*
X136362400Y-72880149D01*
X136208216Y-72931588D01*
X136195038Y-72937761D01*
X136057193Y-73023063D01*
X136045792Y-73032099D01*
X135931261Y-73146829D01*
X135922247Y-73158243D01*
X135866760Y-73248260D01*
X135813988Y-73295754D01*
X135743917Y-73307178D01*
X135678793Y-73278904D01*
X135639293Y-73219910D01*
X135633500Y-73182145D01*
X135633500Y-65314595D01*
X135653502Y-65246474D01*
X135670405Y-65225499D01*
X135842259Y-65053646D01*
X135850537Y-65046113D01*
X135857018Y-65042000D01*
X135862823Y-65035819D01*
X135903627Y-64992365D01*
X135906385Y-64989519D01*
X135923334Y-64972571D01*
X135926135Y-64969770D01*
X135928615Y-64966573D01*
X135936320Y-64957551D01*
X135966586Y-64925321D01*
X135970405Y-64918375D01*
X135970407Y-64918372D01*
X135976348Y-64907566D01*
X135987199Y-64891047D01*
X135994758Y-64881301D01*
X135999614Y-64875041D01*
X136002759Y-64867772D01*
X136002762Y-64867768D01*
X136017174Y-64834463D01*
X136022391Y-64823813D01*
X136043695Y-64785060D01*
X136048733Y-64765437D01*
X136055137Y-64746734D01*
X136060033Y-64735420D01*
X136060033Y-64735419D01*
X136063181Y-64728145D01*
X136064420Y-64720322D01*
X136064423Y-64720312D01*
X136070099Y-64684476D01*
X136072505Y-64672856D01*
X136081528Y-64637711D01*
X136081528Y-64637710D01*
X136083500Y-64630030D01*
X136083500Y-64609776D01*
X136085051Y-64590065D01*
X136086980Y-64577886D01*
X136088220Y-64570057D01*
X136084059Y-64526038D01*
X136083500Y-64514181D01*
X136083500Y-60130937D01*
X136103502Y-60062816D01*
X136144134Y-60023218D01*
X136298757Y-59929390D01*
X136298756Y-59929390D01*
X136303317Y-59926623D01*
X136343134Y-59892072D01*
X136473412Y-59779023D01*
X136473414Y-59779021D01*
X136477445Y-59775523D01*
X136506670Y-59739880D01*
X136565329Y-59699886D01*
X136636299Y-59697954D01*
X136697048Y-59734698D01*
X136711248Y-59753468D01*
X136727062Y-59779023D01*
X136801522Y-59899348D01*
X136926697Y-60024305D01*
X136932927Y-60028145D01*
X136932928Y-60028146D01*
X137070090Y-60112694D01*
X137077262Y-60117115D01*
X137120701Y-60131523D01*
X137238611Y-60170632D01*
X137238613Y-60170632D01*
X137245139Y-60172797D01*
X137251975Y-60173497D01*
X137251978Y-60173498D01*
X137295031Y-60177909D01*
X137349600Y-60183500D01*
X138650400Y-60183500D01*
X138653646Y-60183163D01*
X138653650Y-60183163D01*
X138749308Y-60173238D01*
X138749312Y-60173237D01*
X138756166Y-60172526D01*
X138762702Y-60170345D01*
X138762704Y-60170345D01*
X138894806Y-60126272D01*
X138923946Y-60116550D01*
X139074348Y-60023478D01*
X139199305Y-59898303D01*
X139231462Y-59846135D01*
X139288275Y-59753968D01*
X139288276Y-59753966D01*
X139292115Y-59747738D01*
X139347797Y-59579861D01*
X139350114Y-59557253D01*
X139358172Y-59478598D01*
X139358500Y-59475400D01*
X139358500Y-57924600D01*
X139350696Y-57849384D01*
X139348238Y-57825692D01*
X139348237Y-57825688D01*
X139347526Y-57818834D01*
X139340785Y-57798627D01*
X139293868Y-57658002D01*
X139291550Y-57651054D01*
X139198478Y-57500652D01*
X139073303Y-57375695D01*
X139057638Y-57366039D01*
X138928968Y-57286725D01*
X138928966Y-57286724D01*
X138922738Y-57282885D01*
X138809353Y-57245277D01*
X138761389Y-57229368D01*
X138761387Y-57229368D01*
X138754861Y-57227203D01*
X138748025Y-57226503D01*
X138748022Y-57226502D01*
X138704969Y-57222091D01*
X138650400Y-57216500D01*
X137349600Y-57216500D01*
X137346354Y-57216837D01*
X137346350Y-57216837D01*
X137250692Y-57226762D01*
X137250688Y-57226763D01*
X137243834Y-57227474D01*
X137237298Y-57229655D01*
X137237296Y-57229655D01*
X137105194Y-57273728D01*
X137076054Y-57283450D01*
X136925652Y-57376522D01*
X136920479Y-57381704D01*
X136898914Y-57403307D01*
X136800695Y-57501697D01*
X136727170Y-57620977D01*
X136710920Y-57647339D01*
X136658148Y-57694832D01*
X136588076Y-57706256D01*
X136522952Y-57677982D01*
X136512490Y-57668195D01*
X136407103Y-57557722D01*
X136403424Y-57553865D01*
X136218458Y-57416246D01*
X136213707Y-57413830D01*
X136213703Y-57413828D01*
X136115703Y-57364003D01*
X136012949Y-57311760D01*
X136007855Y-57310178D01*
X136007852Y-57310177D01*
X135797871Y-57244976D01*
X135792773Y-57243393D01*
X135786609Y-57242576D01*
X135569511Y-57213802D01*
X135569506Y-57213802D01*
X135564226Y-57213102D01*
X135558897Y-57213302D01*
X135558895Y-57213302D01*
X135449034Y-57217426D01*
X135333842Y-57221751D01*
X135328623Y-57222846D01*
X135306566Y-57227474D01*
X135108209Y-57269093D01*
X135103250Y-57271051D01*
X135103248Y-57271052D01*
X134898744Y-57351815D01*
X134898742Y-57351816D01*
X134893779Y-57353776D01*
X134889220Y-57356543D01*
X134889217Y-57356544D01*
X134794113Y-57414255D01*
X134696683Y-57473377D01*
X134692653Y-57476874D01*
X134528785Y-57619071D01*
X134522555Y-57624477D01*
X134503809Y-57647339D01*
X134379760Y-57798627D01*
X134379756Y-57798633D01*
X134376376Y-57802755D01*
X134373733Y-57807398D01*
X134358171Y-57834735D01*
X134307088Y-57884041D01*
X134237458Y-57897902D01*
X134171387Y-57871918D01*
X134144149Y-57842768D01*
X134065148Y-57725422D01*
X134058481Y-57717130D01*
X133906772Y-57558100D01*
X133898814Y-57551059D01*
X133722475Y-57419859D01*
X133713438Y-57414255D01*
X133517516Y-57314643D01*
X133507665Y-57310643D01*
X133297760Y-57245466D01*
X133287376Y-57243183D01*
X133271957Y-57241139D01*
X133257793Y-57243335D01*
X133254000Y-57256522D01*
X133254000Y-60141192D01*
X133257973Y-60154723D01*
X133268580Y-60156248D01*
X133386421Y-60131523D01*
X133396617Y-60128463D01*
X133601029Y-60047737D01*
X133610561Y-60043006D01*
X133798462Y-59928984D01*
X133807052Y-59922720D01*
X133973052Y-59778673D01*
X133980472Y-59771042D01*
X134119826Y-59601089D01*
X134125848Y-59592326D01*
X134141238Y-59565289D01*
X134192320Y-59515982D01*
X134261951Y-59502120D01*
X134328022Y-59528103D01*
X134355261Y-59557253D01*
X134384773Y-59601089D01*
X134437441Y-59679319D01*
X134441120Y-59683176D01*
X134441122Y-59683178D01*
X134502710Y-59747738D01*
X134596576Y-59846135D01*
X134600854Y-59849318D01*
X134765713Y-59971977D01*
X134808426Y-60028687D01*
X134816500Y-60073066D01*
X134816500Y-64235405D01*
X134796498Y-64303526D01*
X134779595Y-64324501D01*
X134607741Y-64496354D01*
X134599463Y-64503887D01*
X134592982Y-64508000D01*
X134587555Y-64513779D01*
X134587553Y-64513781D01*
X134546373Y-64557635D01*
X134543617Y-64560479D01*
X134523865Y-64580230D01*
X134521385Y-64583427D01*
X134513682Y-64592447D01*
X134483414Y-64624679D01*
X134479595Y-64631625D01*
X134479593Y-64631628D01*
X134473652Y-64642434D01*
X134462801Y-64658953D01*
X134450386Y-64674959D01*
X134447241Y-64682228D01*
X134447238Y-64682232D01*
X134432826Y-64715537D01*
X134427609Y-64726187D01*
X134406305Y-64764940D01*
X134404334Y-64772615D01*
X134404334Y-64772616D01*
X134401267Y-64784562D01*
X134394863Y-64803266D01*
X134386819Y-64821855D01*
X134385580Y-64829678D01*
X134385577Y-64829688D01*
X134379901Y-64865524D01*
X134377495Y-64877144D01*
X134366500Y-64919970D01*
X134366500Y-64940224D01*
X134364949Y-64959934D01*
X134361780Y-64979943D01*
X134362526Y-64987835D01*
X134365941Y-65023961D01*
X134366500Y-65035819D01*
X134366500Y-73685406D01*
X134346498Y-73753527D01*
X134329599Y-73774497D01*
X133361651Y-74742444D01*
X133299341Y-74776468D01*
X133228525Y-74771403D01*
X133171690Y-74728856D01*
X133146879Y-74662336D01*
X133162382Y-74599131D01*
X133159723Y-74597891D01*
X133168963Y-74578076D01*
X133220138Y-74423790D01*
X133223005Y-74410414D01*
X133232672Y-74316062D01*
X133233000Y-74309646D01*
X133233000Y-74197115D01*
X133228525Y-74181876D01*
X133227135Y-74180671D01*
X133219452Y-74179000D01*
X130785116Y-74179000D01*
X130769877Y-74183475D01*
X130768672Y-74184865D01*
X130767001Y-74192548D01*
X130767001Y-74309595D01*
X130767338Y-74316114D01*
X130777257Y-74411706D01*
X130780149Y-74425100D01*
X130831588Y-74579284D01*
X130837761Y-74592462D01*
X130923063Y-74730307D01*
X130932099Y-74741708D01*
X131046828Y-74856238D01*
X131055762Y-74863294D01*
X131096823Y-74921212D01*
X131100053Y-74992135D01*
X131064426Y-75053546D01*
X131056593Y-75060346D01*
X131050652Y-75064022D01*
X130925695Y-75189197D01*
X130921855Y-75195427D01*
X130921854Y-75195428D01*
X130844368Y-75321134D01*
X130832885Y-75339762D01*
X130777203Y-75507639D01*
X130766500Y-75612100D01*
X130766500Y-76387900D01*
X115712267Y-76387900D01*
X115712267Y-73652885D01*
X130767000Y-73652885D01*
X130771475Y-73668124D01*
X130772865Y-73669329D01*
X130780548Y-73671000D01*
X131727885Y-73671000D01*
X131743124Y-73666525D01*
X131744329Y-73665135D01*
X131746000Y-73657452D01*
X131746000Y-73652885D01*
X132254000Y-73652885D01*
X132258475Y-73668124D01*
X132259865Y-73669329D01*
X132267548Y-73671000D01*
X133214884Y-73671000D01*
X133230123Y-73666525D01*
X133231328Y-73665135D01*
X133232999Y-73657452D01*
X133232999Y-73540405D01*
X133232662Y-73533886D01*
X133222743Y-73438294D01*
X133219851Y-73424900D01*
X133168412Y-73270716D01*
X133162239Y-73257538D01*
X133076937Y-73119693D01*
X133067901Y-73108292D01*
X132953171Y-72993761D01*
X132941760Y-72984749D01*
X132803757Y-72899684D01*
X132790576Y-72893537D01*
X132636290Y-72842362D01*
X132622914Y-72839495D01*
X132528562Y-72829828D01*
X132522145Y-72829500D01*
X132272115Y-72829500D01*
X132256876Y-72833975D01*
X132255671Y-72835365D01*
X132254000Y-72843048D01*
X132254000Y-73652885D01*
X131746000Y-73652885D01*
X131746000Y-72847616D01*
X131741525Y-72832377D01*
X131740135Y-72831172D01*
X131732452Y-72829501D01*
X131477905Y-72829501D01*
X131471386Y-72829838D01*
X131375794Y-72839757D01*
X131362400Y-72842649D01*
X131208216Y-72894088D01*
X131195038Y-72900261D01*
X131057193Y-72985563D01*
X131045792Y-72994599D01*
X130931261Y-73109329D01*
X130922249Y-73120740D01*
X130837184Y-73258743D01*
X130831037Y-73271924D01*
X130779862Y-73426210D01*
X130776995Y-73439586D01*
X130767328Y-73533938D01*
X130767000Y-73540355D01*
X130767000Y-73652885D01*
X115712267Y-73652885D01*
X115712267Y-58333244D01*
X115712269Y-58332503D01*
X115712275Y-58331483D01*
X115712312Y-58329102D01*
X115720326Y-58005818D01*
X115720633Y-57999608D01*
X115721197Y-57992035D01*
X115743958Y-57686104D01*
X115744572Y-57679926D01*
X115769040Y-57482947D01*
X115783180Y-57369114D01*
X115784093Y-57362995D01*
X115798473Y-57280581D01*
X115837775Y-57055341D01*
X115838983Y-57049301D01*
X115838985Y-57049296D01*
X115891986Y-56814240D01*
X115901373Y-56772609D01*
X118084491Y-56772609D01*
X118084680Y-56776401D01*
X118098266Y-57049296D01*
X118100144Y-57087027D01*
X118100785Y-57090758D01*
X118100786Y-57090766D01*
X118150779Y-57381704D01*
X118153456Y-57397286D01*
X118154544Y-57400925D01*
X118154545Y-57400928D01*
X118238908Y-57683017D01*
X118243656Y-57698894D01*
X118369437Y-57987481D01*
X118371360Y-57990752D01*
X118371362Y-57990756D01*
X118413526Y-58062479D01*
X118528977Y-58258867D01*
X118719964Y-58509121D01*
X118939633Y-58734618D01*
X119184802Y-58932091D01*
X119451919Y-59098680D01*
X119737114Y-59231972D01*
X119740724Y-59233155D01*
X119740723Y-59233155D01*
X120032654Y-59328855D01*
X120032661Y-59328857D01*
X120036258Y-59330036D01*
X120345015Y-59391452D01*
X120497857Y-59403078D01*
X120655138Y-59415042D01*
X120655143Y-59415042D01*
X120658915Y-59415329D01*
X120973410Y-59401323D01*
X121283945Y-59349636D01*
X121586021Y-59261017D01*
X121875262Y-59136749D01*
X121878540Y-59134845D01*
X121878546Y-59134842D01*
X122144208Y-58980533D01*
X122144214Y-58980529D01*
X122147480Y-58978632D01*
X122158659Y-58970193D01*
X131649410Y-58970193D01*
X131656124Y-59049325D01*
X131657914Y-59059797D01*
X131713130Y-59272535D01*
X131716665Y-59282575D01*
X131806937Y-59482970D01*
X131812106Y-59492256D01*
X131934850Y-59674575D01*
X131941519Y-59682870D01*
X132093228Y-59841900D01*
X132101186Y-59848941D01*
X132277525Y-59980141D01*
X132286562Y-59985745D01*
X132482484Y-60085357D01*
X132492335Y-60089357D01*
X132702240Y-60154534D01*
X132712624Y-60156817D01*
X132728043Y-60158861D01*
X132742207Y-60156665D01*
X132746000Y-60143478D01*
X132746000Y-58972115D01*
X132741525Y-58956876D01*
X132740135Y-58955671D01*
X132732452Y-58954000D01*
X131666151Y-58954000D01*
X131651473Y-58958310D01*
X131649410Y-58970193D01*
X122158659Y-58970193D01*
X122398730Y-58788957D01*
X122625374Y-58570472D01*
X122741223Y-58428174D01*
X131646496Y-58428174D01*
X131647915Y-58441414D01*
X131662550Y-58446000D01*
X132727885Y-58446000D01*
X132743124Y-58441525D01*
X132744329Y-58440135D01*
X132746000Y-58432452D01*
X132746000Y-57258808D01*
X132742027Y-57245277D01*
X132731420Y-57243752D01*
X132613579Y-57268477D01*
X132603383Y-57271537D01*
X132398971Y-57352263D01*
X132389439Y-57356994D01*
X132201538Y-57471016D01*
X132192948Y-57477280D01*
X132026948Y-57621327D01*
X132019528Y-57628958D01*
X131880174Y-57798911D01*
X131874150Y-57807678D01*
X131765424Y-57998682D01*
X131760959Y-58008346D01*
X131685969Y-58214941D01*
X131683198Y-58225208D01*
X131646496Y-58428174D01*
X122741223Y-58428174D01*
X122818508Y-58333244D01*
X122821734Y-58329282D01*
X122821737Y-58329278D01*
X122824128Y-58326341D01*
X122851002Y-58283748D01*
X122990090Y-58063307D01*
X122990093Y-58063301D01*
X122992113Y-58060100D01*
X123126897Y-57775606D01*
X123226526Y-57476981D01*
X123289557Y-57168549D01*
X123315078Y-56854778D01*
X123315652Y-56800000D01*
X123314230Y-56776401D01*
X123314145Y-56774988D01*
X148084491Y-56774988D01*
X148090168Y-56889029D01*
X148098449Y-57055354D01*
X148100144Y-57089406D01*
X148100785Y-57093137D01*
X148100786Y-57093145D01*
X148152404Y-57393541D01*
X148153456Y-57399665D01*
X148154544Y-57403304D01*
X148154545Y-57403307D01*
X148241730Y-57694832D01*
X148243656Y-57701273D01*
X148369437Y-57989860D01*
X148371360Y-57993131D01*
X148371362Y-57993135D01*
X148412614Y-58063307D01*
X148528977Y-58261246D01*
X148719964Y-58511500D01*
X148722608Y-58514214D01*
X148934665Y-58731897D01*
X148939633Y-58736997D01*
X149184802Y-58934470D01*
X149218797Y-58955671D01*
X149444877Y-59096667D01*
X149451919Y-59101059D01*
X149737114Y-59234351D01*
X149740724Y-59235534D01*
X149740723Y-59235534D01*
X150032654Y-59331234D01*
X150032661Y-59331236D01*
X150036258Y-59332415D01*
X150345015Y-59393831D01*
X150501965Y-59405770D01*
X150655138Y-59417421D01*
X150655143Y-59417421D01*
X150658915Y-59417708D01*
X150973410Y-59403702D01*
X151283945Y-59352015D01*
X151586021Y-59263396D01*
X151875262Y-59139128D01*
X151878540Y-59137224D01*
X151878546Y-59137221D01*
X152144208Y-58982912D01*
X152144214Y-58982908D01*
X152147480Y-58981011D01*
X152398730Y-58791336D01*
X152625374Y-58572851D01*
X152768494Y-58397056D01*
X152821734Y-58331661D01*
X152821737Y-58331657D01*
X152824128Y-58328720D01*
X152852503Y-58283748D01*
X152990090Y-58065686D01*
X152990093Y-58065680D01*
X152992113Y-58062479D01*
X153116983Y-57798911D01*
X153125272Y-57781415D01*
X153126897Y-57777985D01*
X153226526Y-57479360D01*
X153289557Y-57170928D01*
X153315078Y-56857157D01*
X153315433Y-56823301D01*
X153315629Y-56804600D01*
X153315629Y-56804592D01*
X153315652Y-56802379D01*
X153315376Y-56797789D01*
X153296936Y-56491921D01*
X153296936Y-56491917D01*
X153296708Y-56488143D01*
X153296028Y-56484419D01*
X153240829Y-56182180D01*
X153240828Y-56182176D01*
X153240149Y-56178458D01*
X153235578Y-56163735D01*
X153147918Y-55881427D01*
X153146796Y-55877812D01*
X153135331Y-55852240D01*
X153019555Y-55594027D01*
X153018000Y-55590558D01*
X152855627Y-55320857D01*
X152853290Y-55317860D01*
X152664367Y-55075613D01*
X152664363Y-55075608D01*
X152662030Y-55072617D01*
X152440011Y-54849433D01*
X152436994Y-54847054D01*
X152195769Y-54656888D01*
X152192788Y-54654538D01*
X151923942Y-54490756D01*
X151920495Y-54489189D01*
X151920488Y-54489185D01*
X151640812Y-54362024D01*
X151637366Y-54360457D01*
X151337212Y-54265531D01*
X151199843Y-54239699D01*
X151031552Y-54208052D01*
X151031547Y-54208051D01*
X151027828Y-54207352D01*
X150713695Y-54186763D01*
X150709915Y-54186971D01*
X150709914Y-54186971D01*
X150616876Y-54192091D01*
X150399364Y-54204062D01*
X150395637Y-54204723D01*
X150395633Y-54204723D01*
X150195339Y-54240221D01*
X150089388Y-54258998D01*
X150085763Y-54260103D01*
X150085758Y-54260104D01*
X149955666Y-54299753D01*
X149788257Y-54350775D01*
X149500332Y-54478066D01*
X149229785Y-54639024D01*
X149226784Y-54641339D01*
X149226780Y-54641342D01*
X149209676Y-54654538D01*
X148980535Y-54831319D01*
X148977834Y-54833978D01*
X148977827Y-54833984D01*
X148814741Y-54994529D01*
X148756192Y-55052166D01*
X148753828Y-55055133D01*
X148753825Y-55055136D01*
X148582070Y-55270675D01*
X148560005Y-55298365D01*
X148394817Y-55566351D01*
X148263020Y-55852240D01*
X148192069Y-56072566D01*
X148178516Y-56114655D01*
X148166524Y-56151893D01*
X148165805Y-56155609D01*
X148165803Y-56155617D01*
X148107653Y-56456170D01*
X148106725Y-56460968D01*
X148106458Y-56464744D01*
X148106457Y-56464749D01*
X148084759Y-56771199D01*
X148084491Y-56774988D01*
X123314145Y-56774988D01*
X123296936Y-56489542D01*
X123296936Y-56489538D01*
X123296708Y-56485764D01*
X123293998Y-56470923D01*
X123240829Y-56179801D01*
X123240828Y-56179797D01*
X123240149Y-56176079D01*
X123233796Y-56155617D01*
X123147918Y-55879048D01*
X123146796Y-55875433D01*
X123138015Y-55855847D01*
X123019555Y-55591648D01*
X123018000Y-55588179D01*
X122855627Y-55318478D01*
X122853290Y-55315481D01*
X122664367Y-55073234D01*
X122664363Y-55073229D01*
X122662030Y-55070238D01*
X122440011Y-54847054D01*
X122420052Y-54831319D01*
X122195769Y-54654509D01*
X122192788Y-54652159D01*
X122155247Y-54629289D01*
X121927186Y-54490353D01*
X121927183Y-54490351D01*
X121923942Y-54488377D01*
X121920495Y-54486810D01*
X121920488Y-54486806D01*
X121712233Y-54392118D01*
X121637366Y-54358078D01*
X121337212Y-54263152D01*
X121199843Y-54237320D01*
X121031552Y-54205673D01*
X121031547Y-54205672D01*
X121027828Y-54204973D01*
X120713695Y-54184384D01*
X120709915Y-54184592D01*
X120709914Y-54184592D01*
X120616876Y-54189712D01*
X120399364Y-54201683D01*
X120395637Y-54202344D01*
X120395633Y-54202344D01*
X120195339Y-54237842D01*
X120089388Y-54256619D01*
X120085763Y-54257724D01*
X120085758Y-54257725D01*
X119955666Y-54297374D01*
X119788257Y-54348396D01*
X119500332Y-54475687D01*
X119229785Y-54636645D01*
X119226784Y-54638960D01*
X119226780Y-54638963D01*
X119114134Y-54725869D01*
X118980535Y-54828940D01*
X118977834Y-54831599D01*
X118977827Y-54831605D01*
X118758900Y-55047121D01*
X118756192Y-55049787D01*
X118753828Y-55052754D01*
X118753825Y-55052757D01*
X118582368Y-55267922D01*
X118560005Y-55295986D01*
X118394817Y-55563972D01*
X118263020Y-55849861D01*
X118252855Y-55881427D01*
X118170893Y-56135948D01*
X118166524Y-56149514D01*
X118165805Y-56153230D01*
X118165803Y-56153238D01*
X118111521Y-56433800D01*
X118106725Y-56458589D01*
X118106458Y-56462365D01*
X118106457Y-56462370D01*
X118084759Y-56768820D01*
X118084491Y-56772609D01*
X115901373Y-56772609D01*
X115907512Y-56745384D01*
X115909014Y-56739407D01*
X115992185Y-56439697D01*
X115993975Y-56433810D01*
X116078252Y-56179094D01*
X116091562Y-56138867D01*
X116093631Y-56133088D01*
X116104052Y-56106087D01*
X116205444Y-55843363D01*
X116207788Y-55837704D01*
X116212226Y-55827689D01*
X116333582Y-55553794D01*
X116336207Y-55548242D01*
X116366379Y-55488233D01*
X116460216Y-55301595D01*
X116475764Y-55270672D01*
X116478661Y-55265244D01*
X116542357Y-55152617D01*
X116631772Y-54994516D01*
X116634928Y-54989240D01*
X116801381Y-54725869D01*
X116804808Y-54720730D01*
X116984380Y-54465246D01*
X116988065Y-54460268D01*
X117140314Y-54264830D01*
X117180543Y-54213189D01*
X117184478Y-54208387D01*
X117184482Y-54208383D01*
X117389648Y-53970231D01*
X117393834Y-53965609D01*
X117600443Y-53748499D01*
X117609470Y-53739907D01*
X117634347Y-53718472D01*
X117634350Y-53718469D01*
X117641147Y-53712612D01*
X117646029Y-53705080D01*
X117648735Y-53701978D01*
X117656823Y-53693532D01*
X117844728Y-53514715D01*
X117849342Y-53510537D01*
X118087506Y-53305358D01*
X118092291Y-53301437D01*
X118339389Y-53108943D01*
X118344358Y-53105265D01*
X118441216Y-53037186D01*
X118599855Y-52925683D01*
X118604989Y-52922259D01*
X118868345Y-52755816D01*
X118873634Y-52752652D01*
X118896241Y-52739867D01*
X119144368Y-52599538D01*
X119149796Y-52596641D01*
X119279970Y-52531192D01*
X119427369Y-52457083D01*
X119432920Y-52454459D01*
X119716826Y-52328666D01*
X119722503Y-52326315D01*
X120012205Y-52214512D01*
X120017991Y-52212440D01*
X120312928Y-52114855D01*
X120318814Y-52113065D01*
X120618526Y-52029893D01*
X120624504Y-52028391D01*
X120748703Y-52000386D01*
X120928441Y-51959858D01*
X120934465Y-51958653D01*
X121242132Y-51904969D01*
X121248233Y-51904059D01*
X121535960Y-51868319D01*
X121559041Y-51865452D01*
X121565224Y-51864838D01*
X121608125Y-51861646D01*
X121878760Y-51841510D01*
X121884953Y-51841204D01*
X122208485Y-51833185D01*
X122211606Y-51833146D01*
X149195929Y-51833146D01*
X149199052Y-51833185D01*
G37*
%TD.AperFunction*%
%TD*%
M02*
