%TF.GenerationSoftware,KiCad,Pcbnew,6.0.10+dfsg-1~bpo11+1*%
%TF.CreationDate,2023-01-29T22:58:33-06:00*%
%TF.ProjectId,hall_pcb,68616c6c-5f70-4636-922e-6b696361645f,rev?*%
%TF.SameCoordinates,Original*%
%TF.FileFunction,Legend,Top*%
%TF.FilePolarity,Positive*%
%FSLAX46Y46*%
G04 Gerber Fmt 4.6, Leading zero omitted, Abs format (unit mm)*
G04 Created by KiCad (PCBNEW 6.0.10+dfsg-1~bpo11+1) date 2023-01-29 22:58:33*
%MOMM*%
%LPD*%
G01*
G04 APERTURE LIST*
%ADD10C,0.150000*%
%ADD11C,0.120000*%
G04 APERTURE END LIST*
D10*
%TO.C,C2*%
X136464642Y-63729166D02*
X136512261Y-63776785D01*
X136559880Y-63919642D01*
X136559880Y-64014880D01*
X136512261Y-64157738D01*
X136417023Y-64252976D01*
X136321785Y-64300595D01*
X136131309Y-64348214D01*
X135988452Y-64348214D01*
X135797976Y-64300595D01*
X135702738Y-64252976D01*
X135607500Y-64157738D01*
X135559880Y-64014880D01*
X135559880Y-63919642D01*
X135607500Y-63776785D01*
X135655119Y-63729166D01*
X135655119Y-63348214D02*
X135607500Y-63300595D01*
X135559880Y-63205357D01*
X135559880Y-62967261D01*
X135607500Y-62872023D01*
X135655119Y-62824404D01*
X135750357Y-62776785D01*
X135845595Y-62776785D01*
X135988452Y-62824404D01*
X136559880Y-63395833D01*
X136559880Y-62776785D01*
%TO.C,C1*%
X131464642Y-63691666D02*
X131512261Y-63739285D01*
X131559880Y-63882142D01*
X131559880Y-63977380D01*
X131512261Y-64120238D01*
X131417023Y-64215476D01*
X131321785Y-64263095D01*
X131131309Y-64310714D01*
X130988452Y-64310714D01*
X130797976Y-64263095D01*
X130702738Y-64215476D01*
X130607500Y-64120238D01*
X130559880Y-63977380D01*
X130559880Y-63882142D01*
X130607500Y-63739285D01*
X130655119Y-63691666D01*
X131559880Y-62739285D02*
X131559880Y-63310714D01*
X131559880Y-63025000D02*
X130559880Y-63025000D01*
X130702738Y-63120238D01*
X130797976Y-63215476D01*
X130845595Y-63310714D01*
%TO.C,U1*%
X138139880Y-70261904D02*
X138949404Y-70261904D01*
X139044642Y-70214285D01*
X139092261Y-70166666D01*
X139139880Y-70071428D01*
X139139880Y-69880952D01*
X139092261Y-69785714D01*
X139044642Y-69738095D01*
X138949404Y-69690476D01*
X138139880Y-69690476D01*
X139139880Y-68690476D02*
X139139880Y-69261904D01*
X139139880Y-68976190D02*
X138139880Y-68976190D01*
X138282738Y-69071428D01*
X138377976Y-69166666D01*
X138425595Y-69261904D01*
D11*
%TO.C,C2*%
X137052500Y-63823752D02*
X137052500Y-63301248D01*
X138522500Y-63823752D02*
X138522500Y-63301248D01*
%TO.C,C1*%
X132052500Y-63786252D02*
X132052500Y-63263748D01*
X133522500Y-63786252D02*
X133522500Y-63263748D01*
%TO.C,U1*%
X134727500Y-69500000D02*
X134727500Y-68850000D01*
X137847500Y-69500000D02*
X137847500Y-67825000D01*
X134727500Y-69500000D02*
X134727500Y-70150000D01*
X137847500Y-69500000D02*
X137847500Y-70150000D01*
%TD*%
M02*
