%TF.GenerationSoftware,KiCad,Pcbnew,6.0.10+dfsg-1~bpo11+1*%
%TF.CreationDate,2023-01-29T22:58:32-06:00*%
%TF.ProjectId,hall_pcb,68616c6c-5f70-4636-922e-6b696361645f,rev?*%
%TF.SameCoordinates,Original*%
%TF.FileFunction,Copper,L1,Top*%
%TF.FilePolarity,Positive*%
%FSLAX46Y46*%
G04 Gerber Fmt 4.6, Leading zero omitted, Abs format (unit mm)*
G04 Created by KiCad (PCBNEW 6.0.10+dfsg-1~bpo11+1) date 2023-01-29 22:58:32*
%MOMM*%
%LPD*%
G01*
G04 APERTURE LIST*
G04 Aperture macros list*
%AMRoundRect*
0 Rectangle with rounded corners*
0 $1 Rounding radius*
0 $2 $3 $4 $5 $6 $7 $8 $9 X,Y pos of 4 corners*
0 Add a 4 corners polygon primitive as box body*
4,1,4,$2,$3,$4,$5,$6,$7,$8,$9,$2,$3,0*
0 Add four circle primitives for the rounded corners*
1,1,$1+$1,$2,$3*
1,1,$1+$1,$4,$5*
1,1,$1+$1,$6,$7*
1,1,$1+$1,$8,$9*
0 Add four rect primitives between the rounded corners*
20,1,$1+$1,$2,$3,$4,$5,0*
20,1,$1+$1,$4,$5,$6,$7,0*
20,1,$1+$1,$6,$7,$8,$9,0*
20,1,$1+$1,$8,$9,$2,$3,0*%
G04 Aperture macros list end*
%TA.AperFunction,SMDPad,CuDef*%
%ADD10RoundRect,0.250000X0.475000X-0.337500X0.475000X0.337500X-0.475000X0.337500X-0.475000X-0.337500X0*%
%TD*%
%TA.AperFunction,SMDPad,CuDef*%
%ADD11RoundRect,0.150000X-0.150000X0.587500X-0.150000X-0.587500X0.150000X-0.587500X0.150000X0.587500X0*%
%TD*%
%TA.AperFunction,ComponentPad*%
%ADD12RoundRect,0.250000X0.600000X0.725000X-0.600000X0.725000X-0.600000X-0.725000X0.600000X-0.725000X0*%
%TD*%
%TA.AperFunction,ComponentPad*%
%ADD13O,1.700000X1.950000*%
%TD*%
%TA.AperFunction,ViaPad*%
%ADD14C,0.800000*%
%TD*%
%TA.AperFunction,Conductor*%
%ADD15C,0.250000*%
%TD*%
G04 APERTURE END LIST*
D10*
%TO.P,C2,1*%
%TO.N,+3V3*%
X137787500Y-64600000D03*
%TO.P,C2,2*%
%TO.N,GNDREF*%
X137787500Y-62525000D03*
%TD*%
%TO.P,C1,1*%
%TO.N,/Vout*%
X132787500Y-64562500D03*
%TO.P,C1,2*%
%TO.N,GNDREF*%
X132787500Y-62487500D03*
%TD*%
D11*
%TO.P,U1,1,VCC*%
%TO.N,+3V3*%
X137237500Y-68562500D03*
%TO.P,U1,2,OUTPUT*%
%TO.N,/Vout*%
X135337500Y-68562500D03*
%TO.P,U1,3,GND*%
%TO.N,GNDREF*%
X136287500Y-70437500D03*
%TD*%
D12*
%TO.P,J1,1,Pin_1*%
%TO.N,+3V3*%
X137700000Y-58800000D03*
D13*
%TO.P,J1,2,Pin_2*%
%TO.N,/Vout*%
X135200000Y-58800000D03*
%TO.P,J1,3,Pin_3*%
%TO.N,GNDREF*%
X132700000Y-58800000D03*
%TD*%
D14*
%TO.N,+3V3*%
X139787500Y-64562500D03*
%TD*%
D15*
%TO.N,/Vout*%
X129500000Y-55750000D02*
X132150000Y-55750000D01*
X127350000Y-57900000D02*
X129500000Y-55750000D01*
X132787500Y-64562500D02*
X129312500Y-64562500D01*
X127350000Y-62600000D02*
X127350000Y-57900000D01*
X129312500Y-64562500D02*
X127350000Y-62600000D01*
X132150000Y-55750000D02*
X135200000Y-58800000D01*
X135337500Y-68562500D02*
X135337500Y-67112500D01*
X135337500Y-67112500D02*
X132787500Y-64562500D01*
%TO.N,+3V3*%
X137787500Y-64600000D02*
X139750000Y-64600000D01*
X139750000Y-64600000D02*
X139787500Y-64562500D01*
X137750000Y-68050000D02*
X137237500Y-68562500D01*
X137787500Y-64562500D02*
X137750000Y-68050000D01*
%TD*%
%TA.AperFunction,Conductor*%
%TO.N,GNDREF*%
G36*
X133941804Y-51078502D02*
G01*
X133988297Y-51132158D01*
X133998401Y-51202432D01*
X133968907Y-51267012D01*
X133952464Y-51282834D01*
X133898166Y-51326335D01*
X133735549Y-51456616D01*
X133732605Y-51459718D01*
X133732601Y-51459722D01*
X133535911Y-51666990D01*
X133532961Y-51670099D01*
X133361220Y-51909102D01*
X133223504Y-52169201D01*
X133122362Y-52445584D01*
X133059666Y-52733137D01*
X133036575Y-53026538D01*
X133053516Y-53320358D01*
X133054341Y-53324565D01*
X133054342Y-53324570D01*
X133069126Y-53399921D01*
X133110177Y-53609160D01*
X133111564Y-53613210D01*
X133111565Y-53613215D01*
X133131123Y-53670339D01*
X133205509Y-53887601D01*
X133337747Y-54150528D01*
X133340173Y-54154057D01*
X133340176Y-54154063D01*
X133379950Y-54211934D01*
X133504445Y-54393075D01*
X133702518Y-54610754D01*
X133705807Y-54613504D01*
X133925009Y-54796786D01*
X133925014Y-54796790D01*
X133928301Y-54799538D01*
X133994051Y-54840783D01*
X134173976Y-54953650D01*
X134173980Y-54953652D01*
X134177616Y-54955933D01*
X134250293Y-54988748D01*
X134441937Y-55075279D01*
X134441941Y-55075281D01*
X134445849Y-55077045D01*
X134449968Y-55078265D01*
X134723924Y-55159415D01*
X134723929Y-55159416D01*
X134728037Y-55160633D01*
X134732271Y-55161281D01*
X134732276Y-55161282D01*
X135014717Y-55204501D01*
X135014719Y-55204501D01*
X135018959Y-55205150D01*
X135168772Y-55207504D01*
X135308940Y-55209706D01*
X135308946Y-55209706D01*
X135313231Y-55209773D01*
X135605408Y-55174416D01*
X135775089Y-55129901D01*
X135885939Y-55100820D01*
X135885940Y-55100820D01*
X135890082Y-55099733D01*
X136161988Y-54987106D01*
X136416092Y-54838619D01*
X136647694Y-54657021D01*
X136695605Y-54607581D01*
X136849523Y-54448748D01*
X136852506Y-54445670D01*
X137026741Y-54208479D01*
X137167172Y-53949836D01*
X137271203Y-53674527D01*
X137315692Y-53480279D01*
X137335949Y-53391831D01*
X137335950Y-53391827D01*
X137336907Y-53387647D01*
X137337943Y-53376047D01*
X137362849Y-53096970D01*
X137362849Y-53096968D01*
X137363069Y-53094504D01*
X137363544Y-53049194D01*
X137363375Y-53046713D01*
X137343819Y-52759844D01*
X137343818Y-52759838D01*
X137343527Y-52755567D01*
X137283845Y-52467374D01*
X137185603Y-52189947D01*
X137050618Y-51928420D01*
X137034589Y-51905612D01*
X136883856Y-51691142D01*
X136883855Y-51691141D01*
X136881389Y-51687632D01*
X136700069Y-51492507D01*
X136683965Y-51475177D01*
X136683964Y-51475176D01*
X136681048Y-51472038D01*
X136658936Y-51453939D01*
X136567174Y-51378834D01*
X136453300Y-51285629D01*
X136453541Y-51285334D01*
X136411076Y-51231442D01*
X136404259Y-51160774D01*
X136436731Y-51097638D01*
X136498181Y-51062080D01*
X136528005Y-51058500D01*
X142492158Y-51058500D01*
X142495280Y-51058539D01*
X142503339Y-51058739D01*
X142620477Y-51061643D01*
X142626671Y-51061949D01*
X142743183Y-51070618D01*
X142749351Y-51071230D01*
X142864852Y-51085577D01*
X142870955Y-51086487D01*
X142985265Y-51106432D01*
X142991321Y-51107642D01*
X143104277Y-51133113D01*
X143110239Y-51134611D01*
X143221629Y-51165522D01*
X143227470Y-51167298D01*
X143320625Y-51198120D01*
X143337089Y-51203568D01*
X143342873Y-51205640D01*
X143450522Y-51247184D01*
X143456190Y-51249532D01*
X143495643Y-51267012D01*
X143561700Y-51296280D01*
X143567258Y-51298907D01*
X143670417Y-51350773D01*
X143675833Y-51353664D01*
X143753240Y-51397441D01*
X143776438Y-51410561D01*
X143781712Y-51413716D01*
X143858975Y-51462546D01*
X143879576Y-51475566D01*
X143884716Y-51478994D01*
X143979659Y-51545729D01*
X143984631Y-51549409D01*
X144076422Y-51620916D01*
X144081221Y-51624848D01*
X144169753Y-51701118D01*
X144174354Y-51705285D01*
X144219285Y-51748042D01*
X144225989Y-51755129D01*
X144230095Y-51761637D01*
X144241317Y-51771548D01*
X144264393Y-51791929D01*
X144272258Y-51799507D01*
X144335476Y-51865936D01*
X144344702Y-51875631D01*
X144348880Y-51880244D01*
X144425156Y-51968783D01*
X144429083Y-51973577D01*
X144500594Y-52065373D01*
X144504280Y-52070351D01*
X144571005Y-52165283D01*
X144574432Y-52170422D01*
X144636274Y-52268272D01*
X144639438Y-52273561D01*
X144696338Y-52374171D01*
X144699235Y-52379599D01*
X144710364Y-52401733D01*
X144741337Y-52463336D01*
X144751088Y-52482731D01*
X144753712Y-52488282D01*
X144756596Y-52494791D01*
X144800458Y-52593785D01*
X144802809Y-52599461D01*
X144844362Y-52707130D01*
X144846432Y-52712910D01*
X144853235Y-52733472D01*
X144882696Y-52822516D01*
X144884485Y-52828401D01*
X144915389Y-52939763D01*
X144916891Y-52945741D01*
X144942356Y-53058676D01*
X144943566Y-53064731D01*
X144963027Y-53176253D01*
X144963509Y-53179018D01*
X144964424Y-53185147D01*
X144978768Y-53300628D01*
X144979382Y-53306810D01*
X144988052Y-53423345D01*
X144988358Y-53429533D01*
X144989462Y-53474066D01*
X144991380Y-53551463D01*
X144991417Y-53555353D01*
X144991064Y-53613215D01*
X144991024Y-53619721D01*
X144991408Y-53621065D01*
X144991500Y-53622410D01*
X144991500Y-75541399D01*
X144991498Y-75542142D01*
X144991492Y-75543160D01*
X144991455Y-75545529D01*
X144989996Y-75604418D01*
X144988359Y-75670456D01*
X144988052Y-75676664D01*
X144986540Y-75696984D01*
X144979382Y-75793187D01*
X144978768Y-75799369D01*
X144964425Y-75914835D01*
X144963511Y-75920961D01*
X144943563Y-76035284D01*
X144942355Y-76041327D01*
X144927504Y-76107190D01*
X144916890Y-76154262D01*
X144915389Y-76160235D01*
X144886474Y-76264434D01*
X144884483Y-76271607D01*
X144882698Y-76277478D01*
X144846435Y-76387077D01*
X144846433Y-76387084D01*
X144844364Y-76392862D01*
X144807098Y-76489425D01*
X144802813Y-76500527D01*
X144800465Y-76506194D01*
X144753714Y-76611711D01*
X144751110Y-76617222D01*
X144699229Y-76720411D01*
X144696332Y-76725838D01*
X144639453Y-76826410D01*
X144636288Y-76831700D01*
X144574421Y-76929588D01*
X144570995Y-76934725D01*
X144504273Y-77029654D01*
X144500587Y-77034633D01*
X144429090Y-77126411D01*
X144425163Y-77131205D01*
X144348900Y-77219729D01*
X144348895Y-77219735D01*
X144344719Y-77224346D01*
X144295789Y-77275764D01*
X144274900Y-77297715D01*
X144265871Y-77306309D01*
X144240990Y-77327747D01*
X144240988Y-77327749D01*
X144234192Y-77333605D01*
X144229311Y-77341136D01*
X144226600Y-77344243D01*
X144218522Y-77352679D01*
X144174322Y-77394741D01*
X144169731Y-77398897D01*
X144081218Y-77475151D01*
X144076430Y-77479075D01*
X144027837Y-77516930D01*
X143984630Y-77550589D01*
X143979653Y-77554273D01*
X143884719Y-77621001D01*
X143879579Y-77624429D01*
X143781726Y-77686273D01*
X143776437Y-77689437D01*
X143675827Y-77746337D01*
X143670399Y-77749234D01*
X143567269Y-77801086D01*
X143561717Y-77803710D01*
X143561676Y-77803729D01*
X143456195Y-77850465D01*
X143450518Y-77852816D01*
X143342863Y-77894362D01*
X143337078Y-77896434D01*
X143227504Y-77932689D01*
X143221617Y-77934479D01*
X143110241Y-77965387D01*
X143104264Y-77966889D01*
X142991319Y-77992356D01*
X142985283Y-77993562D01*
X142870958Y-78013511D01*
X142864848Y-78014423D01*
X142749370Y-78028767D01*
X142743202Y-78029379D01*
X142626656Y-78038051D01*
X142620463Y-78038357D01*
X142498273Y-78041386D01*
X142495282Y-78041460D01*
X142492160Y-78041499D01*
X128507841Y-78041499D01*
X128504720Y-78041460D01*
X128500373Y-78041352D01*
X128379527Y-78038357D01*
X128373334Y-78038051D01*
X128256812Y-78029381D01*
X128250630Y-78028767D01*
X128135164Y-78014424D01*
X128129038Y-78013510D01*
X128014715Y-77993562D01*
X128008670Y-77992354D01*
X127895743Y-77966890D01*
X127889767Y-77965388D01*
X127778388Y-77934480D01*
X127772530Y-77932699D01*
X127662888Y-77896423D01*
X127657141Y-77894365D01*
X127549463Y-77852808D01*
X127543804Y-77850464D01*
X127438276Y-77803708D01*
X127432776Y-77801109D01*
X127329576Y-77749222D01*
X127324160Y-77746331D01*
X127223588Y-77689452D01*
X127218298Y-77686287D01*
X127120410Y-77624420D01*
X127115273Y-77620994D01*
X127020344Y-77554272D01*
X127015364Y-77550586D01*
X126923579Y-77479083D01*
X126918775Y-77475146D01*
X126830261Y-77398893D01*
X126825637Y-77394706D01*
X126780721Y-77351961D01*
X126774009Y-77344865D01*
X126769904Y-77338360D01*
X126735603Y-77308066D01*
X126727751Y-77300500D01*
X126664527Y-77234062D01*
X126655283Y-77224348D01*
X126651100Y-77219729D01*
X126574858Y-77131231D01*
X126570919Y-77126424D01*
X126499405Y-77034623D01*
X126495721Y-77029646D01*
X126429004Y-76934727D01*
X126425576Y-76929587D01*
X126380670Y-76858535D01*
X126363718Y-76831712D01*
X126360569Y-76826450D01*
X126303656Y-76725816D01*
X126300765Y-76720398D01*
X126260118Y-76639554D01*
X126248909Y-76617260D01*
X126246286Y-76611711D01*
X126244866Y-76608505D01*
X126199533Y-76506192D01*
X126197183Y-76500517D01*
X126155637Y-76392862D01*
X126153565Y-76387077D01*
X126117310Y-76277503D01*
X126115520Y-76271616D01*
X126084612Y-76160240D01*
X126083110Y-76154262D01*
X126057645Y-76041327D01*
X126056434Y-76035270D01*
X126036489Y-75920963D01*
X126035575Y-75914836D01*
X126033330Y-75896756D01*
X126021233Y-75799369D01*
X126020620Y-75793194D01*
X126011949Y-75676655D01*
X126011642Y-75670445D01*
X126010658Y-75630716D01*
X126008540Y-75545281D01*
X126008501Y-75542159D01*
X126008501Y-74677344D01*
X126286575Y-74677344D01*
X126303516Y-74971164D01*
X126304341Y-74975371D01*
X126304342Y-74975376D01*
X126331150Y-75112014D01*
X126360177Y-75259966D01*
X126361564Y-75264016D01*
X126361565Y-75264021D01*
X126451294Y-75526096D01*
X126455509Y-75538407D01*
X126458966Y-75545281D01*
X126585207Y-75796283D01*
X126587747Y-75801334D01*
X126590173Y-75804863D01*
X126590176Y-75804869D01*
X126653326Y-75896752D01*
X126754445Y-76043881D01*
X126757332Y-76047054D01*
X126757333Y-76047055D01*
X126798161Y-76091924D01*
X126952518Y-76261560D01*
X126955807Y-76264310D01*
X127175009Y-76447592D01*
X127175014Y-76447596D01*
X127178301Y-76450344D01*
X127267334Y-76506194D01*
X127423976Y-76604456D01*
X127423980Y-76604458D01*
X127427616Y-76606739D01*
X127500293Y-76639554D01*
X127691937Y-76726085D01*
X127691941Y-76726087D01*
X127695849Y-76727851D01*
X127699968Y-76729071D01*
X127973924Y-76810221D01*
X127973929Y-76810222D01*
X127978037Y-76811439D01*
X127982271Y-76812087D01*
X127982276Y-76812088D01*
X128264717Y-76855307D01*
X128264719Y-76855307D01*
X128268959Y-76855956D01*
X128418772Y-76858310D01*
X128558940Y-76860512D01*
X128558946Y-76860512D01*
X128563231Y-76860579D01*
X128855408Y-76825222D01*
X129065703Y-76770052D01*
X129135939Y-76751626D01*
X129135940Y-76751626D01*
X129140082Y-76750539D01*
X129411988Y-76637912D01*
X129637382Y-76506202D01*
X129662389Y-76491589D01*
X129662390Y-76491588D01*
X129666092Y-76489425D01*
X129897694Y-76307827D01*
X129931042Y-76273415D01*
X130099523Y-76099554D01*
X130102506Y-76096476D01*
X130276741Y-75859285D01*
X130328739Y-75763517D01*
X130415122Y-75604418D01*
X130415123Y-75604416D01*
X130417172Y-75600642D01*
X130521203Y-75325333D01*
X130586907Y-75038453D01*
X130592537Y-74975376D01*
X130612849Y-74747776D01*
X130612849Y-74747774D01*
X130613069Y-74745310D01*
X130613544Y-74700000D01*
X130612000Y-74677344D01*
X140386575Y-74677344D01*
X140403516Y-74971164D01*
X140404341Y-74975371D01*
X140404342Y-74975376D01*
X140431150Y-75112014D01*
X140460177Y-75259966D01*
X140461564Y-75264016D01*
X140461565Y-75264021D01*
X140551294Y-75526096D01*
X140555509Y-75538407D01*
X140558966Y-75545281D01*
X140685207Y-75796283D01*
X140687747Y-75801334D01*
X140690173Y-75804863D01*
X140690176Y-75804869D01*
X140753326Y-75896752D01*
X140854445Y-76043881D01*
X140857332Y-76047054D01*
X140857333Y-76047055D01*
X140898161Y-76091924D01*
X141052518Y-76261560D01*
X141055807Y-76264310D01*
X141275009Y-76447592D01*
X141275014Y-76447596D01*
X141278301Y-76450344D01*
X141367334Y-76506194D01*
X141523976Y-76604456D01*
X141523980Y-76604458D01*
X141527616Y-76606739D01*
X141600293Y-76639554D01*
X141791937Y-76726085D01*
X141791941Y-76726087D01*
X141795849Y-76727851D01*
X141799968Y-76729071D01*
X142073924Y-76810221D01*
X142073929Y-76810222D01*
X142078037Y-76811439D01*
X142082271Y-76812087D01*
X142082276Y-76812088D01*
X142364717Y-76855307D01*
X142364719Y-76855307D01*
X142368959Y-76855956D01*
X142518772Y-76858310D01*
X142658940Y-76860512D01*
X142658946Y-76860512D01*
X142663231Y-76860579D01*
X142955408Y-76825222D01*
X143165703Y-76770052D01*
X143235939Y-76751626D01*
X143235940Y-76751626D01*
X143240082Y-76750539D01*
X143511988Y-76637912D01*
X143737382Y-76506202D01*
X143762389Y-76491589D01*
X143762390Y-76491588D01*
X143766092Y-76489425D01*
X143997694Y-76307827D01*
X144031042Y-76273415D01*
X144199523Y-76099554D01*
X144202506Y-76096476D01*
X144376741Y-75859285D01*
X144428739Y-75763517D01*
X144515122Y-75604418D01*
X144515123Y-75604416D01*
X144517172Y-75600642D01*
X144621203Y-75325333D01*
X144686907Y-75038453D01*
X144692537Y-74975376D01*
X144712849Y-74747776D01*
X144712849Y-74747774D01*
X144713069Y-74745310D01*
X144713544Y-74700000D01*
X144712000Y-74677344D01*
X144693819Y-74410650D01*
X144693818Y-74410644D01*
X144693527Y-74406373D01*
X144633845Y-74118180D01*
X144535603Y-73840753D01*
X144400618Y-73579226D01*
X144384589Y-73556418D01*
X144233856Y-73341948D01*
X144233855Y-73341947D01*
X144231389Y-73338438D01*
X144031048Y-73122844D01*
X144008936Y-73104745D01*
X143806618Y-72939151D01*
X143803300Y-72936435D01*
X143552361Y-72782660D01*
X143533706Y-72774471D01*
X143286802Y-72666087D01*
X143286798Y-72666086D01*
X143282874Y-72664363D01*
X142999826Y-72583735D01*
X142995584Y-72583131D01*
X142995578Y-72583130D01*
X142712705Y-72542871D01*
X142708454Y-72542266D01*
X142553306Y-72541454D01*
X142418436Y-72540747D01*
X142418430Y-72540747D01*
X142414150Y-72540725D01*
X142409906Y-72541284D01*
X142409902Y-72541284D01*
X142281341Y-72558210D01*
X142122360Y-72579140D01*
X142118220Y-72580273D01*
X142118218Y-72580273D01*
X142101261Y-72584912D01*
X141838483Y-72656800D01*
X141834533Y-72658485D01*
X141571714Y-72770586D01*
X141571707Y-72770590D01*
X141567772Y-72772268D01*
X141415386Y-72863469D01*
X141318918Y-72921204D01*
X141318914Y-72921207D01*
X141315236Y-72923408D01*
X141085549Y-73107422D01*
X141082605Y-73110524D01*
X141082601Y-73110528D01*
X141073491Y-73120128D01*
X140882961Y-73320905D01*
X140711220Y-73559908D01*
X140573504Y-73820007D01*
X140472362Y-74096390D01*
X140409666Y-74383943D01*
X140386575Y-74677344D01*
X130612000Y-74677344D01*
X130593819Y-74410650D01*
X130593818Y-74410644D01*
X130593527Y-74406373D01*
X130533845Y-74118180D01*
X130435603Y-73840753D01*
X130300618Y-73579226D01*
X130284589Y-73556418D01*
X130133856Y-73341948D01*
X130133855Y-73341947D01*
X130131389Y-73338438D01*
X129931048Y-73122844D01*
X129908936Y-73104745D01*
X129706618Y-72939151D01*
X129703300Y-72936435D01*
X129452361Y-72782660D01*
X129433706Y-72774471D01*
X129186802Y-72666087D01*
X129186798Y-72666086D01*
X129182874Y-72664363D01*
X128899826Y-72583735D01*
X128895584Y-72583131D01*
X128895578Y-72583130D01*
X128612705Y-72542871D01*
X128608454Y-72542266D01*
X128453306Y-72541454D01*
X128318436Y-72540747D01*
X128318430Y-72540747D01*
X128314150Y-72540725D01*
X128309906Y-72541284D01*
X128309902Y-72541284D01*
X128181341Y-72558210D01*
X128022360Y-72579140D01*
X128018220Y-72580273D01*
X128018218Y-72580273D01*
X128001261Y-72584912D01*
X127738483Y-72656800D01*
X127734533Y-72658485D01*
X127471714Y-72770586D01*
X127471707Y-72770590D01*
X127467772Y-72772268D01*
X127315386Y-72863469D01*
X127218918Y-72921204D01*
X127218914Y-72921207D01*
X127215236Y-72923408D01*
X126985549Y-73107422D01*
X126982605Y-73110524D01*
X126982601Y-73110528D01*
X126973491Y-73120128D01*
X126782961Y-73320905D01*
X126611220Y-73559908D01*
X126473504Y-73820007D01*
X126372362Y-74096390D01*
X126309666Y-74383943D01*
X126286575Y-74677344D01*
X126008501Y-74677344D01*
X126008501Y-71088984D01*
X135479501Y-71088984D01*
X135479695Y-71093920D01*
X135481930Y-71122336D01*
X135484230Y-71134931D01*
X135526607Y-71280790D01*
X135532852Y-71295221D01*
X135609411Y-71424678D01*
X135619051Y-71437104D01*
X135725396Y-71543449D01*
X135737822Y-71553089D01*
X135867279Y-71629648D01*
X135881710Y-71635893D01*
X136016105Y-71674939D01*
X136030206Y-71674899D01*
X136033500Y-71667630D01*
X136033500Y-71661878D01*
X136541500Y-71661878D01*
X136545473Y-71675409D01*
X136553371Y-71676544D01*
X136693290Y-71635893D01*
X136707721Y-71629648D01*
X136837178Y-71553089D01*
X136849604Y-71543449D01*
X136955949Y-71437104D01*
X136965589Y-71424678D01*
X137042148Y-71295221D01*
X137048393Y-71280790D01*
X137090769Y-71134935D01*
X137093070Y-71122333D01*
X137095307Y-71093916D01*
X137095500Y-71088986D01*
X137095500Y-70709615D01*
X137091025Y-70694376D01*
X137089635Y-70693171D01*
X137081952Y-70691500D01*
X136559615Y-70691500D01*
X136544376Y-70695975D01*
X136543171Y-70697365D01*
X136541500Y-70705048D01*
X136541500Y-71661878D01*
X136033500Y-71661878D01*
X136033500Y-70709615D01*
X136029025Y-70694376D01*
X136027635Y-70693171D01*
X136019952Y-70691500D01*
X135497616Y-70691500D01*
X135482377Y-70695975D01*
X135481172Y-70697365D01*
X135479501Y-70705048D01*
X135479501Y-71088984D01*
X126008501Y-71088984D01*
X126008501Y-57879943D01*
X126711780Y-57879943D01*
X126712526Y-57887835D01*
X126715941Y-57923961D01*
X126716500Y-57935819D01*
X126716500Y-62521233D01*
X126715973Y-62532416D01*
X126714298Y-62539909D01*
X126714547Y-62547835D01*
X126714547Y-62547836D01*
X126716438Y-62607986D01*
X126716500Y-62611945D01*
X126716500Y-62639856D01*
X126716997Y-62643790D01*
X126716997Y-62643791D01*
X126717005Y-62643856D01*
X126717938Y-62655693D01*
X126719327Y-62699889D01*
X126724978Y-62719339D01*
X126728987Y-62738700D01*
X126731526Y-62758797D01*
X126734445Y-62766168D01*
X126734445Y-62766170D01*
X126747804Y-62799912D01*
X126751649Y-62811142D01*
X126763982Y-62853593D01*
X126768015Y-62860412D01*
X126768017Y-62860417D01*
X126774293Y-62871028D01*
X126782988Y-62888776D01*
X126790448Y-62907617D01*
X126795110Y-62914033D01*
X126795110Y-62914034D01*
X126816436Y-62943387D01*
X126822952Y-62953307D01*
X126834548Y-62972914D01*
X126845458Y-62991362D01*
X126859779Y-63005683D01*
X126872619Y-63020716D01*
X126884528Y-63037107D01*
X126890634Y-63042158D01*
X126918605Y-63065298D01*
X126927384Y-63073288D01*
X128808848Y-64954753D01*
X128816388Y-64963039D01*
X128820500Y-64969518D01*
X128826277Y-64974943D01*
X128870151Y-65016143D01*
X128872993Y-65018898D01*
X128892730Y-65038635D01*
X128895927Y-65041115D01*
X128904947Y-65048818D01*
X128937179Y-65079086D01*
X128944125Y-65082905D01*
X128944128Y-65082907D01*
X128954934Y-65088848D01*
X128971453Y-65099699D01*
X128987459Y-65112114D01*
X128994728Y-65115259D01*
X128994732Y-65115262D01*
X129028037Y-65129674D01*
X129038687Y-65134891D01*
X129077440Y-65156195D01*
X129085115Y-65158166D01*
X129085116Y-65158166D01*
X129097062Y-65161233D01*
X129115767Y-65167637D01*
X129134355Y-65175681D01*
X129142178Y-65176920D01*
X129142188Y-65176923D01*
X129178024Y-65182599D01*
X129189644Y-65185005D01*
X129224789Y-65194028D01*
X129232470Y-65196000D01*
X129252724Y-65196000D01*
X129272434Y-65197551D01*
X129292443Y-65200720D01*
X129300335Y-65199974D01*
X129336461Y-65196559D01*
X129348319Y-65196000D01*
X131533454Y-65196000D01*
X131601575Y-65216002D01*
X131640598Y-65255697D01*
X131643408Y-65260238D01*
X131714022Y-65374348D01*
X131839197Y-65499305D01*
X131845427Y-65503145D01*
X131845428Y-65503146D01*
X131904944Y-65539832D01*
X131989762Y-65592115D01*
X132069505Y-65618564D01*
X132151111Y-65645632D01*
X132151113Y-65645632D01*
X132157639Y-65647797D01*
X132164475Y-65648497D01*
X132164478Y-65648498D01*
X132207531Y-65652909D01*
X132262100Y-65658500D01*
X132935406Y-65658500D01*
X133003527Y-65678502D01*
X133024501Y-65695405D01*
X134667095Y-67337999D01*
X134701121Y-67400311D01*
X134704000Y-67427094D01*
X134704000Y-67475050D01*
X134683998Y-67543171D01*
X134673441Y-67556271D01*
X134673511Y-67556325D01*
X134668656Y-67562584D01*
X134663047Y-67568193D01*
X134659011Y-67575017D01*
X134659009Y-67575020D01*
X134595393Y-67682589D01*
X134578355Y-67711399D01*
X134531938Y-67871169D01*
X134529000Y-67908498D01*
X134529000Y-69216502D01*
X134531938Y-69253831D01*
X134578355Y-69413601D01*
X134582392Y-69420427D01*
X134659009Y-69549980D01*
X134659011Y-69549983D01*
X134663047Y-69556807D01*
X134780693Y-69674453D01*
X134787517Y-69678489D01*
X134787520Y-69678491D01*
X134895089Y-69742107D01*
X134923899Y-69759145D01*
X134931510Y-69761356D01*
X134931512Y-69761357D01*
X134983731Y-69776528D01*
X135083669Y-69805562D01*
X135090074Y-69806066D01*
X135090079Y-69806067D01*
X135118542Y-69808307D01*
X135118550Y-69808307D01*
X135120998Y-69808500D01*
X135353500Y-69808500D01*
X135421621Y-69828502D01*
X135468114Y-69882158D01*
X135479500Y-69934500D01*
X135479500Y-70165385D01*
X135483975Y-70180624D01*
X135485365Y-70181829D01*
X135493048Y-70183500D01*
X136015385Y-70183500D01*
X136030624Y-70179025D01*
X136031829Y-70177635D01*
X136033500Y-70169952D01*
X136033500Y-69554842D01*
X136051047Y-69490703D01*
X136092608Y-69420427D01*
X136096645Y-69413601D01*
X136143062Y-69253831D01*
X136146000Y-69216502D01*
X136429000Y-69216502D01*
X136431938Y-69253831D01*
X136478355Y-69413601D01*
X136482392Y-69420427D01*
X136523953Y-69490703D01*
X136541500Y-69554842D01*
X136541500Y-70165385D01*
X136545975Y-70180624D01*
X136547365Y-70181829D01*
X136555048Y-70183500D01*
X137077384Y-70183500D01*
X137092623Y-70179025D01*
X137093828Y-70177635D01*
X137095499Y-70169952D01*
X137095499Y-69934500D01*
X137115501Y-69866379D01*
X137169157Y-69819886D01*
X137221499Y-69808500D01*
X137454002Y-69808500D01*
X137456450Y-69808307D01*
X137456458Y-69808307D01*
X137484921Y-69806067D01*
X137484926Y-69806066D01*
X137491331Y-69805562D01*
X137591269Y-69776528D01*
X137643488Y-69761357D01*
X137643490Y-69761356D01*
X137651101Y-69759145D01*
X137679911Y-69742107D01*
X137787480Y-69678491D01*
X137787483Y-69678489D01*
X137794307Y-69674453D01*
X137911953Y-69556807D01*
X137915989Y-69549983D01*
X137915991Y-69549980D01*
X137992608Y-69420427D01*
X137996645Y-69413601D01*
X138043062Y-69253831D01*
X138046000Y-69216502D01*
X138046000Y-68702094D01*
X138066002Y-68633973D01*
X138082905Y-68612999D01*
X138142456Y-68553448D01*
X138147338Y-68549053D01*
X138151704Y-68546348D01*
X138201723Y-68494218D01*
X138203544Y-68492360D01*
X138226134Y-68469770D01*
X138228556Y-68466647D01*
X138231113Y-68463748D01*
X138234698Y-68459851D01*
X138262521Y-68430854D01*
X138274491Y-68409625D01*
X138284684Y-68394289D01*
X138294754Y-68381307D01*
X138294758Y-68381299D01*
X138299613Y-68375041D01*
X138302758Y-68367773D01*
X138302763Y-68367765D01*
X138315548Y-68338219D01*
X138321417Y-68326399D01*
X138341133Y-68291430D01*
X138347444Y-68267903D01*
X138353506Y-68250504D01*
X138360032Y-68235424D01*
X138360034Y-68235417D01*
X138363181Y-68228145D01*
X138369457Y-68188523D01*
X138372207Y-68175592D01*
X138380549Y-68144494D01*
X138382603Y-68136837D01*
X138382865Y-68112469D01*
X138384409Y-68094114D01*
X138386979Y-68077887D01*
X138386979Y-68077886D01*
X138388219Y-68070057D01*
X138384444Y-68030120D01*
X138383892Y-68016912D01*
X138388778Y-67562584D01*
X138393703Y-67104502D01*
X138407967Y-65778034D01*
X138428701Y-65710132D01*
X138482853Y-65664219D01*
X138494083Y-65659866D01*
X138579493Y-65631370D01*
X138579495Y-65631369D01*
X138586446Y-65629050D01*
X138736848Y-65535978D01*
X138861805Y-65410803D01*
X138934184Y-65293383D01*
X138986955Y-65245891D01*
X139041443Y-65233500D01*
X139124481Y-65233500D01*
X139192602Y-65253502D01*
X139198534Y-65257559D01*
X139330748Y-65353618D01*
X139336776Y-65356302D01*
X139336778Y-65356303D01*
X139473154Y-65417021D01*
X139505212Y-65431294D01*
X139598613Y-65451147D01*
X139685556Y-65469628D01*
X139685561Y-65469628D01*
X139692013Y-65471000D01*
X139882987Y-65471000D01*
X139889439Y-65469628D01*
X139889444Y-65469628D01*
X139976387Y-65451147D01*
X140069788Y-65431294D01*
X140101846Y-65417021D01*
X140238222Y-65356303D01*
X140238224Y-65356302D01*
X140244252Y-65353618D01*
X140398753Y-65241366D01*
X140435351Y-65200720D01*
X140522121Y-65104352D01*
X140522122Y-65104351D01*
X140526540Y-65099444D01*
X140622027Y-64934056D01*
X140681042Y-64752428D01*
X140701004Y-64562500D01*
X140681042Y-64372572D01*
X140622027Y-64190944D01*
X140614477Y-64177866D01*
X140555486Y-64075692D01*
X140526540Y-64025556D01*
X140419615Y-63906803D01*
X140403175Y-63888545D01*
X140403174Y-63888544D01*
X140398753Y-63883634D01*
X140244252Y-63771382D01*
X140238224Y-63768698D01*
X140238222Y-63768697D01*
X140075819Y-63696391D01*
X140075818Y-63696391D01*
X140069788Y-63693706D01*
X139954516Y-63669204D01*
X139889444Y-63655372D01*
X139889439Y-63655372D01*
X139882987Y-63654000D01*
X139692013Y-63654000D01*
X139685561Y-63655372D01*
X139685556Y-63655372D01*
X139620484Y-63669204D01*
X139505212Y-63693706D01*
X139499182Y-63696391D01*
X139499181Y-63696391D01*
X139336778Y-63768697D01*
X139336776Y-63768698D01*
X139330748Y-63771382D01*
X139325407Y-63775262D01*
X139325406Y-63775263D01*
X139197829Y-63867954D01*
X139176247Y-63883634D01*
X139171834Y-63888536D01*
X139171832Y-63888537D01*
X139139171Y-63924811D01*
X139078725Y-63962050D01*
X139045535Y-63966500D01*
X139041546Y-63966500D01*
X138973425Y-63946498D01*
X138934402Y-63906803D01*
X138864832Y-63794380D01*
X138860978Y-63788152D01*
X138735803Y-63663195D01*
X138731265Y-63660398D01*
X138690676Y-63603147D01*
X138687446Y-63532224D01*
X138723072Y-63470813D01*
X138731568Y-63463438D01*
X138741707Y-63455402D01*
X138856239Y-63340671D01*
X138865251Y-63329260D01*
X138950316Y-63191257D01*
X138956463Y-63178076D01*
X139007638Y-63023790D01*
X139010505Y-63010414D01*
X139020172Y-62916062D01*
X139020500Y-62909646D01*
X139020500Y-62797115D01*
X139016025Y-62781876D01*
X139014635Y-62780671D01*
X139006952Y-62779000D01*
X136572616Y-62779000D01*
X136557377Y-62783475D01*
X136556172Y-62784865D01*
X136554501Y-62792548D01*
X136554501Y-62909595D01*
X136554838Y-62916114D01*
X136564757Y-63011706D01*
X136567649Y-63025100D01*
X136619088Y-63179284D01*
X136625261Y-63192462D01*
X136710563Y-63330307D01*
X136719599Y-63341708D01*
X136834328Y-63456238D01*
X136843262Y-63463294D01*
X136884323Y-63521212D01*
X136887553Y-63592135D01*
X136851926Y-63653546D01*
X136844093Y-63660346D01*
X136838152Y-63664022D01*
X136713195Y-63789197D01*
X136709355Y-63795427D01*
X136709354Y-63795428D01*
X136651961Y-63888537D01*
X136620385Y-63939762D01*
X136593936Y-64019505D01*
X136579743Y-64062296D01*
X136564703Y-64107639D01*
X136554000Y-64212100D01*
X136554000Y-64987900D01*
X136554337Y-64991146D01*
X136554337Y-64991150D01*
X136563858Y-65082907D01*
X136564974Y-65093666D01*
X136567155Y-65100202D01*
X136567155Y-65100204D01*
X136599115Y-65196000D01*
X136620950Y-65261446D01*
X136714022Y-65411848D01*
X136839197Y-65536805D01*
X136845427Y-65540645D01*
X136845428Y-65540646D01*
X136982590Y-65625194D01*
X136989762Y-65629615D01*
X137038052Y-65645632D01*
X137054631Y-65651131D01*
X137112991Y-65691562D01*
X137140228Y-65757126D01*
X137140957Y-65772079D01*
X137125676Y-67193142D01*
X137104942Y-67261044D01*
X137050790Y-67306957D01*
X137009572Y-67317398D01*
X136990088Y-67318932D01*
X136990080Y-67318933D01*
X136983669Y-67319438D01*
X136883731Y-67348472D01*
X136831512Y-67363643D01*
X136831510Y-67363644D01*
X136823899Y-67365855D01*
X136817072Y-67369892D01*
X136817073Y-67369892D01*
X136687520Y-67446509D01*
X136687517Y-67446511D01*
X136680693Y-67450547D01*
X136563047Y-67568193D01*
X136559011Y-67575017D01*
X136559009Y-67575020D01*
X136495393Y-67682589D01*
X136478355Y-67711399D01*
X136431938Y-67871169D01*
X136429000Y-67908498D01*
X136429000Y-69216502D01*
X136146000Y-69216502D01*
X136146000Y-67908498D01*
X136143062Y-67871169D01*
X136096645Y-67711399D01*
X136079607Y-67682589D01*
X136015991Y-67575020D01*
X136015989Y-67575017D01*
X136011953Y-67568193D01*
X136006344Y-67562584D01*
X136001489Y-67556325D01*
X136002996Y-67555156D01*
X135973879Y-67501833D01*
X135971000Y-67475050D01*
X135971000Y-67191268D01*
X135971527Y-67180085D01*
X135973202Y-67172592D01*
X135971062Y-67104501D01*
X135971000Y-67100544D01*
X135971000Y-67072644D01*
X135970496Y-67068653D01*
X135969563Y-67056811D01*
X135968423Y-67020536D01*
X135968174Y-67012611D01*
X135962521Y-66993152D01*
X135958512Y-66973793D01*
X135958346Y-66972483D01*
X135955974Y-66953703D01*
X135953058Y-66946337D01*
X135953056Y-66946331D01*
X135939700Y-66912598D01*
X135935855Y-66901368D01*
X135925730Y-66866517D01*
X135925730Y-66866516D01*
X135923519Y-66858907D01*
X135913205Y-66841466D01*
X135904508Y-66823713D01*
X135899972Y-66812258D01*
X135897052Y-66804883D01*
X135871063Y-66769112D01*
X135864547Y-66759192D01*
X135846078Y-66727963D01*
X135842042Y-66721138D01*
X135827721Y-66706817D01*
X135814880Y-66691783D01*
X135807631Y-66681806D01*
X135802972Y-66675393D01*
X135768895Y-66647202D01*
X135760116Y-66639212D01*
X134057905Y-64937000D01*
X134023879Y-64874688D01*
X134021000Y-64847905D01*
X134021000Y-64174600D01*
X134014762Y-64114478D01*
X134010738Y-64075692D01*
X134010737Y-64075688D01*
X134010026Y-64068834D01*
X133954050Y-63901054D01*
X133860978Y-63750652D01*
X133735803Y-63625695D01*
X133731265Y-63622898D01*
X133690676Y-63565647D01*
X133687446Y-63494724D01*
X133723072Y-63433313D01*
X133731568Y-63425938D01*
X133741707Y-63417902D01*
X133856239Y-63303171D01*
X133865251Y-63291760D01*
X133950316Y-63153757D01*
X133956463Y-63140576D01*
X134007638Y-62986290D01*
X134010505Y-62972914D01*
X134020172Y-62878562D01*
X134020500Y-62872146D01*
X134020500Y-62759615D01*
X134016025Y-62744376D01*
X134014635Y-62743171D01*
X134006952Y-62741500D01*
X131572616Y-62741500D01*
X131557377Y-62745975D01*
X131556172Y-62747365D01*
X131554501Y-62755048D01*
X131554501Y-62872095D01*
X131554838Y-62878614D01*
X131564757Y-62974206D01*
X131567649Y-62987600D01*
X131619088Y-63141784D01*
X131625261Y-63154962D01*
X131710563Y-63292807D01*
X131719599Y-63304208D01*
X131834328Y-63418738D01*
X131843262Y-63425794D01*
X131884323Y-63483712D01*
X131887553Y-63554635D01*
X131851926Y-63616046D01*
X131844093Y-63622846D01*
X131838152Y-63626522D01*
X131713195Y-63751697D01*
X131709355Y-63757927D01*
X131709354Y-63757928D01*
X131640817Y-63869116D01*
X131588045Y-63916609D01*
X131533557Y-63929000D01*
X129627094Y-63929000D01*
X129558973Y-63908998D01*
X129537999Y-63892095D01*
X128020405Y-62374500D01*
X127986379Y-62312188D01*
X127983500Y-62285405D01*
X127983500Y-62252885D01*
X136554500Y-62252885D01*
X136558975Y-62268124D01*
X136560365Y-62269329D01*
X136568048Y-62271000D01*
X137515385Y-62271000D01*
X137530624Y-62266525D01*
X137531829Y-62265135D01*
X137533500Y-62257452D01*
X137533500Y-62252885D01*
X138041500Y-62252885D01*
X138045975Y-62268124D01*
X138047365Y-62269329D01*
X138055048Y-62271000D01*
X139002384Y-62271000D01*
X139017623Y-62266525D01*
X139018828Y-62265135D01*
X139020499Y-62257452D01*
X139020499Y-62140405D01*
X139020162Y-62133886D01*
X139010243Y-62038294D01*
X139007351Y-62024900D01*
X138955912Y-61870716D01*
X138949739Y-61857538D01*
X138864437Y-61719693D01*
X138855401Y-61708292D01*
X138740671Y-61593761D01*
X138729260Y-61584749D01*
X138591257Y-61499684D01*
X138578076Y-61493537D01*
X138423790Y-61442362D01*
X138410414Y-61439495D01*
X138316062Y-61429828D01*
X138309645Y-61429500D01*
X138059615Y-61429500D01*
X138044376Y-61433975D01*
X138043171Y-61435365D01*
X138041500Y-61443048D01*
X138041500Y-62252885D01*
X137533500Y-62252885D01*
X137533500Y-61447616D01*
X137529025Y-61432377D01*
X137527635Y-61431172D01*
X137519952Y-61429501D01*
X137265405Y-61429501D01*
X137258886Y-61429838D01*
X137163294Y-61439757D01*
X137149900Y-61442649D01*
X136995716Y-61494088D01*
X136982538Y-61500261D01*
X136844693Y-61585563D01*
X136833292Y-61594599D01*
X136718761Y-61709329D01*
X136709749Y-61720740D01*
X136624684Y-61858743D01*
X136618537Y-61871924D01*
X136567362Y-62026210D01*
X136564495Y-62039586D01*
X136554828Y-62133938D01*
X136554500Y-62140355D01*
X136554500Y-62252885D01*
X127983500Y-62252885D01*
X127983500Y-62215385D01*
X131554500Y-62215385D01*
X131558975Y-62230624D01*
X131560365Y-62231829D01*
X131568048Y-62233500D01*
X132515385Y-62233500D01*
X132530624Y-62229025D01*
X132531829Y-62227635D01*
X132533500Y-62219952D01*
X132533500Y-62215385D01*
X133041500Y-62215385D01*
X133045975Y-62230624D01*
X133047365Y-62231829D01*
X133055048Y-62233500D01*
X134002384Y-62233500D01*
X134017623Y-62229025D01*
X134018828Y-62227635D01*
X134020499Y-62219952D01*
X134020499Y-62102905D01*
X134020162Y-62096386D01*
X134010243Y-62000794D01*
X134007351Y-61987400D01*
X133955912Y-61833216D01*
X133949739Y-61820038D01*
X133864437Y-61682193D01*
X133855401Y-61670792D01*
X133740671Y-61556261D01*
X133729260Y-61547249D01*
X133591257Y-61462184D01*
X133578076Y-61456037D01*
X133423790Y-61404862D01*
X133410414Y-61401995D01*
X133316062Y-61392328D01*
X133309645Y-61392000D01*
X133059615Y-61392000D01*
X133044376Y-61396475D01*
X133043171Y-61397865D01*
X133041500Y-61405548D01*
X133041500Y-62215385D01*
X132533500Y-62215385D01*
X132533500Y-61410116D01*
X132529025Y-61394877D01*
X132527635Y-61393672D01*
X132519952Y-61392001D01*
X132265405Y-61392001D01*
X132258886Y-61392338D01*
X132163294Y-61402257D01*
X132149900Y-61405149D01*
X131995716Y-61456588D01*
X131982538Y-61462761D01*
X131844693Y-61548063D01*
X131833292Y-61557099D01*
X131718761Y-61671829D01*
X131709749Y-61683240D01*
X131624684Y-61821243D01*
X131618537Y-61834424D01*
X131567362Y-61988710D01*
X131564495Y-62002086D01*
X131554828Y-62096438D01*
X131554500Y-62102855D01*
X131554500Y-62215385D01*
X127983500Y-62215385D01*
X127983500Y-59070193D01*
X131349410Y-59070193D01*
X131356124Y-59149325D01*
X131357914Y-59159797D01*
X131413130Y-59372535D01*
X131416665Y-59382575D01*
X131506937Y-59582970D01*
X131512106Y-59592256D01*
X131634850Y-59774575D01*
X131641519Y-59782870D01*
X131793228Y-59941900D01*
X131801186Y-59948941D01*
X131977525Y-60080141D01*
X131986562Y-60085745D01*
X132182484Y-60185357D01*
X132192335Y-60189357D01*
X132402240Y-60254534D01*
X132412624Y-60256817D01*
X132428043Y-60258861D01*
X132442207Y-60256665D01*
X132446000Y-60243478D01*
X132446000Y-59072115D01*
X132441525Y-59056876D01*
X132440135Y-59055671D01*
X132432452Y-59054000D01*
X131366151Y-59054000D01*
X131351473Y-59058310D01*
X131349410Y-59070193D01*
X127983500Y-59070193D01*
X127983500Y-58214594D01*
X128003502Y-58146473D01*
X128020405Y-58125499D01*
X129725499Y-56420405D01*
X129787811Y-56386379D01*
X129814594Y-56383500D01*
X131835406Y-56383500D01*
X131903527Y-56403502D01*
X131924501Y-56420405D01*
X132612097Y-57108001D01*
X132646123Y-57170313D01*
X132641058Y-57241128D01*
X132598511Y-57297964D01*
X132538354Y-57322157D01*
X132528684Y-57323344D01*
X132313580Y-57368477D01*
X132303383Y-57371537D01*
X132098971Y-57452263D01*
X132089439Y-57456994D01*
X131901538Y-57571016D01*
X131892948Y-57577280D01*
X131726948Y-57721327D01*
X131719528Y-57728958D01*
X131580174Y-57898911D01*
X131574150Y-57907678D01*
X131465424Y-58098682D01*
X131460959Y-58108346D01*
X131385969Y-58314941D01*
X131383198Y-58325208D01*
X131346496Y-58528174D01*
X131347915Y-58541414D01*
X131362550Y-58546000D01*
X132828000Y-58546000D01*
X132896121Y-58566002D01*
X132942614Y-58619658D01*
X132954000Y-58672000D01*
X132954000Y-60241192D01*
X132957973Y-60254723D01*
X132968580Y-60256248D01*
X133086421Y-60231523D01*
X133096617Y-60228463D01*
X133301029Y-60147737D01*
X133310561Y-60143006D01*
X133498462Y-60028984D01*
X133507052Y-60022720D01*
X133673052Y-59878673D01*
X133680472Y-59871042D01*
X133819826Y-59701089D01*
X133825848Y-59692326D01*
X133841238Y-59665289D01*
X133892320Y-59615982D01*
X133961951Y-59602120D01*
X134028022Y-59628103D01*
X134055261Y-59657253D01*
X134084773Y-59701089D01*
X134137441Y-59779319D01*
X134141120Y-59783176D01*
X134141122Y-59783178D01*
X134202710Y-59847738D01*
X134296576Y-59946135D01*
X134481542Y-60083754D01*
X134486293Y-60086170D01*
X134486297Y-60086172D01*
X134549481Y-60118296D01*
X134687051Y-60188240D01*
X134692145Y-60189822D01*
X134692148Y-60189823D01*
X134857583Y-60241192D01*
X134907227Y-60256607D01*
X134912516Y-60257308D01*
X135130489Y-60286198D01*
X135130494Y-60286198D01*
X135135774Y-60286898D01*
X135141103Y-60286698D01*
X135141105Y-60286698D01*
X135250966Y-60282574D01*
X135366158Y-60278249D01*
X135388802Y-60273498D01*
X135586572Y-60232002D01*
X135591791Y-60230907D01*
X135596750Y-60228949D01*
X135596752Y-60228948D01*
X135801256Y-60148185D01*
X135801258Y-60148184D01*
X135806221Y-60146224D01*
X135811525Y-60143006D01*
X135998757Y-60029390D01*
X135998756Y-60029390D01*
X136003317Y-60026623D01*
X136043134Y-59992072D01*
X136173412Y-59879023D01*
X136173414Y-59879021D01*
X136177445Y-59875523D01*
X136206670Y-59839880D01*
X136265329Y-59799886D01*
X136336299Y-59797954D01*
X136397048Y-59834698D01*
X136411248Y-59853468D01*
X136427062Y-59879023D01*
X136501522Y-59999348D01*
X136626697Y-60124305D01*
X136632927Y-60128145D01*
X136632928Y-60128146D01*
X136770090Y-60212694D01*
X136777262Y-60217115D01*
X136812938Y-60228948D01*
X136938611Y-60270632D01*
X136938613Y-60270632D01*
X136945139Y-60272797D01*
X136951975Y-60273497D01*
X136951978Y-60273498D01*
X136987663Y-60277154D01*
X137049600Y-60283500D01*
X138350400Y-60283500D01*
X138353646Y-60283163D01*
X138353650Y-60283163D01*
X138449308Y-60273238D01*
X138449312Y-60273237D01*
X138456166Y-60272526D01*
X138462702Y-60270345D01*
X138462704Y-60270345D01*
X138594806Y-60226272D01*
X138623946Y-60216550D01*
X138774348Y-60123478D01*
X138899305Y-59998303D01*
X138931462Y-59946135D01*
X138988275Y-59853968D01*
X138988276Y-59853966D01*
X138992115Y-59847738D01*
X139047797Y-59679861D01*
X139050114Y-59657253D01*
X139058172Y-59578598D01*
X139058500Y-59575400D01*
X139058500Y-58024600D01*
X139050696Y-57949384D01*
X139048238Y-57925692D01*
X139048237Y-57925688D01*
X139047526Y-57918834D01*
X139024609Y-57850142D01*
X138993868Y-57758002D01*
X138991550Y-57751054D01*
X138898478Y-57600652D01*
X138773303Y-57475695D01*
X138746347Y-57459079D01*
X138628968Y-57386725D01*
X138628966Y-57386724D01*
X138622738Y-57382885D01*
X138527117Y-57351169D01*
X138461389Y-57329368D01*
X138461387Y-57329368D01*
X138454861Y-57327203D01*
X138448025Y-57326503D01*
X138448022Y-57326502D01*
X138404969Y-57322091D01*
X138350400Y-57316500D01*
X137049600Y-57316500D01*
X137046354Y-57316837D01*
X137046350Y-57316837D01*
X136950692Y-57326762D01*
X136950688Y-57326763D01*
X136943834Y-57327474D01*
X136937298Y-57329655D01*
X136937296Y-57329655D01*
X136805194Y-57373728D01*
X136776054Y-57383450D01*
X136625652Y-57476522D01*
X136500695Y-57601697D01*
X136426629Y-57721855D01*
X136410920Y-57747339D01*
X136358148Y-57794832D01*
X136288076Y-57806256D01*
X136222952Y-57777982D01*
X136212490Y-57768195D01*
X136141869Y-57694166D01*
X136103424Y-57653865D01*
X136051910Y-57615537D01*
X135922740Y-57519432D01*
X135922741Y-57519432D01*
X135918458Y-57516246D01*
X135913707Y-57513830D01*
X135913703Y-57513828D01*
X135801918Y-57456994D01*
X135712949Y-57411760D01*
X135707855Y-57410178D01*
X135707852Y-57410177D01*
X135497871Y-57344976D01*
X135492773Y-57343393D01*
X135487484Y-57342692D01*
X135269511Y-57313802D01*
X135269506Y-57313802D01*
X135264226Y-57313102D01*
X135258897Y-57313302D01*
X135258895Y-57313302D01*
X135149034Y-57317426D01*
X135033842Y-57321751D01*
X135028623Y-57322846D01*
X135006566Y-57327474D01*
X134808209Y-57369093D01*
X134782452Y-57379265D01*
X134711747Y-57385685D01*
X134647074Y-57351169D01*
X132653652Y-55357747D01*
X132646112Y-55349461D01*
X132642000Y-55342982D01*
X132592348Y-55296356D01*
X132589507Y-55293602D01*
X132569770Y-55273865D01*
X132566573Y-55271385D01*
X132557551Y-55263680D01*
X132544116Y-55251064D01*
X132525321Y-55233414D01*
X132518375Y-55229595D01*
X132518372Y-55229593D01*
X132507566Y-55223652D01*
X132491047Y-55212801D01*
X132486478Y-55209257D01*
X132475041Y-55200386D01*
X132467772Y-55197241D01*
X132467768Y-55197238D01*
X132434463Y-55182826D01*
X132423813Y-55177609D01*
X132385060Y-55156305D01*
X132365437Y-55151267D01*
X132346734Y-55144863D01*
X132335420Y-55139967D01*
X132335419Y-55139967D01*
X132328145Y-55136819D01*
X132320322Y-55135580D01*
X132320312Y-55135577D01*
X132284476Y-55129901D01*
X132272856Y-55127495D01*
X132237711Y-55118472D01*
X132237710Y-55118472D01*
X132230030Y-55116500D01*
X132209776Y-55116500D01*
X132190065Y-55114949D01*
X132177886Y-55113020D01*
X132170057Y-55111780D01*
X132140786Y-55114547D01*
X132126039Y-55115941D01*
X132114181Y-55116500D01*
X129578767Y-55116500D01*
X129567584Y-55115973D01*
X129560091Y-55114298D01*
X129552165Y-55114547D01*
X129552164Y-55114547D01*
X129492014Y-55116438D01*
X129488055Y-55116500D01*
X129460144Y-55116500D01*
X129456210Y-55116997D01*
X129456209Y-55116997D01*
X129456144Y-55117005D01*
X129444307Y-55117938D01*
X129412490Y-55118938D01*
X129408029Y-55119078D01*
X129400110Y-55119327D01*
X129382454Y-55124456D01*
X129380658Y-55124978D01*
X129361306Y-55128986D01*
X129354235Y-55129880D01*
X129341203Y-55131526D01*
X129333834Y-55134443D01*
X129333832Y-55134444D01*
X129300097Y-55147800D01*
X129288869Y-55151645D01*
X129246407Y-55163982D01*
X129239585Y-55168016D01*
X129239579Y-55168019D01*
X129228968Y-55174294D01*
X129211218Y-55182990D01*
X129199756Y-55187528D01*
X129199751Y-55187531D01*
X129192383Y-55190448D01*
X129174970Y-55203099D01*
X129156625Y-55216427D01*
X129146707Y-55222943D01*
X129135463Y-55229593D01*
X129108637Y-55245458D01*
X129094313Y-55259782D01*
X129079281Y-55272621D01*
X129062893Y-55284528D01*
X129034712Y-55318593D01*
X129026722Y-55327373D01*
X126957747Y-57396348D01*
X126949461Y-57403888D01*
X126942982Y-57408000D01*
X126937557Y-57413777D01*
X126896357Y-57457651D01*
X126893602Y-57460493D01*
X126873865Y-57480230D01*
X126871385Y-57483427D01*
X126863682Y-57492447D01*
X126833414Y-57524679D01*
X126829595Y-57531625D01*
X126829593Y-57531628D01*
X126823652Y-57542434D01*
X126812801Y-57558953D01*
X126800386Y-57574959D01*
X126797241Y-57582228D01*
X126797238Y-57582232D01*
X126782826Y-57615537D01*
X126777609Y-57626187D01*
X126756305Y-57664940D01*
X126754334Y-57672615D01*
X126754334Y-57672616D01*
X126751267Y-57684562D01*
X126744863Y-57703266D01*
X126736819Y-57721855D01*
X126735580Y-57729678D01*
X126735577Y-57729688D01*
X126729901Y-57765524D01*
X126727495Y-57777144D01*
X126716500Y-57819970D01*
X126716500Y-57840224D01*
X126714949Y-57859934D01*
X126711780Y-57879943D01*
X126008501Y-57879943D01*
X126008501Y-53558600D01*
X126008503Y-53557856D01*
X126008509Y-53556840D01*
X126008546Y-53554461D01*
X126008620Y-53551463D01*
X126011644Y-53429520D01*
X126011950Y-53423328D01*
X126020619Y-53306810D01*
X126021232Y-53300641D01*
X126028413Y-53242826D01*
X126035578Y-53185147D01*
X126036490Y-53179033D01*
X126038606Y-53166909D01*
X126056434Y-53064731D01*
X126057644Y-53058675D01*
X126083111Y-52945735D01*
X126084613Y-52939759D01*
X126115520Y-52828384D01*
X126117304Y-52822516D01*
X126153578Y-52712881D01*
X126155639Y-52707126D01*
X126174031Y-52659471D01*
X126197191Y-52599461D01*
X126199536Y-52593800D01*
X126216562Y-52555374D01*
X126246281Y-52488298D01*
X126248908Y-52482740D01*
X126300774Y-52379581D01*
X126303671Y-52374153D01*
X126307728Y-52366981D01*
X126360562Y-52273560D01*
X126363717Y-52268286D01*
X126425568Y-52170420D01*
X126428995Y-52165282D01*
X126495721Y-52070351D01*
X126499405Y-52065375D01*
X126570933Y-51973555D01*
X126574846Y-51968778D01*
X126651114Y-51880250D01*
X126655278Y-51875652D01*
X126667067Y-51863264D01*
X126725104Y-51802276D01*
X126734117Y-51793698D01*
X126765807Y-51766392D01*
X126770689Y-51758859D01*
X126773401Y-51755751D01*
X126781488Y-51747306D01*
X126812685Y-51717617D01*
X126825641Y-51705288D01*
X126830245Y-51701118D01*
X126918777Y-51624848D01*
X126923576Y-51620916D01*
X127015368Y-51549409D01*
X127020346Y-51545724D01*
X127096059Y-51492507D01*
X127115284Y-51478994D01*
X127120416Y-51475572D01*
X127218288Y-51413716D01*
X127223550Y-51410567D01*
X127324182Y-51353655D01*
X127329600Y-51350764D01*
X127432732Y-51298911D01*
X127438289Y-51296284D01*
X127458776Y-51287207D01*
X127543800Y-51249535D01*
X127549462Y-51247190D01*
X127549478Y-51247184D01*
X127657140Y-51205634D01*
X127662911Y-51203567D01*
X127693591Y-51193416D01*
X127772517Y-51167303D01*
X127778402Y-51165514D01*
X127889764Y-51134610D01*
X127895742Y-51133108D01*
X128008661Y-51107647D01*
X128014717Y-51106436D01*
X128050073Y-51100267D01*
X128129056Y-51086485D01*
X128135158Y-51085575D01*
X128176652Y-51080421D01*
X128250629Y-51071232D01*
X128256811Y-51070618D01*
X128276374Y-51069162D01*
X128373346Y-51061948D01*
X128379532Y-51061642D01*
X128504718Y-51058539D01*
X128507841Y-51058500D01*
X133873683Y-51058500D01*
X133941804Y-51078502D01*
G37*
%TD.AperFunction*%
%TD*%
M02*
