%TF.GenerationSoftware,KiCad,Pcbnew,6.0.10+dfsg-1~bpo11+1*%
%TF.CreationDate,2023-01-29T22:58:33-06:00*%
%TF.ProjectId,hall_pcb,68616c6c-5f70-4636-922e-6b696361645f,rev?*%
%TF.SameCoordinates,Original*%
%TF.FileFunction,Legend,Bot*%
%TF.FilePolarity,Positive*%
%FSLAX46Y46*%
G04 Gerber Fmt 4.6, Leading zero omitted, Abs format (unit mm)*
G04 Created by KiCad (PCBNEW 6.0.10+dfsg-1~bpo11+1) date 2023-01-29 22:58:33*
%MOMM*%
%LPD*%
G01*
G04 APERTURE LIST*
%ADD10C,0.150000*%
%ADD11C,0.120000*%
G04 APERTURE END LIST*
D10*
%TO.C,J1*%
X135533333Y-55452380D02*
X135533333Y-56166666D01*
X135580952Y-56309523D01*
X135676190Y-56404761D01*
X135819047Y-56452380D01*
X135914285Y-56452380D01*
X134533333Y-56452380D02*
X135104761Y-56452380D01*
X134819047Y-56452380D02*
X134819047Y-55452380D01*
X134914285Y-55595238D01*
X135009523Y-55690476D01*
X135104761Y-55738095D01*
D11*
X130090000Y-57090000D02*
X140310000Y-57090000D01*
X139810000Y-58800000D02*
X139810000Y-57590000D01*
X140310000Y-58800000D02*
X139810000Y-58800000D01*
X140310000Y-59610000D02*
X139310000Y-59610000D01*
X130590000Y-57590000D02*
X130590000Y-58800000D01*
X140310000Y-57090000D02*
X140310000Y-61110000D01*
X140310000Y-61110000D02*
X130090000Y-61110000D01*
X130090000Y-59610000D02*
X131090000Y-59610000D01*
X140610000Y-58910000D02*
X140610000Y-61410000D01*
X140610000Y-61410000D02*
X138110000Y-61410000D01*
X131090000Y-59610000D02*
X131090000Y-61110000D01*
X130090000Y-61110000D02*
X130090000Y-57090000D01*
X130590000Y-58800000D02*
X130090000Y-58800000D01*
X139310000Y-59610000D02*
X139310000Y-61110000D01*
X139810000Y-57590000D02*
X130590000Y-57590000D01*
%TD*%
M02*
