%TF.GenerationSoftware,KiCad,Pcbnew,6.0.9+dfsg-1~bpo11+1*%
%TF.CreationDate,2022-12-30T22:29:48-06:00*%
%TF.ProjectId,Modular,4d6f6475-6c61-4722-9e6b-696361645f70,rev?*%
%TF.SameCoordinates,Original*%
%TF.FileFunction,Soldermask,Top*%
%TF.FilePolarity,Negative*%
%FSLAX46Y46*%
G04 Gerber Fmt 4.6, Leading zero omitted, Abs format (unit mm)*
G04 Created by KiCad (PCBNEW 6.0.9+dfsg-1~bpo11+1) date 2022-12-30 22:29:48*
%MOMM*%
%LPD*%
G01*
G04 APERTURE LIST*
G04 Aperture macros list*
%AMRoundRect*
0 Rectangle with rounded corners*
0 $1 Rounding radius*
0 $2 $3 $4 $5 $6 $7 $8 $9 X,Y pos of 4 corners*
0 Add a 4 corners polygon primitive as box body*
4,1,4,$2,$3,$4,$5,$6,$7,$8,$9,$2,$3,0*
0 Add four circle primitives for the rounded corners*
1,1,$1+$1,$2,$3*
1,1,$1+$1,$4,$5*
1,1,$1+$1,$6,$7*
1,1,$1+$1,$8,$9*
0 Add four rect primitives between the rounded corners*
20,1,$1+$1,$2,$3,$4,$5,0*
20,1,$1+$1,$4,$5,$6,$7,0*
20,1,$1+$1,$6,$7,$8,$9,0*
20,1,$1+$1,$8,$9,$2,$3,0*%
G04 Aperture macros list end*
%ADD10R,2.800000X1.000000*%
%ADD11R,1.500000X0.900000*%
%ADD12R,0.900000X1.500000*%
%ADD13R,0.900000X0.900000*%
%ADD14R,2.000000X1.500000*%
%ADD15R,2.000000X3.800000*%
%ADD16RoundRect,0.250000X0.450000X-0.350000X0.450000X0.350000X-0.450000X0.350000X-0.450000X-0.350000X0*%
%ADD17C,3.250000*%
%ADD18R,1.500000X1.500000*%
%ADD19C,1.500000*%
%ADD20C,2.300000*%
%ADD21C,0.600000*%
%ADD22R,1.160000X0.600000*%
%ADD23R,1.160000X0.300000*%
%ADD24O,1.700000X0.900000*%
%ADD25O,2.000000X0.900000*%
%ADD26RoundRect,0.125000X-0.175000X0.125000X-0.175000X-0.125000X0.175000X-0.125000X0.175000X0.125000X0*%
%ADD27RoundRect,0.250000X-1.450000X0.400000X-1.450000X-0.400000X1.450000X-0.400000X1.450000X0.400000X0*%
%ADD28R,3.000000X3.000000*%
%ADD29C,3.000000*%
%ADD30RoundRect,0.250000X0.475000X-0.337500X0.475000X0.337500X-0.475000X0.337500X-0.475000X-0.337500X0*%
%ADD31RoundRect,0.250000X-0.475000X0.337500X-0.475000X-0.337500X0.475000X-0.337500X0.475000X0.337500X0*%
%ADD32RoundRect,0.250000X0.450000X-0.325000X0.450000X0.325000X-0.450000X0.325000X-0.450000X-0.325000X0*%
%ADD33RoundRect,0.125000X0.175000X-0.125000X0.175000X0.125000X-0.175000X0.125000X-0.175000X-0.125000X0*%
%ADD34R,1.700000X1.700000*%
%ADD35O,1.700000X1.700000*%
G04 APERTURE END LIST*
D10*
%TO.C,RST1*%
X114900000Y-112000000D03*
X109100000Y-112000000D03*
X114900000Y-108000000D03*
X109100000Y-108000000D03*
%TD*%
D11*
%TO.C,U1*%
X131250000Y-113740000D03*
X131250000Y-115010000D03*
X131250000Y-116280000D03*
X131250000Y-117550000D03*
X131250000Y-118820000D03*
X131250000Y-120090000D03*
X131250000Y-121360000D03*
X131250000Y-122630000D03*
X131250000Y-123900000D03*
X131250000Y-125170000D03*
X131250000Y-126440000D03*
X131250000Y-127710000D03*
X131250000Y-128980000D03*
X131250000Y-130250000D03*
D12*
X133015000Y-131500000D03*
X134285000Y-131500000D03*
X135555000Y-131500000D03*
X136825000Y-131500000D03*
X138095000Y-131500000D03*
X139365000Y-131500000D03*
X140635000Y-131500000D03*
X141905000Y-131500000D03*
X143175000Y-131500000D03*
X144445000Y-131500000D03*
X145715000Y-131500000D03*
X146985000Y-131500000D03*
D11*
X148750000Y-130250000D03*
X148750000Y-128980000D03*
X148750000Y-127710000D03*
X148750000Y-126440000D03*
X148750000Y-125170000D03*
X148750000Y-123900000D03*
X148750000Y-122630000D03*
X148750000Y-121360000D03*
X148750000Y-120090000D03*
X148750000Y-118820000D03*
X148750000Y-117550000D03*
X148750000Y-116280000D03*
X148750000Y-115010000D03*
X148750000Y-113740000D03*
D13*
X137100000Y-120060000D03*
X139900000Y-120060000D03*
X137100000Y-121460000D03*
X138500000Y-121460000D03*
X137100000Y-122860000D03*
X138500000Y-122860000D03*
X139900000Y-122860000D03*
X138500000Y-120060000D03*
X139900000Y-121460000D03*
%TD*%
D14*
%TO.C,U2*%
X100350000Y-124200000D03*
X100350000Y-126500000D03*
D15*
X106650000Y-126500000D03*
D14*
X100350000Y-128800000D03*
%TD*%
D16*
%TO.C,R1*%
X127300000Y-118080000D03*
X127300000Y-116080000D03*
%TD*%
D10*
%TO.C,BOOT1*%
X104900000Y-112000000D03*
X99100000Y-112000000D03*
X99100000Y-108000000D03*
X104900000Y-108000000D03*
%TD*%
D17*
%TO.C,J5*%
X133400000Y-147415000D03*
X146100000Y-147415000D03*
D18*
X143310000Y-144875000D03*
D19*
X142294000Y-143095000D03*
X141278000Y-144875000D03*
X140262000Y-143095000D03*
X139246000Y-144875000D03*
X138230000Y-143095000D03*
X137214000Y-144875000D03*
X136198000Y-143095000D03*
X146610000Y-138275000D03*
X144320000Y-138275000D03*
X135180000Y-138275000D03*
X132890000Y-138275000D03*
D20*
X147880000Y-143985000D03*
X131620000Y-143985000D03*
%TD*%
D21*
%TO.C,P1*%
X88450000Y-118390000D03*
X88450000Y-112610000D03*
D22*
X89510000Y-112300000D03*
X89510000Y-113100000D03*
D23*
X89510000Y-114250000D03*
X89510000Y-115250000D03*
X89510000Y-115750000D03*
X89510000Y-116750000D03*
D22*
X89510000Y-117900000D03*
X89510000Y-118700000D03*
X89510000Y-118700000D03*
X89510000Y-117900000D03*
D23*
X89510000Y-117250000D03*
X89510000Y-116250000D03*
X89510000Y-114750000D03*
X89510000Y-113750000D03*
D22*
X89510000Y-113100000D03*
X89510000Y-112300000D03*
D24*
X84760000Y-119820000D03*
D25*
X88930000Y-119820000D03*
X88930000Y-111180000D03*
D24*
X84760000Y-111180000D03*
%TD*%
D26*
%TO.C,D2*%
X94000000Y-115850000D03*
X94000000Y-118150000D03*
%TD*%
D27*
%TO.C,F1*%
X95350000Y-124075000D03*
X95350000Y-128525000D03*
%TD*%
D17*
%TO.C,J6*%
X163915000Y-138650000D03*
X163915000Y-151350000D03*
D18*
X161375000Y-141440000D03*
D19*
X159595000Y-142456000D03*
X161375000Y-143472000D03*
X159595000Y-144488000D03*
X161375000Y-145504000D03*
X159595000Y-146520000D03*
X161375000Y-147536000D03*
X159595000Y-148552000D03*
X154775000Y-138140000D03*
X154775000Y-140430000D03*
X154775000Y-149570000D03*
X154775000Y-151860000D03*
D20*
X160485000Y-153130000D03*
X160485000Y-136870000D03*
%TD*%
D28*
%TO.C,J2*%
X86000000Y-125500000D03*
D29*
X86000000Y-130580000D03*
%TD*%
D30*
%TO.C,C3*%
X120188000Y-113537500D03*
X120188000Y-111462500D03*
%TD*%
D31*
%TO.C,C6*%
X106548000Y-131050500D03*
X106548000Y-133125500D03*
%TD*%
%TO.C,C5*%
X100452000Y-131072000D03*
X100452000Y-133147000D03*
%TD*%
D17*
%TO.C,J4*%
X122225000Y-147415000D03*
X109525000Y-147415000D03*
D18*
X119435000Y-144875000D03*
D19*
X118419000Y-143095000D03*
X117403000Y-144875000D03*
X116387000Y-143095000D03*
X115371000Y-144875000D03*
X114355000Y-143095000D03*
X113339000Y-144875000D03*
X112323000Y-143095000D03*
X122735000Y-138275000D03*
X120445000Y-138275000D03*
X111305000Y-138275000D03*
X109015000Y-138275000D03*
D20*
X107745000Y-143985000D03*
X124005000Y-143985000D03*
%TD*%
D17*
%TO.C,J7*%
X85650000Y-147415000D03*
X98350000Y-147415000D03*
D18*
X95560000Y-144875000D03*
D19*
X94544000Y-143095000D03*
X93528000Y-144875000D03*
X92512000Y-143095000D03*
X91496000Y-144875000D03*
X90480000Y-143095000D03*
X89464000Y-144875000D03*
X88448000Y-143095000D03*
X98860000Y-138275000D03*
X96570000Y-138275000D03*
X87430000Y-138275000D03*
X85140000Y-138275000D03*
D20*
X100130000Y-143985000D03*
X83870000Y-143985000D03*
%TD*%
D32*
%TO.C,D3*%
X120250000Y-124525000D03*
X120250000Y-122475000D03*
%TD*%
D31*
%TO.C,C4*%
X120188000Y-116026500D03*
X120188000Y-118101500D03*
%TD*%
D33*
%TO.C,D1*%
X94000000Y-115150000D03*
X94000000Y-112850000D03*
%TD*%
D30*
%TO.C,C1*%
X127300000Y-113537500D03*
X127300000Y-111462500D03*
%TD*%
%TO.C,C2*%
X123744000Y-113537500D03*
X123744000Y-111462500D03*
%TD*%
D34*
%TO.C,J1*%
X160250000Y-110000000D03*
D35*
X162790000Y-110000000D03*
X165330000Y-110000000D03*
X167870000Y-110000000D03*
%TD*%
D17*
%TO.C,J3*%
X163915000Y-129850000D03*
X163915000Y-117150000D03*
D18*
X161375000Y-119940000D03*
D19*
X159595000Y-120956000D03*
X161375000Y-121972000D03*
X159595000Y-122988000D03*
X161375000Y-124004000D03*
X159595000Y-125020000D03*
X161375000Y-126036000D03*
X159595000Y-127052000D03*
X154775000Y-116640000D03*
X154775000Y-118930000D03*
X154775000Y-128070000D03*
X154775000Y-130360000D03*
D20*
X160485000Y-115370000D03*
X160485000Y-131630000D03*
%TD*%
D16*
%TO.C,R2*%
X123744000Y-118064000D03*
X123744000Y-116064000D03*
%TD*%
M02*
