%TF.GenerationSoftware,KiCad,Pcbnew,6.0.9+dfsg-1~bpo11+1*%
%TF.CreationDate,2022-12-30T22:29:48-06:00*%
%TF.ProjectId,Modular,4d6f6475-6c61-4722-9e6b-696361645f70,rev?*%
%TF.SameCoordinates,Original*%
%TF.FileFunction,Paste,Top*%
%TF.FilePolarity,Positive*%
%FSLAX46Y46*%
G04 Gerber Fmt 4.6, Leading zero omitted, Abs format (unit mm)*
G04 Created by KiCad (PCBNEW 6.0.9+dfsg-1~bpo11+1) date 2022-12-30 22:29:48*
%MOMM*%
%LPD*%
G01*
G04 APERTURE LIST*
G04 Aperture macros list*
%AMRoundRect*
0 Rectangle with rounded corners*
0 $1 Rounding radius*
0 $2 $3 $4 $5 $6 $7 $8 $9 X,Y pos of 4 corners*
0 Add a 4 corners polygon primitive as box body*
4,1,4,$2,$3,$4,$5,$6,$7,$8,$9,$2,$3,0*
0 Add four circle primitives for the rounded corners*
1,1,$1+$1,$2,$3*
1,1,$1+$1,$4,$5*
1,1,$1+$1,$6,$7*
1,1,$1+$1,$8,$9*
0 Add four rect primitives between the rounded corners*
20,1,$1+$1,$2,$3,$4,$5,0*
20,1,$1+$1,$4,$5,$6,$7,0*
20,1,$1+$1,$6,$7,$8,$9,0*
20,1,$1+$1,$8,$9,$2,$3,0*%
G04 Aperture macros list end*
%ADD10R,2.800000X1.000000*%
%ADD11R,1.500000X0.900000*%
%ADD12R,0.900000X1.500000*%
%ADD13R,0.900000X0.900000*%
%ADD14R,2.000000X1.500000*%
%ADD15R,2.000000X3.800000*%
%ADD16RoundRect,0.250000X0.450000X-0.350000X0.450000X0.350000X-0.450000X0.350000X-0.450000X-0.350000X0*%
%ADD17R,1.160000X0.600000*%
%ADD18R,1.160000X0.300000*%
%ADD19RoundRect,0.125000X-0.175000X0.125000X-0.175000X-0.125000X0.175000X-0.125000X0.175000X0.125000X0*%
%ADD20RoundRect,0.250000X-1.450000X0.400000X-1.450000X-0.400000X1.450000X-0.400000X1.450000X0.400000X0*%
%ADD21RoundRect,0.250000X0.475000X-0.337500X0.475000X0.337500X-0.475000X0.337500X-0.475000X-0.337500X0*%
%ADD22RoundRect,0.250000X-0.475000X0.337500X-0.475000X-0.337500X0.475000X-0.337500X0.475000X0.337500X0*%
%ADD23RoundRect,0.250000X0.450000X-0.325000X0.450000X0.325000X-0.450000X0.325000X-0.450000X-0.325000X0*%
%ADD24RoundRect,0.125000X0.175000X-0.125000X0.175000X0.125000X-0.175000X0.125000X-0.175000X-0.125000X0*%
G04 APERTURE END LIST*
D10*
%TO.C,RST1*%
X114900000Y-112000000D03*
X109100000Y-112000000D03*
X114900000Y-108000000D03*
X109100000Y-108000000D03*
%TD*%
D11*
%TO.C,U1*%
X131250000Y-113740000D03*
X131250000Y-115010000D03*
X131250000Y-116280000D03*
X131250000Y-117550000D03*
X131250000Y-118820000D03*
X131250000Y-120090000D03*
X131250000Y-121360000D03*
X131250000Y-122630000D03*
X131250000Y-123900000D03*
X131250000Y-125170000D03*
X131250000Y-126440000D03*
X131250000Y-127710000D03*
X131250000Y-128980000D03*
X131250000Y-130250000D03*
D12*
X133015000Y-131500000D03*
X134285000Y-131500000D03*
X135555000Y-131500000D03*
X136825000Y-131500000D03*
X138095000Y-131500000D03*
X139365000Y-131500000D03*
X140635000Y-131500000D03*
X141905000Y-131500000D03*
X143175000Y-131500000D03*
X144445000Y-131500000D03*
X145715000Y-131500000D03*
X146985000Y-131500000D03*
D11*
X148750000Y-130250000D03*
X148750000Y-128980000D03*
X148750000Y-127710000D03*
X148750000Y-126440000D03*
X148750000Y-125170000D03*
X148750000Y-123900000D03*
X148750000Y-122630000D03*
X148750000Y-121360000D03*
X148750000Y-120090000D03*
X148750000Y-118820000D03*
X148750000Y-117550000D03*
X148750000Y-116280000D03*
X148750000Y-115010000D03*
X148750000Y-113740000D03*
D13*
X137100000Y-120060000D03*
X139900000Y-120060000D03*
X137100000Y-121460000D03*
X138500000Y-121460000D03*
X137100000Y-122860000D03*
X138500000Y-122860000D03*
X139900000Y-122860000D03*
X138500000Y-120060000D03*
X139900000Y-121460000D03*
%TD*%
D14*
%TO.C,U2*%
X100350000Y-124200000D03*
X100350000Y-126500000D03*
D15*
X106650000Y-126500000D03*
D14*
X100350000Y-128800000D03*
%TD*%
D16*
%TO.C,R1*%
X127300000Y-118080000D03*
X127300000Y-116080000D03*
%TD*%
D10*
%TO.C,BOOT1*%
X104900000Y-112000000D03*
X99100000Y-112000000D03*
X99100000Y-108000000D03*
X104900000Y-108000000D03*
%TD*%
D17*
%TO.C,P1*%
X89510000Y-112300000D03*
X89510000Y-113100000D03*
D18*
X89510000Y-114250000D03*
X89510000Y-115250000D03*
X89510000Y-115750000D03*
X89510000Y-116750000D03*
D17*
X89510000Y-117900000D03*
X89510000Y-118700000D03*
X89510000Y-118700000D03*
X89510000Y-117900000D03*
D18*
X89510000Y-117250000D03*
X89510000Y-116250000D03*
X89510000Y-114750000D03*
X89510000Y-113750000D03*
D17*
X89510000Y-113100000D03*
X89510000Y-112300000D03*
%TD*%
D19*
%TO.C,D2*%
X94000000Y-115850000D03*
X94000000Y-118150000D03*
%TD*%
D20*
%TO.C,F1*%
X95350000Y-124075000D03*
X95350000Y-128525000D03*
%TD*%
D21*
%TO.C,C3*%
X120188000Y-113537500D03*
X120188000Y-111462500D03*
%TD*%
D22*
%TO.C,C6*%
X106548000Y-131050500D03*
X106548000Y-133125500D03*
%TD*%
%TO.C,C5*%
X100452000Y-131072000D03*
X100452000Y-133147000D03*
%TD*%
D23*
%TO.C,D3*%
X120250000Y-124525000D03*
X120250000Y-122475000D03*
%TD*%
D22*
%TO.C,C4*%
X120188000Y-116026500D03*
X120188000Y-118101500D03*
%TD*%
D24*
%TO.C,D1*%
X94000000Y-115150000D03*
X94000000Y-112850000D03*
%TD*%
D21*
%TO.C,C1*%
X127300000Y-113537500D03*
X127300000Y-111462500D03*
%TD*%
%TO.C,C2*%
X123744000Y-113537500D03*
X123744000Y-111462500D03*
%TD*%
D16*
%TO.C,R2*%
X123744000Y-118064000D03*
X123744000Y-116064000D03*
%TD*%
M02*
