%TF.GenerationSoftware,KiCad,Pcbnew,6.0.9+dfsg-1~bpo11+1*%
%TF.CreationDate,2022-12-31T19:32:48-06:00*%
%TF.ProjectId,Modular,4d6f6475-6c61-4722-9e6b-696361645f70,rev?*%
%TF.SameCoordinates,Original*%
%TF.FileFunction,Copper,L4,Bot*%
%TF.FilePolarity,Positive*%
%FSLAX46Y46*%
G04 Gerber Fmt 4.6, Leading zero omitted, Abs format (unit mm)*
G04 Created by KiCad (PCBNEW 6.0.9+dfsg-1~bpo11+1) date 2022-12-31 19:32:48*
%MOMM*%
%LPD*%
G01*
G04 APERTURE LIST*
%TA.AperFunction,ComponentPad*%
%ADD10R,1.500000X1.500000*%
%TD*%
%TA.AperFunction,ComponentPad*%
%ADD11C,1.500000*%
%TD*%
%TA.AperFunction,ComponentPad*%
%ADD12C,2.300000*%
%TD*%
%TA.AperFunction,ComponentPad*%
%ADD13R,3.000000X3.000000*%
%TD*%
%TA.AperFunction,ComponentPad*%
%ADD14C,3.000000*%
%TD*%
%TA.AperFunction,ComponentPad*%
%ADD15R,1.700000X1.700000*%
%TD*%
%TA.AperFunction,ComponentPad*%
%ADD16O,1.700000X1.700000*%
%TD*%
%TA.AperFunction,ViaPad*%
%ADD17C,0.800000*%
%TD*%
%TA.AperFunction,ViaPad*%
%ADD18C,1.500000*%
%TD*%
%TA.AperFunction,Conductor*%
%ADD19C,0.800000*%
%TD*%
G04 APERTURE END LIST*
D10*
%TO.P,J6,1*%
%TO.N,GNDREF*%
X143310000Y-144875000D03*
D11*
%TO.P,J6,2*%
%TO.N,/MOSI*%
X142294000Y-143095000D03*
%TO.P,J6,3*%
%TO.N,unconnected-(J6-Pad3)*%
X141278000Y-144875000D03*
%TO.P,J6,4*%
%TO.N,/MISO*%
X140262000Y-143095000D03*
%TO.P,J6,5*%
%TO.N,unconnected-(J6-Pad5)*%
X139246000Y-144875000D03*
%TO.P,J6,6*%
%TO.N,/CS_PDL*%
X138230000Y-143095000D03*
%TO.P,J6,7*%
%TO.N,+5V*%
X137214000Y-144875000D03*
%TO.P,J6,8*%
%TO.N,/SCLK*%
X136198000Y-143095000D03*
%TO.P,J6,9*%
%TO.N,unconnected-(J6-Pad9)*%
X146610000Y-138275000D03*
%TO.P,J6,10*%
%TO.N,unconnected-(J6-Pad10)*%
X144320000Y-138275000D03*
%TO.P,J6,11*%
%TO.N,unconnected-(J6-Pad11)*%
X135180000Y-138275000D03*
%TO.P,J6,12*%
%TO.N,unconnected-(J6-Pad12)*%
X132890000Y-138275000D03*
D12*
%TO.P,J6,SH*%
%TO.N,N/C*%
X147880000Y-143985000D03*
X131620000Y-143985000D03*
%TD*%
D10*
%TO.P,J7,1*%
%TO.N,GNDREF*%
X161375000Y-141440000D03*
D11*
%TO.P,J7,2*%
%TO.N,/MOSI*%
X159595000Y-142456000D03*
%TO.P,J7,3*%
%TO.N,unconnected-(J7-Pad3)*%
X161375000Y-143472000D03*
%TO.P,J7,4*%
%TO.N,/MISO*%
X159595000Y-144488000D03*
%TO.P,J7,5*%
%TO.N,unconnected-(J7-Pad5)*%
X161375000Y-145504000D03*
%TO.P,J7,6*%
%TO.N,/CS_SHIF*%
X159595000Y-146520000D03*
%TO.P,J7,7*%
%TO.N,+5V*%
X161375000Y-147536000D03*
%TO.P,J7,8*%
%TO.N,/SCLK*%
X159595000Y-148552000D03*
%TO.P,J7,9*%
%TO.N,unconnected-(J7-Pad9)*%
X154775000Y-138140000D03*
%TO.P,J7,10*%
%TO.N,unconnected-(J7-Pad10)*%
X154775000Y-140430000D03*
%TO.P,J7,11*%
%TO.N,unconnected-(J7-Pad11)*%
X154775000Y-149570000D03*
%TO.P,J7,12*%
%TO.N,unconnected-(J7-Pad12)*%
X154775000Y-151860000D03*
D12*
%TO.P,J7,SH*%
%TO.N,N/C*%
X160485000Y-153130000D03*
X160485000Y-136870000D03*
%TD*%
D13*
%TO.P,J3,1,Pin_1*%
%TO.N,GNDREF*%
X86000000Y-125500000D03*
D14*
%TO.P,J3,2,Pin_2*%
%TO.N,Net-(J3-Pad2)*%
X86000000Y-130580000D03*
%TD*%
D10*
%TO.P,J5,1*%
%TO.N,GNDREF*%
X119435000Y-144875000D03*
D11*
%TO.P,J5,2*%
%TO.N,/MOSI*%
X118419000Y-143095000D03*
%TO.P,J5,3*%
%TO.N,unconnected-(J5-Pad3)*%
X117403000Y-144875000D03*
%TO.P,J5,4*%
%TO.N,/MISO*%
X116387000Y-143095000D03*
%TO.P,J5,5*%
%TO.N,unconnected-(J5-Pad5)*%
X115371000Y-144875000D03*
%TO.P,J5,6*%
%TO.N,/CS_SWF*%
X114355000Y-143095000D03*
%TO.P,J5,7*%
%TO.N,+5V*%
X113339000Y-144875000D03*
%TO.P,J5,8*%
%TO.N,/SCLK*%
X112323000Y-143095000D03*
%TO.P,J5,9*%
%TO.N,unconnected-(J5-Pad9)*%
X122735000Y-138275000D03*
%TO.P,J5,10*%
%TO.N,unconnected-(J5-Pad10)*%
X120445000Y-138275000D03*
%TO.P,J5,11*%
%TO.N,unconnected-(J5-Pad11)*%
X111305000Y-138275000D03*
%TO.P,J5,12*%
%TO.N,unconnected-(J5-Pad12)*%
X109015000Y-138275000D03*
D12*
%TO.P,J5,SH*%
%TO.N,N/C*%
X107745000Y-143985000D03*
X124005000Y-143985000D03*
%TD*%
D10*
%TO.P,J8,1*%
%TO.N,GNDREF*%
X95560000Y-144875000D03*
D11*
%TO.P,J8,2*%
%TO.N,/MOSI*%
X94544000Y-143095000D03*
%TO.P,J8,3*%
%TO.N,unconnected-(J8-Pad3)*%
X93528000Y-144875000D03*
%TO.P,J8,4*%
%TO.N,/MISO*%
X92512000Y-143095000D03*
%TO.P,J8,5*%
%TO.N,unconnected-(J8-Pad5)*%
X91496000Y-144875000D03*
%TO.P,J8,6*%
%TO.N,/CS_A2*%
X90480000Y-143095000D03*
%TO.P,J8,7*%
%TO.N,+5V*%
X89464000Y-144875000D03*
%TO.P,J8,8*%
%TO.N,/SCLK*%
X88448000Y-143095000D03*
%TO.P,J8,9*%
%TO.N,unconnected-(J8-Pad9)*%
X98860000Y-138275000D03*
%TO.P,J8,10*%
%TO.N,unconnected-(J8-Pad10)*%
X96570000Y-138275000D03*
%TO.P,J8,11*%
%TO.N,unconnected-(J8-Pad11)*%
X87430000Y-138275000D03*
%TO.P,J8,12*%
%TO.N,unconnected-(J8-Pad12)*%
X85140000Y-138275000D03*
D12*
%TO.P,J8,SH*%
%TO.N,N/C*%
X100130000Y-143985000D03*
X83870000Y-143985000D03*
%TD*%
D15*
%TO.P,J2,1,Pin_1*%
%TO.N,GNDREF*%
X160250000Y-110000000D03*
D16*
%TO.P,J2,2,Pin_2*%
%TO.N,/RX_ESP*%
X162790000Y-110000000D03*
%TO.P,J2,3,Pin_3*%
%TO.N,/TX_ESP*%
X165330000Y-110000000D03*
%TO.P,J2,4,Pin_4*%
%TO.N,+3.3V*%
X167870000Y-110000000D03*
%TD*%
D10*
%TO.P,J4,1*%
%TO.N,GNDREF*%
X161375000Y-119940000D03*
D11*
%TO.P,J4,2*%
%TO.N,/MOSI*%
X159595000Y-120956000D03*
%TO.P,J4,3*%
%TO.N,unconnected-(J4-Pad3)*%
X161375000Y-121972000D03*
%TO.P,J4,4*%
%TO.N,/MISO*%
X159595000Y-122988000D03*
%TO.P,J4,5*%
%TO.N,unconnected-(J4-Pad5)*%
X161375000Y-124004000D03*
%TO.P,J4,6*%
%TO.N,/CS_A1*%
X159595000Y-125020000D03*
%TO.P,J4,7*%
%TO.N,+5V*%
X161375000Y-126036000D03*
%TO.P,J4,8*%
%TO.N,/SCLK*%
X159595000Y-127052000D03*
%TO.P,J4,9*%
%TO.N,unconnected-(J4-Pad9)*%
X154775000Y-116640000D03*
%TO.P,J4,10*%
%TO.N,unconnected-(J4-Pad10)*%
X154775000Y-118930000D03*
%TO.P,J4,11*%
%TO.N,unconnected-(J4-Pad11)*%
X154775000Y-128070000D03*
%TO.P,J4,12*%
%TO.N,unconnected-(J4-Pad12)*%
X154775000Y-130360000D03*
D12*
%TO.P,J4,SH*%
%TO.N,N/C*%
X160485000Y-115370000D03*
X160485000Y-131630000D03*
%TD*%
D17*
%TO.N,+3.3V*%
X123500000Y-119814000D03*
X118250000Y-122250000D03*
X125250000Y-114750000D03*
X108500000Y-130500000D03*
%TO.N,/MOSI*%
X136500000Y-135500000D03*
%TO.N,/MISO*%
X137500000Y-138000000D03*
X135000000Y-141000000D03*
X149500000Y-142000000D03*
X141500000Y-138000000D03*
X111000000Y-141000000D03*
X143000000Y-135000000D03*
X137500000Y-141000000D03*
X113500000Y-141000000D03*
X152000000Y-141500000D03*
%TO.N,/SCLK*%
X139000000Y-133500000D03*
%TO.N,Net-(C3-Pad1)*%
X122000000Y-114750000D03*
X126750000Y-119750000D03*
%TO.N,/D+*%
X128300000Y-130000000D03*
X96000000Y-116000000D03*
%TO.N,/D-*%
X128300000Y-129100000D03*
X96000000Y-115000000D03*
D18*
%TO.N,+5V*%
X95000000Y-130500000D03*
D17*
%TO.N,/BOOT*%
X102000000Y-108000000D03*
X146500000Y-129500000D03*
%TD*%
D19*
%TO.N,+5V*%
X153000000Y-152500000D02*
X153000000Y-153000000D01*
X161375000Y-150125000D02*
X161375000Y-147536000D01*
X112000000Y-150000000D02*
X113339000Y-148661000D01*
X165536000Y-126036000D02*
X161375000Y-126036000D01*
X155500000Y-154000000D02*
X158500000Y-151000000D01*
X137214000Y-148286000D02*
X137214000Y-144875000D01*
X160500000Y-151000000D02*
X161375000Y-150125000D01*
X112000000Y-150000000D02*
X135500000Y-150000000D01*
X89464000Y-146964000D02*
X92500000Y-150000000D01*
X92500000Y-150000000D02*
X112000000Y-150000000D01*
X90000000Y-135500000D02*
X85500000Y-135500000D01*
X161375000Y-150125000D02*
X164000000Y-147500000D01*
X158500000Y-151000000D02*
X160500000Y-151000000D01*
X150500000Y-150000000D02*
X153000000Y-152500000D01*
X113339000Y-148661000D02*
X113339000Y-144875000D01*
X167000000Y-127500000D02*
X165536000Y-126036000D01*
X86000000Y-142000000D02*
X86000000Y-144000000D01*
X154000000Y-154000000D02*
X155500000Y-154000000D01*
X86875000Y-144875000D02*
X89464000Y-144875000D01*
X85500000Y-135500000D02*
X83500000Y-137500000D01*
X86000000Y-144000000D02*
X86875000Y-144875000D01*
X164000000Y-143500000D02*
X167000000Y-140500000D01*
X153000000Y-153000000D02*
X154000000Y-154000000D01*
X89464000Y-144875000D02*
X89464000Y-146964000D01*
X135500000Y-150000000D02*
X137214000Y-148286000D01*
X83500000Y-137500000D02*
X83500000Y-139500000D01*
X164000000Y-147500000D02*
X164000000Y-143500000D01*
X95000000Y-130500000D02*
X90000000Y-135500000D01*
X167000000Y-140500000D02*
X167000000Y-127500000D01*
X135500000Y-150000000D02*
X150500000Y-150000000D01*
X83500000Y-139500000D02*
X86000000Y-142000000D01*
%TD*%
%TA.AperFunction,Conductor*%
%TO.N,+3.3V*%
G36*
X110054462Y-101001003D02*
G01*
X128874818Y-101123213D01*
X128942808Y-101143657D01*
X128988951Y-101197613D01*
X129000000Y-101249210D01*
X129000000Y-112200000D01*
X151400000Y-112200000D01*
X151400000Y-110869748D01*
X159199500Y-110869748D01*
X159200707Y-110875816D01*
X159204331Y-110894033D01*
X159211133Y-110928231D01*
X159255448Y-110994552D01*
X159321769Y-111038867D01*
X159333938Y-111041288D01*
X159333939Y-111041288D01*
X159374184Y-111049293D01*
X159380252Y-111050500D01*
X161119748Y-111050500D01*
X161125816Y-111049293D01*
X161166061Y-111041288D01*
X161166062Y-111041288D01*
X161178231Y-111038867D01*
X161244552Y-110994552D01*
X161288867Y-110928231D01*
X161295670Y-110894033D01*
X161299293Y-110875816D01*
X161300500Y-110869748D01*
X161300500Y-109985262D01*
X161734520Y-109985262D01*
X161751759Y-110190553D01*
X161753458Y-110196478D01*
X161799395Y-110356678D01*
X161808544Y-110388586D01*
X161811359Y-110394063D01*
X161811360Y-110394066D01*
X161899897Y-110566341D01*
X161902712Y-110571818D01*
X162030677Y-110733270D01*
X162035370Y-110737264D01*
X162035371Y-110737265D01*
X162109541Y-110800388D01*
X162187564Y-110866791D01*
X162192942Y-110869797D01*
X162192944Y-110869798D01*
X162223387Y-110886812D01*
X162367398Y-110967297D01*
X162451280Y-110994552D01*
X162557471Y-111029056D01*
X162557475Y-111029057D01*
X162563329Y-111030959D01*
X162767894Y-111055351D01*
X162774029Y-111054879D01*
X162774031Y-111054879D01*
X162846625Y-111049293D01*
X162973300Y-111039546D01*
X162979230Y-111037890D01*
X162979232Y-111037890D01*
X163165797Y-110985800D01*
X163165796Y-110985800D01*
X163171725Y-110984145D01*
X163177214Y-110981372D01*
X163177220Y-110981370D01*
X163350116Y-110894033D01*
X163355610Y-110891258D01*
X163371345Y-110878965D01*
X163513101Y-110768213D01*
X163517951Y-110764424D01*
X163575992Y-110697183D01*
X163648540Y-110613134D01*
X163648540Y-110613133D01*
X163652564Y-110608472D01*
X163673387Y-110571818D01*
X163691056Y-110540714D01*
X163754323Y-110429344D01*
X163819351Y-110233863D01*
X163845171Y-110029474D01*
X163845583Y-110000000D01*
X163844138Y-109985262D01*
X164274520Y-109985262D01*
X164291759Y-110190553D01*
X164293458Y-110196478D01*
X164339395Y-110356678D01*
X164348544Y-110388586D01*
X164351359Y-110394063D01*
X164351360Y-110394066D01*
X164439897Y-110566341D01*
X164442712Y-110571818D01*
X164570677Y-110733270D01*
X164575370Y-110737264D01*
X164575371Y-110737265D01*
X164649541Y-110800388D01*
X164727564Y-110866791D01*
X164732942Y-110869797D01*
X164732944Y-110869798D01*
X164763387Y-110886812D01*
X164907398Y-110967297D01*
X164991280Y-110994552D01*
X165097471Y-111029056D01*
X165097475Y-111029057D01*
X165103329Y-111030959D01*
X165307894Y-111055351D01*
X165314029Y-111054879D01*
X165314031Y-111054879D01*
X165386625Y-111049293D01*
X165513300Y-111039546D01*
X165519230Y-111037890D01*
X165519232Y-111037890D01*
X165705797Y-110985800D01*
X165705796Y-110985800D01*
X165711725Y-110984145D01*
X165717214Y-110981372D01*
X165717220Y-110981370D01*
X165890116Y-110894033D01*
X165895610Y-110891258D01*
X165911345Y-110878965D01*
X166053101Y-110768213D01*
X166057951Y-110764424D01*
X166115992Y-110697183D01*
X166188540Y-110613134D01*
X166188540Y-110613133D01*
X166192564Y-110608472D01*
X166213387Y-110571818D01*
X166231056Y-110540714D01*
X166294323Y-110429344D01*
X166303271Y-110402444D01*
X166318496Y-110356678D01*
X166358978Y-110298354D01*
X166424566Y-110271175D01*
X166494437Y-110283770D01*
X166546406Y-110332141D01*
X166560971Y-110368751D01*
X166568564Y-110402444D01*
X166571645Y-110412275D01*
X166651770Y-110609603D01*
X166656413Y-110618794D01*
X166767694Y-110800388D01*
X166773777Y-110808699D01*
X166913213Y-110969667D01*
X166920580Y-110976883D01*
X167084434Y-111112916D01*
X167092881Y-111118831D01*
X167276756Y-111226279D01*
X167286042Y-111230729D01*
X167485001Y-111306703D01*
X167494899Y-111309579D01*
X167598250Y-111330606D01*
X167612299Y-111329410D01*
X167616000Y-111319065D01*
X167616000Y-111318517D01*
X168124000Y-111318517D01*
X168128064Y-111332359D01*
X168141478Y-111334393D01*
X168148184Y-111333534D01*
X168158262Y-111331392D01*
X168362255Y-111270191D01*
X168371842Y-111266433D01*
X168563095Y-111172739D01*
X168571945Y-111167464D01*
X168745328Y-111043792D01*
X168753200Y-111037139D01*
X168904052Y-110886812D01*
X168910730Y-110878965D01*
X169035003Y-110706020D01*
X169040313Y-110697183D01*
X169134670Y-110506267D01*
X169138469Y-110496672D01*
X169200377Y-110292910D01*
X169202555Y-110282837D01*
X169203986Y-110271962D01*
X169201775Y-110257778D01*
X169188617Y-110254000D01*
X168142115Y-110254000D01*
X168126876Y-110258475D01*
X168125671Y-110259865D01*
X168124000Y-110267548D01*
X168124000Y-111318517D01*
X167616000Y-111318517D01*
X167616000Y-109727885D01*
X168124000Y-109727885D01*
X168128475Y-109743124D01*
X168129865Y-109744329D01*
X168137548Y-109746000D01*
X169188344Y-109746000D01*
X169201875Y-109742027D01*
X169203180Y-109732947D01*
X169161214Y-109565875D01*
X169157894Y-109556124D01*
X169072972Y-109360814D01*
X169068105Y-109351739D01*
X168952426Y-109172926D01*
X168946136Y-109164757D01*
X168802806Y-109007240D01*
X168795273Y-109000215D01*
X168628139Y-108868222D01*
X168619552Y-108862517D01*
X168433117Y-108759599D01*
X168423705Y-108755369D01*
X168222959Y-108684280D01*
X168212988Y-108681646D01*
X168141837Y-108668972D01*
X168128540Y-108670432D01*
X168124000Y-108684989D01*
X168124000Y-109727885D01*
X167616000Y-109727885D01*
X167616000Y-108683102D01*
X167612082Y-108669758D01*
X167597806Y-108667771D01*
X167559324Y-108673660D01*
X167549288Y-108676051D01*
X167346868Y-108742212D01*
X167337359Y-108746209D01*
X167148463Y-108844542D01*
X167139738Y-108850036D01*
X166969433Y-108977905D01*
X166961726Y-108984748D01*
X166814590Y-109138717D01*
X166808104Y-109146727D01*
X166688098Y-109322649D01*
X166683000Y-109331623D01*
X166593338Y-109524783D01*
X166589775Y-109534470D01*
X166561012Y-109638185D01*
X166523533Y-109698483D01*
X166459405Y-109728946D01*
X166388986Y-109719903D01*
X166334636Y-109674224D01*
X166318973Y-109640933D01*
X166318143Y-109638185D01*
X166305935Y-109597749D01*
X166209218Y-109415849D01*
X166133206Y-109322649D01*
X166082906Y-109260975D01*
X166082903Y-109260972D01*
X166079011Y-109256200D01*
X166061786Y-109241950D01*
X165925025Y-109128811D01*
X165925021Y-109128809D01*
X165920275Y-109124882D01*
X165739055Y-109026897D01*
X165542254Y-108965977D01*
X165536129Y-108965333D01*
X165536128Y-108965333D01*
X165343498Y-108945087D01*
X165343496Y-108945087D01*
X165337369Y-108944443D01*
X165250529Y-108952346D01*
X165138342Y-108962555D01*
X165138339Y-108962556D01*
X165132203Y-108963114D01*
X164934572Y-109021280D01*
X164752002Y-109116726D01*
X164747201Y-109120586D01*
X164747198Y-109120588D01*
X164714688Y-109146727D01*
X164591447Y-109245815D01*
X164459024Y-109403630D01*
X164456056Y-109409028D01*
X164456053Y-109409033D01*
X164449315Y-109421290D01*
X164359776Y-109584162D01*
X164297484Y-109780532D01*
X164296798Y-109786649D01*
X164296797Y-109786653D01*
X164275207Y-109979137D01*
X164274520Y-109985262D01*
X163844138Y-109985262D01*
X163825480Y-109794970D01*
X163765935Y-109597749D01*
X163669218Y-109415849D01*
X163593206Y-109322649D01*
X163542906Y-109260975D01*
X163542903Y-109260972D01*
X163539011Y-109256200D01*
X163521786Y-109241950D01*
X163385025Y-109128811D01*
X163385021Y-109128809D01*
X163380275Y-109124882D01*
X163199055Y-109026897D01*
X163002254Y-108965977D01*
X162996129Y-108965333D01*
X162996128Y-108965333D01*
X162803498Y-108945087D01*
X162803496Y-108945087D01*
X162797369Y-108944443D01*
X162710529Y-108952346D01*
X162598342Y-108962555D01*
X162598339Y-108962556D01*
X162592203Y-108963114D01*
X162394572Y-109021280D01*
X162212002Y-109116726D01*
X162207201Y-109120586D01*
X162207198Y-109120588D01*
X162174688Y-109146727D01*
X162051447Y-109245815D01*
X161919024Y-109403630D01*
X161916056Y-109409028D01*
X161916053Y-109409033D01*
X161909315Y-109421290D01*
X161819776Y-109584162D01*
X161757484Y-109780532D01*
X161756798Y-109786649D01*
X161756797Y-109786653D01*
X161735207Y-109979137D01*
X161734520Y-109985262D01*
X161300500Y-109985262D01*
X161300500Y-109130252D01*
X161288867Y-109071769D01*
X161244552Y-109005448D01*
X161178231Y-108961133D01*
X161166062Y-108958712D01*
X161166061Y-108958712D01*
X161125816Y-108950707D01*
X161119748Y-108949500D01*
X159380252Y-108949500D01*
X159374184Y-108950707D01*
X159333939Y-108958712D01*
X159333938Y-108958712D01*
X159321769Y-108961133D01*
X159255448Y-109005448D01*
X159211133Y-109071769D01*
X159199500Y-109130252D01*
X159199500Y-110869748D01*
X151400000Y-110869748D01*
X151400000Y-101396301D01*
X151420002Y-101328180D01*
X151473658Y-101281687D01*
X151526818Y-101270304D01*
X171373444Y-101399178D01*
X171441433Y-101419622D01*
X171487576Y-101473578D01*
X171498617Y-101526552D01*
X170904372Y-155900000D01*
X170901368Y-156174833D01*
X170880623Y-156242731D01*
X170826463Y-156288635D01*
X170774829Y-156299455D01*
X79225223Y-155900546D01*
X79157191Y-155880247D01*
X79110932Y-155826389D01*
X79099773Y-155774775D01*
X79097292Y-154405326D01*
X79084706Y-147457664D01*
X83769967Y-147457664D01*
X83795818Y-147728611D01*
X83796903Y-147733045D01*
X83796904Y-147733051D01*
X83850592Y-147952452D01*
X83860511Y-147992989D01*
X83862223Y-147997215D01*
X83862224Y-147997219D01*
X83944143Y-148199468D01*
X83962690Y-148245259D01*
X83964994Y-148249194D01*
X83964996Y-148249198D01*
X83986545Y-148286000D01*
X84100217Y-148480137D01*
X84179014Y-148578668D01*
X84262217Y-148682707D01*
X84270209Y-148692701D01*
X84469105Y-148878499D01*
X84692739Y-149033640D01*
X84804583Y-149089282D01*
X84932339Y-149152840D01*
X84932342Y-149152841D01*
X84936426Y-149154873D01*
X85195062Y-149239658D01*
X85199553Y-149240438D01*
X85199554Y-149240438D01*
X85459447Y-149285563D01*
X85459455Y-149285564D01*
X85463228Y-149286219D01*
X85467065Y-149286410D01*
X85547651Y-149290422D01*
X85547659Y-149290422D01*
X85549222Y-149290500D01*
X85719144Y-149290500D01*
X85721412Y-149290335D01*
X85721424Y-149290335D01*
X85852468Y-149280826D01*
X85921464Y-149275820D01*
X85925919Y-149274836D01*
X85925922Y-149274836D01*
X86182782Y-149218127D01*
X86182786Y-149218126D01*
X86187242Y-149217142D01*
X86349487Y-149155673D01*
X86437495Y-149122330D01*
X86437498Y-149122329D01*
X86441765Y-149120712D01*
X86679702Y-148988550D01*
X86791019Y-148903595D01*
X86892443Y-148826191D01*
X86892447Y-148826188D01*
X86896068Y-148823424D01*
X87086331Y-148628794D01*
X87246506Y-148408737D01*
X87373236Y-148167863D01*
X87463867Y-147911218D01*
X87516500Y-147644177D01*
X87518011Y-147613818D01*
X87529806Y-147376905D01*
X87529806Y-147376899D01*
X87530033Y-147372336D01*
X87504182Y-147101389D01*
X87489702Y-147042212D01*
X87440574Y-146841445D01*
X87439489Y-146837011D01*
X87424254Y-146799397D01*
X87339023Y-146588969D01*
X87339020Y-146588963D01*
X87337310Y-146584741D01*
X87315018Y-146546668D01*
X87276115Y-146480229D01*
X87199783Y-146349863D01*
X87044779Y-146156040D01*
X87032643Y-146140865D01*
X87032642Y-146140863D01*
X87029791Y-146137299D01*
X86830895Y-145951501D01*
X86607261Y-145796360D01*
X86440801Y-145713547D01*
X86367661Y-145677160D01*
X86367658Y-145677159D01*
X86363574Y-145675127D01*
X86104938Y-145590342D01*
X86100446Y-145589562D01*
X85840553Y-145544437D01*
X85840545Y-145544436D01*
X85836772Y-145543781D01*
X85827316Y-145543310D01*
X85752349Y-145539578D01*
X85752341Y-145539578D01*
X85750778Y-145539500D01*
X85580856Y-145539500D01*
X85578588Y-145539665D01*
X85578576Y-145539665D01*
X85447532Y-145549174D01*
X85378536Y-145554180D01*
X85374081Y-145555164D01*
X85374078Y-145555164D01*
X85117218Y-145611873D01*
X85117214Y-145611874D01*
X85112758Y-145612858D01*
X85000774Y-145655285D01*
X84862505Y-145707670D01*
X84862502Y-145707671D01*
X84858235Y-145709288D01*
X84696793Y-145798961D01*
X84663865Y-145817251D01*
X84620298Y-145841450D01*
X84616666Y-145844222D01*
X84407557Y-146003809D01*
X84407553Y-146003812D01*
X84403932Y-146006576D01*
X84213669Y-146201206D01*
X84053494Y-146421263D01*
X83926764Y-146662137D01*
X83836133Y-146918782D01*
X83783500Y-147185823D01*
X83783273Y-147190380D01*
X83783273Y-147190381D01*
X83771350Y-147429887D01*
X83769967Y-147457664D01*
X79084706Y-147457664D01*
X79078415Y-143985000D01*
X82514341Y-143985000D01*
X82534937Y-144220408D01*
X82536361Y-144225722D01*
X82536361Y-144225723D01*
X82578205Y-144381887D01*
X82596097Y-144448663D01*
X82598419Y-144453643D01*
X82598420Y-144453645D01*
X82691975Y-144654272D01*
X82695965Y-144662829D01*
X82831505Y-144856401D01*
X82998599Y-145023495D01*
X83003107Y-145026652D01*
X83003110Y-145026654D01*
X83187661Y-145155878D01*
X83192170Y-145159035D01*
X83197152Y-145161358D01*
X83197157Y-145161361D01*
X83337052Y-145226595D01*
X83406337Y-145258903D01*
X83411645Y-145260325D01*
X83411647Y-145260326D01*
X83628710Y-145318487D01*
X83634592Y-145320063D01*
X83870000Y-145340659D01*
X84105408Y-145320063D01*
X84111290Y-145318487D01*
X84328353Y-145260326D01*
X84328355Y-145260325D01*
X84333663Y-145258903D01*
X84402948Y-145226595D01*
X84542843Y-145161361D01*
X84542848Y-145161358D01*
X84547830Y-145159035D01*
X84552339Y-145155878D01*
X84736890Y-145026654D01*
X84736893Y-145026652D01*
X84741401Y-145023495D01*
X84908495Y-144856401D01*
X85044035Y-144662829D01*
X85048026Y-144654272D01*
X85141580Y-144453645D01*
X85141581Y-144453643D01*
X85143903Y-144448663D01*
X85201793Y-144232610D01*
X85238744Y-144171988D01*
X85302605Y-144140967D01*
X85373099Y-144149395D01*
X85427847Y-144194598D01*
X85439909Y-144217004D01*
X85475464Y-144302841D01*
X85571718Y-144428282D01*
X85578264Y-144433305D01*
X85596671Y-144447429D01*
X85609062Y-144458297D01*
X86416703Y-145265938D01*
X86427570Y-145278328D01*
X86446718Y-145303282D01*
X86453264Y-145308305D01*
X86469212Y-145320542D01*
X86495429Y-145340659D01*
X86572159Y-145399536D01*
X86718238Y-145460044D01*
X86875000Y-145480682D01*
X86883188Y-145479604D01*
X86906173Y-145476578D01*
X86922619Y-145475500D01*
X88666140Y-145475500D01*
X88734261Y-145495502D01*
X88764885Y-145523234D01*
X88776959Y-145538468D01*
X88781652Y-145542462D01*
X88781653Y-145542463D01*
X88790306Y-145549827D01*
X88804598Y-145561990D01*
X88819163Y-145574386D01*
X88858076Y-145633768D01*
X88863500Y-145670340D01*
X88863500Y-146916381D01*
X88862422Y-146932827D01*
X88858318Y-146964000D01*
X88872499Y-147071718D01*
X88878956Y-147120762D01*
X88939464Y-147266841D01*
X89035718Y-147392282D01*
X89042264Y-147397305D01*
X89060671Y-147411429D01*
X89073062Y-147422297D01*
X92041703Y-150390938D01*
X92052570Y-150403328D01*
X92071718Y-150428282D01*
X92078264Y-150433305D01*
X92110038Y-150457686D01*
X92133207Y-150475464D01*
X92197159Y-150524536D01*
X92343238Y-150585044D01*
X92351426Y-150586122D01*
X92421619Y-150595363D01*
X92500000Y-150605682D01*
X92508188Y-150604604D01*
X92531173Y-150601578D01*
X92547619Y-150600500D01*
X111952381Y-150600500D01*
X111968827Y-150601578D01*
X112000000Y-150605682D01*
X112008188Y-150604604D01*
X112031173Y-150601578D01*
X112047619Y-150600500D01*
X135452381Y-150600500D01*
X135468827Y-150601578D01*
X135500000Y-150605682D01*
X135508188Y-150604604D01*
X135531173Y-150601578D01*
X135547619Y-150600500D01*
X150199075Y-150600500D01*
X150267196Y-150620502D01*
X150288170Y-150637405D01*
X152362595Y-152711830D01*
X152396621Y-152774142D01*
X152399500Y-152800925D01*
X152399500Y-152952381D01*
X152398422Y-152968827D01*
X152394318Y-153000000D01*
X152399500Y-153039361D01*
X152414956Y-153156762D01*
X152475464Y-153302841D01*
X152571718Y-153428282D01*
X152578264Y-153433305D01*
X152596671Y-153447429D01*
X152609062Y-153458297D01*
X153541703Y-154390938D01*
X153552570Y-154403328D01*
X153571718Y-154428282D01*
X153697159Y-154524536D01*
X153843238Y-154585044D01*
X153960633Y-154600500D01*
X153991805Y-154604604D01*
X154000000Y-154605683D01*
X154008196Y-154604604D01*
X154031179Y-154601578D01*
X154047626Y-154600500D01*
X155452381Y-154600500D01*
X155468827Y-154601578D01*
X155500000Y-154605682D01*
X155508188Y-154604604D01*
X155539361Y-154600500D01*
X155648574Y-154586122D01*
X155656762Y-154585044D01*
X155802841Y-154524536D01*
X155928282Y-154428282D01*
X155947430Y-154403328D01*
X155958297Y-154390938D01*
X158711830Y-151637405D01*
X158774142Y-151603379D01*
X158800925Y-151600500D01*
X160018172Y-151600500D01*
X160086293Y-151620502D01*
X160132786Y-151674158D01*
X160142890Y-151744432D01*
X160113396Y-151809012D01*
X160050783Y-151848207D01*
X160026647Y-151854674D01*
X160026645Y-151854675D01*
X160021337Y-151856097D01*
X160016357Y-151858419D01*
X160016355Y-151858420D01*
X159812152Y-151953642D01*
X159812149Y-151953644D01*
X159807171Y-151955965D01*
X159613599Y-152091505D01*
X159446505Y-152258599D01*
X159310965Y-152452171D01*
X159308644Y-152457149D01*
X159308642Y-152457152D01*
X159264574Y-152551656D01*
X159211097Y-152666337D01*
X159209675Y-152671645D01*
X159209674Y-152671647D01*
X159171488Y-152814161D01*
X159149937Y-152894592D01*
X159129341Y-153130000D01*
X159149937Y-153365408D01*
X159211097Y-153593663D01*
X159310965Y-153807829D01*
X159446505Y-154001401D01*
X159613599Y-154168495D01*
X159618107Y-154171652D01*
X159618110Y-154171654D01*
X159802661Y-154300878D01*
X159807170Y-154304035D01*
X159812152Y-154306358D01*
X159812157Y-154306361D01*
X160006068Y-154396783D01*
X160021337Y-154403903D01*
X160026645Y-154405325D01*
X160026647Y-154405326D01*
X160244277Y-154463639D01*
X160249592Y-154465063D01*
X160485000Y-154485659D01*
X160720408Y-154465063D01*
X160725723Y-154463639D01*
X160943353Y-154405326D01*
X160943355Y-154405325D01*
X160948663Y-154403903D01*
X160963932Y-154396783D01*
X161157843Y-154306361D01*
X161157848Y-154306358D01*
X161162830Y-154304035D01*
X161167339Y-154300878D01*
X161351890Y-154171654D01*
X161351893Y-154171652D01*
X161356401Y-154168495D01*
X161523495Y-154001401D01*
X161659035Y-153807829D01*
X161758903Y-153593663D01*
X161820063Y-153365408D01*
X161840659Y-153130000D01*
X161820063Y-152894592D01*
X161798512Y-152814161D01*
X161760326Y-152671647D01*
X161760325Y-152671645D01*
X161758903Y-152666337D01*
X161705426Y-152551656D01*
X161661358Y-152457152D01*
X161661356Y-152457149D01*
X161659035Y-152452171D01*
X161523495Y-152258599D01*
X161356401Y-152091505D01*
X161351893Y-152088348D01*
X161351890Y-152088346D01*
X161167339Y-151959122D01*
X161167336Y-151959120D01*
X161162830Y-151955965D01*
X161157848Y-151953642D01*
X161157843Y-151953639D01*
X160953645Y-151858420D01*
X160953644Y-151858419D01*
X160948663Y-151856097D01*
X160943355Y-151854675D01*
X160943353Y-151854674D01*
X160772937Y-151809012D01*
X160732610Y-151798207D01*
X160671988Y-151761256D01*
X160640967Y-151697395D01*
X160649395Y-151626901D01*
X160694598Y-151572153D01*
X160717004Y-151560091D01*
X160730339Y-151554567D01*
X160802841Y-151524536D01*
X160928282Y-151428282D01*
X160947430Y-151403328D01*
X160958297Y-151390938D01*
X161765938Y-150583297D01*
X161778329Y-150572429D01*
X161796736Y-150558305D01*
X161803282Y-150553282D01*
X161822430Y-150528328D01*
X161833297Y-150515938D01*
X162092529Y-150256706D01*
X162154841Y-150222680D01*
X162225656Y-150227745D01*
X162282492Y-150270292D01*
X162307303Y-150336812D01*
X162293132Y-150404468D01*
X162284047Y-150421736D01*
X162191764Y-150597137D01*
X162101133Y-150853782D01*
X162048500Y-151120823D01*
X162048273Y-151125380D01*
X162048273Y-151125381D01*
X162038252Y-151326682D01*
X162034967Y-151392664D01*
X162060818Y-151663611D01*
X162061903Y-151668045D01*
X162061904Y-151668051D01*
X162108874Y-151860000D01*
X162125511Y-151927989D01*
X162127223Y-151932215D01*
X162127224Y-151932219D01*
X162200135Y-152112228D01*
X162227690Y-152180259D01*
X162229994Y-152184194D01*
X162229996Y-152184198D01*
X162270772Y-152253837D01*
X162365217Y-152415137D01*
X162535209Y-152627701D01*
X162734105Y-152813499D01*
X162957739Y-152968640D01*
X163082876Y-153030895D01*
X163197339Y-153087840D01*
X163197342Y-153087841D01*
X163201426Y-153089873D01*
X163460062Y-153174658D01*
X163464553Y-153175438D01*
X163464554Y-153175438D01*
X163724447Y-153220563D01*
X163724455Y-153220564D01*
X163728228Y-153221219D01*
X163732065Y-153221410D01*
X163812651Y-153225422D01*
X163812659Y-153225422D01*
X163814222Y-153225500D01*
X163984144Y-153225500D01*
X163986412Y-153225335D01*
X163986424Y-153225335D01*
X164117468Y-153215826D01*
X164186464Y-153210820D01*
X164190919Y-153209836D01*
X164190922Y-153209836D01*
X164447782Y-153153127D01*
X164447786Y-153153126D01*
X164452242Y-153152142D01*
X164612845Y-153091295D01*
X164702495Y-153057330D01*
X164702498Y-153057329D01*
X164706765Y-153055712D01*
X164944702Y-152923550D01*
X164994185Y-152885785D01*
X165157443Y-152761191D01*
X165157447Y-152761188D01*
X165161068Y-152758424D01*
X165167234Y-152752117D01*
X165348145Y-152567053D01*
X165351331Y-152563794D01*
X165511506Y-152343737D01*
X165638236Y-152102863D01*
X165728867Y-151846218D01*
X165781500Y-151579177D01*
X165784220Y-151524536D01*
X165794806Y-151311905D01*
X165794806Y-151311899D01*
X165795033Y-151307336D01*
X165769182Y-151036389D01*
X165755986Y-150982459D01*
X165705574Y-150776445D01*
X165704489Y-150772011D01*
X165702776Y-150767781D01*
X165604023Y-150523969D01*
X165604020Y-150523963D01*
X165602310Y-150519741D01*
X165597229Y-150511062D01*
X165528872Y-150394318D01*
X165464783Y-150284863D01*
X165333378Y-150120550D01*
X165297643Y-150075865D01*
X165297642Y-150075863D01*
X165294791Y-150072299D01*
X165095895Y-149886501D01*
X164872261Y-149731360D01*
X164738762Y-149664945D01*
X164632661Y-149612160D01*
X164632658Y-149612159D01*
X164628574Y-149610127D01*
X164369938Y-149525342D01*
X164365446Y-149524562D01*
X164105553Y-149479437D01*
X164105545Y-149479436D01*
X164101772Y-149478781D01*
X164092316Y-149478310D01*
X164017349Y-149474578D01*
X164017341Y-149474578D01*
X164015778Y-149474500D01*
X163845856Y-149474500D01*
X163843588Y-149474665D01*
X163843576Y-149474665D01*
X163729880Y-149482915D01*
X163643536Y-149489180D01*
X163639081Y-149490164D01*
X163639078Y-149490164D01*
X163382218Y-149546873D01*
X163382214Y-149546874D01*
X163377758Y-149547858D01*
X163258225Y-149593145D01*
X163127505Y-149642670D01*
X163127502Y-149642671D01*
X163123235Y-149644288D01*
X162984277Y-149721472D01*
X162968546Y-149730210D01*
X162899283Y-149745802D01*
X162832585Y-149721472D01*
X162789629Y-149664945D01*
X162784053Y-149594167D01*
X162818269Y-149530966D01*
X164390938Y-147958297D01*
X164403329Y-147947429D01*
X164421736Y-147933305D01*
X164428282Y-147928282D01*
X164524536Y-147802841D01*
X164585044Y-147656762D01*
X164600500Y-147539361D01*
X164605682Y-147500000D01*
X164601578Y-147468827D01*
X164600500Y-147452381D01*
X164600500Y-143800925D01*
X164620502Y-143732804D01*
X164637405Y-143711830D01*
X167390938Y-140958297D01*
X167403329Y-140947429D01*
X167421736Y-140933305D01*
X167428282Y-140928282D01*
X167524536Y-140802841D01*
X167585044Y-140656762D01*
X167600500Y-140539361D01*
X167605682Y-140500000D01*
X167601578Y-140468827D01*
X167600500Y-140452381D01*
X167600500Y-127547619D01*
X167601578Y-127531173D01*
X167604604Y-127508188D01*
X167605682Y-127500000D01*
X167585044Y-127343238D01*
X167581884Y-127335609D01*
X167527695Y-127204785D01*
X167527694Y-127204784D01*
X167524536Y-127197159D01*
X167518173Y-127188867D01*
X167516974Y-127187304D01*
X167433308Y-127078267D01*
X167433305Y-127078264D01*
X167428282Y-127071718D01*
X167403328Y-127052570D01*
X167390938Y-127041703D01*
X165994297Y-125645062D01*
X165983429Y-125632671D01*
X165969305Y-125614264D01*
X165964282Y-125607718D01*
X165838841Y-125511464D01*
X165692762Y-125450956D01*
X165575361Y-125435500D01*
X165536000Y-125430318D01*
X165527812Y-125431396D01*
X165504827Y-125434422D01*
X165488381Y-125435500D01*
X162171665Y-125435500D01*
X162103544Y-125415498D01*
X162074022Y-125389136D01*
X162056605Y-125367780D01*
X162056602Y-125367777D01*
X162052710Y-125363005D01*
X162016950Y-125333421D01*
X161913834Y-125248116D01*
X161909085Y-125244187D01*
X161745116Y-125155529D01*
X161713860Y-125145854D01*
X161698933Y-125141233D01*
X161639774Y-125101981D01*
X161611227Y-125036977D01*
X161622356Y-124966858D01*
X161669627Y-124913887D01*
X161702312Y-124899509D01*
X161714453Y-124896120D01*
X161714464Y-124896116D01*
X161720387Y-124894462D01*
X161886768Y-124810417D01*
X161911255Y-124791286D01*
X162028794Y-124699454D01*
X162028795Y-124699453D01*
X162033655Y-124695656D01*
X162155454Y-124554550D01*
X162247526Y-124392474D01*
X162306364Y-124215601D01*
X162316204Y-124137708D01*
X162329285Y-124034170D01*
X162329286Y-124034163D01*
X162329727Y-124030668D01*
X162330099Y-124004000D01*
X162311909Y-123818487D01*
X162310128Y-123812588D01*
X162310127Y-123812583D01*
X162259814Y-123645939D01*
X162258033Y-123640040D01*
X162186436Y-123505385D01*
X162173416Y-123480898D01*
X162173414Y-123480895D01*
X162170522Y-123475456D01*
X162166632Y-123470686D01*
X162166629Y-123470682D01*
X162056605Y-123335780D01*
X162056602Y-123335777D01*
X162052710Y-123331005D01*
X162016950Y-123301421D01*
X161913834Y-123216116D01*
X161909085Y-123212187D01*
X161745116Y-123123529D01*
X161713860Y-123113854D01*
X161698933Y-123109233D01*
X161639774Y-123069981D01*
X161611227Y-123004977D01*
X161622356Y-122934858D01*
X161669627Y-122881887D01*
X161702312Y-122867509D01*
X161714453Y-122864120D01*
X161714464Y-122864116D01*
X161720387Y-122862462D01*
X161886768Y-122778417D01*
X161911255Y-122759286D01*
X162028794Y-122667454D01*
X162028795Y-122667453D01*
X162033655Y-122663656D01*
X162155454Y-122522550D01*
X162247526Y-122360474D01*
X162306364Y-122183601D01*
X162316204Y-122105708D01*
X162329285Y-122002170D01*
X162329286Y-122002163D01*
X162329727Y-121998668D01*
X162330099Y-121972000D01*
X162311909Y-121786487D01*
X162310128Y-121780588D01*
X162310127Y-121780583D01*
X162259814Y-121613939D01*
X162258033Y-121608040D01*
X162186436Y-121473385D01*
X162173416Y-121448898D01*
X162173414Y-121448895D01*
X162170522Y-121443456D01*
X162166632Y-121438686D01*
X162166629Y-121438682D01*
X162056605Y-121303780D01*
X162056602Y-121303777D01*
X162052710Y-121299005D01*
X162016950Y-121269421D01*
X161913834Y-121184116D01*
X161909085Y-121180187D01*
X161811338Y-121127335D01*
X161760931Y-121077341D01*
X161745553Y-121008030D01*
X161770089Y-120941408D01*
X161826749Y-120898627D01*
X161871268Y-120890500D01*
X162144748Y-120890500D01*
X162150816Y-120889293D01*
X162191061Y-120881288D01*
X162191062Y-120881288D01*
X162203231Y-120878867D01*
X162269552Y-120834552D01*
X162313867Y-120768231D01*
X162325500Y-120709748D01*
X162325500Y-119170252D01*
X162320556Y-119145396D01*
X162316288Y-119123939D01*
X162316288Y-119123938D01*
X162313867Y-119111769D01*
X162269552Y-119045448D01*
X162203231Y-119001133D01*
X162191062Y-118998712D01*
X162191061Y-118998712D01*
X162150816Y-118990707D01*
X162144748Y-118989500D01*
X160605252Y-118989500D01*
X160599184Y-118990707D01*
X160558939Y-118998712D01*
X160558938Y-118998712D01*
X160546769Y-119001133D01*
X160480448Y-119045448D01*
X160436133Y-119111769D01*
X160433712Y-119123938D01*
X160433712Y-119123939D01*
X160429444Y-119145396D01*
X160424500Y-119170252D01*
X160424500Y-120140813D01*
X160404498Y-120208934D01*
X160350842Y-120255427D01*
X160280568Y-120265531D01*
X160218184Y-120237897D01*
X160152194Y-120183305D01*
X160129085Y-120164187D01*
X159965116Y-120075529D01*
X159867173Y-120045211D01*
X159792936Y-120022231D01*
X159792933Y-120022230D01*
X159787049Y-120020409D01*
X159780924Y-120019765D01*
X159780923Y-120019765D01*
X159607796Y-120001568D01*
X159607795Y-120001568D01*
X159601668Y-120000924D01*
X159523549Y-120008033D01*
X159422171Y-120017259D01*
X159422168Y-120017260D01*
X159416032Y-120017818D01*
X159410122Y-120019557D01*
X159410119Y-120019558D01*
X159322960Y-120045211D01*
X159237214Y-120070448D01*
X159072023Y-120156807D01*
X159067223Y-120160667D01*
X159067222Y-120160667D01*
X159039066Y-120183305D01*
X158926752Y-120273608D01*
X158806935Y-120416401D01*
X158803971Y-120421793D01*
X158803968Y-120421797D01*
X158800857Y-120427456D01*
X158717135Y-120579746D01*
X158660772Y-120757424D01*
X158639994Y-120942665D01*
X158640510Y-120948809D01*
X158652495Y-121091529D01*
X158655592Y-121128414D01*
X158657291Y-121134339D01*
X158704508Y-121299005D01*
X158706971Y-121307595D01*
X158792176Y-121473385D01*
X158907959Y-121619468D01*
X159049912Y-121740279D01*
X159212627Y-121831217D01*
X159259546Y-121846462D01*
X159275205Y-121851550D01*
X159333810Y-121891624D01*
X159361447Y-121957021D01*
X159349340Y-122026978D01*
X159301333Y-122079283D01*
X159271847Y-122092255D01*
X159237214Y-122102448D01*
X159072023Y-122188807D01*
X158926752Y-122305608D01*
X158806935Y-122448401D01*
X158803971Y-122453793D01*
X158803968Y-122453797D01*
X158766171Y-122522550D01*
X158717135Y-122611746D01*
X158715274Y-122617613D01*
X158715273Y-122617615D01*
X158672553Y-122752286D01*
X158660772Y-122789424D01*
X158639994Y-122974665D01*
X158640510Y-122980809D01*
X158652741Y-123126459D01*
X158655592Y-123160414D01*
X158657291Y-123166339D01*
X158704508Y-123331005D01*
X158706971Y-123339595D01*
X158792176Y-123505385D01*
X158907959Y-123651468D01*
X159049912Y-123772279D01*
X159212627Y-123863217D01*
X159259546Y-123878462D01*
X159275205Y-123883550D01*
X159333810Y-123923624D01*
X159361447Y-123989021D01*
X159349340Y-124058978D01*
X159301333Y-124111283D01*
X159271847Y-124124255D01*
X159237214Y-124134448D01*
X159072023Y-124220807D01*
X158926752Y-124337608D01*
X158806935Y-124480401D01*
X158803971Y-124485793D01*
X158803968Y-124485797D01*
X158766171Y-124554550D01*
X158717135Y-124643746D01*
X158715274Y-124649613D01*
X158715273Y-124649615D01*
X158672553Y-124784286D01*
X158660772Y-124821424D01*
X158639994Y-125006665D01*
X158640510Y-125012809D01*
X158652741Y-125158459D01*
X158655592Y-125192414D01*
X158657291Y-125198339D01*
X158704508Y-125363005D01*
X158706971Y-125371595D01*
X158792176Y-125537385D01*
X158907959Y-125683468D01*
X159049912Y-125804279D01*
X159212627Y-125895217D01*
X159259546Y-125910462D01*
X159275205Y-125915550D01*
X159333810Y-125955624D01*
X159361447Y-126021021D01*
X159349340Y-126090978D01*
X159301333Y-126143283D01*
X159271847Y-126156255D01*
X159237214Y-126166448D01*
X159072023Y-126252807D01*
X158926752Y-126369608D01*
X158806935Y-126512401D01*
X158803971Y-126517793D01*
X158803968Y-126517797D01*
X158738711Y-126636500D01*
X158717135Y-126675746D01*
X158715274Y-126681613D01*
X158715273Y-126681615D01*
X158672553Y-126816286D01*
X158660772Y-126853424D01*
X158639994Y-127038665D01*
X158643320Y-127078267D01*
X158653944Y-127204785D01*
X158655592Y-127224414D01*
X158657291Y-127230339D01*
X158703955Y-127393076D01*
X158706971Y-127403595D01*
X158709790Y-127409080D01*
X158772538Y-127531173D01*
X158792176Y-127569385D01*
X158907959Y-127715468D01*
X159049912Y-127836279D01*
X159055290Y-127839285D01*
X159055292Y-127839286D01*
X159125606Y-127878583D01*
X159212627Y-127927217D01*
X159389907Y-127984819D01*
X159574998Y-128006890D01*
X159581133Y-128006418D01*
X159581135Y-128006418D01*
X159754710Y-127993062D01*
X159754715Y-127993061D01*
X159760851Y-127992589D01*
X159766781Y-127990933D01*
X159766783Y-127990933D01*
X159934459Y-127944117D01*
X159934458Y-127944117D01*
X159940387Y-127942462D01*
X160106768Y-127858417D01*
X160131255Y-127839286D01*
X160248794Y-127747454D01*
X160248795Y-127747453D01*
X160253655Y-127743656D01*
X160375454Y-127602550D01*
X160467526Y-127440474D01*
X160526364Y-127263601D01*
X160535352Y-127192459D01*
X160549285Y-127082170D01*
X160549286Y-127082163D01*
X160549727Y-127078668D01*
X160550099Y-127052000D01*
X160531909Y-126866487D01*
X160530128Y-126860586D01*
X160530051Y-126860200D01*
X160536439Y-126789492D01*
X160580041Y-126733462D01*
X160647014Y-126709899D01*
X160716094Y-126726285D01*
X160735313Y-126739770D01*
X160829912Y-126820279D01*
X160992627Y-126911217D01*
X161169907Y-126968819D01*
X161354998Y-126990890D01*
X161361133Y-126990418D01*
X161361135Y-126990418D01*
X161534710Y-126977062D01*
X161534715Y-126977061D01*
X161540851Y-126976589D01*
X161546781Y-126974933D01*
X161546783Y-126974933D01*
X161714459Y-126928117D01*
X161714458Y-126928117D01*
X161720387Y-126926462D01*
X161886768Y-126842417D01*
X161911255Y-126823286D01*
X162028794Y-126731454D01*
X162028795Y-126731453D01*
X162033655Y-126727656D01*
X162037681Y-126722991D01*
X162037687Y-126722986D01*
X162074644Y-126680170D01*
X162134297Y-126641672D01*
X162170026Y-126636500D01*
X165235075Y-126636500D01*
X165303196Y-126656502D01*
X165324170Y-126673405D01*
X166362595Y-127711830D01*
X166396621Y-127774142D01*
X166399500Y-127800925D01*
X166399500Y-140199075D01*
X166379498Y-140267196D01*
X166362595Y-140288170D01*
X163609062Y-143041703D01*
X163596672Y-143052570D01*
X163571718Y-143071718D01*
X163522098Y-143136384D01*
X163475464Y-143197159D01*
X163414956Y-143343238D01*
X163394318Y-143500000D01*
X163395396Y-143508188D01*
X163398422Y-143531173D01*
X163399500Y-143547619D01*
X163399500Y-147199075D01*
X163379498Y-147267196D01*
X163362595Y-147288170D01*
X162190595Y-148460170D01*
X162128283Y-148494196D01*
X162057468Y-148489131D01*
X162000632Y-148446584D01*
X161975821Y-148380064D01*
X161975500Y-148371075D01*
X161975500Y-148334546D01*
X161995502Y-148266425D01*
X162023926Y-148235257D01*
X162033655Y-148227656D01*
X162067851Y-148188040D01*
X162151430Y-148091212D01*
X162151431Y-148091211D01*
X162155454Y-148086550D01*
X162247526Y-147924474D01*
X162306364Y-147747601D01*
X162316204Y-147669708D01*
X162329285Y-147566170D01*
X162329286Y-147566163D01*
X162329727Y-147562668D01*
X162330099Y-147536000D01*
X162311909Y-147350487D01*
X162310128Y-147344588D01*
X162310127Y-147344583D01*
X162259814Y-147177939D01*
X162258033Y-147172040D01*
X162186436Y-147037385D01*
X162173416Y-147012898D01*
X162173414Y-147012895D01*
X162170522Y-147007456D01*
X162166632Y-147002686D01*
X162166629Y-147002682D01*
X162056605Y-146867780D01*
X162056602Y-146867777D01*
X162052710Y-146863005D01*
X162016950Y-146833421D01*
X161975822Y-146799397D01*
X161909085Y-146744187D01*
X161745116Y-146655529D01*
X161713860Y-146645854D01*
X161698933Y-146641233D01*
X161639774Y-146601981D01*
X161611227Y-146536977D01*
X161622356Y-146466858D01*
X161669627Y-146413887D01*
X161702312Y-146399509D01*
X161714453Y-146396120D01*
X161714464Y-146396116D01*
X161720387Y-146394462D01*
X161886768Y-146310417D01*
X161911255Y-146291286D01*
X162028794Y-146199454D01*
X162028795Y-146199453D01*
X162033655Y-146195656D01*
X162155454Y-146054550D01*
X162247526Y-145892474D01*
X162306364Y-145715601D01*
X162316204Y-145637708D01*
X162329285Y-145534170D01*
X162329286Y-145534163D01*
X162329727Y-145530668D01*
X162330099Y-145504000D01*
X162311909Y-145318487D01*
X162310128Y-145312588D01*
X162310127Y-145312583D01*
X162259814Y-145145939D01*
X162258033Y-145140040D01*
X162186436Y-145005385D01*
X162173416Y-144980898D01*
X162173414Y-144980895D01*
X162170522Y-144975456D01*
X162166632Y-144970686D01*
X162166629Y-144970682D01*
X162056605Y-144835780D01*
X162056602Y-144835777D01*
X162052710Y-144831005D01*
X162016950Y-144801421D01*
X161913834Y-144716116D01*
X161909085Y-144712187D01*
X161745116Y-144623529D01*
X161712746Y-144613509D01*
X161698933Y-144609233D01*
X161639774Y-144569981D01*
X161611227Y-144504977D01*
X161622356Y-144434858D01*
X161669627Y-144381887D01*
X161702312Y-144367509D01*
X161714453Y-144364120D01*
X161714464Y-144364116D01*
X161720387Y-144362462D01*
X161886768Y-144278417D01*
X161911255Y-144259286D01*
X162028794Y-144167454D01*
X162028795Y-144167453D01*
X162033655Y-144163656D01*
X162155454Y-144022550D01*
X162247526Y-143860474D01*
X162306364Y-143683601D01*
X162316204Y-143605708D01*
X162329285Y-143502170D01*
X162329286Y-143502163D01*
X162329727Y-143498668D01*
X162330099Y-143472000D01*
X162311909Y-143286487D01*
X162310128Y-143280588D01*
X162310127Y-143280583D01*
X162259814Y-143113939D01*
X162258033Y-143108040D01*
X162186436Y-142973385D01*
X162173416Y-142948898D01*
X162173414Y-142948895D01*
X162170522Y-142943456D01*
X162166632Y-142938686D01*
X162166629Y-142938682D01*
X162056605Y-142803780D01*
X162056602Y-142803777D01*
X162052710Y-142799005D01*
X162016950Y-142769421D01*
X161913834Y-142684116D01*
X161909085Y-142680187D01*
X161811338Y-142627335D01*
X161760931Y-142577341D01*
X161745553Y-142508030D01*
X161770089Y-142441408D01*
X161826749Y-142398627D01*
X161871268Y-142390500D01*
X162144748Y-142390500D01*
X162150816Y-142389293D01*
X162191061Y-142381288D01*
X162191062Y-142381288D01*
X162203231Y-142378867D01*
X162269552Y-142334552D01*
X162313867Y-142268231D01*
X162325500Y-142209748D01*
X162325500Y-140670252D01*
X162313867Y-140611769D01*
X162269552Y-140545448D01*
X162203231Y-140501133D01*
X162191062Y-140498712D01*
X162191061Y-140498712D01*
X162150816Y-140490707D01*
X162144748Y-140489500D01*
X160605252Y-140489500D01*
X160599184Y-140490707D01*
X160558939Y-140498712D01*
X160558938Y-140498712D01*
X160546769Y-140501133D01*
X160480448Y-140545448D01*
X160436133Y-140611769D01*
X160424500Y-140670252D01*
X160424500Y-141640813D01*
X160404498Y-141708934D01*
X160350842Y-141755427D01*
X160280568Y-141765531D01*
X160218184Y-141737897D01*
X160133834Y-141668116D01*
X160129085Y-141664187D01*
X159965116Y-141575529D01*
X159855840Y-141541703D01*
X159792936Y-141522231D01*
X159792933Y-141522230D01*
X159787049Y-141520409D01*
X159780924Y-141519765D01*
X159780923Y-141519765D01*
X159607796Y-141501568D01*
X159607795Y-141501568D01*
X159601668Y-141500924D01*
X159523549Y-141508033D01*
X159422171Y-141517259D01*
X159422168Y-141517260D01*
X159416032Y-141517818D01*
X159410122Y-141519557D01*
X159410119Y-141519558D01*
X159249965Y-141566695D01*
X159237214Y-141570448D01*
X159072023Y-141656807D01*
X158926752Y-141773608D01*
X158806935Y-141916401D01*
X158803971Y-141921793D01*
X158803968Y-141921797D01*
X158765726Y-141991359D01*
X158717135Y-142079746D01*
X158715274Y-142085613D01*
X158715273Y-142085615D01*
X158691864Y-142159409D01*
X158660772Y-142257424D01*
X158639994Y-142442665D01*
X158640510Y-142448809D01*
X158653593Y-142604604D01*
X158655592Y-142628414D01*
X158657291Y-142634339D01*
X158704508Y-142799005D01*
X158706971Y-142807595D01*
X158792176Y-142973385D01*
X158907959Y-143119468D01*
X159049912Y-143240279D01*
X159055290Y-143243285D01*
X159055292Y-143243286D01*
X159109066Y-143273339D01*
X159212627Y-143331217D01*
X159259546Y-143346462D01*
X159275205Y-143351550D01*
X159333810Y-143391624D01*
X159361447Y-143457021D01*
X159349340Y-143526978D01*
X159301333Y-143579283D01*
X159271847Y-143592255D01*
X159237214Y-143602448D01*
X159072023Y-143688807D01*
X158926752Y-143805608D01*
X158806935Y-143948401D01*
X158803971Y-143953793D01*
X158803968Y-143953797D01*
X158729256Y-144089699D01*
X158717135Y-144111746D01*
X158715274Y-144117613D01*
X158715273Y-144117615D01*
X158672553Y-144252286D01*
X158660772Y-144289424D01*
X158639994Y-144474665D01*
X158640510Y-144480809D01*
X158652741Y-144626459D01*
X158655592Y-144660414D01*
X158657291Y-144666339D01*
X158704508Y-144831005D01*
X158706971Y-144839595D01*
X158792176Y-145005385D01*
X158907959Y-145151468D01*
X159049912Y-145272279D01*
X159055290Y-145275285D01*
X159055292Y-145275286D01*
X159109145Y-145305383D01*
X159212627Y-145363217D01*
X159259546Y-145378462D01*
X159275205Y-145383550D01*
X159333810Y-145423624D01*
X159361447Y-145489021D01*
X159349340Y-145558978D01*
X159301333Y-145611283D01*
X159271847Y-145624255D01*
X159237214Y-145634448D01*
X159072023Y-145720807D01*
X158926752Y-145837608D01*
X158806935Y-145980401D01*
X158803971Y-145985793D01*
X158803968Y-145985797D01*
X158766171Y-146054550D01*
X158717135Y-146143746D01*
X158715274Y-146149613D01*
X158715273Y-146149615D01*
X158672553Y-146284286D01*
X158660772Y-146321424D01*
X158639994Y-146506665D01*
X158640510Y-146512809D01*
X158653050Y-146662137D01*
X158655592Y-146692414D01*
X158657291Y-146698339D01*
X158704508Y-146863005D01*
X158706971Y-146871595D01*
X158792176Y-147037385D01*
X158907959Y-147183468D01*
X159049912Y-147304279D01*
X159212627Y-147395217D01*
X159259546Y-147410462D01*
X159275205Y-147415550D01*
X159333810Y-147455624D01*
X159361447Y-147521021D01*
X159349340Y-147590978D01*
X159301333Y-147643283D01*
X159271847Y-147656255D01*
X159237214Y-147666448D01*
X159072023Y-147752807D01*
X158926752Y-147869608D01*
X158806935Y-148012401D01*
X158803971Y-148017793D01*
X158803968Y-148017797D01*
X158766171Y-148086550D01*
X158717135Y-148175746D01*
X158715274Y-148181613D01*
X158715273Y-148181615D01*
X158682160Y-148286000D01*
X158660772Y-148353424D01*
X158639994Y-148538665D01*
X158640510Y-148544809D01*
X158653191Y-148695818D01*
X158655592Y-148724414D01*
X158657291Y-148730339D01*
X158703955Y-148893076D01*
X158706971Y-148903595D01*
X158792176Y-149069385D01*
X158907959Y-149215468D01*
X159049912Y-149336279D01*
X159055290Y-149339285D01*
X159055292Y-149339286D01*
X159125606Y-149378583D01*
X159212627Y-149427217D01*
X159389907Y-149484819D01*
X159574998Y-149506890D01*
X159581133Y-149506418D01*
X159581135Y-149506418D01*
X159754710Y-149493062D01*
X159754715Y-149493061D01*
X159760851Y-149492589D01*
X159766781Y-149490933D01*
X159766783Y-149490933D01*
X159934459Y-149444117D01*
X159934458Y-149444117D01*
X159940387Y-149442462D01*
X160106768Y-149358417D01*
X160131255Y-149339286D01*
X160248794Y-149247454D01*
X160248795Y-149247453D01*
X160253655Y-149243656D01*
X160366044Y-149113452D01*
X160371430Y-149107212D01*
X160371431Y-149107211D01*
X160375454Y-149102550D01*
X160467526Y-148940474D01*
X160526364Y-148763601D01*
X160526495Y-148762562D01*
X160560228Y-148702114D01*
X160622851Y-148668664D01*
X160693617Y-148674381D01*
X160750059Y-148717449D01*
X160774256Y-148784194D01*
X160774500Y-148792026D01*
X160774500Y-149824075D01*
X160754498Y-149892196D01*
X160737595Y-149913170D01*
X160288170Y-150362595D01*
X160225858Y-150396621D01*
X160199075Y-150399500D01*
X158547619Y-150399500D01*
X158531173Y-150398422D01*
X158508188Y-150395396D01*
X158500000Y-150394318D01*
X158460639Y-150399500D01*
X158343238Y-150414956D01*
X158197159Y-150475464D01*
X158071718Y-150571718D01*
X158052568Y-150596675D01*
X158041708Y-150609057D01*
X155288170Y-153362595D01*
X155225858Y-153396621D01*
X155199075Y-153399500D01*
X154300925Y-153399500D01*
X154232804Y-153379498D01*
X154211830Y-153362595D01*
X153637405Y-152788170D01*
X153603379Y-152725858D01*
X153600500Y-152699075D01*
X153600500Y-152547619D01*
X153601578Y-152531173D01*
X153604604Y-152508188D01*
X153605682Y-152500000D01*
X153585044Y-152343238D01*
X153524536Y-152197159D01*
X153459366Y-152112228D01*
X153428282Y-152071718D01*
X153403328Y-152052570D01*
X153390938Y-152041703D01*
X153195900Y-151846665D01*
X153819994Y-151846665D01*
X153835592Y-152032414D01*
X153837291Y-152038339D01*
X153882832Y-152197159D01*
X153886971Y-152211595D01*
X153972176Y-152377385D01*
X154087959Y-152523468D01*
X154229912Y-152644279D01*
X154392627Y-152735217D01*
X154569907Y-152792819D01*
X154754998Y-152814890D01*
X154761133Y-152814418D01*
X154761135Y-152814418D01*
X154934710Y-152801062D01*
X154934715Y-152801061D01*
X154940851Y-152800589D01*
X154946781Y-152798933D01*
X154946783Y-152798933D01*
X155091870Y-152758424D01*
X155120387Y-152750462D01*
X155286768Y-152666417D01*
X155311255Y-152647286D01*
X155428794Y-152555454D01*
X155428795Y-152555453D01*
X155433655Y-152551656D01*
X155555454Y-152410550D01*
X155647526Y-152248474D01*
X155706364Y-152071601D01*
X155721266Y-151953642D01*
X155729285Y-151890170D01*
X155729286Y-151890163D01*
X155729727Y-151886668D01*
X155730099Y-151860000D01*
X155711909Y-151674487D01*
X155710128Y-151668588D01*
X155710127Y-151668583D01*
X155659814Y-151501939D01*
X155658033Y-151496040D01*
X155570522Y-151331456D01*
X155566632Y-151326686D01*
X155566629Y-151326682D01*
X155456605Y-151191780D01*
X155456602Y-151191777D01*
X155452710Y-151187005D01*
X155447056Y-151182327D01*
X155313834Y-151072116D01*
X155309085Y-151068187D01*
X155145116Y-150979529D01*
X155056082Y-150951969D01*
X154972936Y-150926231D01*
X154972933Y-150926230D01*
X154967049Y-150924409D01*
X154960924Y-150923765D01*
X154960923Y-150923765D01*
X154787796Y-150905568D01*
X154787795Y-150905568D01*
X154781668Y-150904924D01*
X154703549Y-150912033D01*
X154602171Y-150921259D01*
X154602168Y-150921260D01*
X154596032Y-150921818D01*
X154590122Y-150923557D01*
X154590119Y-150923558D01*
X154423129Y-150972707D01*
X154417214Y-150974448D01*
X154252023Y-151060807D01*
X154106752Y-151177608D01*
X153986935Y-151320401D01*
X153983971Y-151325793D01*
X153983968Y-151325797D01*
X153948157Y-151390938D01*
X153897135Y-151483746D01*
X153895274Y-151489613D01*
X153895273Y-151489615D01*
X153868308Y-151574619D01*
X153840772Y-151661424D01*
X153819994Y-151846665D01*
X153195900Y-151846665D01*
X150958292Y-149609057D01*
X150947426Y-149596668D01*
X150928282Y-149571718D01*
X150908665Y-149556665D01*
X153819994Y-149556665D01*
X153835592Y-149742414D01*
X153837291Y-149748339D01*
X153876163Y-149883902D01*
X153886971Y-149921595D01*
X153972176Y-150087385D01*
X154087959Y-150233468D01*
X154229912Y-150354279D01*
X154235290Y-150357285D01*
X154235292Y-150357286D01*
X154262731Y-150372621D01*
X154392627Y-150445217D01*
X154569907Y-150502819D01*
X154754998Y-150524890D01*
X154761133Y-150524418D01*
X154761135Y-150524418D01*
X154934710Y-150511062D01*
X154934715Y-150511061D01*
X154940851Y-150510589D01*
X154946781Y-150508933D01*
X154946783Y-150508933D01*
X155114459Y-150462117D01*
X155114458Y-150462117D01*
X155120387Y-150460462D01*
X155286768Y-150376417D01*
X155304460Y-150362595D01*
X155428794Y-150265454D01*
X155428795Y-150265453D01*
X155433655Y-150261656D01*
X155555454Y-150120550D01*
X155647526Y-149958474D01*
X155706364Y-149781601D01*
X155713960Y-149721472D01*
X155729285Y-149600170D01*
X155729286Y-149600163D01*
X155729727Y-149596668D01*
X155730099Y-149570000D01*
X155711909Y-149384487D01*
X155710128Y-149378588D01*
X155710127Y-149378583D01*
X155659814Y-149211939D01*
X155658033Y-149206040D01*
X155603006Y-149102550D01*
X155573416Y-149046898D01*
X155573414Y-149046895D01*
X155570522Y-149041456D01*
X155566632Y-149036686D01*
X155566629Y-149036682D01*
X155456605Y-148901780D01*
X155456602Y-148901777D01*
X155452710Y-148897005D01*
X155447056Y-148892327D01*
X155359827Y-148820165D01*
X155309085Y-148778187D01*
X155145116Y-148689529D01*
X155026501Y-148652812D01*
X154972936Y-148636231D01*
X154972933Y-148636230D01*
X154967049Y-148634409D01*
X154960924Y-148633765D01*
X154960923Y-148633765D01*
X154787796Y-148615568D01*
X154787795Y-148615568D01*
X154781668Y-148614924D01*
X154707882Y-148621639D01*
X154602171Y-148631259D01*
X154602168Y-148631260D01*
X154596032Y-148631818D01*
X154590122Y-148633557D01*
X154590119Y-148633558D01*
X154423129Y-148682707D01*
X154417214Y-148684448D01*
X154252023Y-148770807D01*
X154106752Y-148887608D01*
X153986935Y-149030401D01*
X153983971Y-149035793D01*
X153983968Y-149035797D01*
X153941277Y-149113452D01*
X153897135Y-149193746D01*
X153895274Y-149199613D01*
X153895273Y-149199615D01*
X153853188Y-149332285D01*
X153840772Y-149371424D01*
X153819994Y-149556665D01*
X150908665Y-149556665D01*
X150825159Y-149492589D01*
X150802841Y-149475464D01*
X150656762Y-149414956D01*
X150539361Y-149399500D01*
X150500000Y-149394318D01*
X150491812Y-149395396D01*
X150468827Y-149398422D01*
X150452381Y-149399500D01*
X146844128Y-149399500D01*
X146776007Y-149379498D01*
X146729514Y-149325842D01*
X146719410Y-149255568D01*
X146748904Y-149190988D01*
X146799487Y-149155673D01*
X146887495Y-149122330D01*
X146887498Y-149122329D01*
X146891765Y-149120712D01*
X147129702Y-148988550D01*
X147241019Y-148903595D01*
X147342443Y-148826191D01*
X147342447Y-148826188D01*
X147346068Y-148823424D01*
X147536331Y-148628794D01*
X147696506Y-148408737D01*
X147823236Y-148167863D01*
X147913867Y-147911218D01*
X147966500Y-147644177D01*
X147968011Y-147613818D01*
X147979806Y-147376905D01*
X147979806Y-147376899D01*
X147980033Y-147372336D01*
X147954182Y-147101389D01*
X147939702Y-147042212D01*
X147890574Y-146841445D01*
X147889489Y-146837011D01*
X147874254Y-146799397D01*
X147789023Y-146588969D01*
X147789020Y-146588963D01*
X147787310Y-146584741D01*
X147765018Y-146546668D01*
X147726115Y-146480229D01*
X147649783Y-146349863D01*
X147494779Y-146156040D01*
X147482643Y-146140865D01*
X147482642Y-146140863D01*
X147479791Y-146137299D01*
X147280895Y-145951501D01*
X147057261Y-145796360D01*
X146890801Y-145713547D01*
X146817661Y-145677160D01*
X146817658Y-145677159D01*
X146813574Y-145675127D01*
X146554938Y-145590342D01*
X146550446Y-145589562D01*
X146290553Y-145544437D01*
X146290545Y-145544436D01*
X146286772Y-145543781D01*
X146277316Y-145543310D01*
X146202349Y-145539578D01*
X146202341Y-145539578D01*
X146200778Y-145539500D01*
X146030856Y-145539500D01*
X146028588Y-145539665D01*
X146028576Y-145539665D01*
X145897532Y-145549174D01*
X145828536Y-145554180D01*
X145824081Y-145555164D01*
X145824078Y-145555164D01*
X145567218Y-145611873D01*
X145567214Y-145611874D01*
X145562758Y-145612858D01*
X145450774Y-145655285D01*
X145312505Y-145707670D01*
X145312502Y-145707671D01*
X145308235Y-145709288D01*
X145146793Y-145798961D01*
X145113865Y-145817251D01*
X145070298Y-145841450D01*
X145066666Y-145844222D01*
X144857557Y-146003809D01*
X144857553Y-146003812D01*
X144853932Y-146006576D01*
X144663669Y-146201206D01*
X144503494Y-146421263D01*
X144376764Y-146662137D01*
X144286133Y-146918782D01*
X144233500Y-147185823D01*
X144233273Y-147190380D01*
X144233273Y-147190381D01*
X144221350Y-147429887D01*
X144219967Y-147457664D01*
X144245818Y-147728611D01*
X144246903Y-147733045D01*
X144246904Y-147733051D01*
X144300592Y-147952452D01*
X144310511Y-147992989D01*
X144312223Y-147997215D01*
X144312224Y-147997219D01*
X144394143Y-148199468D01*
X144412690Y-148245259D01*
X144414994Y-148249194D01*
X144414996Y-148249198D01*
X144436545Y-148286000D01*
X144550217Y-148480137D01*
X144629014Y-148578668D01*
X144712217Y-148682707D01*
X144720209Y-148692701D01*
X144919105Y-148878499D01*
X145142739Y-149033640D01*
X145386426Y-149154873D01*
X145390764Y-149156295D01*
X145392295Y-149156923D01*
X145447731Y-149201278D01*
X145470387Y-149268563D01*
X145453070Y-149337415D01*
X145401277Y-149385975D01*
X145344484Y-149399500D01*
X137253925Y-149399500D01*
X137185804Y-149379498D01*
X137139311Y-149325842D01*
X137129207Y-149255568D01*
X137158701Y-149190988D01*
X137164830Y-149184405D01*
X137604938Y-148744297D01*
X137617329Y-148733429D01*
X137635736Y-148719305D01*
X137642282Y-148714282D01*
X137738536Y-148588841D01*
X137799044Y-148442762D01*
X137810182Y-148358159D01*
X137819682Y-148286000D01*
X137815578Y-148254827D01*
X137814500Y-148238381D01*
X137814500Y-145673546D01*
X137834502Y-145605425D01*
X137862926Y-145574257D01*
X137872655Y-145566656D01*
X137879283Y-145558978D01*
X137990430Y-145430212D01*
X137990431Y-145430211D01*
X137994454Y-145425550D01*
X138086526Y-145263474D01*
X138109506Y-145194394D01*
X138149987Y-145136069D01*
X138215575Y-145108889D01*
X138285446Y-145121484D01*
X138337415Y-145169854D01*
X138350183Y-145199435D01*
X138357971Y-145226595D01*
X138375610Y-145260916D01*
X138436873Y-145380120D01*
X138443176Y-145392385D01*
X138558959Y-145538468D01*
X138563652Y-145542462D01*
X138563653Y-145542463D01*
X138577033Y-145553850D01*
X138700912Y-145659279D01*
X138706290Y-145662285D01*
X138706292Y-145662286D01*
X138753093Y-145688442D01*
X138863627Y-145750217D01*
X139040907Y-145807819D01*
X139225998Y-145829890D01*
X139232133Y-145829418D01*
X139232135Y-145829418D01*
X139405710Y-145816062D01*
X139405715Y-145816061D01*
X139411851Y-145815589D01*
X139417781Y-145813933D01*
X139417783Y-145813933D01*
X139585459Y-145767117D01*
X139585458Y-145767117D01*
X139591387Y-145765462D01*
X139757768Y-145681417D01*
X139767843Y-145673546D01*
X139899794Y-145570454D01*
X139899795Y-145570453D01*
X139904655Y-145566656D01*
X140026454Y-145425550D01*
X140118526Y-145263474D01*
X140141506Y-145194394D01*
X140181987Y-145136069D01*
X140247575Y-145108889D01*
X140317446Y-145121484D01*
X140369415Y-145169854D01*
X140382183Y-145199435D01*
X140389971Y-145226595D01*
X140407610Y-145260916D01*
X140468873Y-145380120D01*
X140475176Y-145392385D01*
X140590959Y-145538468D01*
X140595652Y-145542462D01*
X140595653Y-145542463D01*
X140609033Y-145553850D01*
X140732912Y-145659279D01*
X140738290Y-145662285D01*
X140738292Y-145662286D01*
X140785093Y-145688442D01*
X140895627Y-145750217D01*
X141072907Y-145807819D01*
X141257998Y-145829890D01*
X141264133Y-145829418D01*
X141264135Y-145829418D01*
X141437710Y-145816062D01*
X141437715Y-145816061D01*
X141443851Y-145815589D01*
X141449781Y-145813933D01*
X141449783Y-145813933D01*
X141617459Y-145767117D01*
X141617458Y-145767117D01*
X141623387Y-145765462D01*
X141789768Y-145681417D01*
X141799843Y-145673546D01*
X141931794Y-145570454D01*
X141931795Y-145570453D01*
X141936655Y-145566656D01*
X142058454Y-145425550D01*
X142077295Y-145392385D01*
X142123944Y-145310267D01*
X142174983Y-145260916D01*
X142244601Y-145246994D01*
X142310695Y-145272920D01*
X142352280Y-145330463D01*
X142359500Y-145372504D01*
X142359500Y-145644748D01*
X142360707Y-145650816D01*
X142368183Y-145688398D01*
X142371133Y-145703231D01*
X142378026Y-145713547D01*
X142380970Y-145717953D01*
X142415448Y-145769552D01*
X142481769Y-145813867D01*
X142493938Y-145816288D01*
X142493939Y-145816288D01*
X142534184Y-145824293D01*
X142540252Y-145825500D01*
X144079748Y-145825500D01*
X144085816Y-145824293D01*
X144126061Y-145816288D01*
X144126062Y-145816288D01*
X144138231Y-145813867D01*
X144204552Y-145769552D01*
X144239030Y-145717953D01*
X144241974Y-145713547D01*
X144248867Y-145703231D01*
X144251818Y-145688398D01*
X144259293Y-145650816D01*
X144260500Y-145644748D01*
X144260500Y-144105252D01*
X144254436Y-144074768D01*
X144251288Y-144058939D01*
X144251288Y-144058938D01*
X144248867Y-144046769D01*
X144207594Y-143985000D01*
X146524341Y-143985000D01*
X146544937Y-144220408D01*
X146546361Y-144225722D01*
X146546361Y-144225723D01*
X146588205Y-144381887D01*
X146606097Y-144448663D01*
X146608419Y-144453643D01*
X146608420Y-144453645D01*
X146701975Y-144654272D01*
X146705965Y-144662829D01*
X146841505Y-144856401D01*
X147008599Y-145023495D01*
X147013107Y-145026652D01*
X147013110Y-145026654D01*
X147197661Y-145155878D01*
X147202170Y-145159035D01*
X147207152Y-145161358D01*
X147207157Y-145161361D01*
X147347052Y-145226595D01*
X147416337Y-145258903D01*
X147421645Y-145260325D01*
X147421647Y-145260326D01*
X147638710Y-145318487D01*
X147644592Y-145320063D01*
X147880000Y-145340659D01*
X148115408Y-145320063D01*
X148121290Y-145318487D01*
X148338353Y-145260326D01*
X148338355Y-145260325D01*
X148343663Y-145258903D01*
X148412948Y-145226595D01*
X148552843Y-145161361D01*
X148552848Y-145161358D01*
X148557830Y-145159035D01*
X148562339Y-145155878D01*
X148746890Y-145026654D01*
X148746893Y-145026652D01*
X148751401Y-145023495D01*
X148918495Y-144856401D01*
X149054035Y-144662829D01*
X149058026Y-144654272D01*
X149151580Y-144453645D01*
X149151581Y-144453643D01*
X149153903Y-144448663D01*
X149171796Y-144381887D01*
X149213639Y-144225723D01*
X149213639Y-144225722D01*
X149215063Y-144220408D01*
X149235659Y-143985000D01*
X149215063Y-143749592D01*
X149213639Y-143744277D01*
X149155326Y-143526647D01*
X149155325Y-143526645D01*
X149153903Y-143521337D01*
X149151580Y-143516355D01*
X149056358Y-143312152D01*
X149056356Y-143312149D01*
X149054035Y-143307171D01*
X148918495Y-143113599D01*
X148751401Y-142946505D01*
X148746893Y-142943348D01*
X148746890Y-142943346D01*
X148562339Y-142814122D01*
X148562336Y-142814120D01*
X148557830Y-142810965D01*
X148552848Y-142808642D01*
X148552843Y-142808639D01*
X148348645Y-142713420D01*
X148348644Y-142713419D01*
X148343663Y-142711097D01*
X148338355Y-142709675D01*
X148338353Y-142709674D01*
X148120723Y-142651361D01*
X148120722Y-142651361D01*
X148115408Y-142649937D01*
X147880000Y-142629341D01*
X147644592Y-142649937D01*
X147639278Y-142651361D01*
X147639277Y-142651361D01*
X147421647Y-142709674D01*
X147421645Y-142709675D01*
X147416337Y-142711097D01*
X147411357Y-142713419D01*
X147411355Y-142713420D01*
X147207152Y-142808642D01*
X147207149Y-142808644D01*
X147202171Y-142810965D01*
X147008599Y-142946505D01*
X146841505Y-143113599D01*
X146705965Y-143307171D01*
X146703644Y-143312149D01*
X146703642Y-143312152D01*
X146608420Y-143516355D01*
X146606097Y-143521337D01*
X146604675Y-143526645D01*
X146604674Y-143526647D01*
X146546361Y-143744277D01*
X146544937Y-143749592D01*
X146524341Y-143985000D01*
X144207594Y-143985000D01*
X144204552Y-143980448D01*
X144138231Y-143936133D01*
X144126062Y-143933712D01*
X144126061Y-143933712D01*
X144085816Y-143925707D01*
X144079748Y-143924500D01*
X143108880Y-143924500D01*
X143040759Y-143904498D01*
X142994266Y-143850842D01*
X142984162Y-143780568D01*
X143013498Y-143716170D01*
X143070426Y-143650218D01*
X143070432Y-143650210D01*
X143074454Y-143645550D01*
X143078589Y-143638272D01*
X143128837Y-143549818D01*
X143166526Y-143483474D01*
X143225364Y-143306601D01*
X143248727Y-143121668D01*
X143249099Y-143095000D01*
X143230909Y-142909487D01*
X143229128Y-142903588D01*
X143229127Y-142903583D01*
X143178814Y-142736939D01*
X143177033Y-142731040D01*
X143109806Y-142604604D01*
X143092416Y-142571898D01*
X143092414Y-142571895D01*
X143089522Y-142566456D01*
X143085632Y-142561686D01*
X143085629Y-142561682D01*
X142975605Y-142426780D01*
X142975602Y-142426777D01*
X142971710Y-142422005D01*
X142966056Y-142417327D01*
X142832834Y-142307116D01*
X142828085Y-142303187D01*
X142664116Y-142214529D01*
X142502144Y-142164391D01*
X142491936Y-142161231D01*
X142491933Y-142161230D01*
X142486049Y-142159409D01*
X142479924Y-142158765D01*
X142479923Y-142158765D01*
X142306796Y-142140568D01*
X142306795Y-142140568D01*
X142300668Y-142139924D01*
X142222549Y-142147033D01*
X142121171Y-142156259D01*
X142121168Y-142156260D01*
X142115032Y-142156818D01*
X142109122Y-142158557D01*
X142109119Y-142158558D01*
X141956216Y-142203561D01*
X141936214Y-142209448D01*
X141771023Y-142295807D01*
X141625752Y-142412608D01*
X141505935Y-142555401D01*
X141502971Y-142560793D01*
X141502968Y-142560797D01*
X141453963Y-142649937D01*
X141416135Y-142718746D01*
X141414273Y-142724615D01*
X141414272Y-142724618D01*
X141398409Y-142774625D01*
X141358746Y-142833509D01*
X141293544Y-142861602D01*
X141223504Y-142849985D01*
X141170864Y-142802345D01*
X141157685Y-142772945D01*
X141146814Y-142736940D01*
X141146814Y-142736939D01*
X141145033Y-142731040D01*
X141077806Y-142604604D01*
X141060416Y-142571898D01*
X141060414Y-142571895D01*
X141057522Y-142566456D01*
X141053632Y-142561686D01*
X141053629Y-142561682D01*
X140943605Y-142426780D01*
X140943602Y-142426777D01*
X140939710Y-142422005D01*
X140934056Y-142417327D01*
X140800834Y-142307116D01*
X140796085Y-142303187D01*
X140632116Y-142214529D01*
X140470144Y-142164391D01*
X140459936Y-142161231D01*
X140459933Y-142161230D01*
X140454049Y-142159409D01*
X140447924Y-142158765D01*
X140447923Y-142158765D01*
X140274796Y-142140568D01*
X140274795Y-142140568D01*
X140268668Y-142139924D01*
X140190549Y-142147033D01*
X140089171Y-142156259D01*
X140089168Y-142156260D01*
X140083032Y-142156818D01*
X140077122Y-142158557D01*
X140077119Y-142158558D01*
X139924216Y-142203561D01*
X139904214Y-142209448D01*
X139739023Y-142295807D01*
X139593752Y-142412608D01*
X139473935Y-142555401D01*
X139470971Y-142560793D01*
X139470968Y-142560797D01*
X139421963Y-142649937D01*
X139384135Y-142718746D01*
X139382273Y-142724615D01*
X139382272Y-142724618D01*
X139366409Y-142774625D01*
X139326746Y-142833509D01*
X139261544Y-142861602D01*
X139191504Y-142849985D01*
X139138864Y-142802345D01*
X139125685Y-142772945D01*
X139114814Y-142736940D01*
X139114814Y-142736939D01*
X139113033Y-142731040D01*
X139045806Y-142604604D01*
X139028416Y-142571898D01*
X139028414Y-142571895D01*
X139025522Y-142566456D01*
X139021632Y-142561686D01*
X139021629Y-142561682D01*
X138911605Y-142426780D01*
X138911602Y-142426777D01*
X138907710Y-142422005D01*
X138902056Y-142417327D01*
X138768834Y-142307116D01*
X138764085Y-142303187D01*
X138600116Y-142214529D01*
X138438144Y-142164391D01*
X138427936Y-142161231D01*
X138427933Y-142161230D01*
X138422049Y-142159409D01*
X138415924Y-142158765D01*
X138415923Y-142158765D01*
X138242796Y-142140568D01*
X138242795Y-142140568D01*
X138236668Y-142139924D01*
X138158549Y-142147033D01*
X138057171Y-142156259D01*
X138057168Y-142156260D01*
X138051032Y-142156818D01*
X138045122Y-142158557D01*
X138045119Y-142158558D01*
X137892216Y-142203561D01*
X137872214Y-142209448D01*
X137707023Y-142295807D01*
X137561752Y-142412608D01*
X137441935Y-142555401D01*
X137438971Y-142560793D01*
X137438968Y-142560797D01*
X137389963Y-142649937D01*
X137352135Y-142718746D01*
X137350273Y-142724615D01*
X137350272Y-142724618D01*
X137334409Y-142774625D01*
X137294746Y-142833509D01*
X137229544Y-142861602D01*
X137159504Y-142849985D01*
X137106864Y-142802345D01*
X137093685Y-142772945D01*
X137082814Y-142736940D01*
X137082814Y-142736939D01*
X137081033Y-142731040D01*
X137013806Y-142604604D01*
X136996416Y-142571898D01*
X136996414Y-142571895D01*
X136993522Y-142566456D01*
X136989632Y-142561686D01*
X136989629Y-142561682D01*
X136879605Y-142426780D01*
X136879602Y-142426777D01*
X136875710Y-142422005D01*
X136870056Y-142417327D01*
X136736834Y-142307116D01*
X136732085Y-142303187D01*
X136568116Y-142214529D01*
X136406144Y-142164391D01*
X136395936Y-142161231D01*
X136395933Y-142161230D01*
X136390049Y-142159409D01*
X136383924Y-142158765D01*
X136383923Y-142158765D01*
X136210796Y-142140568D01*
X136210795Y-142140568D01*
X136204668Y-142139924D01*
X136126549Y-142147033D01*
X136025171Y-142156259D01*
X136025168Y-142156260D01*
X136019032Y-142156818D01*
X136013122Y-142158557D01*
X136013119Y-142158558D01*
X135860216Y-142203561D01*
X135840214Y-142209448D01*
X135675023Y-142295807D01*
X135529752Y-142412608D01*
X135409935Y-142555401D01*
X135406971Y-142560793D01*
X135406968Y-142560797D01*
X135357963Y-142649937D01*
X135320135Y-142718746D01*
X135318274Y-142724613D01*
X135318273Y-142724615D01*
X135278503Y-142849985D01*
X135263772Y-142896424D01*
X135242994Y-143081665D01*
X135258592Y-143267414D01*
X135260291Y-143273339D01*
X135302018Y-143418858D01*
X135309971Y-143446595D01*
X135324829Y-143475505D01*
X135384832Y-143592257D01*
X135395176Y-143612385D01*
X135510959Y-143758468D01*
X135515652Y-143762462D01*
X135515653Y-143762463D01*
X135531301Y-143775781D01*
X135652912Y-143879279D01*
X135815627Y-143970217D01*
X135992907Y-144027819D01*
X136177998Y-144049890D01*
X136184133Y-144049418D01*
X136184135Y-144049418D01*
X136357710Y-144036062D01*
X136357715Y-144036061D01*
X136363851Y-144035589D01*
X136369780Y-144033934D01*
X136369789Y-144033932D01*
X136381429Y-144030682D01*
X136452419Y-144031629D01*
X136511628Y-144070807D01*
X136540257Y-144135775D01*
X136529216Y-144205908D01*
X136511835Y-144233029D01*
X136425935Y-144335401D01*
X136422971Y-144340793D01*
X136422968Y-144340797D01*
X136358372Y-144458297D01*
X136336135Y-144498746D01*
X136334274Y-144504613D01*
X136334273Y-144504615D01*
X136281634Y-144670554D01*
X136279772Y-144676424D01*
X136258994Y-144861665D01*
X136259510Y-144867809D01*
X136273848Y-145038550D01*
X136274592Y-145047414D01*
X136276291Y-145053339D01*
X136316738Y-145194394D01*
X136325971Y-145226595D01*
X136343610Y-145260916D01*
X136404873Y-145380120D01*
X136411176Y-145392385D01*
X136526959Y-145538468D01*
X136531652Y-145542462D01*
X136531653Y-145542463D01*
X136540306Y-145549827D01*
X136554598Y-145561990D01*
X136569163Y-145574386D01*
X136608076Y-145633768D01*
X136613500Y-145670340D01*
X136613500Y-147985075D01*
X136593498Y-148053196D01*
X136576595Y-148074170D01*
X135288170Y-149362595D01*
X135225858Y-149396621D01*
X135199075Y-149399500D01*
X134144128Y-149399500D01*
X134076007Y-149379498D01*
X134029514Y-149325842D01*
X134019410Y-149255568D01*
X134048904Y-149190988D01*
X134099487Y-149155673D01*
X134187495Y-149122330D01*
X134187498Y-149122329D01*
X134191765Y-149120712D01*
X134429702Y-148988550D01*
X134541019Y-148903595D01*
X134642443Y-148826191D01*
X134642447Y-148826188D01*
X134646068Y-148823424D01*
X134836331Y-148628794D01*
X134996506Y-148408737D01*
X135123236Y-148167863D01*
X135213867Y-147911218D01*
X135266500Y-147644177D01*
X135268011Y-147613818D01*
X135279806Y-147376905D01*
X135279806Y-147376899D01*
X135280033Y-147372336D01*
X135254182Y-147101389D01*
X135239702Y-147042212D01*
X135190574Y-146841445D01*
X135189489Y-146837011D01*
X135174254Y-146799397D01*
X135089023Y-146588969D01*
X135089020Y-146588963D01*
X135087310Y-146584741D01*
X135065018Y-146546668D01*
X135026115Y-146480229D01*
X134949783Y-146349863D01*
X134794779Y-146156040D01*
X134782643Y-146140865D01*
X134782642Y-146140863D01*
X134779791Y-146137299D01*
X134580895Y-145951501D01*
X134357261Y-145796360D01*
X134190801Y-145713547D01*
X134117661Y-145677160D01*
X134117658Y-145677159D01*
X134113574Y-145675127D01*
X133854938Y-145590342D01*
X133850446Y-145589562D01*
X133590553Y-145544437D01*
X133590545Y-145544436D01*
X133586772Y-145543781D01*
X133577316Y-145543310D01*
X133502349Y-145539578D01*
X133502341Y-145539578D01*
X133500778Y-145539500D01*
X133330856Y-145539500D01*
X133328588Y-145539665D01*
X133328576Y-145539665D01*
X133197532Y-145549174D01*
X133128536Y-145554180D01*
X133124081Y-145555164D01*
X133124078Y-145555164D01*
X132867218Y-145611873D01*
X132867214Y-145611874D01*
X132862758Y-145612858D01*
X132750774Y-145655285D01*
X132612505Y-145707670D01*
X132612502Y-145707671D01*
X132608235Y-145709288D01*
X132446793Y-145798961D01*
X132413865Y-145817251D01*
X132370298Y-145841450D01*
X132366666Y-145844222D01*
X132157557Y-146003809D01*
X132157553Y-146003812D01*
X132153932Y-146006576D01*
X131963669Y-146201206D01*
X131803494Y-146421263D01*
X131676764Y-146662137D01*
X131586133Y-146918782D01*
X131533500Y-147185823D01*
X131533273Y-147190380D01*
X131533273Y-147190381D01*
X131521350Y-147429887D01*
X131519967Y-147457664D01*
X131545818Y-147728611D01*
X131546903Y-147733045D01*
X131546904Y-147733051D01*
X131600592Y-147952452D01*
X131610511Y-147992989D01*
X131612223Y-147997215D01*
X131612224Y-147997219D01*
X131694143Y-148199468D01*
X131712690Y-148245259D01*
X131714994Y-148249194D01*
X131714996Y-148249198D01*
X131736545Y-148286000D01*
X131850217Y-148480137D01*
X131929014Y-148578668D01*
X132012217Y-148682707D01*
X132020209Y-148692701D01*
X132219105Y-148878499D01*
X132442739Y-149033640D01*
X132686426Y-149154873D01*
X132690764Y-149156295D01*
X132692295Y-149156923D01*
X132747731Y-149201278D01*
X132770387Y-149268563D01*
X132753070Y-149337415D01*
X132701277Y-149385975D01*
X132644484Y-149399500D01*
X122969128Y-149399500D01*
X122901007Y-149379498D01*
X122854514Y-149325842D01*
X122844410Y-149255568D01*
X122873904Y-149190988D01*
X122924487Y-149155673D01*
X123012495Y-149122330D01*
X123012498Y-149122329D01*
X123016765Y-149120712D01*
X123254702Y-148988550D01*
X123366019Y-148903595D01*
X123467443Y-148826191D01*
X123467447Y-148826188D01*
X123471068Y-148823424D01*
X123661331Y-148628794D01*
X123821506Y-148408737D01*
X123948236Y-148167863D01*
X124038867Y-147911218D01*
X124091500Y-147644177D01*
X124093011Y-147613818D01*
X124104806Y-147376905D01*
X124104806Y-147376899D01*
X124105033Y-147372336D01*
X124079182Y-147101389D01*
X124064702Y-147042212D01*
X124015574Y-146841445D01*
X124014489Y-146837011D01*
X123999254Y-146799397D01*
X123914023Y-146588969D01*
X123914020Y-146588963D01*
X123912310Y-146584741D01*
X123890018Y-146546668D01*
X123851115Y-146480229D01*
X123774783Y-146349863D01*
X123619779Y-146156040D01*
X123607643Y-146140865D01*
X123607642Y-146140863D01*
X123604791Y-146137299D01*
X123405895Y-145951501D01*
X123182261Y-145796360D01*
X123015801Y-145713547D01*
X122942661Y-145677160D01*
X122942658Y-145677159D01*
X122938574Y-145675127D01*
X122679938Y-145590342D01*
X122675446Y-145589562D01*
X122415553Y-145544437D01*
X122415545Y-145544436D01*
X122411772Y-145543781D01*
X122402316Y-145543310D01*
X122327349Y-145539578D01*
X122327341Y-145539578D01*
X122325778Y-145539500D01*
X122155856Y-145539500D01*
X122153588Y-145539665D01*
X122153576Y-145539665D01*
X122022532Y-145549174D01*
X121953536Y-145554180D01*
X121949081Y-145555164D01*
X121949078Y-145555164D01*
X121692218Y-145611873D01*
X121692214Y-145611874D01*
X121687758Y-145612858D01*
X121575774Y-145655285D01*
X121437505Y-145707670D01*
X121437502Y-145707671D01*
X121433235Y-145709288D01*
X121271793Y-145798961D01*
X121238865Y-145817251D01*
X121195298Y-145841450D01*
X121191666Y-145844222D01*
X120982557Y-146003809D01*
X120982553Y-146003812D01*
X120978932Y-146006576D01*
X120788669Y-146201206D01*
X120628494Y-146421263D01*
X120501764Y-146662137D01*
X120411133Y-146918782D01*
X120358500Y-147185823D01*
X120358273Y-147190380D01*
X120358273Y-147190381D01*
X120346350Y-147429887D01*
X120344967Y-147457664D01*
X120370818Y-147728611D01*
X120371903Y-147733045D01*
X120371904Y-147733051D01*
X120425592Y-147952452D01*
X120435511Y-147992989D01*
X120437223Y-147997215D01*
X120437224Y-147997219D01*
X120519143Y-148199468D01*
X120537690Y-148245259D01*
X120539994Y-148249194D01*
X120539996Y-148249198D01*
X120561545Y-148286000D01*
X120675217Y-148480137D01*
X120754014Y-148578668D01*
X120837217Y-148682707D01*
X120845209Y-148692701D01*
X121044105Y-148878499D01*
X121267739Y-149033640D01*
X121511426Y-149154873D01*
X121515764Y-149156295D01*
X121517295Y-149156923D01*
X121572731Y-149201278D01*
X121595387Y-149268563D01*
X121578070Y-149337415D01*
X121526277Y-149385975D01*
X121469484Y-149399500D01*
X113753925Y-149399500D01*
X113685804Y-149379498D01*
X113639311Y-149325842D01*
X113629207Y-149255568D01*
X113658701Y-149190988D01*
X113664830Y-149184405D01*
X113729938Y-149119297D01*
X113742329Y-149108429D01*
X113760736Y-149094305D01*
X113767282Y-149089282D01*
X113782550Y-149069385D01*
X113858509Y-148970392D01*
X113863536Y-148963841D01*
X113924044Y-148817762D01*
X113939500Y-148700361D01*
X113944682Y-148661000D01*
X113940578Y-148629827D01*
X113939500Y-148613381D01*
X113939500Y-145673546D01*
X113959502Y-145605425D01*
X113987926Y-145574257D01*
X113997655Y-145566656D01*
X114004283Y-145558978D01*
X114115430Y-145430212D01*
X114115431Y-145430211D01*
X114119454Y-145425550D01*
X114211526Y-145263474D01*
X114234506Y-145194394D01*
X114274987Y-145136069D01*
X114340575Y-145108889D01*
X114410446Y-145121484D01*
X114462415Y-145169854D01*
X114475183Y-145199435D01*
X114482971Y-145226595D01*
X114500610Y-145260916D01*
X114561873Y-145380120D01*
X114568176Y-145392385D01*
X114683959Y-145538468D01*
X114688652Y-145542462D01*
X114688653Y-145542463D01*
X114702033Y-145553850D01*
X114825912Y-145659279D01*
X114831290Y-145662285D01*
X114831292Y-145662286D01*
X114878093Y-145688442D01*
X114988627Y-145750217D01*
X115165907Y-145807819D01*
X115350998Y-145829890D01*
X115357133Y-145829418D01*
X115357135Y-145829418D01*
X115530710Y-145816062D01*
X115530715Y-145816061D01*
X115536851Y-145815589D01*
X115542781Y-145813933D01*
X115542783Y-145813933D01*
X115710459Y-145767117D01*
X115710458Y-145767117D01*
X115716387Y-145765462D01*
X115882768Y-145681417D01*
X115892843Y-145673546D01*
X116024794Y-145570454D01*
X116024795Y-145570453D01*
X116029655Y-145566656D01*
X116151454Y-145425550D01*
X116243526Y-145263474D01*
X116266506Y-145194394D01*
X116306987Y-145136069D01*
X116372575Y-145108889D01*
X116442446Y-145121484D01*
X116494415Y-145169854D01*
X116507183Y-145199435D01*
X116514971Y-145226595D01*
X116532610Y-145260916D01*
X116593873Y-145380120D01*
X116600176Y-145392385D01*
X116715959Y-145538468D01*
X116720652Y-145542462D01*
X116720653Y-145542463D01*
X116734033Y-145553850D01*
X116857912Y-145659279D01*
X116863290Y-145662285D01*
X116863292Y-145662286D01*
X116910093Y-145688442D01*
X117020627Y-145750217D01*
X117197907Y-145807819D01*
X117382998Y-145829890D01*
X117389133Y-145829418D01*
X117389135Y-145829418D01*
X117562710Y-145816062D01*
X117562715Y-145816061D01*
X117568851Y-145815589D01*
X117574781Y-145813933D01*
X117574783Y-145813933D01*
X117742459Y-145767117D01*
X117742458Y-145767117D01*
X117748387Y-145765462D01*
X117914768Y-145681417D01*
X117924843Y-145673546D01*
X118056794Y-145570454D01*
X118056795Y-145570453D01*
X118061655Y-145566656D01*
X118183454Y-145425550D01*
X118202295Y-145392385D01*
X118248944Y-145310267D01*
X118299983Y-145260916D01*
X118369601Y-145246994D01*
X118435695Y-145272920D01*
X118477280Y-145330463D01*
X118484500Y-145372504D01*
X118484500Y-145644748D01*
X118485707Y-145650816D01*
X118493183Y-145688398D01*
X118496133Y-145703231D01*
X118503026Y-145713547D01*
X118505970Y-145717953D01*
X118540448Y-145769552D01*
X118606769Y-145813867D01*
X118618938Y-145816288D01*
X118618939Y-145816288D01*
X118659184Y-145824293D01*
X118665252Y-145825500D01*
X120204748Y-145825500D01*
X120210816Y-145824293D01*
X120251061Y-145816288D01*
X120251062Y-145816288D01*
X120263231Y-145813867D01*
X120329552Y-145769552D01*
X120364030Y-145717953D01*
X120366974Y-145713547D01*
X120373867Y-145703231D01*
X120376818Y-145688398D01*
X120384293Y-145650816D01*
X120385500Y-145644748D01*
X120385500Y-144105252D01*
X120379436Y-144074768D01*
X120376288Y-144058939D01*
X120376288Y-144058938D01*
X120373867Y-144046769D01*
X120332594Y-143985000D01*
X122649341Y-143985000D01*
X122669937Y-144220408D01*
X122671361Y-144225722D01*
X122671361Y-144225723D01*
X122713205Y-144381887D01*
X122731097Y-144448663D01*
X122733419Y-144453643D01*
X122733420Y-144453645D01*
X122826975Y-144654272D01*
X122830965Y-144662829D01*
X122966505Y-144856401D01*
X123133599Y-145023495D01*
X123138107Y-145026652D01*
X123138110Y-145026654D01*
X123322661Y-145155878D01*
X123327170Y-145159035D01*
X123332152Y-145161358D01*
X123332157Y-145161361D01*
X123472052Y-145226595D01*
X123541337Y-145258903D01*
X123546645Y-145260325D01*
X123546647Y-145260326D01*
X123763710Y-145318487D01*
X123769592Y-145320063D01*
X124005000Y-145340659D01*
X124240408Y-145320063D01*
X124246290Y-145318487D01*
X124463353Y-145260326D01*
X124463355Y-145260325D01*
X124468663Y-145258903D01*
X124537948Y-145226595D01*
X124677843Y-145161361D01*
X124677848Y-145161358D01*
X124682830Y-145159035D01*
X124687339Y-145155878D01*
X124871890Y-145026654D01*
X124871893Y-145026652D01*
X124876401Y-145023495D01*
X125043495Y-144856401D01*
X125179035Y-144662829D01*
X125183026Y-144654272D01*
X125276580Y-144453645D01*
X125276581Y-144453643D01*
X125278903Y-144448663D01*
X125296796Y-144381887D01*
X125338639Y-144225723D01*
X125338639Y-144225722D01*
X125340063Y-144220408D01*
X125360659Y-143985000D01*
X130264341Y-143985000D01*
X130284937Y-144220408D01*
X130286361Y-144225722D01*
X130286361Y-144225723D01*
X130328205Y-144381887D01*
X130346097Y-144448663D01*
X130348419Y-144453643D01*
X130348420Y-144453645D01*
X130441975Y-144654272D01*
X130445965Y-144662829D01*
X130581505Y-144856401D01*
X130748599Y-145023495D01*
X130753107Y-145026652D01*
X130753110Y-145026654D01*
X130937661Y-145155878D01*
X130942170Y-145159035D01*
X130947152Y-145161358D01*
X130947157Y-145161361D01*
X131087052Y-145226595D01*
X131156337Y-145258903D01*
X131161645Y-145260325D01*
X131161647Y-145260326D01*
X131378710Y-145318487D01*
X131384592Y-145320063D01*
X131620000Y-145340659D01*
X131855408Y-145320063D01*
X131861290Y-145318487D01*
X132078353Y-145260326D01*
X132078355Y-145260325D01*
X132083663Y-145258903D01*
X132152948Y-145226595D01*
X132292843Y-145161361D01*
X132292848Y-145161358D01*
X132297830Y-145159035D01*
X132302339Y-145155878D01*
X132486890Y-145026654D01*
X132486893Y-145026652D01*
X132491401Y-145023495D01*
X132658495Y-144856401D01*
X132794035Y-144662829D01*
X132798026Y-144654272D01*
X132891580Y-144453645D01*
X132891581Y-144453643D01*
X132893903Y-144448663D01*
X132911796Y-144381887D01*
X132953639Y-144225723D01*
X132953639Y-144225722D01*
X132955063Y-144220408D01*
X132975659Y-143985000D01*
X132955063Y-143749592D01*
X132953639Y-143744277D01*
X132895326Y-143526647D01*
X132895325Y-143526645D01*
X132893903Y-143521337D01*
X132891580Y-143516355D01*
X132796358Y-143312152D01*
X132796356Y-143312149D01*
X132794035Y-143307171D01*
X132658495Y-143113599D01*
X132491401Y-142946505D01*
X132486893Y-142943348D01*
X132486890Y-142943346D01*
X132302339Y-142814122D01*
X132302336Y-142814120D01*
X132297830Y-142810965D01*
X132292848Y-142808642D01*
X132292843Y-142808639D01*
X132088645Y-142713420D01*
X132088644Y-142713419D01*
X132083663Y-142711097D01*
X132078355Y-142709675D01*
X132078353Y-142709674D01*
X131860723Y-142651361D01*
X131860722Y-142651361D01*
X131855408Y-142649937D01*
X131620000Y-142629341D01*
X131384592Y-142649937D01*
X131379278Y-142651361D01*
X131379277Y-142651361D01*
X131161647Y-142709674D01*
X131161645Y-142709675D01*
X131156337Y-142711097D01*
X131151357Y-142713419D01*
X131151355Y-142713420D01*
X130947152Y-142808642D01*
X130947149Y-142808644D01*
X130942171Y-142810965D01*
X130748599Y-142946505D01*
X130581505Y-143113599D01*
X130445965Y-143307171D01*
X130443644Y-143312149D01*
X130443642Y-143312152D01*
X130348420Y-143516355D01*
X130346097Y-143521337D01*
X130344675Y-143526645D01*
X130344674Y-143526647D01*
X130286361Y-143744277D01*
X130284937Y-143749592D01*
X130264341Y-143985000D01*
X125360659Y-143985000D01*
X125340063Y-143749592D01*
X125338639Y-143744277D01*
X125280326Y-143526647D01*
X125280325Y-143526645D01*
X125278903Y-143521337D01*
X125276580Y-143516355D01*
X125181358Y-143312152D01*
X125181356Y-143312149D01*
X125179035Y-143307171D01*
X125043495Y-143113599D01*
X124876401Y-142946505D01*
X124871893Y-142943348D01*
X124871890Y-142943346D01*
X124687339Y-142814122D01*
X124687336Y-142814120D01*
X124682830Y-142810965D01*
X124677848Y-142808642D01*
X124677843Y-142808639D01*
X124473645Y-142713420D01*
X124473644Y-142713419D01*
X124468663Y-142711097D01*
X124463355Y-142709675D01*
X124463353Y-142709674D01*
X124245723Y-142651361D01*
X124245722Y-142651361D01*
X124240408Y-142649937D01*
X124005000Y-142629341D01*
X123769592Y-142649937D01*
X123764278Y-142651361D01*
X123764277Y-142651361D01*
X123546647Y-142709674D01*
X123546645Y-142709675D01*
X123541337Y-142711097D01*
X123536357Y-142713419D01*
X123536355Y-142713420D01*
X123332152Y-142808642D01*
X123332149Y-142808644D01*
X123327171Y-142810965D01*
X123133599Y-142946505D01*
X122966505Y-143113599D01*
X122830965Y-143307171D01*
X122828644Y-143312149D01*
X122828642Y-143312152D01*
X122733420Y-143516355D01*
X122731097Y-143521337D01*
X122729675Y-143526645D01*
X122729674Y-143526647D01*
X122671361Y-143744277D01*
X122669937Y-143749592D01*
X122649341Y-143985000D01*
X120332594Y-143985000D01*
X120329552Y-143980448D01*
X120263231Y-143936133D01*
X120251062Y-143933712D01*
X120251061Y-143933712D01*
X120210816Y-143925707D01*
X120204748Y-143924500D01*
X119233880Y-143924500D01*
X119165759Y-143904498D01*
X119119266Y-143850842D01*
X119109162Y-143780568D01*
X119138498Y-143716170D01*
X119195426Y-143650218D01*
X119195432Y-143650210D01*
X119199454Y-143645550D01*
X119203589Y-143638272D01*
X119253837Y-143549818D01*
X119291526Y-143483474D01*
X119350364Y-143306601D01*
X119373727Y-143121668D01*
X119374099Y-143095000D01*
X119355909Y-142909487D01*
X119354128Y-142903588D01*
X119354127Y-142903583D01*
X119303814Y-142736939D01*
X119302033Y-142731040D01*
X119234806Y-142604604D01*
X119217416Y-142571898D01*
X119217414Y-142571895D01*
X119214522Y-142566456D01*
X119210632Y-142561686D01*
X119210629Y-142561682D01*
X119100605Y-142426780D01*
X119100602Y-142426777D01*
X119096710Y-142422005D01*
X119091056Y-142417327D01*
X118957834Y-142307116D01*
X118953085Y-142303187D01*
X118789116Y-142214529D01*
X118627144Y-142164391D01*
X118616936Y-142161231D01*
X118616933Y-142161230D01*
X118611049Y-142159409D01*
X118604924Y-142158765D01*
X118604923Y-142158765D01*
X118431796Y-142140568D01*
X118431795Y-142140568D01*
X118425668Y-142139924D01*
X118347549Y-142147033D01*
X118246171Y-142156259D01*
X118246168Y-142156260D01*
X118240032Y-142156818D01*
X118234122Y-142158557D01*
X118234119Y-142158558D01*
X118081216Y-142203561D01*
X118061214Y-142209448D01*
X117896023Y-142295807D01*
X117750752Y-142412608D01*
X117630935Y-142555401D01*
X117627971Y-142560793D01*
X117627968Y-142560797D01*
X117578963Y-142649937D01*
X117541135Y-142718746D01*
X117539273Y-142724615D01*
X117539272Y-142724618D01*
X117523409Y-142774625D01*
X117483746Y-142833509D01*
X117418544Y-142861602D01*
X117348504Y-142849985D01*
X117295864Y-142802345D01*
X117282685Y-142772945D01*
X117271814Y-142736940D01*
X117271814Y-142736939D01*
X117270033Y-142731040D01*
X117202806Y-142604604D01*
X117185416Y-142571898D01*
X117185414Y-142571895D01*
X117182522Y-142566456D01*
X117178632Y-142561686D01*
X117178629Y-142561682D01*
X117068605Y-142426780D01*
X117068602Y-142426777D01*
X117064710Y-142422005D01*
X117059056Y-142417327D01*
X116925834Y-142307116D01*
X116921085Y-142303187D01*
X116757116Y-142214529D01*
X116595144Y-142164391D01*
X116584936Y-142161231D01*
X116584933Y-142161230D01*
X116579049Y-142159409D01*
X116572924Y-142158765D01*
X116572923Y-142158765D01*
X116399796Y-142140568D01*
X116399795Y-142140568D01*
X116393668Y-142139924D01*
X116315549Y-142147033D01*
X116214171Y-142156259D01*
X116214168Y-142156260D01*
X116208032Y-142156818D01*
X116202122Y-142158557D01*
X116202119Y-142158558D01*
X116049216Y-142203561D01*
X116029214Y-142209448D01*
X115864023Y-142295807D01*
X115718752Y-142412608D01*
X115598935Y-142555401D01*
X115595971Y-142560793D01*
X115595968Y-142560797D01*
X115546963Y-142649937D01*
X115509135Y-142718746D01*
X115507273Y-142724615D01*
X115507272Y-142724618D01*
X115491409Y-142774625D01*
X115451746Y-142833509D01*
X115386544Y-142861602D01*
X115316504Y-142849985D01*
X115263864Y-142802345D01*
X115250685Y-142772945D01*
X115239814Y-142736940D01*
X115239814Y-142736939D01*
X115238033Y-142731040D01*
X115170806Y-142604604D01*
X115153416Y-142571898D01*
X115153414Y-142571895D01*
X115150522Y-142566456D01*
X115146632Y-142561686D01*
X115146629Y-142561682D01*
X115036605Y-142426780D01*
X115036602Y-142426777D01*
X115032710Y-142422005D01*
X115027056Y-142417327D01*
X114893834Y-142307116D01*
X114889085Y-142303187D01*
X114725116Y-142214529D01*
X114563144Y-142164391D01*
X114552936Y-142161231D01*
X114552933Y-142161230D01*
X114547049Y-142159409D01*
X114540924Y-142158765D01*
X114540923Y-142158765D01*
X114367796Y-142140568D01*
X114367795Y-142140568D01*
X114361668Y-142139924D01*
X114283549Y-142147033D01*
X114182171Y-142156259D01*
X114182168Y-142156260D01*
X114176032Y-142156818D01*
X114170122Y-142158557D01*
X114170119Y-142158558D01*
X114017216Y-142203561D01*
X113997214Y-142209448D01*
X113832023Y-142295807D01*
X113686752Y-142412608D01*
X113566935Y-142555401D01*
X113563971Y-142560793D01*
X113563968Y-142560797D01*
X113514963Y-142649937D01*
X113477135Y-142718746D01*
X113475273Y-142724615D01*
X113475272Y-142724618D01*
X113459409Y-142774625D01*
X113419746Y-142833509D01*
X113354544Y-142861602D01*
X113284504Y-142849985D01*
X113231864Y-142802345D01*
X113218685Y-142772945D01*
X113207814Y-142736940D01*
X113207814Y-142736939D01*
X113206033Y-142731040D01*
X113138806Y-142604604D01*
X113121416Y-142571898D01*
X113121414Y-142571895D01*
X113118522Y-142566456D01*
X113114632Y-142561686D01*
X113114629Y-142561682D01*
X113004605Y-142426780D01*
X113004602Y-142426777D01*
X113000710Y-142422005D01*
X112995056Y-142417327D01*
X112861834Y-142307116D01*
X112857085Y-142303187D01*
X112693116Y-142214529D01*
X112531144Y-142164391D01*
X112520936Y-142161231D01*
X112520933Y-142161230D01*
X112515049Y-142159409D01*
X112508924Y-142158765D01*
X112508923Y-142158765D01*
X112335796Y-142140568D01*
X112335795Y-142140568D01*
X112329668Y-142139924D01*
X112251549Y-142147033D01*
X112150171Y-142156259D01*
X112150168Y-142156260D01*
X112144032Y-142156818D01*
X112138122Y-142158557D01*
X112138119Y-142158558D01*
X111985216Y-142203561D01*
X111965214Y-142209448D01*
X111800023Y-142295807D01*
X111654752Y-142412608D01*
X111534935Y-142555401D01*
X111531971Y-142560793D01*
X111531968Y-142560797D01*
X111482963Y-142649937D01*
X111445135Y-142718746D01*
X111443274Y-142724613D01*
X111443273Y-142724615D01*
X111403503Y-142849985D01*
X111388772Y-142896424D01*
X111367994Y-143081665D01*
X111383592Y-143267414D01*
X111385291Y-143273339D01*
X111427018Y-143418858D01*
X111434971Y-143446595D01*
X111449829Y-143475505D01*
X111509832Y-143592257D01*
X111520176Y-143612385D01*
X111635959Y-143758468D01*
X111640652Y-143762462D01*
X111640653Y-143762463D01*
X111656301Y-143775781D01*
X111777912Y-143879279D01*
X111940627Y-143970217D01*
X112117907Y-144027819D01*
X112302998Y-144049890D01*
X112309133Y-144049418D01*
X112309135Y-144049418D01*
X112482710Y-144036062D01*
X112482715Y-144036061D01*
X112488851Y-144035589D01*
X112494780Y-144033934D01*
X112494789Y-144033932D01*
X112506429Y-144030682D01*
X112577419Y-144031629D01*
X112636628Y-144070807D01*
X112665257Y-144135775D01*
X112654216Y-144205908D01*
X112636835Y-144233029D01*
X112550935Y-144335401D01*
X112547971Y-144340793D01*
X112547968Y-144340797D01*
X112483372Y-144458297D01*
X112461135Y-144498746D01*
X112459274Y-144504613D01*
X112459273Y-144504615D01*
X112406634Y-144670554D01*
X112404772Y-144676424D01*
X112383994Y-144861665D01*
X112384510Y-144867809D01*
X112398848Y-145038550D01*
X112399592Y-145047414D01*
X112401291Y-145053339D01*
X112441738Y-145194394D01*
X112450971Y-145226595D01*
X112468610Y-145260916D01*
X112529873Y-145380120D01*
X112536176Y-145392385D01*
X112651959Y-145538468D01*
X112656652Y-145542462D01*
X112656653Y-145542463D01*
X112665306Y-145549827D01*
X112679598Y-145561990D01*
X112694163Y-145574386D01*
X112733076Y-145633768D01*
X112738500Y-145670340D01*
X112738500Y-148360075D01*
X112718498Y-148428196D01*
X112701595Y-148449170D01*
X111788170Y-149362595D01*
X111725858Y-149396621D01*
X111699075Y-149399500D01*
X110269128Y-149399500D01*
X110201007Y-149379498D01*
X110154514Y-149325842D01*
X110144410Y-149255568D01*
X110173904Y-149190988D01*
X110224487Y-149155673D01*
X110312495Y-149122330D01*
X110312498Y-149122329D01*
X110316765Y-149120712D01*
X110554702Y-148988550D01*
X110666019Y-148903595D01*
X110767443Y-148826191D01*
X110767447Y-148826188D01*
X110771068Y-148823424D01*
X110961331Y-148628794D01*
X111121506Y-148408737D01*
X111248236Y-148167863D01*
X111338867Y-147911218D01*
X111391500Y-147644177D01*
X111393011Y-147613818D01*
X111404806Y-147376905D01*
X111404806Y-147376899D01*
X111405033Y-147372336D01*
X111379182Y-147101389D01*
X111364702Y-147042212D01*
X111315574Y-146841445D01*
X111314489Y-146837011D01*
X111299254Y-146799397D01*
X111214023Y-146588969D01*
X111214020Y-146588963D01*
X111212310Y-146584741D01*
X111190018Y-146546668D01*
X111151115Y-146480229D01*
X111074783Y-146349863D01*
X110919779Y-146156040D01*
X110907643Y-146140865D01*
X110907642Y-146140863D01*
X110904791Y-146137299D01*
X110705895Y-145951501D01*
X110482261Y-145796360D01*
X110315801Y-145713547D01*
X110242661Y-145677160D01*
X110242658Y-145677159D01*
X110238574Y-145675127D01*
X109979938Y-145590342D01*
X109975446Y-145589562D01*
X109715553Y-145544437D01*
X109715545Y-145544436D01*
X109711772Y-145543781D01*
X109702316Y-145543310D01*
X109627349Y-145539578D01*
X109627341Y-145539578D01*
X109625778Y-145539500D01*
X109455856Y-145539500D01*
X109453588Y-145539665D01*
X109453576Y-145539665D01*
X109322532Y-145549174D01*
X109253536Y-145554180D01*
X109249081Y-145555164D01*
X109249078Y-145555164D01*
X108992218Y-145611873D01*
X108992214Y-145611874D01*
X108987758Y-145612858D01*
X108875774Y-145655285D01*
X108737505Y-145707670D01*
X108737502Y-145707671D01*
X108733235Y-145709288D01*
X108571793Y-145798961D01*
X108538865Y-145817251D01*
X108495298Y-145841450D01*
X108491666Y-145844222D01*
X108282557Y-146003809D01*
X108282553Y-146003812D01*
X108278932Y-146006576D01*
X108088669Y-146201206D01*
X107928494Y-146421263D01*
X107801764Y-146662137D01*
X107711133Y-146918782D01*
X107658500Y-147185823D01*
X107658273Y-147190380D01*
X107658273Y-147190381D01*
X107646350Y-147429887D01*
X107644967Y-147457664D01*
X107670818Y-147728611D01*
X107671903Y-147733045D01*
X107671904Y-147733051D01*
X107725592Y-147952452D01*
X107735511Y-147992989D01*
X107737223Y-147997215D01*
X107737224Y-147997219D01*
X107819143Y-148199468D01*
X107837690Y-148245259D01*
X107839994Y-148249194D01*
X107839996Y-148249198D01*
X107861545Y-148286000D01*
X107975217Y-148480137D01*
X108054014Y-148578668D01*
X108137217Y-148682707D01*
X108145209Y-148692701D01*
X108344105Y-148878499D01*
X108567739Y-149033640D01*
X108811426Y-149154873D01*
X108815764Y-149156295D01*
X108817295Y-149156923D01*
X108872731Y-149201278D01*
X108895387Y-149268563D01*
X108878070Y-149337415D01*
X108826277Y-149385975D01*
X108769484Y-149399500D01*
X99094128Y-149399500D01*
X99026007Y-149379498D01*
X98979514Y-149325842D01*
X98969410Y-149255568D01*
X98998904Y-149190988D01*
X99049487Y-149155673D01*
X99137495Y-149122330D01*
X99137498Y-149122329D01*
X99141765Y-149120712D01*
X99379702Y-148988550D01*
X99491019Y-148903595D01*
X99592443Y-148826191D01*
X99592447Y-148826188D01*
X99596068Y-148823424D01*
X99786331Y-148628794D01*
X99946506Y-148408737D01*
X100073236Y-148167863D01*
X100163867Y-147911218D01*
X100216500Y-147644177D01*
X100218011Y-147613818D01*
X100229806Y-147376905D01*
X100229806Y-147376899D01*
X100230033Y-147372336D01*
X100204182Y-147101389D01*
X100189702Y-147042212D01*
X100140574Y-146841445D01*
X100139489Y-146837011D01*
X100124254Y-146799397D01*
X100039023Y-146588969D01*
X100039020Y-146588963D01*
X100037310Y-146584741D01*
X100015018Y-146546668D01*
X99976115Y-146480229D01*
X99899783Y-146349863D01*
X99744779Y-146156040D01*
X99732643Y-146140865D01*
X99732642Y-146140863D01*
X99729791Y-146137299D01*
X99530895Y-145951501D01*
X99307261Y-145796360D01*
X99140801Y-145713547D01*
X99067661Y-145677160D01*
X99067658Y-145677159D01*
X99063574Y-145675127D01*
X98804938Y-145590342D01*
X98800446Y-145589562D01*
X98540553Y-145544437D01*
X98540545Y-145544436D01*
X98536772Y-145543781D01*
X98527316Y-145543310D01*
X98452349Y-145539578D01*
X98452341Y-145539578D01*
X98450778Y-145539500D01*
X98280856Y-145539500D01*
X98278588Y-145539665D01*
X98278576Y-145539665D01*
X98147532Y-145549174D01*
X98078536Y-145554180D01*
X98074081Y-145555164D01*
X98074078Y-145555164D01*
X97817218Y-145611873D01*
X97817214Y-145611874D01*
X97812758Y-145612858D01*
X97700774Y-145655285D01*
X97562505Y-145707670D01*
X97562502Y-145707671D01*
X97558235Y-145709288D01*
X97396793Y-145798961D01*
X97363865Y-145817251D01*
X97320298Y-145841450D01*
X97316666Y-145844222D01*
X97107557Y-146003809D01*
X97107553Y-146003812D01*
X97103932Y-146006576D01*
X96913669Y-146201206D01*
X96753494Y-146421263D01*
X96626764Y-146662137D01*
X96536133Y-146918782D01*
X96483500Y-147185823D01*
X96483273Y-147190380D01*
X96483273Y-147190381D01*
X96471350Y-147429887D01*
X96469967Y-147457664D01*
X96495818Y-147728611D01*
X96496903Y-147733045D01*
X96496904Y-147733051D01*
X96550592Y-147952452D01*
X96560511Y-147992989D01*
X96562223Y-147997215D01*
X96562224Y-147997219D01*
X96644143Y-148199468D01*
X96662690Y-148245259D01*
X96664994Y-148249194D01*
X96664996Y-148249198D01*
X96686545Y-148286000D01*
X96800217Y-148480137D01*
X96879014Y-148578668D01*
X96962217Y-148682707D01*
X96970209Y-148692701D01*
X97169105Y-148878499D01*
X97392739Y-149033640D01*
X97636426Y-149154873D01*
X97640764Y-149156295D01*
X97642295Y-149156923D01*
X97697731Y-149201278D01*
X97720387Y-149268563D01*
X97703070Y-149337415D01*
X97651277Y-149385975D01*
X97594484Y-149399500D01*
X92800925Y-149399500D01*
X92732804Y-149379498D01*
X92711830Y-149362595D01*
X90101405Y-146752170D01*
X90067379Y-146689858D01*
X90064500Y-146663075D01*
X90064500Y-145673546D01*
X90084502Y-145605425D01*
X90112926Y-145574257D01*
X90122655Y-145566656D01*
X90129283Y-145558978D01*
X90240430Y-145430212D01*
X90240431Y-145430211D01*
X90244454Y-145425550D01*
X90336526Y-145263474D01*
X90359506Y-145194394D01*
X90399987Y-145136069D01*
X90465575Y-145108889D01*
X90535446Y-145121484D01*
X90587415Y-145169854D01*
X90600183Y-145199435D01*
X90607971Y-145226595D01*
X90625610Y-145260916D01*
X90686873Y-145380120D01*
X90693176Y-145392385D01*
X90808959Y-145538468D01*
X90813652Y-145542462D01*
X90813653Y-145542463D01*
X90827033Y-145553850D01*
X90950912Y-145659279D01*
X90956290Y-145662285D01*
X90956292Y-145662286D01*
X91003093Y-145688442D01*
X91113627Y-145750217D01*
X91290907Y-145807819D01*
X91475998Y-145829890D01*
X91482133Y-145829418D01*
X91482135Y-145829418D01*
X91655710Y-145816062D01*
X91655715Y-145816061D01*
X91661851Y-145815589D01*
X91667781Y-145813933D01*
X91667783Y-145813933D01*
X91835459Y-145767117D01*
X91835458Y-145767117D01*
X91841387Y-145765462D01*
X92007768Y-145681417D01*
X92017843Y-145673546D01*
X92149794Y-145570454D01*
X92149795Y-145570453D01*
X92154655Y-145566656D01*
X92276454Y-145425550D01*
X92368526Y-145263474D01*
X92391506Y-145194394D01*
X92431987Y-145136069D01*
X92497575Y-145108889D01*
X92567446Y-145121484D01*
X92619415Y-145169854D01*
X92632183Y-145199435D01*
X92639971Y-145226595D01*
X92657610Y-145260916D01*
X92718873Y-145380120D01*
X92725176Y-145392385D01*
X92840959Y-145538468D01*
X92845652Y-145542462D01*
X92845653Y-145542463D01*
X92859033Y-145553850D01*
X92982912Y-145659279D01*
X92988290Y-145662285D01*
X92988292Y-145662286D01*
X93035093Y-145688442D01*
X93145627Y-145750217D01*
X93322907Y-145807819D01*
X93507998Y-145829890D01*
X93514133Y-145829418D01*
X93514135Y-145829418D01*
X93687710Y-145816062D01*
X93687715Y-145816061D01*
X93693851Y-145815589D01*
X93699781Y-145813933D01*
X93699783Y-145813933D01*
X93867459Y-145767117D01*
X93867458Y-145767117D01*
X93873387Y-145765462D01*
X94039768Y-145681417D01*
X94049843Y-145673546D01*
X94181794Y-145570454D01*
X94181795Y-145570453D01*
X94186655Y-145566656D01*
X94308454Y-145425550D01*
X94327295Y-145392385D01*
X94373944Y-145310267D01*
X94424983Y-145260916D01*
X94494601Y-145246994D01*
X94560695Y-145272920D01*
X94602280Y-145330463D01*
X94609500Y-145372504D01*
X94609500Y-145644748D01*
X94610707Y-145650816D01*
X94618183Y-145688398D01*
X94621133Y-145703231D01*
X94628026Y-145713547D01*
X94630970Y-145717953D01*
X94665448Y-145769552D01*
X94731769Y-145813867D01*
X94743938Y-145816288D01*
X94743939Y-145816288D01*
X94784184Y-145824293D01*
X94790252Y-145825500D01*
X96329748Y-145825500D01*
X96335816Y-145824293D01*
X96376061Y-145816288D01*
X96376062Y-145816288D01*
X96388231Y-145813867D01*
X96454552Y-145769552D01*
X96489030Y-145717953D01*
X96491974Y-145713547D01*
X96498867Y-145703231D01*
X96501818Y-145688398D01*
X96509293Y-145650816D01*
X96510500Y-145644748D01*
X96510500Y-144105252D01*
X96504436Y-144074768D01*
X96501288Y-144058939D01*
X96501288Y-144058938D01*
X96498867Y-144046769D01*
X96457594Y-143985000D01*
X98774341Y-143985000D01*
X98794937Y-144220408D01*
X98796361Y-144225722D01*
X98796361Y-144225723D01*
X98838205Y-144381887D01*
X98856097Y-144448663D01*
X98858419Y-144453643D01*
X98858420Y-144453645D01*
X98951975Y-144654272D01*
X98955965Y-144662829D01*
X99091505Y-144856401D01*
X99258599Y-145023495D01*
X99263107Y-145026652D01*
X99263110Y-145026654D01*
X99447661Y-145155878D01*
X99452170Y-145159035D01*
X99457152Y-145161358D01*
X99457157Y-145161361D01*
X99597052Y-145226595D01*
X99666337Y-145258903D01*
X99671645Y-145260325D01*
X99671647Y-145260326D01*
X99888710Y-145318487D01*
X99894592Y-145320063D01*
X100130000Y-145340659D01*
X100365408Y-145320063D01*
X100371290Y-145318487D01*
X100588353Y-145260326D01*
X100588355Y-145260325D01*
X100593663Y-145258903D01*
X100662948Y-145226595D01*
X100802843Y-145161361D01*
X100802848Y-145161358D01*
X100807830Y-145159035D01*
X100812339Y-145155878D01*
X100996890Y-145026654D01*
X100996893Y-145026652D01*
X101001401Y-145023495D01*
X101168495Y-144856401D01*
X101304035Y-144662829D01*
X101308026Y-144654272D01*
X101401580Y-144453645D01*
X101401581Y-144453643D01*
X101403903Y-144448663D01*
X101421796Y-144381887D01*
X101463639Y-144225723D01*
X101463639Y-144225722D01*
X101465063Y-144220408D01*
X101485659Y-143985000D01*
X106389341Y-143985000D01*
X106409937Y-144220408D01*
X106411361Y-144225722D01*
X106411361Y-144225723D01*
X106453205Y-144381887D01*
X106471097Y-144448663D01*
X106473419Y-144453643D01*
X106473420Y-144453645D01*
X106566975Y-144654272D01*
X106570965Y-144662829D01*
X106706505Y-144856401D01*
X106873599Y-145023495D01*
X106878107Y-145026652D01*
X106878110Y-145026654D01*
X107062661Y-145155878D01*
X107067170Y-145159035D01*
X107072152Y-145161358D01*
X107072157Y-145161361D01*
X107212052Y-145226595D01*
X107281337Y-145258903D01*
X107286645Y-145260325D01*
X107286647Y-145260326D01*
X107503710Y-145318487D01*
X107509592Y-145320063D01*
X107745000Y-145340659D01*
X107980408Y-145320063D01*
X107986290Y-145318487D01*
X108203353Y-145260326D01*
X108203355Y-145260325D01*
X108208663Y-145258903D01*
X108277948Y-145226595D01*
X108417843Y-145161361D01*
X108417848Y-145161358D01*
X108422830Y-145159035D01*
X108427339Y-145155878D01*
X108611890Y-145026654D01*
X108611893Y-145026652D01*
X108616401Y-145023495D01*
X108783495Y-144856401D01*
X108919035Y-144662829D01*
X108923026Y-144654272D01*
X109016580Y-144453645D01*
X109016581Y-144453643D01*
X109018903Y-144448663D01*
X109036796Y-144381887D01*
X109078639Y-144225723D01*
X109078639Y-144225722D01*
X109080063Y-144220408D01*
X109100659Y-143985000D01*
X109080063Y-143749592D01*
X109078639Y-143744277D01*
X109020326Y-143526647D01*
X109020325Y-143526645D01*
X109018903Y-143521337D01*
X109016580Y-143516355D01*
X108921358Y-143312152D01*
X108921356Y-143312149D01*
X108919035Y-143307171D01*
X108783495Y-143113599D01*
X108616401Y-142946505D01*
X108611893Y-142943348D01*
X108611890Y-142943346D01*
X108427339Y-142814122D01*
X108427336Y-142814120D01*
X108422830Y-142810965D01*
X108417848Y-142808642D01*
X108417843Y-142808639D01*
X108213645Y-142713420D01*
X108213644Y-142713419D01*
X108208663Y-142711097D01*
X108203355Y-142709675D01*
X108203353Y-142709674D01*
X107985723Y-142651361D01*
X107985722Y-142651361D01*
X107980408Y-142649937D01*
X107745000Y-142629341D01*
X107509592Y-142649937D01*
X107504278Y-142651361D01*
X107504277Y-142651361D01*
X107286647Y-142709674D01*
X107286645Y-142709675D01*
X107281337Y-142711097D01*
X107276357Y-142713419D01*
X107276355Y-142713420D01*
X107072152Y-142808642D01*
X107072149Y-142808644D01*
X107067171Y-142810965D01*
X106873599Y-142946505D01*
X106706505Y-143113599D01*
X106570965Y-143307171D01*
X106568644Y-143312149D01*
X106568642Y-143312152D01*
X106473420Y-143516355D01*
X106471097Y-143521337D01*
X106469675Y-143526645D01*
X106469674Y-143526647D01*
X106411361Y-143744277D01*
X106409937Y-143749592D01*
X106389341Y-143985000D01*
X101485659Y-143985000D01*
X101465063Y-143749592D01*
X101463639Y-143744277D01*
X101405326Y-143526647D01*
X101405325Y-143526645D01*
X101403903Y-143521337D01*
X101401580Y-143516355D01*
X101306358Y-143312152D01*
X101306356Y-143312149D01*
X101304035Y-143307171D01*
X101168495Y-143113599D01*
X101001401Y-142946505D01*
X100996893Y-142943348D01*
X100996890Y-142943346D01*
X100812339Y-142814122D01*
X100812336Y-142814120D01*
X100807830Y-142810965D01*
X100802848Y-142808642D01*
X100802843Y-142808639D01*
X100598645Y-142713420D01*
X100598644Y-142713419D01*
X100593663Y-142711097D01*
X100588355Y-142709675D01*
X100588353Y-142709674D01*
X100370723Y-142651361D01*
X100370722Y-142651361D01*
X100365408Y-142649937D01*
X100130000Y-142629341D01*
X99894592Y-142649937D01*
X99889278Y-142651361D01*
X99889277Y-142651361D01*
X99671647Y-142709674D01*
X99671645Y-142709675D01*
X99666337Y-142711097D01*
X99661357Y-142713419D01*
X99661355Y-142713420D01*
X99457152Y-142808642D01*
X99457149Y-142808644D01*
X99452171Y-142810965D01*
X99258599Y-142946505D01*
X99091505Y-143113599D01*
X98955965Y-143307171D01*
X98953644Y-143312149D01*
X98953642Y-143312152D01*
X98858420Y-143516355D01*
X98856097Y-143521337D01*
X98854675Y-143526645D01*
X98854674Y-143526647D01*
X98796361Y-143744277D01*
X98794937Y-143749592D01*
X98774341Y-143985000D01*
X96457594Y-143985000D01*
X96454552Y-143980448D01*
X96388231Y-143936133D01*
X96376062Y-143933712D01*
X96376061Y-143933712D01*
X96335816Y-143925707D01*
X96329748Y-143924500D01*
X95358880Y-143924500D01*
X95290759Y-143904498D01*
X95244266Y-143850842D01*
X95234162Y-143780568D01*
X95263498Y-143716170D01*
X95320426Y-143650218D01*
X95320432Y-143650210D01*
X95324454Y-143645550D01*
X95328589Y-143638272D01*
X95378837Y-143549818D01*
X95416526Y-143483474D01*
X95475364Y-143306601D01*
X95498727Y-143121668D01*
X95499099Y-143095000D01*
X95480909Y-142909487D01*
X95479128Y-142903588D01*
X95479127Y-142903583D01*
X95428814Y-142736939D01*
X95427033Y-142731040D01*
X95359806Y-142604604D01*
X95342416Y-142571898D01*
X95342414Y-142571895D01*
X95339522Y-142566456D01*
X95335632Y-142561686D01*
X95335629Y-142561682D01*
X95225605Y-142426780D01*
X95225602Y-142426777D01*
X95221710Y-142422005D01*
X95216056Y-142417327D01*
X95082834Y-142307116D01*
X95078085Y-142303187D01*
X94914116Y-142214529D01*
X94752144Y-142164391D01*
X94741936Y-142161231D01*
X94741933Y-142161230D01*
X94736049Y-142159409D01*
X94729924Y-142158765D01*
X94729923Y-142158765D01*
X94556796Y-142140568D01*
X94556795Y-142140568D01*
X94550668Y-142139924D01*
X94472549Y-142147033D01*
X94371171Y-142156259D01*
X94371168Y-142156260D01*
X94365032Y-142156818D01*
X94359122Y-142158557D01*
X94359119Y-142158558D01*
X94206216Y-142203561D01*
X94186214Y-142209448D01*
X94021023Y-142295807D01*
X93875752Y-142412608D01*
X93755935Y-142555401D01*
X93752971Y-142560793D01*
X93752968Y-142560797D01*
X93703963Y-142649937D01*
X93666135Y-142718746D01*
X93664273Y-142724615D01*
X93664272Y-142724618D01*
X93648409Y-142774625D01*
X93608746Y-142833509D01*
X93543544Y-142861602D01*
X93473504Y-142849985D01*
X93420864Y-142802345D01*
X93407685Y-142772945D01*
X93396814Y-142736940D01*
X93396814Y-142736939D01*
X93395033Y-142731040D01*
X93327806Y-142604604D01*
X93310416Y-142571898D01*
X93310414Y-142571895D01*
X93307522Y-142566456D01*
X93303632Y-142561686D01*
X93303629Y-142561682D01*
X93193605Y-142426780D01*
X93193602Y-142426777D01*
X93189710Y-142422005D01*
X93184056Y-142417327D01*
X93050834Y-142307116D01*
X93046085Y-142303187D01*
X92882116Y-142214529D01*
X92720144Y-142164391D01*
X92709936Y-142161231D01*
X92709933Y-142161230D01*
X92704049Y-142159409D01*
X92697924Y-142158765D01*
X92697923Y-142158765D01*
X92524796Y-142140568D01*
X92524795Y-142140568D01*
X92518668Y-142139924D01*
X92440549Y-142147033D01*
X92339171Y-142156259D01*
X92339168Y-142156260D01*
X92333032Y-142156818D01*
X92327122Y-142158557D01*
X92327119Y-142158558D01*
X92174216Y-142203561D01*
X92154214Y-142209448D01*
X91989023Y-142295807D01*
X91843752Y-142412608D01*
X91723935Y-142555401D01*
X91720971Y-142560793D01*
X91720968Y-142560797D01*
X91671963Y-142649937D01*
X91634135Y-142718746D01*
X91632273Y-142724615D01*
X91632272Y-142724618D01*
X91616409Y-142774625D01*
X91576746Y-142833509D01*
X91511544Y-142861602D01*
X91441504Y-142849985D01*
X91388864Y-142802345D01*
X91375685Y-142772945D01*
X91364814Y-142736940D01*
X91364814Y-142736939D01*
X91363033Y-142731040D01*
X91295806Y-142604604D01*
X91278416Y-142571898D01*
X91278414Y-142571895D01*
X91275522Y-142566456D01*
X91271632Y-142561686D01*
X91271629Y-142561682D01*
X91161605Y-142426780D01*
X91161602Y-142426777D01*
X91157710Y-142422005D01*
X91152056Y-142417327D01*
X91018834Y-142307116D01*
X91014085Y-142303187D01*
X90850116Y-142214529D01*
X90688144Y-142164391D01*
X90677936Y-142161231D01*
X90677933Y-142161230D01*
X90672049Y-142159409D01*
X90665924Y-142158765D01*
X90665923Y-142158765D01*
X90492796Y-142140568D01*
X90492795Y-142140568D01*
X90486668Y-142139924D01*
X90408549Y-142147033D01*
X90307171Y-142156259D01*
X90307168Y-142156260D01*
X90301032Y-142156818D01*
X90295122Y-142158557D01*
X90295119Y-142158558D01*
X90142216Y-142203561D01*
X90122214Y-142209448D01*
X89957023Y-142295807D01*
X89811752Y-142412608D01*
X89691935Y-142555401D01*
X89688971Y-142560793D01*
X89688968Y-142560797D01*
X89639963Y-142649937D01*
X89602135Y-142718746D01*
X89600273Y-142724615D01*
X89600272Y-142724618D01*
X89584409Y-142774625D01*
X89544746Y-142833509D01*
X89479544Y-142861602D01*
X89409504Y-142849985D01*
X89356864Y-142802345D01*
X89343685Y-142772945D01*
X89332814Y-142736940D01*
X89332814Y-142736939D01*
X89331033Y-142731040D01*
X89263806Y-142604604D01*
X89246416Y-142571898D01*
X89246414Y-142571895D01*
X89243522Y-142566456D01*
X89239632Y-142561686D01*
X89239629Y-142561682D01*
X89129605Y-142426780D01*
X89129602Y-142426777D01*
X89125710Y-142422005D01*
X89120056Y-142417327D01*
X88986834Y-142307116D01*
X88982085Y-142303187D01*
X88818116Y-142214529D01*
X88656144Y-142164391D01*
X88645936Y-142161231D01*
X88645933Y-142161230D01*
X88640049Y-142159409D01*
X88633924Y-142158765D01*
X88633923Y-142158765D01*
X88460796Y-142140568D01*
X88460795Y-142140568D01*
X88454668Y-142139924D01*
X88376549Y-142147033D01*
X88275171Y-142156259D01*
X88275168Y-142156260D01*
X88269032Y-142156818D01*
X88263122Y-142158557D01*
X88263119Y-142158558D01*
X88110216Y-142203561D01*
X88090214Y-142209448D01*
X87925023Y-142295807D01*
X87779752Y-142412608D01*
X87659935Y-142555401D01*
X87656971Y-142560793D01*
X87656968Y-142560797D01*
X87607963Y-142649937D01*
X87570135Y-142718746D01*
X87568274Y-142724613D01*
X87568273Y-142724615D01*
X87528503Y-142849985D01*
X87513772Y-142896424D01*
X87492994Y-143081665D01*
X87508592Y-143267414D01*
X87510291Y-143273339D01*
X87552018Y-143418858D01*
X87559971Y-143446595D01*
X87574829Y-143475505D01*
X87634832Y-143592257D01*
X87645176Y-143612385D01*
X87760959Y-143758468D01*
X87765652Y-143762462D01*
X87765653Y-143762463D01*
X87781301Y-143775781D01*
X87902912Y-143879279D01*
X88065627Y-143970217D01*
X88210201Y-144017192D01*
X88242907Y-144027819D01*
X88242349Y-144029537D01*
X88297121Y-144059602D01*
X88331008Y-144121990D01*
X88325786Y-144192794D01*
X88283113Y-144249535D01*
X88216538Y-144274199D01*
X88207828Y-144274500D01*
X87175925Y-144274500D01*
X87107804Y-144254498D01*
X87086830Y-144237595D01*
X86637405Y-143788170D01*
X86603379Y-143725858D01*
X86600500Y-143699075D01*
X86600500Y-142047619D01*
X86601578Y-142031173D01*
X86604604Y-142008188D01*
X86605682Y-142000000D01*
X148894318Y-142000000D01*
X148914956Y-142156762D01*
X148975464Y-142302841D01*
X149071718Y-142428282D01*
X149197159Y-142524536D01*
X149343238Y-142585044D01*
X149500000Y-142605682D01*
X149508188Y-142604604D01*
X149648574Y-142586122D01*
X149656762Y-142585044D01*
X149802841Y-142524536D01*
X149928282Y-142428282D01*
X150024536Y-142302841D01*
X150085044Y-142156762D01*
X150105682Y-142000000D01*
X150085044Y-141843238D01*
X150024536Y-141697159D01*
X149928282Y-141571718D01*
X149834817Y-141500000D01*
X151394318Y-141500000D01*
X151414956Y-141656762D01*
X151475464Y-141802841D01*
X151571718Y-141928282D01*
X151697159Y-142024536D01*
X151817423Y-142074351D01*
X151830448Y-142079746D01*
X151843238Y-142085044D01*
X152000000Y-142105682D01*
X152008188Y-142104604D01*
X152148574Y-142086122D01*
X152156762Y-142085044D01*
X152169553Y-142079746D01*
X152182577Y-142074351D01*
X152302841Y-142024536D01*
X152428282Y-141928282D01*
X152524536Y-141802841D01*
X152585044Y-141656762D01*
X152605682Y-141500000D01*
X152585044Y-141343238D01*
X152524536Y-141197159D01*
X152428282Y-141071718D01*
X152302841Y-140975464D01*
X152156762Y-140914956D01*
X152000000Y-140894318D01*
X151843238Y-140914956D01*
X151697159Y-140975464D01*
X151571718Y-141071718D01*
X151475464Y-141197159D01*
X151414956Y-141343238D01*
X151394318Y-141500000D01*
X149834817Y-141500000D01*
X149802841Y-141475464D01*
X149656762Y-141414956D01*
X149500000Y-141394318D01*
X149343238Y-141414956D01*
X149197159Y-141475464D01*
X149071718Y-141571718D01*
X148975464Y-141697159D01*
X148914956Y-141843238D01*
X148894318Y-142000000D01*
X86605682Y-142000000D01*
X86585044Y-141843238D01*
X86524536Y-141697159D01*
X86490958Y-141653399D01*
X86481300Y-141640813D01*
X86433305Y-141578264D01*
X86428282Y-141571718D01*
X86403328Y-141552570D01*
X86390938Y-141541703D01*
X85849235Y-141000000D01*
X110394318Y-141000000D01*
X110414956Y-141156762D01*
X110475464Y-141302841D01*
X110571718Y-141428282D01*
X110697159Y-141524536D01*
X110843238Y-141585044D01*
X111000000Y-141605682D01*
X111008188Y-141604604D01*
X111148574Y-141586122D01*
X111156762Y-141585044D01*
X111302841Y-141524536D01*
X111428282Y-141428282D01*
X111524536Y-141302841D01*
X111585044Y-141156762D01*
X111605682Y-141000000D01*
X112894318Y-141000000D01*
X112914956Y-141156762D01*
X112975464Y-141302841D01*
X113071718Y-141428282D01*
X113197159Y-141524536D01*
X113343238Y-141585044D01*
X113500000Y-141605682D01*
X113508188Y-141604604D01*
X113648574Y-141586122D01*
X113656762Y-141585044D01*
X113802841Y-141524536D01*
X113928282Y-141428282D01*
X114024536Y-141302841D01*
X114085044Y-141156762D01*
X114105682Y-141000000D01*
X134394318Y-141000000D01*
X134414956Y-141156762D01*
X134475464Y-141302841D01*
X134571718Y-141428282D01*
X134697159Y-141524536D01*
X134843238Y-141585044D01*
X135000000Y-141605682D01*
X135008188Y-141604604D01*
X135148574Y-141586122D01*
X135156762Y-141585044D01*
X135302841Y-141524536D01*
X135428282Y-141428282D01*
X135524536Y-141302841D01*
X135585044Y-141156762D01*
X135605682Y-141000000D01*
X136894318Y-141000000D01*
X136914956Y-141156762D01*
X136975464Y-141302841D01*
X137071718Y-141428282D01*
X137197159Y-141524536D01*
X137343238Y-141585044D01*
X137500000Y-141605682D01*
X137508188Y-141604604D01*
X137648574Y-141586122D01*
X137656762Y-141585044D01*
X137802841Y-141524536D01*
X137928282Y-141428282D01*
X138024536Y-141302841D01*
X138085044Y-141156762D01*
X138105682Y-141000000D01*
X138085044Y-140843238D01*
X138024536Y-140697159D01*
X137928282Y-140571718D01*
X137802841Y-140475464D01*
X137660888Y-140416665D01*
X153819994Y-140416665D01*
X153820510Y-140422809D01*
X153832593Y-140566695D01*
X153835592Y-140602414D01*
X153841420Y-140622739D01*
X153862760Y-140697159D01*
X153886971Y-140781595D01*
X153972176Y-140947385D01*
X154087959Y-141093468D01*
X154229912Y-141214279D01*
X154392627Y-141305217D01*
X154569907Y-141362819D01*
X154754998Y-141384890D01*
X154761133Y-141384418D01*
X154761135Y-141384418D01*
X154934710Y-141371062D01*
X154934715Y-141371061D01*
X154940851Y-141370589D01*
X154946781Y-141368933D01*
X154946783Y-141368933D01*
X155114459Y-141322117D01*
X155114458Y-141322117D01*
X155120387Y-141320462D01*
X155286768Y-141236417D01*
X155311255Y-141217286D01*
X155428794Y-141125454D01*
X155428795Y-141125453D01*
X155433655Y-141121656D01*
X155555454Y-140980550D01*
X155560139Y-140972304D01*
X155604441Y-140894318D01*
X155647526Y-140818474D01*
X155706364Y-140641601D01*
X155714366Y-140578264D01*
X155729285Y-140460170D01*
X155729286Y-140460163D01*
X155729727Y-140456668D01*
X155730099Y-140430000D01*
X155711909Y-140244487D01*
X155710128Y-140238588D01*
X155710127Y-140238583D01*
X155659814Y-140071939D01*
X155658033Y-140066040D01*
X155597637Y-139952452D01*
X155573416Y-139906898D01*
X155573414Y-139906895D01*
X155570522Y-139901456D01*
X155566632Y-139896686D01*
X155566629Y-139896682D01*
X155456605Y-139761780D01*
X155456602Y-139761777D01*
X155452710Y-139757005D01*
X155447056Y-139752327D01*
X155331538Y-139656762D01*
X155309085Y-139638187D01*
X155145116Y-139549529D01*
X155011563Y-139508188D01*
X154972936Y-139496231D01*
X154972933Y-139496230D01*
X154967049Y-139494409D01*
X154960924Y-139493765D01*
X154960923Y-139493765D01*
X154787796Y-139475568D01*
X154787795Y-139475568D01*
X154781668Y-139474924D01*
X154723046Y-139480259D01*
X154602171Y-139491259D01*
X154602168Y-139491260D01*
X154596032Y-139491818D01*
X154590122Y-139493557D01*
X154590119Y-139493558D01*
X154423129Y-139542707D01*
X154417214Y-139544448D01*
X154252023Y-139630807D01*
X154247223Y-139634667D01*
X154247222Y-139634667D01*
X154211817Y-139663134D01*
X154106752Y-139747608D01*
X153986935Y-139890401D01*
X153983971Y-139895793D01*
X153983968Y-139895797D01*
X153909256Y-140031699D01*
X153897135Y-140053746D01*
X153840772Y-140231424D01*
X153819994Y-140416665D01*
X137660888Y-140416665D01*
X137656762Y-140414956D01*
X137500000Y-140394318D01*
X137343238Y-140414956D01*
X137197159Y-140475464D01*
X137071718Y-140571718D01*
X136975464Y-140697159D01*
X136914956Y-140843238D01*
X136894318Y-141000000D01*
X135605682Y-141000000D01*
X135585044Y-140843238D01*
X135524536Y-140697159D01*
X135428282Y-140571718D01*
X135302841Y-140475464D01*
X135156762Y-140414956D01*
X135000000Y-140394318D01*
X134843238Y-140414956D01*
X134697159Y-140475464D01*
X134571718Y-140571718D01*
X134475464Y-140697159D01*
X134414956Y-140843238D01*
X134394318Y-141000000D01*
X114105682Y-141000000D01*
X114085044Y-140843238D01*
X114024536Y-140697159D01*
X113928282Y-140571718D01*
X113802841Y-140475464D01*
X113656762Y-140414956D01*
X113500000Y-140394318D01*
X113343238Y-140414956D01*
X113197159Y-140475464D01*
X113071718Y-140571718D01*
X112975464Y-140697159D01*
X112914956Y-140843238D01*
X112894318Y-141000000D01*
X111605682Y-141000000D01*
X111585044Y-140843238D01*
X111524536Y-140697159D01*
X111428282Y-140571718D01*
X111302841Y-140475464D01*
X111156762Y-140414956D01*
X111000000Y-140394318D01*
X110843238Y-140414956D01*
X110697159Y-140475464D01*
X110571718Y-140571718D01*
X110475464Y-140697159D01*
X110414956Y-140843238D01*
X110394318Y-141000000D01*
X85849235Y-141000000D01*
X84137405Y-139288170D01*
X84103379Y-139225858D01*
X84100500Y-139199075D01*
X84100500Y-138852137D01*
X84120502Y-138784016D01*
X84174158Y-138737523D01*
X84244432Y-138727419D01*
X84309012Y-138756913D01*
X84332412Y-138783882D01*
X84334358Y-138786902D01*
X84337176Y-138792385D01*
X84341002Y-138797212D01*
X84341005Y-138797217D01*
X84384534Y-138852137D01*
X84452959Y-138938468D01*
X84594912Y-139059279D01*
X84757627Y-139150217D01*
X84934907Y-139207819D01*
X85119998Y-139229890D01*
X85126133Y-139229418D01*
X85126135Y-139229418D01*
X85299710Y-139216062D01*
X85299715Y-139216061D01*
X85305851Y-139215589D01*
X85311781Y-139213933D01*
X85311783Y-139213933D01*
X85479459Y-139167117D01*
X85479458Y-139167117D01*
X85485387Y-139165462D01*
X85651768Y-139081417D01*
X85676255Y-139062286D01*
X85793794Y-138970454D01*
X85793795Y-138970453D01*
X85798655Y-138966656D01*
X85911905Y-138835454D01*
X85916430Y-138830212D01*
X85916431Y-138830211D01*
X85920454Y-138825550D01*
X85936550Y-138797217D01*
X85976200Y-138727419D01*
X86012526Y-138663474D01*
X86071364Y-138486601D01*
X86092621Y-138318339D01*
X86094285Y-138305170D01*
X86094286Y-138305163D01*
X86094727Y-138301668D01*
X86095099Y-138275000D01*
X86093791Y-138261665D01*
X86474994Y-138261665D01*
X86490592Y-138447414D01*
X86492291Y-138453339D01*
X86537759Y-138611905D01*
X86541971Y-138626595D01*
X86627176Y-138792385D01*
X86742959Y-138938468D01*
X86884912Y-139059279D01*
X87047627Y-139150217D01*
X87224907Y-139207819D01*
X87409998Y-139229890D01*
X87416133Y-139229418D01*
X87416135Y-139229418D01*
X87589710Y-139216062D01*
X87589715Y-139216061D01*
X87595851Y-139215589D01*
X87601781Y-139213933D01*
X87601783Y-139213933D01*
X87769459Y-139167117D01*
X87769458Y-139167117D01*
X87775387Y-139165462D01*
X87941768Y-139081417D01*
X87966255Y-139062286D01*
X88083794Y-138970454D01*
X88083795Y-138970453D01*
X88088655Y-138966656D01*
X88201905Y-138835454D01*
X88206430Y-138830212D01*
X88206431Y-138830211D01*
X88210454Y-138825550D01*
X88226550Y-138797217D01*
X88266200Y-138727419D01*
X88302526Y-138663474D01*
X88361364Y-138486601D01*
X88382621Y-138318339D01*
X88384285Y-138305170D01*
X88384286Y-138305163D01*
X88384727Y-138301668D01*
X88385099Y-138275000D01*
X88383791Y-138261665D01*
X95614994Y-138261665D01*
X95630592Y-138447414D01*
X95632291Y-138453339D01*
X95677759Y-138611905D01*
X95681971Y-138626595D01*
X95767176Y-138792385D01*
X95882959Y-138938468D01*
X96024912Y-139059279D01*
X96187627Y-139150217D01*
X96364907Y-139207819D01*
X96549998Y-139229890D01*
X96556133Y-139229418D01*
X96556135Y-139229418D01*
X96729710Y-139216062D01*
X96729715Y-139216061D01*
X96735851Y-139215589D01*
X96741781Y-139213933D01*
X96741783Y-139213933D01*
X96909459Y-139167117D01*
X96909458Y-139167117D01*
X96915387Y-139165462D01*
X97081768Y-139081417D01*
X97106255Y-139062286D01*
X97223794Y-138970454D01*
X97223795Y-138970453D01*
X97228655Y-138966656D01*
X97341905Y-138835454D01*
X97346430Y-138830212D01*
X97346431Y-138830211D01*
X97350454Y-138825550D01*
X97366550Y-138797217D01*
X97406200Y-138727419D01*
X97442526Y-138663474D01*
X97501364Y-138486601D01*
X97522621Y-138318339D01*
X97524285Y-138305170D01*
X97524286Y-138305163D01*
X97524727Y-138301668D01*
X97525099Y-138275000D01*
X97523791Y-138261665D01*
X97904994Y-138261665D01*
X97920592Y-138447414D01*
X97922291Y-138453339D01*
X97967759Y-138611905D01*
X97971971Y-138626595D01*
X98057176Y-138792385D01*
X98172959Y-138938468D01*
X98314912Y-139059279D01*
X98477627Y-139150217D01*
X98654907Y-139207819D01*
X98839998Y-139229890D01*
X98846133Y-139229418D01*
X98846135Y-139229418D01*
X99019710Y-139216062D01*
X99019715Y-139216061D01*
X99025851Y-139215589D01*
X99031781Y-139213933D01*
X99031783Y-139213933D01*
X99199459Y-139167117D01*
X99199458Y-139167117D01*
X99205387Y-139165462D01*
X99371768Y-139081417D01*
X99396255Y-139062286D01*
X99513794Y-138970454D01*
X99513795Y-138970453D01*
X99518655Y-138966656D01*
X99631905Y-138835454D01*
X99636430Y-138830212D01*
X99636431Y-138830211D01*
X99640454Y-138825550D01*
X99656550Y-138797217D01*
X99696200Y-138727419D01*
X99732526Y-138663474D01*
X99791364Y-138486601D01*
X99812621Y-138318339D01*
X99814285Y-138305170D01*
X99814286Y-138305163D01*
X99814727Y-138301668D01*
X99815099Y-138275000D01*
X99813791Y-138261665D01*
X108059994Y-138261665D01*
X108075592Y-138447414D01*
X108077291Y-138453339D01*
X108122759Y-138611905D01*
X108126971Y-138626595D01*
X108212176Y-138792385D01*
X108327959Y-138938468D01*
X108469912Y-139059279D01*
X108632627Y-139150217D01*
X108809907Y-139207819D01*
X108994998Y-139229890D01*
X109001133Y-139229418D01*
X109001135Y-139229418D01*
X109174710Y-139216062D01*
X109174715Y-139216061D01*
X109180851Y-139215589D01*
X109186781Y-139213933D01*
X109186783Y-139213933D01*
X109354459Y-139167117D01*
X109354458Y-139167117D01*
X109360387Y-139165462D01*
X109526768Y-139081417D01*
X109551255Y-139062286D01*
X109668794Y-138970454D01*
X109668795Y-138970453D01*
X109673655Y-138966656D01*
X109786905Y-138835454D01*
X109791430Y-138830212D01*
X109791431Y-138830211D01*
X109795454Y-138825550D01*
X109811550Y-138797217D01*
X109851200Y-138727419D01*
X109887526Y-138663474D01*
X109946364Y-138486601D01*
X109967621Y-138318339D01*
X109969285Y-138305170D01*
X109969286Y-138305163D01*
X109969727Y-138301668D01*
X109970099Y-138275000D01*
X109968791Y-138261665D01*
X110349994Y-138261665D01*
X110365592Y-138447414D01*
X110367291Y-138453339D01*
X110412759Y-138611905D01*
X110416971Y-138626595D01*
X110502176Y-138792385D01*
X110617959Y-138938468D01*
X110759912Y-139059279D01*
X110922627Y-139150217D01*
X111099907Y-139207819D01*
X111284998Y-139229890D01*
X111291133Y-139229418D01*
X111291135Y-139229418D01*
X111464710Y-139216062D01*
X111464715Y-139216061D01*
X111470851Y-139215589D01*
X111476781Y-139213933D01*
X111476783Y-139213933D01*
X111644459Y-139167117D01*
X111644458Y-139167117D01*
X111650387Y-139165462D01*
X111816768Y-139081417D01*
X111841255Y-139062286D01*
X111958794Y-138970454D01*
X111958795Y-138970453D01*
X111963655Y-138966656D01*
X112076905Y-138835454D01*
X112081430Y-138830212D01*
X112081431Y-138830211D01*
X112085454Y-138825550D01*
X112101550Y-138797217D01*
X112141200Y-138727419D01*
X112177526Y-138663474D01*
X112236364Y-138486601D01*
X112257621Y-138318339D01*
X112259285Y-138305170D01*
X112259286Y-138305163D01*
X112259727Y-138301668D01*
X112260099Y-138275000D01*
X112258791Y-138261665D01*
X119489994Y-138261665D01*
X119505592Y-138447414D01*
X119507291Y-138453339D01*
X119552759Y-138611905D01*
X119556971Y-138626595D01*
X119642176Y-138792385D01*
X119757959Y-138938468D01*
X119899912Y-139059279D01*
X120062627Y-139150217D01*
X120239907Y-139207819D01*
X120424998Y-139229890D01*
X120431133Y-139229418D01*
X120431135Y-139229418D01*
X120604710Y-139216062D01*
X120604715Y-139216061D01*
X120610851Y-139215589D01*
X120616781Y-139213933D01*
X120616783Y-139213933D01*
X120784459Y-139167117D01*
X120784458Y-139167117D01*
X120790387Y-139165462D01*
X120956768Y-139081417D01*
X120981255Y-139062286D01*
X121098794Y-138970454D01*
X121098795Y-138970453D01*
X121103655Y-138966656D01*
X121216905Y-138835454D01*
X121221430Y-138830212D01*
X121221431Y-138830211D01*
X121225454Y-138825550D01*
X121241550Y-138797217D01*
X121281200Y-138727419D01*
X121317526Y-138663474D01*
X121376364Y-138486601D01*
X121397621Y-138318339D01*
X121399285Y-138305170D01*
X121399286Y-138305163D01*
X121399727Y-138301668D01*
X121400099Y-138275000D01*
X121398791Y-138261665D01*
X121779994Y-138261665D01*
X121795592Y-138447414D01*
X121797291Y-138453339D01*
X121842759Y-138611905D01*
X121846971Y-138626595D01*
X121932176Y-138792385D01*
X122047959Y-138938468D01*
X122189912Y-139059279D01*
X122352627Y-139150217D01*
X122529907Y-139207819D01*
X122714998Y-139229890D01*
X122721133Y-139229418D01*
X122721135Y-139229418D01*
X122894710Y-139216062D01*
X122894715Y-139216061D01*
X122900851Y-139215589D01*
X122906781Y-139213933D01*
X122906783Y-139213933D01*
X123074459Y-139167117D01*
X123074458Y-139167117D01*
X123080387Y-139165462D01*
X123246768Y-139081417D01*
X123271255Y-139062286D01*
X123388794Y-138970454D01*
X123388795Y-138970453D01*
X123393655Y-138966656D01*
X123506905Y-138835454D01*
X123511430Y-138830212D01*
X123511431Y-138830211D01*
X123515454Y-138825550D01*
X123531550Y-138797217D01*
X123571200Y-138727419D01*
X123607526Y-138663474D01*
X123666364Y-138486601D01*
X123687621Y-138318339D01*
X123689285Y-138305170D01*
X123689286Y-138305163D01*
X123689727Y-138301668D01*
X123690099Y-138275000D01*
X123688791Y-138261665D01*
X131934994Y-138261665D01*
X131950592Y-138447414D01*
X131952291Y-138453339D01*
X131997759Y-138611905D01*
X132001971Y-138626595D01*
X132087176Y-138792385D01*
X132202959Y-138938468D01*
X132344912Y-139059279D01*
X132507627Y-139150217D01*
X132684907Y-139207819D01*
X132869998Y-139229890D01*
X132876133Y-139229418D01*
X132876135Y-139229418D01*
X133049710Y-139216062D01*
X133049715Y-139216061D01*
X133055851Y-139215589D01*
X133061781Y-139213933D01*
X133061783Y-139213933D01*
X133229459Y-139167117D01*
X133229458Y-139167117D01*
X133235387Y-139165462D01*
X133401768Y-139081417D01*
X133426255Y-139062286D01*
X133543794Y-138970454D01*
X133543795Y-138970453D01*
X133548655Y-138966656D01*
X133661905Y-138835454D01*
X133666430Y-138830212D01*
X133666431Y-138830211D01*
X133670454Y-138825550D01*
X133686550Y-138797217D01*
X133726200Y-138727419D01*
X133762526Y-138663474D01*
X133821364Y-138486601D01*
X133842621Y-138318339D01*
X133844285Y-138305170D01*
X133844286Y-138305163D01*
X133844727Y-138301668D01*
X133845099Y-138275000D01*
X133843791Y-138261665D01*
X134224994Y-138261665D01*
X134240592Y-138447414D01*
X134242291Y-138453339D01*
X134287759Y-138611905D01*
X134291971Y-138626595D01*
X134377176Y-138792385D01*
X134492959Y-138938468D01*
X134634912Y-139059279D01*
X134797627Y-139150217D01*
X134974907Y-139207819D01*
X135159998Y-139229890D01*
X135166133Y-139229418D01*
X135166135Y-139229418D01*
X135339710Y-139216062D01*
X135339715Y-139216061D01*
X135345851Y-139215589D01*
X135351781Y-139213933D01*
X135351783Y-139213933D01*
X135519459Y-139167117D01*
X135519458Y-139167117D01*
X135525387Y-139165462D01*
X135691768Y-139081417D01*
X135716255Y-139062286D01*
X135833794Y-138970454D01*
X135833795Y-138970453D01*
X135838655Y-138966656D01*
X135951905Y-138835454D01*
X135956430Y-138830212D01*
X135956431Y-138830211D01*
X135960454Y-138825550D01*
X135976550Y-138797217D01*
X136016200Y-138727419D01*
X136052526Y-138663474D01*
X136111364Y-138486601D01*
X136132621Y-138318339D01*
X136134285Y-138305170D01*
X136134286Y-138305163D01*
X136134727Y-138301668D01*
X136135099Y-138275000D01*
X136116909Y-138089487D01*
X136115128Y-138083588D01*
X136115127Y-138083583D01*
X136089892Y-138000000D01*
X136894318Y-138000000D01*
X136914956Y-138156762D01*
X136975464Y-138302841D01*
X136980491Y-138309392D01*
X137065995Y-138420823D01*
X137071718Y-138428282D01*
X137197159Y-138524536D01*
X137343238Y-138585044D01*
X137500000Y-138605682D01*
X137508188Y-138604604D01*
X137648574Y-138586122D01*
X137656762Y-138585044D01*
X137802841Y-138524536D01*
X137928282Y-138428282D01*
X137934006Y-138420823D01*
X138019509Y-138309392D01*
X138024536Y-138302841D01*
X138085044Y-138156762D01*
X138105682Y-138000000D01*
X140894318Y-138000000D01*
X140914956Y-138156762D01*
X140975464Y-138302841D01*
X140980491Y-138309392D01*
X141065995Y-138420823D01*
X141071718Y-138428282D01*
X141197159Y-138524536D01*
X141343238Y-138585044D01*
X141500000Y-138605682D01*
X141508188Y-138604604D01*
X141648574Y-138586122D01*
X141656762Y-138585044D01*
X141802841Y-138524536D01*
X141928282Y-138428282D01*
X141934006Y-138420823D01*
X142019509Y-138309392D01*
X142024536Y-138302841D01*
X142041592Y-138261665D01*
X143364994Y-138261665D01*
X143380592Y-138447414D01*
X143382291Y-138453339D01*
X143427759Y-138611905D01*
X143431971Y-138626595D01*
X143517176Y-138792385D01*
X143632959Y-138938468D01*
X143774912Y-139059279D01*
X143937627Y-139150217D01*
X144114907Y-139207819D01*
X144299998Y-139229890D01*
X144306133Y-139229418D01*
X144306135Y-139229418D01*
X144479710Y-139216062D01*
X144479715Y-139216061D01*
X144485851Y-139215589D01*
X144491781Y-139213933D01*
X144491783Y-139213933D01*
X144659459Y-139167117D01*
X144659458Y-139167117D01*
X144665387Y-139165462D01*
X144831768Y-139081417D01*
X144856255Y-139062286D01*
X144973794Y-138970454D01*
X144973795Y-138970453D01*
X144978655Y-138966656D01*
X145091905Y-138835454D01*
X145096430Y-138830212D01*
X145096431Y-138830211D01*
X145100454Y-138825550D01*
X145116550Y-138797217D01*
X145156200Y-138727419D01*
X145192526Y-138663474D01*
X145251364Y-138486601D01*
X145272621Y-138318339D01*
X145274285Y-138305170D01*
X145274286Y-138305163D01*
X145274727Y-138301668D01*
X145275099Y-138275000D01*
X145273791Y-138261665D01*
X145654994Y-138261665D01*
X145670592Y-138447414D01*
X145672291Y-138453339D01*
X145717759Y-138611905D01*
X145721971Y-138626595D01*
X145807176Y-138792385D01*
X145922959Y-138938468D01*
X146064912Y-139059279D01*
X146227627Y-139150217D01*
X146404907Y-139207819D01*
X146589998Y-139229890D01*
X146596133Y-139229418D01*
X146596135Y-139229418D01*
X146769710Y-139216062D01*
X146769715Y-139216061D01*
X146775851Y-139215589D01*
X146781781Y-139213933D01*
X146781783Y-139213933D01*
X146949459Y-139167117D01*
X146949458Y-139167117D01*
X146955387Y-139165462D01*
X147121768Y-139081417D01*
X147146255Y-139062286D01*
X147263794Y-138970454D01*
X147263795Y-138970453D01*
X147268655Y-138966656D01*
X147381905Y-138835454D01*
X147386430Y-138830212D01*
X147386431Y-138830211D01*
X147390454Y-138825550D01*
X147406550Y-138797217D01*
X147446200Y-138727419D01*
X147482526Y-138663474D01*
X147541364Y-138486601D01*
X147562621Y-138318339D01*
X147564285Y-138305170D01*
X147564286Y-138305163D01*
X147564727Y-138301668D01*
X147565099Y-138275000D01*
X147550554Y-138126665D01*
X153819994Y-138126665D01*
X153821408Y-138143505D01*
X153834984Y-138305170D01*
X153835592Y-138312414D01*
X153837291Y-138318339D01*
X153870257Y-138433305D01*
X153886971Y-138491595D01*
X153905525Y-138527696D01*
X153934998Y-138585044D01*
X153972176Y-138657385D01*
X154087959Y-138803468D01*
X154229912Y-138924279D01*
X154235290Y-138927285D01*
X154235292Y-138927286D01*
X154262731Y-138942621D01*
X154392627Y-139015217D01*
X154569907Y-139072819D01*
X154754998Y-139094890D01*
X154761133Y-139094418D01*
X154761135Y-139094418D01*
X154934710Y-139081062D01*
X154934715Y-139081061D01*
X154940851Y-139080589D01*
X154946781Y-139078933D01*
X154946783Y-139078933D01*
X155114459Y-139032117D01*
X155114458Y-139032117D01*
X155120387Y-139030462D01*
X155286768Y-138946417D01*
X155296943Y-138938468D01*
X155428794Y-138835454D01*
X155428795Y-138835453D01*
X155433655Y-138831656D01*
X155553629Y-138692664D01*
X162034967Y-138692664D01*
X162060818Y-138963611D01*
X162061903Y-138968045D01*
X162061904Y-138968051D01*
X162122477Y-139215589D01*
X162125511Y-139227989D01*
X162127223Y-139232215D01*
X162127224Y-139232219D01*
X162225790Y-139475568D01*
X162227690Y-139480259D01*
X162229994Y-139484194D01*
X162229996Y-139484198D01*
X162268249Y-139549529D01*
X162365217Y-139715137D01*
X162429254Y-139795211D01*
X162530439Y-139921736D01*
X162535209Y-139927701D01*
X162734105Y-140113499D01*
X162957739Y-140268640D01*
X162996996Y-140288170D01*
X163197339Y-140387840D01*
X163197342Y-140387841D01*
X163201426Y-140389873D01*
X163460062Y-140474658D01*
X163464553Y-140475438D01*
X163464554Y-140475438D01*
X163724447Y-140520563D01*
X163724455Y-140520564D01*
X163728228Y-140521219D01*
X163732065Y-140521410D01*
X163812651Y-140525422D01*
X163812659Y-140525422D01*
X163814222Y-140525500D01*
X163984144Y-140525500D01*
X163986412Y-140525335D01*
X163986424Y-140525335D01*
X164117468Y-140515826D01*
X164186464Y-140510820D01*
X164190919Y-140509836D01*
X164190922Y-140509836D01*
X164447782Y-140453127D01*
X164447786Y-140453126D01*
X164452242Y-140452142D01*
X164612845Y-140391295D01*
X164702495Y-140357330D01*
X164702498Y-140357329D01*
X164706765Y-140355712D01*
X164869583Y-140265275D01*
X164940709Y-140225768D01*
X164940710Y-140225767D01*
X164944702Y-140223550D01*
X164994185Y-140185785D01*
X165157443Y-140061191D01*
X165157447Y-140061188D01*
X165161068Y-140058424D01*
X165351331Y-139863794D01*
X165511506Y-139643737D01*
X165638236Y-139402863D01*
X165728867Y-139146218D01*
X165781500Y-138879177D01*
X165784170Y-138825550D01*
X165794806Y-138611905D01*
X165794806Y-138611899D01*
X165795033Y-138607336D01*
X165769182Y-138336389D01*
X165764766Y-138318339D01*
X165705574Y-138076445D01*
X165704489Y-138072011D01*
X165691879Y-138040878D01*
X165604023Y-137823969D01*
X165604020Y-137823963D01*
X165602310Y-137819741D01*
X165556605Y-137741682D01*
X165508958Y-137660308D01*
X165464783Y-137584863D01*
X165311112Y-137392707D01*
X165297643Y-137375865D01*
X165297642Y-137375863D01*
X165294791Y-137372299D01*
X165095895Y-137186501D01*
X164872261Y-137031360D01*
X164747124Y-136969105D01*
X164632661Y-136912160D01*
X164632658Y-136912159D01*
X164628574Y-136910127D01*
X164369938Y-136825342D01*
X164365446Y-136824562D01*
X164105553Y-136779437D01*
X164105545Y-136779436D01*
X164101772Y-136778781D01*
X164092316Y-136778310D01*
X164017349Y-136774578D01*
X164017341Y-136774578D01*
X164015778Y-136774500D01*
X163845856Y-136774500D01*
X163843588Y-136774665D01*
X163843576Y-136774665D01*
X163712532Y-136784174D01*
X163643536Y-136789180D01*
X163639081Y-136790164D01*
X163639078Y-136790164D01*
X163382218Y-136846873D01*
X163382214Y-136846874D01*
X163377758Y-136847858D01*
X163319315Y-136870000D01*
X163127505Y-136942670D01*
X163127502Y-136942671D01*
X163123235Y-136944288D01*
X162961793Y-137033961D01*
X162902868Y-137066691D01*
X162885298Y-137076450D01*
X162881666Y-137079222D01*
X162672557Y-137238809D01*
X162672553Y-137238812D01*
X162668932Y-137241576D01*
X162665747Y-137244834D01*
X162665746Y-137244835D01*
X162629910Y-137281494D01*
X162478669Y-137436206D01*
X162318494Y-137656263D01*
X162191764Y-137897137D01*
X162101133Y-138153782D01*
X162048500Y-138420823D01*
X162048273Y-138425380D01*
X162048273Y-138425381D01*
X162036712Y-138657621D01*
X162034967Y-138692664D01*
X155553629Y-138692664D01*
X155555454Y-138690550D01*
X155647526Y-138528474D01*
X155706364Y-138351601D01*
X155724816Y-138205542D01*
X155729285Y-138170170D01*
X155729286Y-138170163D01*
X155729727Y-138166668D01*
X155730099Y-138140000D01*
X155711909Y-137954487D01*
X155710128Y-137948588D01*
X155710127Y-137948583D01*
X155659814Y-137781939D01*
X155658033Y-137776040D01*
X155596497Y-137660308D01*
X155573416Y-137616898D01*
X155573414Y-137616895D01*
X155570522Y-137611456D01*
X155566632Y-137606686D01*
X155566629Y-137606682D01*
X155456605Y-137471780D01*
X155456602Y-137471777D01*
X155452710Y-137467005D01*
X155447056Y-137462327D01*
X155362413Y-137392304D01*
X155309085Y-137348187D01*
X155145116Y-137259529D01*
X154989030Y-137211213D01*
X154972936Y-137206231D01*
X154972933Y-137206230D01*
X154967049Y-137204409D01*
X154960924Y-137203765D01*
X154960923Y-137203765D01*
X154787796Y-137185568D01*
X154787795Y-137185568D01*
X154781668Y-137184924D01*
X154719233Y-137190606D01*
X154602171Y-137201259D01*
X154602168Y-137201260D01*
X154596032Y-137201818D01*
X154590122Y-137203557D01*
X154590119Y-137203558D01*
X154423129Y-137252707D01*
X154417214Y-137254448D01*
X154252023Y-137340807D01*
X154106752Y-137457608D01*
X153986935Y-137600401D01*
X153983971Y-137605793D01*
X153983968Y-137605797D01*
X153929547Y-137704789D01*
X153897135Y-137763746D01*
X153895274Y-137769613D01*
X153895273Y-137769615D01*
X153852137Y-137905598D01*
X153840772Y-137941424D01*
X153819994Y-138126665D01*
X147550554Y-138126665D01*
X147546909Y-138089487D01*
X147545128Y-138083588D01*
X147545127Y-138083583D01*
X147494814Y-137916939D01*
X147493033Y-137911040D01*
X147417836Y-137769615D01*
X147408416Y-137751898D01*
X147408414Y-137751895D01*
X147405522Y-137746456D01*
X147401632Y-137741686D01*
X147401629Y-137741682D01*
X147291605Y-137606780D01*
X147291602Y-137606777D01*
X147287710Y-137602005D01*
X147282056Y-137597327D01*
X147164408Y-137500000D01*
X147144085Y-137483187D01*
X146980116Y-137394529D01*
X146891083Y-137366969D01*
X146807936Y-137341231D01*
X146807933Y-137341230D01*
X146802049Y-137339409D01*
X146795924Y-137338765D01*
X146795923Y-137338765D01*
X146622796Y-137320568D01*
X146622795Y-137320568D01*
X146616668Y-137319924D01*
X146538549Y-137327033D01*
X146437171Y-137336259D01*
X146437168Y-137336260D01*
X146431032Y-137336818D01*
X146425122Y-137338557D01*
X146425119Y-137338558D01*
X146310480Y-137372299D01*
X146252214Y-137389448D01*
X146087023Y-137475807D01*
X145941752Y-137592608D01*
X145821935Y-137735401D01*
X145818971Y-137740793D01*
X145818968Y-137740797D01*
X145773244Y-137823969D01*
X145732135Y-137898746D01*
X145730274Y-137904613D01*
X145730273Y-137904615D01*
X145678514Y-138067781D01*
X145675772Y-138076424D01*
X145654994Y-138261665D01*
X145273791Y-138261665D01*
X145256909Y-138089487D01*
X145255128Y-138083588D01*
X145255127Y-138083583D01*
X145204814Y-137916939D01*
X145203033Y-137911040D01*
X145127836Y-137769615D01*
X145118416Y-137751898D01*
X145118414Y-137751895D01*
X145115522Y-137746456D01*
X145111632Y-137741686D01*
X145111629Y-137741682D01*
X145001605Y-137606780D01*
X145001602Y-137606777D01*
X144997710Y-137602005D01*
X144992056Y-137597327D01*
X144874408Y-137500000D01*
X144854085Y-137483187D01*
X144690116Y-137394529D01*
X144601083Y-137366969D01*
X144517936Y-137341231D01*
X144517933Y-137341230D01*
X144512049Y-137339409D01*
X144505924Y-137338765D01*
X144505923Y-137338765D01*
X144332796Y-137320568D01*
X144332795Y-137320568D01*
X144326668Y-137319924D01*
X144248549Y-137327033D01*
X144147171Y-137336259D01*
X144147168Y-137336260D01*
X144141032Y-137336818D01*
X144135122Y-137338557D01*
X144135119Y-137338558D01*
X144020480Y-137372299D01*
X143962214Y-137389448D01*
X143797023Y-137475807D01*
X143651752Y-137592608D01*
X143531935Y-137735401D01*
X143528971Y-137740793D01*
X143528968Y-137740797D01*
X143483244Y-137823969D01*
X143442135Y-137898746D01*
X143440274Y-137904613D01*
X143440273Y-137904615D01*
X143388514Y-138067781D01*
X143385772Y-138076424D01*
X143364994Y-138261665D01*
X142041592Y-138261665D01*
X142085044Y-138156762D01*
X142105682Y-138000000D01*
X142085044Y-137843238D01*
X142024536Y-137697159D01*
X141941350Y-137588749D01*
X141933305Y-137578264D01*
X141928282Y-137571718D01*
X141896876Y-137547619D01*
X141809392Y-137480491D01*
X141802841Y-137475464D01*
X141656762Y-137414956D01*
X141500000Y-137394318D01*
X141343238Y-137414956D01*
X141197159Y-137475464D01*
X141190608Y-137480491D01*
X141103125Y-137547619D01*
X141071718Y-137571718D01*
X141066695Y-137578264D01*
X141058650Y-137588749D01*
X140975464Y-137697159D01*
X140914956Y-137843238D01*
X140894318Y-138000000D01*
X138105682Y-138000000D01*
X138085044Y-137843238D01*
X138024536Y-137697159D01*
X137941350Y-137588749D01*
X137933305Y-137578264D01*
X137928282Y-137571718D01*
X137896876Y-137547619D01*
X137809392Y-137480491D01*
X137802841Y-137475464D01*
X137656762Y-137414956D01*
X137500000Y-137394318D01*
X137343238Y-137414956D01*
X137197159Y-137475464D01*
X137190608Y-137480491D01*
X137103125Y-137547619D01*
X137071718Y-137571718D01*
X137066695Y-137578264D01*
X137058650Y-137588749D01*
X136975464Y-137697159D01*
X136914956Y-137843238D01*
X136894318Y-138000000D01*
X136089892Y-138000000D01*
X136064814Y-137916939D01*
X136063033Y-137911040D01*
X135987836Y-137769615D01*
X135978416Y-137751898D01*
X135978414Y-137751895D01*
X135975522Y-137746456D01*
X135971632Y-137741686D01*
X135971629Y-137741682D01*
X135861605Y-137606780D01*
X135861602Y-137606777D01*
X135857710Y-137602005D01*
X135852056Y-137597327D01*
X135734408Y-137500000D01*
X135714085Y-137483187D01*
X135550116Y-137394529D01*
X135461083Y-137366969D01*
X135377936Y-137341231D01*
X135377933Y-137341230D01*
X135372049Y-137339409D01*
X135365924Y-137338765D01*
X135365923Y-137338765D01*
X135192796Y-137320568D01*
X135192795Y-137320568D01*
X135186668Y-137319924D01*
X135108549Y-137327033D01*
X135007171Y-137336259D01*
X135007168Y-137336260D01*
X135001032Y-137336818D01*
X134995122Y-137338557D01*
X134995119Y-137338558D01*
X134880480Y-137372299D01*
X134822214Y-137389448D01*
X134657023Y-137475807D01*
X134511752Y-137592608D01*
X134391935Y-137735401D01*
X134388971Y-137740793D01*
X134388968Y-137740797D01*
X134343244Y-137823969D01*
X134302135Y-137898746D01*
X134300274Y-137904613D01*
X134300273Y-137904615D01*
X134248514Y-138067781D01*
X134245772Y-138076424D01*
X134224994Y-138261665D01*
X133843791Y-138261665D01*
X133826909Y-138089487D01*
X133825128Y-138083588D01*
X133825127Y-138083583D01*
X133774814Y-137916939D01*
X133773033Y-137911040D01*
X133697836Y-137769615D01*
X133688416Y-137751898D01*
X133688414Y-137751895D01*
X133685522Y-137746456D01*
X133681632Y-137741686D01*
X133681629Y-137741682D01*
X133571605Y-137606780D01*
X133571602Y-137606777D01*
X133567710Y-137602005D01*
X133562056Y-137597327D01*
X133444408Y-137500000D01*
X133424085Y-137483187D01*
X133260116Y-137394529D01*
X133171083Y-137366969D01*
X133087936Y-137341231D01*
X133087933Y-137341230D01*
X133082049Y-137339409D01*
X133075924Y-137338765D01*
X133075923Y-137338765D01*
X132902796Y-137320568D01*
X132902795Y-137320568D01*
X132896668Y-137319924D01*
X132818549Y-137327033D01*
X132717171Y-137336259D01*
X132717168Y-137336260D01*
X132711032Y-137336818D01*
X132705122Y-137338557D01*
X132705119Y-137338558D01*
X132590480Y-137372299D01*
X132532214Y-137389448D01*
X132367023Y-137475807D01*
X132221752Y-137592608D01*
X132101935Y-137735401D01*
X132098971Y-137740793D01*
X132098968Y-137740797D01*
X132053244Y-137823969D01*
X132012135Y-137898746D01*
X132010274Y-137904613D01*
X132010273Y-137904615D01*
X131958514Y-138067781D01*
X131955772Y-138076424D01*
X131934994Y-138261665D01*
X123688791Y-138261665D01*
X123671909Y-138089487D01*
X123670128Y-138083588D01*
X123670127Y-138083583D01*
X123619814Y-137916939D01*
X123618033Y-137911040D01*
X123542836Y-137769615D01*
X123533416Y-137751898D01*
X123533414Y-137751895D01*
X123530522Y-137746456D01*
X123526632Y-137741686D01*
X123526629Y-137741682D01*
X123416605Y-137606780D01*
X123416602Y-137606777D01*
X123412710Y-137602005D01*
X123407056Y-137597327D01*
X123289408Y-137500000D01*
X123269085Y-137483187D01*
X123105116Y-137394529D01*
X123016083Y-137366969D01*
X122932936Y-137341231D01*
X122932933Y-137341230D01*
X122927049Y-137339409D01*
X122920924Y-137338765D01*
X122920923Y-137338765D01*
X122747796Y-137320568D01*
X122747795Y-137320568D01*
X122741668Y-137319924D01*
X122663549Y-137327033D01*
X122562171Y-137336259D01*
X122562168Y-137336260D01*
X122556032Y-137336818D01*
X122550122Y-137338557D01*
X122550119Y-137338558D01*
X122435480Y-137372299D01*
X122377214Y-137389448D01*
X122212023Y-137475807D01*
X122066752Y-137592608D01*
X121946935Y-137735401D01*
X121943971Y-137740793D01*
X121943968Y-137740797D01*
X121898244Y-137823969D01*
X121857135Y-137898746D01*
X121855274Y-137904613D01*
X121855273Y-137904615D01*
X121803514Y-138067781D01*
X121800772Y-138076424D01*
X121779994Y-138261665D01*
X121398791Y-138261665D01*
X121381909Y-138089487D01*
X121380128Y-138083588D01*
X121380127Y-138083583D01*
X121329814Y-137916939D01*
X121328033Y-137911040D01*
X121252836Y-137769615D01*
X121243416Y-137751898D01*
X121243414Y-137751895D01*
X121240522Y-137746456D01*
X121236632Y-137741686D01*
X121236629Y-137741682D01*
X121126605Y-137606780D01*
X121126602Y-137606777D01*
X121122710Y-137602005D01*
X121117056Y-137597327D01*
X120999408Y-137500000D01*
X120979085Y-137483187D01*
X120815116Y-137394529D01*
X120726083Y-137366969D01*
X120642936Y-137341231D01*
X120642933Y-137341230D01*
X120637049Y-137339409D01*
X120630924Y-137338765D01*
X120630923Y-137338765D01*
X120457796Y-137320568D01*
X120457795Y-137320568D01*
X120451668Y-137319924D01*
X120373549Y-137327033D01*
X120272171Y-137336259D01*
X120272168Y-137336260D01*
X120266032Y-137336818D01*
X120260122Y-137338557D01*
X120260119Y-137338558D01*
X120145480Y-137372299D01*
X120087214Y-137389448D01*
X119922023Y-137475807D01*
X119776752Y-137592608D01*
X119656935Y-137735401D01*
X119653971Y-137740793D01*
X119653968Y-137740797D01*
X119608244Y-137823969D01*
X119567135Y-137898746D01*
X119565274Y-137904613D01*
X119565273Y-137904615D01*
X119513514Y-138067781D01*
X119510772Y-138076424D01*
X119489994Y-138261665D01*
X112258791Y-138261665D01*
X112241909Y-138089487D01*
X112240128Y-138083588D01*
X112240127Y-138083583D01*
X112189814Y-137916939D01*
X112188033Y-137911040D01*
X112112836Y-137769615D01*
X112103416Y-137751898D01*
X112103414Y-137751895D01*
X112100522Y-137746456D01*
X112096632Y-137741686D01*
X112096629Y-137741682D01*
X111986605Y-137606780D01*
X111986602Y-137606777D01*
X111982710Y-137602005D01*
X111977056Y-137597327D01*
X111859408Y-137500000D01*
X111839085Y-137483187D01*
X111675116Y-137394529D01*
X111586083Y-137366969D01*
X111502936Y-137341231D01*
X111502933Y-137341230D01*
X111497049Y-137339409D01*
X111490924Y-137338765D01*
X111490923Y-137338765D01*
X111317796Y-137320568D01*
X111317795Y-137320568D01*
X111311668Y-137319924D01*
X111233549Y-137327033D01*
X111132171Y-137336259D01*
X111132168Y-137336260D01*
X111126032Y-137336818D01*
X111120122Y-137338557D01*
X111120119Y-137338558D01*
X111005480Y-137372299D01*
X110947214Y-137389448D01*
X110782023Y-137475807D01*
X110636752Y-137592608D01*
X110516935Y-137735401D01*
X110513971Y-137740793D01*
X110513968Y-137740797D01*
X110468244Y-137823969D01*
X110427135Y-137898746D01*
X110425274Y-137904613D01*
X110425273Y-137904615D01*
X110373514Y-138067781D01*
X110370772Y-138076424D01*
X110349994Y-138261665D01*
X109968791Y-138261665D01*
X109951909Y-138089487D01*
X109950128Y-138083588D01*
X109950127Y-138083583D01*
X109899814Y-137916939D01*
X109898033Y-137911040D01*
X109822836Y-137769615D01*
X109813416Y-137751898D01*
X109813414Y-137751895D01*
X109810522Y-137746456D01*
X109806632Y-137741686D01*
X109806629Y-137741682D01*
X109696605Y-137606780D01*
X109696602Y-137606777D01*
X109692710Y-137602005D01*
X109687056Y-137597327D01*
X109569408Y-137500000D01*
X109549085Y-137483187D01*
X109385116Y-137394529D01*
X109296083Y-137366969D01*
X109212936Y-137341231D01*
X109212933Y-137341230D01*
X109207049Y-137339409D01*
X109200924Y-137338765D01*
X109200923Y-137338765D01*
X109027796Y-137320568D01*
X109027795Y-137320568D01*
X109021668Y-137319924D01*
X108943549Y-137327033D01*
X108842171Y-137336259D01*
X108842168Y-137336260D01*
X108836032Y-137336818D01*
X108830122Y-137338557D01*
X108830119Y-137338558D01*
X108715480Y-137372299D01*
X108657214Y-137389448D01*
X108492023Y-137475807D01*
X108346752Y-137592608D01*
X108226935Y-137735401D01*
X108223971Y-137740793D01*
X108223968Y-137740797D01*
X108178244Y-137823969D01*
X108137135Y-137898746D01*
X108135274Y-137904613D01*
X108135273Y-137904615D01*
X108083514Y-138067781D01*
X108080772Y-138076424D01*
X108059994Y-138261665D01*
X99813791Y-138261665D01*
X99796909Y-138089487D01*
X99795128Y-138083588D01*
X99795127Y-138083583D01*
X99744814Y-137916939D01*
X99743033Y-137911040D01*
X99667836Y-137769615D01*
X99658416Y-137751898D01*
X99658414Y-137751895D01*
X99655522Y-137746456D01*
X99651632Y-137741686D01*
X99651629Y-137741682D01*
X99541605Y-137606780D01*
X99541602Y-137606777D01*
X99537710Y-137602005D01*
X99532056Y-137597327D01*
X99414408Y-137500000D01*
X99394085Y-137483187D01*
X99230116Y-137394529D01*
X99141083Y-137366969D01*
X99057936Y-137341231D01*
X99057933Y-137341230D01*
X99052049Y-137339409D01*
X99045924Y-137338765D01*
X99045923Y-137338765D01*
X98872796Y-137320568D01*
X98872795Y-137320568D01*
X98866668Y-137319924D01*
X98788549Y-137327033D01*
X98687171Y-137336259D01*
X98687168Y-137336260D01*
X98681032Y-137336818D01*
X98675122Y-137338557D01*
X98675119Y-137338558D01*
X98560480Y-137372299D01*
X98502214Y-137389448D01*
X98337023Y-137475807D01*
X98191752Y-137592608D01*
X98071935Y-137735401D01*
X98068971Y-137740793D01*
X98068968Y-137740797D01*
X98023244Y-137823969D01*
X97982135Y-137898746D01*
X97980274Y-137904613D01*
X97980273Y-137904615D01*
X97928514Y-138067781D01*
X97925772Y-138076424D01*
X97904994Y-138261665D01*
X97523791Y-138261665D01*
X97506909Y-138089487D01*
X97505128Y-138083588D01*
X97505127Y-138083583D01*
X97454814Y-137916939D01*
X97453033Y-137911040D01*
X97377836Y-137769615D01*
X97368416Y-137751898D01*
X97368414Y-137751895D01*
X97365522Y-137746456D01*
X97361632Y-137741686D01*
X97361629Y-137741682D01*
X97251605Y-137606780D01*
X97251602Y-137606777D01*
X97247710Y-137602005D01*
X97242056Y-137597327D01*
X97124408Y-137500000D01*
X97104085Y-137483187D01*
X96940116Y-137394529D01*
X96851083Y-137366969D01*
X96767936Y-137341231D01*
X96767933Y-137341230D01*
X96762049Y-137339409D01*
X96755924Y-137338765D01*
X96755923Y-137338765D01*
X96582796Y-137320568D01*
X96582795Y-137320568D01*
X96576668Y-137319924D01*
X96498549Y-137327033D01*
X96397171Y-137336259D01*
X96397168Y-137336260D01*
X96391032Y-137336818D01*
X96385122Y-137338557D01*
X96385119Y-137338558D01*
X96270480Y-137372299D01*
X96212214Y-137389448D01*
X96047023Y-137475807D01*
X95901752Y-137592608D01*
X95781935Y-137735401D01*
X95778971Y-137740793D01*
X95778968Y-137740797D01*
X95733244Y-137823969D01*
X95692135Y-137898746D01*
X95690274Y-137904613D01*
X95690273Y-137904615D01*
X95638514Y-138067781D01*
X95635772Y-138076424D01*
X95614994Y-138261665D01*
X88383791Y-138261665D01*
X88366909Y-138089487D01*
X88365128Y-138083588D01*
X88365127Y-138083583D01*
X88314814Y-137916939D01*
X88313033Y-137911040D01*
X88237836Y-137769615D01*
X88228416Y-137751898D01*
X88228414Y-137751895D01*
X88225522Y-137746456D01*
X88221632Y-137741686D01*
X88221629Y-137741682D01*
X88111605Y-137606780D01*
X88111602Y-137606777D01*
X88107710Y-137602005D01*
X88102056Y-137597327D01*
X87984408Y-137500000D01*
X87964085Y-137483187D01*
X87800116Y-137394529D01*
X87711083Y-137366969D01*
X87627936Y-137341231D01*
X87627933Y-137341230D01*
X87622049Y-137339409D01*
X87615924Y-137338765D01*
X87615923Y-137338765D01*
X87442796Y-137320568D01*
X87442795Y-137320568D01*
X87436668Y-137319924D01*
X87358549Y-137327033D01*
X87257171Y-137336259D01*
X87257168Y-137336260D01*
X87251032Y-137336818D01*
X87245122Y-137338557D01*
X87245119Y-137338558D01*
X87130480Y-137372299D01*
X87072214Y-137389448D01*
X86907023Y-137475807D01*
X86761752Y-137592608D01*
X86641935Y-137735401D01*
X86638971Y-137740793D01*
X86638968Y-137740797D01*
X86593244Y-137823969D01*
X86552135Y-137898746D01*
X86550274Y-137904613D01*
X86550273Y-137904615D01*
X86498514Y-138067781D01*
X86495772Y-138076424D01*
X86474994Y-138261665D01*
X86093791Y-138261665D01*
X86076909Y-138089487D01*
X86075128Y-138083588D01*
X86075127Y-138083583D01*
X86024814Y-137916939D01*
X86023033Y-137911040D01*
X85947836Y-137769615D01*
X85938416Y-137751898D01*
X85938414Y-137751895D01*
X85935522Y-137746456D01*
X85931632Y-137741686D01*
X85931629Y-137741682D01*
X85821605Y-137606780D01*
X85821602Y-137606777D01*
X85817710Y-137602005D01*
X85812056Y-137597327D01*
X85694408Y-137500000D01*
X85674085Y-137483187D01*
X85510116Y-137394529D01*
X85421083Y-137366969D01*
X85337936Y-137341231D01*
X85337933Y-137341230D01*
X85332049Y-137339409D01*
X85325924Y-137338765D01*
X85325923Y-137338765D01*
X85152796Y-137320568D01*
X85152795Y-137320568D01*
X85146668Y-137319924D01*
X85068549Y-137327033D01*
X84967171Y-137336259D01*
X84967168Y-137336260D01*
X84961032Y-137336818D01*
X84955122Y-137338557D01*
X84955119Y-137338558D01*
X84865025Y-137365075D01*
X84799518Y-137384355D01*
X84728522Y-137384401D01*
X84668771Y-137346055D01*
X84639237Y-137281494D01*
X84649296Y-137211213D01*
X84674848Y-137174387D01*
X84979235Y-136870000D01*
X159129341Y-136870000D01*
X159149937Y-137105408D01*
X159151361Y-137110722D01*
X159151361Y-137110723D01*
X159207416Y-137319924D01*
X159211097Y-137333663D01*
X159213419Y-137338643D01*
X159213420Y-137338645D01*
X159284844Y-137491812D01*
X159310965Y-137547829D01*
X159446505Y-137741401D01*
X159613599Y-137908495D01*
X159618107Y-137911652D01*
X159618110Y-137911654D01*
X159755975Y-138008188D01*
X159807170Y-138044035D01*
X159812152Y-138046358D01*
X159812157Y-138046361D01*
X159917796Y-138095621D01*
X160021337Y-138143903D01*
X160026645Y-138145325D01*
X160026647Y-138145326D01*
X160244277Y-138203639D01*
X160249592Y-138205063D01*
X160485000Y-138225659D01*
X160720408Y-138205063D01*
X160725723Y-138203639D01*
X160943353Y-138145326D01*
X160943355Y-138145325D01*
X160948663Y-138143903D01*
X161052204Y-138095621D01*
X161157843Y-138046361D01*
X161157848Y-138046358D01*
X161162830Y-138044035D01*
X161214025Y-138008188D01*
X161351890Y-137911654D01*
X161351893Y-137911652D01*
X161356401Y-137908495D01*
X161523495Y-137741401D01*
X161659035Y-137547829D01*
X161685157Y-137491812D01*
X161756580Y-137338645D01*
X161756581Y-137338643D01*
X161758903Y-137333663D01*
X161762585Y-137319924D01*
X161818639Y-137110723D01*
X161818639Y-137110722D01*
X161820063Y-137105408D01*
X161840659Y-136870000D01*
X161820063Y-136634592D01*
X161758903Y-136406337D01*
X161659035Y-136192171D01*
X161523495Y-135998599D01*
X161356401Y-135831505D01*
X161351893Y-135828348D01*
X161351890Y-135828346D01*
X161167339Y-135699122D01*
X161167336Y-135699120D01*
X161162830Y-135695965D01*
X161157848Y-135693642D01*
X161157843Y-135693639D01*
X160953645Y-135598420D01*
X160953644Y-135598419D01*
X160948663Y-135596097D01*
X160943355Y-135594675D01*
X160943353Y-135594674D01*
X160725723Y-135536361D01*
X160725722Y-135536361D01*
X160720408Y-135534937D01*
X160485000Y-135514341D01*
X160249592Y-135534937D01*
X160244278Y-135536361D01*
X160244277Y-135536361D01*
X160026647Y-135594674D01*
X160026645Y-135594675D01*
X160021337Y-135596097D01*
X160016357Y-135598419D01*
X160016355Y-135598420D01*
X159812152Y-135693642D01*
X159812149Y-135693644D01*
X159807171Y-135695965D01*
X159613599Y-135831505D01*
X159446505Y-135998599D01*
X159310965Y-136192171D01*
X159211097Y-136406337D01*
X159149937Y-136634592D01*
X159129341Y-136870000D01*
X84979235Y-136870000D01*
X85711830Y-136137405D01*
X85774142Y-136103379D01*
X85800925Y-136100500D01*
X89952381Y-136100500D01*
X89968827Y-136101578D01*
X90000000Y-136105682D01*
X90008188Y-136104604D01*
X90039361Y-136100500D01*
X90148574Y-136086122D01*
X90156762Y-136085044D01*
X90302841Y-136024536D01*
X90428282Y-135928282D01*
X90447430Y-135903328D01*
X90458297Y-135890938D01*
X90849235Y-135500000D01*
X135894318Y-135500000D01*
X135914956Y-135656762D01*
X135975464Y-135802841D01*
X136071718Y-135928282D01*
X136197159Y-136024536D01*
X136343238Y-136085044D01*
X136500000Y-136105682D01*
X136508188Y-136104604D01*
X136648574Y-136086122D01*
X136656762Y-136085044D01*
X136802841Y-136024536D01*
X136928282Y-135928282D01*
X137024536Y-135802841D01*
X137085044Y-135656762D01*
X137105682Y-135500000D01*
X137085044Y-135343238D01*
X137024536Y-135197159D01*
X136947424Y-135096665D01*
X136933305Y-135078264D01*
X136928282Y-135071718D01*
X136834817Y-135000000D01*
X142394318Y-135000000D01*
X142414956Y-135156762D01*
X142475464Y-135302841D01*
X142571718Y-135428282D01*
X142697159Y-135524536D01*
X142843238Y-135585044D01*
X143000000Y-135605682D01*
X143008188Y-135604604D01*
X143148574Y-135586122D01*
X143156762Y-135585044D01*
X143302841Y-135524536D01*
X143428282Y-135428282D01*
X143524536Y-135302841D01*
X143585044Y-135156762D01*
X143605682Y-135000000D01*
X143585044Y-134843238D01*
X143524536Y-134697159D01*
X143428282Y-134571718D01*
X143302841Y-134475464D01*
X143156762Y-134414956D01*
X143000000Y-134394318D01*
X142843238Y-134414956D01*
X142697159Y-134475464D01*
X142571718Y-134571718D01*
X142475464Y-134697159D01*
X142414956Y-134843238D01*
X142394318Y-135000000D01*
X136834817Y-135000000D01*
X136802841Y-134975464D01*
X136656762Y-134914956D01*
X136500000Y-134894318D01*
X136343238Y-134914956D01*
X136197159Y-134975464D01*
X136071718Y-135071718D01*
X136066695Y-135078264D01*
X136052576Y-135096665D01*
X135975464Y-135197159D01*
X135914956Y-135343238D01*
X135894318Y-135500000D01*
X90849235Y-135500000D01*
X92849235Y-133500000D01*
X138394318Y-133500000D01*
X138414956Y-133656762D01*
X138475464Y-133802841D01*
X138571718Y-133928282D01*
X138697159Y-134024536D01*
X138843238Y-134085044D01*
X139000000Y-134105682D01*
X139008188Y-134104604D01*
X139148574Y-134086122D01*
X139156762Y-134085044D01*
X139302841Y-134024536D01*
X139428282Y-133928282D01*
X139524536Y-133802841D01*
X139585044Y-133656762D01*
X139605682Y-133500000D01*
X139585044Y-133343238D01*
X139524536Y-133197159D01*
X139428282Y-133071718D01*
X139302841Y-132975464D01*
X139156762Y-132914956D01*
X139000000Y-132894318D01*
X138843238Y-132914956D01*
X138697159Y-132975464D01*
X138571718Y-133071718D01*
X138475464Y-133197159D01*
X138414956Y-133343238D01*
X138394318Y-133500000D01*
X92849235Y-133500000D01*
X94719235Y-131630000D01*
X159129341Y-131630000D01*
X159149937Y-131865408D01*
X159151361Y-131870722D01*
X159151361Y-131870723D01*
X159152962Y-131876696D01*
X159211097Y-132093663D01*
X159213419Y-132098643D01*
X159213420Y-132098645D01*
X159299875Y-132284046D01*
X159310965Y-132307829D01*
X159446505Y-132501401D01*
X159613599Y-132668495D01*
X159618107Y-132671652D01*
X159618110Y-132671654D01*
X159802661Y-132800878D01*
X159807170Y-132804035D01*
X159812152Y-132806358D01*
X159812157Y-132806361D01*
X160016355Y-132901580D01*
X160021337Y-132903903D01*
X160026645Y-132905325D01*
X160026647Y-132905326D01*
X160074381Y-132918116D01*
X160249592Y-132965063D01*
X160485000Y-132985659D01*
X160720408Y-132965063D01*
X160895619Y-132918116D01*
X160943353Y-132905326D01*
X160943355Y-132905325D01*
X160948663Y-132903903D01*
X160953645Y-132901580D01*
X161157843Y-132806361D01*
X161157848Y-132806358D01*
X161162830Y-132804035D01*
X161167339Y-132800878D01*
X161351890Y-132671654D01*
X161351893Y-132671652D01*
X161356401Y-132668495D01*
X161523495Y-132501401D01*
X161659035Y-132307829D01*
X161670126Y-132284046D01*
X161756580Y-132098645D01*
X161756581Y-132098643D01*
X161758903Y-132093663D01*
X161817039Y-131876696D01*
X161818639Y-131870723D01*
X161818639Y-131870722D01*
X161820063Y-131865408D01*
X161840659Y-131630000D01*
X161820063Y-131394592D01*
X161798512Y-131314161D01*
X161760326Y-131171647D01*
X161760325Y-131171645D01*
X161758903Y-131166337D01*
X161692282Y-131023468D01*
X161661358Y-130957152D01*
X161661356Y-130957149D01*
X161659035Y-130952171D01*
X161523495Y-130758599D01*
X161356401Y-130591505D01*
X161351893Y-130588348D01*
X161351890Y-130588346D01*
X161167339Y-130459122D01*
X161167336Y-130459120D01*
X161162830Y-130455965D01*
X161157848Y-130453642D01*
X161157843Y-130453639D01*
X160953645Y-130358420D01*
X160953644Y-130358419D01*
X160948663Y-130356097D01*
X160943355Y-130354675D01*
X160943353Y-130354674D01*
X160725723Y-130296361D01*
X160725722Y-130296361D01*
X160720408Y-130294937D01*
X160485000Y-130274341D01*
X160249592Y-130294937D01*
X160244278Y-130296361D01*
X160244277Y-130296361D01*
X160026647Y-130354674D01*
X160026645Y-130354675D01*
X160021337Y-130356097D01*
X160016357Y-130358419D01*
X160016355Y-130358420D01*
X159812152Y-130453642D01*
X159812149Y-130453644D01*
X159807171Y-130455965D01*
X159613599Y-130591505D01*
X159446505Y-130758599D01*
X159310965Y-130952171D01*
X159308644Y-130957149D01*
X159308642Y-130957152D01*
X159277718Y-131023468D01*
X159211097Y-131166337D01*
X159209675Y-131171645D01*
X159209674Y-131171647D01*
X159171488Y-131314161D01*
X159149937Y-131394592D01*
X159129341Y-131630000D01*
X94719235Y-131630000D01*
X94860207Y-131489028D01*
X94922519Y-131455002D01*
X94964218Y-131453009D01*
X94973882Y-131454161D01*
X94973885Y-131454161D01*
X94979998Y-131454890D01*
X94986133Y-131454418D01*
X94986135Y-131454418D01*
X95159710Y-131441062D01*
X95159715Y-131441061D01*
X95165851Y-131440589D01*
X95171781Y-131438933D01*
X95171783Y-131438933D01*
X95283742Y-131407673D01*
X95345387Y-131390462D01*
X95511768Y-131306417D01*
X95519228Y-131300589D01*
X95653794Y-131195454D01*
X95653795Y-131195453D01*
X95658655Y-131191656D01*
X95780454Y-131050550D01*
X95872526Y-130888474D01*
X95931364Y-130711601D01*
X95945101Y-130602863D01*
X95954285Y-130530170D01*
X95954286Y-130530163D01*
X95954727Y-130526668D01*
X95955099Y-130500000D01*
X95936909Y-130314487D01*
X95935128Y-130308588D01*
X95935127Y-130308583D01*
X95884814Y-130141939D01*
X95883033Y-130136040D01*
X95829094Y-130034596D01*
X95810699Y-130000000D01*
X127694318Y-130000000D01*
X127695396Y-130008188D01*
X127713005Y-130141939D01*
X127714956Y-130156762D01*
X127775464Y-130302841D01*
X127871718Y-130428282D01*
X127997159Y-130524536D01*
X128143238Y-130585044D01*
X128300000Y-130605682D01*
X128308188Y-130604604D01*
X128321413Y-130602863D01*
X128456762Y-130585044D01*
X128602841Y-130524536D01*
X128728282Y-130428282D01*
X128790909Y-130346665D01*
X153819994Y-130346665D01*
X153820510Y-130352809D01*
X153834814Y-130523145D01*
X153835592Y-130532414D01*
X153837291Y-130538339D01*
X153885218Y-130705481D01*
X153886971Y-130711595D01*
X153972176Y-130877385D01*
X154087959Y-131023468D01*
X154229912Y-131144279D01*
X154235290Y-131147285D01*
X154235292Y-131147286D01*
X154269380Y-131166337D01*
X154392627Y-131235217D01*
X154569907Y-131292819D01*
X154754998Y-131314890D01*
X154761133Y-131314418D01*
X154761135Y-131314418D01*
X154934710Y-131301062D01*
X154934715Y-131301061D01*
X154940851Y-131300589D01*
X154946781Y-131298933D01*
X154946783Y-131298933D01*
X155091870Y-131258424D01*
X155120387Y-131250462D01*
X155286768Y-131166417D01*
X155296609Y-131158729D01*
X155428794Y-131055454D01*
X155428795Y-131055453D01*
X155433655Y-131051656D01*
X155555454Y-130910550D01*
X155647526Y-130748474D01*
X155706364Y-130571601D01*
X155721266Y-130453642D01*
X155729285Y-130390170D01*
X155729286Y-130390163D01*
X155729727Y-130386668D01*
X155730099Y-130360000D01*
X155711909Y-130174487D01*
X155710128Y-130168588D01*
X155710127Y-130168583D01*
X155659814Y-130001939D01*
X155658033Y-129996040D01*
X155603067Y-129892664D01*
X162034967Y-129892664D01*
X162060818Y-130163611D01*
X162061903Y-130168045D01*
X162061904Y-130168051D01*
X162108874Y-130360000D01*
X162125511Y-130427989D01*
X162127223Y-130432215D01*
X162127224Y-130432219D01*
X162224498Y-130672378D01*
X162227690Y-130680259D01*
X162229994Y-130684194D01*
X162229996Y-130684198D01*
X162270772Y-130753837D01*
X162365217Y-130915137D01*
X162535209Y-131127701D01*
X162734105Y-131313499D01*
X162957739Y-131468640D01*
X163013217Y-131496240D01*
X163197339Y-131587840D01*
X163197342Y-131587841D01*
X163201426Y-131589873D01*
X163460062Y-131674658D01*
X163464553Y-131675438D01*
X163464554Y-131675438D01*
X163724447Y-131720563D01*
X163724455Y-131720564D01*
X163728228Y-131721219D01*
X163732065Y-131721410D01*
X163812651Y-131725422D01*
X163812659Y-131725422D01*
X163814222Y-131725500D01*
X163984144Y-131725500D01*
X163986412Y-131725335D01*
X163986424Y-131725335D01*
X164117468Y-131715826D01*
X164186464Y-131710820D01*
X164190919Y-131709836D01*
X164190922Y-131709836D01*
X164447782Y-131653127D01*
X164447786Y-131653126D01*
X164452242Y-131652142D01*
X164612845Y-131591295D01*
X164702495Y-131557330D01*
X164702498Y-131557329D01*
X164706765Y-131555712D01*
X164944702Y-131423550D01*
X164994185Y-131385785D01*
X165157443Y-131261191D01*
X165157447Y-131261188D01*
X165161068Y-131258424D01*
X165167234Y-131252117D01*
X165348145Y-131067053D01*
X165351331Y-131063794D01*
X165511506Y-130843737D01*
X165638236Y-130602863D01*
X165728867Y-130346218D01*
X165781500Y-130079177D01*
X165783505Y-130038911D01*
X165794806Y-129811905D01*
X165794806Y-129811899D01*
X165795033Y-129807336D01*
X165769182Y-129536389D01*
X165767199Y-129528282D01*
X165705574Y-129276445D01*
X165704489Y-129272011D01*
X165701403Y-129264391D01*
X165604023Y-129023969D01*
X165604020Y-129023963D01*
X165602310Y-129019741D01*
X165597229Y-129011062D01*
X165520017Y-128879195D01*
X165464783Y-128784863D01*
X165333378Y-128620550D01*
X165297643Y-128575865D01*
X165297642Y-128575863D01*
X165294791Y-128572299D01*
X165095895Y-128386501D01*
X164872261Y-128231360D01*
X164747124Y-128169105D01*
X164632661Y-128112160D01*
X164632658Y-128112159D01*
X164628574Y-128110127D01*
X164369938Y-128025342D01*
X164365446Y-128024562D01*
X164105553Y-127979437D01*
X164105545Y-127979436D01*
X164101772Y-127978781D01*
X164092316Y-127978310D01*
X164017349Y-127974578D01*
X164017341Y-127974578D01*
X164015778Y-127974500D01*
X163845856Y-127974500D01*
X163843588Y-127974665D01*
X163843576Y-127974665D01*
X163729880Y-127982915D01*
X163643536Y-127989180D01*
X163639081Y-127990164D01*
X163639078Y-127990164D01*
X163382218Y-128046873D01*
X163382214Y-128046874D01*
X163377758Y-128047858D01*
X163328519Y-128066513D01*
X163127505Y-128142670D01*
X163127502Y-128142671D01*
X163123235Y-128144288D01*
X162885298Y-128276450D01*
X162881666Y-128279222D01*
X162672557Y-128438809D01*
X162672553Y-128438812D01*
X162668932Y-128441576D01*
X162478669Y-128636206D01*
X162318494Y-128856263D01*
X162191764Y-129097137D01*
X162101133Y-129353782D01*
X162048500Y-129620823D01*
X162048273Y-129625380D01*
X162048273Y-129625381D01*
X162037297Y-129845863D01*
X162034967Y-129892664D01*
X155603067Y-129892664D01*
X155600638Y-129888095D01*
X155573416Y-129836898D01*
X155573414Y-129836895D01*
X155570522Y-129831456D01*
X155566632Y-129826686D01*
X155566629Y-129826682D01*
X155456605Y-129691780D01*
X155456602Y-129691777D01*
X155452710Y-129687005D01*
X155447056Y-129682327D01*
X155362900Y-129612707D01*
X155309085Y-129568187D01*
X155145116Y-129479529D01*
X155056083Y-129451969D01*
X154972936Y-129426231D01*
X154972933Y-129426230D01*
X154967049Y-129424409D01*
X154960924Y-129423765D01*
X154960923Y-129423765D01*
X154787796Y-129405568D01*
X154787795Y-129405568D01*
X154781668Y-129404924D01*
X154703549Y-129412033D01*
X154602171Y-129421259D01*
X154602168Y-129421260D01*
X154596032Y-129421818D01*
X154590122Y-129423557D01*
X154590119Y-129423558D01*
X154423129Y-129472707D01*
X154417214Y-129474448D01*
X154252023Y-129560807D01*
X154106752Y-129677608D01*
X153986935Y-129820401D01*
X153983971Y-129825793D01*
X153983968Y-129825797D01*
X153947208Y-129892664D01*
X153897135Y-129983746D01*
X153895274Y-129989613D01*
X153895273Y-129989615D01*
X153852724Y-130123746D01*
X153840772Y-130161424D01*
X153819994Y-130346665D01*
X128790909Y-130346665D01*
X128824536Y-130302841D01*
X128885044Y-130156762D01*
X128886996Y-130141939D01*
X128904604Y-130008188D01*
X128905682Y-130000000D01*
X128885044Y-129843238D01*
X128824536Y-129697159D01*
X128770474Y-129626704D01*
X128744874Y-129560484D01*
X128757280Y-129500000D01*
X145894318Y-129500000D01*
X145914956Y-129656762D01*
X145975464Y-129802841D01*
X146071718Y-129928282D01*
X146197159Y-130024536D01*
X146343238Y-130085044D01*
X146500000Y-130105682D01*
X146508188Y-130104604D01*
X146648574Y-130086122D01*
X146656762Y-130085044D01*
X146802841Y-130024536D01*
X146928282Y-129928282D01*
X147024536Y-129802841D01*
X147085044Y-129656762D01*
X147105682Y-129500000D01*
X147085044Y-129343238D01*
X147024536Y-129197159D01*
X146951092Y-129101445D01*
X146933305Y-129078264D01*
X146928282Y-129071718D01*
X146802841Y-128975464D01*
X146656762Y-128914956D01*
X146634279Y-128911996D01*
X146508188Y-128895396D01*
X146500000Y-128894318D01*
X146491812Y-128895396D01*
X146365722Y-128911996D01*
X146343238Y-128914956D01*
X146197159Y-128975464D01*
X146071718Y-129071718D01*
X146066695Y-129078264D01*
X146048908Y-129101445D01*
X145975464Y-129197159D01*
X145914956Y-129343238D01*
X145894318Y-129500000D01*
X128757280Y-129500000D01*
X128759139Y-129490935D01*
X128770474Y-129473296D01*
X128819509Y-129409392D01*
X128824536Y-129402841D01*
X128885044Y-129256762D01*
X128905682Y-129100000D01*
X128885044Y-128943238D01*
X128824536Y-128797159D01*
X128728282Y-128671718D01*
X128602841Y-128575464D01*
X128456762Y-128514956D01*
X128300000Y-128494318D01*
X128143238Y-128514956D01*
X127997159Y-128575464D01*
X127871718Y-128671718D01*
X127775464Y-128797159D01*
X127714956Y-128943238D01*
X127694318Y-129100000D01*
X127714956Y-129256762D01*
X127775464Y-129402841D01*
X127780491Y-129409392D01*
X127829526Y-129473296D01*
X127855126Y-129539516D01*
X127840861Y-129609065D01*
X127829527Y-129626703D01*
X127775464Y-129697159D01*
X127714956Y-129843238D01*
X127694318Y-130000000D01*
X95810699Y-130000000D01*
X95798416Y-129976898D01*
X95798414Y-129976895D01*
X95795522Y-129971456D01*
X95791632Y-129966686D01*
X95791629Y-129966682D01*
X95681605Y-129831780D01*
X95681602Y-129831777D01*
X95677710Y-129827005D01*
X95672056Y-129822327D01*
X95538834Y-129712116D01*
X95534085Y-129708187D01*
X95370116Y-129619529D01*
X95216947Y-129572116D01*
X95197936Y-129566231D01*
X95197933Y-129566230D01*
X95192049Y-129564409D01*
X95185924Y-129563765D01*
X95185923Y-129563765D01*
X95012796Y-129545568D01*
X95012795Y-129545568D01*
X95006668Y-129544924D01*
X94928549Y-129552033D01*
X94827171Y-129561259D01*
X94827168Y-129561260D01*
X94821032Y-129561818D01*
X94815122Y-129563557D01*
X94815119Y-129563558D01*
X94648129Y-129612707D01*
X94642214Y-129614448D01*
X94477023Y-129700807D01*
X94331752Y-129817608D01*
X94211935Y-129960401D01*
X94208971Y-129965793D01*
X94208968Y-129965797D01*
X94166280Y-130043446D01*
X94122135Y-130123746D01*
X94120274Y-130129613D01*
X94120273Y-130129615D01*
X94107912Y-130168583D01*
X94065772Y-130301424D01*
X94044994Y-130486665D01*
X94048693Y-130530707D01*
X94049327Y-130538262D01*
X94035096Y-130607818D01*
X94012864Y-130637901D01*
X89788170Y-134862595D01*
X89725858Y-134896621D01*
X89699075Y-134899500D01*
X85547619Y-134899500D01*
X85531173Y-134898422D01*
X85508188Y-134895396D01*
X85500000Y-134894318D01*
X85460639Y-134899500D01*
X85343238Y-134914956D01*
X85197159Y-134975464D01*
X85071718Y-135071718D01*
X85052568Y-135096675D01*
X85041708Y-135109057D01*
X83109062Y-137041703D01*
X83096672Y-137052570D01*
X83071718Y-137071718D01*
X83047550Y-137103215D01*
X82975464Y-137197159D01*
X82914956Y-137343238D01*
X82894318Y-137500000D01*
X82895396Y-137508188D01*
X82898422Y-137531173D01*
X82899500Y-137547619D01*
X82899500Y-139452381D01*
X82898422Y-139468827D01*
X82894318Y-139500000D01*
X82899500Y-139539361D01*
X82914956Y-139656762D01*
X82975464Y-139802841D01*
X83039031Y-139885683D01*
X83055310Y-139906898D01*
X83071718Y-139928282D01*
X83078264Y-139933305D01*
X83096671Y-139947429D01*
X83109062Y-139958297D01*
X85362595Y-142211830D01*
X85396621Y-142274142D01*
X85399500Y-142300925D01*
X85399500Y-143518172D01*
X85379498Y-143586293D01*
X85325842Y-143632786D01*
X85255568Y-143642890D01*
X85190988Y-143613396D01*
X85151793Y-143550783D01*
X85145326Y-143526647D01*
X85145325Y-143526645D01*
X85143903Y-143521337D01*
X85141580Y-143516355D01*
X85046358Y-143312152D01*
X85046356Y-143312149D01*
X85044035Y-143307171D01*
X84908495Y-143113599D01*
X84741401Y-142946505D01*
X84736893Y-142943348D01*
X84736890Y-142943346D01*
X84552339Y-142814122D01*
X84552336Y-142814120D01*
X84547830Y-142810965D01*
X84542848Y-142808642D01*
X84542843Y-142808639D01*
X84338645Y-142713420D01*
X84338644Y-142713419D01*
X84333663Y-142711097D01*
X84328355Y-142709675D01*
X84328353Y-142709674D01*
X84110723Y-142651361D01*
X84110722Y-142651361D01*
X84105408Y-142649937D01*
X83870000Y-142629341D01*
X83634592Y-142649937D01*
X83629278Y-142651361D01*
X83629277Y-142651361D01*
X83411647Y-142709674D01*
X83411645Y-142709675D01*
X83406337Y-142711097D01*
X83401357Y-142713419D01*
X83401355Y-142713420D01*
X83197152Y-142808642D01*
X83197149Y-142808644D01*
X83192171Y-142810965D01*
X82998599Y-142946505D01*
X82831505Y-143113599D01*
X82695965Y-143307171D01*
X82693644Y-143312149D01*
X82693642Y-143312152D01*
X82598420Y-143516355D01*
X82596097Y-143521337D01*
X82594675Y-143526645D01*
X82594674Y-143526647D01*
X82536361Y-143744277D01*
X82534937Y-143749592D01*
X82514341Y-143985000D01*
X79078415Y-143985000D01*
X79054050Y-130535361D01*
X84295316Y-130535361D01*
X84295540Y-130540027D01*
X84295540Y-130540033D01*
X84301065Y-130655044D01*
X84307443Y-130787820D01*
X84308356Y-130792409D01*
X84353356Y-131018638D01*
X84356752Y-131035713D01*
X84358331Y-131040111D01*
X84358333Y-131040118D01*
X84440577Y-131269186D01*
X84442160Y-131273595D01*
X84561792Y-131496240D01*
X84564587Y-131499984D01*
X84564589Y-131499986D01*
X84710226Y-131695018D01*
X84710231Y-131695024D01*
X84713018Y-131698756D01*
X84716327Y-131702036D01*
X84716332Y-131702042D01*
X84889200Y-131873408D01*
X84892517Y-131876696D01*
X84896279Y-131879454D01*
X84896282Y-131879457D01*
X85092575Y-132023384D01*
X85096346Y-132026149D01*
X85100481Y-132028325D01*
X85100485Y-132028327D01*
X85214576Y-132088353D01*
X85320026Y-132143833D01*
X85558644Y-132227162D01*
X85563237Y-132228034D01*
X85802369Y-132273435D01*
X85802372Y-132273435D01*
X85806958Y-132274306D01*
X85927081Y-132279026D01*
X86054845Y-132284046D01*
X86054850Y-132284046D01*
X86059513Y-132284229D01*
X86137657Y-132275671D01*
X86306107Y-132257223D01*
X86306112Y-132257222D01*
X86310760Y-132256713D01*
X86428861Y-132225620D01*
X86550658Y-132193554D01*
X86550661Y-132193553D01*
X86555181Y-132192363D01*
X86787405Y-132092591D01*
X86894774Y-132026149D01*
X86998358Y-131962050D01*
X86998362Y-131962047D01*
X87002331Y-131959591D01*
X87096989Y-131879457D01*
X87191672Y-131799302D01*
X87191673Y-131799301D01*
X87195238Y-131796283D01*
X87269898Y-131711150D01*
X87358806Y-131609771D01*
X87358810Y-131609766D01*
X87361888Y-131606256D01*
X87373734Y-131587840D01*
X87496094Y-131397610D01*
X87496096Y-131397607D01*
X87498619Y-131393684D01*
X87602428Y-131163236D01*
X87671034Y-130919976D01*
X87687263Y-130792409D01*
X87702533Y-130672378D01*
X87702533Y-130672372D01*
X87702931Y-130669247D01*
X87705268Y-130580000D01*
X87700773Y-130519509D01*
X87686883Y-130332597D01*
X87686882Y-130332593D01*
X87686537Y-130327945D01*
X87630756Y-130081428D01*
X87602275Y-130008188D01*
X87540843Y-129850216D01*
X87540842Y-129850214D01*
X87539150Y-129845863D01*
X87533290Y-129835609D01*
X87458519Y-129704789D01*
X87413731Y-129626426D01*
X87314064Y-129500000D01*
X87260147Y-129431606D01*
X87260144Y-129431603D01*
X87257255Y-129427938D01*
X87073160Y-129254758D01*
X86865489Y-129110691D01*
X86861296Y-129108623D01*
X86642993Y-129000968D01*
X86642990Y-129000967D01*
X86638805Y-128998903D01*
X86594379Y-128984682D01*
X86471089Y-128945217D01*
X86398087Y-128921849D01*
X86393480Y-128921099D01*
X86393477Y-128921098D01*
X86153235Y-128881972D01*
X86153236Y-128881972D01*
X86148624Y-128881221D01*
X86026026Y-128879616D01*
X85900573Y-128877974D01*
X85900570Y-128877974D01*
X85895896Y-128877913D01*
X85645455Y-128911996D01*
X85640965Y-128913305D01*
X85640959Y-128913306D01*
X85541796Y-128942210D01*
X85402803Y-128982723D01*
X85398556Y-128984681D01*
X85398553Y-128984682D01*
X85363341Y-129000915D01*
X85173270Y-129088539D01*
X85169361Y-129091102D01*
X84965812Y-129224554D01*
X84965807Y-129224558D01*
X84961899Y-129227120D01*
X84930933Y-129254758D01*
X84814970Y-129358259D01*
X84773333Y-129395421D01*
X84611715Y-129589746D01*
X84480595Y-129805825D01*
X84478786Y-129810139D01*
X84478785Y-129810141D01*
X84387557Y-130027696D01*
X84382854Y-130038911D01*
X84320639Y-130283883D01*
X84295316Y-130535361D01*
X79054050Y-130535361D01*
X79049560Y-128056665D01*
X153819994Y-128056665D01*
X153835592Y-128242414D01*
X153837291Y-128248339D01*
X153876163Y-128383902D01*
X153886971Y-128421595D01*
X153972176Y-128587385D01*
X154087959Y-128733468D01*
X154229912Y-128854279D01*
X154235290Y-128857285D01*
X154235292Y-128857286D01*
X154262731Y-128872621D01*
X154392627Y-128945217D01*
X154569907Y-129002819D01*
X154754998Y-129024890D01*
X154761133Y-129024418D01*
X154761135Y-129024418D01*
X154934710Y-129011062D01*
X154934715Y-129011061D01*
X154940851Y-129010589D01*
X154946781Y-129008933D01*
X154946783Y-129008933D01*
X155114459Y-128962117D01*
X155114458Y-128962117D01*
X155120387Y-128960462D01*
X155286768Y-128876417D01*
X155311255Y-128857286D01*
X155428794Y-128765454D01*
X155428795Y-128765453D01*
X155433655Y-128761656D01*
X155555454Y-128620550D01*
X155647526Y-128458474D01*
X155706364Y-128281601D01*
X155723711Y-128144288D01*
X155729285Y-128100170D01*
X155729286Y-128100163D01*
X155729727Y-128096668D01*
X155730099Y-128070000D01*
X155711909Y-127884487D01*
X155710128Y-127878588D01*
X155710127Y-127878583D01*
X155659814Y-127711939D01*
X155658033Y-127706040D01*
X155603006Y-127602550D01*
X155573416Y-127546898D01*
X155573414Y-127546895D01*
X155570522Y-127541456D01*
X155566632Y-127536686D01*
X155566629Y-127536682D01*
X155456605Y-127401780D01*
X155456602Y-127401777D01*
X155452710Y-127397005D01*
X155447056Y-127392327D01*
X155313834Y-127282116D01*
X155309085Y-127278187D01*
X155145116Y-127189529D01*
X155022078Y-127151443D01*
X154972936Y-127136231D01*
X154972933Y-127136230D01*
X154967049Y-127134409D01*
X154960924Y-127133765D01*
X154960923Y-127133765D01*
X154787796Y-127115568D01*
X154787795Y-127115568D01*
X154781668Y-127114924D01*
X154703549Y-127122033D01*
X154602171Y-127131259D01*
X154602168Y-127131260D01*
X154596032Y-127131818D01*
X154590122Y-127133557D01*
X154590119Y-127133558D01*
X154423129Y-127182707D01*
X154417214Y-127184448D01*
X154252023Y-127270807D01*
X154106752Y-127387608D01*
X153986935Y-127530401D01*
X153983971Y-127535793D01*
X153983968Y-127535797D01*
X153909256Y-127671699D01*
X153897135Y-127693746D01*
X153895274Y-127699613D01*
X153895273Y-127699615D01*
X153880098Y-127747454D01*
X153840772Y-127871424D01*
X153819994Y-128056665D01*
X79049560Y-128056665D01*
X79047681Y-127019748D01*
X84299500Y-127019748D01*
X84300707Y-127025816D01*
X84306613Y-127055505D01*
X84311133Y-127078231D01*
X84355448Y-127144552D01*
X84421769Y-127188867D01*
X84433938Y-127191288D01*
X84433939Y-127191288D01*
X84474184Y-127199293D01*
X84480252Y-127200500D01*
X87519748Y-127200500D01*
X87525816Y-127199293D01*
X87566061Y-127191288D01*
X87566062Y-127191288D01*
X87578231Y-127188867D01*
X87644552Y-127144552D01*
X87688867Y-127078231D01*
X87693388Y-127055505D01*
X87699293Y-127025816D01*
X87700500Y-127019748D01*
X87700500Y-123980252D01*
X87688867Y-123921769D01*
X87644552Y-123855448D01*
X87578231Y-123811133D01*
X87566062Y-123808712D01*
X87566061Y-123808712D01*
X87525816Y-123800707D01*
X87519748Y-123799500D01*
X84480252Y-123799500D01*
X84474184Y-123800707D01*
X84433939Y-123808712D01*
X84433938Y-123808712D01*
X84421769Y-123811133D01*
X84355448Y-123855448D01*
X84311133Y-123921769D01*
X84299500Y-123980252D01*
X84299500Y-127019748D01*
X79047681Y-127019748D01*
X79034511Y-119750000D01*
X126144318Y-119750000D01*
X126145396Y-119758188D01*
X126162077Y-119884890D01*
X126164956Y-119906762D01*
X126225464Y-120052841D01*
X126292967Y-120140813D01*
X126310903Y-120164187D01*
X126321718Y-120178282D01*
X126447159Y-120274536D01*
X126593238Y-120335044D01*
X126750000Y-120355682D01*
X126758188Y-120354604D01*
X126898574Y-120336122D01*
X126906762Y-120335044D01*
X127052841Y-120274536D01*
X127178282Y-120178282D01*
X127189098Y-120164187D01*
X127207033Y-120140813D01*
X127274536Y-120052841D01*
X127335044Y-119906762D01*
X127337924Y-119884890D01*
X127354604Y-119758188D01*
X127355682Y-119750000D01*
X127335044Y-119593238D01*
X127274536Y-119447159D01*
X127178282Y-119321718D01*
X127052841Y-119225464D01*
X126906762Y-119164956D01*
X126750000Y-119144318D01*
X126593238Y-119164956D01*
X126447159Y-119225464D01*
X126321718Y-119321718D01*
X126225464Y-119447159D01*
X126164956Y-119593238D01*
X126144318Y-119750000D01*
X79034511Y-119750000D01*
X79033001Y-118916665D01*
X153819994Y-118916665D01*
X153820510Y-118922809D01*
X153827901Y-119010820D01*
X153835592Y-119102414D01*
X153841420Y-119122739D01*
X153870876Y-119225464D01*
X153886971Y-119281595D01*
X153972176Y-119447385D01*
X154087959Y-119593468D01*
X154229912Y-119714279D01*
X154392627Y-119805217D01*
X154569907Y-119862819D01*
X154754998Y-119884890D01*
X154761133Y-119884418D01*
X154761135Y-119884418D01*
X154934710Y-119871062D01*
X154934715Y-119871061D01*
X154940851Y-119870589D01*
X154946781Y-119868933D01*
X154946783Y-119868933D01*
X155114459Y-119822117D01*
X155114458Y-119822117D01*
X155120387Y-119820462D01*
X155286768Y-119736417D01*
X155311255Y-119717286D01*
X155428794Y-119625454D01*
X155428795Y-119625453D01*
X155433655Y-119621656D01*
X155555454Y-119480550D01*
X155647526Y-119318474D01*
X155706364Y-119141601D01*
X155719382Y-119038557D01*
X155729285Y-118960170D01*
X155729286Y-118960163D01*
X155729727Y-118956668D01*
X155730099Y-118930000D01*
X155711909Y-118744487D01*
X155710128Y-118738588D01*
X155710127Y-118738583D01*
X155659814Y-118571939D01*
X155658033Y-118566040D01*
X155570522Y-118401456D01*
X155566632Y-118396686D01*
X155566629Y-118396682D01*
X155456605Y-118261780D01*
X155456602Y-118261777D01*
X155452710Y-118257005D01*
X155447056Y-118252327D01*
X155380897Y-118197596D01*
X155309085Y-118138187D01*
X155145116Y-118049529D01*
X155056082Y-118021969D01*
X154972936Y-117996231D01*
X154972933Y-117996230D01*
X154967049Y-117994409D01*
X154960924Y-117993765D01*
X154960923Y-117993765D01*
X154787796Y-117975568D01*
X154787795Y-117975568D01*
X154781668Y-117974924D01*
X154723046Y-117980259D01*
X154602171Y-117991259D01*
X154602168Y-117991260D01*
X154596032Y-117991818D01*
X154590122Y-117993557D01*
X154590119Y-117993558D01*
X154423129Y-118042707D01*
X154417214Y-118044448D01*
X154252023Y-118130807D01*
X154106752Y-118247608D01*
X153986935Y-118390401D01*
X153983971Y-118395793D01*
X153983968Y-118395797D01*
X153966429Y-118427701D01*
X153897135Y-118553746D01*
X153840772Y-118731424D01*
X153819994Y-118916665D01*
X79033001Y-118916665D01*
X79028852Y-116626665D01*
X153819994Y-116626665D01*
X153835592Y-116812414D01*
X153837291Y-116818339D01*
X153867985Y-116925381D01*
X153886971Y-116991595D01*
X153972176Y-117157385D01*
X154087959Y-117303468D01*
X154229912Y-117424279D01*
X154392627Y-117515217D01*
X154569907Y-117572819D01*
X154754998Y-117594890D01*
X154761133Y-117594418D01*
X154761135Y-117594418D01*
X154934710Y-117581062D01*
X154934715Y-117581061D01*
X154940851Y-117580589D01*
X154946781Y-117578933D01*
X154946783Y-117578933D01*
X155114459Y-117532117D01*
X155114458Y-117532117D01*
X155120387Y-117530462D01*
X155286768Y-117446417D01*
X155311255Y-117427286D01*
X155428794Y-117335454D01*
X155428795Y-117335453D01*
X155433655Y-117331656D01*
X155553629Y-117192664D01*
X162034967Y-117192664D01*
X162060818Y-117463611D01*
X162061903Y-117468045D01*
X162061904Y-117468051D01*
X162076497Y-117527686D01*
X162125511Y-117727989D01*
X162127223Y-117732215D01*
X162127224Y-117732219D01*
X162225790Y-117975568D01*
X162227690Y-117980259D01*
X162229994Y-117984194D01*
X162229996Y-117984198D01*
X162268249Y-118049529D01*
X162365217Y-118215137D01*
X162535209Y-118427701D01*
X162734105Y-118613499D01*
X162957739Y-118768640D01*
X163082876Y-118830895D01*
X163197339Y-118887840D01*
X163197342Y-118887841D01*
X163201426Y-118889873D01*
X163460062Y-118974658D01*
X163464553Y-118975438D01*
X163464554Y-118975438D01*
X163724447Y-119020563D01*
X163724455Y-119020564D01*
X163728228Y-119021219D01*
X163732065Y-119021410D01*
X163812651Y-119025422D01*
X163812659Y-119025422D01*
X163814222Y-119025500D01*
X163984144Y-119025500D01*
X163986412Y-119025335D01*
X163986424Y-119025335D01*
X164117468Y-119015826D01*
X164186464Y-119010820D01*
X164190919Y-119009836D01*
X164190922Y-119009836D01*
X164447782Y-118953127D01*
X164447786Y-118953126D01*
X164452242Y-118952142D01*
X164612845Y-118891295D01*
X164702495Y-118857330D01*
X164702498Y-118857329D01*
X164706765Y-118855712D01*
X164907008Y-118744487D01*
X164940709Y-118725768D01*
X164940710Y-118725767D01*
X164944702Y-118723550D01*
X164994185Y-118685785D01*
X165157443Y-118561191D01*
X165157447Y-118561188D01*
X165161068Y-118558424D01*
X165351331Y-118363794D01*
X165511506Y-118143737D01*
X165638236Y-117902863D01*
X165728867Y-117646218D01*
X165781500Y-117379177D01*
X165785269Y-117303468D01*
X165794806Y-117111905D01*
X165794806Y-117111899D01*
X165795033Y-117107336D01*
X165769182Y-116836389D01*
X165764766Y-116818339D01*
X165705574Y-116576445D01*
X165704489Y-116572011D01*
X165659372Y-116460621D01*
X165604023Y-116323969D01*
X165604020Y-116323963D01*
X165602310Y-116319741D01*
X165596251Y-116309392D01*
X165541115Y-116215229D01*
X165464783Y-116084863D01*
X165294791Y-115872299D01*
X165095895Y-115686501D01*
X164872261Y-115531360D01*
X164747124Y-115469105D01*
X164632661Y-115412160D01*
X164632658Y-115412159D01*
X164628574Y-115410127D01*
X164369938Y-115325342D01*
X164365446Y-115324562D01*
X164105553Y-115279437D01*
X164105545Y-115279436D01*
X164101772Y-115278781D01*
X164092316Y-115278310D01*
X164017349Y-115274578D01*
X164017341Y-115274578D01*
X164015778Y-115274500D01*
X163845856Y-115274500D01*
X163843588Y-115274665D01*
X163843576Y-115274665D01*
X163712532Y-115284174D01*
X163643536Y-115289180D01*
X163639081Y-115290164D01*
X163639078Y-115290164D01*
X163382218Y-115346873D01*
X163382214Y-115346874D01*
X163377758Y-115347858D01*
X163319315Y-115370000D01*
X163127505Y-115442670D01*
X163127502Y-115442671D01*
X163123235Y-115444288D01*
X162885298Y-115576450D01*
X162881666Y-115579222D01*
X162672557Y-115738809D01*
X162672553Y-115738812D01*
X162668932Y-115741576D01*
X162665747Y-115744834D01*
X162665746Y-115744835D01*
X162584102Y-115828353D01*
X162478669Y-115936206D01*
X162318494Y-116156263D01*
X162191764Y-116397137D01*
X162101133Y-116653782D01*
X162048500Y-116920823D01*
X162048273Y-116925380D01*
X162048273Y-116925381D01*
X162039442Y-117102780D01*
X162034967Y-117192664D01*
X155553629Y-117192664D01*
X155555454Y-117190550D01*
X155647526Y-117028474D01*
X155706364Y-116851601D01*
X155724816Y-116705542D01*
X155729285Y-116670170D01*
X155729286Y-116670163D01*
X155729727Y-116666668D01*
X155730099Y-116640000D01*
X155711909Y-116454487D01*
X155710128Y-116448588D01*
X155710127Y-116448583D01*
X155659814Y-116281939D01*
X155658033Y-116276040D01*
X155594612Y-116156762D01*
X155573416Y-116116898D01*
X155573414Y-116116895D01*
X155570522Y-116111456D01*
X155566632Y-116106686D01*
X155566629Y-116106682D01*
X155456605Y-115971780D01*
X155456602Y-115971777D01*
X155452710Y-115967005D01*
X155447056Y-115962327D01*
X155380898Y-115907596D01*
X155309085Y-115848187D01*
X155145116Y-115759529D01*
X155056083Y-115731969D01*
X154972936Y-115706231D01*
X154972933Y-115706230D01*
X154967049Y-115704409D01*
X154960924Y-115703765D01*
X154960923Y-115703765D01*
X154787796Y-115685568D01*
X154787795Y-115685568D01*
X154781668Y-115684924D01*
X154719211Y-115690608D01*
X154602171Y-115701259D01*
X154602168Y-115701260D01*
X154596032Y-115701818D01*
X154590122Y-115703557D01*
X154590119Y-115703558D01*
X154423129Y-115752707D01*
X154417214Y-115754448D01*
X154252023Y-115840807D01*
X154106752Y-115957608D01*
X153986935Y-116100401D01*
X153983971Y-116105793D01*
X153983968Y-116105797D01*
X153951756Y-116164391D01*
X153897135Y-116263746D01*
X153895274Y-116269613D01*
X153895273Y-116269615D01*
X153842634Y-116435554D01*
X153840772Y-116441424D01*
X153819994Y-116626665D01*
X79028852Y-116626665D01*
X79027717Y-116000000D01*
X95394318Y-116000000D01*
X95414956Y-116156762D01*
X95475464Y-116302841D01*
X95571718Y-116428282D01*
X95697159Y-116524536D01*
X95843238Y-116585044D01*
X96000000Y-116605682D01*
X96008188Y-116604604D01*
X96148574Y-116586122D01*
X96156762Y-116585044D01*
X96302841Y-116524536D01*
X96428282Y-116428282D01*
X96524536Y-116302841D01*
X96585044Y-116156762D01*
X96605682Y-116000000D01*
X96585044Y-115843238D01*
X96524536Y-115697159D01*
X96432108Y-115576704D01*
X96406508Y-115510483D01*
X96420773Y-115440935D01*
X96432108Y-115423296D01*
X96473003Y-115370000D01*
X159129341Y-115370000D01*
X159149937Y-115605408D01*
X159151361Y-115610722D01*
X159151361Y-115610723D01*
X159189872Y-115754448D01*
X159211097Y-115833663D01*
X159213419Y-115838643D01*
X159213420Y-115838645D01*
X159284844Y-115991812D01*
X159310965Y-116047829D01*
X159446505Y-116241401D01*
X159613599Y-116408495D01*
X159618107Y-116411652D01*
X159618110Y-116411654D01*
X159802661Y-116540878D01*
X159807170Y-116544035D01*
X159812152Y-116546358D01*
X159812157Y-116546361D01*
X159971235Y-116620540D01*
X160021337Y-116643903D01*
X160026645Y-116645325D01*
X160026647Y-116645326D01*
X160244277Y-116703639D01*
X160249592Y-116705063D01*
X160485000Y-116725659D01*
X160720408Y-116705063D01*
X160725723Y-116703639D01*
X160943353Y-116645326D01*
X160943355Y-116645325D01*
X160948663Y-116643903D01*
X160998765Y-116620540D01*
X161157843Y-116546361D01*
X161157848Y-116546358D01*
X161162830Y-116544035D01*
X161167339Y-116540878D01*
X161351890Y-116411654D01*
X161351893Y-116411652D01*
X161356401Y-116408495D01*
X161523495Y-116241401D01*
X161659035Y-116047829D01*
X161685157Y-115991812D01*
X161756580Y-115838645D01*
X161756581Y-115838643D01*
X161758903Y-115833663D01*
X161780129Y-115754448D01*
X161818639Y-115610723D01*
X161818639Y-115610722D01*
X161820063Y-115605408D01*
X161840659Y-115370000D01*
X161820063Y-115134592D01*
X161818639Y-115129277D01*
X161760326Y-114911647D01*
X161760325Y-114911645D01*
X161758903Y-114906337D01*
X161755283Y-114898574D01*
X161661358Y-114697152D01*
X161661356Y-114697149D01*
X161659035Y-114692171D01*
X161523495Y-114498599D01*
X161356401Y-114331505D01*
X161351893Y-114328348D01*
X161351890Y-114328346D01*
X161167339Y-114199122D01*
X161167336Y-114199120D01*
X161162830Y-114195965D01*
X161157848Y-114193642D01*
X161157843Y-114193639D01*
X160953645Y-114098420D01*
X160953644Y-114098419D01*
X160948663Y-114096097D01*
X160943355Y-114094675D01*
X160943353Y-114094674D01*
X160725723Y-114036361D01*
X160725722Y-114036361D01*
X160720408Y-114034937D01*
X160485000Y-114014341D01*
X160249592Y-114034937D01*
X160244278Y-114036361D01*
X160244277Y-114036361D01*
X160026647Y-114094674D01*
X160026645Y-114094675D01*
X160021337Y-114096097D01*
X160016357Y-114098419D01*
X160016355Y-114098420D01*
X159812152Y-114193642D01*
X159812149Y-114193644D01*
X159807171Y-114195965D01*
X159613599Y-114331505D01*
X159446505Y-114498599D01*
X159310965Y-114692171D01*
X159308644Y-114697149D01*
X159308642Y-114697152D01*
X159214717Y-114898574D01*
X159211097Y-114906337D01*
X159209675Y-114911645D01*
X159209674Y-114911647D01*
X159151361Y-115129277D01*
X159149937Y-115134592D01*
X159129341Y-115370000D01*
X96473003Y-115370000D01*
X96490749Y-115346873D01*
X96524536Y-115302841D01*
X96585044Y-115156762D01*
X96605682Y-115000000D01*
X96585044Y-114843238D01*
X96546423Y-114750000D01*
X121394318Y-114750000D01*
X121414956Y-114906762D01*
X121475464Y-115052841D01*
X121571718Y-115178282D01*
X121697159Y-115274536D01*
X121843238Y-115335044D01*
X122000000Y-115355682D01*
X122008188Y-115354604D01*
X122148574Y-115336122D01*
X122156762Y-115335044D01*
X122302841Y-115274536D01*
X122428282Y-115178282D01*
X122524536Y-115052841D01*
X122585044Y-114906762D01*
X122605682Y-114750000D01*
X122585044Y-114593238D01*
X122524536Y-114447159D01*
X122428282Y-114321718D01*
X122302841Y-114225464D01*
X122156762Y-114164956D01*
X122000000Y-114144318D01*
X121843238Y-114164956D01*
X121697159Y-114225464D01*
X121571718Y-114321718D01*
X121475464Y-114447159D01*
X121414956Y-114593238D01*
X121394318Y-114750000D01*
X96546423Y-114750000D01*
X96524536Y-114697159D01*
X96428282Y-114571718D01*
X96302841Y-114475464D01*
X96156762Y-114414956D01*
X96000000Y-114394318D01*
X95843238Y-114414956D01*
X95697159Y-114475464D01*
X95571718Y-114571718D01*
X95475464Y-114697159D01*
X95414956Y-114843238D01*
X95394318Y-115000000D01*
X95414956Y-115156762D01*
X95475464Y-115302841D01*
X95509251Y-115346873D01*
X95567892Y-115423296D01*
X95593492Y-115489517D01*
X95579227Y-115559065D01*
X95567892Y-115576704D01*
X95475464Y-115697159D01*
X95414956Y-115843238D01*
X95394318Y-116000000D01*
X79027717Y-116000000D01*
X79013224Y-108000000D01*
X101394318Y-108000000D01*
X101414956Y-108156762D01*
X101475464Y-108302841D01*
X101571718Y-108428282D01*
X101697159Y-108524536D01*
X101843238Y-108585044D01*
X102000000Y-108605682D01*
X102008188Y-108604604D01*
X102148574Y-108586122D01*
X102156762Y-108585044D01*
X102302841Y-108524536D01*
X102428282Y-108428282D01*
X102524536Y-108302841D01*
X102585044Y-108156762D01*
X102605682Y-108000000D01*
X102585044Y-107843238D01*
X102524536Y-107697159D01*
X102428282Y-107571718D01*
X102302841Y-107475464D01*
X102156762Y-107414956D01*
X102000000Y-107394318D01*
X101843238Y-107414956D01*
X101697159Y-107475464D01*
X101571718Y-107571718D01*
X101475464Y-107697159D01*
X101414956Y-107843238D01*
X101394318Y-108000000D01*
X79013224Y-108000000D01*
X79001000Y-101252263D01*
X79001000Y-101127000D01*
X79021002Y-101058879D01*
X79074658Y-101012386D01*
X79127000Y-101001000D01*
X110053644Y-101001000D01*
X110054462Y-101001003D01*
G37*
%TD.AperFunction*%
%TD*%
M02*
