%TF.GenerationSoftware,KiCad,Pcbnew,6.0.9+dfsg-1~bpo11+1*%
%TF.CreationDate,2022-12-31T19:32:48-06:00*%
%TF.ProjectId,Modular,4d6f6475-6c61-4722-9e6b-696361645f70,rev?*%
%TF.SameCoordinates,Original*%
%TF.FileFunction,Copper,L2,Inr*%
%TF.FilePolarity,Positive*%
%FSLAX46Y46*%
G04 Gerber Fmt 4.6, Leading zero omitted, Abs format (unit mm)*
G04 Created by KiCad (PCBNEW 6.0.9+dfsg-1~bpo11+1) date 2022-12-31 19:32:48*
%MOMM*%
%LPD*%
G01*
G04 APERTURE LIST*
%TA.AperFunction,ComponentPad*%
%ADD10R,1.500000X1.500000*%
%TD*%
%TA.AperFunction,ComponentPad*%
%ADD11C,1.500000*%
%TD*%
%TA.AperFunction,ComponentPad*%
%ADD12C,2.300000*%
%TD*%
%TA.AperFunction,ComponentPad*%
%ADD13R,3.000000X3.000000*%
%TD*%
%TA.AperFunction,ComponentPad*%
%ADD14C,3.000000*%
%TD*%
%TA.AperFunction,ComponentPad*%
%ADD15R,1.700000X1.700000*%
%TD*%
%TA.AperFunction,ComponentPad*%
%ADD16O,1.700000X1.700000*%
%TD*%
%TA.AperFunction,ViaPad*%
%ADD17C,0.800000*%
%TD*%
%TA.AperFunction,ViaPad*%
%ADD18C,1.500000*%
%TD*%
%TA.AperFunction,Conductor*%
%ADD19C,0.250000*%
%TD*%
%TA.AperFunction,Conductor*%
%ADD20C,0.200000*%
%TD*%
G04 APERTURE END LIST*
D10*
%TO.N,GNDREF*%
%TO.C,J6*%
X143310000Y-144875000D03*
D11*
%TO.N,/MOSI*%
X142294000Y-143095000D03*
%TO.N,unconnected-(J6-Pad3)*%
X141278000Y-144875000D03*
%TO.N,/MISO*%
X140262000Y-143095000D03*
%TO.N,unconnected-(J6-Pad5)*%
X139246000Y-144875000D03*
%TO.N,/CS_PDL*%
X138230000Y-143095000D03*
%TO.N,+5V*%
X137214000Y-144875000D03*
%TO.N,/SCLK*%
X136198000Y-143095000D03*
%TO.N,unconnected-(J6-Pad9)*%
X146610000Y-138275000D03*
%TO.N,unconnected-(J6-Pad10)*%
X144320000Y-138275000D03*
%TO.N,unconnected-(J6-Pad11)*%
X135180000Y-138275000D03*
%TO.N,unconnected-(J6-Pad12)*%
X132890000Y-138275000D03*
D12*
%TO.N,N/C*%
X147880000Y-143985000D03*
X131620000Y-143985000D03*
%TD*%
D10*
%TO.N,GNDREF*%
%TO.C,J7*%
X161375000Y-141440000D03*
D11*
%TO.N,/MOSI*%
X159595000Y-142456000D03*
%TO.N,unconnected-(J7-Pad3)*%
X161375000Y-143472000D03*
%TO.N,/MISO*%
X159595000Y-144488000D03*
%TO.N,unconnected-(J7-Pad5)*%
X161375000Y-145504000D03*
%TO.N,/CS_SHIF*%
X159595000Y-146520000D03*
%TO.N,+5V*%
X161375000Y-147536000D03*
%TO.N,/SCLK*%
X159595000Y-148552000D03*
%TO.N,unconnected-(J7-Pad9)*%
X154775000Y-138140000D03*
%TO.N,unconnected-(J7-Pad10)*%
X154775000Y-140430000D03*
%TO.N,unconnected-(J7-Pad11)*%
X154775000Y-149570000D03*
%TO.N,unconnected-(J7-Pad12)*%
X154775000Y-151860000D03*
D12*
%TO.N,N/C*%
X160485000Y-153130000D03*
X160485000Y-136870000D03*
%TD*%
D13*
%TO.N,GNDREF*%
%TO.C,J3*%
X86000000Y-125500000D03*
D14*
%TO.N,Net-(J3-Pad2)*%
X86000000Y-130580000D03*
%TD*%
D10*
%TO.N,GNDREF*%
%TO.C,J5*%
X119435000Y-144875000D03*
D11*
%TO.N,/MOSI*%
X118419000Y-143095000D03*
%TO.N,unconnected-(J5-Pad3)*%
X117403000Y-144875000D03*
%TO.N,/MISO*%
X116387000Y-143095000D03*
%TO.N,unconnected-(J5-Pad5)*%
X115371000Y-144875000D03*
%TO.N,/CS_SWF*%
X114355000Y-143095000D03*
%TO.N,+5V*%
X113339000Y-144875000D03*
%TO.N,/SCLK*%
X112323000Y-143095000D03*
%TO.N,unconnected-(J5-Pad9)*%
X122735000Y-138275000D03*
%TO.N,unconnected-(J5-Pad10)*%
X120445000Y-138275000D03*
%TO.N,unconnected-(J5-Pad11)*%
X111305000Y-138275000D03*
%TO.N,unconnected-(J5-Pad12)*%
X109015000Y-138275000D03*
D12*
%TO.N,N/C*%
X107745000Y-143985000D03*
X124005000Y-143985000D03*
%TD*%
D10*
%TO.N,GNDREF*%
%TO.C,J8*%
X95560000Y-144875000D03*
D11*
%TO.N,/MOSI*%
X94544000Y-143095000D03*
%TO.N,unconnected-(J8-Pad3)*%
X93528000Y-144875000D03*
%TO.N,/MISO*%
X92512000Y-143095000D03*
%TO.N,unconnected-(J8-Pad5)*%
X91496000Y-144875000D03*
%TO.N,/CS_A2*%
X90480000Y-143095000D03*
%TO.N,+5V*%
X89464000Y-144875000D03*
%TO.N,/SCLK*%
X88448000Y-143095000D03*
%TO.N,unconnected-(J8-Pad9)*%
X98860000Y-138275000D03*
%TO.N,unconnected-(J8-Pad10)*%
X96570000Y-138275000D03*
%TO.N,unconnected-(J8-Pad11)*%
X87430000Y-138275000D03*
%TO.N,unconnected-(J8-Pad12)*%
X85140000Y-138275000D03*
D12*
%TO.N,N/C*%
X100130000Y-143985000D03*
X83870000Y-143985000D03*
%TD*%
D15*
%TO.N,GNDREF*%
%TO.C,J2*%
X160250000Y-110000000D03*
D16*
%TO.N,/RX_ESP*%
X162790000Y-110000000D03*
%TO.N,/TX_ESP*%
X165330000Y-110000000D03*
%TO.N,+3.3V*%
X167870000Y-110000000D03*
%TD*%
D10*
%TO.N,GNDREF*%
%TO.C,J4*%
X161375000Y-119940000D03*
D11*
%TO.N,/MOSI*%
X159595000Y-120956000D03*
%TO.N,unconnected-(J4-Pad3)*%
X161375000Y-121972000D03*
%TO.N,/MISO*%
X159595000Y-122988000D03*
%TO.N,unconnected-(J4-Pad5)*%
X161375000Y-124004000D03*
%TO.N,/CS_A1*%
X159595000Y-125020000D03*
%TO.N,+5V*%
X161375000Y-126036000D03*
%TO.N,/SCLK*%
X159595000Y-127052000D03*
%TO.N,unconnected-(J4-Pad9)*%
X154775000Y-116640000D03*
%TO.N,unconnected-(J4-Pad10)*%
X154775000Y-118930000D03*
%TO.N,unconnected-(J4-Pad11)*%
X154775000Y-128070000D03*
%TO.N,unconnected-(J4-Pad12)*%
X154775000Y-130360000D03*
D12*
%TO.N,N/C*%
X160485000Y-115370000D03*
X160485000Y-131630000D03*
%TD*%
D17*
%TO.N,+3.3V*%
X123500000Y-119814000D03*
X118250000Y-122250000D03*
X125250000Y-114750000D03*
X108500000Y-130500000D03*
%TO.N,/MOSI*%
X136500000Y-135500000D03*
%TO.N,/MISO*%
X137500000Y-138000000D03*
X135000000Y-141000000D03*
X149500000Y-142000000D03*
X141500000Y-138000000D03*
X111000000Y-141000000D03*
X143000000Y-135000000D03*
X137500000Y-141000000D03*
X113500000Y-141000000D03*
X152000000Y-141500000D03*
%TO.N,/SCLK*%
X139000000Y-133500000D03*
%TO.N,Net-(C3-Pad1)*%
X122000000Y-114750000D03*
X126750000Y-119750000D03*
%TO.N,/D+*%
X128300000Y-130000000D03*
X96000000Y-116000000D03*
%TO.N,/D-*%
X128300000Y-129100000D03*
X96000000Y-115000000D03*
D18*
%TO.N,+5V*%
X95000000Y-130500000D03*
D17*
%TO.N,/BOOT*%
X102000000Y-108000000D03*
X146500000Y-129500000D03*
%TD*%
D19*
%TO.N,/MISO*%
X109500000Y-141000000D02*
X111000000Y-141000000D01*
X157000000Y-130000000D02*
X152000000Y-135000000D01*
X159595000Y-122988000D02*
X158012000Y-122988000D01*
X152000000Y-141500000D02*
X153500000Y-141500000D01*
X156488000Y-144488000D02*
X159595000Y-144488000D01*
X157000000Y-124000000D02*
X157000000Y-130000000D01*
X141500000Y-141857000D02*
X140262000Y-143095000D01*
X92512000Y-137988000D02*
X94500000Y-136000000D01*
X104000000Y-136000000D02*
X106500000Y-138500000D01*
X115500000Y-140000000D02*
X135500000Y-140000000D01*
X141000000Y-138000000D02*
X138000000Y-141000000D01*
X146000000Y-142000000D02*
X149500000Y-142000000D01*
X138000000Y-141000000D02*
X137500000Y-141000000D01*
X142000000Y-138000000D02*
X146000000Y-142000000D01*
X135500000Y-140000000D02*
X137500000Y-138000000D01*
X107000000Y-138500000D02*
X109500000Y-141000000D01*
X158012000Y-122988000D02*
X157000000Y-124000000D01*
X153500000Y-141500000D02*
X156488000Y-144488000D01*
X152000000Y-135000000D02*
X143000000Y-135000000D01*
X94500000Y-136000000D02*
X104000000Y-136000000D01*
X141500000Y-138000000D02*
X141000000Y-138000000D01*
X141500000Y-138000000D02*
X141500000Y-141857000D01*
X106500000Y-138500000D02*
X107000000Y-138500000D01*
X92512000Y-143095000D02*
X92512000Y-137988000D01*
X116387000Y-142113000D02*
X116387000Y-143095000D01*
X141500000Y-138000000D02*
X142000000Y-138000000D01*
X114500000Y-141000000D02*
X115500000Y-140000000D01*
X135000000Y-141000000D02*
X117500000Y-141000000D01*
X117500000Y-141000000D02*
X116387000Y-142113000D01*
X113500000Y-141000000D02*
X114500000Y-141000000D01*
%TO.N,/SCLK*%
X159595000Y-148552000D02*
X156052000Y-148552000D01*
X157500000Y-130000000D02*
X157500000Y-131000000D01*
X150500000Y-139000000D02*
X148000000Y-136500000D01*
X112323000Y-143095000D02*
X112323000Y-139677000D01*
X138000000Y-134500000D02*
X139000000Y-133500000D01*
X150500000Y-145500000D02*
X150500000Y-139000000D01*
X117500000Y-134500000D02*
X138000000Y-134500000D01*
X95000000Y-133500000D02*
X139000000Y-133500000D01*
X112323000Y-139677000D02*
X117500000Y-134500000D01*
X139000000Y-138000000D02*
X139000000Y-133500000D01*
X140000000Y-133500000D02*
X139000000Y-133500000D01*
X148000000Y-136500000D02*
X142000000Y-136500000D01*
X159595000Y-127905000D02*
X157500000Y-130000000D01*
X159595000Y-127052000D02*
X159595000Y-127905000D01*
X136198000Y-140802000D02*
X139000000Y-138000000D01*
X152500000Y-136000000D02*
X142500000Y-136000000D01*
X157500000Y-131000000D02*
X152500000Y-136000000D01*
X142000000Y-136500000D02*
X139000000Y-133500000D01*
X142500000Y-136000000D02*
X140000000Y-133500000D01*
X156052000Y-148552000D02*
X155000000Y-147500000D01*
X136198000Y-143095000D02*
X136198000Y-140802000D01*
X88448000Y-140052000D02*
X95000000Y-133500000D01*
X152500000Y-147500000D02*
X150500000Y-145500000D01*
X88448000Y-143095000D02*
X88448000Y-140052000D01*
X155000000Y-147500000D02*
X152500000Y-147500000D01*
D20*
%TO.N,/D+*%
X96274999Y-115725001D02*
X96000000Y-116000000D01*
X118856801Y-129775001D02*
X104806801Y-115725001D01*
X104806801Y-115725001D02*
X96274999Y-115725001D01*
X128300000Y-130000000D02*
X128075001Y-129775001D01*
X128075001Y-129775001D02*
X118856801Y-129775001D01*
%TO.N,/D-*%
X128300000Y-129100000D02*
X128075001Y-129324999D01*
X96274999Y-115274999D02*
X96000000Y-115000000D01*
X128075001Y-129324999D02*
X119043199Y-129324999D01*
X119043199Y-129324999D02*
X104993199Y-115274999D01*
X104993199Y-115274999D02*
X96274999Y-115274999D01*
%TO.N,/BOOT*%
X102000000Y-112500000D02*
X102000000Y-108000000D01*
X146500000Y-129500000D02*
X139000000Y-129500000D01*
X139000000Y-129500000D02*
X127000000Y-117500000D01*
X127000000Y-117500000D02*
X116000000Y-117500000D01*
X116000000Y-117500000D02*
X112000000Y-113500000D01*
X103000000Y-113500000D02*
X102000000Y-112500000D01*
X112000000Y-113500000D02*
X103000000Y-113500000D01*
%TD*%
M02*
