%TF.GenerationSoftware,KiCad,Pcbnew,6.0.9+dfsg-1~bpo11+1*%
%TF.CreationDate,2022-12-30T22:29:48-06:00*%
%TF.ProjectId,Modular,4d6f6475-6c61-4722-9e6b-696361645f70,rev?*%
%TF.SameCoordinates,Original*%
%TF.FileFunction,Copper,L4,Bot*%
%TF.FilePolarity,Positive*%
%FSLAX46Y46*%
G04 Gerber Fmt 4.6, Leading zero omitted, Abs format (unit mm)*
G04 Created by KiCad (PCBNEW 6.0.9+dfsg-1~bpo11+1) date 2022-12-30 22:29:48*
%MOMM*%
%LPD*%
G01*
G04 APERTURE LIST*
%TA.AperFunction,ComponentPad*%
%ADD10R,1.500000X1.500000*%
%TD*%
%TA.AperFunction,ComponentPad*%
%ADD11C,1.500000*%
%TD*%
%TA.AperFunction,ComponentPad*%
%ADD12C,2.300000*%
%TD*%
%TA.AperFunction,ComponentPad*%
%ADD13O,1.700000X0.900000*%
%TD*%
%TA.AperFunction,ComponentPad*%
%ADD14O,2.000000X0.900000*%
%TD*%
%TA.AperFunction,ComponentPad*%
%ADD15R,3.000000X3.000000*%
%TD*%
%TA.AperFunction,ComponentPad*%
%ADD16C,3.000000*%
%TD*%
%TA.AperFunction,ComponentPad*%
%ADD17R,1.700000X1.700000*%
%TD*%
%TA.AperFunction,ComponentPad*%
%ADD18O,1.700000X1.700000*%
%TD*%
%TA.AperFunction,ViaPad*%
%ADD19C,0.800000*%
%TD*%
%TA.AperFunction,ViaPad*%
%ADD20C,1.500000*%
%TD*%
%TA.AperFunction,Conductor*%
%ADD21C,0.800000*%
%TD*%
G04 APERTURE END LIST*
D10*
%TO.P,J5,1*%
%TO.N,GNDREF*%
X143310000Y-144875000D03*
D11*
%TO.P,J5,2*%
%TO.N,/MOSI*%
X142294000Y-143095000D03*
%TO.P,J5,3*%
%TO.N,unconnected-(J5-Pad3)*%
X141278000Y-144875000D03*
%TO.P,J5,4*%
%TO.N,/MISO*%
X140262000Y-143095000D03*
%TO.P,J5,5*%
%TO.N,unconnected-(J5-Pad5)*%
X139246000Y-144875000D03*
%TO.P,J5,6*%
%TO.N,/CS_PDL*%
X138230000Y-143095000D03*
%TO.P,J5,7*%
%TO.N,+5V*%
X137214000Y-144875000D03*
%TO.P,J5,8*%
%TO.N,/SCLK*%
X136198000Y-143095000D03*
%TO.P,J5,9*%
%TO.N,unconnected-(J5-Pad9)*%
X146610000Y-138275000D03*
%TO.P,J5,10*%
%TO.N,unconnected-(J5-Pad10)*%
X144320000Y-138275000D03*
%TO.P,J5,11*%
%TO.N,unconnected-(J5-Pad11)*%
X135180000Y-138275000D03*
%TO.P,J5,12*%
%TO.N,unconnected-(J5-Pad12)*%
X132890000Y-138275000D03*
D12*
%TO.P,J5,SH*%
%TO.N,N/C*%
X147880000Y-143985000D03*
X131620000Y-143985000D03*
%TD*%
D13*
%TO.P,P1,S1,SHIELD*%
%TO.N,unconnected-(P1-PadS1)*%
X84760000Y-119820000D03*
D14*
X88930000Y-119820000D03*
X88930000Y-111180000D03*
D13*
X84760000Y-111180000D03*
%TD*%
D10*
%TO.P,J6,1*%
%TO.N,GNDREF*%
X161375000Y-141440000D03*
D11*
%TO.P,J6,2*%
%TO.N,/MOSI*%
X159595000Y-142456000D03*
%TO.P,J6,3*%
%TO.N,unconnected-(J6-Pad3)*%
X161375000Y-143472000D03*
%TO.P,J6,4*%
%TO.N,/MISO*%
X159595000Y-144488000D03*
%TO.P,J6,5*%
%TO.N,unconnected-(J6-Pad5)*%
X161375000Y-145504000D03*
%TO.P,J6,6*%
%TO.N,/CS_SHIF*%
X159595000Y-146520000D03*
%TO.P,J6,7*%
%TO.N,+5V*%
X161375000Y-147536000D03*
%TO.P,J6,8*%
%TO.N,/SCLK*%
X159595000Y-148552000D03*
%TO.P,J6,9*%
%TO.N,unconnected-(J6-Pad9)*%
X154775000Y-138140000D03*
%TO.P,J6,10*%
%TO.N,unconnected-(J6-Pad10)*%
X154775000Y-140430000D03*
%TO.P,J6,11*%
%TO.N,unconnected-(J6-Pad11)*%
X154775000Y-149570000D03*
%TO.P,J6,12*%
%TO.N,unconnected-(J6-Pad12)*%
X154775000Y-151860000D03*
D12*
%TO.P,J6,SH*%
%TO.N,N/C*%
X160485000Y-153130000D03*
X160485000Y-136870000D03*
%TD*%
D15*
%TO.P,J2,1,Pin_1*%
%TO.N,GNDREF*%
X86000000Y-125500000D03*
D16*
%TO.P,J2,2,Pin_2*%
%TO.N,Net-(F1-Pad1)*%
X86000000Y-130580000D03*
%TD*%
D10*
%TO.P,J4,1*%
%TO.N,GNDREF*%
X119435000Y-144875000D03*
D11*
%TO.P,J4,2*%
%TO.N,/MOSI*%
X118419000Y-143095000D03*
%TO.P,J4,3*%
%TO.N,unconnected-(J4-Pad3)*%
X117403000Y-144875000D03*
%TO.P,J4,4*%
%TO.N,/MISO*%
X116387000Y-143095000D03*
%TO.P,J4,5*%
%TO.N,unconnected-(J4-Pad5)*%
X115371000Y-144875000D03*
%TO.P,J4,6*%
%TO.N,/CS_SWF*%
X114355000Y-143095000D03*
%TO.P,J4,7*%
%TO.N,+5V*%
X113339000Y-144875000D03*
%TO.P,J4,8*%
%TO.N,/SCLK*%
X112323000Y-143095000D03*
%TO.P,J4,9*%
%TO.N,unconnected-(J4-Pad9)*%
X122735000Y-138275000D03*
%TO.P,J4,10*%
%TO.N,unconnected-(J4-Pad10)*%
X120445000Y-138275000D03*
%TO.P,J4,11*%
%TO.N,unconnected-(J4-Pad11)*%
X111305000Y-138275000D03*
%TO.P,J4,12*%
%TO.N,unconnected-(J4-Pad12)*%
X109015000Y-138275000D03*
D12*
%TO.P,J4,SH*%
%TO.N,N/C*%
X107745000Y-143985000D03*
X124005000Y-143985000D03*
%TD*%
D10*
%TO.P,J7,1*%
%TO.N,GNDREF*%
X95560000Y-144875000D03*
D11*
%TO.P,J7,2*%
%TO.N,/MOSI*%
X94544000Y-143095000D03*
%TO.P,J7,3*%
%TO.N,unconnected-(J7-Pad3)*%
X93528000Y-144875000D03*
%TO.P,J7,4*%
%TO.N,/MISO*%
X92512000Y-143095000D03*
%TO.P,J7,5*%
%TO.N,unconnected-(J7-Pad5)*%
X91496000Y-144875000D03*
%TO.P,J7,6*%
%TO.N,/CS_A2*%
X90480000Y-143095000D03*
%TO.P,J7,7*%
%TO.N,+5V*%
X89464000Y-144875000D03*
%TO.P,J7,8*%
%TO.N,/SCLK*%
X88448000Y-143095000D03*
%TO.P,J7,9*%
%TO.N,unconnected-(J7-Pad9)*%
X98860000Y-138275000D03*
%TO.P,J7,10*%
%TO.N,unconnected-(J7-Pad10)*%
X96570000Y-138275000D03*
%TO.P,J7,11*%
%TO.N,unconnected-(J7-Pad11)*%
X87430000Y-138275000D03*
%TO.P,J7,12*%
%TO.N,unconnected-(J7-Pad12)*%
X85140000Y-138275000D03*
D12*
%TO.P,J7,SH*%
%TO.N,N/C*%
X100130000Y-143985000D03*
X83870000Y-143985000D03*
%TD*%
D17*
%TO.P,J1,1,Pin_1*%
%TO.N,GNDREF*%
X160250000Y-110000000D03*
D18*
%TO.P,J1,2,Pin_2*%
%TO.N,/RX_ESP*%
X162790000Y-110000000D03*
%TO.P,J1,3,Pin_3*%
%TO.N,/TX_ESP*%
X165330000Y-110000000D03*
%TO.P,J1,4,Pin_4*%
%TO.N,+3.3V*%
X167870000Y-110000000D03*
%TD*%
D10*
%TO.P,J3,1*%
%TO.N,GNDREF*%
X161375000Y-119940000D03*
D11*
%TO.P,J3,2*%
%TO.N,/MOSI*%
X159595000Y-120956000D03*
%TO.P,J3,3*%
%TO.N,unconnected-(J3-Pad3)*%
X161375000Y-121972000D03*
%TO.P,J3,4*%
%TO.N,/MISO*%
X159595000Y-122988000D03*
%TO.P,J3,5*%
%TO.N,unconnected-(J3-Pad5)*%
X161375000Y-124004000D03*
%TO.P,J3,6*%
%TO.N,/CS_A1*%
X159595000Y-125020000D03*
%TO.P,J3,7*%
%TO.N,+5V*%
X161375000Y-126036000D03*
%TO.P,J3,8*%
%TO.N,/SCLK*%
X159595000Y-127052000D03*
%TO.P,J3,9*%
%TO.N,unconnected-(J3-Pad9)*%
X154775000Y-116640000D03*
%TO.P,J3,10*%
%TO.N,unconnected-(J3-Pad10)*%
X154775000Y-118930000D03*
%TO.P,J3,11*%
%TO.N,unconnected-(J3-Pad11)*%
X154775000Y-128070000D03*
%TO.P,J3,12*%
%TO.N,unconnected-(J3-Pad12)*%
X154775000Y-130360000D03*
D12*
%TO.P,J3,SH*%
%TO.N,N/C*%
X160485000Y-115370000D03*
X160485000Y-131630000D03*
%TD*%
D19*
%TO.N,+3.3V*%
X123500000Y-119814000D03*
X118250000Y-122250000D03*
X125250000Y-114750000D03*
X108500000Y-130500000D03*
%TO.N,/MOSI*%
X136500000Y-135500000D03*
%TO.N,/MISO*%
X137500000Y-138000000D03*
X135000000Y-141000000D03*
X149500000Y-142000000D03*
X141500000Y-138000000D03*
X111000000Y-141000000D03*
X143000000Y-135000000D03*
X137500000Y-141000000D03*
X113500000Y-141000000D03*
X152000000Y-141500000D03*
%TO.N,/SCLK*%
X139000000Y-133500000D03*
%TO.N,Net-(C3-Pad1)*%
X122000000Y-114750000D03*
X126750000Y-119750000D03*
%TO.N,/D+*%
X135000000Y-128000000D03*
X96000000Y-115000000D03*
%TO.N,/D-*%
X133500000Y-128000000D03*
X96000000Y-116000000D03*
D20*
%TO.N,+5V*%
X95000000Y-130500000D03*
D19*
%TO.N,/BOOT*%
X102000000Y-108000000D03*
X146500000Y-129500000D03*
%TD*%
D21*
%TO.N,+5V*%
X153000000Y-152500000D02*
X153000000Y-153000000D01*
X161375000Y-150125000D02*
X161375000Y-147536000D01*
X112000000Y-150000000D02*
X113339000Y-148661000D01*
X165536000Y-126036000D02*
X161375000Y-126036000D01*
X155500000Y-154000000D02*
X158500000Y-151000000D01*
X137214000Y-148286000D02*
X137214000Y-144875000D01*
X160500000Y-151000000D02*
X161375000Y-150125000D01*
X112000000Y-150000000D02*
X135500000Y-150000000D01*
X89464000Y-146964000D02*
X92500000Y-150000000D01*
X92500000Y-150000000D02*
X112000000Y-150000000D01*
X90000000Y-135500000D02*
X85500000Y-135500000D01*
X161375000Y-150125000D02*
X164000000Y-147500000D01*
X158500000Y-151000000D02*
X160500000Y-151000000D01*
X150500000Y-150000000D02*
X153000000Y-152500000D01*
X113339000Y-148661000D02*
X113339000Y-144875000D01*
X167000000Y-127500000D02*
X165536000Y-126036000D01*
X86000000Y-142000000D02*
X86000000Y-144000000D01*
X154000000Y-154000000D02*
X155500000Y-154000000D01*
X86875000Y-144875000D02*
X89464000Y-144875000D01*
X85500000Y-135500000D02*
X83500000Y-137500000D01*
X86000000Y-144000000D02*
X86875000Y-144875000D01*
X164000000Y-143500000D02*
X167000000Y-140500000D01*
X153000000Y-153000000D02*
X154000000Y-154000000D01*
X89464000Y-144875000D02*
X89464000Y-146964000D01*
X135500000Y-150000000D02*
X137214000Y-148286000D01*
X83500000Y-137500000D02*
X83500000Y-139500000D01*
X164000000Y-147500000D02*
X164000000Y-143500000D01*
X95000000Y-130500000D02*
X90000000Y-135500000D01*
X167000000Y-140500000D02*
X167000000Y-127500000D01*
X135500000Y-150000000D02*
X150500000Y-150000000D01*
X83500000Y-139500000D02*
X86000000Y-142000000D01*
%TD*%
%TA.AperFunction,Conductor*%
%TO.N,+3.3V*%
G36*
X172183621Y-101528502D02*
G01*
X172230114Y-101582158D01*
X172241500Y-101634500D01*
X172241500Y-156865500D01*
X172221498Y-156933621D01*
X172167842Y-156980114D01*
X172115500Y-156991500D01*
X79634500Y-156991500D01*
X79566379Y-156971498D01*
X79519886Y-156917842D01*
X79508500Y-156865500D01*
X79508500Y-143985000D01*
X82206372Y-143985000D01*
X82226854Y-144245249D01*
X82228008Y-144250056D01*
X82228009Y-144250062D01*
X82236166Y-144284038D01*
X82287796Y-144499089D01*
X82289689Y-144503660D01*
X82289690Y-144503662D01*
X82376269Y-144712681D01*
X82387697Y-144740271D01*
X82524097Y-144962856D01*
X82693637Y-145161363D01*
X82892144Y-145330903D01*
X83114729Y-145467303D01*
X83119299Y-145469196D01*
X83119303Y-145469198D01*
X83319811Y-145552251D01*
X83355911Y-145567204D01*
X83433435Y-145585816D01*
X83604938Y-145626991D01*
X83604944Y-145626992D01*
X83609751Y-145628146D01*
X83870000Y-145648628D01*
X84106488Y-145630016D01*
X84175968Y-145644612D01*
X84226528Y-145694455D01*
X84242114Y-145763719D01*
X84217779Y-145830415D01*
X84202151Y-145847922D01*
X84091112Y-145951106D01*
X84088398Y-145954422D01*
X84088395Y-145954425D01*
X84002151Y-146059795D01*
X83906861Y-146176216D01*
X83754867Y-146424248D01*
X83753148Y-146428165D01*
X83753146Y-146428168D01*
X83715238Y-146514525D01*
X83637941Y-146690614D01*
X83636765Y-146694742D01*
X83636764Y-146694745D01*
X83612218Y-146780913D01*
X83558246Y-146970384D01*
X83557642Y-146974626D01*
X83557641Y-146974632D01*
X83532124Y-147153928D01*
X83517258Y-147258381D01*
X83516854Y-147335556D01*
X83515805Y-147536000D01*
X83515735Y-147549277D01*
X83516294Y-147553521D01*
X83516294Y-147553525D01*
X83529849Y-147656486D01*
X83553705Y-147837687D01*
X83554838Y-147841827D01*
X83554838Y-147841829D01*
X83573402Y-147909687D01*
X83630465Y-148118276D01*
X83632149Y-148122224D01*
X83732422Y-148357310D01*
X83744596Y-148385852D01*
X83893985Y-148635462D01*
X83896669Y-148638813D01*
X83896671Y-148638815D01*
X83968956Y-148729042D01*
X84075867Y-148862489D01*
X84286878Y-149062731D01*
X84523113Y-149232483D01*
X84548924Y-149246149D01*
X84727648Y-149340778D01*
X84780200Y-149368603D01*
X84784223Y-149370075D01*
X84784227Y-149370077D01*
X85049351Y-149467099D01*
X85053382Y-149468574D01*
X85337604Y-149530544D01*
X85362673Y-149532517D01*
X85563297Y-149548307D01*
X85563304Y-149548307D01*
X85565753Y-149548500D01*
X85723121Y-149548500D01*
X85725257Y-149548354D01*
X85725268Y-149548354D01*
X85935949Y-149533991D01*
X85935955Y-149533990D01*
X85940226Y-149533699D01*
X85944421Y-149532830D01*
X85944423Y-149532830D01*
X86082653Y-149504204D01*
X86225081Y-149474709D01*
X86499295Y-149377605D01*
X86757793Y-149244184D01*
X86761294Y-149241723D01*
X86761298Y-149241721D01*
X86950854Y-149108498D01*
X86995792Y-149076915D01*
X87149761Y-148933838D01*
X87205745Y-148881815D01*
X87205748Y-148881812D01*
X87208888Y-148878894D01*
X87211612Y-148875567D01*
X87341576Y-148716782D01*
X87393139Y-148653784D01*
X87545133Y-148405752D01*
X87553869Y-148385852D01*
X87629086Y-148214501D01*
X87662059Y-148139386D01*
X87668073Y-148118276D01*
X87689842Y-148041855D01*
X87741754Y-147859616D01*
X87743302Y-147848745D01*
X87782137Y-147575870D01*
X87782742Y-147571619D01*
X87783576Y-147412409D01*
X87784243Y-147285009D01*
X87784243Y-147285003D01*
X87784265Y-147280723D01*
X87746295Y-146992313D01*
X87735288Y-146952076D01*
X87670667Y-146715862D01*
X87669535Y-146711724D01*
X87616629Y-146587687D01*
X87557090Y-146448100D01*
X87557088Y-146448096D01*
X87555404Y-146444148D01*
X87406015Y-146194538D01*
X87402436Y-146190070D01*
X87240772Y-145988280D01*
X87213790Y-145922611D01*
X87226595Y-145852778D01*
X87275122Y-145800955D01*
X87339106Y-145783500D01*
X88429500Y-145783500D01*
X88497621Y-145803502D01*
X88544114Y-145857158D01*
X88555500Y-145909500D01*
X88555500Y-146882583D01*
X88553949Y-146902292D01*
X88551748Y-146916190D01*
X88552093Y-146922777D01*
X88552093Y-146922782D01*
X88555327Y-146984480D01*
X88555500Y-146991074D01*
X88555500Y-147011610D01*
X88555844Y-147014882D01*
X88555844Y-147014884D01*
X88557647Y-147032042D01*
X88558164Y-147038616D01*
X88561326Y-147098939D01*
X88561743Y-147106903D01*
X88563453Y-147113284D01*
X88563453Y-147113286D01*
X88565383Y-147120491D01*
X88568985Y-147139925D01*
X88569766Y-147147354D01*
X88569768Y-147147363D01*
X88570458Y-147153928D01*
X88591600Y-147218997D01*
X88593467Y-147225299D01*
X88611171Y-147291370D01*
X88617559Y-147303907D01*
X88625125Y-147322173D01*
X88629473Y-147335556D01*
X88632776Y-147341278D01*
X88632777Y-147341279D01*
X88663667Y-147394782D01*
X88666814Y-147400577D01*
X88697871Y-147461530D01*
X88702024Y-147466658D01*
X88702025Y-147466660D01*
X88706727Y-147472466D01*
X88717927Y-147488763D01*
X88721657Y-147495224D01*
X88721660Y-147495228D01*
X88724960Y-147500944D01*
X88729377Y-147505850D01*
X88729381Y-147505855D01*
X88770722Y-147551769D01*
X88775006Y-147556784D01*
X88787928Y-147572741D01*
X88802443Y-147587256D01*
X88806984Y-147592041D01*
X88852747Y-147642866D01*
X88858086Y-147646745D01*
X88858087Y-147646746D01*
X88864135Y-147651140D01*
X88879168Y-147663981D01*
X91800019Y-150584832D01*
X91812860Y-150599865D01*
X91821134Y-150611253D01*
X91826043Y-150615673D01*
X91871959Y-150657016D01*
X91876744Y-150661557D01*
X91891259Y-150676072D01*
X91893823Y-150678148D01*
X91907216Y-150688994D01*
X91912231Y-150693278D01*
X91958145Y-150734619D01*
X91958150Y-150734623D01*
X91963056Y-150739040D01*
X91968772Y-150742340D01*
X91968776Y-150742343D01*
X91975237Y-150746073D01*
X91991533Y-150757273D01*
X92002470Y-150766129D01*
X92063421Y-150797185D01*
X92069215Y-150800331D01*
X92128444Y-150834527D01*
X92134726Y-150836568D01*
X92134728Y-150836569D01*
X92141826Y-150838875D01*
X92160092Y-150846440D01*
X92172630Y-150852829D01*
X92179006Y-150854538D01*
X92179010Y-150854539D01*
X92238685Y-150870529D01*
X92245010Y-150872402D01*
X92310072Y-150893542D01*
X92316640Y-150894232D01*
X92316644Y-150894233D01*
X92324061Y-150895012D01*
X92343508Y-150898616D01*
X92357096Y-150902257D01*
X92363695Y-150902603D01*
X92363696Y-150902603D01*
X92425385Y-150905836D01*
X92431960Y-150906353D01*
X92446222Y-150907852D01*
X92452390Y-150908500D01*
X92472925Y-150908500D01*
X92479519Y-150908673D01*
X92541217Y-150911907D01*
X92541222Y-150911907D01*
X92547809Y-150912252D01*
X92561707Y-150910051D01*
X92581416Y-150908500D01*
X111918583Y-150908500D01*
X111938292Y-150910051D01*
X111952190Y-150912252D01*
X111958777Y-150911907D01*
X111958782Y-150911907D01*
X112020480Y-150908673D01*
X112027074Y-150908500D01*
X135418583Y-150908500D01*
X135438292Y-150910051D01*
X135452190Y-150912252D01*
X135458777Y-150911907D01*
X135458782Y-150911907D01*
X135520480Y-150908673D01*
X135527074Y-150908500D01*
X150071497Y-150908500D01*
X150139618Y-150928502D01*
X150160592Y-150945405D01*
X152053239Y-152838052D01*
X152087265Y-152900364D01*
X152088368Y-152939031D01*
X152089126Y-152939071D01*
X152088780Y-152945675D01*
X152087748Y-152952190D01*
X152088093Y-152958777D01*
X152088093Y-152958782D01*
X152091327Y-153020480D01*
X152091500Y-153027074D01*
X152091500Y-153047610D01*
X152091844Y-153050882D01*
X152091844Y-153050884D01*
X152093647Y-153068042D01*
X152094164Y-153074616D01*
X152097067Y-153130000D01*
X152097743Y-153142903D01*
X152099453Y-153149284D01*
X152099453Y-153149286D01*
X152101383Y-153156491D01*
X152104985Y-153175925D01*
X152105766Y-153183354D01*
X152105768Y-153183363D01*
X152106458Y-153189928D01*
X152127600Y-153254997D01*
X152129467Y-153261299D01*
X152147171Y-153327370D01*
X152153559Y-153339907D01*
X152161125Y-153358173D01*
X152165473Y-153371556D01*
X152168776Y-153377278D01*
X152168777Y-153377279D01*
X152199667Y-153430782D01*
X152202814Y-153436577D01*
X152233871Y-153497530D01*
X152238024Y-153502658D01*
X152238025Y-153502660D01*
X152242727Y-153508466D01*
X152253927Y-153524763D01*
X152257657Y-153531224D01*
X152257660Y-153531228D01*
X152260960Y-153536944D01*
X152265377Y-153541850D01*
X152265381Y-153541855D01*
X152306722Y-153587769D01*
X152311006Y-153592784D01*
X152323928Y-153608741D01*
X152338443Y-153623256D01*
X152342984Y-153628041D01*
X152388747Y-153678866D01*
X152394086Y-153682745D01*
X152394087Y-153682746D01*
X152400135Y-153687140D01*
X152415168Y-153699981D01*
X153300019Y-154584832D01*
X153312860Y-154599865D01*
X153321134Y-154611253D01*
X153326043Y-154615673D01*
X153371959Y-154657016D01*
X153376744Y-154661557D01*
X153391259Y-154676072D01*
X153393823Y-154678148D01*
X153407216Y-154688994D01*
X153412231Y-154693278D01*
X153458145Y-154734619D01*
X153458150Y-154734623D01*
X153463056Y-154739040D01*
X153468772Y-154742340D01*
X153468776Y-154742343D01*
X153475237Y-154746073D01*
X153491533Y-154757273D01*
X153502470Y-154766129D01*
X153508348Y-154769124D01*
X153508351Y-154769126D01*
X153563426Y-154797188D01*
X153569223Y-154800336D01*
X153622721Y-154831223D01*
X153628444Y-154834527D01*
X153641826Y-154838875D01*
X153660085Y-154846438D01*
X153672630Y-154852830D01*
X153679000Y-154854537D01*
X153679003Y-154854538D01*
X153718074Y-154865007D01*
X153738712Y-154870537D01*
X153745025Y-154872407D01*
X153810072Y-154893542D01*
X153824075Y-154895014D01*
X153843504Y-154898615D01*
X153857097Y-154902257D01*
X153863694Y-154902603D01*
X153863696Y-154902603D01*
X153925384Y-154905836D01*
X153931958Y-154906353D01*
X153949116Y-154908156D01*
X153949118Y-154908156D01*
X153952390Y-154908500D01*
X153972926Y-154908500D01*
X153979520Y-154908673D01*
X154041218Y-154911907D01*
X154041223Y-154911907D01*
X154047810Y-154912252D01*
X154054326Y-154911220D01*
X154054327Y-154911220D01*
X154061707Y-154910051D01*
X154081417Y-154908500D01*
X155418583Y-154908500D01*
X155438292Y-154910051D01*
X155452190Y-154912252D01*
X155458777Y-154911907D01*
X155458782Y-154911907D01*
X155520480Y-154908673D01*
X155527074Y-154908500D01*
X155547610Y-154908500D01*
X155550882Y-154908156D01*
X155550884Y-154908156D01*
X155568042Y-154906353D01*
X155574616Y-154905836D01*
X155636308Y-154902603D01*
X155636312Y-154902602D01*
X155642903Y-154902257D01*
X155649284Y-154900547D01*
X155649286Y-154900547D01*
X155656491Y-154898617D01*
X155675925Y-154895015D01*
X155683354Y-154894234D01*
X155683363Y-154894232D01*
X155689928Y-154893542D01*
X155754997Y-154872400D01*
X155761299Y-154870533D01*
X155827370Y-154852829D01*
X155839908Y-154846440D01*
X155858174Y-154838875D01*
X155865272Y-154836569D01*
X155865274Y-154836568D01*
X155871556Y-154834527D01*
X155930785Y-154800331D01*
X155936579Y-154797185D01*
X155943560Y-154793628D01*
X155997530Y-154766129D01*
X156008467Y-154757273D01*
X156024763Y-154746073D01*
X156031224Y-154742343D01*
X156031228Y-154742340D01*
X156036944Y-154739040D01*
X156041850Y-154734623D01*
X156041855Y-154734619D01*
X156087769Y-154693278D01*
X156092784Y-154688994D01*
X156106177Y-154678148D01*
X156108741Y-154676072D01*
X156123256Y-154661557D01*
X156128041Y-154657016D01*
X156173957Y-154615673D01*
X156178866Y-154611253D01*
X156187140Y-154599865D01*
X156199981Y-154584832D01*
X158839408Y-151945405D01*
X158901720Y-151911379D01*
X158928503Y-151908500D01*
X159073874Y-151908500D01*
X159141995Y-151928502D01*
X159188488Y-151982158D01*
X159198592Y-152052432D01*
X159169685Y-152116330D01*
X159142312Y-152148379D01*
X159142309Y-152148384D01*
X159139097Y-152152144D01*
X159002697Y-152374729D01*
X159000804Y-152379299D01*
X159000802Y-152379303D01*
X158915546Y-152585130D01*
X158902796Y-152615911D01*
X158901641Y-152620723D01*
X158843009Y-152864938D01*
X158843008Y-152864944D01*
X158841854Y-152869751D01*
X158821372Y-153130000D01*
X158841854Y-153390249D01*
X158843008Y-153395056D01*
X158843009Y-153395062D01*
X158872086Y-153516173D01*
X158902796Y-153644089D01*
X158904689Y-153648660D01*
X158904690Y-153648662D01*
X158923041Y-153692964D01*
X159002697Y-153885271D01*
X159139097Y-154107856D01*
X159308637Y-154306363D01*
X159507144Y-154475903D01*
X159729729Y-154612303D01*
X159734299Y-154614196D01*
X159734303Y-154614198D01*
X159966338Y-154710310D01*
X159970911Y-154712204D01*
X160059931Y-154733576D01*
X160219938Y-154771991D01*
X160219944Y-154771992D01*
X160224751Y-154773146D01*
X160485000Y-154793628D01*
X160745249Y-154773146D01*
X160750056Y-154771992D01*
X160750062Y-154771991D01*
X160910069Y-154733576D01*
X160999089Y-154712204D01*
X161003662Y-154710310D01*
X161235697Y-154614198D01*
X161235701Y-154614196D01*
X161240271Y-154612303D01*
X161462856Y-154475903D01*
X161661363Y-154306363D01*
X161830903Y-154107856D01*
X161967303Y-153885271D01*
X162046960Y-153692964D01*
X162065310Y-153648662D01*
X162065311Y-153648660D01*
X162067204Y-153644089D01*
X162097914Y-153516173D01*
X162126991Y-153395062D01*
X162126992Y-153395056D01*
X162128146Y-153390249D01*
X162148628Y-153130000D01*
X162130584Y-152900729D01*
X162145180Y-152831249D01*
X162195023Y-152780689D01*
X162264287Y-152765103D01*
X162330983Y-152789438D01*
X162342929Y-152799446D01*
X162503888Y-152952190D01*
X162551878Y-152997731D01*
X162788113Y-153167483D01*
X162813924Y-153181149D01*
X162959309Y-153258126D01*
X163045200Y-153303603D01*
X163049223Y-153305075D01*
X163049227Y-153305077D01*
X163295122Y-153395062D01*
X163318382Y-153403574D01*
X163602604Y-153465544D01*
X163631650Y-153467830D01*
X163828297Y-153483307D01*
X163828304Y-153483307D01*
X163830753Y-153483500D01*
X163988121Y-153483500D01*
X163990257Y-153483354D01*
X163990268Y-153483354D01*
X164200949Y-153468991D01*
X164200955Y-153468990D01*
X164205226Y-153468699D01*
X164209421Y-153467830D01*
X164209423Y-153467830D01*
X164360329Y-153436579D01*
X164490081Y-153409709D01*
X164764295Y-153312605D01*
X164875943Y-153254979D01*
X165018986Y-153181149D01*
X165018987Y-153181149D01*
X165022793Y-153179184D01*
X165026294Y-153176723D01*
X165026298Y-153176721D01*
X165176282Y-153071310D01*
X165260792Y-153011915D01*
X165350556Y-152928501D01*
X165470745Y-152816815D01*
X165470748Y-152816812D01*
X165473888Y-152813894D01*
X165487316Y-152797489D01*
X165655423Y-152592102D01*
X165658139Y-152588784D01*
X165810133Y-152340752D01*
X165818869Y-152320852D01*
X165908647Y-152116330D01*
X165927059Y-152074386D01*
X165933073Y-152053276D01*
X165981757Y-151882368D01*
X166006754Y-151794616D01*
X166007538Y-151789113D01*
X166047137Y-151510870D01*
X166047742Y-151506619D01*
X166048782Y-151308003D01*
X166049243Y-151220009D01*
X166049243Y-151220003D01*
X166049265Y-151215723D01*
X166011295Y-150927313D01*
X166007081Y-150911907D01*
X165967150Y-150765944D01*
X165934535Y-150646724D01*
X165826776Y-150394087D01*
X165822090Y-150383100D01*
X165822088Y-150383096D01*
X165820404Y-150379148D01*
X165671015Y-150129538D01*
X165645266Y-150097397D01*
X165491823Y-149905869D01*
X165489133Y-149902511D01*
X165278122Y-149702269D01*
X165041887Y-149532517D01*
X164905468Y-149460287D01*
X164788587Y-149398402D01*
X164788586Y-149398401D01*
X164784800Y-149396397D01*
X164780777Y-149394925D01*
X164780773Y-149394923D01*
X164515649Y-149297901D01*
X164515647Y-149297900D01*
X164511618Y-149296426D01*
X164227396Y-149234456D01*
X164170562Y-149229983D01*
X164001703Y-149216693D01*
X164001696Y-149216693D01*
X163999247Y-149216500D01*
X163872503Y-149216500D01*
X163804382Y-149196498D01*
X163757889Y-149142842D01*
X163747785Y-149072568D01*
X163777279Y-149007988D01*
X163783408Y-149001405D01*
X164584832Y-148199981D01*
X164599865Y-148187140D01*
X164605913Y-148182746D01*
X164605914Y-148182745D01*
X164611253Y-148178866D01*
X164657016Y-148128041D01*
X164661557Y-148123256D01*
X164676072Y-148108741D01*
X164688994Y-148092784D01*
X164693278Y-148087769D01*
X164734619Y-148041855D01*
X164734623Y-148041850D01*
X164739040Y-148036944D01*
X164742340Y-148031228D01*
X164742343Y-148031224D01*
X164746073Y-148024763D01*
X164757273Y-148008466D01*
X164761975Y-148002660D01*
X164761976Y-148002658D01*
X164766129Y-147997530D01*
X164792084Y-147946592D01*
X164797188Y-147936574D01*
X164800336Y-147930777D01*
X164831224Y-147877277D01*
X164834527Y-147871556D01*
X164838875Y-147858174D01*
X164846438Y-147839915D01*
X164852830Y-147827370D01*
X164870537Y-147761288D01*
X164872409Y-147754969D01*
X164891501Y-147696210D01*
X164891501Y-147696209D01*
X164893542Y-147689928D01*
X164895014Y-147675925D01*
X164898615Y-147656496D01*
X164902257Y-147642903D01*
X164905051Y-147589591D01*
X164905836Y-147574616D01*
X164906353Y-147568042D01*
X164908156Y-147550884D01*
X164908156Y-147550882D01*
X164908500Y-147547610D01*
X164908500Y-147527074D01*
X164908673Y-147520480D01*
X164911907Y-147458782D01*
X164911907Y-147458777D01*
X164912252Y-147452190D01*
X164910051Y-147438293D01*
X164908500Y-147418583D01*
X164908500Y-143928503D01*
X164928502Y-143860382D01*
X164945405Y-143839408D01*
X167584832Y-141199981D01*
X167599865Y-141187140D01*
X167605913Y-141182746D01*
X167605914Y-141182745D01*
X167611253Y-141178866D01*
X167657016Y-141128041D01*
X167661557Y-141123256D01*
X167676072Y-141108741D01*
X167682112Y-141101282D01*
X167688994Y-141092784D01*
X167693278Y-141087769D01*
X167734619Y-141041855D01*
X167734623Y-141041850D01*
X167739040Y-141036944D01*
X167742340Y-141031228D01*
X167742343Y-141031224D01*
X167746073Y-141024763D01*
X167757273Y-141008466D01*
X167761975Y-141002660D01*
X167761976Y-141002658D01*
X167766129Y-140997530D01*
X167783695Y-140963056D01*
X167797188Y-140936574D01*
X167800336Y-140930777D01*
X167831224Y-140877277D01*
X167834527Y-140871556D01*
X167838875Y-140858174D01*
X167846438Y-140839915D01*
X167852830Y-140827370D01*
X167855542Y-140817251D01*
X167870535Y-140761294D01*
X167872409Y-140754969D01*
X167891501Y-140696210D01*
X167891501Y-140696209D01*
X167893542Y-140689928D01*
X167895014Y-140675925D01*
X167898615Y-140656496D01*
X167902257Y-140642903D01*
X167902603Y-140636304D01*
X167905836Y-140574616D01*
X167906353Y-140568042D01*
X167908156Y-140550884D01*
X167908156Y-140550882D01*
X167908500Y-140547610D01*
X167908500Y-140527074D01*
X167908673Y-140520480D01*
X167911907Y-140458782D01*
X167911907Y-140458777D01*
X167912252Y-140452190D01*
X167910051Y-140438293D01*
X167908500Y-140418583D01*
X167908500Y-127581417D01*
X167910051Y-127561707D01*
X167911220Y-127554327D01*
X167911220Y-127554326D01*
X167912252Y-127547810D01*
X167910173Y-127508131D01*
X167908673Y-127479520D01*
X167908500Y-127472926D01*
X167908500Y-127452390D01*
X167908156Y-127449116D01*
X167906353Y-127431958D01*
X167905836Y-127425384D01*
X167902603Y-127363696D01*
X167902603Y-127363694D01*
X167902257Y-127357097D01*
X167898615Y-127343504D01*
X167895014Y-127324075D01*
X167894705Y-127321134D01*
X167893542Y-127310072D01*
X167872407Y-127245025D01*
X167870535Y-127238706D01*
X167870426Y-127238297D01*
X167852830Y-127172630D01*
X167846438Y-127160085D01*
X167838874Y-127141823D01*
X167836568Y-127134726D01*
X167834527Y-127128444D01*
X167819525Y-127102460D01*
X167800336Y-127069223D01*
X167797188Y-127063426D01*
X167769126Y-127008351D01*
X167769124Y-127008348D01*
X167766129Y-127002470D01*
X167757273Y-126991533D01*
X167746073Y-126975237D01*
X167742343Y-126968776D01*
X167742340Y-126968772D01*
X167739040Y-126963056D01*
X167734623Y-126958150D01*
X167734619Y-126958145D01*
X167693278Y-126912231D01*
X167688994Y-126907216D01*
X167678148Y-126893823D01*
X167676072Y-126891259D01*
X167661557Y-126876744D01*
X167657016Y-126871959D01*
X167615673Y-126826043D01*
X167611253Y-126821134D01*
X167599865Y-126812860D01*
X167584832Y-126800019D01*
X166235981Y-125451168D01*
X166223140Y-125436135D01*
X166218746Y-125430087D01*
X166218745Y-125430086D01*
X166214866Y-125424747D01*
X166164041Y-125378984D01*
X166159256Y-125374443D01*
X166144741Y-125359928D01*
X166137282Y-125353888D01*
X166128784Y-125347006D01*
X166123769Y-125342722D01*
X166077855Y-125301381D01*
X166077850Y-125301377D01*
X166072944Y-125296960D01*
X166067228Y-125293660D01*
X166067224Y-125293657D01*
X166060763Y-125289927D01*
X166044466Y-125278727D01*
X166038660Y-125274025D01*
X166038658Y-125274024D01*
X166033530Y-125269871D01*
X165972577Y-125238814D01*
X165966782Y-125235667D01*
X165913279Y-125204777D01*
X165913278Y-125204776D01*
X165907556Y-125201473D01*
X165901274Y-125199432D01*
X165901272Y-125199431D01*
X165894174Y-125197125D01*
X165875907Y-125189559D01*
X165863370Y-125183171D01*
X165797299Y-125165467D01*
X165790997Y-125163600D01*
X165725928Y-125142458D01*
X165719363Y-125141768D01*
X165719354Y-125141766D01*
X165711925Y-125140985D01*
X165692491Y-125137383D01*
X165685286Y-125135453D01*
X165685284Y-125135453D01*
X165678903Y-125133743D01*
X165672312Y-125133398D01*
X165672308Y-125133397D01*
X165610616Y-125130164D01*
X165604042Y-125129647D01*
X165586884Y-125127844D01*
X165586882Y-125127844D01*
X165583610Y-125127500D01*
X165563074Y-125127500D01*
X165556480Y-125127327D01*
X165494782Y-125124093D01*
X165494777Y-125124093D01*
X165488190Y-125123748D01*
X165474292Y-125125949D01*
X165454583Y-125127500D01*
X162335477Y-125127500D01*
X162267356Y-125107498D01*
X162220863Y-125053842D01*
X162210759Y-124983568D01*
X162240253Y-124918988D01*
X162246382Y-124912405D01*
X162342749Y-124816038D01*
X162349704Y-124806106D01*
X162465899Y-124640162D01*
X162465900Y-124640160D01*
X162469056Y-124635653D01*
X162471379Y-124630671D01*
X162471382Y-124630666D01*
X162559795Y-124441061D01*
X162562120Y-124436076D01*
X162619115Y-124223371D01*
X162638307Y-124004000D01*
X162619115Y-123784629D01*
X162562120Y-123571924D01*
X162493637Y-123425061D01*
X162471382Y-123377334D01*
X162471379Y-123377329D01*
X162469056Y-123372347D01*
X162353539Y-123207371D01*
X162345908Y-123196473D01*
X162345906Y-123196470D01*
X162342749Y-123191962D01*
X162227882Y-123077095D01*
X162193856Y-123014783D01*
X162198921Y-122943968D01*
X162227882Y-122898905D01*
X162342749Y-122784038D01*
X162349704Y-122774106D01*
X162465899Y-122608162D01*
X162465900Y-122608160D01*
X162469056Y-122603653D01*
X162471379Y-122598671D01*
X162471382Y-122598666D01*
X162559795Y-122409061D01*
X162562120Y-122404076D01*
X162619115Y-122191371D01*
X162638307Y-121972000D01*
X162619115Y-121752629D01*
X162562120Y-121539924D01*
X162493637Y-121393061D01*
X162471382Y-121345334D01*
X162471379Y-121345329D01*
X162469056Y-121340347D01*
X162413804Y-121261439D01*
X162391116Y-121194165D01*
X162408401Y-121125304D01*
X162441451Y-121088343D01*
X162488261Y-121053261D01*
X162575615Y-120936705D01*
X162626745Y-120800316D01*
X162633500Y-120738134D01*
X162633500Y-119141866D01*
X162630477Y-119114036D01*
X162629611Y-119106063D01*
X162642140Y-119036180D01*
X162690461Y-118984165D01*
X162759233Y-118966531D01*
X162813833Y-118981101D01*
X163029547Y-119095315D01*
X163045200Y-119103603D01*
X163049223Y-119105075D01*
X163049227Y-119105077D01*
X163314351Y-119202099D01*
X163318382Y-119203574D01*
X163602604Y-119265544D01*
X163631650Y-119267830D01*
X163828297Y-119283307D01*
X163828304Y-119283307D01*
X163830753Y-119283500D01*
X163988121Y-119283500D01*
X163990257Y-119283354D01*
X163990268Y-119283354D01*
X164200949Y-119268991D01*
X164200955Y-119268990D01*
X164205226Y-119268699D01*
X164209421Y-119267830D01*
X164209423Y-119267830D01*
X164446307Y-119218774D01*
X164490081Y-119209709D01*
X164764295Y-119112605D01*
X164861732Y-119062314D01*
X165018986Y-118981149D01*
X165018987Y-118981149D01*
X165022793Y-118979184D01*
X165026294Y-118976723D01*
X165026298Y-118976721D01*
X165190240Y-118861500D01*
X165260792Y-118811915D01*
X165349212Y-118729750D01*
X165470745Y-118616815D01*
X165470748Y-118616812D01*
X165473888Y-118613894D01*
X165487316Y-118597489D01*
X165646771Y-118402673D01*
X165658139Y-118388784D01*
X165810133Y-118140752D01*
X165818869Y-118120852D01*
X165925334Y-117878315D01*
X165927059Y-117874386D01*
X165933073Y-117853276D01*
X165961815Y-117752374D01*
X166006754Y-117594616D01*
X166009286Y-117576829D01*
X166047137Y-117310870D01*
X166047742Y-117306619D01*
X166048998Y-117066765D01*
X166049243Y-117020009D01*
X166049243Y-117020003D01*
X166049265Y-117015723D01*
X166011295Y-116727313D01*
X166008881Y-116718487D01*
X165935667Y-116450863D01*
X165934535Y-116446724D01*
X165892364Y-116347856D01*
X165822090Y-116183100D01*
X165822088Y-116183096D01*
X165820404Y-116179148D01*
X165671015Y-115929538D01*
X165656337Y-115911216D01*
X165491823Y-115705869D01*
X165489133Y-115702511D01*
X165314971Y-115537237D01*
X165281231Y-115505219D01*
X165281228Y-115505217D01*
X165278122Y-115502269D01*
X165041887Y-115332517D01*
X164784800Y-115196397D01*
X164780777Y-115194925D01*
X164780773Y-115194923D01*
X164515649Y-115097901D01*
X164515647Y-115097900D01*
X164511618Y-115096426D01*
X164227396Y-115034456D01*
X164183598Y-115031009D01*
X164001703Y-115016693D01*
X164001696Y-115016693D01*
X163999247Y-115016500D01*
X163841879Y-115016500D01*
X163839743Y-115016646D01*
X163839732Y-115016646D01*
X163629051Y-115031009D01*
X163629045Y-115031010D01*
X163624774Y-115031301D01*
X163620579Y-115032170D01*
X163620577Y-115032170D01*
X163605130Y-115035369D01*
X163339919Y-115090291D01*
X163065705Y-115187395D01*
X162807207Y-115320816D01*
X162803706Y-115323277D01*
X162803702Y-115323279D01*
X162701076Y-115395406D01*
X162569208Y-115488085D01*
X162556635Y-115499769D01*
X162371022Y-115672251D01*
X162356112Y-115686106D01*
X162353396Y-115689424D01*
X162350457Y-115692554D01*
X162349669Y-115691814D01*
X162295054Y-115729112D01*
X162224085Y-115731098D01*
X162163309Y-115694400D01*
X162132021Y-115630669D01*
X162130576Y-115599370D01*
X162133439Y-115563000D01*
X162148628Y-115370000D01*
X162128146Y-115109751D01*
X162126992Y-115104944D01*
X162126991Y-115104938D01*
X162068359Y-114860723D01*
X162067204Y-114855911D01*
X162065310Y-114851338D01*
X161969198Y-114619303D01*
X161969196Y-114619299D01*
X161967303Y-114614729D01*
X161830903Y-114392144D01*
X161661363Y-114193637D01*
X161462856Y-114024097D01*
X161240271Y-113887697D01*
X161235701Y-113885804D01*
X161235697Y-113885802D01*
X161003662Y-113789690D01*
X161003660Y-113789689D01*
X160999089Y-113787796D01*
X160910069Y-113766424D01*
X160750062Y-113728009D01*
X160750056Y-113728008D01*
X160745249Y-113726854D01*
X160485000Y-113706372D01*
X160224751Y-113726854D01*
X160219944Y-113728008D01*
X160219938Y-113728009D01*
X160059931Y-113766424D01*
X159970911Y-113787796D01*
X159966340Y-113789689D01*
X159966338Y-113789690D01*
X159734303Y-113885802D01*
X159734299Y-113885804D01*
X159729729Y-113887697D01*
X159507144Y-114024097D01*
X159308637Y-114193637D01*
X159139097Y-114392144D01*
X159002697Y-114614729D01*
X159000804Y-114619299D01*
X159000802Y-114619303D01*
X158904690Y-114851338D01*
X158902796Y-114855911D01*
X158901641Y-114860723D01*
X158843009Y-115104938D01*
X158843008Y-115104944D01*
X158841854Y-115109751D01*
X158821372Y-115370000D01*
X158841854Y-115630249D01*
X158843008Y-115635056D01*
X158843009Y-115635062D01*
X158860009Y-115705869D01*
X158902796Y-115884089D01*
X158904689Y-115888660D01*
X158904690Y-115888662D01*
X158952398Y-116003838D01*
X159002697Y-116125271D01*
X159139097Y-116347856D01*
X159308637Y-116546363D01*
X159507144Y-116715903D01*
X159729729Y-116852303D01*
X159734299Y-116854196D01*
X159734303Y-116854198D01*
X159865400Y-116908500D01*
X159970911Y-116952204D01*
X160059931Y-116973576D01*
X160219938Y-117011991D01*
X160219944Y-117011992D01*
X160224751Y-117013146D01*
X160485000Y-117033628D01*
X160745249Y-117013146D01*
X160750056Y-117011992D01*
X160750062Y-117011991D01*
X160910069Y-116973576D01*
X160999089Y-116952204D01*
X161104600Y-116908500D01*
X161235697Y-116854198D01*
X161235701Y-116854196D01*
X161240271Y-116852303D01*
X161462856Y-116715903D01*
X161618566Y-116582915D01*
X161683356Y-116553884D01*
X161753556Y-116564489D01*
X161806878Y-116611364D01*
X161826393Y-116679626D01*
X161823805Y-116703423D01*
X161823246Y-116705384D01*
X161822643Y-116709619D01*
X161822642Y-116709625D01*
X161794338Y-116908500D01*
X161782258Y-116993381D01*
X161780735Y-117284277D01*
X161818705Y-117572687D01*
X161895465Y-117853276D01*
X161897149Y-117857224D01*
X161979482Y-118050250D01*
X162009596Y-118120852D01*
X162158985Y-118370462D01*
X162244115Y-118476722D01*
X162271095Y-118542390D01*
X162258290Y-118612222D01*
X162209763Y-118664045D01*
X162145779Y-118681500D01*
X160576866Y-118681500D01*
X160514684Y-118688255D01*
X160378295Y-118739385D01*
X160261739Y-118826739D01*
X160174385Y-118943295D01*
X160123255Y-119079684D01*
X160116500Y-119141866D01*
X160116500Y-119628634D01*
X160096498Y-119696755D01*
X160042842Y-119743248D01*
X159972568Y-119753352D01*
X159957888Y-119750340D01*
X159819692Y-119713310D01*
X159819683Y-119713309D01*
X159814371Y-119711885D01*
X159595000Y-119692693D01*
X159375629Y-119711885D01*
X159162924Y-119768880D01*
X159073500Y-119810579D01*
X158968334Y-119859618D01*
X158968329Y-119859621D01*
X158963347Y-119861944D01*
X158958840Y-119865100D01*
X158958838Y-119865101D01*
X158787473Y-119985092D01*
X158787470Y-119985094D01*
X158782962Y-119988251D01*
X158627251Y-120143962D01*
X158624094Y-120148470D01*
X158624092Y-120148473D01*
X158527134Y-120286944D01*
X158500944Y-120324347D01*
X158498621Y-120329329D01*
X158498618Y-120329334D01*
X158495699Y-120335594D01*
X158407880Y-120523924D01*
X158350885Y-120736629D01*
X158331693Y-120956000D01*
X158350885Y-121175371D01*
X158407880Y-121388076D01*
X158410205Y-121393061D01*
X158498618Y-121582666D01*
X158498621Y-121582671D01*
X158500944Y-121587653D01*
X158504100Y-121592160D01*
X158504101Y-121592162D01*
X158620297Y-121758106D01*
X158627251Y-121768038D01*
X158742118Y-121882905D01*
X158776144Y-121945217D01*
X158771079Y-122016032D01*
X158742118Y-122061095D01*
X158627251Y-122175962D01*
X158624094Y-122180470D01*
X158624092Y-122180473D01*
X158616461Y-122191371D01*
X158500944Y-122356347D01*
X158498621Y-122361329D01*
X158498618Y-122361334D01*
X158476363Y-122409061D01*
X158407880Y-122555924D01*
X158350885Y-122768629D01*
X158331693Y-122988000D01*
X158350885Y-123207371D01*
X158407880Y-123420076D01*
X158441358Y-123491869D01*
X158498618Y-123614666D01*
X158498621Y-123614671D01*
X158500944Y-123619653D01*
X158504100Y-123624160D01*
X158504101Y-123624162D01*
X158620297Y-123790106D01*
X158627251Y-123800038D01*
X158742118Y-123914905D01*
X158776144Y-123977217D01*
X158771079Y-124048032D01*
X158742118Y-124093095D01*
X158627251Y-124207962D01*
X158624094Y-124212470D01*
X158624092Y-124212473D01*
X158616461Y-124223371D01*
X158500944Y-124388347D01*
X158498621Y-124393329D01*
X158498618Y-124393334D01*
X158476363Y-124441061D01*
X158407880Y-124587924D01*
X158350885Y-124800629D01*
X158331693Y-125020000D01*
X158350885Y-125239371D01*
X158407880Y-125452076D01*
X158410205Y-125457061D01*
X158498618Y-125646666D01*
X158498621Y-125646671D01*
X158500944Y-125651653D01*
X158627251Y-125832038D01*
X158742118Y-125946905D01*
X158776144Y-126009217D01*
X158771079Y-126080032D01*
X158742118Y-126125095D01*
X158627251Y-126239962D01*
X158500944Y-126420347D01*
X158498621Y-126425329D01*
X158498618Y-126425334D01*
X158451415Y-126526562D01*
X158407880Y-126619924D01*
X158350885Y-126832629D01*
X158331693Y-127052000D01*
X158350885Y-127271371D01*
X158407880Y-127484076D01*
X158444080Y-127561707D01*
X158498618Y-127678666D01*
X158498621Y-127678671D01*
X158500944Y-127683653D01*
X158504100Y-127688160D01*
X158504101Y-127688162D01*
X158614144Y-127845319D01*
X158627251Y-127864038D01*
X158782962Y-128019749D01*
X158787471Y-128022906D01*
X158787473Y-128022908D01*
X158846908Y-128064525D01*
X158963346Y-128146056D01*
X159162924Y-128239120D01*
X159375629Y-128296115D01*
X159595000Y-128315307D01*
X159814371Y-128296115D01*
X160027076Y-128239120D01*
X160226654Y-128146056D01*
X160343092Y-128064525D01*
X160402527Y-128022908D01*
X160402529Y-128022906D01*
X160407038Y-128019749D01*
X160562749Y-127864038D01*
X160575857Y-127845319D01*
X160685899Y-127688162D01*
X160685900Y-127688160D01*
X160689056Y-127683653D01*
X160691379Y-127678671D01*
X160691382Y-127678666D01*
X160745920Y-127561707D01*
X160782120Y-127484076D01*
X160825520Y-127322107D01*
X160862472Y-127261485D01*
X160926333Y-127230463D01*
X160979838Y-127233012D01*
X161150316Y-127278692D01*
X161150323Y-127278693D01*
X161155629Y-127280115D01*
X161375000Y-127299307D01*
X161594371Y-127280115D01*
X161807076Y-127223120D01*
X162006654Y-127130056D01*
X162187038Y-127003749D01*
X162209382Y-126981405D01*
X162271694Y-126947379D01*
X162298477Y-126944500D01*
X165107497Y-126944500D01*
X165175618Y-126964502D01*
X165196592Y-126981405D01*
X166054595Y-127839408D01*
X166088621Y-127901720D01*
X166091500Y-127928503D01*
X166091500Y-128898169D01*
X166071498Y-128966290D01*
X166017842Y-129012783D01*
X165947568Y-129022887D01*
X165882988Y-128993393D01*
X165849603Y-128947604D01*
X165822090Y-128883100D01*
X165822088Y-128883096D01*
X165820404Y-128879148D01*
X165671015Y-128629538D01*
X165656337Y-128611216D01*
X165491823Y-128405869D01*
X165489133Y-128402511D01*
X165278122Y-128202269D01*
X165041887Y-128032517D01*
X164845438Y-127928503D01*
X164788587Y-127898402D01*
X164788586Y-127898401D01*
X164784800Y-127896397D01*
X164780777Y-127894925D01*
X164780773Y-127894923D01*
X164515649Y-127797901D01*
X164515647Y-127797900D01*
X164511618Y-127796426D01*
X164227396Y-127734456D01*
X164183598Y-127731009D01*
X164001703Y-127716693D01*
X164001696Y-127716693D01*
X163999247Y-127716500D01*
X163841879Y-127716500D01*
X163839743Y-127716646D01*
X163839732Y-127716646D01*
X163629051Y-127731009D01*
X163629045Y-127731010D01*
X163624774Y-127731301D01*
X163620579Y-127732170D01*
X163620577Y-127732170D01*
X163605130Y-127735369D01*
X163339919Y-127790291D01*
X163065705Y-127887395D01*
X163061896Y-127889361D01*
X162816825Y-128015852D01*
X162807207Y-128020816D01*
X162803706Y-128023277D01*
X162803702Y-128023279D01*
X162737225Y-128070000D01*
X162569208Y-128188085D01*
X162489382Y-128262264D01*
X162371770Y-128371556D01*
X162356112Y-128386106D01*
X162353398Y-128389422D01*
X162353395Y-128389425D01*
X162339936Y-128405869D01*
X162171861Y-128611216D01*
X162019867Y-128859248D01*
X162018148Y-128863165D01*
X162018146Y-128863168D01*
X161990184Y-128926868D01*
X161902941Y-129125614D01*
X161901765Y-129129742D01*
X161901764Y-129129745D01*
X161891990Y-129164056D01*
X161823246Y-129405384D01*
X161822642Y-129409626D01*
X161822641Y-129409632D01*
X161803509Y-129544065D01*
X161782258Y-129693381D01*
X161782236Y-129697677D01*
X161780827Y-129966760D01*
X161780735Y-129984277D01*
X161781294Y-129988521D01*
X161781294Y-129988525D01*
X161798017Y-130115544D01*
X161818705Y-130272687D01*
X161819839Y-130276832D01*
X161823198Y-130289113D01*
X161821878Y-130360097D01*
X161782391Y-130419099D01*
X161717273Y-130447386D01*
X161647199Y-130435978D01*
X161619837Y-130418170D01*
X161494420Y-130311055D01*
X161466621Y-130287312D01*
X161466616Y-130287309D01*
X161462856Y-130284097D01*
X161240271Y-130147697D01*
X161235701Y-130145804D01*
X161235697Y-130145802D01*
X161003662Y-130049690D01*
X161003660Y-130049689D01*
X160999089Y-130047796D01*
X160893808Y-130022520D01*
X160750062Y-129988009D01*
X160750056Y-129988008D01*
X160745249Y-129986854D01*
X160485000Y-129966372D01*
X160224751Y-129986854D01*
X160219944Y-129988008D01*
X160219938Y-129988009D01*
X160076192Y-130022520D01*
X159970911Y-130047796D01*
X159966340Y-130049689D01*
X159966338Y-130049690D01*
X159734303Y-130145802D01*
X159734299Y-130145804D01*
X159729729Y-130147697D01*
X159507144Y-130284097D01*
X159308637Y-130453637D01*
X159139097Y-130652144D01*
X159002697Y-130874729D01*
X159000804Y-130879299D01*
X159000802Y-130879303D01*
X158915546Y-131085130D01*
X158902796Y-131115911D01*
X158881424Y-131204931D01*
X158843009Y-131364938D01*
X158843008Y-131364944D01*
X158841854Y-131369751D01*
X158821372Y-131630000D01*
X158841854Y-131890249D01*
X158843008Y-131895056D01*
X158843009Y-131895062D01*
X158876136Y-132033043D01*
X158902796Y-132144089D01*
X158904689Y-132148660D01*
X158904690Y-132148662D01*
X158990573Y-132356000D01*
X159002697Y-132385271D01*
X159139097Y-132607856D01*
X159308637Y-132806363D01*
X159507144Y-132975903D01*
X159729729Y-133112303D01*
X159734299Y-133114196D01*
X159734303Y-133114198D01*
X159966338Y-133210310D01*
X159970911Y-133212204D01*
X160059931Y-133233576D01*
X160219938Y-133271991D01*
X160219944Y-133271992D01*
X160224751Y-133273146D01*
X160485000Y-133293628D01*
X160745249Y-133273146D01*
X160750056Y-133271992D01*
X160750062Y-133271991D01*
X160910069Y-133233576D01*
X160999089Y-133212204D01*
X161003662Y-133210310D01*
X161235697Y-133114198D01*
X161235701Y-133114196D01*
X161240271Y-133112303D01*
X161462856Y-132975903D01*
X161661363Y-132806363D01*
X161830903Y-132607856D01*
X161967303Y-132385271D01*
X161979428Y-132356000D01*
X162065310Y-132148662D01*
X162065311Y-132148660D01*
X162067204Y-132144089D01*
X162093864Y-132033043D01*
X162126991Y-131895062D01*
X162126992Y-131895056D01*
X162128146Y-131890249D01*
X162148628Y-131630000D01*
X162130584Y-131400729D01*
X162145180Y-131331249D01*
X162195023Y-131280689D01*
X162264287Y-131265103D01*
X162330983Y-131289438D01*
X162342929Y-131299446D01*
X162520284Y-131467749D01*
X162551878Y-131497731D01*
X162788113Y-131667483D01*
X163045200Y-131803603D01*
X163049223Y-131805075D01*
X163049227Y-131805077D01*
X163295122Y-131895062D01*
X163318382Y-131903574D01*
X163602604Y-131965544D01*
X163631650Y-131967830D01*
X163828297Y-131983307D01*
X163828304Y-131983307D01*
X163830753Y-131983500D01*
X163988121Y-131983500D01*
X163990257Y-131983354D01*
X163990268Y-131983354D01*
X164200949Y-131968991D01*
X164200955Y-131968990D01*
X164205226Y-131968699D01*
X164209421Y-131967830D01*
X164209423Y-131967830D01*
X164347653Y-131939204D01*
X164490081Y-131909709D01*
X164764295Y-131812605D01*
X165022793Y-131679184D01*
X165026294Y-131676723D01*
X165026298Y-131676721D01*
X165148409Y-131590899D01*
X165260792Y-131511915D01*
X165357735Y-131421830D01*
X165470745Y-131316815D01*
X165470748Y-131316812D01*
X165473888Y-131313894D01*
X165479100Y-131307527D01*
X165655423Y-131092102D01*
X165658139Y-131088784D01*
X165810133Y-130840752D01*
X165813835Y-130832320D01*
X165850126Y-130749645D01*
X165895822Y-130695309D01*
X165963641Y-130674304D01*
X166032049Y-130693298D01*
X166079329Y-130746262D01*
X166091500Y-130800290D01*
X166091500Y-137698169D01*
X166071498Y-137766290D01*
X166017842Y-137812783D01*
X165947568Y-137822887D01*
X165882988Y-137793393D01*
X165849603Y-137747604D01*
X165822090Y-137683100D01*
X165822088Y-137683096D01*
X165820404Y-137679148D01*
X165671015Y-137429538D01*
X165656337Y-137411216D01*
X165523190Y-137245021D01*
X165489133Y-137202511D01*
X165321695Y-137043618D01*
X165281231Y-137005219D01*
X165281228Y-137005217D01*
X165278122Y-137002269D01*
X165041887Y-136832517D01*
X164784800Y-136696397D01*
X164780777Y-136694925D01*
X164780773Y-136694923D01*
X164515649Y-136597901D01*
X164515647Y-136597900D01*
X164511618Y-136596426D01*
X164227396Y-136534456D01*
X164183598Y-136531009D01*
X164001703Y-136516693D01*
X164001696Y-136516693D01*
X163999247Y-136516500D01*
X163841879Y-136516500D01*
X163839743Y-136516646D01*
X163839732Y-136516646D01*
X163629051Y-136531009D01*
X163629045Y-136531010D01*
X163624774Y-136531301D01*
X163620579Y-136532170D01*
X163620577Y-136532170D01*
X163605130Y-136535369D01*
X163339919Y-136590291D01*
X163065705Y-136687395D01*
X162807207Y-136820816D01*
X162803706Y-136823277D01*
X162803702Y-136823279D01*
X162744240Y-136865070D01*
X162569208Y-136988085D01*
X162556635Y-136999769D01*
X162363755Y-137179004D01*
X162356112Y-137186106D01*
X162353396Y-137189424D01*
X162350457Y-137192554D01*
X162349669Y-137191814D01*
X162295054Y-137229112D01*
X162224085Y-137231098D01*
X162163309Y-137194400D01*
X162132021Y-137130669D01*
X162130576Y-137099370D01*
X162131088Y-137092872D01*
X162148628Y-136870000D01*
X162128146Y-136609751D01*
X162126992Y-136604944D01*
X162126991Y-136604938D01*
X162080730Y-136412252D01*
X162067204Y-136355911D01*
X162065310Y-136351338D01*
X161969198Y-136119303D01*
X161969196Y-136119299D01*
X161967303Y-136114729D01*
X161830903Y-135892144D01*
X161661363Y-135693637D01*
X161462856Y-135524097D01*
X161240271Y-135387697D01*
X161235701Y-135385804D01*
X161235697Y-135385802D01*
X161003662Y-135289690D01*
X161003660Y-135289689D01*
X160999089Y-135287796D01*
X160910069Y-135266424D01*
X160750062Y-135228009D01*
X160750056Y-135228008D01*
X160745249Y-135226854D01*
X160485000Y-135206372D01*
X160224751Y-135226854D01*
X160219944Y-135228008D01*
X160219938Y-135228009D01*
X160059931Y-135266424D01*
X159970911Y-135287796D01*
X159966340Y-135289689D01*
X159966338Y-135289690D01*
X159734303Y-135385802D01*
X159734299Y-135385804D01*
X159729729Y-135387697D01*
X159507144Y-135524097D01*
X159308637Y-135693637D01*
X159139097Y-135892144D01*
X159002697Y-136114729D01*
X159000804Y-136119299D01*
X159000802Y-136119303D01*
X158904690Y-136351338D01*
X158902796Y-136355911D01*
X158889270Y-136412252D01*
X158843009Y-136604938D01*
X158843008Y-136604944D01*
X158841854Y-136609751D01*
X158821372Y-136870000D01*
X158841854Y-137130249D01*
X158843008Y-137135056D01*
X158843009Y-137135062D01*
X158881424Y-137295069D01*
X158902796Y-137384089D01*
X158904689Y-137388660D01*
X158904690Y-137388662D01*
X159000653Y-137620336D01*
X159002697Y-137625271D01*
X159139097Y-137847856D01*
X159308637Y-138046363D01*
X159507144Y-138215903D01*
X159729729Y-138352303D01*
X159734299Y-138354196D01*
X159734303Y-138354198D01*
X159966338Y-138450310D01*
X159970911Y-138452204D01*
X160059931Y-138473576D01*
X160219938Y-138511991D01*
X160219944Y-138511992D01*
X160224751Y-138513146D01*
X160485000Y-138533628D01*
X160745249Y-138513146D01*
X160750056Y-138511992D01*
X160750062Y-138511991D01*
X160910069Y-138473576D01*
X160999089Y-138452204D01*
X161003662Y-138450310D01*
X161235697Y-138354198D01*
X161235701Y-138354196D01*
X161240271Y-138352303D01*
X161462856Y-138215903D01*
X161618566Y-138082915D01*
X161683356Y-138053884D01*
X161753556Y-138064489D01*
X161806878Y-138111364D01*
X161826393Y-138179626D01*
X161823805Y-138203423D01*
X161823246Y-138205384D01*
X161822643Y-138209619D01*
X161822642Y-138209625D01*
X161801743Y-138356472D01*
X161782258Y-138493381D01*
X161781874Y-138566765D01*
X161781267Y-138682749D01*
X161780735Y-138784277D01*
X161781294Y-138788521D01*
X161781294Y-138788525D01*
X161796190Y-138901666D01*
X161818705Y-139072687D01*
X161895465Y-139353276D01*
X161897149Y-139357224D01*
X162000826Y-139600290D01*
X162009596Y-139620852D01*
X162158985Y-139870462D01*
X162244115Y-139976722D01*
X162271095Y-140042390D01*
X162258290Y-140112222D01*
X162209763Y-140164045D01*
X162145779Y-140181500D01*
X160576866Y-140181500D01*
X160514684Y-140188255D01*
X160378295Y-140239385D01*
X160261739Y-140326739D01*
X160174385Y-140443295D01*
X160123255Y-140579684D01*
X160116500Y-140641866D01*
X160116500Y-141128634D01*
X160096498Y-141196755D01*
X160042842Y-141243248D01*
X159972568Y-141253352D01*
X159957888Y-141250340D01*
X159819692Y-141213310D01*
X159819683Y-141213309D01*
X159814371Y-141211885D01*
X159595000Y-141192693D01*
X159375629Y-141211885D01*
X159162924Y-141268880D01*
X159081098Y-141307036D01*
X158968334Y-141359618D01*
X158968329Y-141359621D01*
X158963347Y-141361944D01*
X158958840Y-141365100D01*
X158958838Y-141365101D01*
X158787473Y-141485092D01*
X158787470Y-141485094D01*
X158782962Y-141488251D01*
X158627251Y-141643962D01*
X158624094Y-141648470D01*
X158624092Y-141648473D01*
X158504101Y-141819838D01*
X158500944Y-141824347D01*
X158498621Y-141829329D01*
X158498618Y-141829334D01*
X158462343Y-141907128D01*
X158407880Y-142023924D01*
X158350885Y-142236629D01*
X158331693Y-142456000D01*
X158350885Y-142675371D01*
X158407880Y-142888076D01*
X158440554Y-142958145D01*
X158498618Y-143082666D01*
X158498621Y-143082671D01*
X158500944Y-143087653D01*
X158504100Y-143092160D01*
X158504101Y-143092162D01*
X158620297Y-143258106D01*
X158627251Y-143268038D01*
X158742118Y-143382905D01*
X158776144Y-143445217D01*
X158771079Y-143516032D01*
X158742118Y-143561095D01*
X158627251Y-143675962D01*
X158624094Y-143680470D01*
X158624092Y-143680473D01*
X158546749Y-143790930D01*
X158500944Y-143856347D01*
X158498621Y-143861329D01*
X158498618Y-143861334D01*
X158477306Y-143907038D01*
X158407880Y-144055924D01*
X158350885Y-144268629D01*
X158331693Y-144488000D01*
X158350885Y-144707371D01*
X158407880Y-144920076D01*
X158429584Y-144966621D01*
X158498618Y-145114666D01*
X158498621Y-145114671D01*
X158500944Y-145119653D01*
X158504100Y-145124160D01*
X158504101Y-145124162D01*
X158620297Y-145290106D01*
X158627251Y-145300038D01*
X158742118Y-145414905D01*
X158776144Y-145477217D01*
X158771079Y-145548032D01*
X158742118Y-145593095D01*
X158627251Y-145707962D01*
X158624094Y-145712470D01*
X158624092Y-145712473D01*
X158522783Y-145857158D01*
X158500944Y-145888347D01*
X158498621Y-145893329D01*
X158498618Y-145893334D01*
X158476363Y-145941061D01*
X158407880Y-146087924D01*
X158350885Y-146300629D01*
X158331693Y-146520000D01*
X158350885Y-146739371D01*
X158407880Y-146952076D01*
X158434107Y-147008320D01*
X158498618Y-147146666D01*
X158498621Y-147146671D01*
X158500944Y-147151653D01*
X158504100Y-147156160D01*
X158504101Y-147156162D01*
X158612741Y-147311315D01*
X158627251Y-147332038D01*
X158742118Y-147446905D01*
X158776144Y-147509217D01*
X158771079Y-147580032D01*
X158742118Y-147625095D01*
X158627251Y-147739962D01*
X158624094Y-147744470D01*
X158624092Y-147744473D01*
X158535108Y-147871556D01*
X158500944Y-147920347D01*
X158498621Y-147925329D01*
X158498618Y-147925334D01*
X158456260Y-148016173D01*
X158407880Y-148119924D01*
X158350885Y-148332629D01*
X158331693Y-148552000D01*
X158350885Y-148771371D01*
X158407880Y-148984076D01*
X158443182Y-149059781D01*
X158498618Y-149178666D01*
X158498621Y-149178671D01*
X158500944Y-149183653D01*
X158504100Y-149188160D01*
X158504101Y-149188162D01*
X158614144Y-149345319D01*
X158627251Y-149364038D01*
X158782962Y-149519749D01*
X158787471Y-149522906D01*
X158787473Y-149522908D01*
X158823747Y-149548307D01*
X158963346Y-149646056D01*
X159162924Y-149739120D01*
X159375629Y-149796115D01*
X159595000Y-149815307D01*
X159814371Y-149796115D01*
X160027076Y-149739120D01*
X160220737Y-149648815D01*
X160290929Y-149638154D01*
X160355742Y-149667134D01*
X160394598Y-149726554D01*
X160395161Y-149797548D01*
X160363082Y-149852105D01*
X160160592Y-150054595D01*
X160098280Y-150088621D01*
X160071497Y-150091500D01*
X158581417Y-150091500D01*
X158561707Y-150089949D01*
X158554327Y-150088780D01*
X158554326Y-150088780D01*
X158547810Y-150087748D01*
X158541223Y-150088093D01*
X158541218Y-150088093D01*
X158479520Y-150091327D01*
X158472926Y-150091500D01*
X158452390Y-150091500D01*
X158449118Y-150091844D01*
X158449116Y-150091844D01*
X158431958Y-150093647D01*
X158425384Y-150094164D01*
X158363696Y-150097397D01*
X158363694Y-150097397D01*
X158357097Y-150097743D01*
X158343504Y-150101385D01*
X158324075Y-150104986D01*
X158310072Y-150106458D01*
X158245025Y-150127593D01*
X158238712Y-150129463D01*
X158218074Y-150134993D01*
X158179003Y-150145462D01*
X158179000Y-150145463D01*
X158172630Y-150147170D01*
X158160085Y-150153562D01*
X158141826Y-150161125D01*
X158128444Y-150165473D01*
X158122723Y-150168776D01*
X158069223Y-150199664D01*
X158063426Y-150202812D01*
X158008351Y-150230874D01*
X158008348Y-150230876D01*
X158002470Y-150233871D01*
X157997342Y-150238024D01*
X157997340Y-150238025D01*
X157991534Y-150242727D01*
X157975237Y-150253927D01*
X157968776Y-150257657D01*
X157968772Y-150257660D01*
X157963056Y-150260960D01*
X157958150Y-150265377D01*
X157958145Y-150265381D01*
X157912231Y-150306722D01*
X157907216Y-150311006D01*
X157898718Y-150317888D01*
X157891259Y-150323928D01*
X157876744Y-150338443D01*
X157871959Y-150342984D01*
X157821134Y-150388747D01*
X157817255Y-150394086D01*
X157817254Y-150394087D01*
X157812860Y-150400135D01*
X157800019Y-150415168D01*
X156252713Y-151962474D01*
X156190401Y-151996500D01*
X156119586Y-151991435D01*
X156062750Y-151948888D01*
X156037939Y-151882368D01*
X156038030Y-151870981D01*
X156037828Y-151870981D01*
X156037828Y-151865475D01*
X156038307Y-151860000D01*
X156019115Y-151640629D01*
X155962120Y-151427924D01*
X155901701Y-151298354D01*
X155871382Y-151233334D01*
X155871379Y-151233329D01*
X155869056Y-151228347D01*
X155841706Y-151189287D01*
X155745908Y-151052473D01*
X155745906Y-151052470D01*
X155742749Y-151047962D01*
X155587038Y-150892251D01*
X155481300Y-150818212D01*
X155436973Y-150762756D01*
X155429664Y-150692136D01*
X155461695Y-150628776D01*
X155481301Y-150611787D01*
X155498328Y-150599865D01*
X155587038Y-150537749D01*
X155742749Y-150382038D01*
X155747355Y-150375461D01*
X155865899Y-150206162D01*
X155865900Y-150206160D01*
X155869056Y-150201653D01*
X155871379Y-150196671D01*
X155871382Y-150196666D01*
X155921689Y-150088780D01*
X155962120Y-150002076D01*
X156019115Y-149789371D01*
X156038307Y-149570000D01*
X156019115Y-149350629D01*
X155962120Y-149137924D01*
X155906125Y-149017842D01*
X155871382Y-148943334D01*
X155871379Y-148943329D01*
X155869056Y-148938347D01*
X155865899Y-148933838D01*
X155745908Y-148762473D01*
X155745906Y-148762470D01*
X155742749Y-148757962D01*
X155587038Y-148602251D01*
X155568830Y-148589501D01*
X155499533Y-148540979D01*
X155406654Y-148475944D01*
X155207076Y-148382880D01*
X154994371Y-148325885D01*
X154775000Y-148306693D01*
X154555629Y-148325885D01*
X154342924Y-148382880D01*
X154258370Y-148422308D01*
X154148334Y-148473618D01*
X154148329Y-148473621D01*
X154143347Y-148475944D01*
X154138840Y-148479100D01*
X154138838Y-148479101D01*
X153967473Y-148599092D01*
X153967470Y-148599094D01*
X153962962Y-148602251D01*
X153807251Y-148757962D01*
X153804094Y-148762470D01*
X153804092Y-148762473D01*
X153684101Y-148933838D01*
X153680944Y-148938347D01*
X153678621Y-148943329D01*
X153678618Y-148943334D01*
X153643875Y-149017842D01*
X153587880Y-149137924D01*
X153530885Y-149350629D01*
X153511693Y-149570000D01*
X153530885Y-149789371D01*
X153587880Y-150002076D01*
X153628311Y-150088780D01*
X153678618Y-150196666D01*
X153678621Y-150196671D01*
X153680944Y-150201653D01*
X153684100Y-150206160D01*
X153684101Y-150206162D01*
X153802646Y-150375461D01*
X153807251Y-150382038D01*
X153962962Y-150537749D01*
X154051673Y-150599865D01*
X154068699Y-150611787D01*
X154113027Y-150667244D01*
X154120336Y-150737864D01*
X154088305Y-150801224D01*
X154068699Y-150818213D01*
X153967473Y-150889092D01*
X153967470Y-150889094D01*
X153962962Y-150892251D01*
X153807251Y-151047962D01*
X153804094Y-151052470D01*
X153804092Y-151052473D01*
X153708294Y-151189287D01*
X153680944Y-151228347D01*
X153678621Y-151233329D01*
X153678618Y-151233334D01*
X153648299Y-151298354D01*
X153587880Y-151427924D01*
X153565655Y-151510870D01*
X153565087Y-151512988D01*
X153528135Y-151573611D01*
X153464275Y-151604632D01*
X153393780Y-151596204D01*
X153354285Y-151569472D01*
X151199981Y-149415168D01*
X151187140Y-149400135D01*
X151182746Y-149394087D01*
X151182745Y-149394086D01*
X151178866Y-149388747D01*
X151128041Y-149342984D01*
X151123256Y-149338443D01*
X151108741Y-149323928D01*
X151101282Y-149317888D01*
X151092784Y-149311006D01*
X151087769Y-149306722D01*
X151041855Y-149265381D01*
X151041850Y-149265377D01*
X151036944Y-149260960D01*
X151031228Y-149257660D01*
X151031224Y-149257657D01*
X151024763Y-149253927D01*
X151008466Y-149242727D01*
X151002660Y-149238025D01*
X151002658Y-149238024D01*
X150997530Y-149233871D01*
X150936577Y-149202814D01*
X150930782Y-149199667D01*
X150877279Y-149168777D01*
X150877278Y-149168776D01*
X150871556Y-149165473D01*
X150865274Y-149163432D01*
X150865272Y-149163431D01*
X150858174Y-149161125D01*
X150839907Y-149153559D01*
X150827370Y-149147171D01*
X150761299Y-149129467D01*
X150754997Y-149127600D01*
X150689928Y-149106458D01*
X150683363Y-149105768D01*
X150683354Y-149105766D01*
X150675925Y-149104985D01*
X150656491Y-149101383D01*
X150649286Y-149099453D01*
X150649284Y-149099453D01*
X150642903Y-149097743D01*
X150636312Y-149097398D01*
X150636308Y-149097397D01*
X150574616Y-149094164D01*
X150568042Y-149093647D01*
X150550884Y-149091844D01*
X150550882Y-149091844D01*
X150547610Y-149091500D01*
X150527074Y-149091500D01*
X150520480Y-149091327D01*
X150458782Y-149088093D01*
X150458777Y-149088093D01*
X150452190Y-149087748D01*
X150438292Y-149089949D01*
X150418583Y-149091500D01*
X147750006Y-149091500D01*
X147681885Y-149071498D01*
X147635392Y-149017842D01*
X147625288Y-148947568D01*
X147657872Y-148879838D01*
X147658888Y-148878894D01*
X147843139Y-148653784D01*
X147995133Y-148405752D01*
X148003869Y-148385852D01*
X148079086Y-148214501D01*
X148112059Y-148139386D01*
X148118073Y-148118276D01*
X148139842Y-148041855D01*
X148191754Y-147859616D01*
X148193302Y-147848745D01*
X148232137Y-147575870D01*
X148232742Y-147571619D01*
X148233576Y-147412409D01*
X148234243Y-147285009D01*
X148234243Y-147285003D01*
X148234265Y-147280723D01*
X148196295Y-146992313D01*
X148185288Y-146952076D01*
X148120667Y-146715862D01*
X148119535Y-146711724D01*
X148066629Y-146587687D01*
X148007090Y-146448100D01*
X148007088Y-146448096D01*
X148005404Y-146444148D01*
X147856015Y-146194538D01*
X147852436Y-146190070D01*
X147676823Y-145970869D01*
X147674133Y-145967511D01*
X147671016Y-145964553D01*
X147671009Y-145964545D01*
X147547193Y-145847049D01*
X147511548Y-145785649D01*
X147514757Y-145714725D01*
X147555801Y-145656795D01*
X147621649Y-145630251D01*
X147643811Y-145630040D01*
X147875070Y-145648240D01*
X147880000Y-145648628D01*
X148140249Y-145628146D01*
X148145056Y-145626992D01*
X148145062Y-145626991D01*
X148316565Y-145585816D01*
X148394089Y-145567204D01*
X148430189Y-145552251D01*
X148630697Y-145469198D01*
X148630701Y-145469196D01*
X148635271Y-145467303D01*
X148857856Y-145330903D01*
X149056363Y-145161363D01*
X149225903Y-144962856D01*
X149362303Y-144740271D01*
X149373732Y-144712681D01*
X149460310Y-144503662D01*
X149460311Y-144503660D01*
X149462204Y-144499089D01*
X149513834Y-144284038D01*
X149521991Y-144250062D01*
X149521992Y-144250056D01*
X149523146Y-144245249D01*
X149543628Y-143985000D01*
X149523146Y-143724751D01*
X149521992Y-143719944D01*
X149521991Y-143719938D01*
X149474413Y-143521765D01*
X149462204Y-143470911D01*
X149455895Y-143455680D01*
X149364198Y-143234303D01*
X149364196Y-143234299D01*
X149362303Y-143229729D01*
X149282042Y-143098754D01*
X149263504Y-143030221D01*
X149284960Y-142962545D01*
X149339600Y-142917212D01*
X149401292Y-142907815D01*
X149404513Y-142908500D01*
X149595487Y-142908500D01*
X149601939Y-142907128D01*
X149601944Y-142907128D01*
X149691574Y-142888076D01*
X149782288Y-142868794D01*
X149798702Y-142861486D01*
X149950722Y-142793803D01*
X149950724Y-142793802D01*
X149956752Y-142791118D01*
X149997602Y-142761439D01*
X150012157Y-142750864D01*
X150111253Y-142678866D01*
X150115675Y-142673955D01*
X150234621Y-142541852D01*
X150234622Y-142541851D01*
X150239040Y-142536944D01*
X150313197Y-142408500D01*
X150331223Y-142377279D01*
X150331224Y-142377278D01*
X150334527Y-142371556D01*
X150393542Y-142189928D01*
X150413504Y-142000000D01*
X150411629Y-141982158D01*
X150394232Y-141816635D01*
X150394232Y-141816633D01*
X150393542Y-141810072D01*
X150334527Y-141628444D01*
X150260370Y-141500000D01*
X151086496Y-141500000D01*
X151087186Y-141506565D01*
X151104023Y-141666757D01*
X151106458Y-141689928D01*
X151165473Y-141871556D01*
X151168776Y-141877278D01*
X151168777Y-141877279D01*
X151186445Y-141907880D01*
X151260960Y-142036944D01*
X151265378Y-142041851D01*
X151265379Y-142041852D01*
X151384325Y-142173955D01*
X151388747Y-142178866D01*
X151460942Y-142231319D01*
X151526659Y-142279065D01*
X151543248Y-142291118D01*
X151549276Y-142293802D01*
X151549278Y-142293803D01*
X151679704Y-142351872D01*
X151717712Y-142368794D01*
X151811113Y-142388647D01*
X151898056Y-142407128D01*
X151898061Y-142407128D01*
X151904513Y-142408500D01*
X152095487Y-142408500D01*
X152101939Y-142407128D01*
X152101944Y-142407128D01*
X152188887Y-142388647D01*
X152282288Y-142368794D01*
X152320296Y-142351872D01*
X152450722Y-142293803D01*
X152450724Y-142293802D01*
X152456752Y-142291118D01*
X152473342Y-142279065D01*
X152539058Y-142231319D01*
X152611253Y-142178866D01*
X152615675Y-142173955D01*
X152734621Y-142041852D01*
X152734622Y-142041851D01*
X152739040Y-142036944D01*
X152813555Y-141907880D01*
X152831223Y-141877279D01*
X152831224Y-141877278D01*
X152834527Y-141871556D01*
X152893542Y-141689928D01*
X152895978Y-141666757D01*
X152912814Y-141506565D01*
X152913504Y-141500000D01*
X152902348Y-141393852D01*
X152894232Y-141316635D01*
X152894232Y-141316633D01*
X152893542Y-141310072D01*
X152834527Y-141128444D01*
X152823152Y-141108741D01*
X152769707Y-141016173D01*
X152739040Y-140963056D01*
X152611253Y-140821134D01*
X152456752Y-140708882D01*
X152450724Y-140706198D01*
X152450722Y-140706197D01*
X152288319Y-140633891D01*
X152288318Y-140633891D01*
X152282288Y-140631206D01*
X152188887Y-140611353D01*
X152101944Y-140592872D01*
X152101939Y-140592872D01*
X152095487Y-140591500D01*
X151904513Y-140591500D01*
X151898061Y-140592872D01*
X151898056Y-140592872D01*
X151811113Y-140611353D01*
X151717712Y-140631206D01*
X151711682Y-140633891D01*
X151711681Y-140633891D01*
X151549278Y-140706197D01*
X151549276Y-140706198D01*
X151543248Y-140708882D01*
X151388747Y-140821134D01*
X151260960Y-140963056D01*
X151230293Y-141016173D01*
X151176849Y-141108741D01*
X151165473Y-141128444D01*
X151106458Y-141310072D01*
X151105768Y-141316633D01*
X151105768Y-141316635D01*
X151097652Y-141393852D01*
X151086496Y-141500000D01*
X150260370Y-141500000D01*
X150239040Y-141463056D01*
X150188762Y-141407216D01*
X150115675Y-141326045D01*
X150115673Y-141326043D01*
X150111253Y-141321134D01*
X149956752Y-141208882D01*
X149950724Y-141206198D01*
X149950722Y-141206197D01*
X149788319Y-141133891D01*
X149788318Y-141133891D01*
X149782288Y-141131206D01*
X149676599Y-141108741D01*
X149601944Y-141092872D01*
X149601939Y-141092872D01*
X149595487Y-141091500D01*
X149404513Y-141091500D01*
X149398061Y-141092872D01*
X149398056Y-141092872D01*
X149323401Y-141108741D01*
X149217712Y-141131206D01*
X149211682Y-141133891D01*
X149211681Y-141133891D01*
X149049278Y-141206197D01*
X149049276Y-141206198D01*
X149043248Y-141208882D01*
X148888747Y-141321134D01*
X148884327Y-141326043D01*
X148884325Y-141326045D01*
X148811239Y-141407216D01*
X148760960Y-141463056D01*
X148665473Y-141628444D01*
X148606458Y-141810072D01*
X148605768Y-141816633D01*
X148605768Y-141816635D01*
X148588371Y-141982158D01*
X148586496Y-142000000D01*
X148606458Y-142189928D01*
X148608498Y-142196206D01*
X148634947Y-142277609D01*
X148636974Y-142348577D01*
X148600312Y-142409375D01*
X148536599Y-142440700D01*
X148466897Y-142432954D01*
X148394089Y-142402796D01*
X148263966Y-142371556D01*
X148145062Y-142343009D01*
X148145056Y-142343008D01*
X148140249Y-142341854D01*
X147880000Y-142321372D01*
X147619751Y-142341854D01*
X147614944Y-142343008D01*
X147614938Y-142343009D01*
X147496034Y-142371556D01*
X147365911Y-142402796D01*
X147361340Y-142404689D01*
X147361338Y-142404690D01*
X147129303Y-142500802D01*
X147129299Y-142500804D01*
X147124729Y-142502697D01*
X146902144Y-142639097D01*
X146703637Y-142808637D01*
X146534097Y-143007144D01*
X146397697Y-143229729D01*
X146395804Y-143234299D01*
X146395802Y-143234303D01*
X146304105Y-143455680D01*
X146297796Y-143470911D01*
X146285587Y-143521765D01*
X146238009Y-143719938D01*
X146238008Y-143719944D01*
X146236854Y-143724751D01*
X146216372Y-143985000D01*
X146236854Y-144245249D01*
X146238008Y-144250056D01*
X146238009Y-144250062D01*
X146246166Y-144284038D01*
X146297796Y-144499089D01*
X146299689Y-144503660D01*
X146299690Y-144503662D01*
X146386269Y-144712681D01*
X146397697Y-144740271D01*
X146534097Y-144962856D01*
X146537313Y-144966621D01*
X146672060Y-145124391D01*
X146701091Y-145189181D01*
X146690486Y-145259381D01*
X146643611Y-145312703D01*
X146575349Y-145332218D01*
X146549407Y-145329329D01*
X146479211Y-145314024D01*
X146412396Y-145299456D01*
X146362474Y-145295527D01*
X146186703Y-145281693D01*
X146186696Y-145281693D01*
X146184247Y-145281500D01*
X146026879Y-145281500D01*
X146024743Y-145281646D01*
X146024732Y-145281646D01*
X145814051Y-145296009D01*
X145814045Y-145296010D01*
X145809774Y-145296301D01*
X145805579Y-145297170D01*
X145805577Y-145297170D01*
X145733671Y-145312061D01*
X145524919Y-145355291D01*
X145250705Y-145452395D01*
X145246896Y-145454361D01*
X145031937Y-145565310D01*
X144992207Y-145585816D01*
X144988706Y-145588277D01*
X144988702Y-145588279D01*
X144766951Y-145744129D01*
X144699717Y-145766934D01*
X144630826Y-145749769D01*
X144582152Y-145698085D01*
X144568500Y-145641042D01*
X144568500Y-144076866D01*
X144561745Y-144014684D01*
X144510615Y-143878295D01*
X144423261Y-143761739D01*
X144306705Y-143674385D01*
X144170316Y-143623255D01*
X144108134Y-143616500D01*
X143621366Y-143616500D01*
X143553245Y-143596498D01*
X143506752Y-143542842D01*
X143496648Y-143472568D01*
X143499660Y-143457888D01*
X143536690Y-143319692D01*
X143536692Y-143319681D01*
X143538115Y-143314371D01*
X143557307Y-143095000D01*
X143538115Y-142875629D01*
X143481120Y-142662924D01*
X143432492Y-142558641D01*
X143390382Y-142468334D01*
X143390379Y-142468329D01*
X143388056Y-142463347D01*
X143374433Y-142443891D01*
X143264908Y-142287473D01*
X143264906Y-142287470D01*
X143261749Y-142282962D01*
X143106038Y-142127251D01*
X143097363Y-142121176D01*
X143012429Y-142061705D01*
X142925654Y-142000944D01*
X142726076Y-141907880D01*
X142513371Y-141850885D01*
X142294000Y-141831693D01*
X142074629Y-141850885D01*
X141861924Y-141907880D01*
X141776369Y-141947775D01*
X141667334Y-141998618D01*
X141667329Y-141998621D01*
X141662347Y-142000944D01*
X141657840Y-142004100D01*
X141657838Y-142004101D01*
X141486473Y-142124092D01*
X141486470Y-142124094D01*
X141481962Y-142127251D01*
X141367095Y-142242118D01*
X141304783Y-142276144D01*
X141233968Y-142271079D01*
X141188905Y-142242118D01*
X141074038Y-142127251D01*
X141065363Y-142121176D01*
X140980429Y-142061705D01*
X140893654Y-142000944D01*
X140694076Y-141907880D01*
X140481371Y-141850885D01*
X140262000Y-141831693D01*
X140042629Y-141850885D01*
X139829924Y-141907880D01*
X139744369Y-141947775D01*
X139635334Y-141998618D01*
X139635329Y-141998621D01*
X139630347Y-142000944D01*
X139625840Y-142004100D01*
X139625838Y-142004101D01*
X139454473Y-142124092D01*
X139454470Y-142124094D01*
X139449962Y-142127251D01*
X139335095Y-142242118D01*
X139272783Y-142276144D01*
X139201968Y-142271079D01*
X139156905Y-142242118D01*
X139042038Y-142127251D01*
X139033363Y-142121176D01*
X138948429Y-142061705D01*
X138861654Y-142000944D01*
X138662076Y-141907880D01*
X138449371Y-141850885D01*
X138411765Y-141847595D01*
X138244121Y-141832928D01*
X138178003Y-141807064D01*
X138136364Y-141749561D01*
X138132423Y-141678674D01*
X138161465Y-141623100D01*
X138239040Y-141536944D01*
X138317581Y-141400908D01*
X138331223Y-141377279D01*
X138331224Y-141377278D01*
X138334527Y-141371556D01*
X138393542Y-141189928D01*
X138400550Y-141123256D01*
X138412814Y-141006565D01*
X138413504Y-141000000D01*
X138406838Y-140936574D01*
X138394232Y-140816635D01*
X138394232Y-140816633D01*
X138393542Y-140810072D01*
X138334527Y-140628444D01*
X138319028Y-140601598D01*
X138249458Y-140481101D01*
X138239040Y-140463056D01*
X138209277Y-140430000D01*
X153511693Y-140430000D01*
X153530885Y-140649371D01*
X153587880Y-140862076D01*
X153619916Y-140930777D01*
X153678618Y-141056666D01*
X153678621Y-141056671D01*
X153680944Y-141061653D01*
X153684100Y-141066160D01*
X153684101Y-141066162D01*
X153786138Y-141211885D01*
X153807251Y-141242038D01*
X153962962Y-141397749D01*
X153967471Y-141400906D01*
X153967473Y-141400908D01*
X153983644Y-141412231D01*
X154143346Y-141524056D01*
X154342924Y-141617120D01*
X154555629Y-141674115D01*
X154775000Y-141693307D01*
X154994371Y-141674115D01*
X155207076Y-141617120D01*
X155406654Y-141524056D01*
X155566356Y-141412231D01*
X155582527Y-141400908D01*
X155582529Y-141400906D01*
X155587038Y-141397749D01*
X155742749Y-141242038D01*
X155763863Y-141211885D01*
X155865899Y-141066162D01*
X155865900Y-141066160D01*
X155869056Y-141061653D01*
X155871379Y-141056671D01*
X155871382Y-141056666D01*
X155930084Y-140930777D01*
X155962120Y-140862076D01*
X156019115Y-140649371D01*
X156038307Y-140430000D01*
X156019115Y-140210629D01*
X155962120Y-139997924D01*
X155911227Y-139888784D01*
X155871382Y-139803334D01*
X155871379Y-139803329D01*
X155869056Y-139798347D01*
X155840893Y-139758126D01*
X155745908Y-139622473D01*
X155745906Y-139622470D01*
X155742749Y-139617962D01*
X155587038Y-139462251D01*
X155572670Y-139452190D01*
X155481301Y-139388213D01*
X155436973Y-139332756D01*
X155429664Y-139262136D01*
X155461695Y-139198776D01*
X155481301Y-139181787D01*
X155582527Y-139110908D01*
X155582529Y-139110906D01*
X155587038Y-139107749D01*
X155742749Y-138952038D01*
X155758416Y-138929664D01*
X155865899Y-138776162D01*
X155865900Y-138776160D01*
X155869056Y-138771653D01*
X155871379Y-138766671D01*
X155871382Y-138766666D01*
X155959795Y-138577061D01*
X155962120Y-138572076D01*
X156019115Y-138359371D01*
X156038307Y-138140000D01*
X156019115Y-137920629D01*
X155962120Y-137707924D01*
X155884384Y-137541218D01*
X155871382Y-137513334D01*
X155871379Y-137513329D01*
X155869056Y-137508347D01*
X155837277Y-137462962D01*
X155745908Y-137332473D01*
X155745906Y-137332470D01*
X155742749Y-137327962D01*
X155587038Y-137172251D01*
X155579184Y-137166751D01*
X155464512Y-137086457D01*
X155406654Y-137045944D01*
X155207076Y-136952880D01*
X154994371Y-136895885D01*
X154775000Y-136876693D01*
X154555629Y-136895885D01*
X154342924Y-136952880D01*
X154261167Y-136991004D01*
X154148334Y-137043618D01*
X154148329Y-137043621D01*
X154143347Y-137045944D01*
X154138840Y-137049100D01*
X154138838Y-137049101D01*
X153967473Y-137169092D01*
X153967470Y-137169094D01*
X153962962Y-137172251D01*
X153807251Y-137327962D01*
X153804094Y-137332470D01*
X153804092Y-137332473D01*
X153712723Y-137462962D01*
X153680944Y-137508347D01*
X153678621Y-137513329D01*
X153678618Y-137513334D01*
X153665616Y-137541218D01*
X153587880Y-137707924D01*
X153530885Y-137920629D01*
X153511693Y-138140000D01*
X153530885Y-138359371D01*
X153587880Y-138572076D01*
X153590205Y-138577061D01*
X153678618Y-138766666D01*
X153678621Y-138766671D01*
X153680944Y-138771653D01*
X153684100Y-138776160D01*
X153684101Y-138776162D01*
X153791585Y-138929664D01*
X153807251Y-138952038D01*
X153962962Y-139107749D01*
X153967471Y-139110906D01*
X153967473Y-139110908D01*
X154068699Y-139181787D01*
X154113027Y-139237244D01*
X154120336Y-139307864D01*
X154088305Y-139371224D01*
X154068699Y-139388213D01*
X153967473Y-139459092D01*
X153967470Y-139459094D01*
X153962962Y-139462251D01*
X153807251Y-139617962D01*
X153804094Y-139622470D01*
X153804092Y-139622473D01*
X153709107Y-139758126D01*
X153680944Y-139798347D01*
X153678621Y-139803329D01*
X153678618Y-139803334D01*
X153638773Y-139888784D01*
X153587880Y-139997924D01*
X153530885Y-140210629D01*
X153511693Y-140430000D01*
X138209277Y-140430000D01*
X138198997Y-140418583D01*
X138115675Y-140326045D01*
X138115674Y-140326044D01*
X138111253Y-140321134D01*
X137956752Y-140208882D01*
X137950724Y-140206198D01*
X137950722Y-140206197D01*
X137788319Y-140133891D01*
X137788318Y-140133891D01*
X137782288Y-140131206D01*
X137676599Y-140108741D01*
X137601944Y-140092872D01*
X137601939Y-140092872D01*
X137595487Y-140091500D01*
X137404513Y-140091500D01*
X137398061Y-140092872D01*
X137398056Y-140092872D01*
X137323401Y-140108741D01*
X137217712Y-140131206D01*
X137211682Y-140133891D01*
X137211681Y-140133891D01*
X137049278Y-140206197D01*
X137049276Y-140206198D01*
X137043248Y-140208882D01*
X136888747Y-140321134D01*
X136884326Y-140326044D01*
X136884325Y-140326045D01*
X136801004Y-140418583D01*
X136760960Y-140463056D01*
X136750542Y-140481101D01*
X136680973Y-140601598D01*
X136665473Y-140628444D01*
X136606458Y-140810072D01*
X136605768Y-140816633D01*
X136605768Y-140816635D01*
X136593162Y-140936574D01*
X136586496Y-141000000D01*
X136587186Y-141006565D01*
X136599451Y-141123256D01*
X136606458Y-141189928D01*
X136665473Y-141371556D01*
X136668776Y-141377278D01*
X136668777Y-141377279D01*
X136682419Y-141400908D01*
X136760960Y-141536944D01*
X136765375Y-141541847D01*
X136765379Y-141541852D01*
X136843347Y-141628444D01*
X136888747Y-141678866D01*
X136949648Y-141723113D01*
X137027032Y-141779336D01*
X137043248Y-141791118D01*
X137049276Y-141793802D01*
X137049278Y-141793803D01*
X137209799Y-141865271D01*
X137217712Y-141868794D01*
X137338421Y-141894452D01*
X137371152Y-141901409D01*
X137433626Y-141935138D01*
X137467947Y-141997287D01*
X137463219Y-142068126D01*
X137425948Y-142121176D01*
X137422471Y-142124094D01*
X137417962Y-142127251D01*
X137303095Y-142242118D01*
X137240783Y-142276144D01*
X137169968Y-142271079D01*
X137124905Y-142242118D01*
X137010038Y-142127251D01*
X137001363Y-142121176D01*
X136916429Y-142061705D01*
X136829654Y-142000944D01*
X136630076Y-141907880D01*
X136417371Y-141850885D01*
X136198000Y-141831693D01*
X135978629Y-141850885D01*
X135765924Y-141907880D01*
X135640035Y-141966583D01*
X135569843Y-141977244D01*
X135557033Y-141971516D01*
X135557002Y-141974730D01*
X135518051Y-142034088D01*
X135508722Y-142041294D01*
X135492815Y-142052432D01*
X135390473Y-142124092D01*
X135390470Y-142124094D01*
X135385962Y-142127251D01*
X135230251Y-142282962D01*
X135227094Y-142287470D01*
X135227092Y-142287473D01*
X135117567Y-142443891D01*
X135103944Y-142463347D01*
X135101621Y-142468329D01*
X135101618Y-142468334D01*
X135059508Y-142558641D01*
X135010880Y-142662924D01*
X134953885Y-142875629D01*
X134934693Y-143095000D01*
X134953885Y-143314371D01*
X135010880Y-143527076D01*
X135027028Y-143561705D01*
X135101618Y-143721666D01*
X135101621Y-143721671D01*
X135103944Y-143726653D01*
X135107100Y-143731160D01*
X135107101Y-143731162D01*
X135198249Y-143861334D01*
X135230251Y-143907038D01*
X135385962Y-144062749D01*
X135390471Y-144065906D01*
X135390473Y-144065908D01*
X135450818Y-144108162D01*
X135566346Y-144189056D01*
X135765924Y-144282120D01*
X135771236Y-144283543D01*
X135771235Y-144283543D01*
X135927893Y-144325520D01*
X135988515Y-144362472D01*
X136019537Y-144426333D01*
X136016988Y-144479838D01*
X135971308Y-144650316D01*
X135971307Y-144650323D01*
X135969885Y-144655629D01*
X135950693Y-144875000D01*
X135969885Y-145094371D01*
X136026880Y-145307076D01*
X136036491Y-145327687D01*
X136117618Y-145501666D01*
X136117621Y-145501671D01*
X136119944Y-145506653D01*
X136123100Y-145511160D01*
X136123101Y-145511162D01*
X136225075Y-145656795D01*
X136246251Y-145687038D01*
X136268595Y-145709382D01*
X136302621Y-145771694D01*
X136305500Y-145798477D01*
X136305500Y-147857497D01*
X136285498Y-147925618D01*
X136268595Y-147946592D01*
X135160592Y-149054595D01*
X135098280Y-149088621D01*
X135071497Y-149091500D01*
X135050006Y-149091500D01*
X134981885Y-149071498D01*
X134935392Y-149017842D01*
X134925288Y-148947568D01*
X134957872Y-148879838D01*
X134958888Y-148878894D01*
X135143139Y-148653784D01*
X135295133Y-148405752D01*
X135303869Y-148385852D01*
X135379086Y-148214501D01*
X135412059Y-148139386D01*
X135418073Y-148118276D01*
X135439842Y-148041855D01*
X135491754Y-147859616D01*
X135493302Y-147848745D01*
X135532137Y-147575870D01*
X135532742Y-147571619D01*
X135533576Y-147412409D01*
X135534243Y-147285009D01*
X135534243Y-147285003D01*
X135534265Y-147280723D01*
X135496295Y-146992313D01*
X135485288Y-146952076D01*
X135420667Y-146715862D01*
X135419535Y-146711724D01*
X135366629Y-146587687D01*
X135307090Y-146448100D01*
X135307088Y-146448096D01*
X135305404Y-146444148D01*
X135156015Y-146194538D01*
X135152436Y-146190070D01*
X134976823Y-145970869D01*
X134974133Y-145967511D01*
X134798620Y-145800955D01*
X134766231Y-145770219D01*
X134766228Y-145770217D01*
X134763122Y-145767269D01*
X134526887Y-145597517D01*
X134355274Y-145506653D01*
X134273587Y-145463402D01*
X134273586Y-145463401D01*
X134269800Y-145461397D01*
X134265777Y-145459925D01*
X134265773Y-145459923D01*
X134000649Y-145362901D01*
X134000647Y-145362900D01*
X133996618Y-145361426D01*
X133712396Y-145299456D01*
X133662474Y-145295527D01*
X133486703Y-145281693D01*
X133486696Y-145281693D01*
X133484247Y-145281500D01*
X133326879Y-145281500D01*
X133324743Y-145281646D01*
X133324732Y-145281646D01*
X133114051Y-145296009D01*
X133114045Y-145296010D01*
X133109774Y-145296301D01*
X133105579Y-145297170D01*
X133105577Y-145297170D01*
X133090130Y-145300369D01*
X132949374Y-145329518D01*
X132878614Y-145323746D01*
X132822206Y-145280633D01*
X132798061Y-145213868D01*
X132813846Y-145144648D01*
X132828012Y-145124306D01*
X132831986Y-145119653D01*
X132965903Y-144962856D01*
X133102303Y-144740271D01*
X133113732Y-144712681D01*
X133200310Y-144503662D01*
X133200311Y-144503660D01*
X133202204Y-144499089D01*
X133253834Y-144284038D01*
X133261991Y-144250062D01*
X133261992Y-144250056D01*
X133263146Y-144245249D01*
X133283628Y-143985000D01*
X133263146Y-143724751D01*
X133261992Y-143719944D01*
X133261991Y-143719938D01*
X133214413Y-143521765D01*
X133202204Y-143470911D01*
X133195895Y-143455680D01*
X133104198Y-143234303D01*
X133104196Y-143234299D01*
X133102303Y-143229729D01*
X132965903Y-143007144D01*
X132796363Y-142808637D01*
X132597856Y-142639097D01*
X132375271Y-142502697D01*
X132370701Y-142500804D01*
X132370697Y-142500802D01*
X132138662Y-142404690D01*
X132138660Y-142404689D01*
X132134089Y-142402796D01*
X132003966Y-142371556D01*
X131885062Y-142343009D01*
X131885056Y-142343008D01*
X131880249Y-142341854D01*
X131620000Y-142321372D01*
X131359751Y-142341854D01*
X131354944Y-142343008D01*
X131354938Y-142343009D01*
X131236034Y-142371556D01*
X131105911Y-142402796D01*
X131101340Y-142404689D01*
X131101338Y-142404690D01*
X130869303Y-142500802D01*
X130869299Y-142500804D01*
X130864729Y-142502697D01*
X130642144Y-142639097D01*
X130443637Y-142808637D01*
X130274097Y-143007144D01*
X130137697Y-143229729D01*
X130135804Y-143234299D01*
X130135802Y-143234303D01*
X130044105Y-143455680D01*
X130037796Y-143470911D01*
X130025587Y-143521765D01*
X129978009Y-143719938D01*
X129978008Y-143719944D01*
X129976854Y-143724751D01*
X129956372Y-143985000D01*
X129976854Y-144245249D01*
X129978008Y-144250056D01*
X129978009Y-144250062D01*
X129986166Y-144284038D01*
X130037796Y-144499089D01*
X130039689Y-144503660D01*
X130039690Y-144503662D01*
X130126269Y-144712681D01*
X130137697Y-144740271D01*
X130274097Y-144962856D01*
X130443637Y-145161363D01*
X130642144Y-145330903D01*
X130864729Y-145467303D01*
X130869299Y-145469196D01*
X130869303Y-145469198D01*
X131069811Y-145552251D01*
X131105911Y-145567204D01*
X131183435Y-145585816D01*
X131354938Y-145626991D01*
X131354944Y-145626992D01*
X131359751Y-145628146D01*
X131620000Y-145648628D01*
X131856488Y-145630016D01*
X131925968Y-145644612D01*
X131976528Y-145694455D01*
X131992114Y-145763719D01*
X131967779Y-145830415D01*
X131952151Y-145847922D01*
X131841112Y-145951106D01*
X131838398Y-145954422D01*
X131838395Y-145954425D01*
X131752151Y-146059795D01*
X131656861Y-146176216D01*
X131504867Y-146424248D01*
X131503148Y-146428165D01*
X131503146Y-146428168D01*
X131465238Y-146514525D01*
X131387941Y-146690614D01*
X131386765Y-146694742D01*
X131386764Y-146694745D01*
X131362218Y-146780913D01*
X131308246Y-146970384D01*
X131307642Y-146974626D01*
X131307641Y-146974632D01*
X131282124Y-147153928D01*
X131267258Y-147258381D01*
X131266854Y-147335556D01*
X131265805Y-147536000D01*
X131265735Y-147549277D01*
X131266294Y-147553521D01*
X131266294Y-147553525D01*
X131279849Y-147656486D01*
X131303705Y-147837687D01*
X131304838Y-147841827D01*
X131304838Y-147841829D01*
X131323402Y-147909687D01*
X131380465Y-148118276D01*
X131382149Y-148122224D01*
X131482422Y-148357310D01*
X131494596Y-148385852D01*
X131643985Y-148635462D01*
X131646669Y-148638813D01*
X131646671Y-148638815D01*
X131718956Y-148729042D01*
X131825867Y-148862489D01*
X131838105Y-148874102D01*
X131873750Y-148935501D01*
X131870542Y-149006425D01*
X131829498Y-149064356D01*
X131763651Y-149090900D01*
X131751373Y-149091500D01*
X123875006Y-149091500D01*
X123806885Y-149071498D01*
X123760392Y-149017842D01*
X123750288Y-148947568D01*
X123782872Y-148879838D01*
X123783888Y-148878894D01*
X123968139Y-148653784D01*
X124120133Y-148405752D01*
X124128869Y-148385852D01*
X124204086Y-148214501D01*
X124237059Y-148139386D01*
X124243073Y-148118276D01*
X124264842Y-148041855D01*
X124316754Y-147859616D01*
X124318302Y-147848745D01*
X124357137Y-147575870D01*
X124357742Y-147571619D01*
X124358576Y-147412409D01*
X124359243Y-147285009D01*
X124359243Y-147285003D01*
X124359265Y-147280723D01*
X124321295Y-146992313D01*
X124310288Y-146952076D01*
X124245667Y-146715862D01*
X124244535Y-146711724D01*
X124191629Y-146587687D01*
X124132090Y-146448100D01*
X124132088Y-146448096D01*
X124130404Y-146444148D01*
X123981015Y-146194538D01*
X123977436Y-146190070D01*
X123801823Y-145970869D01*
X123799133Y-145967511D01*
X123796016Y-145964553D01*
X123796009Y-145964545D01*
X123672193Y-145847049D01*
X123636548Y-145785649D01*
X123639757Y-145714725D01*
X123680801Y-145656795D01*
X123746649Y-145630251D01*
X123768811Y-145630040D01*
X124000070Y-145648240D01*
X124005000Y-145648628D01*
X124265249Y-145628146D01*
X124270056Y-145626992D01*
X124270062Y-145626991D01*
X124441565Y-145585816D01*
X124519089Y-145567204D01*
X124555189Y-145552251D01*
X124755697Y-145469198D01*
X124755701Y-145469196D01*
X124760271Y-145467303D01*
X124982856Y-145330903D01*
X125181363Y-145161363D01*
X125350903Y-144962856D01*
X125487303Y-144740271D01*
X125498732Y-144712681D01*
X125585310Y-144503662D01*
X125585311Y-144503660D01*
X125587204Y-144499089D01*
X125638834Y-144284038D01*
X125646991Y-144250062D01*
X125646992Y-144250056D01*
X125648146Y-144245249D01*
X125668628Y-143985000D01*
X125648146Y-143724751D01*
X125646992Y-143719944D01*
X125646991Y-143719938D01*
X125599413Y-143521765D01*
X125587204Y-143470911D01*
X125580895Y-143455680D01*
X125489198Y-143234303D01*
X125489196Y-143234299D01*
X125487303Y-143229729D01*
X125350903Y-143007144D01*
X125181363Y-142808637D01*
X124982856Y-142639097D01*
X124760271Y-142502697D01*
X124755701Y-142500804D01*
X124755697Y-142500802D01*
X124523662Y-142404690D01*
X124523660Y-142404689D01*
X124519089Y-142402796D01*
X124388966Y-142371556D01*
X124270062Y-142343009D01*
X124270056Y-142343008D01*
X124265249Y-142341854D01*
X124005000Y-142321372D01*
X123744751Y-142341854D01*
X123739944Y-142343008D01*
X123739938Y-142343009D01*
X123621034Y-142371556D01*
X123490911Y-142402796D01*
X123486340Y-142404689D01*
X123486338Y-142404690D01*
X123254303Y-142500802D01*
X123254299Y-142500804D01*
X123249729Y-142502697D01*
X123027144Y-142639097D01*
X122828637Y-142808637D01*
X122659097Y-143007144D01*
X122522697Y-143229729D01*
X122520804Y-143234299D01*
X122520802Y-143234303D01*
X122429105Y-143455680D01*
X122422796Y-143470911D01*
X122410587Y-143521765D01*
X122363009Y-143719938D01*
X122363008Y-143719944D01*
X122361854Y-143724751D01*
X122341372Y-143985000D01*
X122361854Y-144245249D01*
X122363008Y-144250056D01*
X122363009Y-144250062D01*
X122371166Y-144284038D01*
X122422796Y-144499089D01*
X122424689Y-144503660D01*
X122424690Y-144503662D01*
X122511269Y-144712681D01*
X122522697Y-144740271D01*
X122659097Y-144962856D01*
X122662313Y-144966621D01*
X122797060Y-145124391D01*
X122826091Y-145189181D01*
X122815486Y-145259381D01*
X122768611Y-145312703D01*
X122700349Y-145332218D01*
X122674407Y-145329329D01*
X122604211Y-145314024D01*
X122537396Y-145299456D01*
X122487474Y-145295527D01*
X122311703Y-145281693D01*
X122311696Y-145281693D01*
X122309247Y-145281500D01*
X122151879Y-145281500D01*
X122149743Y-145281646D01*
X122149732Y-145281646D01*
X121939051Y-145296009D01*
X121939045Y-145296010D01*
X121934774Y-145296301D01*
X121930579Y-145297170D01*
X121930577Y-145297170D01*
X121858671Y-145312061D01*
X121649919Y-145355291D01*
X121375705Y-145452395D01*
X121371896Y-145454361D01*
X121156937Y-145565310D01*
X121117207Y-145585816D01*
X121113706Y-145588277D01*
X121113702Y-145588279D01*
X120891951Y-145744129D01*
X120824717Y-145766934D01*
X120755826Y-145749769D01*
X120707152Y-145698085D01*
X120693500Y-145641042D01*
X120693500Y-144076866D01*
X120686745Y-144014684D01*
X120635615Y-143878295D01*
X120548261Y-143761739D01*
X120431705Y-143674385D01*
X120295316Y-143623255D01*
X120233134Y-143616500D01*
X119746366Y-143616500D01*
X119678245Y-143596498D01*
X119631752Y-143542842D01*
X119621648Y-143472568D01*
X119624660Y-143457888D01*
X119661690Y-143319692D01*
X119661692Y-143319681D01*
X119663115Y-143314371D01*
X119682307Y-143095000D01*
X119663115Y-142875629D01*
X119606120Y-142662924D01*
X119557492Y-142558641D01*
X119515382Y-142468334D01*
X119515379Y-142468329D01*
X119513056Y-142463347D01*
X119499433Y-142443891D01*
X119389908Y-142287473D01*
X119389906Y-142287470D01*
X119386749Y-142282962D01*
X119231038Y-142127251D01*
X119222363Y-142121176D01*
X119137429Y-142061705D01*
X119050654Y-142000944D01*
X118851076Y-141907880D01*
X118638371Y-141850885D01*
X118419000Y-141831693D01*
X118199629Y-141850885D01*
X117986924Y-141907880D01*
X117901369Y-141947775D01*
X117792334Y-141998618D01*
X117792329Y-141998621D01*
X117787347Y-142000944D01*
X117782840Y-142004100D01*
X117782838Y-142004101D01*
X117611473Y-142124092D01*
X117611470Y-142124094D01*
X117606962Y-142127251D01*
X117492095Y-142242118D01*
X117429783Y-142276144D01*
X117358968Y-142271079D01*
X117313905Y-142242118D01*
X117199038Y-142127251D01*
X117190363Y-142121176D01*
X117105429Y-142061705D01*
X117018654Y-142000944D01*
X116819076Y-141907880D01*
X116606371Y-141850885D01*
X116387000Y-141831693D01*
X116167629Y-141850885D01*
X115954924Y-141907880D01*
X115869369Y-141947775D01*
X115760334Y-141998618D01*
X115760329Y-141998621D01*
X115755347Y-142000944D01*
X115750840Y-142004100D01*
X115750838Y-142004101D01*
X115579473Y-142124092D01*
X115579470Y-142124094D01*
X115574962Y-142127251D01*
X115460095Y-142242118D01*
X115397783Y-142276144D01*
X115326968Y-142271079D01*
X115281905Y-142242118D01*
X115167038Y-142127251D01*
X115158363Y-142121176D01*
X115073429Y-142061705D01*
X114986654Y-142000944D01*
X114787076Y-141907880D01*
X114574371Y-141850885D01*
X114355000Y-141831693D01*
X114349525Y-141832172D01*
X114259689Y-141840031D01*
X114190084Y-141826041D01*
X114139092Y-141776642D01*
X114122902Y-141707516D01*
X114146655Y-141640610D01*
X114155072Y-141630200D01*
X114234621Y-141541852D01*
X114234625Y-141541847D01*
X114239040Y-141536944D01*
X114317581Y-141400908D01*
X114331223Y-141377279D01*
X114331224Y-141377278D01*
X114334527Y-141371556D01*
X114393542Y-141189928D01*
X114400550Y-141123256D01*
X114412814Y-141006565D01*
X114413504Y-141000000D01*
X134086496Y-141000000D01*
X134087186Y-141006565D01*
X134099451Y-141123256D01*
X134106458Y-141189928D01*
X134165473Y-141371556D01*
X134168776Y-141377278D01*
X134168777Y-141377279D01*
X134182419Y-141400908D01*
X134260960Y-141536944D01*
X134265375Y-141541847D01*
X134265379Y-141541852D01*
X134343347Y-141628444D01*
X134388747Y-141678866D01*
X134449648Y-141723113D01*
X134527032Y-141779336D01*
X134543248Y-141791118D01*
X134549276Y-141793802D01*
X134549278Y-141793803D01*
X134709799Y-141865271D01*
X134717712Y-141868794D01*
X134811112Y-141888647D01*
X134898056Y-141907128D01*
X134898061Y-141907128D01*
X134904513Y-141908500D01*
X135095487Y-141908500D01*
X135101939Y-141907128D01*
X135101944Y-141907128D01*
X135188888Y-141888647D01*
X135282288Y-141868794D01*
X135288315Y-141866111D01*
X135288323Y-141866108D01*
X135385201Y-141822975D01*
X135455568Y-141813541D01*
X135465614Y-141818245D01*
X135465611Y-141817850D01*
X135503520Y-141757821D01*
X135512724Y-141750452D01*
X135571820Y-141707516D01*
X135611253Y-141678866D01*
X135656653Y-141628444D01*
X135734621Y-141541852D01*
X135734625Y-141541847D01*
X135739040Y-141536944D01*
X135817581Y-141400908D01*
X135831223Y-141377279D01*
X135831224Y-141377278D01*
X135834527Y-141371556D01*
X135893542Y-141189928D01*
X135900550Y-141123256D01*
X135912814Y-141006565D01*
X135913504Y-141000000D01*
X135906838Y-140936574D01*
X135894232Y-140816635D01*
X135894232Y-140816633D01*
X135893542Y-140810072D01*
X135834527Y-140628444D01*
X135819028Y-140601598D01*
X135749458Y-140481101D01*
X135739040Y-140463056D01*
X135698997Y-140418583D01*
X135615675Y-140326045D01*
X135615674Y-140326044D01*
X135611253Y-140321134D01*
X135456752Y-140208882D01*
X135450724Y-140206198D01*
X135450722Y-140206197D01*
X135288319Y-140133891D01*
X135288318Y-140133891D01*
X135282288Y-140131206D01*
X135176599Y-140108741D01*
X135101944Y-140092872D01*
X135101939Y-140092872D01*
X135095487Y-140091500D01*
X134904513Y-140091500D01*
X134898061Y-140092872D01*
X134898056Y-140092872D01*
X134823401Y-140108741D01*
X134717712Y-140131206D01*
X134711682Y-140133891D01*
X134711681Y-140133891D01*
X134549278Y-140206197D01*
X134549276Y-140206198D01*
X134543248Y-140208882D01*
X134388747Y-140321134D01*
X134384326Y-140326044D01*
X134384325Y-140326045D01*
X134301004Y-140418583D01*
X134260960Y-140463056D01*
X134250542Y-140481101D01*
X134180973Y-140601598D01*
X134165473Y-140628444D01*
X134106458Y-140810072D01*
X134105768Y-140816633D01*
X134105768Y-140816635D01*
X134093162Y-140936574D01*
X134086496Y-141000000D01*
X114413504Y-141000000D01*
X114406838Y-140936574D01*
X114394232Y-140816635D01*
X114394232Y-140816633D01*
X114393542Y-140810072D01*
X114334527Y-140628444D01*
X114319028Y-140601598D01*
X114249458Y-140481101D01*
X114239040Y-140463056D01*
X114198997Y-140418583D01*
X114115675Y-140326045D01*
X114115674Y-140326044D01*
X114111253Y-140321134D01*
X113956752Y-140208882D01*
X113950724Y-140206198D01*
X113950722Y-140206197D01*
X113788319Y-140133891D01*
X113788318Y-140133891D01*
X113782288Y-140131206D01*
X113676599Y-140108741D01*
X113601944Y-140092872D01*
X113601939Y-140092872D01*
X113595487Y-140091500D01*
X113404513Y-140091500D01*
X113398061Y-140092872D01*
X113398056Y-140092872D01*
X113323401Y-140108741D01*
X113217712Y-140131206D01*
X113211682Y-140133891D01*
X113211681Y-140133891D01*
X113049278Y-140206197D01*
X113049276Y-140206198D01*
X113043248Y-140208882D01*
X112888747Y-140321134D01*
X112884326Y-140326044D01*
X112884325Y-140326045D01*
X112801004Y-140418583D01*
X112760960Y-140463056D01*
X112750542Y-140481101D01*
X112680973Y-140601598D01*
X112665473Y-140628444D01*
X112606458Y-140810072D01*
X112605768Y-140816633D01*
X112605768Y-140816635D01*
X112593162Y-140936574D01*
X112586496Y-141000000D01*
X112587186Y-141006565D01*
X112599451Y-141123256D01*
X112606458Y-141189928D01*
X112665473Y-141371556D01*
X112668776Y-141377278D01*
X112668777Y-141377279D01*
X112682419Y-141400908D01*
X112760960Y-141536944D01*
X112765375Y-141541847D01*
X112765379Y-141541852D01*
X112843347Y-141628444D01*
X112888747Y-141678866D01*
X112949648Y-141723113D01*
X112993001Y-141779336D01*
X112999076Y-141850072D01*
X112965944Y-141912864D01*
X112904124Y-141947775D01*
X112833243Y-141943721D01*
X112822343Y-141939247D01*
X112792614Y-141925384D01*
X112760061Y-141910204D01*
X112760056Y-141910202D01*
X112755076Y-141907880D01*
X112542371Y-141850885D01*
X112323000Y-141831693D01*
X112103629Y-141850885D01*
X111890924Y-141907880D01*
X111805369Y-141947775D01*
X111696334Y-141998618D01*
X111696329Y-141998621D01*
X111691347Y-142000944D01*
X111686840Y-142004100D01*
X111686838Y-142004101D01*
X111515473Y-142124092D01*
X111515470Y-142124094D01*
X111510962Y-142127251D01*
X111355251Y-142282962D01*
X111352094Y-142287470D01*
X111352092Y-142287473D01*
X111242567Y-142443891D01*
X111228944Y-142463347D01*
X111226621Y-142468329D01*
X111226618Y-142468334D01*
X111184508Y-142558641D01*
X111135880Y-142662924D01*
X111078885Y-142875629D01*
X111059693Y-143095000D01*
X111078885Y-143314371D01*
X111135880Y-143527076D01*
X111152028Y-143561705D01*
X111226618Y-143721666D01*
X111226621Y-143721671D01*
X111228944Y-143726653D01*
X111232100Y-143731160D01*
X111232101Y-143731162D01*
X111323249Y-143861334D01*
X111355251Y-143907038D01*
X111510962Y-144062749D01*
X111515471Y-144065906D01*
X111515473Y-144065908D01*
X111575818Y-144108162D01*
X111691346Y-144189056D01*
X111890924Y-144282120D01*
X111896236Y-144283543D01*
X111896235Y-144283543D01*
X112052893Y-144325520D01*
X112113515Y-144362472D01*
X112144537Y-144426333D01*
X112141988Y-144479838D01*
X112096308Y-144650316D01*
X112096307Y-144650323D01*
X112094885Y-144655629D01*
X112075693Y-144875000D01*
X112094885Y-145094371D01*
X112151880Y-145307076D01*
X112161491Y-145327687D01*
X112242618Y-145501666D01*
X112242621Y-145501671D01*
X112244944Y-145506653D01*
X112248100Y-145511160D01*
X112248101Y-145511162D01*
X112350075Y-145656795D01*
X112371251Y-145687038D01*
X112393595Y-145709382D01*
X112427621Y-145771694D01*
X112430500Y-145798477D01*
X112430500Y-148232497D01*
X112410498Y-148300618D01*
X112393595Y-148321592D01*
X111660592Y-149054595D01*
X111598280Y-149088621D01*
X111571497Y-149091500D01*
X111175006Y-149091500D01*
X111106885Y-149071498D01*
X111060392Y-149017842D01*
X111050288Y-148947568D01*
X111082872Y-148879838D01*
X111083888Y-148878894D01*
X111268139Y-148653784D01*
X111420133Y-148405752D01*
X111428869Y-148385852D01*
X111504086Y-148214501D01*
X111537059Y-148139386D01*
X111543073Y-148118276D01*
X111564842Y-148041855D01*
X111616754Y-147859616D01*
X111618302Y-147848745D01*
X111657137Y-147575870D01*
X111657742Y-147571619D01*
X111658576Y-147412409D01*
X111659243Y-147285009D01*
X111659243Y-147285003D01*
X111659265Y-147280723D01*
X111621295Y-146992313D01*
X111610288Y-146952076D01*
X111545667Y-146715862D01*
X111544535Y-146711724D01*
X111491629Y-146587687D01*
X111432090Y-146448100D01*
X111432088Y-146448096D01*
X111430404Y-146444148D01*
X111281015Y-146194538D01*
X111277436Y-146190070D01*
X111101823Y-145970869D01*
X111099133Y-145967511D01*
X110923620Y-145800955D01*
X110891231Y-145770219D01*
X110891228Y-145770217D01*
X110888122Y-145767269D01*
X110651887Y-145597517D01*
X110480274Y-145506653D01*
X110398587Y-145463402D01*
X110398586Y-145463401D01*
X110394800Y-145461397D01*
X110390777Y-145459925D01*
X110390773Y-145459923D01*
X110125649Y-145362901D01*
X110125647Y-145362900D01*
X110121618Y-145361426D01*
X109837396Y-145299456D01*
X109787474Y-145295527D01*
X109611703Y-145281693D01*
X109611696Y-145281693D01*
X109609247Y-145281500D01*
X109451879Y-145281500D01*
X109449743Y-145281646D01*
X109449732Y-145281646D01*
X109239051Y-145296009D01*
X109239045Y-145296010D01*
X109234774Y-145296301D01*
X109230579Y-145297170D01*
X109230577Y-145297170D01*
X109215130Y-145300369D01*
X109074374Y-145329518D01*
X109003614Y-145323746D01*
X108947206Y-145280633D01*
X108923061Y-145213868D01*
X108938846Y-145144648D01*
X108953012Y-145124306D01*
X108956986Y-145119653D01*
X109090903Y-144962856D01*
X109227303Y-144740271D01*
X109238732Y-144712681D01*
X109325310Y-144503662D01*
X109325311Y-144503660D01*
X109327204Y-144499089D01*
X109378834Y-144284038D01*
X109386991Y-144250062D01*
X109386992Y-144250056D01*
X109388146Y-144245249D01*
X109408628Y-143985000D01*
X109388146Y-143724751D01*
X109386992Y-143719944D01*
X109386991Y-143719938D01*
X109339413Y-143521765D01*
X109327204Y-143470911D01*
X109320895Y-143455680D01*
X109229198Y-143234303D01*
X109229196Y-143234299D01*
X109227303Y-143229729D01*
X109090903Y-143007144D01*
X108921363Y-142808637D01*
X108722856Y-142639097D01*
X108500271Y-142502697D01*
X108495701Y-142500804D01*
X108495697Y-142500802D01*
X108263662Y-142404690D01*
X108263660Y-142404689D01*
X108259089Y-142402796D01*
X108128966Y-142371556D01*
X108010062Y-142343009D01*
X108010056Y-142343008D01*
X108005249Y-142341854D01*
X107745000Y-142321372D01*
X107484751Y-142341854D01*
X107479944Y-142343008D01*
X107479938Y-142343009D01*
X107361034Y-142371556D01*
X107230911Y-142402796D01*
X107226340Y-142404689D01*
X107226338Y-142404690D01*
X106994303Y-142500802D01*
X106994299Y-142500804D01*
X106989729Y-142502697D01*
X106767144Y-142639097D01*
X106568637Y-142808637D01*
X106399097Y-143007144D01*
X106262697Y-143229729D01*
X106260804Y-143234299D01*
X106260802Y-143234303D01*
X106169105Y-143455680D01*
X106162796Y-143470911D01*
X106150587Y-143521765D01*
X106103009Y-143719938D01*
X106103008Y-143719944D01*
X106101854Y-143724751D01*
X106081372Y-143985000D01*
X106101854Y-144245249D01*
X106103008Y-144250056D01*
X106103009Y-144250062D01*
X106111166Y-144284038D01*
X106162796Y-144499089D01*
X106164689Y-144503660D01*
X106164690Y-144503662D01*
X106251269Y-144712681D01*
X106262697Y-144740271D01*
X106399097Y-144962856D01*
X106568637Y-145161363D01*
X106767144Y-145330903D01*
X106989729Y-145467303D01*
X106994299Y-145469196D01*
X106994303Y-145469198D01*
X107194811Y-145552251D01*
X107230911Y-145567204D01*
X107308435Y-145585816D01*
X107479938Y-145626991D01*
X107479944Y-145626992D01*
X107484751Y-145628146D01*
X107745000Y-145648628D01*
X107981488Y-145630016D01*
X108050968Y-145644612D01*
X108101528Y-145694455D01*
X108117114Y-145763719D01*
X108092779Y-145830415D01*
X108077151Y-145847922D01*
X107966112Y-145951106D01*
X107963398Y-145954422D01*
X107963395Y-145954425D01*
X107877151Y-146059795D01*
X107781861Y-146176216D01*
X107629867Y-146424248D01*
X107628148Y-146428165D01*
X107628146Y-146428168D01*
X107590238Y-146514525D01*
X107512941Y-146690614D01*
X107511765Y-146694742D01*
X107511764Y-146694745D01*
X107487218Y-146780913D01*
X107433246Y-146970384D01*
X107432642Y-146974626D01*
X107432641Y-146974632D01*
X107407124Y-147153928D01*
X107392258Y-147258381D01*
X107391854Y-147335556D01*
X107390805Y-147536000D01*
X107390735Y-147549277D01*
X107391294Y-147553521D01*
X107391294Y-147553525D01*
X107404849Y-147656486D01*
X107428705Y-147837687D01*
X107429838Y-147841827D01*
X107429838Y-147841829D01*
X107448402Y-147909687D01*
X107505465Y-148118276D01*
X107507149Y-148122224D01*
X107607422Y-148357310D01*
X107619596Y-148385852D01*
X107768985Y-148635462D01*
X107771669Y-148638813D01*
X107771671Y-148638815D01*
X107843956Y-148729042D01*
X107950867Y-148862489D01*
X107963105Y-148874102D01*
X107998750Y-148935501D01*
X107995542Y-149006425D01*
X107954498Y-149064356D01*
X107888651Y-149090900D01*
X107876373Y-149091500D01*
X100000006Y-149091500D01*
X99931885Y-149071498D01*
X99885392Y-149017842D01*
X99875288Y-148947568D01*
X99907872Y-148879838D01*
X99908888Y-148878894D01*
X100093139Y-148653784D01*
X100245133Y-148405752D01*
X100253869Y-148385852D01*
X100329086Y-148214501D01*
X100362059Y-148139386D01*
X100368073Y-148118276D01*
X100389842Y-148041855D01*
X100441754Y-147859616D01*
X100443302Y-147848745D01*
X100482137Y-147575870D01*
X100482742Y-147571619D01*
X100483576Y-147412409D01*
X100484243Y-147285009D01*
X100484243Y-147285003D01*
X100484265Y-147280723D01*
X100446295Y-146992313D01*
X100435288Y-146952076D01*
X100370667Y-146715862D01*
X100369535Y-146711724D01*
X100316629Y-146587687D01*
X100257090Y-146448100D01*
X100257088Y-146448096D01*
X100255404Y-146444148D01*
X100106015Y-146194538D01*
X100102436Y-146190070D01*
X99926823Y-145970869D01*
X99924133Y-145967511D01*
X99921016Y-145964553D01*
X99921009Y-145964545D01*
X99797193Y-145847049D01*
X99761548Y-145785649D01*
X99764757Y-145714725D01*
X99805801Y-145656795D01*
X99871649Y-145630251D01*
X99893811Y-145630040D01*
X100125070Y-145648240D01*
X100130000Y-145648628D01*
X100390249Y-145628146D01*
X100395056Y-145626992D01*
X100395062Y-145626991D01*
X100566565Y-145585816D01*
X100644089Y-145567204D01*
X100680189Y-145552251D01*
X100880697Y-145469198D01*
X100880701Y-145469196D01*
X100885271Y-145467303D01*
X101107856Y-145330903D01*
X101306363Y-145161363D01*
X101475903Y-144962856D01*
X101612303Y-144740271D01*
X101623732Y-144712681D01*
X101710310Y-144503662D01*
X101710311Y-144503660D01*
X101712204Y-144499089D01*
X101763834Y-144284038D01*
X101771991Y-144250062D01*
X101771992Y-144250056D01*
X101773146Y-144245249D01*
X101793628Y-143985000D01*
X101773146Y-143724751D01*
X101771992Y-143719944D01*
X101771991Y-143719938D01*
X101724413Y-143521765D01*
X101712204Y-143470911D01*
X101705895Y-143455680D01*
X101614198Y-143234303D01*
X101614196Y-143234299D01*
X101612303Y-143229729D01*
X101475903Y-143007144D01*
X101306363Y-142808637D01*
X101107856Y-142639097D01*
X100885271Y-142502697D01*
X100880701Y-142500804D01*
X100880697Y-142500802D01*
X100648662Y-142404690D01*
X100648660Y-142404689D01*
X100644089Y-142402796D01*
X100513966Y-142371556D01*
X100395062Y-142343009D01*
X100395056Y-142343008D01*
X100390249Y-142341854D01*
X100130000Y-142321372D01*
X99869751Y-142341854D01*
X99864944Y-142343008D01*
X99864938Y-142343009D01*
X99746034Y-142371556D01*
X99615911Y-142402796D01*
X99611340Y-142404689D01*
X99611338Y-142404690D01*
X99379303Y-142500802D01*
X99379299Y-142500804D01*
X99374729Y-142502697D01*
X99152144Y-142639097D01*
X98953637Y-142808637D01*
X98784097Y-143007144D01*
X98647697Y-143229729D01*
X98645804Y-143234299D01*
X98645802Y-143234303D01*
X98554105Y-143455680D01*
X98547796Y-143470911D01*
X98535587Y-143521765D01*
X98488009Y-143719938D01*
X98488008Y-143719944D01*
X98486854Y-143724751D01*
X98466372Y-143985000D01*
X98486854Y-144245249D01*
X98488008Y-144250056D01*
X98488009Y-144250062D01*
X98496166Y-144284038D01*
X98547796Y-144499089D01*
X98549689Y-144503660D01*
X98549690Y-144503662D01*
X98636269Y-144712681D01*
X98647697Y-144740271D01*
X98784097Y-144962856D01*
X98787313Y-144966621D01*
X98922060Y-145124391D01*
X98951091Y-145189181D01*
X98940486Y-145259381D01*
X98893611Y-145312703D01*
X98825349Y-145332218D01*
X98799407Y-145329329D01*
X98729211Y-145314024D01*
X98662396Y-145299456D01*
X98612474Y-145295527D01*
X98436703Y-145281693D01*
X98436696Y-145281693D01*
X98434247Y-145281500D01*
X98276879Y-145281500D01*
X98274743Y-145281646D01*
X98274732Y-145281646D01*
X98064051Y-145296009D01*
X98064045Y-145296010D01*
X98059774Y-145296301D01*
X98055579Y-145297170D01*
X98055577Y-145297170D01*
X97983671Y-145312061D01*
X97774919Y-145355291D01*
X97500705Y-145452395D01*
X97496896Y-145454361D01*
X97281937Y-145565310D01*
X97242207Y-145585816D01*
X97238706Y-145588277D01*
X97238702Y-145588279D01*
X97016951Y-145744129D01*
X96949717Y-145766934D01*
X96880826Y-145749769D01*
X96832152Y-145698085D01*
X96818500Y-145641042D01*
X96818500Y-144076866D01*
X96811745Y-144014684D01*
X96760615Y-143878295D01*
X96673261Y-143761739D01*
X96556705Y-143674385D01*
X96420316Y-143623255D01*
X96358134Y-143616500D01*
X95871366Y-143616500D01*
X95803245Y-143596498D01*
X95756752Y-143542842D01*
X95746648Y-143472568D01*
X95749660Y-143457888D01*
X95786690Y-143319692D01*
X95786692Y-143319681D01*
X95788115Y-143314371D01*
X95807307Y-143095000D01*
X95788115Y-142875629D01*
X95731120Y-142662924D01*
X95682492Y-142558641D01*
X95640382Y-142468334D01*
X95640379Y-142468329D01*
X95638056Y-142463347D01*
X95624433Y-142443891D01*
X95514908Y-142287473D01*
X95514906Y-142287470D01*
X95511749Y-142282962D01*
X95356038Y-142127251D01*
X95347363Y-142121176D01*
X95262429Y-142061705D01*
X95175654Y-142000944D01*
X94976076Y-141907880D01*
X94763371Y-141850885D01*
X94544000Y-141831693D01*
X94324629Y-141850885D01*
X94111924Y-141907880D01*
X94026369Y-141947775D01*
X93917334Y-141998618D01*
X93917329Y-141998621D01*
X93912347Y-142000944D01*
X93907840Y-142004100D01*
X93907838Y-142004101D01*
X93736473Y-142124092D01*
X93736470Y-142124094D01*
X93731962Y-142127251D01*
X93617095Y-142242118D01*
X93554783Y-142276144D01*
X93483968Y-142271079D01*
X93438905Y-142242118D01*
X93324038Y-142127251D01*
X93315363Y-142121176D01*
X93230429Y-142061705D01*
X93143654Y-142000944D01*
X92944076Y-141907880D01*
X92731371Y-141850885D01*
X92512000Y-141831693D01*
X92292629Y-141850885D01*
X92079924Y-141907880D01*
X91994369Y-141947775D01*
X91885334Y-141998618D01*
X91885329Y-141998621D01*
X91880347Y-142000944D01*
X91875840Y-142004100D01*
X91875838Y-142004101D01*
X91704473Y-142124092D01*
X91704470Y-142124094D01*
X91699962Y-142127251D01*
X91585095Y-142242118D01*
X91522783Y-142276144D01*
X91451968Y-142271079D01*
X91406905Y-142242118D01*
X91292038Y-142127251D01*
X91283363Y-142121176D01*
X91198429Y-142061705D01*
X91111654Y-142000944D01*
X90912076Y-141907880D01*
X90699371Y-141850885D01*
X90480000Y-141831693D01*
X90260629Y-141850885D01*
X90047924Y-141907880D01*
X89962369Y-141947775D01*
X89853334Y-141998618D01*
X89853329Y-141998621D01*
X89848347Y-142000944D01*
X89843840Y-142004100D01*
X89843838Y-142004101D01*
X89672473Y-142124092D01*
X89672470Y-142124094D01*
X89667962Y-142127251D01*
X89553095Y-142242118D01*
X89490783Y-142276144D01*
X89419968Y-142271079D01*
X89374905Y-142242118D01*
X89260038Y-142127251D01*
X89251363Y-142121176D01*
X89166429Y-142061705D01*
X89079654Y-142000944D01*
X88880076Y-141907880D01*
X88667371Y-141850885D01*
X88448000Y-141831693D01*
X88228629Y-141850885D01*
X88015924Y-141907880D01*
X87930369Y-141947775D01*
X87821334Y-141998618D01*
X87821329Y-141998621D01*
X87816347Y-142000944D01*
X87811840Y-142004100D01*
X87811838Y-142004101D01*
X87640473Y-142124092D01*
X87640470Y-142124094D01*
X87635962Y-142127251D01*
X87480251Y-142282962D01*
X87477094Y-142287470D01*
X87477092Y-142287473D01*
X87367567Y-142443891D01*
X87353944Y-142463347D01*
X87351621Y-142468329D01*
X87351618Y-142468334D01*
X87309508Y-142558641D01*
X87260880Y-142662924D01*
X87203885Y-142875629D01*
X87184693Y-143095000D01*
X87203885Y-143314371D01*
X87260880Y-143527076D01*
X87332083Y-143679771D01*
X87351186Y-143720738D01*
X87361847Y-143790930D01*
X87332867Y-143855742D01*
X87273447Y-143894599D01*
X87202453Y-143895162D01*
X87147896Y-143863083D01*
X86945405Y-143660592D01*
X86911379Y-143598280D01*
X86908500Y-143571497D01*
X86908500Y-142081417D01*
X86910051Y-142061705D01*
X86911220Y-142054325D01*
X86912252Y-142047810D01*
X86911001Y-142023924D01*
X86908673Y-141979520D01*
X86908500Y-141972926D01*
X86908500Y-141952390D01*
X86907292Y-141940894D01*
X86906353Y-141931958D01*
X86905836Y-141925384D01*
X86902603Y-141863696D01*
X86902603Y-141863694D01*
X86902257Y-141857097D01*
X86898615Y-141843504D01*
X86895014Y-141824075D01*
X86894898Y-141822975D01*
X86893542Y-141810072D01*
X86872407Y-141745025D01*
X86870535Y-141738706D01*
X86854538Y-141679003D01*
X86854537Y-141679000D01*
X86852830Y-141672630D01*
X86846438Y-141660085D01*
X86838874Y-141641823D01*
X86836568Y-141634726D01*
X86834527Y-141628444D01*
X86800336Y-141569223D01*
X86797188Y-141563426D01*
X86769126Y-141508351D01*
X86769124Y-141508348D01*
X86766129Y-141502470D01*
X86757273Y-141491533D01*
X86746073Y-141475237D01*
X86742343Y-141468776D01*
X86742340Y-141468772D01*
X86739040Y-141463056D01*
X86734621Y-141458148D01*
X86734619Y-141458145D01*
X86693278Y-141412231D01*
X86688994Y-141407216D01*
X86681327Y-141397749D01*
X86676072Y-141391259D01*
X86661557Y-141376744D01*
X86657016Y-141371959D01*
X86615673Y-141326043D01*
X86611253Y-141321134D01*
X86599865Y-141312860D01*
X86584832Y-141300019D01*
X86284813Y-141000000D01*
X110086496Y-141000000D01*
X110087186Y-141006565D01*
X110099451Y-141123256D01*
X110106458Y-141189928D01*
X110165473Y-141371556D01*
X110168776Y-141377278D01*
X110168777Y-141377279D01*
X110182419Y-141400908D01*
X110260960Y-141536944D01*
X110265375Y-141541847D01*
X110265379Y-141541852D01*
X110343347Y-141628444D01*
X110388747Y-141678866D01*
X110449648Y-141723113D01*
X110527032Y-141779336D01*
X110543248Y-141791118D01*
X110549276Y-141793802D01*
X110549278Y-141793803D01*
X110709799Y-141865271D01*
X110717712Y-141868794D01*
X110811112Y-141888647D01*
X110898056Y-141907128D01*
X110898061Y-141907128D01*
X110904513Y-141908500D01*
X111095487Y-141908500D01*
X111101939Y-141907128D01*
X111101944Y-141907128D01*
X111188888Y-141888647D01*
X111282288Y-141868794D01*
X111290201Y-141865271D01*
X111450722Y-141793803D01*
X111450724Y-141793802D01*
X111456752Y-141791118D01*
X111472969Y-141779336D01*
X111550352Y-141723113D01*
X111611253Y-141678866D01*
X111656653Y-141628444D01*
X111734621Y-141541852D01*
X111734625Y-141541847D01*
X111739040Y-141536944D01*
X111817581Y-141400908D01*
X111831223Y-141377279D01*
X111831224Y-141377278D01*
X111834527Y-141371556D01*
X111893542Y-141189928D01*
X111900550Y-141123256D01*
X111912814Y-141006565D01*
X111913504Y-141000000D01*
X111906838Y-140936574D01*
X111894232Y-140816635D01*
X111894232Y-140816633D01*
X111893542Y-140810072D01*
X111834527Y-140628444D01*
X111819028Y-140601598D01*
X111749458Y-140481101D01*
X111739040Y-140463056D01*
X111698997Y-140418583D01*
X111615675Y-140326045D01*
X111615674Y-140326044D01*
X111611253Y-140321134D01*
X111456752Y-140208882D01*
X111450724Y-140206198D01*
X111450722Y-140206197D01*
X111288319Y-140133891D01*
X111288318Y-140133891D01*
X111282288Y-140131206D01*
X111176599Y-140108741D01*
X111101944Y-140092872D01*
X111101939Y-140092872D01*
X111095487Y-140091500D01*
X110904513Y-140091500D01*
X110898061Y-140092872D01*
X110898056Y-140092872D01*
X110823401Y-140108741D01*
X110717712Y-140131206D01*
X110711682Y-140133891D01*
X110711681Y-140133891D01*
X110549278Y-140206197D01*
X110549276Y-140206198D01*
X110543248Y-140208882D01*
X110388747Y-140321134D01*
X110384326Y-140326044D01*
X110384325Y-140326045D01*
X110301004Y-140418583D01*
X110260960Y-140463056D01*
X110250542Y-140481101D01*
X110180973Y-140601598D01*
X110165473Y-140628444D01*
X110106458Y-140810072D01*
X110105768Y-140816633D01*
X110105768Y-140816635D01*
X110093162Y-140936574D01*
X110086496Y-141000000D01*
X86284813Y-141000000D01*
X85037526Y-139752713D01*
X85003500Y-139690401D01*
X85008565Y-139619586D01*
X85051112Y-139562750D01*
X85117632Y-139537939D01*
X85129019Y-139538030D01*
X85129019Y-139537828D01*
X85134525Y-139537828D01*
X85140000Y-139538307D01*
X85359371Y-139519115D01*
X85572076Y-139462120D01*
X85771654Y-139369056D01*
X85952038Y-139242749D01*
X86107749Y-139087038D01*
X86114898Y-139076829D01*
X86181787Y-138981301D01*
X86237244Y-138936973D01*
X86307864Y-138929664D01*
X86371224Y-138961695D01*
X86388213Y-138981301D01*
X86455103Y-139076829D01*
X86462251Y-139087038D01*
X86617962Y-139242749D01*
X86798346Y-139369056D01*
X86997924Y-139462120D01*
X87210629Y-139519115D01*
X87430000Y-139538307D01*
X87649371Y-139519115D01*
X87862076Y-139462120D01*
X88061654Y-139369056D01*
X88242038Y-139242749D01*
X88397749Y-139087038D01*
X88404898Y-139076829D01*
X88520899Y-138911162D01*
X88520900Y-138911160D01*
X88524056Y-138906653D01*
X88526379Y-138901671D01*
X88526382Y-138901666D01*
X88614795Y-138712061D01*
X88617120Y-138707076D01*
X88674115Y-138494371D01*
X88693307Y-138275000D01*
X95306693Y-138275000D01*
X95325885Y-138494371D01*
X95382880Y-138707076D01*
X95385205Y-138712061D01*
X95473618Y-138901666D01*
X95473621Y-138901671D01*
X95475944Y-138906653D01*
X95479100Y-138911160D01*
X95479101Y-138911162D01*
X95595103Y-139076829D01*
X95602251Y-139087038D01*
X95757962Y-139242749D01*
X95938346Y-139369056D01*
X96137924Y-139462120D01*
X96350629Y-139519115D01*
X96570000Y-139538307D01*
X96789371Y-139519115D01*
X97002076Y-139462120D01*
X97201654Y-139369056D01*
X97382038Y-139242749D01*
X97537749Y-139087038D01*
X97544898Y-139076829D01*
X97611787Y-138981301D01*
X97667244Y-138936973D01*
X97737864Y-138929664D01*
X97801224Y-138961695D01*
X97818213Y-138981301D01*
X97885103Y-139076829D01*
X97892251Y-139087038D01*
X98047962Y-139242749D01*
X98228346Y-139369056D01*
X98427924Y-139462120D01*
X98640629Y-139519115D01*
X98860000Y-139538307D01*
X99079371Y-139519115D01*
X99292076Y-139462120D01*
X99491654Y-139369056D01*
X99672038Y-139242749D01*
X99827749Y-139087038D01*
X99834898Y-139076829D01*
X99950899Y-138911162D01*
X99950900Y-138911160D01*
X99954056Y-138906653D01*
X99956379Y-138901671D01*
X99956382Y-138901666D01*
X100044795Y-138712061D01*
X100047120Y-138707076D01*
X100104115Y-138494371D01*
X100123307Y-138275000D01*
X107751693Y-138275000D01*
X107770885Y-138494371D01*
X107827880Y-138707076D01*
X107830205Y-138712061D01*
X107918618Y-138901666D01*
X107918621Y-138901671D01*
X107920944Y-138906653D01*
X107924100Y-138911160D01*
X107924101Y-138911162D01*
X108040103Y-139076829D01*
X108047251Y-139087038D01*
X108202962Y-139242749D01*
X108383346Y-139369056D01*
X108582924Y-139462120D01*
X108795629Y-139519115D01*
X109015000Y-139538307D01*
X109234371Y-139519115D01*
X109447076Y-139462120D01*
X109646654Y-139369056D01*
X109827038Y-139242749D01*
X109982749Y-139087038D01*
X109989898Y-139076829D01*
X110056787Y-138981301D01*
X110112244Y-138936973D01*
X110182864Y-138929664D01*
X110246224Y-138961695D01*
X110263213Y-138981301D01*
X110330103Y-139076829D01*
X110337251Y-139087038D01*
X110492962Y-139242749D01*
X110673346Y-139369056D01*
X110872924Y-139462120D01*
X111085629Y-139519115D01*
X111305000Y-139538307D01*
X111524371Y-139519115D01*
X111737076Y-139462120D01*
X111936654Y-139369056D01*
X112117038Y-139242749D01*
X112272749Y-139087038D01*
X112279898Y-139076829D01*
X112395899Y-138911162D01*
X112395900Y-138911160D01*
X112399056Y-138906653D01*
X112401379Y-138901671D01*
X112401382Y-138901666D01*
X112489795Y-138712061D01*
X112492120Y-138707076D01*
X112549115Y-138494371D01*
X112568307Y-138275000D01*
X119181693Y-138275000D01*
X119200885Y-138494371D01*
X119257880Y-138707076D01*
X119260205Y-138712061D01*
X119348618Y-138901666D01*
X119348621Y-138901671D01*
X119350944Y-138906653D01*
X119354100Y-138911160D01*
X119354101Y-138911162D01*
X119470103Y-139076829D01*
X119477251Y-139087038D01*
X119632962Y-139242749D01*
X119813346Y-139369056D01*
X120012924Y-139462120D01*
X120225629Y-139519115D01*
X120445000Y-139538307D01*
X120664371Y-139519115D01*
X120877076Y-139462120D01*
X121076654Y-139369056D01*
X121257038Y-139242749D01*
X121412749Y-139087038D01*
X121419898Y-139076829D01*
X121486787Y-138981301D01*
X121542244Y-138936973D01*
X121612864Y-138929664D01*
X121676224Y-138961695D01*
X121693213Y-138981301D01*
X121760103Y-139076829D01*
X121767251Y-139087038D01*
X121922962Y-139242749D01*
X122103346Y-139369056D01*
X122302924Y-139462120D01*
X122515629Y-139519115D01*
X122735000Y-139538307D01*
X122954371Y-139519115D01*
X123167076Y-139462120D01*
X123366654Y-139369056D01*
X123547038Y-139242749D01*
X123702749Y-139087038D01*
X123709898Y-139076829D01*
X123825899Y-138911162D01*
X123825900Y-138911160D01*
X123829056Y-138906653D01*
X123831379Y-138901671D01*
X123831382Y-138901666D01*
X123919795Y-138712061D01*
X123922120Y-138707076D01*
X123979115Y-138494371D01*
X123998307Y-138275000D01*
X131626693Y-138275000D01*
X131645885Y-138494371D01*
X131702880Y-138707076D01*
X131705205Y-138712061D01*
X131793618Y-138901666D01*
X131793621Y-138901671D01*
X131795944Y-138906653D01*
X131799100Y-138911160D01*
X131799101Y-138911162D01*
X131915103Y-139076829D01*
X131922251Y-139087038D01*
X132077962Y-139242749D01*
X132258346Y-139369056D01*
X132457924Y-139462120D01*
X132670629Y-139519115D01*
X132890000Y-139538307D01*
X133109371Y-139519115D01*
X133322076Y-139462120D01*
X133521654Y-139369056D01*
X133702038Y-139242749D01*
X133857749Y-139087038D01*
X133864898Y-139076829D01*
X133931787Y-138981301D01*
X133987244Y-138936973D01*
X134057864Y-138929664D01*
X134121224Y-138961695D01*
X134138213Y-138981301D01*
X134205103Y-139076829D01*
X134212251Y-139087038D01*
X134367962Y-139242749D01*
X134548346Y-139369056D01*
X134747924Y-139462120D01*
X134960629Y-139519115D01*
X135180000Y-139538307D01*
X135399371Y-139519115D01*
X135612076Y-139462120D01*
X135811654Y-139369056D01*
X135992038Y-139242749D01*
X136147749Y-139087038D01*
X136154898Y-139076829D01*
X136270899Y-138911162D01*
X136270900Y-138911160D01*
X136274056Y-138906653D01*
X136276379Y-138901671D01*
X136276382Y-138901666D01*
X136364795Y-138712061D01*
X136367120Y-138707076D01*
X136424115Y-138494371D01*
X136430395Y-138422590D01*
X136456259Y-138356472D01*
X136513762Y-138314833D01*
X136584649Y-138310892D01*
X136646414Y-138345901D01*
X136664231Y-138372273D01*
X136665473Y-138371556D01*
X136760960Y-138536944D01*
X136888747Y-138678866D01*
X137043248Y-138791118D01*
X137049276Y-138793802D01*
X137049278Y-138793803D01*
X137211681Y-138866109D01*
X137217712Y-138868794D01*
X137311113Y-138888647D01*
X137398056Y-138907128D01*
X137398061Y-138907128D01*
X137404513Y-138908500D01*
X137595487Y-138908500D01*
X137601939Y-138907128D01*
X137601944Y-138907128D01*
X137688887Y-138888647D01*
X137782288Y-138868794D01*
X137788319Y-138866109D01*
X137950722Y-138793803D01*
X137950724Y-138793802D01*
X137956752Y-138791118D01*
X138111253Y-138678866D01*
X138239040Y-138536944D01*
X138334527Y-138371556D01*
X138393542Y-138189928D01*
X138413504Y-138000000D01*
X140586496Y-138000000D01*
X140606458Y-138189928D01*
X140665473Y-138371556D01*
X140760960Y-138536944D01*
X140888747Y-138678866D01*
X141043248Y-138791118D01*
X141049276Y-138793802D01*
X141049278Y-138793803D01*
X141211681Y-138866109D01*
X141217712Y-138868794D01*
X141311113Y-138888647D01*
X141398056Y-138907128D01*
X141398061Y-138907128D01*
X141404513Y-138908500D01*
X141595487Y-138908500D01*
X141601939Y-138907128D01*
X141601944Y-138907128D01*
X141688887Y-138888647D01*
X141782288Y-138868794D01*
X141788319Y-138866109D01*
X141950722Y-138793803D01*
X141950724Y-138793802D01*
X141956752Y-138791118D01*
X142111253Y-138678866D01*
X142239040Y-138536944D01*
X142334527Y-138371556D01*
X142365900Y-138275000D01*
X143056693Y-138275000D01*
X143075885Y-138494371D01*
X143132880Y-138707076D01*
X143135205Y-138712061D01*
X143223618Y-138901666D01*
X143223621Y-138901671D01*
X143225944Y-138906653D01*
X143229100Y-138911160D01*
X143229101Y-138911162D01*
X143345103Y-139076829D01*
X143352251Y-139087038D01*
X143507962Y-139242749D01*
X143688346Y-139369056D01*
X143887924Y-139462120D01*
X144100629Y-139519115D01*
X144320000Y-139538307D01*
X144539371Y-139519115D01*
X144752076Y-139462120D01*
X144951654Y-139369056D01*
X145132038Y-139242749D01*
X145287749Y-139087038D01*
X145294898Y-139076829D01*
X145361787Y-138981301D01*
X145417244Y-138936973D01*
X145487864Y-138929664D01*
X145551224Y-138961695D01*
X145568213Y-138981301D01*
X145635103Y-139076829D01*
X145642251Y-139087038D01*
X145797962Y-139242749D01*
X145978346Y-139369056D01*
X146177924Y-139462120D01*
X146390629Y-139519115D01*
X146610000Y-139538307D01*
X146829371Y-139519115D01*
X147042076Y-139462120D01*
X147241654Y-139369056D01*
X147422038Y-139242749D01*
X147577749Y-139087038D01*
X147584898Y-139076829D01*
X147700899Y-138911162D01*
X147700900Y-138911160D01*
X147704056Y-138906653D01*
X147706379Y-138901671D01*
X147706382Y-138901666D01*
X147794795Y-138712061D01*
X147797120Y-138707076D01*
X147854115Y-138494371D01*
X147873307Y-138275000D01*
X147854115Y-138055629D01*
X147797120Y-137842924D01*
X147722593Y-137683100D01*
X147706382Y-137648334D01*
X147706379Y-137648329D01*
X147704056Y-137643347D01*
X147689614Y-137622721D01*
X147580908Y-137467473D01*
X147580906Y-137467470D01*
X147577749Y-137462962D01*
X147422038Y-137307251D01*
X147417103Y-137303795D01*
X147333165Y-137245021D01*
X147241654Y-137180944D01*
X147042076Y-137087880D01*
X146829371Y-137030885D01*
X146610000Y-137011693D01*
X146390629Y-137030885D01*
X146177924Y-137087880D01*
X146153284Y-137099370D01*
X145983334Y-137178618D01*
X145983329Y-137178621D01*
X145978347Y-137180944D01*
X145973840Y-137184100D01*
X145973838Y-137184101D01*
X145802473Y-137304092D01*
X145802470Y-137304094D01*
X145797962Y-137307251D01*
X145642251Y-137462962D01*
X145639094Y-137467470D01*
X145639092Y-137467473D01*
X145568213Y-137568699D01*
X145512756Y-137613027D01*
X145442136Y-137620336D01*
X145378776Y-137588305D01*
X145361787Y-137568699D01*
X145290908Y-137467473D01*
X145290906Y-137467470D01*
X145287749Y-137462962D01*
X145132038Y-137307251D01*
X145127103Y-137303795D01*
X145043165Y-137245021D01*
X144951654Y-137180944D01*
X144752076Y-137087880D01*
X144539371Y-137030885D01*
X144320000Y-137011693D01*
X144100629Y-137030885D01*
X143887924Y-137087880D01*
X143863284Y-137099370D01*
X143693334Y-137178618D01*
X143693329Y-137178621D01*
X143688347Y-137180944D01*
X143683840Y-137184100D01*
X143683838Y-137184101D01*
X143512473Y-137304092D01*
X143512470Y-137304094D01*
X143507962Y-137307251D01*
X143352251Y-137462962D01*
X143349094Y-137467470D01*
X143349092Y-137467473D01*
X143240386Y-137622721D01*
X143225944Y-137643347D01*
X143223621Y-137648329D01*
X143223618Y-137648334D01*
X143207407Y-137683100D01*
X143132880Y-137842924D01*
X143075885Y-138055629D01*
X143056693Y-138275000D01*
X142365900Y-138275000D01*
X142393542Y-138189928D01*
X142413504Y-138000000D01*
X142404604Y-137915319D01*
X142394232Y-137816635D01*
X142394232Y-137816633D01*
X142393542Y-137810072D01*
X142334527Y-137628444D01*
X142239040Y-137463056D01*
X142226489Y-137449116D01*
X142115675Y-137326045D01*
X142115674Y-137326044D01*
X142111253Y-137321134D01*
X141956752Y-137208882D01*
X141950724Y-137206198D01*
X141950722Y-137206197D01*
X141788319Y-137133891D01*
X141788318Y-137133891D01*
X141782288Y-137131206D01*
X141688888Y-137111353D01*
X141601944Y-137092872D01*
X141601939Y-137092872D01*
X141595487Y-137091500D01*
X141404513Y-137091500D01*
X141398061Y-137092872D01*
X141398056Y-137092872D01*
X141311112Y-137111353D01*
X141217712Y-137131206D01*
X141211682Y-137133891D01*
X141211681Y-137133891D01*
X141049278Y-137206197D01*
X141049276Y-137206198D01*
X141043248Y-137208882D01*
X140888747Y-137321134D01*
X140884326Y-137326044D01*
X140884325Y-137326045D01*
X140773512Y-137449116D01*
X140760960Y-137463056D01*
X140665473Y-137628444D01*
X140606458Y-137810072D01*
X140605768Y-137816633D01*
X140605768Y-137816635D01*
X140595396Y-137915319D01*
X140586496Y-138000000D01*
X138413504Y-138000000D01*
X138404604Y-137915319D01*
X138394232Y-137816635D01*
X138394232Y-137816633D01*
X138393542Y-137810072D01*
X138334527Y-137628444D01*
X138239040Y-137463056D01*
X138226489Y-137449116D01*
X138115675Y-137326045D01*
X138115674Y-137326044D01*
X138111253Y-137321134D01*
X137956752Y-137208882D01*
X137950724Y-137206198D01*
X137950722Y-137206197D01*
X137788319Y-137133891D01*
X137788318Y-137133891D01*
X137782288Y-137131206D01*
X137688888Y-137111353D01*
X137601944Y-137092872D01*
X137601939Y-137092872D01*
X137595487Y-137091500D01*
X137404513Y-137091500D01*
X137398061Y-137092872D01*
X137398056Y-137092872D01*
X137311112Y-137111353D01*
X137217712Y-137131206D01*
X137211682Y-137133891D01*
X137211681Y-137133891D01*
X137049278Y-137206197D01*
X137049276Y-137206198D01*
X137043248Y-137208882D01*
X136888747Y-137321134D01*
X136884326Y-137326044D01*
X136884325Y-137326045D01*
X136773512Y-137449116D01*
X136760960Y-137463056D01*
X136665473Y-137628444D01*
X136606458Y-137810072D01*
X136605767Y-137816644D01*
X136605427Y-137818245D01*
X136571699Y-137880719D01*
X136509550Y-137915040D01*
X136438711Y-137910313D01*
X136381673Y-137868038D01*
X136367828Y-137842594D01*
X136367120Y-137842924D01*
X136276382Y-137648334D01*
X136276379Y-137648329D01*
X136274056Y-137643347D01*
X136259614Y-137622721D01*
X136150908Y-137467473D01*
X136150906Y-137467470D01*
X136147749Y-137462962D01*
X135992038Y-137307251D01*
X135987103Y-137303795D01*
X135903165Y-137245021D01*
X135811654Y-137180944D01*
X135612076Y-137087880D01*
X135399371Y-137030885D01*
X135180000Y-137011693D01*
X134960629Y-137030885D01*
X134747924Y-137087880D01*
X134723284Y-137099370D01*
X134553334Y-137178618D01*
X134553329Y-137178621D01*
X134548347Y-137180944D01*
X134543840Y-137184100D01*
X134543838Y-137184101D01*
X134372473Y-137304092D01*
X134372470Y-137304094D01*
X134367962Y-137307251D01*
X134212251Y-137462962D01*
X134209094Y-137467470D01*
X134209092Y-137467473D01*
X134138213Y-137568699D01*
X134082756Y-137613027D01*
X134012136Y-137620336D01*
X133948776Y-137588305D01*
X133931787Y-137568699D01*
X133860908Y-137467473D01*
X133860906Y-137467470D01*
X133857749Y-137462962D01*
X133702038Y-137307251D01*
X133697103Y-137303795D01*
X133613165Y-137245021D01*
X133521654Y-137180944D01*
X133322076Y-137087880D01*
X133109371Y-137030885D01*
X132890000Y-137011693D01*
X132670629Y-137030885D01*
X132457924Y-137087880D01*
X132433284Y-137099370D01*
X132263334Y-137178618D01*
X132263329Y-137178621D01*
X132258347Y-137180944D01*
X132253840Y-137184100D01*
X132253838Y-137184101D01*
X132082473Y-137304092D01*
X132082470Y-137304094D01*
X132077962Y-137307251D01*
X131922251Y-137462962D01*
X131919094Y-137467470D01*
X131919092Y-137467473D01*
X131810386Y-137622721D01*
X131795944Y-137643347D01*
X131793621Y-137648329D01*
X131793618Y-137648334D01*
X131777407Y-137683100D01*
X131702880Y-137842924D01*
X131645885Y-138055629D01*
X131626693Y-138275000D01*
X123998307Y-138275000D01*
X123979115Y-138055629D01*
X123922120Y-137842924D01*
X123847593Y-137683100D01*
X123831382Y-137648334D01*
X123831379Y-137648329D01*
X123829056Y-137643347D01*
X123814614Y-137622721D01*
X123705908Y-137467473D01*
X123705906Y-137467470D01*
X123702749Y-137462962D01*
X123547038Y-137307251D01*
X123542103Y-137303795D01*
X123458165Y-137245021D01*
X123366654Y-137180944D01*
X123167076Y-137087880D01*
X122954371Y-137030885D01*
X122735000Y-137011693D01*
X122515629Y-137030885D01*
X122302924Y-137087880D01*
X122278284Y-137099370D01*
X122108334Y-137178618D01*
X122108329Y-137178621D01*
X122103347Y-137180944D01*
X122098840Y-137184100D01*
X122098838Y-137184101D01*
X121927473Y-137304092D01*
X121927470Y-137304094D01*
X121922962Y-137307251D01*
X121767251Y-137462962D01*
X121764094Y-137467470D01*
X121764092Y-137467473D01*
X121693213Y-137568699D01*
X121637756Y-137613027D01*
X121567136Y-137620336D01*
X121503776Y-137588305D01*
X121486787Y-137568699D01*
X121415908Y-137467473D01*
X121415906Y-137467470D01*
X121412749Y-137462962D01*
X121257038Y-137307251D01*
X121252103Y-137303795D01*
X121168165Y-137245021D01*
X121076654Y-137180944D01*
X120877076Y-137087880D01*
X120664371Y-137030885D01*
X120445000Y-137011693D01*
X120225629Y-137030885D01*
X120012924Y-137087880D01*
X119988284Y-137099370D01*
X119818334Y-137178618D01*
X119818329Y-137178621D01*
X119813347Y-137180944D01*
X119808840Y-137184100D01*
X119808838Y-137184101D01*
X119637473Y-137304092D01*
X119637470Y-137304094D01*
X119632962Y-137307251D01*
X119477251Y-137462962D01*
X119474094Y-137467470D01*
X119474092Y-137467473D01*
X119365386Y-137622721D01*
X119350944Y-137643347D01*
X119348621Y-137648329D01*
X119348618Y-137648334D01*
X119332407Y-137683100D01*
X119257880Y-137842924D01*
X119200885Y-138055629D01*
X119181693Y-138275000D01*
X112568307Y-138275000D01*
X112549115Y-138055629D01*
X112492120Y-137842924D01*
X112417593Y-137683100D01*
X112401382Y-137648334D01*
X112401379Y-137648329D01*
X112399056Y-137643347D01*
X112384614Y-137622721D01*
X112275908Y-137467473D01*
X112275906Y-137467470D01*
X112272749Y-137462962D01*
X112117038Y-137307251D01*
X112112103Y-137303795D01*
X112028165Y-137245021D01*
X111936654Y-137180944D01*
X111737076Y-137087880D01*
X111524371Y-137030885D01*
X111305000Y-137011693D01*
X111085629Y-137030885D01*
X110872924Y-137087880D01*
X110848284Y-137099370D01*
X110678334Y-137178618D01*
X110678329Y-137178621D01*
X110673347Y-137180944D01*
X110668840Y-137184100D01*
X110668838Y-137184101D01*
X110497473Y-137304092D01*
X110497470Y-137304094D01*
X110492962Y-137307251D01*
X110337251Y-137462962D01*
X110334094Y-137467470D01*
X110334092Y-137467473D01*
X110263213Y-137568699D01*
X110207756Y-137613027D01*
X110137136Y-137620336D01*
X110073776Y-137588305D01*
X110056787Y-137568699D01*
X109985908Y-137467473D01*
X109985906Y-137467470D01*
X109982749Y-137462962D01*
X109827038Y-137307251D01*
X109822103Y-137303795D01*
X109738165Y-137245021D01*
X109646654Y-137180944D01*
X109447076Y-137087880D01*
X109234371Y-137030885D01*
X109015000Y-137011693D01*
X108795629Y-137030885D01*
X108582924Y-137087880D01*
X108558284Y-137099370D01*
X108388334Y-137178618D01*
X108388329Y-137178621D01*
X108383347Y-137180944D01*
X108378840Y-137184100D01*
X108378838Y-137184101D01*
X108207473Y-137304092D01*
X108207470Y-137304094D01*
X108202962Y-137307251D01*
X108047251Y-137462962D01*
X108044094Y-137467470D01*
X108044092Y-137467473D01*
X107935386Y-137622721D01*
X107920944Y-137643347D01*
X107918621Y-137648329D01*
X107918618Y-137648334D01*
X107902407Y-137683100D01*
X107827880Y-137842924D01*
X107770885Y-138055629D01*
X107751693Y-138275000D01*
X100123307Y-138275000D01*
X100104115Y-138055629D01*
X100047120Y-137842924D01*
X99972593Y-137683100D01*
X99956382Y-137648334D01*
X99956379Y-137648329D01*
X99954056Y-137643347D01*
X99939614Y-137622721D01*
X99830908Y-137467473D01*
X99830906Y-137467470D01*
X99827749Y-137462962D01*
X99672038Y-137307251D01*
X99667103Y-137303795D01*
X99583165Y-137245021D01*
X99491654Y-137180944D01*
X99292076Y-137087880D01*
X99079371Y-137030885D01*
X98860000Y-137011693D01*
X98640629Y-137030885D01*
X98427924Y-137087880D01*
X98403284Y-137099370D01*
X98233334Y-137178618D01*
X98233329Y-137178621D01*
X98228347Y-137180944D01*
X98223840Y-137184100D01*
X98223838Y-137184101D01*
X98052473Y-137304092D01*
X98052470Y-137304094D01*
X98047962Y-137307251D01*
X97892251Y-137462962D01*
X97889094Y-137467470D01*
X97889092Y-137467473D01*
X97818213Y-137568699D01*
X97762756Y-137613027D01*
X97692136Y-137620336D01*
X97628776Y-137588305D01*
X97611787Y-137568699D01*
X97540908Y-137467473D01*
X97540906Y-137467470D01*
X97537749Y-137462962D01*
X97382038Y-137307251D01*
X97377103Y-137303795D01*
X97293165Y-137245021D01*
X97201654Y-137180944D01*
X97002076Y-137087880D01*
X96789371Y-137030885D01*
X96570000Y-137011693D01*
X96350629Y-137030885D01*
X96137924Y-137087880D01*
X96113284Y-137099370D01*
X95943334Y-137178618D01*
X95943329Y-137178621D01*
X95938347Y-137180944D01*
X95933840Y-137184100D01*
X95933838Y-137184101D01*
X95762473Y-137304092D01*
X95762470Y-137304094D01*
X95757962Y-137307251D01*
X95602251Y-137462962D01*
X95599094Y-137467470D01*
X95599092Y-137467473D01*
X95490386Y-137622721D01*
X95475944Y-137643347D01*
X95473621Y-137648329D01*
X95473618Y-137648334D01*
X95457407Y-137683100D01*
X95382880Y-137842924D01*
X95325885Y-138055629D01*
X95306693Y-138275000D01*
X88693307Y-138275000D01*
X88674115Y-138055629D01*
X88617120Y-137842924D01*
X88542593Y-137683100D01*
X88526382Y-137648334D01*
X88526379Y-137648329D01*
X88524056Y-137643347D01*
X88509614Y-137622721D01*
X88400908Y-137467473D01*
X88400906Y-137467470D01*
X88397749Y-137462962D01*
X88242038Y-137307251D01*
X88237103Y-137303795D01*
X88153165Y-137245021D01*
X88061654Y-137180944D01*
X87862076Y-137087880D01*
X87649371Y-137030885D01*
X87430000Y-137011693D01*
X87210629Y-137030885D01*
X86997924Y-137087880D01*
X86973284Y-137099370D01*
X86803334Y-137178618D01*
X86803329Y-137178621D01*
X86798347Y-137180944D01*
X86793840Y-137184100D01*
X86793838Y-137184101D01*
X86622473Y-137304092D01*
X86622470Y-137304094D01*
X86617962Y-137307251D01*
X86462251Y-137462962D01*
X86459094Y-137467470D01*
X86459092Y-137467473D01*
X86388213Y-137568699D01*
X86332756Y-137613027D01*
X86262136Y-137620336D01*
X86198776Y-137588305D01*
X86181787Y-137568699D01*
X86110908Y-137467473D01*
X86110906Y-137467470D01*
X86107749Y-137462962D01*
X85952038Y-137307251D01*
X85947103Y-137303795D01*
X85863165Y-137245021D01*
X85771654Y-137180944D01*
X85572076Y-137087880D01*
X85487011Y-137065087D01*
X85426389Y-137028135D01*
X85395368Y-136964275D01*
X85403796Y-136893780D01*
X85430528Y-136854285D01*
X85839408Y-136445405D01*
X85901720Y-136411379D01*
X85928503Y-136408500D01*
X89918583Y-136408500D01*
X89938292Y-136410051D01*
X89952190Y-136412252D01*
X89958777Y-136411907D01*
X89958782Y-136411907D01*
X90020480Y-136408673D01*
X90027074Y-136408500D01*
X90047610Y-136408500D01*
X90050882Y-136408156D01*
X90050884Y-136408156D01*
X90068042Y-136406353D01*
X90074616Y-136405836D01*
X90136308Y-136402603D01*
X90136312Y-136402602D01*
X90142903Y-136402257D01*
X90149284Y-136400547D01*
X90149286Y-136400547D01*
X90156491Y-136398617D01*
X90175925Y-136395015D01*
X90183354Y-136394234D01*
X90183363Y-136394232D01*
X90189928Y-136393542D01*
X90254997Y-136372400D01*
X90261299Y-136370533D01*
X90327370Y-136352829D01*
X90339908Y-136346440D01*
X90358174Y-136338875D01*
X90365272Y-136336569D01*
X90365274Y-136336568D01*
X90371556Y-136334527D01*
X90430785Y-136300331D01*
X90436579Y-136297185D01*
X90497530Y-136266129D01*
X90508467Y-136257273D01*
X90524763Y-136246073D01*
X90531224Y-136242343D01*
X90531228Y-136242340D01*
X90536944Y-136239040D01*
X90541850Y-136234623D01*
X90541855Y-136234619D01*
X90587769Y-136193278D01*
X90592784Y-136188994D01*
X90601282Y-136182112D01*
X90608741Y-136176072D01*
X90623256Y-136161557D01*
X90628041Y-136157016D01*
X90678866Y-136111253D01*
X90687140Y-136099865D01*
X90699981Y-136084832D01*
X91284813Y-135500000D01*
X135586496Y-135500000D01*
X135606458Y-135689928D01*
X135665473Y-135871556D01*
X135668776Y-135877278D01*
X135668777Y-135877279D01*
X135686803Y-135908500D01*
X135760960Y-136036944D01*
X135765378Y-136041851D01*
X135765379Y-136041852D01*
X135817614Y-136099865D01*
X135888747Y-136178866D01*
X135965484Y-136234619D01*
X135996665Y-136257273D01*
X136043248Y-136291118D01*
X136049276Y-136293802D01*
X136049278Y-136293803D01*
X136185690Y-136354537D01*
X136217712Y-136368794D01*
X136311112Y-136388647D01*
X136398056Y-136407128D01*
X136398061Y-136407128D01*
X136404513Y-136408500D01*
X136595487Y-136408500D01*
X136601939Y-136407128D01*
X136601944Y-136407128D01*
X136688888Y-136388647D01*
X136782288Y-136368794D01*
X136814310Y-136354537D01*
X136950722Y-136293803D01*
X136950724Y-136293802D01*
X136956752Y-136291118D01*
X137003336Y-136257273D01*
X137034516Y-136234619D01*
X137111253Y-136178866D01*
X137182386Y-136099865D01*
X137234621Y-136041852D01*
X137234622Y-136041851D01*
X137239040Y-136036944D01*
X137313197Y-135908500D01*
X137331223Y-135877279D01*
X137331224Y-135877278D01*
X137334527Y-135871556D01*
X137393542Y-135689928D01*
X137413504Y-135500000D01*
X137412814Y-135493435D01*
X137394232Y-135316635D01*
X137394232Y-135316633D01*
X137393542Y-135310072D01*
X137334527Y-135128444D01*
X137260370Y-135000000D01*
X142086496Y-135000000D01*
X142106458Y-135189928D01*
X142165473Y-135371556D01*
X142260960Y-135536944D01*
X142388747Y-135678866D01*
X142543248Y-135791118D01*
X142549276Y-135793802D01*
X142549278Y-135793803D01*
X142709799Y-135865271D01*
X142717712Y-135868794D01*
X142809852Y-135888379D01*
X142898056Y-135907128D01*
X142898061Y-135907128D01*
X142904513Y-135908500D01*
X143095487Y-135908500D01*
X143101939Y-135907128D01*
X143101944Y-135907128D01*
X143190148Y-135888379D01*
X143282288Y-135868794D01*
X143290201Y-135865271D01*
X143450722Y-135793803D01*
X143450724Y-135793802D01*
X143456752Y-135791118D01*
X143611253Y-135678866D01*
X143739040Y-135536944D01*
X143834527Y-135371556D01*
X143893542Y-135189928D01*
X143913504Y-135000000D01*
X143901811Y-134888747D01*
X143894232Y-134816635D01*
X143894232Y-134816633D01*
X143893542Y-134810072D01*
X143834527Y-134628444D01*
X143821435Y-134605767D01*
X143742341Y-134468774D01*
X143739040Y-134463056D01*
X143611253Y-134321134D01*
X143456752Y-134208882D01*
X143450724Y-134206198D01*
X143450722Y-134206197D01*
X143288319Y-134133891D01*
X143288318Y-134133891D01*
X143282288Y-134131206D01*
X143188887Y-134111353D01*
X143101944Y-134092872D01*
X143101939Y-134092872D01*
X143095487Y-134091500D01*
X142904513Y-134091500D01*
X142898061Y-134092872D01*
X142898056Y-134092872D01*
X142811113Y-134111353D01*
X142717712Y-134131206D01*
X142711682Y-134133891D01*
X142711681Y-134133891D01*
X142549278Y-134206197D01*
X142549276Y-134206198D01*
X142543248Y-134208882D01*
X142388747Y-134321134D01*
X142260960Y-134463056D01*
X142257659Y-134468774D01*
X142178566Y-134605767D01*
X142165473Y-134628444D01*
X142106458Y-134810072D01*
X142105768Y-134816633D01*
X142105768Y-134816635D01*
X142098189Y-134888747D01*
X142086496Y-135000000D01*
X137260370Y-135000000D01*
X137239040Y-134963056D01*
X137195922Y-134915168D01*
X137115675Y-134826045D01*
X137115674Y-134826044D01*
X137111253Y-134821134D01*
X137011925Y-134748968D01*
X136962094Y-134712763D01*
X136962093Y-134712762D01*
X136956752Y-134708882D01*
X136950724Y-134706198D01*
X136950722Y-134706197D01*
X136788319Y-134633891D01*
X136788318Y-134633891D01*
X136782288Y-134631206D01*
X136688887Y-134611353D01*
X136601944Y-134592872D01*
X136601939Y-134592872D01*
X136595487Y-134591500D01*
X136404513Y-134591500D01*
X136398061Y-134592872D01*
X136398056Y-134592872D01*
X136311113Y-134611353D01*
X136217712Y-134631206D01*
X136211682Y-134633891D01*
X136211681Y-134633891D01*
X136049278Y-134706197D01*
X136049276Y-134706198D01*
X136043248Y-134708882D01*
X136037907Y-134712762D01*
X136037906Y-134712763D01*
X135988075Y-134748968D01*
X135888747Y-134821134D01*
X135884326Y-134826044D01*
X135884325Y-134826045D01*
X135804079Y-134915168D01*
X135760960Y-134963056D01*
X135665473Y-135128444D01*
X135606458Y-135310072D01*
X135605768Y-135316633D01*
X135605768Y-135316635D01*
X135587186Y-135493435D01*
X135586496Y-135500000D01*
X91284813Y-135500000D01*
X93284813Y-133500000D01*
X138086496Y-133500000D01*
X138106458Y-133689928D01*
X138165473Y-133871556D01*
X138260960Y-134036944D01*
X138388747Y-134178866D01*
X138543248Y-134291118D01*
X138549276Y-134293802D01*
X138549278Y-134293803D01*
X138711681Y-134366109D01*
X138717712Y-134368794D01*
X138811113Y-134388647D01*
X138898056Y-134407128D01*
X138898061Y-134407128D01*
X138904513Y-134408500D01*
X139095487Y-134408500D01*
X139101939Y-134407128D01*
X139101944Y-134407128D01*
X139188887Y-134388647D01*
X139282288Y-134368794D01*
X139288319Y-134366109D01*
X139450722Y-134293803D01*
X139450724Y-134293802D01*
X139456752Y-134291118D01*
X139611253Y-134178866D01*
X139739040Y-134036944D01*
X139834527Y-133871556D01*
X139893542Y-133689928D01*
X139913504Y-133500000D01*
X139893542Y-133310072D01*
X139834527Y-133128444D01*
X139739040Y-132963056D01*
X139611253Y-132821134D01*
X139456752Y-132708882D01*
X139450724Y-132706198D01*
X139450722Y-132706197D01*
X139288319Y-132633891D01*
X139288318Y-132633891D01*
X139282288Y-132631206D01*
X139172436Y-132607856D01*
X139101944Y-132592872D01*
X139101939Y-132592872D01*
X139095487Y-132591500D01*
X138904513Y-132591500D01*
X138898061Y-132592872D01*
X138898056Y-132592872D01*
X138827564Y-132607856D01*
X138717712Y-132631206D01*
X138711682Y-132633891D01*
X138711681Y-132633891D01*
X138549278Y-132706197D01*
X138549276Y-132706198D01*
X138543248Y-132708882D01*
X138388747Y-132821134D01*
X138260960Y-132963056D01*
X138165473Y-133128444D01*
X138106458Y-133310072D01*
X138086496Y-133500000D01*
X93284813Y-133500000D01*
X94991139Y-131793674D01*
X95053451Y-131759648D01*
X95069250Y-131757248D01*
X95219371Y-131744115D01*
X95432076Y-131687120D01*
X95631654Y-131594056D01*
X95812038Y-131467749D01*
X95967749Y-131312038D01*
X95977937Y-131297489D01*
X96090899Y-131136162D01*
X96090900Y-131136160D01*
X96094056Y-131131653D01*
X96096379Y-131126671D01*
X96096382Y-131126666D01*
X96184795Y-130937061D01*
X96187120Y-130932076D01*
X96244115Y-130719371D01*
X96263307Y-130500000D01*
X96244115Y-130280629D01*
X96187120Y-130067924D01*
X96119513Y-129922939D01*
X96096382Y-129873334D01*
X96096379Y-129873329D01*
X96094056Y-129868347D01*
X96035350Y-129784506D01*
X95970908Y-129692473D01*
X95970906Y-129692470D01*
X95967749Y-129687962D01*
X95812038Y-129532251D01*
X95798714Y-129522921D01*
X95765979Y-129500000D01*
X145586496Y-129500000D01*
X145606458Y-129689928D01*
X145665473Y-129871556D01*
X145760960Y-130036944D01*
X145765378Y-130041851D01*
X145765379Y-130041852D01*
X145849537Y-130135319D01*
X145888747Y-130178866D01*
X145987843Y-130250864D01*
X146036350Y-130286106D01*
X146043248Y-130291118D01*
X146049276Y-130293802D01*
X146049278Y-130293803D01*
X146068994Y-130302581D01*
X146217712Y-130368794D01*
X146311113Y-130388647D01*
X146398056Y-130407128D01*
X146398061Y-130407128D01*
X146404513Y-130408500D01*
X146595487Y-130408500D01*
X146601939Y-130407128D01*
X146601944Y-130407128D01*
X146688887Y-130388647D01*
X146782288Y-130368794D01*
X146802040Y-130360000D01*
X153511693Y-130360000D01*
X153530885Y-130579371D01*
X153587880Y-130792076D01*
X153631415Y-130885438D01*
X153678618Y-130986666D01*
X153678621Y-130986671D01*
X153680944Y-130991653D01*
X153684100Y-130996160D01*
X153684101Y-130996162D01*
X153802950Y-131165895D01*
X153807251Y-131172038D01*
X153962962Y-131327749D01*
X153967471Y-131330906D01*
X153967473Y-131330908D01*
X154014698Y-131363975D01*
X154143346Y-131454056D01*
X154342924Y-131547120D01*
X154555629Y-131604115D01*
X154775000Y-131623307D01*
X154994371Y-131604115D01*
X155207076Y-131547120D01*
X155406654Y-131454056D01*
X155535302Y-131363975D01*
X155582527Y-131330908D01*
X155582529Y-131330906D01*
X155587038Y-131327749D01*
X155742749Y-131172038D01*
X155747051Y-131165895D01*
X155865899Y-130996162D01*
X155865900Y-130996160D01*
X155869056Y-130991653D01*
X155871379Y-130986671D01*
X155871382Y-130986666D01*
X155918585Y-130885438D01*
X155962120Y-130792076D01*
X156019115Y-130579371D01*
X156038307Y-130360000D01*
X156019115Y-130140629D01*
X155962120Y-129927924D01*
X155918585Y-129834562D01*
X155871382Y-129733334D01*
X155871379Y-129733329D01*
X155869056Y-129728347D01*
X155840778Y-129687962D01*
X155745908Y-129552473D01*
X155745906Y-129552470D01*
X155742749Y-129547962D01*
X155587038Y-129392251D01*
X155481300Y-129318212D01*
X155436973Y-129262756D01*
X155429664Y-129192136D01*
X155461695Y-129128776D01*
X155481301Y-129111787D01*
X155582527Y-129040908D01*
X155582529Y-129040906D01*
X155587038Y-129037749D01*
X155742749Y-128882038D01*
X155747355Y-128875461D01*
X155865899Y-128706162D01*
X155865900Y-128706160D01*
X155869056Y-128701653D01*
X155871379Y-128696671D01*
X155871382Y-128696666D01*
X155920421Y-128591500D01*
X155962120Y-128502076D01*
X156019115Y-128289371D01*
X156038307Y-128070000D01*
X156019115Y-127850629D01*
X155962120Y-127637924D01*
X155898619Y-127501745D01*
X155871382Y-127443334D01*
X155871379Y-127443329D01*
X155869056Y-127438347D01*
X155865899Y-127433838D01*
X155745908Y-127262473D01*
X155745906Y-127262470D01*
X155742749Y-127257962D01*
X155587038Y-127102251D01*
X155573644Y-127092872D01*
X155504871Y-127044717D01*
X155406654Y-126975944D01*
X155207076Y-126882880D01*
X154994371Y-126825885D01*
X154775000Y-126806693D01*
X154555629Y-126825885D01*
X154342924Y-126882880D01*
X154249562Y-126926415D01*
X154148334Y-126973618D01*
X154148329Y-126973621D01*
X154143347Y-126975944D01*
X154138840Y-126979100D01*
X154138838Y-126979101D01*
X153967473Y-127099092D01*
X153967470Y-127099094D01*
X153962962Y-127102251D01*
X153807251Y-127257962D01*
X153804094Y-127262470D01*
X153804092Y-127262473D01*
X153684101Y-127433838D01*
X153680944Y-127438347D01*
X153678621Y-127443329D01*
X153678618Y-127443334D01*
X153651381Y-127501745D01*
X153587880Y-127637924D01*
X153530885Y-127850629D01*
X153511693Y-128070000D01*
X153530885Y-128289371D01*
X153587880Y-128502076D01*
X153629579Y-128591500D01*
X153678618Y-128696666D01*
X153678621Y-128696671D01*
X153680944Y-128701653D01*
X153684100Y-128706160D01*
X153684101Y-128706162D01*
X153802646Y-128875461D01*
X153807251Y-128882038D01*
X153962962Y-129037749D01*
X153967471Y-129040906D01*
X153967473Y-129040908D01*
X154068699Y-129111787D01*
X154113027Y-129167244D01*
X154120336Y-129237864D01*
X154088305Y-129301224D01*
X154068699Y-129318213D01*
X153967473Y-129389092D01*
X153967470Y-129389094D01*
X153962962Y-129392251D01*
X153807251Y-129547962D01*
X153804094Y-129552470D01*
X153804092Y-129552473D01*
X153709222Y-129687962D01*
X153680944Y-129728347D01*
X153678621Y-129733329D01*
X153678618Y-129733334D01*
X153631415Y-129834562D01*
X153587880Y-129927924D01*
X153530885Y-130140629D01*
X153511693Y-130360000D01*
X146802040Y-130360000D01*
X146931006Y-130302581D01*
X146950722Y-130293803D01*
X146950724Y-130293802D01*
X146956752Y-130291118D01*
X146963651Y-130286106D01*
X147012157Y-130250864D01*
X147111253Y-130178866D01*
X147150463Y-130135319D01*
X147234621Y-130041852D01*
X147234622Y-130041851D01*
X147239040Y-130036944D01*
X147334527Y-129871556D01*
X147393542Y-129689928D01*
X147413504Y-129500000D01*
X147403950Y-129409101D01*
X147394232Y-129316635D01*
X147394232Y-129316633D01*
X147393542Y-129310072D01*
X147334527Y-129128444D01*
X147239040Y-128963056D01*
X147219817Y-128941706D01*
X147115675Y-128826045D01*
X147115674Y-128826044D01*
X147111253Y-128821134D01*
X146956752Y-128708882D01*
X146950724Y-128706198D01*
X146950722Y-128706197D01*
X146788319Y-128633891D01*
X146788318Y-128633891D01*
X146782288Y-128631206D01*
X146683440Y-128610195D01*
X146601944Y-128592872D01*
X146601939Y-128592872D01*
X146595487Y-128591500D01*
X146404513Y-128591500D01*
X146398061Y-128592872D01*
X146398056Y-128592872D01*
X146316560Y-128610195D01*
X146217712Y-128631206D01*
X146211682Y-128633891D01*
X146211681Y-128633891D01*
X146049278Y-128706197D01*
X146049276Y-128706198D01*
X146043248Y-128708882D01*
X145888747Y-128821134D01*
X145884326Y-128826044D01*
X145884325Y-128826045D01*
X145780184Y-128941706D01*
X145760960Y-128963056D01*
X145665473Y-129128444D01*
X145606458Y-129310072D01*
X145605768Y-129316633D01*
X145605768Y-129316635D01*
X145596050Y-129409101D01*
X145586496Y-129500000D01*
X95765979Y-129500000D01*
X95732759Y-129476739D01*
X95631654Y-129405944D01*
X95432076Y-129312880D01*
X95219371Y-129255885D01*
X95000000Y-129236693D01*
X94780629Y-129255885D01*
X94567924Y-129312880D01*
X94474562Y-129356415D01*
X94373334Y-129403618D01*
X94373329Y-129403621D01*
X94368347Y-129405944D01*
X94363840Y-129409100D01*
X94363838Y-129409101D01*
X94192473Y-129529092D01*
X94192470Y-129529094D01*
X94187962Y-129532251D01*
X94032251Y-129687962D01*
X94029094Y-129692470D01*
X94029092Y-129692473D01*
X93964650Y-129784506D01*
X93905944Y-129868347D01*
X93903621Y-129873329D01*
X93903618Y-129873334D01*
X93880487Y-129922939D01*
X93812880Y-130067924D01*
X93755885Y-130280629D01*
X93754733Y-130293803D01*
X93742752Y-130430747D01*
X93716889Y-130496865D01*
X93706326Y-130508861D01*
X89660592Y-134554595D01*
X89598280Y-134588621D01*
X89571497Y-134591500D01*
X85581417Y-134591500D01*
X85561708Y-134589949D01*
X85547810Y-134587748D01*
X85541223Y-134588093D01*
X85541218Y-134588093D01*
X85479519Y-134591327D01*
X85472925Y-134591500D01*
X85452390Y-134591500D01*
X85446222Y-134592148D01*
X85431960Y-134593647D01*
X85425385Y-134594164D01*
X85363696Y-134597397D01*
X85363695Y-134597397D01*
X85357096Y-134597743D01*
X85343508Y-134601384D01*
X85324061Y-134604988D01*
X85316644Y-134605767D01*
X85316640Y-134605768D01*
X85310072Y-134606458D01*
X85260019Y-134622721D01*
X85245009Y-134627598D01*
X85238685Y-134629471D01*
X85179010Y-134645461D01*
X85179006Y-134645462D01*
X85172630Y-134647171D01*
X85166748Y-134650168D01*
X85160093Y-134653559D01*
X85141826Y-134661125D01*
X85134728Y-134663431D01*
X85134726Y-134663432D01*
X85128444Y-134665473D01*
X85122722Y-134668776D01*
X85122721Y-134668777D01*
X85069218Y-134699667D01*
X85063423Y-134702814D01*
X85002470Y-134733871D01*
X84997342Y-134738024D01*
X84997340Y-134738025D01*
X84991534Y-134742727D01*
X84975237Y-134753927D01*
X84968776Y-134757657D01*
X84968772Y-134757660D01*
X84963056Y-134760960D01*
X84958150Y-134765377D01*
X84958145Y-134765381D01*
X84912231Y-134806722D01*
X84907216Y-134811006D01*
X84898718Y-134817888D01*
X84891259Y-134823928D01*
X84876744Y-134838443D01*
X84871959Y-134842984D01*
X84821134Y-134888747D01*
X84817255Y-134894086D01*
X84817254Y-134894087D01*
X84812860Y-134900135D01*
X84800019Y-134915168D01*
X82915168Y-136800019D01*
X82900135Y-136812860D01*
X82888747Y-136821134D01*
X82884327Y-136826043D01*
X82842984Y-136871959D01*
X82838443Y-136876744D01*
X82823928Y-136891259D01*
X82821852Y-136893823D01*
X82811006Y-136907216D01*
X82806722Y-136912231D01*
X82765381Y-136958145D01*
X82765377Y-136958150D01*
X82760960Y-136963056D01*
X82757660Y-136968772D01*
X82757657Y-136968776D01*
X82753927Y-136975237D01*
X82742727Y-136991533D01*
X82733871Y-137002470D01*
X82702815Y-137063421D01*
X82699669Y-137069215D01*
X82665473Y-137128444D01*
X82663432Y-137134726D01*
X82663431Y-137134728D01*
X82661125Y-137141826D01*
X82653560Y-137160092D01*
X82647171Y-137172630D01*
X82631505Y-137231098D01*
X82629469Y-137238695D01*
X82627600Y-137245003D01*
X82606458Y-137310072D01*
X82605768Y-137316637D01*
X82605766Y-137316646D01*
X82604985Y-137324075D01*
X82601383Y-137343509D01*
X82599453Y-137350714D01*
X82597743Y-137357097D01*
X82597398Y-137363688D01*
X82597397Y-137363692D01*
X82594164Y-137425384D01*
X82593647Y-137431958D01*
X82591844Y-137449116D01*
X82591500Y-137452390D01*
X82591500Y-137472926D01*
X82591327Y-137479520D01*
X82590053Y-137503838D01*
X82587748Y-137547810D01*
X82588780Y-137554325D01*
X82589949Y-137561705D01*
X82591500Y-137581417D01*
X82591500Y-139418583D01*
X82589949Y-139438292D01*
X82587748Y-139452190D01*
X82588093Y-139458777D01*
X82588093Y-139458782D01*
X82591327Y-139520480D01*
X82591500Y-139527074D01*
X82591500Y-139547610D01*
X82591844Y-139550882D01*
X82591844Y-139550884D01*
X82593647Y-139568042D01*
X82594164Y-139574616D01*
X82596781Y-139624539D01*
X82597743Y-139642903D01*
X82599453Y-139649284D01*
X82599453Y-139649286D01*
X82601383Y-139656491D01*
X82604985Y-139675925D01*
X82605766Y-139683354D01*
X82605768Y-139683363D01*
X82606458Y-139689928D01*
X82627600Y-139754997D01*
X82629467Y-139761299D01*
X82647171Y-139827370D01*
X82653559Y-139839907D01*
X82661125Y-139858173D01*
X82665473Y-139871556D01*
X82668776Y-139877278D01*
X82668777Y-139877279D01*
X82699667Y-139930782D01*
X82702814Y-139936577D01*
X82733871Y-139997530D01*
X82738024Y-140002658D01*
X82738025Y-140002660D01*
X82742727Y-140008466D01*
X82753927Y-140024763D01*
X82757657Y-140031224D01*
X82757660Y-140031228D01*
X82760960Y-140036944D01*
X82765377Y-140041850D01*
X82765381Y-140041855D01*
X82806722Y-140087769D01*
X82811006Y-140092784D01*
X82814816Y-140097489D01*
X82823928Y-140108741D01*
X82838443Y-140123256D01*
X82842984Y-140128041D01*
X82888747Y-140178866D01*
X82894086Y-140182745D01*
X82894087Y-140182746D01*
X82900135Y-140187140D01*
X82915168Y-140199981D01*
X85054595Y-142339408D01*
X85088621Y-142401720D01*
X85091500Y-142428503D01*
X85091500Y-142573874D01*
X85071498Y-142641995D01*
X85017842Y-142688488D01*
X84947568Y-142698592D01*
X84883670Y-142669685D01*
X84851621Y-142642312D01*
X84851616Y-142642309D01*
X84847856Y-142639097D01*
X84625271Y-142502697D01*
X84620701Y-142500804D01*
X84620697Y-142500802D01*
X84388662Y-142404690D01*
X84388660Y-142404689D01*
X84384089Y-142402796D01*
X84253966Y-142371556D01*
X84135062Y-142343009D01*
X84135056Y-142343008D01*
X84130249Y-142341854D01*
X83870000Y-142321372D01*
X83609751Y-142341854D01*
X83604944Y-142343008D01*
X83604938Y-142343009D01*
X83486034Y-142371556D01*
X83355911Y-142402796D01*
X83351340Y-142404689D01*
X83351338Y-142404690D01*
X83119303Y-142500802D01*
X83119299Y-142500804D01*
X83114729Y-142502697D01*
X82892144Y-142639097D01*
X82693637Y-142808637D01*
X82524097Y-143007144D01*
X82387697Y-143229729D01*
X82385804Y-143234299D01*
X82385802Y-143234303D01*
X82294105Y-143455680D01*
X82287796Y-143470911D01*
X82275587Y-143521765D01*
X82228009Y-143719938D01*
X82228008Y-143719944D01*
X82226854Y-143724751D01*
X82206372Y-143985000D01*
X79508500Y-143985000D01*
X79508500Y-130558918D01*
X83986917Y-130558918D01*
X84002682Y-130832320D01*
X84003507Y-130836525D01*
X84003508Y-130836533D01*
X84014127Y-130890657D01*
X84055405Y-131101053D01*
X84056792Y-131105103D01*
X84056793Y-131105108D01*
X84134102Y-131330908D01*
X84144112Y-131360144D01*
X84267160Y-131604799D01*
X84269586Y-131608328D01*
X84269589Y-131608334D01*
X84319634Y-131681149D01*
X84422274Y-131830490D01*
X84606582Y-132033043D01*
X84816675Y-132208707D01*
X84820316Y-132210991D01*
X85045024Y-132351951D01*
X85045028Y-132351953D01*
X85048664Y-132354234D01*
X85173460Y-132410582D01*
X85294345Y-132465164D01*
X85294349Y-132465166D01*
X85298257Y-132466930D01*
X85302377Y-132468150D01*
X85302376Y-132468150D01*
X85556723Y-132543491D01*
X85556727Y-132543492D01*
X85560836Y-132544709D01*
X85565070Y-132545357D01*
X85565075Y-132545358D01*
X85827298Y-132585483D01*
X85827300Y-132585483D01*
X85831540Y-132586132D01*
X85970912Y-132588322D01*
X86101071Y-132590367D01*
X86101077Y-132590367D01*
X86105362Y-132590434D01*
X86377235Y-132557534D01*
X86642127Y-132488041D01*
X86646087Y-132486401D01*
X86646092Y-132486399D01*
X86768632Y-132435641D01*
X86895136Y-132383241D01*
X87131582Y-132245073D01*
X87347089Y-132076094D01*
X87388809Y-132033043D01*
X87507485Y-131910578D01*
X87537669Y-131879431D01*
X87540202Y-131875983D01*
X87540206Y-131875978D01*
X87697257Y-131662178D01*
X87699795Y-131658723D01*
X87712714Y-131634930D01*
X87828418Y-131421830D01*
X87828419Y-131421828D01*
X87830468Y-131418054D01*
X87921957Y-131175935D01*
X87925751Y-131165895D01*
X87925752Y-131165891D01*
X87927269Y-131161877D01*
X87966255Y-130991653D01*
X87987449Y-130899117D01*
X87987450Y-130899113D01*
X87988407Y-130894933D01*
X87990211Y-130874729D01*
X88012531Y-130624627D01*
X88012531Y-130624625D01*
X88012751Y-130622161D01*
X88013193Y-130580000D01*
X88011371Y-130553276D01*
X87994859Y-130311055D01*
X87994858Y-130311049D01*
X87994567Y-130306778D01*
X87992049Y-130294616D01*
X87939901Y-130042809D01*
X87939032Y-130038612D01*
X87847617Y-129780465D01*
X87722013Y-129537112D01*
X87716377Y-129529092D01*
X87617983Y-129389092D01*
X87564545Y-129313057D01*
X87473425Y-129215000D01*
X87381046Y-129115588D01*
X87381043Y-129115585D01*
X87378125Y-129112445D01*
X87374810Y-129109731D01*
X87374806Y-129109728D01*
X87169523Y-128941706D01*
X87166205Y-128938990D01*
X86932704Y-128795901D01*
X86927925Y-128793803D01*
X86685873Y-128687549D01*
X86685869Y-128687548D01*
X86681945Y-128685825D01*
X86418566Y-128610800D01*
X86414324Y-128610196D01*
X86414318Y-128610195D01*
X86213834Y-128581662D01*
X86147443Y-128572213D01*
X86003589Y-128571460D01*
X85877877Y-128570802D01*
X85877871Y-128570802D01*
X85873591Y-128570780D01*
X85869347Y-128571339D01*
X85869343Y-128571339D01*
X85750302Y-128587011D01*
X85602078Y-128606525D01*
X85597938Y-128607658D01*
X85597936Y-128607658D01*
X85530213Y-128626185D01*
X85337928Y-128678788D01*
X85333980Y-128680472D01*
X85089982Y-128784546D01*
X85089978Y-128784548D01*
X85086030Y-128786232D01*
X85066125Y-128798145D01*
X84854725Y-128924664D01*
X84854721Y-128924667D01*
X84851043Y-128926868D01*
X84637318Y-129098094D01*
X84526378Y-129215000D01*
X84481060Y-129262756D01*
X84448808Y-129296742D01*
X84289002Y-129519136D01*
X84160857Y-129761161D01*
X84159385Y-129765184D01*
X84159383Y-129765188D01*
X84077653Y-129988525D01*
X84066743Y-130018337D01*
X84008404Y-130285907D01*
X83986917Y-130558918D01*
X79508500Y-130558918D01*
X79508500Y-128000000D01*
X132586496Y-128000000D01*
X132606458Y-128189928D01*
X132665473Y-128371556D01*
X132760960Y-128536944D01*
X132765378Y-128541851D01*
X132765379Y-128541852D01*
X132792716Y-128572213D01*
X132888747Y-128678866D01*
X133043248Y-128791118D01*
X133049276Y-128793802D01*
X133049278Y-128793803D01*
X133211681Y-128866109D01*
X133217712Y-128868794D01*
X133298354Y-128885935D01*
X133398056Y-128907128D01*
X133398061Y-128907128D01*
X133404513Y-128908500D01*
X133595487Y-128908500D01*
X133601939Y-128907128D01*
X133601944Y-128907128D01*
X133701646Y-128885935D01*
X133782288Y-128868794D01*
X133788319Y-128866109D01*
X133950722Y-128793803D01*
X133950724Y-128793802D01*
X133956752Y-128791118D01*
X134111253Y-128678866D01*
X134156364Y-128628765D01*
X134216810Y-128591525D01*
X134287793Y-128592877D01*
X134343636Y-128628765D01*
X134388747Y-128678866D01*
X134543248Y-128791118D01*
X134549276Y-128793802D01*
X134549278Y-128793803D01*
X134711681Y-128866109D01*
X134717712Y-128868794D01*
X134798354Y-128885935D01*
X134898056Y-128907128D01*
X134898061Y-128907128D01*
X134904513Y-128908500D01*
X135095487Y-128908500D01*
X135101939Y-128907128D01*
X135101944Y-128907128D01*
X135201646Y-128885935D01*
X135282288Y-128868794D01*
X135288319Y-128866109D01*
X135450722Y-128793803D01*
X135450724Y-128793802D01*
X135456752Y-128791118D01*
X135611253Y-128678866D01*
X135707284Y-128572213D01*
X135734621Y-128541852D01*
X135734622Y-128541851D01*
X135739040Y-128536944D01*
X135834527Y-128371556D01*
X135893542Y-128189928D01*
X135913504Y-128000000D01*
X135912814Y-127993435D01*
X135894232Y-127816635D01*
X135894232Y-127816633D01*
X135893542Y-127810072D01*
X135834527Y-127628444D01*
X135739040Y-127463056D01*
X135726489Y-127449116D01*
X135615675Y-127326045D01*
X135615674Y-127326044D01*
X135611253Y-127321134D01*
X135486456Y-127230463D01*
X135462094Y-127212763D01*
X135462093Y-127212762D01*
X135456752Y-127208882D01*
X135450724Y-127206198D01*
X135450722Y-127206197D01*
X135288319Y-127133891D01*
X135288318Y-127133891D01*
X135282288Y-127131206D01*
X135184009Y-127110316D01*
X135101944Y-127092872D01*
X135101939Y-127092872D01*
X135095487Y-127091500D01*
X134904513Y-127091500D01*
X134898061Y-127092872D01*
X134898056Y-127092872D01*
X134815991Y-127110316D01*
X134717712Y-127131206D01*
X134711682Y-127133891D01*
X134711681Y-127133891D01*
X134549278Y-127206197D01*
X134549276Y-127206198D01*
X134543248Y-127208882D01*
X134537907Y-127212762D01*
X134537906Y-127212763D01*
X134513544Y-127230463D01*
X134388747Y-127321134D01*
X134384326Y-127326044D01*
X134384325Y-127326045D01*
X134343636Y-127371235D01*
X134283190Y-127408475D01*
X134212207Y-127407123D01*
X134156364Y-127371235D01*
X134115675Y-127326045D01*
X134115674Y-127326044D01*
X134111253Y-127321134D01*
X133986456Y-127230463D01*
X133962094Y-127212763D01*
X133962093Y-127212762D01*
X133956752Y-127208882D01*
X133950724Y-127206198D01*
X133950722Y-127206197D01*
X133788319Y-127133891D01*
X133788318Y-127133891D01*
X133782288Y-127131206D01*
X133684009Y-127110316D01*
X133601944Y-127092872D01*
X133601939Y-127092872D01*
X133595487Y-127091500D01*
X133404513Y-127091500D01*
X133398061Y-127092872D01*
X133398056Y-127092872D01*
X133315991Y-127110316D01*
X133217712Y-127131206D01*
X133211682Y-127133891D01*
X133211681Y-127133891D01*
X133049278Y-127206197D01*
X133049276Y-127206198D01*
X133043248Y-127208882D01*
X133037907Y-127212762D01*
X133037906Y-127212763D01*
X133013544Y-127230463D01*
X132888747Y-127321134D01*
X132884326Y-127326044D01*
X132884325Y-127326045D01*
X132773512Y-127449116D01*
X132760960Y-127463056D01*
X132665473Y-127628444D01*
X132606458Y-127810072D01*
X132605768Y-127816633D01*
X132605768Y-127816635D01*
X132587186Y-127993435D01*
X132586496Y-128000000D01*
X79508500Y-128000000D01*
X79508500Y-127048134D01*
X83991500Y-127048134D01*
X83998255Y-127110316D01*
X84049385Y-127246705D01*
X84136739Y-127363261D01*
X84253295Y-127450615D01*
X84389684Y-127501745D01*
X84451866Y-127508500D01*
X87548134Y-127508500D01*
X87610316Y-127501745D01*
X87746705Y-127450615D01*
X87863261Y-127363261D01*
X87950615Y-127246705D01*
X88001745Y-127110316D01*
X88008500Y-127048134D01*
X88008500Y-123951866D01*
X88001745Y-123889684D01*
X87950615Y-123753295D01*
X87863261Y-123636739D01*
X87746705Y-123549385D01*
X87610316Y-123498255D01*
X87548134Y-123491500D01*
X84451866Y-123491500D01*
X84389684Y-123498255D01*
X84253295Y-123549385D01*
X84136739Y-123636739D01*
X84049385Y-123753295D01*
X83998255Y-123889684D01*
X83991500Y-123951866D01*
X83991500Y-127048134D01*
X79508500Y-127048134D01*
X79508500Y-119867064D01*
X83397707Y-119867064D01*
X83426825Y-120059599D01*
X83429028Y-120065585D01*
X83429029Y-120065591D01*
X83491860Y-120236360D01*
X83491862Y-120236365D01*
X83494063Y-120242346D01*
X83596674Y-120407840D01*
X83730466Y-120549322D01*
X83889975Y-120661011D01*
X83895838Y-120663548D01*
X84062825Y-120735810D01*
X84062829Y-120735811D01*
X84068684Y-120738345D01*
X84074931Y-120739650D01*
X84074934Y-120739651D01*
X84254557Y-120777176D01*
X84254562Y-120777177D01*
X84259293Y-120778165D01*
X84265685Y-120778500D01*
X85208663Y-120778500D01*
X85277951Y-120771462D01*
X85347378Y-120764410D01*
X85347379Y-120764410D01*
X85353727Y-120763765D01*
X85422842Y-120742106D01*
X85533451Y-120707444D01*
X85533456Y-120707442D01*
X85539541Y-120705535D01*
X85626868Y-120657128D01*
X85704271Y-120614223D01*
X85704274Y-120614221D01*
X85709850Y-120611130D01*
X85714691Y-120606981D01*
X85714695Y-120606978D01*
X85852855Y-120488560D01*
X85857698Y-120484409D01*
X85977046Y-120330547D01*
X85982316Y-120319838D01*
X86060200Y-120161556D01*
X86063018Y-120155829D01*
X86070455Y-120127279D01*
X86110492Y-119973575D01*
X86110492Y-119973572D01*
X86112102Y-119967393D01*
X86117360Y-119867064D01*
X87417707Y-119867064D01*
X87446825Y-120059599D01*
X87449028Y-120065585D01*
X87449029Y-120065591D01*
X87511860Y-120236360D01*
X87511862Y-120236365D01*
X87514063Y-120242346D01*
X87616674Y-120407840D01*
X87750466Y-120549322D01*
X87909975Y-120661011D01*
X87915838Y-120663548D01*
X88082825Y-120735810D01*
X88082829Y-120735811D01*
X88088684Y-120738345D01*
X88094931Y-120739650D01*
X88094934Y-120739651D01*
X88274557Y-120777176D01*
X88274562Y-120777177D01*
X88279293Y-120778165D01*
X88285685Y-120778500D01*
X89528663Y-120778500D01*
X89597951Y-120771462D01*
X89667378Y-120764410D01*
X89667379Y-120764410D01*
X89673727Y-120763765D01*
X89742842Y-120742106D01*
X89853451Y-120707444D01*
X89853456Y-120707442D01*
X89859541Y-120705535D01*
X89946868Y-120657128D01*
X90024271Y-120614223D01*
X90024274Y-120614221D01*
X90029850Y-120611130D01*
X90034691Y-120606981D01*
X90034695Y-120606978D01*
X90172855Y-120488560D01*
X90177698Y-120484409D01*
X90297046Y-120330547D01*
X90302316Y-120319838D01*
X90380200Y-120161556D01*
X90383018Y-120155829D01*
X90390455Y-120127279D01*
X90430492Y-119973575D01*
X90430492Y-119973572D01*
X90432102Y-119967393D01*
X90437750Y-119859618D01*
X90441959Y-119779317D01*
X90441959Y-119779313D01*
X90442293Y-119772936D01*
X90438824Y-119750000D01*
X125836496Y-119750000D01*
X125856458Y-119939928D01*
X125915473Y-120121556D01*
X125918776Y-120127278D01*
X125918777Y-120127279D01*
X125938567Y-120161556D01*
X126010960Y-120286944D01*
X126015378Y-120291851D01*
X126015379Y-120291852D01*
X126134325Y-120423955D01*
X126138747Y-120428866D01*
X126237843Y-120500864D01*
X126276893Y-120529235D01*
X126293248Y-120541118D01*
X126299276Y-120543802D01*
X126299278Y-120543803D01*
X126450498Y-120611130D01*
X126467712Y-120618794D01*
X126561113Y-120638647D01*
X126648056Y-120657128D01*
X126648061Y-120657128D01*
X126654513Y-120658500D01*
X126845487Y-120658500D01*
X126851939Y-120657128D01*
X126851944Y-120657128D01*
X126938887Y-120638647D01*
X127032288Y-120618794D01*
X127049502Y-120611130D01*
X127200722Y-120543803D01*
X127200724Y-120543802D01*
X127206752Y-120541118D01*
X127223108Y-120529235D01*
X127262157Y-120500864D01*
X127361253Y-120428866D01*
X127365675Y-120423955D01*
X127484621Y-120291852D01*
X127484622Y-120291851D01*
X127489040Y-120286944D01*
X127561433Y-120161556D01*
X127581223Y-120127279D01*
X127581224Y-120127278D01*
X127584527Y-120121556D01*
X127643542Y-119939928D01*
X127663504Y-119750000D01*
X127643542Y-119560072D01*
X127584527Y-119378444D01*
X127489040Y-119213056D01*
X127481326Y-119204488D01*
X127365675Y-119076045D01*
X127365674Y-119076044D01*
X127361253Y-119071134D01*
X127262157Y-118999136D01*
X127212094Y-118962763D01*
X127212093Y-118962762D01*
X127206752Y-118958882D01*
X127200724Y-118956198D01*
X127200722Y-118956197D01*
X127141882Y-118930000D01*
X153511693Y-118930000D01*
X153530885Y-119149371D01*
X153587880Y-119362076D01*
X153607262Y-119403640D01*
X153678618Y-119556666D01*
X153678621Y-119556671D01*
X153680944Y-119561653D01*
X153684100Y-119566160D01*
X153684101Y-119566162D01*
X153786138Y-119711885D01*
X153807251Y-119742038D01*
X153962962Y-119897749D01*
X153967471Y-119900906D01*
X153967473Y-119900908D01*
X154023199Y-119939928D01*
X154143346Y-120024056D01*
X154342924Y-120117120D01*
X154555629Y-120174115D01*
X154775000Y-120193307D01*
X154994371Y-120174115D01*
X155207076Y-120117120D01*
X155406654Y-120024056D01*
X155526801Y-119939928D01*
X155582527Y-119900908D01*
X155582529Y-119900906D01*
X155587038Y-119897749D01*
X155742749Y-119742038D01*
X155763863Y-119711885D01*
X155865899Y-119566162D01*
X155865900Y-119566160D01*
X155869056Y-119561653D01*
X155871379Y-119556671D01*
X155871382Y-119556666D01*
X155942738Y-119403640D01*
X155962120Y-119362076D01*
X156019115Y-119149371D01*
X156038307Y-118930000D01*
X156019115Y-118710629D01*
X155962120Y-118497924D01*
X155911177Y-118388676D01*
X155871382Y-118303334D01*
X155871379Y-118303329D01*
X155869056Y-118298347D01*
X155815799Y-118222288D01*
X155745908Y-118122473D01*
X155745906Y-118122470D01*
X155742749Y-118117962D01*
X155587038Y-117962251D01*
X155481300Y-117888212D01*
X155436973Y-117832756D01*
X155429664Y-117762136D01*
X155461695Y-117698776D01*
X155481301Y-117681787D01*
X155510653Y-117661235D01*
X155587038Y-117607749D01*
X155742749Y-117452038D01*
X155869056Y-117271653D01*
X155871379Y-117266671D01*
X155871382Y-117266666D01*
X155959795Y-117077061D01*
X155962120Y-117072076D01*
X156019115Y-116859371D01*
X156038307Y-116640000D01*
X156019115Y-116420629D01*
X155962120Y-116207924D01*
X155918585Y-116114562D01*
X155871382Y-116013334D01*
X155871379Y-116013329D01*
X155869056Y-116008347D01*
X155865899Y-116003838D01*
X155745908Y-115832473D01*
X155745906Y-115832470D01*
X155742749Y-115827962D01*
X155587038Y-115672251D01*
X155565441Y-115657128D01*
X155431012Y-115563000D01*
X155406654Y-115545944D01*
X155207076Y-115452880D01*
X154994371Y-115395885D01*
X154775000Y-115376693D01*
X154555629Y-115395885D01*
X154342924Y-115452880D01*
X154261167Y-115491004D01*
X154148334Y-115543618D01*
X154148329Y-115543621D01*
X154143347Y-115545944D01*
X154138840Y-115549100D01*
X154138838Y-115549101D01*
X153967473Y-115669092D01*
X153967470Y-115669094D01*
X153962962Y-115672251D01*
X153807251Y-115827962D01*
X153804094Y-115832470D01*
X153804092Y-115832473D01*
X153684101Y-116003838D01*
X153680944Y-116008347D01*
X153678621Y-116013329D01*
X153678618Y-116013334D01*
X153631415Y-116114562D01*
X153587880Y-116207924D01*
X153530885Y-116420629D01*
X153511693Y-116640000D01*
X153530885Y-116859371D01*
X153587880Y-117072076D01*
X153590205Y-117077061D01*
X153678618Y-117266666D01*
X153678621Y-117266671D01*
X153680944Y-117271653D01*
X153807251Y-117452038D01*
X153962962Y-117607749D01*
X154039348Y-117661235D01*
X154068699Y-117681787D01*
X154113027Y-117737244D01*
X154120336Y-117807864D01*
X154088305Y-117871224D01*
X154068699Y-117888213D01*
X153967473Y-117959092D01*
X153967470Y-117959094D01*
X153962962Y-117962251D01*
X153807251Y-118117962D01*
X153804094Y-118122470D01*
X153804092Y-118122473D01*
X153734201Y-118222288D01*
X153680944Y-118298347D01*
X153678621Y-118303329D01*
X153678618Y-118303334D01*
X153638823Y-118388676D01*
X153587880Y-118497924D01*
X153530885Y-118710629D01*
X153511693Y-118930000D01*
X127141882Y-118930000D01*
X127038319Y-118883891D01*
X127038318Y-118883891D01*
X127032288Y-118881206D01*
X126938888Y-118861353D01*
X126851944Y-118842872D01*
X126851939Y-118842872D01*
X126845487Y-118841500D01*
X126654513Y-118841500D01*
X126648061Y-118842872D01*
X126648056Y-118842872D01*
X126561112Y-118861353D01*
X126467712Y-118881206D01*
X126461682Y-118883891D01*
X126461681Y-118883891D01*
X126299278Y-118956197D01*
X126299276Y-118956198D01*
X126293248Y-118958882D01*
X126287907Y-118962762D01*
X126287906Y-118962763D01*
X126237843Y-118999136D01*
X126138747Y-119071134D01*
X126134326Y-119076044D01*
X126134325Y-119076045D01*
X126018675Y-119204488D01*
X126010960Y-119213056D01*
X125915473Y-119378444D01*
X125856458Y-119560072D01*
X125836496Y-119750000D01*
X90438824Y-119750000D01*
X90413175Y-119580401D01*
X90410972Y-119574415D01*
X90410971Y-119574409D01*
X90348140Y-119403640D01*
X90348138Y-119403635D01*
X90345937Y-119397654D01*
X90265981Y-119268699D01*
X90246688Y-119237582D01*
X90246687Y-119237581D01*
X90243326Y-119232160D01*
X90121757Y-119103603D01*
X90113919Y-119095315D01*
X90109534Y-119090678D01*
X89950025Y-118978989D01*
X89897356Y-118956197D01*
X89777175Y-118904190D01*
X89777171Y-118904189D01*
X89771316Y-118901655D01*
X89765069Y-118900350D01*
X89765066Y-118900349D01*
X89585443Y-118862824D01*
X89585438Y-118862823D01*
X89580707Y-118861835D01*
X89574315Y-118861500D01*
X89318999Y-118861500D01*
X89250878Y-118841498D01*
X89204385Y-118787842D01*
X89194281Y-118717568D01*
X89200300Y-118693234D01*
X89239756Y-118582428D01*
X89239757Y-118582422D01*
X89242119Y-118575790D01*
X89251999Y-118492939D01*
X89262762Y-118402673D01*
X89263596Y-118395680D01*
X89261297Y-118373806D01*
X89245372Y-118222288D01*
X89245371Y-118222286D01*
X89244636Y-118215288D01*
X89186182Y-118043579D01*
X89138546Y-117966148D01*
X89094834Y-117895095D01*
X89094832Y-117895092D01*
X89091138Y-117889088D01*
X89086207Y-117884053D01*
X89086205Y-117884050D01*
X88969157Y-117764525D01*
X88969156Y-117764524D01*
X88964229Y-117759493D01*
X88811762Y-117661235D01*
X88805142Y-117658826D01*
X88805139Y-117658824D01*
X88647934Y-117601606D01*
X88647933Y-117601606D01*
X88641315Y-117599197D01*
X88501231Y-117581500D01*
X88404390Y-117581500D01*
X88269745Y-117596603D01*
X88263092Y-117598920D01*
X88263091Y-117598920D01*
X88105106Y-117653936D01*
X88105103Y-117653938D01*
X88098448Y-117656255D01*
X88092469Y-117659991D01*
X88030400Y-117698776D01*
X87944624Y-117752374D01*
X87939628Y-117757335D01*
X87939627Y-117757336D01*
X87820915Y-117875222D01*
X87820912Y-117875226D01*
X87815918Y-117880185D01*
X87718727Y-118033334D01*
X87716362Y-118039976D01*
X87660243Y-118197575D01*
X87660242Y-118197580D01*
X87657881Y-118204210D01*
X87636404Y-118384320D01*
X87637140Y-118391323D01*
X87637140Y-118391324D01*
X87646116Y-118476720D01*
X87655364Y-118564712D01*
X87713818Y-118736421D01*
X87808862Y-118890912D01*
X87809352Y-118891412D01*
X87834599Y-118955074D01*
X87820938Y-119024744D01*
X87791130Y-119062314D01*
X87689559Y-119149371D01*
X87682302Y-119155591D01*
X87678391Y-119160633D01*
X87678390Y-119160634D01*
X87637727Y-119213056D01*
X87562954Y-119309453D01*
X87560138Y-119315176D01*
X87560136Y-119315179D01*
X87516608Y-119403640D01*
X87476982Y-119484171D01*
X87475373Y-119490349D01*
X87475372Y-119490351D01*
X87453477Y-119574409D01*
X87427898Y-119672607D01*
X87417707Y-119867064D01*
X86117360Y-119867064D01*
X86117750Y-119859618D01*
X86121959Y-119779317D01*
X86121959Y-119779313D01*
X86122293Y-119772936D01*
X86093175Y-119580401D01*
X86090972Y-119574415D01*
X86090971Y-119574409D01*
X86028140Y-119403640D01*
X86028138Y-119403635D01*
X86025937Y-119397654D01*
X85945981Y-119268699D01*
X85926688Y-119237582D01*
X85926687Y-119237581D01*
X85923326Y-119232160D01*
X85801757Y-119103603D01*
X85793919Y-119095315D01*
X85789534Y-119090678D01*
X85630025Y-118978989D01*
X85577356Y-118956197D01*
X85457175Y-118904190D01*
X85457171Y-118904189D01*
X85451316Y-118901655D01*
X85445069Y-118900350D01*
X85445066Y-118900349D01*
X85265443Y-118862824D01*
X85265438Y-118862823D01*
X85260707Y-118861835D01*
X85254315Y-118861500D01*
X84311337Y-118861500D01*
X84242049Y-118868538D01*
X84172622Y-118875590D01*
X84172621Y-118875590D01*
X84166273Y-118876235D01*
X84125291Y-118889078D01*
X83986549Y-118932556D01*
X83986544Y-118932558D01*
X83980459Y-118934465D01*
X83929409Y-118962763D01*
X83815729Y-119025777D01*
X83815726Y-119025779D01*
X83810150Y-119028870D01*
X83805309Y-119033019D01*
X83805305Y-119033022D01*
X83669559Y-119149371D01*
X83662302Y-119155591D01*
X83658391Y-119160633D01*
X83658390Y-119160634D01*
X83617727Y-119213056D01*
X83542954Y-119309453D01*
X83540138Y-119315176D01*
X83540136Y-119315179D01*
X83496608Y-119403640D01*
X83456982Y-119484171D01*
X83455373Y-119490349D01*
X83455372Y-119490351D01*
X83433477Y-119574409D01*
X83407898Y-119672607D01*
X83397707Y-119867064D01*
X79508500Y-119867064D01*
X79508500Y-116000000D01*
X95086496Y-116000000D01*
X95087186Y-116006565D01*
X95099182Y-116120697D01*
X95106458Y-116189928D01*
X95165473Y-116371556D01*
X95168776Y-116377278D01*
X95168777Y-116377279D01*
X95202686Y-116436010D01*
X95260960Y-116536944D01*
X95265378Y-116541851D01*
X95265379Y-116541852D01*
X95302352Y-116582915D01*
X95388747Y-116678866D01*
X95543248Y-116791118D01*
X95549276Y-116793802D01*
X95549278Y-116793803D01*
X95696547Y-116859371D01*
X95717712Y-116868794D01*
X95811113Y-116888647D01*
X95898056Y-116907128D01*
X95898061Y-116907128D01*
X95904513Y-116908500D01*
X96095487Y-116908500D01*
X96101939Y-116907128D01*
X96101944Y-116907128D01*
X96188887Y-116888647D01*
X96282288Y-116868794D01*
X96303453Y-116859371D01*
X96450722Y-116793803D01*
X96450724Y-116793802D01*
X96456752Y-116791118D01*
X96611253Y-116678866D01*
X96697648Y-116582915D01*
X96734621Y-116541852D01*
X96734622Y-116541851D01*
X96739040Y-116536944D01*
X96797314Y-116436010D01*
X96831223Y-116377279D01*
X96831224Y-116377278D01*
X96834527Y-116371556D01*
X96893542Y-116189928D01*
X96900819Y-116120697D01*
X96912814Y-116006565D01*
X96913504Y-116000000D01*
X96901802Y-115888662D01*
X96894232Y-115816635D01*
X96894232Y-115816633D01*
X96893542Y-115810072D01*
X96834527Y-115628444D01*
X96827406Y-115616109D01*
X96796743Y-115563000D01*
X96780005Y-115494005D01*
X96796743Y-115437000D01*
X96831223Y-115377279D01*
X96831224Y-115377278D01*
X96834527Y-115371556D01*
X96893542Y-115189928D01*
X96903466Y-115095512D01*
X96912814Y-115006565D01*
X96913504Y-115000000D01*
X96907190Y-114939928D01*
X96894232Y-114816635D01*
X96894232Y-114816633D01*
X96893542Y-114810072D01*
X96874023Y-114750000D01*
X121086496Y-114750000D01*
X121087186Y-114756565D01*
X121097628Y-114855911D01*
X121106458Y-114939928D01*
X121165473Y-115121556D01*
X121260960Y-115286944D01*
X121265378Y-115291851D01*
X121265379Y-115291852D01*
X121359051Y-115395885D01*
X121388747Y-115428866D01*
X121466865Y-115485622D01*
X121494906Y-115505995D01*
X121543248Y-115541118D01*
X121549276Y-115543802D01*
X121549278Y-115543803D01*
X121711681Y-115616109D01*
X121717712Y-115618794D01*
X121811112Y-115638647D01*
X121898056Y-115657128D01*
X121898061Y-115657128D01*
X121904513Y-115658500D01*
X122095487Y-115658500D01*
X122101939Y-115657128D01*
X122101944Y-115657128D01*
X122188888Y-115638647D01*
X122282288Y-115618794D01*
X122288319Y-115616109D01*
X122450722Y-115543803D01*
X122450724Y-115543802D01*
X122456752Y-115541118D01*
X122505095Y-115505995D01*
X122533135Y-115485622D01*
X122611253Y-115428866D01*
X122640949Y-115395885D01*
X122734621Y-115291852D01*
X122734622Y-115291851D01*
X122739040Y-115286944D01*
X122834527Y-115121556D01*
X122893542Y-114939928D01*
X122902373Y-114855911D01*
X122912814Y-114756565D01*
X122913504Y-114750000D01*
X122900127Y-114622721D01*
X122894232Y-114566635D01*
X122894232Y-114566633D01*
X122893542Y-114560072D01*
X122834527Y-114378444D01*
X122739040Y-114213056D01*
X122724943Y-114197399D01*
X122615675Y-114076045D01*
X122615674Y-114076044D01*
X122611253Y-114071134D01*
X122456752Y-113958882D01*
X122450724Y-113956198D01*
X122450722Y-113956197D01*
X122288319Y-113883891D01*
X122288318Y-113883891D01*
X122282288Y-113881206D01*
X122188888Y-113861353D01*
X122101944Y-113842872D01*
X122101939Y-113842872D01*
X122095487Y-113841500D01*
X121904513Y-113841500D01*
X121898061Y-113842872D01*
X121898056Y-113842872D01*
X121811113Y-113861353D01*
X121717712Y-113881206D01*
X121711682Y-113883891D01*
X121711681Y-113883891D01*
X121549278Y-113956197D01*
X121549276Y-113956198D01*
X121543248Y-113958882D01*
X121388747Y-114071134D01*
X121384326Y-114076044D01*
X121384325Y-114076045D01*
X121275058Y-114197399D01*
X121260960Y-114213056D01*
X121165473Y-114378444D01*
X121106458Y-114560072D01*
X121105768Y-114566633D01*
X121105768Y-114566635D01*
X121099873Y-114622721D01*
X121086496Y-114750000D01*
X96874023Y-114750000D01*
X96834527Y-114628444D01*
X96829250Y-114619303D01*
X96742341Y-114468774D01*
X96739040Y-114463056D01*
X96611253Y-114321134D01*
X96456752Y-114208882D01*
X96450724Y-114206198D01*
X96450722Y-114206197D01*
X96288319Y-114133891D01*
X96288318Y-114133891D01*
X96282288Y-114131206D01*
X96188888Y-114111353D01*
X96101944Y-114092872D01*
X96101939Y-114092872D01*
X96095487Y-114091500D01*
X95904513Y-114091500D01*
X95898061Y-114092872D01*
X95898056Y-114092872D01*
X95811112Y-114111353D01*
X95717712Y-114131206D01*
X95711682Y-114133891D01*
X95711681Y-114133891D01*
X95549278Y-114206197D01*
X95549276Y-114206198D01*
X95543248Y-114208882D01*
X95388747Y-114321134D01*
X95260960Y-114463056D01*
X95257659Y-114468774D01*
X95170751Y-114619303D01*
X95165473Y-114628444D01*
X95106458Y-114810072D01*
X95105768Y-114816633D01*
X95105768Y-114816635D01*
X95092810Y-114939928D01*
X95086496Y-115000000D01*
X95087186Y-115006565D01*
X95096535Y-115095512D01*
X95106458Y-115189928D01*
X95165473Y-115371556D01*
X95168776Y-115377278D01*
X95168777Y-115377279D01*
X95203257Y-115437000D01*
X95219995Y-115505995D01*
X95203257Y-115563000D01*
X95172595Y-115616109D01*
X95165473Y-115628444D01*
X95106458Y-115810072D01*
X95105768Y-115816633D01*
X95105768Y-115816635D01*
X95098198Y-115888662D01*
X95086496Y-116000000D01*
X79508500Y-116000000D01*
X79508500Y-111227064D01*
X83397707Y-111227064D01*
X83426825Y-111419599D01*
X83429028Y-111425585D01*
X83429029Y-111425591D01*
X83491860Y-111596360D01*
X83491862Y-111596365D01*
X83494063Y-111602346D01*
X83596674Y-111767840D01*
X83730466Y-111909322D01*
X83889975Y-112021011D01*
X83895838Y-112023548D01*
X84062825Y-112095810D01*
X84062829Y-112095811D01*
X84068684Y-112098345D01*
X84074931Y-112099650D01*
X84074934Y-112099651D01*
X84254557Y-112137176D01*
X84254562Y-112137177D01*
X84259293Y-112138165D01*
X84265685Y-112138500D01*
X85208663Y-112138500D01*
X85277951Y-112131462D01*
X85347378Y-112124410D01*
X85347379Y-112124410D01*
X85353727Y-112123765D01*
X85434843Y-112098345D01*
X85533451Y-112067444D01*
X85533456Y-112067442D01*
X85539541Y-112065535D01*
X85682723Y-111986167D01*
X85704271Y-111974223D01*
X85704274Y-111974221D01*
X85709850Y-111971130D01*
X85714691Y-111966981D01*
X85714695Y-111966978D01*
X85852855Y-111848560D01*
X85857698Y-111844409D01*
X85977046Y-111690547D01*
X86017779Y-111607768D01*
X86060200Y-111521556D01*
X86063018Y-111515829D01*
X86064628Y-111509649D01*
X86110492Y-111333575D01*
X86110492Y-111333572D01*
X86112102Y-111327393D01*
X86117360Y-111227064D01*
X87417707Y-111227064D01*
X87446825Y-111419599D01*
X87449028Y-111425585D01*
X87449029Y-111425591D01*
X87511860Y-111596360D01*
X87511862Y-111596365D01*
X87514063Y-111602346D01*
X87616674Y-111767840D01*
X87750466Y-111909322D01*
X87770170Y-111923119D01*
X87781011Y-111930710D01*
X87825339Y-111986167D01*
X87832647Y-112056787D01*
X87815124Y-112101436D01*
X87718727Y-112253334D01*
X87716362Y-112259976D01*
X87660243Y-112417575D01*
X87660242Y-112417580D01*
X87657881Y-112424210D01*
X87636404Y-112604320D01*
X87655364Y-112784712D01*
X87713818Y-112956421D01*
X87808862Y-113110912D01*
X87813793Y-113115947D01*
X87813795Y-113115950D01*
X87930843Y-113235475D01*
X87935771Y-113240507D01*
X88088238Y-113338765D01*
X88094858Y-113341174D01*
X88094861Y-113341176D01*
X88252066Y-113398394D01*
X88258685Y-113400803D01*
X88398769Y-113418500D01*
X88495610Y-113418500D01*
X88630255Y-113403397D01*
X88644622Y-113398394D01*
X88794894Y-113346064D01*
X88794897Y-113346062D01*
X88801552Y-113343745D01*
X88809522Y-113338765D01*
X88949402Y-113251359D01*
X88955376Y-113247626D01*
X88967612Y-113235475D01*
X89079085Y-113124778D01*
X89079088Y-113124774D01*
X89084082Y-113119815D01*
X89181273Y-112966666D01*
X89191672Y-112937463D01*
X89239757Y-112802425D01*
X89239758Y-112802420D01*
X89242119Y-112795790D01*
X89263596Y-112615680D01*
X89244636Y-112435288D01*
X89200318Y-112305103D01*
X89197300Y-112234173D01*
X89233110Y-112172869D01*
X89296379Y-112140658D01*
X89319596Y-112138500D01*
X89528663Y-112138500D01*
X89597951Y-112131462D01*
X89667378Y-112124410D01*
X89667379Y-112124410D01*
X89673727Y-112123765D01*
X89754843Y-112098345D01*
X89853451Y-112067444D01*
X89853456Y-112067442D01*
X89859541Y-112065535D01*
X90002723Y-111986167D01*
X90024271Y-111974223D01*
X90024274Y-111974221D01*
X90029850Y-111971130D01*
X90034691Y-111966981D01*
X90034695Y-111966978D01*
X90172855Y-111848560D01*
X90177698Y-111844409D01*
X90297046Y-111690547D01*
X90337779Y-111607768D01*
X90380200Y-111521556D01*
X90383018Y-111515829D01*
X90384628Y-111509649D01*
X90430492Y-111333575D01*
X90430492Y-111333572D01*
X90432102Y-111327393D01*
X90437360Y-111227064D01*
X90441959Y-111139317D01*
X90441959Y-111139313D01*
X90442293Y-111132936D01*
X90413175Y-110940401D01*
X90410972Y-110934415D01*
X90410971Y-110934409D01*
X90397624Y-110898134D01*
X158891500Y-110898134D01*
X158898255Y-110960316D01*
X158949385Y-111096705D01*
X159036739Y-111213261D01*
X159153295Y-111300615D01*
X159289684Y-111351745D01*
X159351866Y-111358500D01*
X161148134Y-111358500D01*
X161210316Y-111351745D01*
X161346705Y-111300615D01*
X161463261Y-111213261D01*
X161550615Y-111096705D01*
X161572799Y-111037529D01*
X161594598Y-110979382D01*
X161637240Y-110922618D01*
X161703802Y-110897918D01*
X161773150Y-110913126D01*
X161807817Y-110941114D01*
X161836250Y-110973938D01*
X162008126Y-111116632D01*
X162201000Y-111229338D01*
X162409692Y-111309030D01*
X162414760Y-111310061D01*
X162414763Y-111310062D01*
X162499948Y-111327393D01*
X162628597Y-111353567D01*
X162633772Y-111353757D01*
X162633774Y-111353757D01*
X162846673Y-111361564D01*
X162846677Y-111361564D01*
X162851837Y-111361753D01*
X162856957Y-111361097D01*
X162856959Y-111361097D01*
X163068288Y-111334025D01*
X163068289Y-111334025D01*
X163073416Y-111333368D01*
X163078366Y-111331883D01*
X163282429Y-111270661D01*
X163282434Y-111270659D01*
X163287384Y-111269174D01*
X163487994Y-111170896D01*
X163669860Y-111041173D01*
X163828096Y-110883489D01*
X163958453Y-110702077D01*
X163959776Y-110703028D01*
X164006645Y-110659857D01*
X164076580Y-110647625D01*
X164142026Y-110675144D01*
X164169875Y-110706994D01*
X164229987Y-110805088D01*
X164376250Y-110973938D01*
X164548126Y-111116632D01*
X164741000Y-111229338D01*
X164949692Y-111309030D01*
X164954760Y-111310061D01*
X164954763Y-111310062D01*
X165039948Y-111327393D01*
X165168597Y-111353567D01*
X165173772Y-111353757D01*
X165173774Y-111353757D01*
X165386673Y-111361564D01*
X165386677Y-111361564D01*
X165391837Y-111361753D01*
X165396957Y-111361097D01*
X165396959Y-111361097D01*
X165608288Y-111334025D01*
X165608289Y-111334025D01*
X165613416Y-111333368D01*
X165618366Y-111331883D01*
X165822429Y-111270661D01*
X165822434Y-111270659D01*
X165827384Y-111269174D01*
X166027994Y-111170896D01*
X166209860Y-111041173D01*
X166368096Y-110883489D01*
X166498453Y-110702077D01*
X166499640Y-110702930D01*
X166546960Y-110659362D01*
X166616897Y-110647145D01*
X166682338Y-110674678D01*
X166710166Y-110706511D01*
X166767694Y-110800388D01*
X166773777Y-110808699D01*
X166913213Y-110969667D01*
X166920580Y-110976883D01*
X167084434Y-111112916D01*
X167092881Y-111118831D01*
X167276756Y-111226279D01*
X167286042Y-111230729D01*
X167485001Y-111306703D01*
X167494899Y-111309579D01*
X167598250Y-111330606D01*
X167612299Y-111329410D01*
X167616000Y-111319065D01*
X167616000Y-111318517D01*
X168124000Y-111318517D01*
X168128064Y-111332359D01*
X168141478Y-111334393D01*
X168148184Y-111333534D01*
X168158262Y-111331392D01*
X168362255Y-111270191D01*
X168371842Y-111266433D01*
X168563095Y-111172739D01*
X168571945Y-111167464D01*
X168745328Y-111043792D01*
X168753200Y-111037139D01*
X168904052Y-110886812D01*
X168910730Y-110878965D01*
X169035003Y-110706020D01*
X169040313Y-110697183D01*
X169134670Y-110506267D01*
X169138469Y-110496672D01*
X169200377Y-110292910D01*
X169202555Y-110282837D01*
X169203986Y-110271962D01*
X169201775Y-110257778D01*
X169188617Y-110254000D01*
X168142115Y-110254000D01*
X168126876Y-110258475D01*
X168125671Y-110259865D01*
X168124000Y-110267548D01*
X168124000Y-111318517D01*
X167616000Y-111318517D01*
X167616000Y-109727885D01*
X168124000Y-109727885D01*
X168128475Y-109743124D01*
X168129865Y-109744329D01*
X168137548Y-109746000D01*
X169188344Y-109746000D01*
X169201875Y-109742027D01*
X169203180Y-109732947D01*
X169161214Y-109565875D01*
X169157894Y-109556124D01*
X169072972Y-109360814D01*
X169068105Y-109351739D01*
X168952426Y-109172926D01*
X168946136Y-109164757D01*
X168802806Y-109007240D01*
X168795273Y-109000215D01*
X168628139Y-108868222D01*
X168619552Y-108862517D01*
X168433117Y-108759599D01*
X168423705Y-108755369D01*
X168222959Y-108684280D01*
X168212988Y-108681646D01*
X168141837Y-108668972D01*
X168128540Y-108670432D01*
X168124000Y-108684989D01*
X168124000Y-109727885D01*
X167616000Y-109727885D01*
X167616000Y-108683102D01*
X167612082Y-108669758D01*
X167597806Y-108667771D01*
X167559324Y-108673660D01*
X167549288Y-108676051D01*
X167346868Y-108742212D01*
X167337359Y-108746209D01*
X167148463Y-108844542D01*
X167139738Y-108850036D01*
X166969433Y-108977905D01*
X166961726Y-108984748D01*
X166814590Y-109138717D01*
X166808109Y-109146722D01*
X166703498Y-109300074D01*
X166648587Y-109345076D01*
X166578062Y-109353247D01*
X166514315Y-109321993D01*
X166493618Y-109297509D01*
X166412822Y-109172617D01*
X166412820Y-109172614D01*
X166410014Y-109168277D01*
X166259670Y-109003051D01*
X166255619Y-108999852D01*
X166255615Y-108999848D01*
X166088414Y-108867800D01*
X166088410Y-108867798D01*
X166084359Y-108864598D01*
X166048028Y-108844542D01*
X166032136Y-108835769D01*
X165888789Y-108756638D01*
X165883920Y-108754914D01*
X165883916Y-108754912D01*
X165683087Y-108683795D01*
X165683083Y-108683794D01*
X165678212Y-108682069D01*
X165673119Y-108681162D01*
X165673116Y-108681161D01*
X165463373Y-108643800D01*
X165463367Y-108643799D01*
X165458284Y-108642894D01*
X165384452Y-108641992D01*
X165240081Y-108640228D01*
X165240079Y-108640228D01*
X165234911Y-108640165D01*
X165014091Y-108673955D01*
X164801756Y-108743357D01*
X164603607Y-108846507D01*
X164599474Y-108849610D01*
X164599471Y-108849612D01*
X164429100Y-108977530D01*
X164424965Y-108980635D01*
X164421393Y-108984373D01*
X164313729Y-109097037D01*
X164270629Y-109142138D01*
X164163201Y-109299621D01*
X164108293Y-109344621D01*
X164037768Y-109352792D01*
X163974021Y-109321538D01*
X163953324Y-109297054D01*
X163872822Y-109172617D01*
X163872820Y-109172614D01*
X163870014Y-109168277D01*
X163719670Y-109003051D01*
X163715619Y-108999852D01*
X163715615Y-108999848D01*
X163548414Y-108867800D01*
X163548410Y-108867798D01*
X163544359Y-108864598D01*
X163508028Y-108844542D01*
X163492136Y-108835769D01*
X163348789Y-108756638D01*
X163343920Y-108754914D01*
X163343916Y-108754912D01*
X163143087Y-108683795D01*
X163143083Y-108683794D01*
X163138212Y-108682069D01*
X163133119Y-108681162D01*
X163133116Y-108681161D01*
X162923373Y-108643800D01*
X162923367Y-108643799D01*
X162918284Y-108642894D01*
X162844452Y-108641992D01*
X162700081Y-108640228D01*
X162700079Y-108640228D01*
X162694911Y-108640165D01*
X162474091Y-108673955D01*
X162261756Y-108743357D01*
X162063607Y-108846507D01*
X162059474Y-108849610D01*
X162059471Y-108849612D01*
X161889100Y-108977530D01*
X161884965Y-108980635D01*
X161828537Y-109039684D01*
X161804283Y-109065064D01*
X161742759Y-109100494D01*
X161671846Y-109097037D01*
X161614060Y-109055791D01*
X161595207Y-109022243D01*
X161553767Y-108911703D01*
X161550615Y-108903295D01*
X161463261Y-108786739D01*
X161346705Y-108699385D01*
X161210316Y-108648255D01*
X161148134Y-108641500D01*
X159351866Y-108641500D01*
X159289684Y-108648255D01*
X159153295Y-108699385D01*
X159036739Y-108786739D01*
X158949385Y-108903295D01*
X158898255Y-109039684D01*
X158891500Y-109101866D01*
X158891500Y-110898134D01*
X90397624Y-110898134D01*
X90348140Y-110763640D01*
X90348138Y-110763635D01*
X90345937Y-110757654D01*
X90277418Y-110647145D01*
X90246688Y-110597582D01*
X90246687Y-110597581D01*
X90243326Y-110592160D01*
X90109534Y-110450678D01*
X89950025Y-110338989D01*
X89902013Y-110318212D01*
X89777175Y-110264190D01*
X89777171Y-110264189D01*
X89771316Y-110261655D01*
X89765069Y-110260350D01*
X89765066Y-110260349D01*
X89585443Y-110222824D01*
X89585438Y-110222823D01*
X89580707Y-110221835D01*
X89574315Y-110221500D01*
X88331337Y-110221500D01*
X88262049Y-110228538D01*
X88192622Y-110235590D01*
X88192621Y-110235590D01*
X88186273Y-110236235D01*
X88129939Y-110253889D01*
X88006549Y-110292556D01*
X88006544Y-110292558D01*
X88000459Y-110294465D01*
X87924713Y-110336452D01*
X87835729Y-110385777D01*
X87835726Y-110385779D01*
X87830150Y-110388870D01*
X87825309Y-110393019D01*
X87825305Y-110393022D01*
X87687145Y-110511440D01*
X87682302Y-110515591D01*
X87562954Y-110669453D01*
X87560138Y-110675176D01*
X87560136Y-110675179D01*
X87516608Y-110763640D01*
X87476982Y-110844171D01*
X87475373Y-110850349D01*
X87475372Y-110850351D01*
X87444198Y-110970032D01*
X87427898Y-111032607D01*
X87424539Y-111096705D01*
X87418807Y-111206081D01*
X87417707Y-111227064D01*
X86117360Y-111227064D01*
X86121959Y-111139317D01*
X86121959Y-111139313D01*
X86122293Y-111132936D01*
X86093175Y-110940401D01*
X86090972Y-110934415D01*
X86090971Y-110934409D01*
X86028140Y-110763640D01*
X86028138Y-110763635D01*
X86025937Y-110757654D01*
X85957418Y-110647145D01*
X85926688Y-110597582D01*
X85926687Y-110597581D01*
X85923326Y-110592160D01*
X85789534Y-110450678D01*
X85630025Y-110338989D01*
X85582013Y-110318212D01*
X85457175Y-110264190D01*
X85457171Y-110264189D01*
X85451316Y-110261655D01*
X85445069Y-110260350D01*
X85445066Y-110260349D01*
X85265443Y-110222824D01*
X85265438Y-110222823D01*
X85260707Y-110221835D01*
X85254315Y-110221500D01*
X84311337Y-110221500D01*
X84242049Y-110228538D01*
X84172622Y-110235590D01*
X84172621Y-110235590D01*
X84166273Y-110236235D01*
X84109939Y-110253889D01*
X83986549Y-110292556D01*
X83986544Y-110292558D01*
X83980459Y-110294465D01*
X83904713Y-110336452D01*
X83815729Y-110385777D01*
X83815726Y-110385779D01*
X83810150Y-110388870D01*
X83805309Y-110393019D01*
X83805305Y-110393022D01*
X83667145Y-110511440D01*
X83662302Y-110515591D01*
X83542954Y-110669453D01*
X83540138Y-110675176D01*
X83540136Y-110675179D01*
X83496608Y-110763640D01*
X83456982Y-110844171D01*
X83455373Y-110850349D01*
X83455372Y-110850351D01*
X83424198Y-110970032D01*
X83407898Y-111032607D01*
X83404539Y-111096705D01*
X83398807Y-111206081D01*
X83397707Y-111227064D01*
X79508500Y-111227064D01*
X79508500Y-108000000D01*
X101086496Y-108000000D01*
X101106458Y-108189928D01*
X101165473Y-108371556D01*
X101260960Y-108536944D01*
X101265378Y-108541851D01*
X101265379Y-108541852D01*
X101384325Y-108673955D01*
X101388747Y-108678866D01*
X101396199Y-108684280D01*
X101529815Y-108781358D01*
X101543248Y-108791118D01*
X101549276Y-108793802D01*
X101549278Y-108793803D01*
X101711681Y-108866109D01*
X101717712Y-108868794D01*
X101811113Y-108888647D01*
X101898056Y-108907128D01*
X101898061Y-108907128D01*
X101904513Y-108908500D01*
X102095487Y-108908500D01*
X102101939Y-108907128D01*
X102101944Y-108907128D01*
X102188887Y-108888647D01*
X102282288Y-108868794D01*
X102288319Y-108866109D01*
X102450722Y-108793803D01*
X102450724Y-108793802D01*
X102456752Y-108791118D01*
X102470186Y-108781358D01*
X102603801Y-108684280D01*
X102611253Y-108678866D01*
X102615675Y-108673955D01*
X102734621Y-108541852D01*
X102734622Y-108541851D01*
X102739040Y-108536944D01*
X102834527Y-108371556D01*
X102893542Y-108189928D01*
X102913504Y-108000000D01*
X102893542Y-107810072D01*
X102834527Y-107628444D01*
X102739040Y-107463056D01*
X102611253Y-107321134D01*
X102456752Y-107208882D01*
X102450724Y-107206198D01*
X102450722Y-107206197D01*
X102288319Y-107133891D01*
X102288318Y-107133891D01*
X102282288Y-107131206D01*
X102188888Y-107111353D01*
X102101944Y-107092872D01*
X102101939Y-107092872D01*
X102095487Y-107091500D01*
X101904513Y-107091500D01*
X101898061Y-107092872D01*
X101898056Y-107092872D01*
X101811112Y-107111353D01*
X101717712Y-107131206D01*
X101711682Y-107133891D01*
X101711681Y-107133891D01*
X101549278Y-107206197D01*
X101549276Y-107206198D01*
X101543248Y-107208882D01*
X101388747Y-107321134D01*
X101260960Y-107463056D01*
X101165473Y-107628444D01*
X101106458Y-107810072D01*
X101086496Y-108000000D01*
X79508500Y-108000000D01*
X79508500Y-101634500D01*
X79528502Y-101566379D01*
X79582158Y-101519886D01*
X79634500Y-101508500D01*
X172115500Y-101508500D01*
X172183621Y-101528502D01*
G37*
%TD.AperFunction*%
%TD*%
M02*
