%TF.GenerationSoftware,KiCad,Pcbnew,6.0.9+dfsg-1~bpo11+1*%
%TF.CreationDate,2022-12-31T19:32:48-06:00*%
%TF.ProjectId,Modular,4d6f6475-6c61-4722-9e6b-696361645f70,rev?*%
%TF.SameCoordinates,Original*%
%TF.FileFunction,Legend,Top*%
%TF.FilePolarity,Positive*%
%FSLAX46Y46*%
G04 Gerber Fmt 4.6, Leading zero omitted, Abs format (unit mm)*
G04 Created by KiCad (PCBNEW 6.0.9+dfsg-1~bpo11+1) date 2022-12-31 19:32:48*
%MOMM*%
%LPD*%
G01*
G04 APERTURE LIST*
%ADD10C,0.150000*%
%ADD11C,0.120000*%
G04 APERTURE END LIST*
D10*
X159750000Y-107261904D02*
X159702380Y-107357142D01*
X159702380Y-107500000D01*
X159750000Y-107642857D01*
X159845238Y-107738095D01*
X159940476Y-107785714D01*
X160130952Y-107833333D01*
X160273809Y-107833333D01*
X160464285Y-107785714D01*
X160559523Y-107738095D01*
X160654761Y-107642857D01*
X160702380Y-107500000D01*
X160702380Y-107404761D01*
X160654761Y-107261904D01*
X160607142Y-107214285D01*
X160273809Y-107214285D01*
X160273809Y-107404761D01*
X160702380Y-106785714D02*
X159702380Y-106785714D01*
X160702380Y-106214285D01*
X159702380Y-106214285D01*
X160702380Y-105738095D02*
X159702380Y-105738095D01*
X159702380Y-105500000D01*
X159750000Y-105357142D01*
X159845238Y-105261904D01*
X159940476Y-105214285D01*
X160130952Y-105166666D01*
X160273809Y-105166666D01*
X160464285Y-105214285D01*
X160559523Y-105261904D01*
X160654761Y-105357142D01*
X160702380Y-105500000D01*
X160702380Y-105738095D01*
X85238095Y-121500000D02*
X85142857Y-121452380D01*
X85000000Y-121452380D01*
X84857142Y-121500000D01*
X84761904Y-121595238D01*
X84714285Y-121690476D01*
X84666666Y-121880952D01*
X84666666Y-122023809D01*
X84714285Y-122214285D01*
X84761904Y-122309523D01*
X84857142Y-122404761D01*
X85000000Y-122452380D01*
X85095238Y-122452380D01*
X85238095Y-122404761D01*
X85285714Y-122357142D01*
X85285714Y-122023809D01*
X85095238Y-122023809D01*
X85714285Y-122452380D02*
X85714285Y-121452380D01*
X86285714Y-122452380D01*
X86285714Y-121452380D01*
X86761904Y-122452380D02*
X86761904Y-121452380D01*
X87000000Y-121452380D01*
X87142857Y-121500000D01*
X87238095Y-121595238D01*
X87285714Y-121690476D01*
X87333333Y-121880952D01*
X87333333Y-122023809D01*
X87285714Y-122214285D01*
X87238095Y-122309523D01*
X87142857Y-122404761D01*
X87000000Y-122452380D01*
X86761904Y-122452380D01*
X85809523Y-133702380D02*
X85333333Y-133702380D01*
X85285714Y-134178571D01*
X85333333Y-134130952D01*
X85428571Y-134083333D01*
X85666666Y-134083333D01*
X85761904Y-134130952D01*
X85809523Y-134178571D01*
X85857142Y-134273809D01*
X85857142Y-134511904D01*
X85809523Y-134607142D01*
X85761904Y-134654761D01*
X85666666Y-134702380D01*
X85428571Y-134702380D01*
X85333333Y-134654761D01*
X85285714Y-134607142D01*
X86142857Y-133702380D02*
X86476190Y-134702380D01*
X86809523Y-133702380D01*
X164702380Y-107761904D02*
X164702380Y-107190476D01*
X165702380Y-107476190D02*
X164702380Y-107476190D01*
X164702380Y-106952380D02*
X165702380Y-106285714D01*
X164702380Y-106285714D02*
X165702380Y-106952380D01*
X167452380Y-107690476D02*
X167452380Y-107071428D01*
X167833333Y-107404761D01*
X167833333Y-107261904D01*
X167880952Y-107166666D01*
X167928571Y-107119047D01*
X168023809Y-107071428D01*
X168261904Y-107071428D01*
X168357142Y-107119047D01*
X168404761Y-107166666D01*
X168452380Y-107261904D01*
X168452380Y-107547619D01*
X168404761Y-107642857D01*
X168357142Y-107690476D01*
X167785714Y-106738095D02*
X168452380Y-106500000D01*
X167785714Y-106261904D01*
X167452380Y-105976190D02*
X167452380Y-105357142D01*
X167833333Y-105690476D01*
X167833333Y-105547619D01*
X167880952Y-105452380D01*
X167928571Y-105404761D01*
X168023809Y-105357142D01*
X168261904Y-105357142D01*
X168357142Y-105404761D01*
X168404761Y-105452380D01*
X168452380Y-105547619D01*
X168452380Y-105833333D01*
X168404761Y-105928571D01*
X168357142Y-105976190D01*
X163202380Y-107166666D02*
X162726190Y-107500000D01*
X163202380Y-107738095D02*
X162202380Y-107738095D01*
X162202380Y-107357142D01*
X162250000Y-107261904D01*
X162297619Y-107214285D01*
X162392857Y-107166666D01*
X162535714Y-107166666D01*
X162630952Y-107214285D01*
X162678571Y-107261904D01*
X162726190Y-107357142D01*
X162726190Y-107738095D01*
X162202380Y-106833333D02*
X163202380Y-106166666D01*
X162202380Y-106166666D02*
X163202380Y-106833333D01*
%TO.C,RST1*%
X110976190Y-106212380D02*
X110642857Y-105736190D01*
X110404761Y-106212380D02*
X110404761Y-105212380D01*
X110785714Y-105212380D01*
X110880952Y-105260000D01*
X110928571Y-105307619D01*
X110976190Y-105402857D01*
X110976190Y-105545714D01*
X110928571Y-105640952D01*
X110880952Y-105688571D01*
X110785714Y-105736190D01*
X110404761Y-105736190D01*
X111357142Y-106164761D02*
X111500000Y-106212380D01*
X111738095Y-106212380D01*
X111833333Y-106164761D01*
X111880952Y-106117142D01*
X111928571Y-106021904D01*
X111928571Y-105926666D01*
X111880952Y-105831428D01*
X111833333Y-105783809D01*
X111738095Y-105736190D01*
X111547619Y-105688571D01*
X111452380Y-105640952D01*
X111404761Y-105593333D01*
X111357142Y-105498095D01*
X111357142Y-105402857D01*
X111404761Y-105307619D01*
X111452380Y-105260000D01*
X111547619Y-105212380D01*
X111785714Y-105212380D01*
X111928571Y-105260000D01*
X112214285Y-105212380D02*
X112785714Y-105212380D01*
X112500000Y-106212380D02*
X112500000Y-105212380D01*
X113642857Y-106212380D02*
X113071428Y-106212380D01*
X113357142Y-106212380D02*
X113357142Y-105212380D01*
X113261904Y-105355238D01*
X113166666Y-105450476D01*
X113071428Y-105498095D01*
%TO.C,U1*%
X139238095Y-104402380D02*
X139238095Y-105211904D01*
X139285714Y-105307142D01*
X139333333Y-105354761D01*
X139428571Y-105402380D01*
X139619047Y-105402380D01*
X139714285Y-105354761D01*
X139761904Y-105307142D01*
X139809523Y-105211904D01*
X139809523Y-104402380D01*
X140809523Y-105402380D02*
X140238095Y-105402380D01*
X140523809Y-105402380D02*
X140523809Y-104402380D01*
X140428571Y-104545238D01*
X140333333Y-104640476D01*
X140238095Y-104688095D01*
X135238095Y-109416666D02*
X135714285Y-109416666D01*
X135142857Y-109702380D02*
X135476190Y-108702380D01*
X135809523Y-109702380D01*
X136142857Y-109035714D02*
X136142857Y-109702380D01*
X136142857Y-109130952D02*
X136190476Y-109083333D01*
X136285714Y-109035714D01*
X136428571Y-109035714D01*
X136523809Y-109083333D01*
X136571428Y-109178571D01*
X136571428Y-109702380D01*
X136904761Y-109035714D02*
X137285714Y-109035714D01*
X137047619Y-108702380D02*
X137047619Y-109559523D01*
X137095238Y-109654761D01*
X137190476Y-109702380D01*
X137285714Y-109702380D01*
X138000000Y-109654761D02*
X137904761Y-109702380D01*
X137714285Y-109702380D01*
X137619047Y-109654761D01*
X137571428Y-109559523D01*
X137571428Y-109178571D01*
X137619047Y-109083333D01*
X137714285Y-109035714D01*
X137904761Y-109035714D01*
X138000000Y-109083333D01*
X138047619Y-109178571D01*
X138047619Y-109273809D01*
X137571428Y-109369047D01*
X138476190Y-109035714D02*
X138476190Y-109702380D01*
X138476190Y-109130952D02*
X138523809Y-109083333D01*
X138619047Y-109035714D01*
X138761904Y-109035714D01*
X138857142Y-109083333D01*
X138904761Y-109178571D01*
X138904761Y-109702380D01*
X139380952Y-109035714D02*
X139380952Y-109702380D01*
X139380952Y-109130952D02*
X139428571Y-109083333D01*
X139523809Y-109035714D01*
X139666666Y-109035714D01*
X139761904Y-109083333D01*
X139809523Y-109178571D01*
X139809523Y-109702380D01*
X140714285Y-109702380D02*
X140714285Y-109178571D01*
X140666666Y-109083333D01*
X140571428Y-109035714D01*
X140380952Y-109035714D01*
X140285714Y-109083333D01*
X140714285Y-109654761D02*
X140619047Y-109702380D01*
X140380952Y-109702380D01*
X140285714Y-109654761D01*
X140238095Y-109559523D01*
X140238095Y-109464285D01*
X140285714Y-109369047D01*
X140380952Y-109321428D01*
X140619047Y-109321428D01*
X140714285Y-109273809D01*
X141904761Y-109416666D02*
X142380952Y-109416666D01*
X141809523Y-109702380D02*
X142142857Y-108702380D01*
X142476190Y-109702380D01*
X142809523Y-109702380D02*
X142809523Y-109035714D01*
X142809523Y-109226190D02*
X142857142Y-109130952D01*
X142904761Y-109083333D01*
X143000000Y-109035714D01*
X143095238Y-109035714D01*
X143809523Y-109654761D02*
X143714285Y-109702380D01*
X143523809Y-109702380D01*
X143428571Y-109654761D01*
X143380952Y-109559523D01*
X143380952Y-109178571D01*
X143428571Y-109083333D01*
X143523809Y-109035714D01*
X143714285Y-109035714D01*
X143809523Y-109083333D01*
X143857142Y-109178571D01*
X143857142Y-109273809D01*
X143380952Y-109369047D01*
X144714285Y-109702380D02*
X144714285Y-109178571D01*
X144666666Y-109083333D01*
X144571428Y-109035714D01*
X144380952Y-109035714D01*
X144285714Y-109083333D01*
X144714285Y-109654761D02*
X144619047Y-109702380D01*
X144380952Y-109702380D01*
X144285714Y-109654761D01*
X144238095Y-109559523D01*
X144238095Y-109464285D01*
X144285714Y-109369047D01*
X144380952Y-109321428D01*
X144619047Y-109321428D01*
X144714285Y-109273809D01*
%TO.C,J1*%
X86502380Y-115833333D02*
X87216666Y-115833333D01*
X87359523Y-115880952D01*
X87454761Y-115976190D01*
X87502380Y-116119047D01*
X87502380Y-116214285D01*
X87502380Y-114833333D02*
X87502380Y-115404761D01*
X87502380Y-115119047D02*
X86502380Y-115119047D01*
X86645238Y-115214285D01*
X86740476Y-115309523D01*
X86788095Y-115404761D01*
%TO.C,U2*%
X102738095Y-121452380D02*
X102738095Y-122261904D01*
X102785714Y-122357142D01*
X102833333Y-122404761D01*
X102928571Y-122452380D01*
X103119047Y-122452380D01*
X103214285Y-122404761D01*
X103261904Y-122357142D01*
X103309523Y-122261904D01*
X103309523Y-121452380D01*
X103738095Y-121547619D02*
X103785714Y-121500000D01*
X103880952Y-121452380D01*
X104119047Y-121452380D01*
X104214285Y-121500000D01*
X104261904Y-121547619D01*
X104309523Y-121642857D01*
X104309523Y-121738095D01*
X104261904Y-121880952D01*
X103690476Y-122452380D01*
X104309523Y-122452380D01*
%TO.C,R1*%
X126102380Y-117246666D02*
X125626190Y-117580000D01*
X126102380Y-117818095D02*
X125102380Y-117818095D01*
X125102380Y-117437142D01*
X125150000Y-117341904D01*
X125197619Y-117294285D01*
X125292857Y-117246666D01*
X125435714Y-117246666D01*
X125530952Y-117294285D01*
X125578571Y-117341904D01*
X125626190Y-117437142D01*
X125626190Y-117818095D01*
X126102380Y-116294285D02*
X126102380Y-116865714D01*
X126102380Y-116580000D02*
X125102380Y-116580000D01*
X125245238Y-116675238D01*
X125340476Y-116770476D01*
X125388095Y-116865714D01*
%TO.C,BOOT1*%
X100166666Y-105688571D02*
X100309523Y-105736190D01*
X100357142Y-105783809D01*
X100404761Y-105879047D01*
X100404761Y-106021904D01*
X100357142Y-106117142D01*
X100309523Y-106164761D01*
X100214285Y-106212380D01*
X99833333Y-106212380D01*
X99833333Y-105212380D01*
X100166666Y-105212380D01*
X100261904Y-105260000D01*
X100309523Y-105307619D01*
X100357142Y-105402857D01*
X100357142Y-105498095D01*
X100309523Y-105593333D01*
X100261904Y-105640952D01*
X100166666Y-105688571D01*
X99833333Y-105688571D01*
X101023809Y-105212380D02*
X101214285Y-105212380D01*
X101309523Y-105260000D01*
X101404761Y-105355238D01*
X101452380Y-105545714D01*
X101452380Y-105879047D01*
X101404761Y-106069523D01*
X101309523Y-106164761D01*
X101214285Y-106212380D01*
X101023809Y-106212380D01*
X100928571Y-106164761D01*
X100833333Y-106069523D01*
X100785714Y-105879047D01*
X100785714Y-105545714D01*
X100833333Y-105355238D01*
X100928571Y-105260000D01*
X101023809Y-105212380D01*
X102071428Y-105212380D02*
X102261904Y-105212380D01*
X102357142Y-105260000D01*
X102452380Y-105355238D01*
X102500000Y-105545714D01*
X102500000Y-105879047D01*
X102452380Y-106069523D01*
X102357142Y-106164761D01*
X102261904Y-106212380D01*
X102071428Y-106212380D01*
X101976190Y-106164761D01*
X101880952Y-106069523D01*
X101833333Y-105879047D01*
X101833333Y-105545714D01*
X101880952Y-105355238D01*
X101976190Y-105260000D01*
X102071428Y-105212380D01*
X102785714Y-105212380D02*
X103357142Y-105212380D01*
X103071428Y-106212380D02*
X103071428Y-105212380D01*
X104214285Y-106212380D02*
X103642857Y-106212380D01*
X103928571Y-106212380D02*
X103928571Y-105212380D01*
X103833333Y-105355238D01*
X103738095Y-105450476D01*
X103642857Y-105498095D01*
%TO.C,J6*%
X139416666Y-153827380D02*
X139416666Y-154541666D01*
X139369047Y-154684523D01*
X139273809Y-154779761D01*
X139130952Y-154827380D01*
X139035714Y-154827380D01*
X140321428Y-153827380D02*
X140130952Y-153827380D01*
X140035714Y-153875000D01*
X139988095Y-153922619D01*
X139892857Y-154065476D01*
X139845238Y-154255952D01*
X139845238Y-154636904D01*
X139892857Y-154732142D01*
X139940476Y-154779761D01*
X140035714Y-154827380D01*
X140226190Y-154827380D01*
X140321428Y-154779761D01*
X140369047Y-154732142D01*
X140416666Y-154636904D01*
X140416666Y-154398809D01*
X140369047Y-154303571D01*
X140321428Y-154255952D01*
X140226190Y-154208333D01*
X140035714Y-154208333D01*
X139940476Y-154255952D01*
X139892857Y-154303571D01*
X139845238Y-154398809D01*
%TO.C,D2*%
X95847619Y-116261904D02*
X96847619Y-116261904D01*
X96847619Y-116500000D01*
X96800000Y-116642857D01*
X96704761Y-116738095D01*
X96609523Y-116785714D01*
X96419047Y-116833333D01*
X96276190Y-116833333D01*
X96085714Y-116785714D01*
X95990476Y-116738095D01*
X95895238Y-116642857D01*
X95847619Y-116500000D01*
X95847619Y-116261904D01*
X96752380Y-117214285D02*
X96800000Y-117261904D01*
X96847619Y-117357142D01*
X96847619Y-117595238D01*
X96800000Y-117690476D01*
X96752380Y-117738095D01*
X96657142Y-117785714D01*
X96561904Y-117785714D01*
X96419047Y-117738095D01*
X95847619Y-117166666D01*
X95847619Y-117785714D01*
%TO.C,F1*%
X97928571Y-126633333D02*
X97928571Y-126966666D01*
X98452380Y-126966666D02*
X97452380Y-126966666D01*
X97452380Y-126490476D01*
X98452380Y-125585714D02*
X98452380Y-126157142D01*
X98452380Y-125871428D02*
X97452380Y-125871428D01*
X97595238Y-125966666D01*
X97690476Y-126061904D01*
X97738095Y-126157142D01*
%TO.C,J7*%
X170327380Y-145333333D02*
X171041666Y-145333333D01*
X171184523Y-145380952D01*
X171279761Y-145476190D01*
X171327380Y-145619047D01*
X171327380Y-145714285D01*
X170327380Y-144952380D02*
X170327380Y-144285714D01*
X171327380Y-144714285D01*
%TO.C,J3*%
X90532380Y-128373333D02*
X91246666Y-128373333D01*
X91389523Y-128420952D01*
X91484761Y-128516190D01*
X91532380Y-128659047D01*
X91532380Y-128754285D01*
X90532380Y-127992380D02*
X90532380Y-127373333D01*
X90913333Y-127706666D01*
X90913333Y-127563809D01*
X90960952Y-127468571D01*
X91008571Y-127420952D01*
X91103809Y-127373333D01*
X91341904Y-127373333D01*
X91437142Y-127420952D01*
X91484761Y-127468571D01*
X91532380Y-127563809D01*
X91532380Y-127849523D01*
X91484761Y-127944761D01*
X91437142Y-127992380D01*
%TO.C,C3*%
X118865142Y-112666666D02*
X118912761Y-112714285D01*
X118960380Y-112857142D01*
X118960380Y-112952380D01*
X118912761Y-113095238D01*
X118817523Y-113190476D01*
X118722285Y-113238095D01*
X118531809Y-113285714D01*
X118388952Y-113285714D01*
X118198476Y-113238095D01*
X118103238Y-113190476D01*
X118008000Y-113095238D01*
X117960380Y-112952380D01*
X117960380Y-112857142D01*
X118008000Y-112714285D01*
X118055619Y-112666666D01*
X117960380Y-112333333D02*
X117960380Y-111714285D01*
X118341333Y-112047619D01*
X118341333Y-111904761D01*
X118388952Y-111809523D01*
X118436571Y-111761904D01*
X118531809Y-111714285D01*
X118769904Y-111714285D01*
X118865142Y-111761904D01*
X118912761Y-111809523D01*
X118960380Y-111904761D01*
X118960380Y-112190476D01*
X118912761Y-112285714D01*
X118865142Y-112333333D01*
%TO.C,C6*%
X108585142Y-132254666D02*
X108632761Y-132302285D01*
X108680380Y-132445142D01*
X108680380Y-132540380D01*
X108632761Y-132683238D01*
X108537523Y-132778476D01*
X108442285Y-132826095D01*
X108251809Y-132873714D01*
X108108952Y-132873714D01*
X107918476Y-132826095D01*
X107823238Y-132778476D01*
X107728000Y-132683238D01*
X107680380Y-132540380D01*
X107680380Y-132445142D01*
X107728000Y-132302285D01*
X107775619Y-132254666D01*
X107680380Y-131397523D02*
X107680380Y-131588000D01*
X107728000Y-131683238D01*
X107775619Y-131730857D01*
X107918476Y-131826095D01*
X108108952Y-131873714D01*
X108489904Y-131873714D01*
X108585142Y-131826095D01*
X108632761Y-131778476D01*
X108680380Y-131683238D01*
X108680380Y-131492761D01*
X108632761Y-131397523D01*
X108585142Y-131349904D01*
X108489904Y-131302285D01*
X108251809Y-131302285D01*
X108156571Y-131349904D01*
X108108952Y-131397523D01*
X108061333Y-131492761D01*
X108061333Y-131683238D01*
X108108952Y-131778476D01*
X108156571Y-131826095D01*
X108251809Y-131873714D01*
%TO.C,C5*%
X102489142Y-132276166D02*
X102536761Y-132323785D01*
X102584380Y-132466642D01*
X102584380Y-132561880D01*
X102536761Y-132704738D01*
X102441523Y-132799976D01*
X102346285Y-132847595D01*
X102155809Y-132895214D01*
X102012952Y-132895214D01*
X101822476Y-132847595D01*
X101727238Y-132799976D01*
X101632000Y-132704738D01*
X101584380Y-132561880D01*
X101584380Y-132466642D01*
X101632000Y-132323785D01*
X101679619Y-132276166D01*
X101584380Y-131371404D02*
X101584380Y-131847595D01*
X102060571Y-131895214D01*
X102012952Y-131847595D01*
X101965333Y-131752357D01*
X101965333Y-131514261D01*
X102012952Y-131419023D01*
X102060571Y-131371404D01*
X102155809Y-131323785D01*
X102393904Y-131323785D01*
X102489142Y-131371404D01*
X102536761Y-131419023D01*
X102584380Y-131514261D01*
X102584380Y-131752357D01*
X102536761Y-131847595D01*
X102489142Y-131895214D01*
%TO.C,J5*%
X115541666Y-153827380D02*
X115541666Y-154541666D01*
X115494047Y-154684523D01*
X115398809Y-154779761D01*
X115255952Y-154827380D01*
X115160714Y-154827380D01*
X116494047Y-153827380D02*
X116017857Y-153827380D01*
X115970238Y-154303571D01*
X116017857Y-154255952D01*
X116113095Y-154208333D01*
X116351190Y-154208333D01*
X116446428Y-154255952D01*
X116494047Y-154303571D01*
X116541666Y-154398809D01*
X116541666Y-154636904D01*
X116494047Y-154732142D01*
X116446428Y-154779761D01*
X116351190Y-154827380D01*
X116113095Y-154827380D01*
X116017857Y-154779761D01*
X115970238Y-154732142D01*
%TO.C,J8*%
X91666666Y-153827380D02*
X91666666Y-154541666D01*
X91619047Y-154684523D01*
X91523809Y-154779761D01*
X91380952Y-154827380D01*
X91285714Y-154827380D01*
X92285714Y-154255952D02*
X92190476Y-154208333D01*
X92142857Y-154160714D01*
X92095238Y-154065476D01*
X92095238Y-154017857D01*
X92142857Y-153922619D01*
X92190476Y-153875000D01*
X92285714Y-153827380D01*
X92476190Y-153827380D01*
X92571428Y-153875000D01*
X92619047Y-153922619D01*
X92666666Y-154017857D01*
X92666666Y-154065476D01*
X92619047Y-154160714D01*
X92571428Y-154208333D01*
X92476190Y-154255952D01*
X92285714Y-154255952D01*
X92190476Y-154303571D01*
X92142857Y-154351190D01*
X92095238Y-154446428D01*
X92095238Y-154636904D01*
X92142857Y-154732142D01*
X92190476Y-154779761D01*
X92285714Y-154827380D01*
X92476190Y-154827380D01*
X92571428Y-154779761D01*
X92619047Y-154732142D01*
X92666666Y-154636904D01*
X92666666Y-154446428D01*
X92619047Y-154351190D01*
X92571428Y-154303571D01*
X92476190Y-154255952D01*
%TO.C,D3*%
X118952380Y-124738095D02*
X117952380Y-124738095D01*
X117952380Y-124500000D01*
X118000000Y-124357142D01*
X118095238Y-124261904D01*
X118190476Y-124214285D01*
X118380952Y-124166666D01*
X118523809Y-124166666D01*
X118714285Y-124214285D01*
X118809523Y-124261904D01*
X118904761Y-124357142D01*
X118952380Y-124500000D01*
X118952380Y-124738095D01*
X117952380Y-123833333D02*
X117952380Y-123214285D01*
X118333333Y-123547619D01*
X118333333Y-123404761D01*
X118380952Y-123309523D01*
X118428571Y-123261904D01*
X118523809Y-123214285D01*
X118761904Y-123214285D01*
X118857142Y-123261904D01*
X118904761Y-123309523D01*
X118952380Y-123404761D01*
X118952380Y-123690476D01*
X118904761Y-123785714D01*
X118857142Y-123833333D01*
%TO.C,C4*%
X118541142Y-117190666D02*
X118588761Y-117238285D01*
X118636380Y-117381142D01*
X118636380Y-117476380D01*
X118588761Y-117619238D01*
X118493523Y-117714476D01*
X118398285Y-117762095D01*
X118207809Y-117809714D01*
X118064952Y-117809714D01*
X117874476Y-117762095D01*
X117779238Y-117714476D01*
X117684000Y-117619238D01*
X117636380Y-117476380D01*
X117636380Y-117381142D01*
X117684000Y-117238285D01*
X117731619Y-117190666D01*
X117969714Y-116333523D02*
X118636380Y-116333523D01*
X117588761Y-116571619D02*
X118303047Y-116809714D01*
X118303047Y-116190666D01*
%TO.C,D1*%
X95547619Y-113261904D02*
X96547619Y-113261904D01*
X96547619Y-113500000D01*
X96500000Y-113642857D01*
X96404761Y-113738095D01*
X96309523Y-113785714D01*
X96119047Y-113833333D01*
X95976190Y-113833333D01*
X95785714Y-113785714D01*
X95690476Y-113738095D01*
X95595238Y-113642857D01*
X95547619Y-113500000D01*
X95547619Y-113261904D01*
X95547619Y-114785714D02*
X95547619Y-114214285D01*
X95547619Y-114500000D02*
X96547619Y-114500000D01*
X96404761Y-114404761D01*
X96309523Y-114309523D01*
X96261904Y-114214285D01*
%TO.C,C1*%
X125977142Y-112666666D02*
X126024761Y-112714285D01*
X126072380Y-112857142D01*
X126072380Y-112952380D01*
X126024761Y-113095238D01*
X125929523Y-113190476D01*
X125834285Y-113238095D01*
X125643809Y-113285714D01*
X125500952Y-113285714D01*
X125310476Y-113238095D01*
X125215238Y-113190476D01*
X125120000Y-113095238D01*
X125072380Y-112952380D01*
X125072380Y-112857142D01*
X125120000Y-112714285D01*
X125167619Y-112666666D01*
X126072380Y-111714285D02*
X126072380Y-112285714D01*
X126072380Y-112000000D02*
X125072380Y-112000000D01*
X125215238Y-112095238D01*
X125310476Y-112190476D01*
X125358095Y-112285714D01*
%TO.C,C2*%
X122421142Y-112666666D02*
X122468761Y-112714285D01*
X122516380Y-112857142D01*
X122516380Y-112952380D01*
X122468761Y-113095238D01*
X122373523Y-113190476D01*
X122278285Y-113238095D01*
X122087809Y-113285714D01*
X121944952Y-113285714D01*
X121754476Y-113238095D01*
X121659238Y-113190476D01*
X121564000Y-113095238D01*
X121516380Y-112952380D01*
X121516380Y-112857142D01*
X121564000Y-112714285D01*
X121611619Y-112666666D01*
X121611619Y-112285714D02*
X121564000Y-112238095D01*
X121516380Y-112142857D01*
X121516380Y-111904761D01*
X121564000Y-111809523D01*
X121611619Y-111761904D01*
X121706857Y-111714285D01*
X121802095Y-111714285D01*
X121944952Y-111761904D01*
X122516380Y-112333333D01*
X122516380Y-111714285D01*
%TO.C,D4*%
X97061904Y-118752380D02*
X97061904Y-117752380D01*
X97300000Y-117752380D01*
X97442857Y-117800000D01*
X97538095Y-117895238D01*
X97585714Y-117990476D01*
X97633333Y-118180952D01*
X97633333Y-118323809D01*
X97585714Y-118514285D01*
X97538095Y-118609523D01*
X97442857Y-118704761D01*
X97300000Y-118752380D01*
X97061904Y-118752380D01*
X98490476Y-118085714D02*
X98490476Y-118752380D01*
X98252380Y-117704761D02*
X98014285Y-118419047D01*
X98633333Y-118419047D01*
%TO.C,J2*%
X157372380Y-110333333D02*
X158086666Y-110333333D01*
X158229523Y-110380952D01*
X158324761Y-110476190D01*
X158372380Y-110619047D01*
X158372380Y-110714285D01*
X157467619Y-109904761D02*
X157420000Y-109857142D01*
X157372380Y-109761904D01*
X157372380Y-109523809D01*
X157420000Y-109428571D01*
X157467619Y-109380952D01*
X157562857Y-109333333D01*
X157658095Y-109333333D01*
X157800952Y-109380952D01*
X158372380Y-109952380D01*
X158372380Y-109333333D01*
%TO.C,J4*%
X170327380Y-123833333D02*
X171041666Y-123833333D01*
X171184523Y-123880952D01*
X171279761Y-123976190D01*
X171327380Y-124119047D01*
X171327380Y-124214285D01*
X170660714Y-122928571D02*
X171327380Y-122928571D01*
X170279761Y-123166666D02*
X170994047Y-123404761D01*
X170994047Y-122785714D01*
%TO.C,R2*%
X122546380Y-117230666D02*
X122070190Y-117564000D01*
X122546380Y-117802095D02*
X121546380Y-117802095D01*
X121546380Y-117421142D01*
X121594000Y-117325904D01*
X121641619Y-117278285D01*
X121736857Y-117230666D01*
X121879714Y-117230666D01*
X121974952Y-117278285D01*
X122022571Y-117325904D01*
X122070190Y-117421142D01*
X122070190Y-117802095D01*
X121641619Y-116849714D02*
X121594000Y-116802095D01*
X121546380Y-116706857D01*
X121546380Y-116468761D01*
X121594000Y-116373523D01*
X121641619Y-116325904D01*
X121736857Y-116278285D01*
X121832095Y-116278285D01*
X121974952Y-116325904D01*
X122546380Y-116897333D01*
X122546380Y-116278285D01*
D11*
%TO.C,RST1*%
X115210000Y-113210000D02*
X115210000Y-112800000D01*
X108790000Y-113210000D02*
X115210000Y-113210000D01*
X115210000Y-107200000D02*
X115210000Y-106790000D01*
X108790000Y-112800000D02*
X108790000Y-113210000D01*
X115210000Y-106790000D02*
X108790000Y-106790000D01*
X108790000Y-106790000D02*
X108790000Y-107070000D01*
X108790000Y-108800000D02*
X108790000Y-111200000D01*
X115210000Y-111200000D02*
X115210000Y-108800000D01*
%TO.C,U1*%
X149000000Y-112190000D02*
X131000000Y-112190000D01*
X131000000Y-106250000D02*
X131000000Y-113000000D01*
X149000000Y-106250000D02*
X149000000Y-113000000D01*
X131000000Y-106250000D02*
X149000000Y-106250000D01*
X149000000Y-131750000D02*
X148000000Y-131750000D01*
X131000000Y-131750000D02*
X132000000Y-131750000D01*
X131000000Y-131000000D02*
X131000000Y-131750000D01*
X149000000Y-131000000D02*
X149000000Y-131750000D01*
%TO.C,J1*%
X79340000Y-111640000D02*
X79340000Y-119360000D01*
X85160000Y-119360000D02*
X85160000Y-117300000D01*
X79340000Y-119360000D02*
X80950000Y-119360000D01*
X85160000Y-111640000D02*
X85160000Y-113700000D01*
X83450000Y-111640000D02*
X85160000Y-111640000D01*
X79340000Y-111640000D02*
X80950000Y-111640000D01*
X83450000Y-119360000D02*
X85160000Y-119360000D01*
X85160000Y-113700000D02*
X85750000Y-113700000D01*
%TO.C,U2*%
X105410000Y-123090000D02*
X105410000Y-124350000D01*
X99400000Y-123090000D02*
X105410000Y-123090000D01*
X105410000Y-129910000D02*
X105410000Y-128650000D01*
X101650000Y-129910000D02*
X105410000Y-129910000D01*
%TO.C,R1*%
X126565000Y-117307064D02*
X126565000Y-116852936D01*
X128035000Y-117307064D02*
X128035000Y-116852936D01*
%TO.C,BOOT1*%
X98790000Y-108800000D02*
X98790000Y-111200000D01*
X98790000Y-113210000D02*
X105210000Y-113210000D01*
X105210000Y-106790000D02*
X98790000Y-106790000D01*
X98790000Y-112800000D02*
X98790000Y-113210000D01*
X105210000Y-111200000D02*
X105210000Y-108800000D01*
X105210000Y-113210000D02*
X105210000Y-112800000D01*
X98790000Y-106790000D02*
X98790000Y-107070000D01*
X105210000Y-107200000D02*
X105210000Y-106790000D01*
%TO.C,J6*%
X148115000Y-152985000D02*
X148115000Y-145375000D01*
X148810000Y-145075000D02*
X148810000Y-146075000D01*
X148810000Y-146075000D02*
X148310000Y-145575000D01*
X148310000Y-145575000D02*
X148810000Y-145075000D01*
X148115000Y-152985000D02*
X131385000Y-152985000D01*
X148115000Y-137015000D02*
X131385000Y-137015000D01*
X148115000Y-137015000D02*
X148115000Y-142575000D01*
X131385000Y-137015000D02*
X131385000Y-142575000D01*
X131385000Y-152985000D02*
X131385000Y-145375000D01*
%TO.C,D2*%
X94500000Y-116300000D02*
X93550000Y-116300000D01*
X93550000Y-116300000D02*
X93550000Y-117750000D01*
X93550000Y-117750000D02*
X94500000Y-117750000D01*
X94500000Y-117750000D02*
X94500000Y-116300000D01*
%TO.C,F1*%
X97060000Y-124913748D02*
X97060000Y-127686252D01*
X93640000Y-124913748D02*
X93640000Y-127686252D01*
%TO.C,J7*%
X169485000Y-153365000D02*
X161875000Y-153365000D01*
X153515000Y-153365000D02*
X159075000Y-153365000D01*
X161575000Y-135940000D02*
X162575000Y-135940000D01*
X153515000Y-136635000D02*
X159075000Y-136635000D01*
X162075000Y-136440000D02*
X161575000Y-135940000D01*
X169485000Y-136635000D02*
X169485000Y-153365000D01*
X162575000Y-135940000D02*
X162075000Y-136440000D01*
X169485000Y-136635000D02*
X161875000Y-136635000D01*
X153515000Y-136635000D02*
X153515000Y-153365000D01*
%TO.C,J3*%
X89810000Y-133120000D02*
X89810000Y-122960000D01*
X82190000Y-133120000D02*
X89810000Y-133120000D01*
X89810000Y-122960000D02*
X82190000Y-122960000D01*
X83460000Y-133120000D02*
X83460000Y-122960000D01*
X82190000Y-122960000D02*
X82190000Y-133120000D01*
%TO.C,C3*%
X119453000Y-112761252D02*
X119453000Y-112238748D01*
X120923000Y-112761252D02*
X120923000Y-112238748D01*
%TO.C,C6*%
X107283000Y-131826748D02*
X107283000Y-132349252D01*
X105813000Y-131826748D02*
X105813000Y-132349252D01*
%TO.C,C5*%
X99717000Y-131848248D02*
X99717000Y-132370752D01*
X101187000Y-131848248D02*
X101187000Y-132370752D01*
%TO.C,J5*%
X124435000Y-145575000D02*
X124935000Y-145075000D01*
X107510000Y-137015000D02*
X107510000Y-142575000D01*
X124240000Y-137015000D02*
X107510000Y-137015000D01*
X124935000Y-146075000D02*
X124435000Y-145575000D01*
X124935000Y-145075000D02*
X124935000Y-146075000D01*
X107510000Y-152985000D02*
X107510000Y-145375000D01*
X124240000Y-137015000D02*
X124240000Y-142575000D01*
X124240000Y-152985000D02*
X124240000Y-145375000D01*
X124240000Y-152985000D02*
X107510000Y-152985000D01*
%TO.C,J8*%
X101060000Y-145075000D02*
X101060000Y-146075000D01*
X100365000Y-137015000D02*
X83635000Y-137015000D01*
X100365000Y-152985000D02*
X100365000Y-145375000D01*
X100365000Y-137015000D02*
X100365000Y-142575000D01*
X101060000Y-146075000D02*
X100560000Y-145575000D01*
X83635000Y-152985000D02*
X83635000Y-145375000D01*
X83635000Y-137015000D02*
X83635000Y-142575000D01*
X100365000Y-152985000D02*
X83635000Y-152985000D01*
X100560000Y-145575000D02*
X101060000Y-145075000D01*
%TO.C,D3*%
X119290000Y-125360000D02*
X121210000Y-125360000D01*
X119290000Y-122500000D02*
X119290000Y-125360000D01*
X121210000Y-125360000D02*
X121210000Y-122500000D01*
%TO.C,C4*%
X119453000Y-116802748D02*
X119453000Y-117325252D01*
X120923000Y-116802748D02*
X120923000Y-117325252D01*
%TO.C,D1*%
X93500000Y-114700000D02*
X94450000Y-114700000D01*
X94450000Y-114700000D02*
X94450000Y-113250000D01*
X94450000Y-113250000D02*
X93500000Y-113250000D01*
X93500000Y-113250000D02*
X93500000Y-114700000D01*
%TO.C,C1*%
X126565000Y-112761252D02*
X126565000Y-112238748D01*
X128035000Y-112761252D02*
X128035000Y-112238748D01*
%TO.C,C2*%
X124479000Y-112761252D02*
X124479000Y-112238748D01*
X123009000Y-112761252D02*
X123009000Y-112238748D01*
%TO.C,D4*%
X93400000Y-122450000D02*
X100300000Y-122450000D01*
X93400000Y-119150000D02*
X93400000Y-122450000D01*
X93400000Y-119150000D02*
X100300000Y-119150000D01*
%TO.C,J2*%
X160250000Y-111330000D02*
X158920000Y-111330000D01*
X158920000Y-111330000D02*
X158920000Y-110000000D01*
X169200000Y-111330000D02*
X169200000Y-108670000D01*
X161520000Y-111330000D02*
X161520000Y-108670000D01*
X161520000Y-111330000D02*
X169200000Y-111330000D01*
X161520000Y-108670000D02*
X169200000Y-108670000D01*
%TO.C,J4*%
X169485000Y-131865000D02*
X161875000Y-131865000D01*
X169485000Y-115135000D02*
X169485000Y-131865000D01*
X162075000Y-114940000D02*
X161575000Y-114440000D01*
X161575000Y-114440000D02*
X162575000Y-114440000D01*
X153515000Y-115135000D02*
X153515000Y-131865000D01*
X153515000Y-131865000D02*
X159075000Y-131865000D01*
X169485000Y-115135000D02*
X161875000Y-115135000D01*
X153515000Y-115135000D02*
X159075000Y-115135000D01*
X162575000Y-114440000D02*
X162075000Y-114940000D01*
%TO.C,R2*%
X124479000Y-117291064D02*
X124479000Y-116836936D01*
X123009000Y-117291064D02*
X123009000Y-116836936D01*
%TD*%
M02*
