M48
; DRILL file {KiCad 6.0.9+dfsg-1~bpo11+1} date vie 30 dic 2022 22:29:54
; FORMAT={-:-/ absolute / inch / decimal}
; #@! TF.CreationDate,2022-12-30T22:29:54-06:00
; #@! TF.GenerationSoftware,Kicad,Pcbnew,6.0.9+dfsg-1~bpo11+1
; #@! TF.FileFunction,Plated,1,4,PTH
FMAT,2
INCH
; #@! TA.AperFunction,Plated,PTH,ViaDrill
T1C0.0157
; #@! TA.AperFunction,Plated,PTH,ComponentDrill
T2C0.0236
; #@! TA.AperFunction,Plated,PTH,ComponentDrill
T3C0.0350
; #@! TA.AperFunction,Plated,PTH,ViaDrill
T4C0.0394
; #@! TA.AperFunction,Plated,PTH,ComponentDrill
T5C0.0394
; #@! TA.AperFunction,Plated,PTH,ComponentDrill
T6C0.0598
; #@! TA.AperFunction,Plated,PTH,ComponentDrill
T7C0.0618
%
G90
G05
T1
X3.7795Y-4.5276
X3.7795Y-4.5669
X4.0157Y-4.252
X4.2717Y-5.1378
X4.3701Y-5.5512
X4.4685Y-5.5512
X4.6555Y-4.813
X4.8031Y-4.5177
X4.8622Y-4.7171
X4.9311Y-4.5177
X4.9902Y-4.7146
X5.2559Y-5.0394
X5.315Y-5.0394
X5.315Y-5.5512
X5.374Y-5.3346
X5.4134Y-5.4331
X5.4134Y-5.5512
X5.4724Y-5.2559
X5.5709Y-5.4331
X5.6299Y-5.315
X5.7677Y-5.0984
X5.8858Y-5.5906
X5.9843Y-5.5709
T3
X3.352Y-5.4439
X3.4421Y-5.4439
X3.4822Y-5.6337
X3.5222Y-5.7037
X3.5622Y-5.6337
X3.6022Y-5.7037
X3.6422Y-5.6337
X3.6822Y-5.7037
X3.7222Y-5.6337
X3.7622Y-5.7037
X3.802Y-5.4439
X3.8921Y-5.4439
X4.2919Y-5.4439
X4.3821Y-5.4439
X4.4222Y-5.6337
X4.4622Y-5.7037
X4.5022Y-5.6337
X4.5422Y-5.7037
X4.5822Y-5.6337
X4.6222Y-5.7037
X4.6622Y-5.6337
X4.7022Y-5.7037
X4.7419Y-5.4439
X4.8321Y-5.4439
X5.2319Y-5.4439
X5.322Y-5.4439
X5.3621Y-5.6337
X5.4021Y-5.7037
X5.4421Y-5.6337
X5.4821Y-5.7037
X5.5221Y-5.6337
X5.5621Y-5.7037
X5.6021Y-5.6337
X5.6421Y-5.7037
X5.6819Y-5.4439
X5.772Y-5.4439
X6.0935Y-4.5921
X6.0935Y-4.6823
X6.0935Y-5.0421
X6.0935Y-5.1323
X6.0935Y-5.4386
X6.0935Y-5.5287
X6.0935Y-5.8886
X6.0935Y-5.9787
X6.2833Y-4.762
X6.2833Y-4.842
X6.2833Y-4.922
X6.2833Y-5.002
X6.2833Y-5.6085
X6.2833Y-5.6885
X6.2833Y-5.7685
X6.2833Y-5.8485
X6.3533Y-4.722
X6.3533Y-4.802
X6.3533Y-4.882
X6.3533Y-4.962
X6.3533Y-5.5685
X6.3533Y-5.6485
X6.3533Y-5.7285
X6.3533Y-5.8085
T4
X3.7402Y-5.1378
T5
X6.3091Y-4.3307
X6.4091Y-4.3307
X6.5091Y-4.3307
X6.6091Y-4.3307
T6
X3.3858Y-4.9409
X3.3858Y-5.1409
T7
X3.302Y-5.6687
X3.9421Y-5.6687
X4.2419Y-5.6687
X4.8821Y-5.6687
X5.1819Y-5.6687
X5.822Y-5.6687
X6.3183Y-4.5421
X6.3183Y-5.1823
X6.3183Y-5.3886
X6.3183Y-6.0287
T2
G00X3.3213Y-4.3772
M15
G01X3.3528Y-4.3772
M16
G05
G00X3.3213Y-4.7173
M15
G01X3.3528Y-4.7173
M16
G05
G00X3.4795Y-4.3772
M15
G01X3.5228Y-4.3772
M16
G05
G00X3.4795Y-4.7173
M15
G01X3.5228Y-4.7173
M16
G05
T0
M30
