%TF.GenerationSoftware,KiCad,Pcbnew,6.0.9+dfsg-1~bpo11+1*%
%TF.CreationDate,2022-12-22T20:36:38-06:00*%
%TF.ProjectId,CAE32_PCB,43414533-325f-4504-9342-2e6b69636164,rev?*%
%TF.SameCoordinates,Original*%
%TF.FileFunction,Paste,Top*%
%TF.FilePolarity,Positive*%
%FSLAX46Y46*%
G04 Gerber Fmt 4.6, Leading zero omitted, Abs format (unit mm)*
G04 Created by KiCad (PCBNEW 6.0.9+dfsg-1~bpo11+1) date 2022-12-22 20:36:38*
%MOMM*%
%LPD*%
G01*
G04 APERTURE LIST*
G04 Aperture macros list*
%AMRoundRect*
0 Rectangle with rounded corners*
0 $1 Rounding radius*
0 $2 $3 $4 $5 $6 $7 $8 $9 X,Y pos of 4 corners*
0 Add a 4 corners polygon primitive as box body*
4,1,4,$2,$3,$4,$5,$6,$7,$8,$9,$2,$3,0*
0 Add four circle primitives for the rounded corners*
1,1,$1+$1,$2,$3*
1,1,$1+$1,$4,$5*
1,1,$1+$1,$6,$7*
1,1,$1+$1,$8,$9*
0 Add four rect primitives between the rounded corners*
20,1,$1+$1,$2,$3,$4,$5,0*
20,1,$1+$1,$4,$5,$6,$7,0*
20,1,$1+$1,$6,$7,$8,$9,0*
20,1,$1+$1,$8,$9,$2,$3,0*%
G04 Aperture macros list end*
%ADD10RoundRect,0.250000X-0.250000X-0.475000X0.250000X-0.475000X0.250000X0.475000X-0.250000X0.475000X0*%
%ADD11RoundRect,0.150000X-0.587500X-0.150000X0.587500X-0.150000X0.587500X0.150000X-0.587500X0.150000X0*%
%ADD12RoundRect,0.250000X-0.475000X0.250000X-0.475000X-0.250000X0.475000X-0.250000X0.475000X0.250000X0*%
%ADD13RoundRect,0.125000X-0.175000X0.125000X-0.175000X-0.125000X0.175000X-0.125000X0.175000X0.125000X0*%
%ADD14RoundRect,0.250000X0.250000X0.475000X-0.250000X0.475000X-0.250000X-0.475000X0.250000X-0.475000X0*%
%ADD15RoundRect,0.250000X0.450000X-0.262500X0.450000X0.262500X-0.450000X0.262500X-0.450000X-0.262500X0*%
%ADD16O,0.950000X1.250000*%
%ADD17O,1.550000X0.890000*%
%ADD18R,1.350000X0.400000*%
%ADD19R,1.550000X1.500000*%
%ADD20R,1.550000X1.200000*%
%ADD21RoundRect,0.243750X-0.243750X-0.456250X0.243750X-0.456250X0.243750X0.456250X-0.243750X0.456250X0*%
%ADD22R,1.500000X0.600000*%
%ADD23RoundRect,0.250000X-0.450000X0.262500X-0.450000X-0.262500X0.450000X-0.262500X0.450000X0.262500X0*%
%ADD24R,1.500000X0.900000*%
%ADD25R,0.900000X1.500000*%
%ADD26R,0.900000X0.900000*%
%ADD27RoundRect,0.150000X-0.625000X-0.150000X0.625000X-0.150000X0.625000X0.150000X-0.625000X0.150000X0*%
%ADD28R,2.000000X1.500000*%
%ADD29R,2.000000X3.800000*%
%ADD30R,1.100000X0.510000*%
%ADD31RoundRect,0.125000X0.175000X-0.125000X0.175000X0.125000X-0.175000X0.125000X-0.175000X-0.125000X0*%
%ADD32R,1.050000X0.650000*%
%ADD33RoundRect,0.150000X0.587500X0.150000X-0.587500X0.150000X-0.587500X-0.150000X0.587500X-0.150000X0*%
G04 APERTURE END LIST*
D10*
%TO.C,C6*%
X130325000Y-98125000D03*
X132225000Y-98125000D03*
%TD*%
%TO.C,C9*%
X168087000Y-133858000D03*
X169987000Y-133858000D03*
%TD*%
D11*
%TO.C,VR1*%
X137637500Y-127275000D03*
X137637500Y-129175000D03*
X139512500Y-128225000D03*
%TD*%
D12*
%TO.C,C3*%
X131064000Y-100904000D03*
X131064000Y-102804000D03*
%TD*%
D10*
%TO.C,C1*%
X158750000Y-132588000D03*
X160650000Y-132588000D03*
%TD*%
D13*
%TO.C,D1*%
X134550000Y-111650000D03*
X134550000Y-113950000D03*
%TD*%
D14*
%TO.C,C13*%
X153775000Y-139625000D03*
X151875000Y-139625000D03*
%TD*%
D15*
%TO.C,R2*%
X128016000Y-99615000D03*
X128016000Y-97790000D03*
%TD*%
D16*
%TO.C,J4*%
X168349000Y-112450000D03*
X168349000Y-117450000D03*
D17*
X171049000Y-111450000D03*
X171049000Y-118450000D03*
D18*
X168349000Y-116250000D03*
X168349000Y-115600000D03*
X168349000Y-114950000D03*
X168349000Y-114300000D03*
X168349000Y-113650000D03*
D19*
X171049000Y-115950000D03*
D20*
X171049000Y-117850000D03*
X171049000Y-112050000D03*
D19*
X171049000Y-113950000D03*
%TD*%
D12*
%TO.C,C4*%
X134366000Y-100904000D03*
X134366000Y-102804000D03*
%TD*%
D21*
%TO.C,C2*%
X166370000Y-121666000D03*
X168245000Y-121666000D03*
%TD*%
D22*
%TO.C,U2*%
X158629000Y-135636000D03*
X158629000Y-136906000D03*
X158629000Y-138176000D03*
X158629000Y-139446000D03*
X158629000Y-140716000D03*
X158629000Y-141986000D03*
X158629000Y-143256000D03*
X158629000Y-144526000D03*
X165729000Y-144526000D03*
X165729000Y-143256000D03*
X165729000Y-141986000D03*
X165729000Y-140716000D03*
X165729000Y-139446000D03*
X165729000Y-138176000D03*
X165729000Y-136906000D03*
X165729000Y-135636000D03*
%TD*%
D12*
%TO.C,C5*%
X131064000Y-106238000D03*
X131064000Y-108138000D03*
%TD*%
D23*
%TO.C,R1*%
X134366000Y-104497500D03*
X134366000Y-106322500D03*
%TD*%
D10*
%TO.C,C10*%
X168087000Y-138811000D03*
X169987000Y-138811000D03*
%TD*%
D16*
%TO.C,J1*%
X130760000Y-117450000D03*
D17*
X128060000Y-118450000D03*
X128060000Y-111450000D03*
D16*
X130760000Y-112450000D03*
D18*
X130760000Y-113650000D03*
X130760000Y-114300000D03*
X130760000Y-114950000D03*
X130760000Y-115600000D03*
X130760000Y-116250000D03*
D20*
X128060000Y-112050000D03*
X128060000Y-117850000D03*
D19*
X128060000Y-115950000D03*
X128060000Y-113950000D03*
%TD*%
D24*
%TO.C,U1*%
X138175000Y-98740000D03*
X138175000Y-100010000D03*
X138175000Y-101280000D03*
X138175000Y-102550000D03*
X138175000Y-103820000D03*
X138175000Y-105090000D03*
X138175000Y-106360000D03*
X138175000Y-107630000D03*
X138175000Y-108900000D03*
X138175000Y-110170000D03*
X138175000Y-111440000D03*
X138175000Y-112710000D03*
X138175000Y-113980000D03*
X138175000Y-115250000D03*
D25*
X139940000Y-116500000D03*
X141210000Y-116500000D03*
X142480000Y-116500000D03*
X143750000Y-116500000D03*
X145020000Y-116500000D03*
X146290000Y-116500000D03*
X147560000Y-116500000D03*
X148830000Y-116500000D03*
X150100000Y-116500000D03*
X151370000Y-116500000D03*
X152640000Y-116500000D03*
X153910000Y-116500000D03*
D24*
X155675000Y-115250000D03*
X155675000Y-113980000D03*
X155675000Y-112710000D03*
X155675000Y-111440000D03*
X155675000Y-110170000D03*
X155675000Y-108900000D03*
X155675000Y-107630000D03*
X155675000Y-106360000D03*
X155675000Y-105090000D03*
X155675000Y-103820000D03*
X155675000Y-102550000D03*
X155675000Y-101280000D03*
X155675000Y-100010000D03*
X155675000Y-98740000D03*
D26*
X145425000Y-105060000D03*
X144025000Y-106460000D03*
X145425000Y-107860000D03*
X146825000Y-105060000D03*
X144025000Y-107860000D03*
X145425000Y-106460000D03*
X146825000Y-106460000D03*
X146825000Y-107860000D03*
X144025000Y-105060000D03*
%TD*%
D27*
%TO.C,U5*%
X144424800Y-135713400D03*
X144424800Y-136983400D03*
X144424800Y-138253400D03*
X144424800Y-139523400D03*
X149774800Y-139523400D03*
X149774800Y-138253400D03*
X149774800Y-136983400D03*
X149774800Y-135713400D03*
%TD*%
D10*
%TO.C,C11*%
X137800000Y-122650000D03*
X139700000Y-122650000D03*
%TD*%
%TO.C,C7*%
X152738000Y-126041000D03*
X154638000Y-126041000D03*
%TD*%
D28*
%TO.C,U4*%
X159425000Y-124175000D03*
D29*
X165725000Y-126475000D03*
D28*
X159425000Y-126475000D03*
X159425000Y-128775000D03*
%TD*%
D10*
%TO.C,C8*%
X152738000Y-131248000D03*
X154638000Y-131248000D03*
%TD*%
D30*
%TO.C,U3*%
X144600000Y-126200000D03*
X144600000Y-127200000D03*
X144600000Y-128200000D03*
X144600000Y-129200000D03*
X144600000Y-130200000D03*
X149700000Y-130200000D03*
X149700000Y-129200000D03*
X149700000Y-128200000D03*
X149700000Y-127200000D03*
X149700000Y-126200000D03*
%TD*%
D31*
%TO.C,D2*%
X134550000Y-117600000D03*
X134550000Y-115300000D03*
%TD*%
D32*
%TO.C,SW2*%
X159775000Y-92950000D03*
X163925000Y-92950000D03*
X163925000Y-95100000D03*
X159775000Y-95100000D03*
%TD*%
D33*
%TO.C,D3*%
X160195500Y-120584000D03*
X160195500Y-118684000D03*
X158320500Y-119634000D03*
%TD*%
D10*
%TO.C,C12*%
X139545800Y-139472600D03*
X141445800Y-139472600D03*
%TD*%
D32*
%TO.C,SW1*%
X129425000Y-92950000D03*
X133575000Y-92950000D03*
X129425000Y-95100000D03*
X133575000Y-95100000D03*
%TD*%
M02*
