%TF.GenerationSoftware,KiCad,Pcbnew,6.0.9+dfsg-1~bpo11+1*%
%TF.CreationDate,2022-12-22T20:36:38-06:00*%
%TF.ProjectId,CAE32_PCB,43414533-325f-4504-9342-2e6b69636164,rev?*%
%TF.SameCoordinates,Original*%
%TF.FileFunction,Copper,L2,Inr*%
%TF.FilePolarity,Positive*%
%FSLAX46Y46*%
G04 Gerber Fmt 4.6, Leading zero omitted, Abs format (unit mm)*
G04 Created by KiCad (PCBNEW 6.0.9+dfsg-1~bpo11+1) date 2022-12-22 20:36:38*
%MOMM*%
%LPD*%
G01*
G04 APERTURE LIST*
%TA.AperFunction,ComponentPad*%
%ADD10O,1.550000X0.890000*%
%TD*%
%TA.AperFunction,ComponentPad*%
%ADD11O,0.950000X1.250000*%
%TD*%
%TA.AperFunction,ComponentPad*%
%ADD12R,2.020000X5.020000*%
%TD*%
%TA.AperFunction,ComponentPad*%
%ADD13O,2.020000X5.020000*%
%TD*%
%TA.AperFunction,ComponentPad*%
%ADD14R,1.700000X1.700000*%
%TD*%
%TA.AperFunction,ComponentPad*%
%ADD15O,1.700000X1.700000*%
%TD*%
%TA.AperFunction,ViaPad*%
%ADD16C,0.800000*%
%TD*%
G04 APERTURE END LIST*
D10*
%TO.N,unconnected-(J4-Pad6)*%
%TO.C,J4*%
X171049000Y-111450000D03*
D11*
X168349000Y-117450000D03*
X168349000Y-112450000D03*
D10*
X171049000Y-118450000D03*
%TD*%
D12*
%TO.N,+3.3V*%
%TO.C,J5*%
X145536000Y-147828000D03*
D13*
%TO.N,GNDREF*%
X140356000Y-147828000D03*
%TD*%
D10*
%TO.N,unconnected-(J1-Pad6)*%
%TO.C,J1*%
X128060000Y-118450000D03*
X128060000Y-111450000D03*
D11*
X130760000Y-112450000D03*
X130760000Y-117450000D03*
%TD*%
D14*
%TO.N,Net-(J3-Pad1)*%
%TO.C,J3*%
X168387000Y-151663000D03*
D15*
%TO.N,Net-(J3-Pad2)*%
X165847000Y-151663000D03*
%TO.N,Net-(J3-Pad3)*%
X163307000Y-151663000D03*
%TO.N,Net-(J3-Pad4)*%
X160767000Y-151663000D03*
%TO.N,Net-(J3-Pad5)*%
X158227000Y-151663000D03*
%TO.N,Net-(J3-Pad6)*%
X155687000Y-151663000D03*
%TO.N,Net-(J3-Pad7)*%
X153147000Y-151663000D03*
%TO.N,Net-(J3-Pad8)*%
X150607000Y-151663000D03*
%TD*%
D14*
%TO.N,+3.3V*%
%TO.C,J2*%
X167150000Y-107375000D03*
D15*
%TO.N,/TX0*%
X167150000Y-104835000D03*
%TO.N,/RX0*%
X167150000Y-102295000D03*
%TO.N,GNDREF*%
X167150000Y-99755000D03*
%TD*%
D16*
%TO.N,+5V*%
X148082000Y-134112000D03*
X149352000Y-143256000D03*
%TO.N,+3.3V*%
X168148000Y-140919200D03*
X151468600Y-134799000D03*
X132334000Y-122936000D03*
X164846000Y-121412000D03*
X164700000Y-106675000D03*
X132334000Y-124968000D03*
X147574000Y-149860000D03*
X151976000Y-124517000D03*
X164846000Y-133858000D03*
X147574000Y-145542000D03*
X132334000Y-123952000D03*
X151595000Y-132645000D03*
X157450000Y-127050000D03*
X166243000Y-133858000D03*
X129286000Y-101600000D03*
X129286000Y-100584000D03*
X157450000Y-126037500D03*
X160274000Y-141986000D03*
X147574000Y-147574000D03*
%TO.N,-3V3*%
X160575000Y-143300000D03*
X153670000Y-142325000D03*
%TO.N,Net-(J3-Pad1)*%
X170434000Y-142748000D03*
X164125000Y-139500000D03*
%TO.N,/S2*%
X164100000Y-144575000D03*
X140208000Y-112776000D03*
%TO.N,/S1*%
X142494000Y-118364000D03*
X164075000Y-143425000D03*
%TO.N,/S0*%
X143764000Y-118364000D03*
X164100000Y-142375000D03*
%TO.N,Net-(U2-Pad3)*%
X155194000Y-137668000D03*
X156900000Y-139325000D03*
%TO.N,GNDREF*%
X142748000Y-107950000D03*
X132588000Y-104140000D03*
X171602400Y-138785600D03*
X162052000Y-132588000D03*
X132334000Y-130810000D03*
X134620000Y-118872000D03*
X148082000Y-105918000D03*
X166098500Y-113600000D03*
X141300000Y-122625000D03*
X157450000Y-123000000D03*
X146050000Y-103886000D03*
X148420000Y-130232000D03*
X169672000Y-121666000D03*
X157450000Y-125025000D03*
X129540000Y-105410000D03*
X147066000Y-109220000D03*
X166073500Y-112500000D03*
X132334000Y-129794000D03*
X157450000Y-124012500D03*
X142240000Y-148844000D03*
X132588000Y-116332000D03*
X155913000Y-126041000D03*
X145796000Y-109220000D03*
X143213000Y-129216000D03*
X142240000Y-147066000D03*
X148420000Y-129343000D03*
X134620000Y-110490000D03*
X142748000Y-105410000D03*
X158975000Y-96500000D03*
X133675000Y-98250000D03*
X160550000Y-144525000D03*
X142756400Y-138202600D03*
X148082000Y-106934000D03*
X144526000Y-109220000D03*
X136398000Y-98806000D03*
X130302000Y-104140000D03*
X132334000Y-128778000D03*
X171551600Y-133858000D03*
X156972000Y-119634000D03*
X142240000Y-145542000D03*
X164850000Y-96550000D03*
X144018000Y-103886000D03*
X148082000Y-104902000D03*
X154059400Y-137999400D03*
X142748000Y-106680000D03*
X158242000Y-97282000D03*
X164850000Y-98950000D03*
X145034000Y-103886000D03*
X155913000Y-131248000D03*
X141200000Y-128225000D03*
%TD*%
%TA.AperFunction,Conductor*%
%TO.N,+3.3V*%
G36*
X135847814Y-90190502D02*
G01*
X135894307Y-90244158D01*
X135905693Y-90296500D01*
X135905693Y-97281939D01*
X157215038Y-97281939D01*
X157283159Y-97301941D01*
X157329652Y-97355597D01*
X157340348Y-97394768D01*
X157347087Y-97458882D01*
X157348458Y-97471928D01*
X157407473Y-97653556D01*
X157502960Y-97818944D01*
X157630747Y-97960866D01*
X157785248Y-98073118D01*
X157791276Y-98075802D01*
X157791278Y-98075803D01*
X157953681Y-98148109D01*
X157959712Y-98150794D01*
X158053113Y-98170647D01*
X158140056Y-98189128D01*
X158140061Y-98189128D01*
X158146513Y-98190500D01*
X158337487Y-98190500D01*
X158343939Y-98189128D01*
X158343944Y-98189128D01*
X158430887Y-98170647D01*
X158524288Y-98150794D01*
X158530319Y-98148109D01*
X158692722Y-98075803D01*
X158692724Y-98075802D01*
X158698752Y-98073118D01*
X158853253Y-97960866D01*
X158981040Y-97818944D01*
X159076527Y-97653556D01*
X159135542Y-97471928D01*
X159135769Y-97469766D01*
X159168715Y-97408739D01*
X159232038Y-97374161D01*
X159257288Y-97368794D01*
X159328167Y-97337237D01*
X159425722Y-97293803D01*
X159425724Y-97293802D01*
X159431752Y-97291118D01*
X159586253Y-97178866D01*
X159669020Y-97086944D01*
X159709621Y-97041852D01*
X159709622Y-97041851D01*
X159714040Y-97036944D01*
X159809527Y-96871556D01*
X159868542Y-96689928D01*
X159883249Y-96550000D01*
X163936496Y-96550000D01*
X163937186Y-96556565D01*
X163942081Y-96603134D01*
X163956458Y-96739928D01*
X164015473Y-96921556D01*
X164110960Y-97086944D01*
X164238747Y-97228866D01*
X164393248Y-97341118D01*
X164399276Y-97343802D01*
X164399278Y-97343803D01*
X164513748Y-97394768D01*
X164567712Y-97418794D01*
X164661113Y-97438647D01*
X164748056Y-97457128D01*
X164748061Y-97457128D01*
X164754513Y-97458500D01*
X164945487Y-97458500D01*
X164951939Y-97457128D01*
X164951944Y-97457128D01*
X165038887Y-97438647D01*
X165132288Y-97418794D01*
X165186252Y-97394768D01*
X165300722Y-97343803D01*
X165300724Y-97343802D01*
X165306752Y-97341118D01*
X165461253Y-97228866D01*
X165589040Y-97086944D01*
X165684527Y-96921556D01*
X165743542Y-96739928D01*
X165757920Y-96603134D01*
X165762814Y-96556565D01*
X165763504Y-96550000D01*
X165748982Y-96411834D01*
X165744232Y-96366635D01*
X165744232Y-96366633D01*
X165743542Y-96360072D01*
X165684527Y-96178444D01*
X165589040Y-96013056D01*
X165549169Y-95968774D01*
X165465675Y-95876045D01*
X165465674Y-95876044D01*
X165461253Y-95871134D01*
X165306752Y-95758882D01*
X165300724Y-95756198D01*
X165300722Y-95756197D01*
X165138319Y-95683891D01*
X165138318Y-95683891D01*
X165132288Y-95681206D01*
X165038888Y-95661353D01*
X164951944Y-95642872D01*
X164951939Y-95642872D01*
X164945487Y-95641500D01*
X164754513Y-95641500D01*
X164748061Y-95642872D01*
X164748056Y-95642872D01*
X164661112Y-95661353D01*
X164567712Y-95681206D01*
X164561682Y-95683891D01*
X164561681Y-95683891D01*
X164399278Y-95756197D01*
X164399276Y-95756198D01*
X164393248Y-95758882D01*
X164238747Y-95871134D01*
X164234326Y-95876044D01*
X164234325Y-95876045D01*
X164150832Y-95968774D01*
X164110960Y-96013056D01*
X164015473Y-96178444D01*
X163956458Y-96360072D01*
X163955768Y-96366633D01*
X163955768Y-96366635D01*
X163951018Y-96411834D01*
X163936496Y-96550000D01*
X159883249Y-96550000D01*
X159888504Y-96500000D01*
X159879382Y-96413206D01*
X159869232Y-96316635D01*
X159869232Y-96316633D01*
X159868542Y-96310072D01*
X159809527Y-96128444D01*
X159714040Y-95963056D01*
X159586253Y-95821134D01*
X159431752Y-95708882D01*
X159425724Y-95706198D01*
X159425722Y-95706197D01*
X159263319Y-95633891D01*
X159263318Y-95633891D01*
X159257288Y-95631206D01*
X159163887Y-95611353D01*
X159076944Y-95592872D01*
X159076939Y-95592872D01*
X159070487Y-95591500D01*
X158879513Y-95591500D01*
X158873061Y-95592872D01*
X158873056Y-95592872D01*
X158786112Y-95611353D01*
X158692712Y-95631206D01*
X158686682Y-95633891D01*
X158686681Y-95633891D01*
X158524278Y-95706197D01*
X158524276Y-95706198D01*
X158518248Y-95708882D01*
X158363747Y-95821134D01*
X158235960Y-95963056D01*
X158140473Y-96128444D01*
X158081458Y-96310072D01*
X158081231Y-96312234D01*
X158048285Y-96373261D01*
X157984962Y-96407839D01*
X157959712Y-96413206D01*
X157953682Y-96415891D01*
X157953681Y-96415891D01*
X157791278Y-96488197D01*
X157791276Y-96488198D01*
X157785248Y-96490882D01*
X157779907Y-96494762D01*
X157779906Y-96494763D01*
X157695754Y-96555903D01*
X157628886Y-96579762D01*
X157559734Y-96563681D01*
X157510254Y-96512767D01*
X157495693Y-96453967D01*
X157495693Y-90296500D01*
X157515695Y-90228379D01*
X157569351Y-90181886D01*
X157621693Y-90170500D01*
X171831500Y-90170500D01*
X171899621Y-90190502D01*
X171946114Y-90244158D01*
X171957500Y-90296500D01*
X171957500Y-110469563D01*
X171937498Y-110537684D01*
X171883842Y-110584177D01*
X171813568Y-110594281D01*
X171781461Y-110585201D01*
X171668796Y-110536446D01*
X171556889Y-110513067D01*
X171483927Y-110497824D01*
X171483923Y-110497824D01*
X171479182Y-110496833D01*
X171472828Y-110496500D01*
X170670592Y-110496500D01*
X170624839Y-110501147D01*
X170532632Y-110510513D01*
X170532630Y-110510513D01*
X170526284Y-110511158D01*
X170341439Y-110569085D01*
X170172018Y-110662997D01*
X170167170Y-110667153D01*
X170167169Y-110667153D01*
X170144940Y-110686206D01*
X170024941Y-110789057D01*
X169906216Y-110942116D01*
X169820693Y-111115923D01*
X169819086Y-111122093D01*
X169819084Y-111122098D01*
X169776963Y-111283803D01*
X169771865Y-111303376D01*
X169761727Y-111496818D01*
X169790693Y-111688349D01*
X169857581Y-111870142D01*
X169860939Y-111875558D01*
X169860941Y-111875562D01*
X169956293Y-112029350D01*
X169956296Y-112029354D01*
X169959656Y-112034773D01*
X170092751Y-112175517D01*
X170251427Y-112286623D01*
X170353780Y-112330915D01*
X170419545Y-112359374D01*
X170429204Y-112363554D01*
X170435452Y-112364859D01*
X170435451Y-112364859D01*
X170614073Y-112402176D01*
X170614077Y-112402176D01*
X170618818Y-112403167D01*
X170625172Y-112403500D01*
X171427408Y-112403500D01*
X171474457Y-112398721D01*
X171565368Y-112389487D01*
X171565370Y-112389487D01*
X171571716Y-112388842D01*
X171756561Y-112330915D01*
X171770415Y-112323236D01*
X171839690Y-112307704D01*
X171906366Y-112332092D01*
X171949273Y-112388656D01*
X171957500Y-112433438D01*
X171957500Y-117469563D01*
X171937498Y-117537684D01*
X171883842Y-117584177D01*
X171813568Y-117594281D01*
X171781461Y-117585201D01*
X171668796Y-117536446D01*
X171556889Y-117513067D01*
X171483927Y-117497824D01*
X171483923Y-117497824D01*
X171479182Y-117496833D01*
X171472828Y-117496500D01*
X170670592Y-117496500D01*
X170656898Y-117497891D01*
X170532632Y-117510513D01*
X170532630Y-117510513D01*
X170526284Y-117511158D01*
X170341439Y-117569085D01*
X170172018Y-117662997D01*
X170167170Y-117667153D01*
X170167169Y-117667153D01*
X170130594Y-117698502D01*
X170024941Y-117789057D01*
X169999273Y-117822148D01*
X169944577Y-117892662D01*
X169906216Y-117942116D01*
X169820693Y-118115923D01*
X169819086Y-118122093D01*
X169819084Y-118122098D01*
X169785681Y-118250335D01*
X169771865Y-118303376D01*
X169771531Y-118309756D01*
X169762162Y-118488523D01*
X169761727Y-118496818D01*
X169790693Y-118688349D01*
X169792896Y-118694337D01*
X169792897Y-118694340D01*
X169808062Y-118735556D01*
X169857581Y-118870142D01*
X169860939Y-118875558D01*
X169860941Y-118875562D01*
X169956293Y-119029350D01*
X169956296Y-119029354D01*
X169959656Y-119034773D01*
X169964042Y-119039411D01*
X170073461Y-119155118D01*
X170092751Y-119175517D01*
X170251427Y-119286623D01*
X170353780Y-119330915D01*
X170419545Y-119359374D01*
X170429204Y-119363554D01*
X170435452Y-119364859D01*
X170435451Y-119364859D01*
X170614073Y-119402176D01*
X170614077Y-119402176D01*
X170618818Y-119403167D01*
X170625172Y-119403500D01*
X171427408Y-119403500D01*
X171473161Y-119398853D01*
X171565368Y-119389487D01*
X171565370Y-119389487D01*
X171571716Y-119388842D01*
X171756561Y-119330915D01*
X171770415Y-119323236D01*
X171839690Y-119307704D01*
X171906366Y-119332092D01*
X171949273Y-119388656D01*
X171957500Y-119433438D01*
X171957500Y-132859883D01*
X171937498Y-132928004D01*
X171883842Y-132974497D01*
X171813568Y-132984601D01*
X171805303Y-132983130D01*
X171653544Y-132950872D01*
X171653539Y-132950872D01*
X171647087Y-132949500D01*
X171456113Y-132949500D01*
X171449661Y-132950872D01*
X171449656Y-132950872D01*
X171381879Y-132965279D01*
X171269312Y-132989206D01*
X171263282Y-132991891D01*
X171263281Y-132991891D01*
X171100878Y-133064197D01*
X171100876Y-133064198D01*
X171094848Y-133066882D01*
X170940347Y-133179134D01*
X170935926Y-133184044D01*
X170935925Y-133184045D01*
X170857857Y-133270749D01*
X170812560Y-133321056D01*
X170717073Y-133486444D01*
X170658058Y-133668072D01*
X170638096Y-133858000D01*
X170658058Y-134047928D01*
X170717073Y-134229556D01*
X170812560Y-134394944D01*
X170816978Y-134399851D01*
X170816979Y-134399852D01*
X170935925Y-134531955D01*
X170940347Y-134536866D01*
X171094848Y-134649118D01*
X171100876Y-134651802D01*
X171100878Y-134651803D01*
X171263281Y-134724109D01*
X171269312Y-134726794D01*
X171362713Y-134746647D01*
X171449656Y-134765128D01*
X171449661Y-134765128D01*
X171456113Y-134766500D01*
X171647087Y-134766500D01*
X171653539Y-134765128D01*
X171653544Y-134765128D01*
X171805303Y-134732870D01*
X171876094Y-134738272D01*
X171932726Y-134781089D01*
X171957220Y-134847726D01*
X171957500Y-134856117D01*
X171957500Y-137776685D01*
X171937498Y-137844806D01*
X171883842Y-137891299D01*
X171813568Y-137901403D01*
X171805303Y-137899932D01*
X171704344Y-137878472D01*
X171704339Y-137878472D01*
X171697887Y-137877100D01*
X171506913Y-137877100D01*
X171500461Y-137878472D01*
X171500456Y-137878472D01*
X171440112Y-137891299D01*
X171320112Y-137916806D01*
X171314082Y-137919491D01*
X171314081Y-137919491D01*
X171151678Y-137991797D01*
X171151676Y-137991798D01*
X171145648Y-137994482D01*
X171140307Y-137998362D01*
X171140306Y-137998363D01*
X171092260Y-138033271D01*
X170991147Y-138106734D01*
X170863360Y-138248656D01*
X170767873Y-138414044D01*
X170708858Y-138595672D01*
X170688896Y-138785600D01*
X170708858Y-138975528D01*
X170767873Y-139157156D01*
X170863360Y-139322544D01*
X170867778Y-139327451D01*
X170867779Y-139327452D01*
X170986725Y-139459555D01*
X170991147Y-139464466D01*
X171145648Y-139576718D01*
X171151676Y-139579402D01*
X171151678Y-139579403D01*
X171314081Y-139651709D01*
X171320112Y-139654394D01*
X171413513Y-139674247D01*
X171500456Y-139692728D01*
X171500461Y-139692728D01*
X171506913Y-139694100D01*
X171697887Y-139694100D01*
X171704339Y-139692728D01*
X171704344Y-139692728D01*
X171805303Y-139671268D01*
X171876094Y-139676670D01*
X171932726Y-139719487D01*
X171957220Y-139786125D01*
X171957500Y-139794515D01*
X171957500Y-155321500D01*
X171937498Y-155389621D01*
X171883842Y-155436114D01*
X171831500Y-155447500D01*
X127500500Y-155447500D01*
X127432379Y-155427498D01*
X127385886Y-155373842D01*
X127374500Y-155321500D01*
X127374500Y-151629695D01*
X149244251Y-151629695D01*
X149257110Y-151852715D01*
X149258247Y-151857761D01*
X149258248Y-151857767D01*
X149282304Y-151964508D01*
X149306222Y-152070639D01*
X149390266Y-152277616D01*
X149427685Y-152338678D01*
X149504291Y-152463688D01*
X149506987Y-152468088D01*
X149653250Y-152636938D01*
X149825126Y-152779632D01*
X150018000Y-152892338D01*
X150226692Y-152972030D01*
X150231760Y-152973061D01*
X150231763Y-152973062D01*
X150339017Y-152994883D01*
X150445597Y-153016567D01*
X150450772Y-153016757D01*
X150450774Y-153016757D01*
X150663673Y-153024564D01*
X150663677Y-153024564D01*
X150668837Y-153024753D01*
X150673957Y-153024097D01*
X150673959Y-153024097D01*
X150885288Y-152997025D01*
X150885289Y-152997025D01*
X150890416Y-152996368D01*
X150895366Y-152994883D01*
X151099429Y-152933661D01*
X151099434Y-152933659D01*
X151104384Y-152932174D01*
X151304994Y-152833896D01*
X151486860Y-152704173D01*
X151645096Y-152546489D01*
X151704594Y-152463689D01*
X151775453Y-152365077D01*
X151776776Y-152366028D01*
X151823645Y-152322857D01*
X151893580Y-152310625D01*
X151959026Y-152338144D01*
X151986875Y-152369994D01*
X152046987Y-152468088D01*
X152193250Y-152636938D01*
X152365126Y-152779632D01*
X152558000Y-152892338D01*
X152766692Y-152972030D01*
X152771760Y-152973061D01*
X152771763Y-152973062D01*
X152879017Y-152994883D01*
X152985597Y-153016567D01*
X152990772Y-153016757D01*
X152990774Y-153016757D01*
X153203673Y-153024564D01*
X153203677Y-153024564D01*
X153208837Y-153024753D01*
X153213957Y-153024097D01*
X153213959Y-153024097D01*
X153425288Y-152997025D01*
X153425289Y-152997025D01*
X153430416Y-152996368D01*
X153435366Y-152994883D01*
X153639429Y-152933661D01*
X153639434Y-152933659D01*
X153644384Y-152932174D01*
X153844994Y-152833896D01*
X154026860Y-152704173D01*
X154185096Y-152546489D01*
X154244594Y-152463689D01*
X154315453Y-152365077D01*
X154316776Y-152366028D01*
X154363645Y-152322857D01*
X154433580Y-152310625D01*
X154499026Y-152338144D01*
X154526875Y-152369994D01*
X154586987Y-152468088D01*
X154733250Y-152636938D01*
X154905126Y-152779632D01*
X155098000Y-152892338D01*
X155306692Y-152972030D01*
X155311760Y-152973061D01*
X155311763Y-152973062D01*
X155419017Y-152994883D01*
X155525597Y-153016567D01*
X155530772Y-153016757D01*
X155530774Y-153016757D01*
X155743673Y-153024564D01*
X155743677Y-153024564D01*
X155748837Y-153024753D01*
X155753957Y-153024097D01*
X155753959Y-153024097D01*
X155965288Y-152997025D01*
X155965289Y-152997025D01*
X155970416Y-152996368D01*
X155975366Y-152994883D01*
X156179429Y-152933661D01*
X156179434Y-152933659D01*
X156184384Y-152932174D01*
X156384994Y-152833896D01*
X156566860Y-152704173D01*
X156725096Y-152546489D01*
X156784594Y-152463689D01*
X156855453Y-152365077D01*
X156856776Y-152366028D01*
X156903645Y-152322857D01*
X156973580Y-152310625D01*
X157039026Y-152338144D01*
X157066875Y-152369994D01*
X157126987Y-152468088D01*
X157273250Y-152636938D01*
X157445126Y-152779632D01*
X157638000Y-152892338D01*
X157846692Y-152972030D01*
X157851760Y-152973061D01*
X157851763Y-152973062D01*
X157959017Y-152994883D01*
X158065597Y-153016567D01*
X158070772Y-153016757D01*
X158070774Y-153016757D01*
X158283673Y-153024564D01*
X158283677Y-153024564D01*
X158288837Y-153024753D01*
X158293957Y-153024097D01*
X158293959Y-153024097D01*
X158505288Y-152997025D01*
X158505289Y-152997025D01*
X158510416Y-152996368D01*
X158515366Y-152994883D01*
X158719429Y-152933661D01*
X158719434Y-152933659D01*
X158724384Y-152932174D01*
X158924994Y-152833896D01*
X159106860Y-152704173D01*
X159265096Y-152546489D01*
X159324594Y-152463689D01*
X159395453Y-152365077D01*
X159396776Y-152366028D01*
X159443645Y-152322857D01*
X159513580Y-152310625D01*
X159579026Y-152338144D01*
X159606875Y-152369994D01*
X159666987Y-152468088D01*
X159813250Y-152636938D01*
X159985126Y-152779632D01*
X160178000Y-152892338D01*
X160386692Y-152972030D01*
X160391760Y-152973061D01*
X160391763Y-152973062D01*
X160499017Y-152994883D01*
X160605597Y-153016567D01*
X160610772Y-153016757D01*
X160610774Y-153016757D01*
X160823673Y-153024564D01*
X160823677Y-153024564D01*
X160828837Y-153024753D01*
X160833957Y-153024097D01*
X160833959Y-153024097D01*
X161045288Y-152997025D01*
X161045289Y-152997025D01*
X161050416Y-152996368D01*
X161055366Y-152994883D01*
X161259429Y-152933661D01*
X161259434Y-152933659D01*
X161264384Y-152932174D01*
X161464994Y-152833896D01*
X161646860Y-152704173D01*
X161805096Y-152546489D01*
X161864594Y-152463689D01*
X161935453Y-152365077D01*
X161936776Y-152366028D01*
X161983645Y-152322857D01*
X162053580Y-152310625D01*
X162119026Y-152338144D01*
X162146875Y-152369994D01*
X162206987Y-152468088D01*
X162353250Y-152636938D01*
X162525126Y-152779632D01*
X162718000Y-152892338D01*
X162926692Y-152972030D01*
X162931760Y-152973061D01*
X162931763Y-152973062D01*
X163039017Y-152994883D01*
X163145597Y-153016567D01*
X163150772Y-153016757D01*
X163150774Y-153016757D01*
X163363673Y-153024564D01*
X163363677Y-153024564D01*
X163368837Y-153024753D01*
X163373957Y-153024097D01*
X163373959Y-153024097D01*
X163585288Y-152997025D01*
X163585289Y-152997025D01*
X163590416Y-152996368D01*
X163595366Y-152994883D01*
X163799429Y-152933661D01*
X163799434Y-152933659D01*
X163804384Y-152932174D01*
X164004994Y-152833896D01*
X164186860Y-152704173D01*
X164345096Y-152546489D01*
X164404594Y-152463689D01*
X164475453Y-152365077D01*
X164476776Y-152366028D01*
X164523645Y-152322857D01*
X164593580Y-152310625D01*
X164659026Y-152338144D01*
X164686875Y-152369994D01*
X164746987Y-152468088D01*
X164893250Y-152636938D01*
X165065126Y-152779632D01*
X165258000Y-152892338D01*
X165466692Y-152972030D01*
X165471760Y-152973061D01*
X165471763Y-152973062D01*
X165579017Y-152994883D01*
X165685597Y-153016567D01*
X165690772Y-153016757D01*
X165690774Y-153016757D01*
X165903673Y-153024564D01*
X165903677Y-153024564D01*
X165908837Y-153024753D01*
X165913957Y-153024097D01*
X165913959Y-153024097D01*
X166125288Y-152997025D01*
X166125289Y-152997025D01*
X166130416Y-152996368D01*
X166135366Y-152994883D01*
X166339429Y-152933661D01*
X166339434Y-152933659D01*
X166344384Y-152932174D01*
X166544994Y-152833896D01*
X166726860Y-152704173D01*
X166835091Y-152596319D01*
X166897462Y-152562404D01*
X166968268Y-152567592D01*
X167025030Y-152610238D01*
X167042012Y-152641341D01*
X167086385Y-152759705D01*
X167173739Y-152876261D01*
X167290295Y-152963615D01*
X167426684Y-153014745D01*
X167488866Y-153021500D01*
X169285134Y-153021500D01*
X169347316Y-153014745D01*
X169483705Y-152963615D01*
X169600261Y-152876261D01*
X169687615Y-152759705D01*
X169738745Y-152623316D01*
X169745500Y-152561134D01*
X169745500Y-150764866D01*
X169738745Y-150702684D01*
X169687615Y-150566295D01*
X169600261Y-150449739D01*
X169483705Y-150362385D01*
X169347316Y-150311255D01*
X169285134Y-150304500D01*
X167488866Y-150304500D01*
X167426684Y-150311255D01*
X167290295Y-150362385D01*
X167173739Y-150449739D01*
X167086385Y-150566295D01*
X167083233Y-150574703D01*
X167041919Y-150684907D01*
X166999277Y-150741671D01*
X166932716Y-150766371D01*
X166863367Y-150751163D01*
X166830743Y-150725476D01*
X166780151Y-150669875D01*
X166780142Y-150669866D01*
X166776670Y-150666051D01*
X166772619Y-150662852D01*
X166772615Y-150662848D01*
X166605414Y-150530800D01*
X166605410Y-150530798D01*
X166601359Y-150527598D01*
X166572727Y-150511792D01*
X166549136Y-150498769D01*
X166405789Y-150419638D01*
X166400920Y-150417914D01*
X166400916Y-150417912D01*
X166200087Y-150346795D01*
X166200083Y-150346794D01*
X166195212Y-150345069D01*
X166190119Y-150344162D01*
X166190116Y-150344161D01*
X165980373Y-150306800D01*
X165980367Y-150306799D01*
X165975284Y-150305894D01*
X165901452Y-150304992D01*
X165757081Y-150303228D01*
X165757079Y-150303228D01*
X165751911Y-150303165D01*
X165531091Y-150336955D01*
X165318756Y-150406357D01*
X165120607Y-150509507D01*
X165116474Y-150512610D01*
X165116471Y-150512612D01*
X164946100Y-150640530D01*
X164941965Y-150643635D01*
X164902525Y-150684907D01*
X164848280Y-150741671D01*
X164787629Y-150805138D01*
X164680201Y-150962621D01*
X164625293Y-151007621D01*
X164554768Y-151015792D01*
X164491021Y-150984538D01*
X164470324Y-150960054D01*
X164389822Y-150835617D01*
X164389820Y-150835614D01*
X164387014Y-150831277D01*
X164236670Y-150666051D01*
X164232619Y-150662852D01*
X164232615Y-150662848D01*
X164065414Y-150530800D01*
X164065410Y-150530798D01*
X164061359Y-150527598D01*
X164032727Y-150511792D01*
X164009136Y-150498769D01*
X163865789Y-150419638D01*
X163860920Y-150417914D01*
X163860916Y-150417912D01*
X163660087Y-150346795D01*
X163660083Y-150346794D01*
X163655212Y-150345069D01*
X163650119Y-150344162D01*
X163650116Y-150344161D01*
X163440373Y-150306800D01*
X163440367Y-150306799D01*
X163435284Y-150305894D01*
X163361452Y-150304992D01*
X163217081Y-150303228D01*
X163217079Y-150303228D01*
X163211911Y-150303165D01*
X162991091Y-150336955D01*
X162778756Y-150406357D01*
X162580607Y-150509507D01*
X162576474Y-150512610D01*
X162576471Y-150512612D01*
X162406100Y-150640530D01*
X162401965Y-150643635D01*
X162362525Y-150684907D01*
X162308280Y-150741671D01*
X162247629Y-150805138D01*
X162140201Y-150962621D01*
X162085293Y-151007621D01*
X162014768Y-151015792D01*
X161951021Y-150984538D01*
X161930324Y-150960054D01*
X161849822Y-150835617D01*
X161849820Y-150835614D01*
X161847014Y-150831277D01*
X161696670Y-150666051D01*
X161692619Y-150662852D01*
X161692615Y-150662848D01*
X161525414Y-150530800D01*
X161525410Y-150530798D01*
X161521359Y-150527598D01*
X161492727Y-150511792D01*
X161469136Y-150498769D01*
X161325789Y-150419638D01*
X161320920Y-150417914D01*
X161320916Y-150417912D01*
X161120087Y-150346795D01*
X161120083Y-150346794D01*
X161115212Y-150345069D01*
X161110119Y-150344162D01*
X161110116Y-150344161D01*
X160900373Y-150306800D01*
X160900367Y-150306799D01*
X160895284Y-150305894D01*
X160821452Y-150304992D01*
X160677081Y-150303228D01*
X160677079Y-150303228D01*
X160671911Y-150303165D01*
X160451091Y-150336955D01*
X160238756Y-150406357D01*
X160040607Y-150509507D01*
X160036474Y-150512610D01*
X160036471Y-150512612D01*
X159866100Y-150640530D01*
X159861965Y-150643635D01*
X159822525Y-150684907D01*
X159768280Y-150741671D01*
X159707629Y-150805138D01*
X159600201Y-150962621D01*
X159545293Y-151007621D01*
X159474768Y-151015792D01*
X159411021Y-150984538D01*
X159390324Y-150960054D01*
X159309822Y-150835617D01*
X159309820Y-150835614D01*
X159307014Y-150831277D01*
X159156670Y-150666051D01*
X159152619Y-150662852D01*
X159152615Y-150662848D01*
X158985414Y-150530800D01*
X158985410Y-150530798D01*
X158981359Y-150527598D01*
X158952727Y-150511792D01*
X158929136Y-150498769D01*
X158785789Y-150419638D01*
X158780920Y-150417914D01*
X158780916Y-150417912D01*
X158580087Y-150346795D01*
X158580083Y-150346794D01*
X158575212Y-150345069D01*
X158570119Y-150344162D01*
X158570116Y-150344161D01*
X158360373Y-150306800D01*
X158360367Y-150306799D01*
X158355284Y-150305894D01*
X158281452Y-150304992D01*
X158137081Y-150303228D01*
X158137079Y-150303228D01*
X158131911Y-150303165D01*
X157911091Y-150336955D01*
X157698756Y-150406357D01*
X157500607Y-150509507D01*
X157496474Y-150512610D01*
X157496471Y-150512612D01*
X157326100Y-150640530D01*
X157321965Y-150643635D01*
X157282525Y-150684907D01*
X157228280Y-150741671D01*
X157167629Y-150805138D01*
X157060201Y-150962621D01*
X157005293Y-151007621D01*
X156934768Y-151015792D01*
X156871021Y-150984538D01*
X156850324Y-150960054D01*
X156769822Y-150835617D01*
X156769820Y-150835614D01*
X156767014Y-150831277D01*
X156616670Y-150666051D01*
X156612619Y-150662852D01*
X156612615Y-150662848D01*
X156445414Y-150530800D01*
X156445410Y-150530798D01*
X156441359Y-150527598D01*
X156412727Y-150511792D01*
X156389136Y-150498769D01*
X156245789Y-150419638D01*
X156240920Y-150417914D01*
X156240916Y-150417912D01*
X156040087Y-150346795D01*
X156040083Y-150346794D01*
X156035212Y-150345069D01*
X156030119Y-150344162D01*
X156030116Y-150344161D01*
X155820373Y-150306800D01*
X155820367Y-150306799D01*
X155815284Y-150305894D01*
X155741452Y-150304992D01*
X155597081Y-150303228D01*
X155597079Y-150303228D01*
X155591911Y-150303165D01*
X155371091Y-150336955D01*
X155158756Y-150406357D01*
X154960607Y-150509507D01*
X154956474Y-150512610D01*
X154956471Y-150512612D01*
X154786100Y-150640530D01*
X154781965Y-150643635D01*
X154742525Y-150684907D01*
X154688280Y-150741671D01*
X154627629Y-150805138D01*
X154520201Y-150962621D01*
X154465293Y-151007621D01*
X154394768Y-151015792D01*
X154331021Y-150984538D01*
X154310324Y-150960054D01*
X154229822Y-150835617D01*
X154229820Y-150835614D01*
X154227014Y-150831277D01*
X154076670Y-150666051D01*
X154072619Y-150662852D01*
X154072615Y-150662848D01*
X153905414Y-150530800D01*
X153905410Y-150530798D01*
X153901359Y-150527598D01*
X153872727Y-150511792D01*
X153849136Y-150498769D01*
X153705789Y-150419638D01*
X153700920Y-150417914D01*
X153700916Y-150417912D01*
X153500087Y-150346795D01*
X153500083Y-150346794D01*
X153495212Y-150345069D01*
X153490119Y-150344162D01*
X153490116Y-150344161D01*
X153280373Y-150306800D01*
X153280367Y-150306799D01*
X153275284Y-150305894D01*
X153201452Y-150304992D01*
X153057081Y-150303228D01*
X153057079Y-150303228D01*
X153051911Y-150303165D01*
X152831091Y-150336955D01*
X152618756Y-150406357D01*
X152420607Y-150509507D01*
X152416474Y-150512610D01*
X152416471Y-150512612D01*
X152246100Y-150640530D01*
X152241965Y-150643635D01*
X152202525Y-150684907D01*
X152148280Y-150741671D01*
X152087629Y-150805138D01*
X151980201Y-150962621D01*
X151925293Y-151007621D01*
X151854768Y-151015792D01*
X151791021Y-150984538D01*
X151770324Y-150960054D01*
X151689822Y-150835617D01*
X151689820Y-150835614D01*
X151687014Y-150831277D01*
X151536670Y-150666051D01*
X151532619Y-150662852D01*
X151532615Y-150662848D01*
X151365414Y-150530800D01*
X151365410Y-150530798D01*
X151361359Y-150527598D01*
X151332727Y-150511792D01*
X151309136Y-150498769D01*
X151165789Y-150419638D01*
X151160920Y-150417914D01*
X151160916Y-150417912D01*
X150960087Y-150346795D01*
X150960083Y-150346794D01*
X150955212Y-150345069D01*
X150950119Y-150344162D01*
X150950116Y-150344161D01*
X150740373Y-150306800D01*
X150740367Y-150306799D01*
X150735284Y-150305894D01*
X150661452Y-150304992D01*
X150517081Y-150303228D01*
X150517079Y-150303228D01*
X150511911Y-150303165D01*
X150291091Y-150336955D01*
X150078756Y-150406357D01*
X149880607Y-150509507D01*
X149876474Y-150512610D01*
X149876471Y-150512612D01*
X149706100Y-150640530D01*
X149701965Y-150643635D01*
X149662525Y-150684907D01*
X149608280Y-150741671D01*
X149547629Y-150805138D01*
X149544720Y-150809403D01*
X149544714Y-150809411D01*
X149519755Y-150846000D01*
X149421743Y-150989680D01*
X149327688Y-151192305D01*
X149267989Y-151407570D01*
X149244251Y-151629695D01*
X127374500Y-151629695D01*
X127374500Y-149389399D01*
X138837500Y-149389399D01*
X138852157Y-149571569D01*
X138853363Y-149576477D01*
X138853363Y-149576480D01*
X138886845Y-149712794D01*
X138910444Y-149808872D01*
X138912419Y-149813524D01*
X138912420Y-149813528D01*
X138967110Y-149942369D01*
X139005922Y-150033804D01*
X139136134Y-150240577D01*
X139297730Y-150423871D01*
X139486552Y-150578972D01*
X139697743Y-150701888D01*
X139797928Y-150740345D01*
X139921146Y-150787644D01*
X139921150Y-150787645D01*
X139925870Y-150789457D01*
X139930820Y-150790491D01*
X139930823Y-150790492D01*
X140160111Y-150838393D01*
X140160115Y-150838393D01*
X140165062Y-150839427D01*
X140409167Y-150850512D01*
X140414187Y-150849931D01*
X140414191Y-150849931D01*
X140646877Y-150823008D01*
X140646881Y-150823007D01*
X140651904Y-150822426D01*
X140656769Y-150821049D01*
X140656771Y-150821049D01*
X140855319Y-150764866D01*
X140887029Y-150755893D01*
X140897173Y-150751163D01*
X141008304Y-150699341D01*
X141108491Y-150652623D01*
X141112671Y-150649782D01*
X141112675Y-150649780D01*
X141246093Y-150559109D01*
X141310593Y-150515275D01*
X141450820Y-150382669D01*
X144018001Y-150382669D01*
X144018371Y-150389490D01*
X144023895Y-150440352D01*
X144027521Y-150455604D01*
X144072676Y-150576054D01*
X144081214Y-150591649D01*
X144157715Y-150693724D01*
X144170276Y-150706285D01*
X144272351Y-150782786D01*
X144287946Y-150791324D01*
X144408394Y-150836478D01*
X144423649Y-150840105D01*
X144474514Y-150845631D01*
X144481328Y-150846000D01*
X145263885Y-150846000D01*
X145279124Y-150841525D01*
X145280329Y-150840135D01*
X145282000Y-150832452D01*
X145282000Y-150827884D01*
X145790000Y-150827884D01*
X145794475Y-150843123D01*
X145795865Y-150844328D01*
X145803548Y-150845999D01*
X146590669Y-150845999D01*
X146597490Y-150845629D01*
X146648352Y-150840105D01*
X146663604Y-150836479D01*
X146784054Y-150791324D01*
X146799649Y-150782786D01*
X146901724Y-150706285D01*
X146914285Y-150693724D01*
X146990786Y-150591649D01*
X146999324Y-150576054D01*
X147044478Y-150455606D01*
X147048105Y-150440351D01*
X147053631Y-150389486D01*
X147054000Y-150382672D01*
X147054000Y-148100115D01*
X147049525Y-148084876D01*
X147048135Y-148083671D01*
X147040452Y-148082000D01*
X145808115Y-148082000D01*
X145792876Y-148086475D01*
X145791671Y-148087865D01*
X145790000Y-148095548D01*
X145790000Y-150827884D01*
X145282000Y-150827884D01*
X145282000Y-148100115D01*
X145277525Y-148084876D01*
X145276135Y-148083671D01*
X145268452Y-148082000D01*
X144036116Y-148082000D01*
X144020877Y-148086475D01*
X144019672Y-148087865D01*
X144018001Y-148095548D01*
X144018001Y-150382669D01*
X141450820Y-150382669D01*
X141488137Y-150347380D01*
X141496706Y-150336173D01*
X141633475Y-150157286D01*
X141633476Y-150157285D01*
X141636553Y-150153260D01*
X141752024Y-149937908D01*
X141802347Y-149791757D01*
X141843435Y-149733862D01*
X141909304Y-149707371D01*
X141957290Y-149712606D01*
X141957712Y-149712794D01*
X141964168Y-149714166D01*
X141964167Y-149714166D01*
X142138056Y-149751128D01*
X142138061Y-149751128D01*
X142144513Y-149752500D01*
X142335487Y-149752500D01*
X142341939Y-149751128D01*
X142341944Y-149751128D01*
X142428888Y-149732647D01*
X142522288Y-149712794D01*
X142528319Y-149710109D01*
X142690722Y-149637803D01*
X142690724Y-149637802D01*
X142696752Y-149635118D01*
X142851253Y-149522866D01*
X142855675Y-149517955D01*
X142974621Y-149385852D01*
X142974622Y-149385851D01*
X142979040Y-149380944D01*
X143074527Y-149215556D01*
X143133542Y-149033928D01*
X143153504Y-148844000D01*
X143133542Y-148654072D01*
X143074527Y-148472444D01*
X142979040Y-148307056D01*
X142851253Y-148165134D01*
X142702332Y-148056936D01*
X142658978Y-148000713D01*
X142652903Y-147929977D01*
X142686035Y-147867186D01*
X142702332Y-147853064D01*
X142737204Y-147827728D01*
X142851253Y-147744866D01*
X142979040Y-147602944D01*
X143006210Y-147555885D01*
X144018000Y-147555885D01*
X144022475Y-147571124D01*
X144023865Y-147572329D01*
X144031548Y-147574000D01*
X145263885Y-147574000D01*
X145279124Y-147569525D01*
X145280329Y-147568135D01*
X145282000Y-147560452D01*
X145282000Y-147555885D01*
X145790000Y-147555885D01*
X145794475Y-147571124D01*
X145795865Y-147572329D01*
X145803548Y-147574000D01*
X147035884Y-147574000D01*
X147051123Y-147569525D01*
X147052328Y-147568135D01*
X147053999Y-147560452D01*
X147053999Y-145273331D01*
X147053629Y-145266510D01*
X147048105Y-145215648D01*
X147044479Y-145200396D01*
X146999324Y-145079946D01*
X146990786Y-145064351D01*
X146914285Y-144962276D01*
X146901724Y-144949715D01*
X146799649Y-144873214D01*
X146784054Y-144864676D01*
X146663606Y-144819522D01*
X146648351Y-144815895D01*
X146597486Y-144810369D01*
X146590672Y-144810000D01*
X145808115Y-144810000D01*
X145792876Y-144814475D01*
X145791671Y-144815865D01*
X145790000Y-144823548D01*
X145790000Y-147555885D01*
X145282000Y-147555885D01*
X145282000Y-144828116D01*
X145277525Y-144812877D01*
X145276135Y-144811672D01*
X145268452Y-144810001D01*
X144481331Y-144810001D01*
X144474510Y-144810371D01*
X144423648Y-144815895D01*
X144408396Y-144819521D01*
X144287946Y-144864676D01*
X144272351Y-144873214D01*
X144170276Y-144949715D01*
X144157715Y-144962276D01*
X144081214Y-145064351D01*
X144072676Y-145079946D01*
X144027522Y-145200394D01*
X144023895Y-145215649D01*
X144018369Y-145266514D01*
X144018000Y-145273328D01*
X144018000Y-147555885D01*
X143006210Y-147555885D01*
X143074527Y-147437556D01*
X143133542Y-147255928D01*
X143153504Y-147066000D01*
X143133542Y-146876072D01*
X143074527Y-146694444D01*
X142979040Y-146529056D01*
X142852312Y-146388310D01*
X142821594Y-146324303D01*
X142830359Y-146253849D01*
X142852312Y-146219690D01*
X142974621Y-146083852D01*
X142974622Y-146083851D01*
X142979040Y-146078944D01*
X143074527Y-145913556D01*
X143133542Y-145731928D01*
X143153504Y-145542000D01*
X143148955Y-145498714D01*
X143134232Y-145358635D01*
X143134232Y-145358633D01*
X143133542Y-145352072D01*
X143074527Y-145170444D01*
X142979040Y-145005056D01*
X142931520Y-144952279D01*
X142855675Y-144868045D01*
X142855674Y-144868044D01*
X142851253Y-144863134D01*
X142752157Y-144791136D01*
X142702094Y-144754763D01*
X142702093Y-144754762D01*
X142696752Y-144750882D01*
X142690724Y-144748198D01*
X142690722Y-144748197D01*
X142528319Y-144675891D01*
X142528318Y-144675891D01*
X142522288Y-144673206D01*
X142428887Y-144653353D01*
X142341944Y-144634872D01*
X142341939Y-144634872D01*
X142335487Y-144633500D01*
X142144513Y-144633500D01*
X142138061Y-144634872D01*
X142138056Y-144634872D01*
X142051113Y-144653353D01*
X141957712Y-144673206D01*
X141951682Y-144675891D01*
X141951681Y-144675891D01*
X141789278Y-144748197D01*
X141789276Y-144748198D01*
X141783248Y-144750882D01*
X141777907Y-144754762D01*
X141777906Y-144754763D01*
X141727843Y-144791136D01*
X141628747Y-144863134D01*
X141624326Y-144868044D01*
X141624325Y-144868045D01*
X141548481Y-144952279D01*
X141500960Y-145005056D01*
X141497659Y-145010774D01*
X141458433Y-145078715D01*
X141407051Y-145127708D01*
X141337337Y-145141144D01*
X141269339Y-145113080D01*
X141229358Y-145080239D01*
X141229352Y-145080235D01*
X141225448Y-145077028D01*
X141014257Y-144954112D01*
X140914072Y-144915655D01*
X140790854Y-144868356D01*
X140790850Y-144868355D01*
X140786130Y-144866543D01*
X140781180Y-144865509D01*
X140781177Y-144865508D01*
X140551889Y-144817607D01*
X140551885Y-144817607D01*
X140546938Y-144816573D01*
X140302833Y-144805488D01*
X140297813Y-144806069D01*
X140297809Y-144806069D01*
X140065123Y-144832992D01*
X140065119Y-144832993D01*
X140060096Y-144833574D01*
X140055231Y-144834951D01*
X140055229Y-144834951D01*
X139943585Y-144866543D01*
X139824971Y-144900107D01*
X139820392Y-144902242D01*
X139820390Y-144902243D01*
X139725361Y-144946556D01*
X139603509Y-145003377D01*
X139599329Y-145006218D01*
X139599325Y-145006220D01*
X139525744Y-145056226D01*
X139401407Y-145140725D01*
X139223863Y-145308620D01*
X139220785Y-145312646D01*
X139220784Y-145312647D01*
X139129434Y-145432128D01*
X139075447Y-145502740D01*
X138959976Y-145718092D01*
X138880422Y-145949136D01*
X138838830Y-146189927D01*
X138837500Y-146219215D01*
X138837500Y-149389399D01*
X127374500Y-149389399D01*
X127374500Y-144525000D01*
X159636496Y-144525000D01*
X159656458Y-144714928D01*
X159715473Y-144896556D01*
X159810960Y-145061944D01*
X159815378Y-145066851D01*
X159815379Y-145066852D01*
X159855980Y-145111944D01*
X159938747Y-145203866D01*
X160093248Y-145316118D01*
X160099276Y-145318802D01*
X160099278Y-145318803D01*
X160174002Y-145352072D01*
X160267712Y-145393794D01*
X160361113Y-145413647D01*
X160448056Y-145432128D01*
X160448061Y-145432128D01*
X160454513Y-145433500D01*
X160645487Y-145433500D01*
X160651939Y-145432128D01*
X160651944Y-145432128D01*
X160738887Y-145413647D01*
X160832288Y-145393794D01*
X160925998Y-145352072D01*
X161000722Y-145318803D01*
X161000724Y-145318802D01*
X161006752Y-145316118D01*
X161161253Y-145203866D01*
X161244020Y-145111944D01*
X161284621Y-145066852D01*
X161284622Y-145066851D01*
X161289040Y-145061944D01*
X161384527Y-144896556D01*
X161443542Y-144714928D01*
X161463504Y-144525000D01*
X161443542Y-144335072D01*
X161384527Y-144153444D01*
X161291421Y-143992180D01*
X161274683Y-143923185D01*
X161297903Y-143856093D01*
X161306894Y-143844880D01*
X161314040Y-143836944D01*
X161409527Y-143671556D01*
X161468542Y-143489928D01*
X161475366Y-143425000D01*
X163161496Y-143425000D01*
X163181458Y-143614928D01*
X163240473Y-143796556D01*
X163322569Y-143938749D01*
X163334059Y-143958651D01*
X163350797Y-144027646D01*
X163334060Y-144084648D01*
X163265473Y-144203444D01*
X163206458Y-144385072D01*
X163186496Y-144575000D01*
X163187186Y-144581565D01*
X163205390Y-144754763D01*
X163206458Y-144764928D01*
X163265473Y-144946556D01*
X163268776Y-144952278D01*
X163268777Y-144952279D01*
X163269835Y-144954112D01*
X163360960Y-145111944D01*
X163365378Y-145116851D01*
X163365379Y-145116852D01*
X163439305Y-145198955D01*
X163488747Y-145253866D01*
X163569652Y-145312647D01*
X163632949Y-145358635D01*
X163643248Y-145366118D01*
X163649276Y-145368802D01*
X163649278Y-145368803D01*
X163794591Y-145433500D01*
X163817712Y-145443794D01*
X163911112Y-145463647D01*
X163998056Y-145482128D01*
X163998061Y-145482128D01*
X164004513Y-145483500D01*
X164195487Y-145483500D01*
X164201939Y-145482128D01*
X164201944Y-145482128D01*
X164288888Y-145463647D01*
X164382288Y-145443794D01*
X164405409Y-145433500D01*
X164550722Y-145368803D01*
X164550724Y-145368802D01*
X164556752Y-145366118D01*
X164567052Y-145358635D01*
X164630348Y-145312647D01*
X164711253Y-145253866D01*
X164760695Y-145198955D01*
X164834621Y-145116852D01*
X164834622Y-145116851D01*
X164839040Y-145111944D01*
X164930165Y-144954112D01*
X164931223Y-144952279D01*
X164931224Y-144952278D01*
X164934527Y-144946556D01*
X164993542Y-144764928D01*
X164994611Y-144754763D01*
X165012814Y-144581565D01*
X165013504Y-144575000D01*
X164993542Y-144385072D01*
X164934527Y-144203444D01*
X164911251Y-144163128D01*
X164840941Y-144041349D01*
X164824203Y-143972354D01*
X164840940Y-143915352D01*
X164909527Y-143796556D01*
X164968542Y-143614928D01*
X164988504Y-143425000D01*
X164968542Y-143235072D01*
X164909527Y-143053444D01*
X164869809Y-142984650D01*
X164853071Y-142915656D01*
X164869809Y-142858651D01*
X164931223Y-142752279D01*
X164931224Y-142752278D01*
X164933693Y-142748000D01*
X169520496Y-142748000D01*
X169521186Y-142754565D01*
X169538860Y-142922721D01*
X169540458Y-142937928D01*
X169599473Y-143119556D01*
X169694960Y-143284944D01*
X169699378Y-143289851D01*
X169699379Y-143289852D01*
X169815156Y-143418435D01*
X169822747Y-143426866D01*
X169977248Y-143539118D01*
X169983276Y-143541802D01*
X169983278Y-143541803D01*
X170132780Y-143608365D01*
X170151712Y-143616794D01*
X170245113Y-143636647D01*
X170332056Y-143655128D01*
X170332061Y-143655128D01*
X170338513Y-143656500D01*
X170529487Y-143656500D01*
X170535939Y-143655128D01*
X170535944Y-143655128D01*
X170622887Y-143636647D01*
X170716288Y-143616794D01*
X170735220Y-143608365D01*
X170884722Y-143541803D01*
X170884724Y-143541802D01*
X170890752Y-143539118D01*
X171045253Y-143426866D01*
X171052844Y-143418435D01*
X171168621Y-143289852D01*
X171168622Y-143289851D01*
X171173040Y-143284944D01*
X171268527Y-143119556D01*
X171327542Y-142937928D01*
X171329141Y-142922721D01*
X171346814Y-142754565D01*
X171347504Y-142748000D01*
X171330062Y-142582045D01*
X171328232Y-142564635D01*
X171328232Y-142564633D01*
X171327542Y-142558072D01*
X171268527Y-142376444D01*
X171173040Y-142211056D01*
X171045253Y-142069134D01*
X170890752Y-141956882D01*
X170884724Y-141954198D01*
X170884722Y-141954197D01*
X170722319Y-141881891D01*
X170722318Y-141881891D01*
X170716288Y-141879206D01*
X170622887Y-141859353D01*
X170535944Y-141840872D01*
X170535939Y-141840872D01*
X170529487Y-141839500D01*
X170338513Y-141839500D01*
X170332061Y-141840872D01*
X170332056Y-141840872D01*
X170245113Y-141859353D01*
X170151712Y-141879206D01*
X170145682Y-141881891D01*
X170145681Y-141881891D01*
X169983278Y-141954197D01*
X169983276Y-141954198D01*
X169977248Y-141956882D01*
X169822747Y-142069134D01*
X169694960Y-142211056D01*
X169599473Y-142376444D01*
X169540458Y-142558072D01*
X169539768Y-142564633D01*
X169539768Y-142564635D01*
X169537938Y-142582045D01*
X169520496Y-142748000D01*
X164933693Y-142748000D01*
X164934527Y-142746556D01*
X164993542Y-142564928D01*
X164994923Y-142551794D01*
X165012814Y-142381565D01*
X165013504Y-142375000D01*
X164993542Y-142185072D01*
X164934527Y-142003444D01*
X164839040Y-141838056D01*
X164799169Y-141793774D01*
X164715675Y-141701045D01*
X164715674Y-141701044D01*
X164711253Y-141696134D01*
X164556752Y-141583882D01*
X164550724Y-141581198D01*
X164550722Y-141581197D01*
X164388319Y-141508891D01*
X164388318Y-141508891D01*
X164382288Y-141506206D01*
X164288887Y-141486353D01*
X164201944Y-141467872D01*
X164201939Y-141467872D01*
X164195487Y-141466500D01*
X164004513Y-141466500D01*
X163998061Y-141467872D01*
X163998056Y-141467872D01*
X163911113Y-141486353D01*
X163817712Y-141506206D01*
X163811682Y-141508891D01*
X163811681Y-141508891D01*
X163649278Y-141581197D01*
X163649276Y-141581198D01*
X163643248Y-141583882D01*
X163488747Y-141696134D01*
X163484326Y-141701044D01*
X163484325Y-141701045D01*
X163400832Y-141793774D01*
X163360960Y-141838056D01*
X163265473Y-142003444D01*
X163206458Y-142185072D01*
X163186496Y-142375000D01*
X163187186Y-142381565D01*
X163205078Y-142551794D01*
X163206458Y-142564928D01*
X163265473Y-142746556D01*
X163268776Y-142752278D01*
X163268777Y-142752279D01*
X163305191Y-142815349D01*
X163321929Y-142884344D01*
X163305191Y-142941349D01*
X163240473Y-143053444D01*
X163181458Y-143235072D01*
X163161496Y-143425000D01*
X161475366Y-143425000D01*
X161488504Y-143300000D01*
X161486321Y-143279226D01*
X161469232Y-143116635D01*
X161469232Y-143116633D01*
X161468542Y-143110072D01*
X161409527Y-142928444D01*
X161314040Y-142763056D01*
X161304337Y-142752279D01*
X161190675Y-142626045D01*
X161190674Y-142626044D01*
X161186253Y-142621134D01*
X161087157Y-142549136D01*
X161037094Y-142512763D01*
X161037093Y-142512762D01*
X161031752Y-142508882D01*
X161025724Y-142506198D01*
X161025722Y-142506197D01*
X160863319Y-142433891D01*
X160863318Y-142433891D01*
X160857288Y-142431206D01*
X160763888Y-142411353D01*
X160676944Y-142392872D01*
X160676939Y-142392872D01*
X160670487Y-142391500D01*
X160479513Y-142391500D01*
X160473061Y-142392872D01*
X160473056Y-142392872D01*
X160386112Y-142411353D01*
X160292712Y-142431206D01*
X160286682Y-142433891D01*
X160286681Y-142433891D01*
X160124278Y-142506197D01*
X160124276Y-142506198D01*
X160118248Y-142508882D01*
X160112907Y-142512762D01*
X160112906Y-142512763D01*
X160062843Y-142549136D01*
X159963747Y-142621134D01*
X159959326Y-142626044D01*
X159959325Y-142626045D01*
X159845664Y-142752279D01*
X159835960Y-142763056D01*
X159740473Y-142928444D01*
X159681458Y-143110072D01*
X159680768Y-143116633D01*
X159680768Y-143116635D01*
X159663679Y-143279226D01*
X159661496Y-143300000D01*
X159681458Y-143489928D01*
X159740473Y-143671556D01*
X159743776Y-143677278D01*
X159743777Y-143677279D01*
X159833579Y-143832820D01*
X159850317Y-143901815D01*
X159827097Y-143968907D01*
X159818106Y-143980120D01*
X159810960Y-143988056D01*
X159715473Y-144153444D01*
X159656458Y-144335072D01*
X159636496Y-144525000D01*
X127374500Y-144525000D01*
X127374500Y-143256000D01*
X148438496Y-143256000D01*
X148439186Y-143262565D01*
X148456863Y-143430749D01*
X148458458Y-143445928D01*
X148517473Y-143627556D01*
X148612960Y-143792944D01*
X148617378Y-143797851D01*
X148617379Y-143797852D01*
X148708108Y-143898617D01*
X148740747Y-143934866D01*
X148819633Y-143992180D01*
X148887308Y-144041349D01*
X148895248Y-144047118D01*
X148901276Y-144049802D01*
X148901278Y-144049803D01*
X148979551Y-144084652D01*
X149069712Y-144124794D01*
X149163112Y-144144647D01*
X149250056Y-144163128D01*
X149250061Y-144163128D01*
X149256513Y-144164500D01*
X149447487Y-144164500D01*
X149453939Y-144163128D01*
X149453944Y-144163128D01*
X149540888Y-144144647D01*
X149634288Y-144124794D01*
X149724449Y-144084652D01*
X149802722Y-144049803D01*
X149802724Y-144049802D01*
X149808752Y-144047118D01*
X149816693Y-144041349D01*
X149884367Y-143992180D01*
X149963253Y-143934866D01*
X149995892Y-143898617D01*
X150086621Y-143797852D01*
X150086622Y-143797851D01*
X150091040Y-143792944D01*
X150186527Y-143627556D01*
X150245542Y-143445928D01*
X150247138Y-143430749D01*
X150264814Y-143262565D01*
X150265504Y-143256000D01*
X150245542Y-143066072D01*
X150186527Y-142884444D01*
X150091040Y-142719056D01*
X149999375Y-142617251D01*
X149967675Y-142582045D01*
X149967674Y-142582044D01*
X149963253Y-142577134D01*
X149808752Y-142464882D01*
X149802724Y-142462198D01*
X149802722Y-142462197D01*
X149640319Y-142389891D01*
X149640318Y-142389891D01*
X149634288Y-142387206D01*
X149540887Y-142367353D01*
X149453944Y-142348872D01*
X149453939Y-142348872D01*
X149447487Y-142347500D01*
X149256513Y-142347500D01*
X149250061Y-142348872D01*
X149250056Y-142348872D01*
X149163113Y-142367353D01*
X149069712Y-142387206D01*
X149063682Y-142389891D01*
X149063681Y-142389891D01*
X148901278Y-142462197D01*
X148901276Y-142462198D01*
X148895248Y-142464882D01*
X148740747Y-142577134D01*
X148736326Y-142582044D01*
X148736325Y-142582045D01*
X148704626Y-142617251D01*
X148612960Y-142719056D01*
X148517473Y-142884444D01*
X148458458Y-143066072D01*
X148438496Y-143256000D01*
X127374500Y-143256000D01*
X127374500Y-142325000D01*
X152756496Y-142325000D01*
X152757186Y-142331565D01*
X152767659Y-142431206D01*
X152776458Y-142514928D01*
X152835473Y-142696556D01*
X152930960Y-142861944D01*
X152935378Y-142866851D01*
X152935379Y-142866852D01*
X153005029Y-142944206D01*
X153058747Y-143003866D01*
X153119108Y-143047721D01*
X153196286Y-143103794D01*
X153213248Y-143116118D01*
X153219276Y-143118802D01*
X153219278Y-143118803D01*
X153381681Y-143191109D01*
X153387712Y-143193794D01*
X153481113Y-143213647D01*
X153568056Y-143232128D01*
X153568061Y-143232128D01*
X153574513Y-143233500D01*
X153765487Y-143233500D01*
X153771939Y-143232128D01*
X153771944Y-143232128D01*
X153858887Y-143213647D01*
X153952288Y-143193794D01*
X153958319Y-143191109D01*
X154120722Y-143118803D01*
X154120724Y-143118802D01*
X154126752Y-143116118D01*
X154143715Y-143103794D01*
X154220892Y-143047721D01*
X154281253Y-143003866D01*
X154334971Y-142944206D01*
X154404621Y-142866852D01*
X154404622Y-142866851D01*
X154409040Y-142861944D01*
X154504527Y-142696556D01*
X154563542Y-142514928D01*
X154572342Y-142431206D01*
X154582814Y-142331565D01*
X154583504Y-142325000D01*
X154563542Y-142135072D01*
X154504527Y-141953444D01*
X154409040Y-141788056D01*
X154281253Y-141646134D01*
X154126752Y-141533882D01*
X154120724Y-141531198D01*
X154120722Y-141531197D01*
X153958319Y-141458891D01*
X153958318Y-141458891D01*
X153952288Y-141456206D01*
X153858888Y-141436353D01*
X153771944Y-141417872D01*
X153771939Y-141417872D01*
X153765487Y-141416500D01*
X153574513Y-141416500D01*
X153568061Y-141417872D01*
X153568056Y-141417872D01*
X153481112Y-141436353D01*
X153387712Y-141456206D01*
X153381682Y-141458891D01*
X153381681Y-141458891D01*
X153219278Y-141531197D01*
X153219276Y-141531198D01*
X153213248Y-141533882D01*
X153058747Y-141646134D01*
X152930960Y-141788056D01*
X152835473Y-141953444D01*
X152776458Y-142135072D01*
X152756496Y-142325000D01*
X127374500Y-142325000D01*
X127374500Y-139325000D01*
X155986496Y-139325000D01*
X156006458Y-139514928D01*
X156065473Y-139696556D01*
X156160960Y-139861944D01*
X156165378Y-139866851D01*
X156165379Y-139866852D01*
X156174768Y-139877279D01*
X156288747Y-140003866D01*
X156443248Y-140116118D01*
X156449276Y-140118802D01*
X156449278Y-140118803D01*
X156584183Y-140178866D01*
X156617712Y-140193794D01*
X156711112Y-140213647D01*
X156798056Y-140232128D01*
X156798061Y-140232128D01*
X156804513Y-140233500D01*
X156995487Y-140233500D01*
X157001939Y-140232128D01*
X157001944Y-140232128D01*
X157088888Y-140213647D01*
X157182288Y-140193794D01*
X157215817Y-140178866D01*
X157350722Y-140118803D01*
X157350724Y-140118802D01*
X157356752Y-140116118D01*
X157511253Y-140003866D01*
X157625232Y-139877279D01*
X157634621Y-139866852D01*
X157634622Y-139866851D01*
X157639040Y-139861944D01*
X157734527Y-139696556D01*
X157793542Y-139514928D01*
X157795111Y-139500000D01*
X163211496Y-139500000D01*
X163212186Y-139506565D01*
X163230065Y-139676670D01*
X163231458Y-139689928D01*
X163290473Y-139871556D01*
X163385960Y-140036944D01*
X163390378Y-140041851D01*
X163390379Y-140041852D01*
X163459666Y-140118803D01*
X163513747Y-140178866D01*
X163668248Y-140291118D01*
X163674276Y-140293802D01*
X163674278Y-140293803D01*
X163836681Y-140366109D01*
X163842712Y-140368794D01*
X163936112Y-140388647D01*
X164023056Y-140407128D01*
X164023061Y-140407128D01*
X164029513Y-140408500D01*
X164220487Y-140408500D01*
X164226939Y-140407128D01*
X164226944Y-140407128D01*
X164313888Y-140388647D01*
X164407288Y-140368794D01*
X164413319Y-140366109D01*
X164575722Y-140293803D01*
X164575724Y-140293802D01*
X164581752Y-140291118D01*
X164736253Y-140178866D01*
X164790334Y-140118803D01*
X164859621Y-140041852D01*
X164859622Y-140041851D01*
X164864040Y-140036944D01*
X164959527Y-139871556D01*
X165018542Y-139689928D01*
X165019936Y-139676670D01*
X165037814Y-139506565D01*
X165038504Y-139500000D01*
X165018542Y-139310072D01*
X164959527Y-139128444D01*
X164949514Y-139111100D01*
X164874865Y-138981806D01*
X164864040Y-138963056D01*
X164855386Y-138953444D01*
X164740675Y-138826045D01*
X164740674Y-138826044D01*
X164736253Y-138821134D01*
X164630710Y-138744452D01*
X164587094Y-138712763D01*
X164587093Y-138712762D01*
X164581752Y-138708882D01*
X164575724Y-138706198D01*
X164575722Y-138706197D01*
X164413319Y-138633891D01*
X164413318Y-138633891D01*
X164407288Y-138631206D01*
X164313887Y-138611353D01*
X164226944Y-138592872D01*
X164226939Y-138592872D01*
X164220487Y-138591500D01*
X164029513Y-138591500D01*
X164023061Y-138592872D01*
X164023056Y-138592872D01*
X163936113Y-138611353D01*
X163842712Y-138631206D01*
X163836682Y-138633891D01*
X163836681Y-138633891D01*
X163674278Y-138706197D01*
X163674276Y-138706198D01*
X163668248Y-138708882D01*
X163662907Y-138712762D01*
X163662906Y-138712763D01*
X163619290Y-138744452D01*
X163513747Y-138821134D01*
X163509326Y-138826044D01*
X163509325Y-138826045D01*
X163394615Y-138953444D01*
X163385960Y-138963056D01*
X163375135Y-138981806D01*
X163300487Y-139111100D01*
X163290473Y-139128444D01*
X163231458Y-139310072D01*
X163211496Y-139500000D01*
X157795111Y-139500000D01*
X157813504Y-139325000D01*
X157793542Y-139135072D01*
X157734527Y-138953444D01*
X157639040Y-138788056D01*
X157630918Y-138779035D01*
X157515675Y-138651045D01*
X157515674Y-138651044D01*
X157511253Y-138646134D01*
X157366896Y-138541252D01*
X157362094Y-138537763D01*
X157362093Y-138537762D01*
X157356752Y-138533882D01*
X157350724Y-138531198D01*
X157350722Y-138531197D01*
X157188319Y-138458891D01*
X157188318Y-138458891D01*
X157182288Y-138456206D01*
X157088887Y-138436353D01*
X157001944Y-138417872D01*
X157001939Y-138417872D01*
X156995487Y-138416500D01*
X156804513Y-138416500D01*
X156798061Y-138417872D01*
X156798056Y-138417872D01*
X156711113Y-138436353D01*
X156617712Y-138456206D01*
X156611682Y-138458891D01*
X156611681Y-138458891D01*
X156449278Y-138531197D01*
X156449276Y-138531198D01*
X156443248Y-138533882D01*
X156437907Y-138537762D01*
X156437906Y-138537763D01*
X156433104Y-138541252D01*
X156288747Y-138646134D01*
X156284326Y-138651044D01*
X156284325Y-138651045D01*
X156169083Y-138779035D01*
X156160960Y-138788056D01*
X156065473Y-138953444D01*
X156006458Y-139135072D01*
X155986496Y-139325000D01*
X127374500Y-139325000D01*
X127374500Y-138791487D01*
X127359080Y-138683813D01*
X127298792Y-138551218D01*
X127285047Y-138535266D01*
X127255733Y-138470603D01*
X127254500Y-138453018D01*
X127254500Y-138202600D01*
X141842896Y-138202600D01*
X141843586Y-138209165D01*
X141857543Y-138341955D01*
X141862858Y-138392528D01*
X141921873Y-138574156D01*
X141925176Y-138579878D01*
X141925177Y-138579879D01*
X141932679Y-138592872D01*
X142017360Y-138739544D01*
X142021778Y-138744451D01*
X142021779Y-138744452D01*
X142090824Y-138821134D01*
X142145147Y-138881466D01*
X142179642Y-138906528D01*
X142283253Y-138981806D01*
X142299648Y-138993718D01*
X142305676Y-138996402D01*
X142305678Y-138996403D01*
X142468081Y-139068709D01*
X142474112Y-139071394D01*
X142567513Y-139091247D01*
X142654456Y-139109728D01*
X142654461Y-139109728D01*
X142660913Y-139111100D01*
X142851887Y-139111100D01*
X142858339Y-139109728D01*
X142858344Y-139109728D01*
X142945287Y-139091247D01*
X143038688Y-139071394D01*
X143044719Y-139068709D01*
X143207122Y-138996403D01*
X143207124Y-138996402D01*
X143213152Y-138993718D01*
X143229548Y-138981806D01*
X143333158Y-138906528D01*
X143367653Y-138881466D01*
X143421976Y-138821134D01*
X143491021Y-138744452D01*
X143491022Y-138744451D01*
X143495440Y-138739544D01*
X143580121Y-138592872D01*
X143587623Y-138579879D01*
X143587624Y-138579878D01*
X143590927Y-138574156D01*
X143649942Y-138392528D01*
X143655258Y-138341955D01*
X143669214Y-138209165D01*
X143669904Y-138202600D01*
X143649942Y-138012672D01*
X143645630Y-137999400D01*
X153145896Y-137999400D01*
X153146586Y-138005965D01*
X153150117Y-138039556D01*
X153165858Y-138189328D01*
X153224873Y-138370956D01*
X153228176Y-138376678D01*
X153228177Y-138376679D01*
X153240952Y-138398806D01*
X153320360Y-138536344D01*
X153324778Y-138541251D01*
X153324779Y-138541252D01*
X153415719Y-138642251D01*
X153448147Y-138678266D01*
X153602648Y-138790518D01*
X153608676Y-138793202D01*
X153608678Y-138793203D01*
X153682443Y-138826045D01*
X153777112Y-138868194D01*
X153870513Y-138888047D01*
X153957456Y-138906528D01*
X153957461Y-138906528D01*
X153963913Y-138907900D01*
X154154887Y-138907900D01*
X154161339Y-138906528D01*
X154161344Y-138906528D01*
X154248287Y-138888047D01*
X154341688Y-138868194D01*
X154436357Y-138826045D01*
X154510122Y-138793203D01*
X154510124Y-138793202D01*
X154516152Y-138790518D01*
X154670653Y-138678266D01*
X154769518Y-138568465D01*
X154829964Y-138531225D01*
X154902092Y-138532943D01*
X154905681Y-138534109D01*
X154911712Y-138536794D01*
X154999097Y-138555368D01*
X155092056Y-138575128D01*
X155092061Y-138575128D01*
X155098513Y-138576500D01*
X155289487Y-138576500D01*
X155295939Y-138575128D01*
X155295944Y-138575128D01*
X155382888Y-138556647D01*
X155476288Y-138536794D01*
X155482319Y-138534109D01*
X155644722Y-138461803D01*
X155644724Y-138461802D01*
X155650752Y-138459118D01*
X155656649Y-138454834D01*
X155772096Y-138370956D01*
X155805253Y-138346866D01*
X155933040Y-138204944D01*
X156028527Y-138039556D01*
X156087542Y-137857928D01*
X156107504Y-137668000D01*
X156103944Y-137634129D01*
X156088232Y-137484635D01*
X156088232Y-137484633D01*
X156087542Y-137478072D01*
X156028527Y-137296444D01*
X155933040Y-137131056D01*
X155896884Y-137090900D01*
X155809675Y-136994045D01*
X155809674Y-136994044D01*
X155805253Y-136989134D01*
X155650752Y-136876882D01*
X155644724Y-136874198D01*
X155644722Y-136874197D01*
X155482319Y-136801891D01*
X155482318Y-136801891D01*
X155476288Y-136799206D01*
X155382888Y-136779353D01*
X155295944Y-136760872D01*
X155295939Y-136760872D01*
X155289487Y-136759500D01*
X155098513Y-136759500D01*
X155092061Y-136760872D01*
X155092056Y-136760872D01*
X155005112Y-136779353D01*
X154911712Y-136799206D01*
X154905682Y-136801891D01*
X154905681Y-136801891D01*
X154743278Y-136874197D01*
X154743276Y-136874198D01*
X154737248Y-136876882D01*
X154582747Y-136989134D01*
X154578326Y-136994044D01*
X154578325Y-136994045D01*
X154483882Y-137098935D01*
X154423436Y-137136175D01*
X154351308Y-137134457D01*
X154347717Y-137133290D01*
X154341688Y-137130606D01*
X154254303Y-137112032D01*
X154161344Y-137092272D01*
X154161339Y-137092272D01*
X154154887Y-137090900D01*
X153963913Y-137090900D01*
X153957461Y-137092272D01*
X153957456Y-137092272D01*
X153870513Y-137110753D01*
X153777112Y-137130606D01*
X153771082Y-137133291D01*
X153771081Y-137133291D01*
X153608678Y-137205597D01*
X153608676Y-137205598D01*
X153602648Y-137208282D01*
X153448147Y-137320534D01*
X153320360Y-137462456D01*
X153224873Y-137627844D01*
X153165858Y-137809472D01*
X153145896Y-137999400D01*
X143645630Y-137999400D01*
X143590927Y-137831044D01*
X143578473Y-137809472D01*
X143553714Y-137766590D01*
X143495440Y-137665656D01*
X143367653Y-137523734D01*
X143213152Y-137411482D01*
X143207124Y-137408798D01*
X143207122Y-137408797D01*
X143044719Y-137336491D01*
X143044718Y-137336491D01*
X143038688Y-137333806D01*
X142945287Y-137313953D01*
X142858344Y-137295472D01*
X142858339Y-137295472D01*
X142851887Y-137294100D01*
X142660913Y-137294100D01*
X142654461Y-137295472D01*
X142654456Y-137295472D01*
X142567513Y-137313953D01*
X142474112Y-137333806D01*
X142468082Y-137336491D01*
X142468081Y-137336491D01*
X142305678Y-137408797D01*
X142305676Y-137408798D01*
X142299648Y-137411482D01*
X142145147Y-137523734D01*
X142017360Y-137665656D01*
X141959086Y-137766590D01*
X141934328Y-137809472D01*
X141921873Y-137831044D01*
X141862858Y-138012672D01*
X141842896Y-138202600D01*
X127254500Y-138202600D01*
X127254500Y-134112000D01*
X147168496Y-134112000D01*
X147188458Y-134301928D01*
X147247473Y-134483556D01*
X147342960Y-134648944D01*
X147470747Y-134790866D01*
X147625248Y-134903118D01*
X147631276Y-134905802D01*
X147631278Y-134905803D01*
X147793681Y-134978109D01*
X147799712Y-134980794D01*
X147893112Y-135000647D01*
X147980056Y-135019128D01*
X147980061Y-135019128D01*
X147986513Y-135020500D01*
X148177487Y-135020500D01*
X148183939Y-135019128D01*
X148183944Y-135019128D01*
X148270888Y-135000647D01*
X148364288Y-134980794D01*
X148370319Y-134978109D01*
X148532722Y-134905803D01*
X148532724Y-134905802D01*
X148538752Y-134903118D01*
X148693253Y-134790866D01*
X148821040Y-134648944D01*
X148916527Y-134483556D01*
X148975542Y-134301928D01*
X148995504Y-134112000D01*
X148975542Y-133922072D01*
X148916527Y-133740444D01*
X148821040Y-133575056D01*
X148741254Y-133486444D01*
X148697675Y-133438045D01*
X148697674Y-133438044D01*
X148693253Y-133433134D01*
X148538752Y-133320882D01*
X148532724Y-133318198D01*
X148532722Y-133318197D01*
X148370319Y-133245891D01*
X148370318Y-133245891D01*
X148364288Y-133243206D01*
X148270888Y-133223353D01*
X148183944Y-133204872D01*
X148183939Y-133204872D01*
X148177487Y-133203500D01*
X147986513Y-133203500D01*
X147980061Y-133204872D01*
X147980056Y-133204872D01*
X147893112Y-133223353D01*
X147799712Y-133243206D01*
X147793682Y-133245891D01*
X147793681Y-133245891D01*
X147631278Y-133318197D01*
X147631276Y-133318198D01*
X147625248Y-133320882D01*
X147470747Y-133433134D01*
X147466326Y-133438044D01*
X147466325Y-133438045D01*
X147422747Y-133486444D01*
X147342960Y-133575056D01*
X147247473Y-133740444D01*
X147188458Y-133922072D01*
X147168496Y-134112000D01*
X127254500Y-134112000D01*
X127254500Y-132588000D01*
X161138496Y-132588000D01*
X161158458Y-132777928D01*
X161217473Y-132959556D01*
X161312960Y-133124944D01*
X161317378Y-133129851D01*
X161317379Y-133129852D01*
X161361753Y-133179134D01*
X161440747Y-133266866D01*
X161595248Y-133379118D01*
X161601276Y-133381802D01*
X161601278Y-133381803D01*
X161763681Y-133454109D01*
X161769712Y-133456794D01*
X161863112Y-133476647D01*
X161950056Y-133495128D01*
X161950061Y-133495128D01*
X161956513Y-133496500D01*
X162147487Y-133496500D01*
X162153939Y-133495128D01*
X162153944Y-133495128D01*
X162240888Y-133476647D01*
X162334288Y-133456794D01*
X162340319Y-133454109D01*
X162502722Y-133381803D01*
X162502724Y-133381802D01*
X162508752Y-133379118D01*
X162663253Y-133266866D01*
X162742247Y-133179134D01*
X162786621Y-133129852D01*
X162786622Y-133129851D01*
X162791040Y-133124944D01*
X162886527Y-132959556D01*
X162945542Y-132777928D01*
X162965504Y-132588000D01*
X162945542Y-132398072D01*
X162886527Y-132216444D01*
X162791040Y-132051056D01*
X162663253Y-131909134D01*
X162508752Y-131796882D01*
X162502724Y-131794198D01*
X162502722Y-131794197D01*
X162340319Y-131721891D01*
X162340318Y-131721891D01*
X162334288Y-131719206D01*
X162240888Y-131699353D01*
X162153944Y-131680872D01*
X162153939Y-131680872D01*
X162147487Y-131679500D01*
X161956513Y-131679500D01*
X161950061Y-131680872D01*
X161950056Y-131680872D01*
X161863112Y-131699353D01*
X161769712Y-131719206D01*
X161763682Y-131721891D01*
X161763681Y-131721891D01*
X161601278Y-131794197D01*
X161601276Y-131794198D01*
X161595248Y-131796882D01*
X161440747Y-131909134D01*
X161312960Y-132051056D01*
X161217473Y-132216444D01*
X161158458Y-132398072D01*
X161138496Y-132588000D01*
X127254500Y-132588000D01*
X127254500Y-130810000D01*
X131420496Y-130810000D01*
X131440458Y-130999928D01*
X131499473Y-131181556D01*
X131594960Y-131346944D01*
X131722747Y-131488866D01*
X131877248Y-131601118D01*
X131883276Y-131603802D01*
X131883278Y-131603803D01*
X132045681Y-131676109D01*
X132051712Y-131678794D01*
X132145113Y-131698647D01*
X132232056Y-131717128D01*
X132232061Y-131717128D01*
X132238513Y-131718500D01*
X132429487Y-131718500D01*
X132435939Y-131717128D01*
X132435944Y-131717128D01*
X132522887Y-131698647D01*
X132616288Y-131678794D01*
X132622319Y-131676109D01*
X132784722Y-131603803D01*
X132784724Y-131603802D01*
X132790752Y-131601118D01*
X132945253Y-131488866D01*
X133073040Y-131346944D01*
X133130165Y-131248000D01*
X154999496Y-131248000D01*
X155019458Y-131437928D01*
X155078473Y-131619556D01*
X155173960Y-131784944D01*
X155301747Y-131926866D01*
X155456248Y-132039118D01*
X155462276Y-132041802D01*
X155462278Y-132041803D01*
X155483061Y-132051056D01*
X155630712Y-132116794D01*
X155724113Y-132136647D01*
X155811056Y-132155128D01*
X155811061Y-132155128D01*
X155817513Y-132156500D01*
X156008487Y-132156500D01*
X156014939Y-132155128D01*
X156014944Y-132155128D01*
X156101887Y-132136647D01*
X156195288Y-132116794D01*
X156342939Y-132051056D01*
X156363722Y-132041803D01*
X156363724Y-132041802D01*
X156369752Y-132039118D01*
X156524253Y-131926866D01*
X156652040Y-131784944D01*
X156747527Y-131619556D01*
X156806542Y-131437928D01*
X156826504Y-131248000D01*
X156818860Y-131175271D01*
X156807232Y-131064635D01*
X156807232Y-131064633D01*
X156806542Y-131058072D01*
X156747527Y-130876444D01*
X156652040Y-130711056D01*
X156524253Y-130569134D01*
X156369752Y-130456882D01*
X156363724Y-130454198D01*
X156363722Y-130454197D01*
X156201319Y-130381891D01*
X156201318Y-130381891D01*
X156195288Y-130379206D01*
X156101888Y-130359353D01*
X156014944Y-130340872D01*
X156014939Y-130340872D01*
X156008487Y-130339500D01*
X155817513Y-130339500D01*
X155811061Y-130340872D01*
X155811056Y-130340872D01*
X155724112Y-130359353D01*
X155630712Y-130379206D01*
X155624682Y-130381891D01*
X155624681Y-130381891D01*
X155462278Y-130454197D01*
X155462276Y-130454198D01*
X155456248Y-130456882D01*
X155301747Y-130569134D01*
X155173960Y-130711056D01*
X155078473Y-130876444D01*
X155019458Y-131058072D01*
X155018768Y-131064633D01*
X155018768Y-131064635D01*
X155007140Y-131175271D01*
X154999496Y-131248000D01*
X133130165Y-131248000D01*
X133168527Y-131181556D01*
X133227542Y-130999928D01*
X133247504Y-130810000D01*
X133227542Y-130620072D01*
X133168527Y-130438444D01*
X133158992Y-130421928D01*
X133126124Y-130365000D01*
X133109386Y-130296005D01*
X133126124Y-130239000D01*
X133130166Y-130232000D01*
X147506496Y-130232000D01*
X147507186Y-130238565D01*
X147521824Y-130377834D01*
X147526458Y-130421928D01*
X147585473Y-130603556D01*
X147588776Y-130609278D01*
X147588777Y-130609279D01*
X147598798Y-130626635D01*
X147680960Y-130768944D01*
X147808747Y-130910866D01*
X147963248Y-131023118D01*
X147969276Y-131025802D01*
X147969278Y-131025803D01*
X148041756Y-131058072D01*
X148137712Y-131100794D01*
X148231113Y-131120647D01*
X148318056Y-131139128D01*
X148318061Y-131139128D01*
X148324513Y-131140500D01*
X148515487Y-131140500D01*
X148521939Y-131139128D01*
X148521944Y-131139128D01*
X148608887Y-131120647D01*
X148702288Y-131100794D01*
X148798244Y-131058072D01*
X148870722Y-131025803D01*
X148870724Y-131025802D01*
X148876752Y-131023118D01*
X149031253Y-130910866D01*
X149159040Y-130768944D01*
X149241202Y-130626635D01*
X149251223Y-130609279D01*
X149251224Y-130609278D01*
X149254527Y-130603556D01*
X149313542Y-130421928D01*
X149318177Y-130377834D01*
X149332814Y-130238565D01*
X149333504Y-130232000D01*
X149325860Y-130159271D01*
X149314232Y-130048635D01*
X149314232Y-130048633D01*
X149313542Y-130042072D01*
X149254527Y-129860444D01*
X149248785Y-129850498D01*
X149232048Y-129781503D01*
X149248785Y-129724501D01*
X149254527Y-129714556D01*
X149313542Y-129532928D01*
X149333504Y-129343000D01*
X149313542Y-129153072D01*
X149254527Y-128971444D01*
X149159040Y-128806056D01*
X149139690Y-128784565D01*
X149035675Y-128669045D01*
X149035674Y-128669044D01*
X149031253Y-128664134D01*
X148876752Y-128551882D01*
X148870724Y-128549198D01*
X148870722Y-128549197D01*
X148708319Y-128476891D01*
X148708318Y-128476891D01*
X148702288Y-128474206D01*
X148608888Y-128454353D01*
X148521944Y-128435872D01*
X148521939Y-128435872D01*
X148515487Y-128434500D01*
X148324513Y-128434500D01*
X148318061Y-128435872D01*
X148318056Y-128435872D01*
X148231112Y-128454353D01*
X148137712Y-128474206D01*
X148131682Y-128476891D01*
X148131681Y-128476891D01*
X147969278Y-128549197D01*
X147969276Y-128549198D01*
X147963248Y-128551882D01*
X147808747Y-128664134D01*
X147804326Y-128669044D01*
X147804325Y-128669045D01*
X147700311Y-128784565D01*
X147680960Y-128806056D01*
X147585473Y-128971444D01*
X147526458Y-129153072D01*
X147506496Y-129343000D01*
X147526458Y-129532928D01*
X147585473Y-129714556D01*
X147591215Y-129724501D01*
X147607952Y-129793497D01*
X147591215Y-129850498D01*
X147585473Y-129860444D01*
X147526458Y-130042072D01*
X147525768Y-130048633D01*
X147525768Y-130048635D01*
X147514140Y-130159271D01*
X147506496Y-130232000D01*
X133130166Y-130232000D01*
X133168527Y-130165556D01*
X133227542Y-129983928D01*
X133247504Y-129794000D01*
X133242588Y-129747226D01*
X133228232Y-129610635D01*
X133228232Y-129610633D01*
X133227542Y-129604072D01*
X133168527Y-129422444D01*
X133158992Y-129405928D01*
X133126124Y-129349000D01*
X133109386Y-129280005D01*
X133126124Y-129223000D01*
X133130166Y-129216000D01*
X142299496Y-129216000D01*
X142319458Y-129405928D01*
X142378473Y-129587556D01*
X142381776Y-129593278D01*
X142381777Y-129593279D01*
X142391798Y-129610635D01*
X142473960Y-129752944D01*
X142478378Y-129757851D01*
X142478379Y-129757852D01*
X142505016Y-129787435D01*
X142601747Y-129894866D01*
X142756248Y-130007118D01*
X142762276Y-130009802D01*
X142762278Y-130009803D01*
X142834756Y-130042072D01*
X142930712Y-130084794D01*
X143024113Y-130104647D01*
X143111056Y-130123128D01*
X143111061Y-130123128D01*
X143117513Y-130124500D01*
X143308487Y-130124500D01*
X143314939Y-130123128D01*
X143314944Y-130123128D01*
X143401887Y-130104647D01*
X143495288Y-130084794D01*
X143591244Y-130042072D01*
X143663722Y-130009803D01*
X143663724Y-130009802D01*
X143669752Y-130007118D01*
X143824253Y-129894866D01*
X143920984Y-129787435D01*
X143947621Y-129757852D01*
X143947622Y-129757851D01*
X143952040Y-129752944D01*
X144034202Y-129610635D01*
X144044223Y-129593279D01*
X144044224Y-129593278D01*
X144047527Y-129587556D01*
X144106542Y-129405928D01*
X144126504Y-129216000D01*
X144106542Y-129026072D01*
X144047527Y-128844444D01*
X143952040Y-128679056D01*
X143824253Y-128537134D01*
X143725157Y-128465136D01*
X143675094Y-128428763D01*
X143675093Y-128428762D01*
X143669752Y-128424882D01*
X143663724Y-128422198D01*
X143663722Y-128422197D01*
X143501319Y-128349891D01*
X143501318Y-128349891D01*
X143495288Y-128347206D01*
X143401888Y-128327353D01*
X143314944Y-128308872D01*
X143314939Y-128308872D01*
X143308487Y-128307500D01*
X143117513Y-128307500D01*
X143111061Y-128308872D01*
X143111056Y-128308872D01*
X143024112Y-128327353D01*
X142930712Y-128347206D01*
X142924682Y-128349891D01*
X142924681Y-128349891D01*
X142762278Y-128422197D01*
X142762276Y-128422198D01*
X142756248Y-128424882D01*
X142750907Y-128428762D01*
X142750906Y-128428763D01*
X142700843Y-128465136D01*
X142601747Y-128537134D01*
X142473960Y-128679056D01*
X142378473Y-128844444D01*
X142319458Y-129026072D01*
X142299496Y-129216000D01*
X133130166Y-129216000D01*
X133168527Y-129149556D01*
X133227542Y-128967928D01*
X133247504Y-128778000D01*
X133245816Y-128761944D01*
X133228232Y-128594635D01*
X133228232Y-128594633D01*
X133227542Y-128588072D01*
X133168527Y-128406444D01*
X133073040Y-128241056D01*
X133058583Y-128225000D01*
X140286496Y-128225000D01*
X140287186Y-128231565D01*
X140288785Y-128246774D01*
X140306458Y-128414928D01*
X140365473Y-128596556D01*
X140460960Y-128761944D01*
X140465378Y-128766851D01*
X140465379Y-128766852D01*
X140505827Y-128811774D01*
X140588747Y-128903866D01*
X140743248Y-129016118D01*
X140749276Y-129018802D01*
X140749278Y-129018803D01*
X140911681Y-129091109D01*
X140917712Y-129093794D01*
X141011112Y-129113647D01*
X141098056Y-129132128D01*
X141098061Y-129132128D01*
X141104513Y-129133500D01*
X141295487Y-129133500D01*
X141301939Y-129132128D01*
X141301944Y-129132128D01*
X141388888Y-129113647D01*
X141482288Y-129093794D01*
X141488319Y-129091109D01*
X141650722Y-129018803D01*
X141650724Y-129018802D01*
X141656752Y-129016118D01*
X141811253Y-128903866D01*
X141894173Y-128811774D01*
X141934621Y-128766852D01*
X141934622Y-128766851D01*
X141939040Y-128761944D01*
X142034527Y-128596556D01*
X142093542Y-128414928D01*
X142111216Y-128246774D01*
X142112814Y-128231565D01*
X142113504Y-128225000D01*
X142093542Y-128035072D01*
X142034527Y-127853444D01*
X141939040Y-127688056D01*
X141811253Y-127546134D01*
X141656752Y-127433882D01*
X141650724Y-127431198D01*
X141650722Y-127431197D01*
X141488319Y-127358891D01*
X141488318Y-127358891D01*
X141482288Y-127356206D01*
X141388887Y-127336353D01*
X141301944Y-127317872D01*
X141301939Y-127317872D01*
X141295487Y-127316500D01*
X141104513Y-127316500D01*
X141098061Y-127317872D01*
X141098056Y-127317872D01*
X141011113Y-127336353D01*
X140917712Y-127356206D01*
X140911682Y-127358891D01*
X140911681Y-127358891D01*
X140749278Y-127431197D01*
X140749276Y-127431198D01*
X140743248Y-127433882D01*
X140588747Y-127546134D01*
X140460960Y-127688056D01*
X140365473Y-127853444D01*
X140306458Y-128035072D01*
X140286496Y-128225000D01*
X133058583Y-128225000D01*
X132945253Y-128099134D01*
X132790752Y-127986882D01*
X132784724Y-127984198D01*
X132784722Y-127984197D01*
X132622319Y-127911891D01*
X132622318Y-127911891D01*
X132616288Y-127909206D01*
X132522888Y-127889353D01*
X132435944Y-127870872D01*
X132435939Y-127870872D01*
X132429487Y-127869500D01*
X132238513Y-127869500D01*
X132232061Y-127870872D01*
X132232056Y-127870872D01*
X132145112Y-127889353D01*
X132051712Y-127909206D01*
X132045682Y-127911891D01*
X132045681Y-127911891D01*
X131883278Y-127984197D01*
X131883276Y-127984198D01*
X131877248Y-127986882D01*
X131722747Y-128099134D01*
X131594960Y-128241056D01*
X131499473Y-128406444D01*
X131440458Y-128588072D01*
X131439768Y-128594633D01*
X131439768Y-128594635D01*
X131422184Y-128761944D01*
X131420496Y-128778000D01*
X131440458Y-128967928D01*
X131499473Y-129149556D01*
X131537835Y-129216000D01*
X131541876Y-129223000D01*
X131558614Y-129291995D01*
X131541876Y-129349000D01*
X131509009Y-129405928D01*
X131499473Y-129422444D01*
X131440458Y-129604072D01*
X131439768Y-129610633D01*
X131439768Y-129610635D01*
X131425412Y-129747226D01*
X131420496Y-129794000D01*
X131440458Y-129983928D01*
X131499473Y-130165556D01*
X131537835Y-130232000D01*
X131541876Y-130239000D01*
X131558614Y-130307995D01*
X131541876Y-130365000D01*
X131509009Y-130421928D01*
X131499473Y-130438444D01*
X131440458Y-130620072D01*
X131420496Y-130810000D01*
X127254500Y-130810000D01*
X127254500Y-126041000D01*
X154999496Y-126041000D01*
X155019458Y-126230928D01*
X155078473Y-126412556D01*
X155173960Y-126577944D01*
X155301747Y-126719866D01*
X155456248Y-126832118D01*
X155462276Y-126834802D01*
X155462278Y-126834803D01*
X155624681Y-126907109D01*
X155630712Y-126909794D01*
X155724112Y-126929647D01*
X155811056Y-126948128D01*
X155811061Y-126948128D01*
X155817513Y-126949500D01*
X156008487Y-126949500D01*
X156014939Y-126948128D01*
X156014944Y-126948128D01*
X156101888Y-126929647D01*
X156195288Y-126909794D01*
X156201319Y-126907109D01*
X156363722Y-126834803D01*
X156363724Y-126834802D01*
X156369752Y-126832118D01*
X156524253Y-126719866D01*
X156652040Y-126577944D01*
X156747527Y-126412556D01*
X156806542Y-126230928D01*
X156826504Y-126041000D01*
X156816329Y-125944187D01*
X156829101Y-125874349D01*
X156877604Y-125822502D01*
X156946436Y-125805108D01*
X156992261Y-125818335D01*
X156993248Y-125816118D01*
X157124038Y-125874349D01*
X157167712Y-125893794D01*
X157261112Y-125913647D01*
X157348056Y-125932128D01*
X157348061Y-125932128D01*
X157354513Y-125933500D01*
X157545487Y-125933500D01*
X157551939Y-125932128D01*
X157551944Y-125932128D01*
X157638888Y-125913647D01*
X157732288Y-125893794D01*
X157738319Y-125891109D01*
X157900722Y-125818803D01*
X157900724Y-125818802D01*
X157906752Y-125816118D01*
X158061253Y-125703866D01*
X158189040Y-125561944D01*
X158284527Y-125396556D01*
X158343542Y-125214928D01*
X158345989Y-125191651D01*
X158362814Y-125031565D01*
X158363504Y-125025000D01*
X158343542Y-124835072D01*
X158284527Y-124653444D01*
X158243133Y-124581749D01*
X158226396Y-124512755D01*
X158243133Y-124455752D01*
X158284527Y-124384056D01*
X158343542Y-124202428D01*
X158363504Y-124012500D01*
X158343542Y-123822572D01*
X158284527Y-123640944D01*
X158243133Y-123569249D01*
X158226396Y-123500255D01*
X158243133Y-123443252D01*
X158284527Y-123371556D01*
X158343542Y-123189928D01*
X158345968Y-123166852D01*
X158362814Y-123006565D01*
X158363504Y-123000000D01*
X158343542Y-122810072D01*
X158284527Y-122628444D01*
X158189040Y-122463056D01*
X158183694Y-122457118D01*
X158065675Y-122326045D01*
X158065674Y-122326044D01*
X158061253Y-122321134D01*
X157906752Y-122208882D01*
X157900724Y-122206198D01*
X157900722Y-122206197D01*
X157738319Y-122133891D01*
X157738318Y-122133891D01*
X157732288Y-122131206D01*
X157638887Y-122111353D01*
X157551944Y-122092872D01*
X157551939Y-122092872D01*
X157545487Y-122091500D01*
X157354513Y-122091500D01*
X157348061Y-122092872D01*
X157348056Y-122092872D01*
X157261113Y-122111353D01*
X157167712Y-122131206D01*
X157161682Y-122133891D01*
X157161681Y-122133891D01*
X156999278Y-122206197D01*
X156999276Y-122206198D01*
X156993248Y-122208882D01*
X156838747Y-122321134D01*
X156834326Y-122326044D01*
X156834325Y-122326045D01*
X156716307Y-122457118D01*
X156710960Y-122463056D01*
X156615473Y-122628444D01*
X156556458Y-122810072D01*
X156536496Y-123000000D01*
X156537186Y-123006565D01*
X156554033Y-123166852D01*
X156556458Y-123189928D01*
X156615473Y-123371556D01*
X156656867Y-123443251D01*
X156673604Y-123512245D01*
X156656867Y-123569248D01*
X156615473Y-123640944D01*
X156556458Y-123822572D01*
X156536496Y-124012500D01*
X156556458Y-124202428D01*
X156615473Y-124384056D01*
X156656867Y-124455751D01*
X156673604Y-124524745D01*
X156656867Y-124581748D01*
X156615473Y-124653444D01*
X156556458Y-124835072D01*
X156536496Y-125025000D01*
X156537186Y-125031565D01*
X156546671Y-125121813D01*
X156533899Y-125191651D01*
X156485396Y-125243498D01*
X156416564Y-125260892D01*
X156370739Y-125247665D01*
X156369752Y-125249882D01*
X156201319Y-125174891D01*
X156201318Y-125174891D01*
X156195288Y-125172206D01*
X156101888Y-125152353D01*
X156014944Y-125133872D01*
X156014939Y-125133872D01*
X156008487Y-125132500D01*
X155817513Y-125132500D01*
X155811061Y-125133872D01*
X155811056Y-125133872D01*
X155724112Y-125152353D01*
X155630712Y-125172206D01*
X155624682Y-125174891D01*
X155624681Y-125174891D01*
X155462278Y-125247197D01*
X155462276Y-125247198D01*
X155456248Y-125249882D01*
X155301747Y-125362134D01*
X155173960Y-125504056D01*
X155078473Y-125669444D01*
X155019458Y-125851072D01*
X155018768Y-125857633D01*
X155018768Y-125857635D01*
X155009671Y-125944187D01*
X154999496Y-126041000D01*
X127254500Y-126041000D01*
X127254500Y-122625000D01*
X140386496Y-122625000D01*
X140406458Y-122814928D01*
X140465473Y-122996556D01*
X140560960Y-123161944D01*
X140565378Y-123166851D01*
X140565379Y-123166852D01*
X140684325Y-123298955D01*
X140688747Y-123303866D01*
X140843248Y-123416118D01*
X140849276Y-123418802D01*
X140849278Y-123418803D01*
X141011681Y-123491109D01*
X141017712Y-123493794D01*
X141076313Y-123506250D01*
X141198056Y-123532128D01*
X141198061Y-123532128D01*
X141204513Y-123533500D01*
X141395487Y-123533500D01*
X141401939Y-123532128D01*
X141401944Y-123532128D01*
X141523687Y-123506250D01*
X141582288Y-123493794D01*
X141588319Y-123491109D01*
X141750722Y-123418803D01*
X141750724Y-123418802D01*
X141756752Y-123416118D01*
X141911253Y-123303866D01*
X141915675Y-123298955D01*
X142034621Y-123166852D01*
X142034622Y-123166851D01*
X142039040Y-123161944D01*
X142134527Y-122996556D01*
X142193542Y-122814928D01*
X142213504Y-122625000D01*
X142196141Y-122459803D01*
X142194232Y-122441635D01*
X142194232Y-122441633D01*
X142193542Y-122435072D01*
X142134527Y-122253444D01*
X142039040Y-122088056D01*
X141911253Y-121946134D01*
X141812157Y-121874136D01*
X141762094Y-121837763D01*
X141762093Y-121837762D01*
X141756752Y-121833882D01*
X141750724Y-121831198D01*
X141750722Y-121831197D01*
X141588319Y-121758891D01*
X141588318Y-121758891D01*
X141582288Y-121756206D01*
X141488887Y-121736353D01*
X141401944Y-121717872D01*
X141401939Y-121717872D01*
X141395487Y-121716500D01*
X141204513Y-121716500D01*
X141198061Y-121717872D01*
X141198056Y-121717872D01*
X141111113Y-121736353D01*
X141017712Y-121756206D01*
X141011682Y-121758891D01*
X141011681Y-121758891D01*
X140849278Y-121831197D01*
X140849276Y-121831198D01*
X140843248Y-121833882D01*
X140837907Y-121837762D01*
X140837906Y-121837763D01*
X140787843Y-121874136D01*
X140688747Y-121946134D01*
X140560960Y-122088056D01*
X140465473Y-122253444D01*
X140406458Y-122435072D01*
X140405768Y-122441633D01*
X140405768Y-122441635D01*
X140403859Y-122459803D01*
X140386496Y-122625000D01*
X127254500Y-122625000D01*
X127254500Y-121666000D01*
X168758496Y-121666000D01*
X168778458Y-121855928D01*
X168837473Y-122037556D01*
X168932960Y-122202944D01*
X168937378Y-122207851D01*
X168937379Y-122207852D01*
X169056325Y-122339955D01*
X169060747Y-122344866D01*
X169159843Y-122416864D01*
X169193938Y-122441635D01*
X169215248Y-122457118D01*
X169221276Y-122459802D01*
X169221278Y-122459803D01*
X169383681Y-122532109D01*
X169389712Y-122534794D01*
X169483113Y-122554647D01*
X169570056Y-122573128D01*
X169570061Y-122573128D01*
X169576513Y-122574500D01*
X169767487Y-122574500D01*
X169773939Y-122573128D01*
X169773944Y-122573128D01*
X169860887Y-122554647D01*
X169954288Y-122534794D01*
X169960319Y-122532109D01*
X170122722Y-122459803D01*
X170122724Y-122459802D01*
X170128752Y-122457118D01*
X170150063Y-122441635D01*
X170184157Y-122416864D01*
X170283253Y-122344866D01*
X170287675Y-122339955D01*
X170406621Y-122207852D01*
X170406622Y-122207851D01*
X170411040Y-122202944D01*
X170506527Y-122037556D01*
X170565542Y-121855928D01*
X170585504Y-121666000D01*
X170565542Y-121476072D01*
X170506527Y-121294444D01*
X170411040Y-121129056D01*
X170283253Y-120987134D01*
X170128752Y-120874882D01*
X170122724Y-120872198D01*
X170122722Y-120872197D01*
X169960319Y-120799891D01*
X169960318Y-120799891D01*
X169954288Y-120797206D01*
X169860888Y-120777353D01*
X169773944Y-120758872D01*
X169773939Y-120758872D01*
X169767487Y-120757500D01*
X169576513Y-120757500D01*
X169570061Y-120758872D01*
X169570056Y-120758872D01*
X169483112Y-120777353D01*
X169389712Y-120797206D01*
X169383682Y-120799891D01*
X169383681Y-120799891D01*
X169221278Y-120872197D01*
X169221276Y-120872198D01*
X169215248Y-120874882D01*
X169060747Y-120987134D01*
X168932960Y-121129056D01*
X168837473Y-121294444D01*
X168778458Y-121476072D01*
X168758496Y-121666000D01*
X127254500Y-121666000D01*
X127254500Y-119475009D01*
X127274502Y-119406888D01*
X127328158Y-119360395D01*
X127398432Y-119350291D01*
X127430544Y-119359374D01*
X127440204Y-119363554D01*
X127446452Y-119364859D01*
X127446451Y-119364859D01*
X127625073Y-119402176D01*
X127625077Y-119402176D01*
X127629818Y-119403167D01*
X127636172Y-119403500D01*
X128438408Y-119403500D01*
X128484161Y-119398853D01*
X128576368Y-119389487D01*
X128576370Y-119389487D01*
X128582716Y-119388842D01*
X128767561Y-119330915D01*
X128936982Y-119237003D01*
X129014134Y-119170876D01*
X129079207Y-119115102D01*
X129079209Y-119115100D01*
X129084059Y-119110943D01*
X129139545Y-119039411D01*
X129198868Y-118962933D01*
X129198870Y-118962930D01*
X129202784Y-118957884D01*
X129245044Y-118872000D01*
X133706496Y-118872000D01*
X133707186Y-118878565D01*
X133724863Y-119046749D01*
X133726458Y-119061928D01*
X133785473Y-119243556D01*
X133788776Y-119249278D01*
X133788777Y-119249279D01*
X133810338Y-119286623D01*
X133880960Y-119408944D01*
X133885378Y-119413851D01*
X133885379Y-119413852D01*
X133912589Y-119444072D01*
X134008747Y-119550866D01*
X134107843Y-119622864D01*
X134132207Y-119640565D01*
X134163248Y-119663118D01*
X134169276Y-119665802D01*
X134169278Y-119665803D01*
X134331681Y-119738109D01*
X134337712Y-119740794D01*
X134431113Y-119760647D01*
X134518056Y-119779128D01*
X134518061Y-119779128D01*
X134524513Y-119780500D01*
X134715487Y-119780500D01*
X134721939Y-119779128D01*
X134721944Y-119779128D01*
X134808887Y-119760647D01*
X134902288Y-119740794D01*
X134908319Y-119738109D01*
X135070722Y-119665803D01*
X135070724Y-119665802D01*
X135076752Y-119663118D01*
X135107794Y-119640565D01*
X135116830Y-119634000D01*
X156058496Y-119634000D01*
X156059186Y-119640565D01*
X156073894Y-119780500D01*
X156078458Y-119823928D01*
X156137473Y-120005556D01*
X156232960Y-120170944D01*
X156360747Y-120312866D01*
X156515248Y-120425118D01*
X156521276Y-120427802D01*
X156521278Y-120427803D01*
X156683681Y-120500109D01*
X156689712Y-120502794D01*
X156783113Y-120522647D01*
X156870056Y-120541128D01*
X156870061Y-120541128D01*
X156876513Y-120542500D01*
X157067487Y-120542500D01*
X157073939Y-120541128D01*
X157073944Y-120541128D01*
X157160887Y-120522647D01*
X157254288Y-120502794D01*
X157260319Y-120500109D01*
X157422722Y-120427803D01*
X157422724Y-120427802D01*
X157428752Y-120425118D01*
X157583253Y-120312866D01*
X157711040Y-120170944D01*
X157806527Y-120005556D01*
X157865542Y-119823928D01*
X157870107Y-119780500D01*
X157884814Y-119640565D01*
X157885504Y-119634000D01*
X157884814Y-119627435D01*
X157866232Y-119450635D01*
X157866232Y-119450633D01*
X157865542Y-119444072D01*
X157806527Y-119262444D01*
X157711040Y-119097056D01*
X157695162Y-119079421D01*
X157587675Y-118960045D01*
X157587674Y-118960044D01*
X157583253Y-118955134D01*
X157466272Y-118870142D01*
X157434094Y-118846763D01*
X157434093Y-118846762D01*
X157428752Y-118842882D01*
X157422724Y-118840198D01*
X157422722Y-118840197D01*
X157260319Y-118767891D01*
X157260318Y-118767891D01*
X157254288Y-118765206D01*
X157141721Y-118741279D01*
X157073944Y-118726872D01*
X157073939Y-118726872D01*
X157067487Y-118725500D01*
X156876513Y-118725500D01*
X156870061Y-118726872D01*
X156870056Y-118726872D01*
X156802279Y-118741279D01*
X156689712Y-118765206D01*
X156683682Y-118767891D01*
X156683681Y-118767891D01*
X156521278Y-118840197D01*
X156521276Y-118840198D01*
X156515248Y-118842882D01*
X156509907Y-118846762D01*
X156509906Y-118846763D01*
X156477728Y-118870142D01*
X156360747Y-118955134D01*
X156356326Y-118960044D01*
X156356325Y-118960045D01*
X156248839Y-119079421D01*
X156232960Y-119097056D01*
X156137473Y-119262444D01*
X156078458Y-119444072D01*
X156077768Y-119450633D01*
X156077768Y-119450635D01*
X156059186Y-119627435D01*
X156058496Y-119634000D01*
X135116830Y-119634000D01*
X135132157Y-119622864D01*
X135231253Y-119550866D01*
X135327411Y-119444072D01*
X135354621Y-119413852D01*
X135354622Y-119413851D01*
X135359040Y-119408944D01*
X135429662Y-119286623D01*
X135451223Y-119249279D01*
X135451224Y-119249278D01*
X135454527Y-119243556D01*
X135513542Y-119061928D01*
X135515138Y-119046749D01*
X135532814Y-118878565D01*
X135533504Y-118872000D01*
X135522280Y-118765206D01*
X135514232Y-118688635D01*
X135514232Y-118688633D01*
X135513542Y-118682072D01*
X135454527Y-118500444D01*
X135448750Y-118490437D01*
X135375751Y-118364000D01*
X141580496Y-118364000D01*
X141581186Y-118370565D01*
X141595120Y-118503136D01*
X141600458Y-118553928D01*
X141659473Y-118735556D01*
X141662776Y-118741278D01*
X141662777Y-118741279D01*
X141687487Y-118784077D01*
X141754960Y-118900944D01*
X141759378Y-118905851D01*
X141759379Y-118905852D01*
X141801069Y-118952153D01*
X141882747Y-119042866D01*
X142037248Y-119155118D01*
X142043276Y-119157802D01*
X142043278Y-119157803D01*
X142205681Y-119230109D01*
X142211712Y-119232794D01*
X142305112Y-119252647D01*
X142392056Y-119271128D01*
X142392061Y-119271128D01*
X142398513Y-119272500D01*
X142589487Y-119272500D01*
X142595939Y-119271128D01*
X142595944Y-119271128D01*
X142682888Y-119252647D01*
X142776288Y-119232794D01*
X142782319Y-119230109D01*
X142944722Y-119157803D01*
X142944724Y-119157802D01*
X142950752Y-119155118D01*
X143054940Y-119079421D01*
X143121806Y-119055563D01*
X143190958Y-119071643D01*
X143203056Y-119079418D01*
X143307248Y-119155118D01*
X143313276Y-119157802D01*
X143313278Y-119157803D01*
X143475681Y-119230109D01*
X143481712Y-119232794D01*
X143575112Y-119252647D01*
X143662056Y-119271128D01*
X143662061Y-119271128D01*
X143668513Y-119272500D01*
X143859487Y-119272500D01*
X143865939Y-119271128D01*
X143865944Y-119271128D01*
X143952888Y-119252647D01*
X144046288Y-119232794D01*
X144052319Y-119230109D01*
X144214722Y-119157803D01*
X144214724Y-119157802D01*
X144220752Y-119155118D01*
X144375253Y-119042866D01*
X144456931Y-118952153D01*
X144498621Y-118905852D01*
X144498622Y-118905851D01*
X144503040Y-118900944D01*
X144570513Y-118784077D01*
X144595223Y-118741279D01*
X144595224Y-118741278D01*
X144598527Y-118735556D01*
X144657542Y-118553928D01*
X144662881Y-118503136D01*
X144676814Y-118370565D01*
X144677504Y-118364000D01*
X144671132Y-118303376D01*
X144658232Y-118180635D01*
X144658232Y-118180633D01*
X144657542Y-118174072D01*
X144598527Y-117992444D01*
X144503040Y-117827056D01*
X144375253Y-117685134D01*
X144326805Y-117649934D01*
X167365500Y-117649934D01*
X167380619Y-117798780D01*
X167440369Y-117989440D01*
X167443463Y-117995022D01*
X167443464Y-117995024D01*
X167449488Y-118005891D01*
X167537235Y-118164191D01*
X167541391Y-118169040D01*
X167651232Y-118297194D01*
X167667261Y-118315896D01*
X167672298Y-118319803D01*
X167672300Y-118319805D01*
X167820093Y-118434445D01*
X167820096Y-118434447D01*
X167825137Y-118438357D01*
X167830863Y-118441175D01*
X167830867Y-118441177D01*
X167939683Y-118494721D01*
X168004411Y-118526571D01*
X168084241Y-118547365D01*
X168191580Y-118575325D01*
X168191583Y-118575325D01*
X168197762Y-118576935D01*
X168291256Y-118581835D01*
X168390911Y-118587058D01*
X168390915Y-118587058D01*
X168397292Y-118587392D01*
X168594848Y-118557514D01*
X168622433Y-118547365D01*
X168776371Y-118490727D01*
X168776372Y-118490727D01*
X168782361Y-118488523D01*
X168952172Y-118383235D01*
X168972513Y-118364000D01*
X169092710Y-118250335D01*
X169097344Y-118245953D01*
X169211946Y-118082284D01*
X169291298Y-117898914D01*
X169332156Y-117703334D01*
X169332500Y-117696771D01*
X169332500Y-117250066D01*
X169327495Y-117200794D01*
X169318026Y-117107566D01*
X169318025Y-117107562D01*
X169317381Y-117101220D01*
X169272994Y-116959583D01*
X169259540Y-116916651D01*
X169259539Y-116916650D01*
X169257631Y-116910560D01*
X169237284Y-116873852D01*
X169163860Y-116741393D01*
X169160765Y-116735809D01*
X169086931Y-116649665D01*
X169034891Y-116588948D01*
X169034887Y-116588944D01*
X169030739Y-116584104D01*
X168958676Y-116528206D01*
X168877907Y-116465555D01*
X168877904Y-116465553D01*
X168872863Y-116461643D01*
X168867137Y-116458825D01*
X168867133Y-116458823D01*
X168699318Y-116376248D01*
X168693589Y-116373429D01*
X168574797Y-116342486D01*
X168506420Y-116324675D01*
X168506417Y-116324675D01*
X168500238Y-116323065D01*
X168406744Y-116318165D01*
X168307089Y-116312942D01*
X168307085Y-116312942D01*
X168300708Y-116312608D01*
X168103152Y-116342486D01*
X167915639Y-116411477D01*
X167745828Y-116516765D01*
X167600656Y-116654047D01*
X167486054Y-116817716D01*
X167406702Y-117001086D01*
X167365844Y-117196666D01*
X167365500Y-117203229D01*
X167365500Y-117649934D01*
X144326805Y-117649934D01*
X144220752Y-117572882D01*
X144214724Y-117570198D01*
X144214722Y-117570197D01*
X144052319Y-117497891D01*
X144052318Y-117497891D01*
X144046288Y-117495206D01*
X143952887Y-117475353D01*
X143865944Y-117456872D01*
X143865939Y-117456872D01*
X143859487Y-117455500D01*
X143668513Y-117455500D01*
X143662061Y-117456872D01*
X143662056Y-117456872D01*
X143575113Y-117475353D01*
X143481712Y-117495206D01*
X143475682Y-117497891D01*
X143475681Y-117497891D01*
X143313278Y-117570197D01*
X143313276Y-117570198D01*
X143307248Y-117572882D01*
X143203060Y-117648579D01*
X143136194Y-117672437D01*
X143067042Y-117656357D01*
X143054944Y-117648582D01*
X142950752Y-117572882D01*
X142944724Y-117570198D01*
X142944722Y-117570197D01*
X142782319Y-117497891D01*
X142782318Y-117497891D01*
X142776288Y-117495206D01*
X142682887Y-117475353D01*
X142595944Y-117456872D01*
X142595939Y-117456872D01*
X142589487Y-117455500D01*
X142398513Y-117455500D01*
X142392061Y-117456872D01*
X142392056Y-117456872D01*
X142305113Y-117475353D01*
X142211712Y-117495206D01*
X142205682Y-117497891D01*
X142205681Y-117497891D01*
X142043278Y-117570197D01*
X142043276Y-117570198D01*
X142037248Y-117572882D01*
X141882747Y-117685134D01*
X141754960Y-117827056D01*
X141659473Y-117992444D01*
X141600458Y-118174072D01*
X141599768Y-118180633D01*
X141599768Y-118180635D01*
X141586868Y-118303376D01*
X141580496Y-118364000D01*
X135375751Y-118364000D01*
X135359040Y-118335056D01*
X135278812Y-118245953D01*
X135235675Y-118198045D01*
X135235674Y-118198044D01*
X135231253Y-118193134D01*
X135076752Y-118080882D01*
X135070724Y-118078198D01*
X135070722Y-118078197D01*
X134908319Y-118005891D01*
X134908318Y-118005891D01*
X134902288Y-118003206D01*
X134808869Y-117983349D01*
X134721944Y-117964872D01*
X134721939Y-117964872D01*
X134715487Y-117963500D01*
X134524513Y-117963500D01*
X134518061Y-117964872D01*
X134518056Y-117964872D01*
X134431131Y-117983349D01*
X134337712Y-118003206D01*
X134331682Y-118005891D01*
X134331681Y-118005891D01*
X134169278Y-118078197D01*
X134169276Y-118078198D01*
X134163248Y-118080882D01*
X134008747Y-118193134D01*
X134004326Y-118198044D01*
X134004325Y-118198045D01*
X133961189Y-118245953D01*
X133880960Y-118335056D01*
X133864249Y-118364000D01*
X133791251Y-118490437D01*
X133785473Y-118500444D01*
X133726458Y-118682072D01*
X133725768Y-118688633D01*
X133725768Y-118688635D01*
X133717720Y-118765206D01*
X133706496Y-118872000D01*
X129245044Y-118872000D01*
X129288307Y-118784077D01*
X129289914Y-118777907D01*
X129289916Y-118777902D01*
X129335525Y-118602806D01*
X129335525Y-118602803D01*
X129337135Y-118596624D01*
X129347273Y-118403182D01*
X129318307Y-118211651D01*
X129304481Y-118174072D01*
X129280979Y-118110199D01*
X129251419Y-118029858D01*
X129248061Y-118024442D01*
X129248059Y-118024438D01*
X129152707Y-117870650D01*
X129152704Y-117870646D01*
X129149344Y-117865227D01*
X129016249Y-117724483D01*
X128909782Y-117649934D01*
X129776500Y-117649934D01*
X129791619Y-117798780D01*
X129851369Y-117989440D01*
X129854463Y-117995022D01*
X129854464Y-117995024D01*
X129860488Y-118005891D01*
X129948235Y-118164191D01*
X129952391Y-118169040D01*
X130062232Y-118297194D01*
X130078261Y-118315896D01*
X130083298Y-118319803D01*
X130083300Y-118319805D01*
X130231093Y-118434445D01*
X130231096Y-118434447D01*
X130236137Y-118438357D01*
X130241863Y-118441175D01*
X130241867Y-118441177D01*
X130350683Y-118494721D01*
X130415411Y-118526571D01*
X130495241Y-118547365D01*
X130602580Y-118575325D01*
X130602583Y-118575325D01*
X130608762Y-118576935D01*
X130702256Y-118581835D01*
X130801911Y-118587058D01*
X130801915Y-118587058D01*
X130808292Y-118587392D01*
X131005848Y-118557514D01*
X131033433Y-118547365D01*
X131187371Y-118490727D01*
X131187372Y-118490727D01*
X131193361Y-118488523D01*
X131363172Y-118383235D01*
X131383513Y-118364000D01*
X131503710Y-118250335D01*
X131508344Y-118245953D01*
X131622946Y-118082284D01*
X131702298Y-117898914D01*
X131743156Y-117703334D01*
X131743500Y-117696771D01*
X131743500Y-117250066D01*
X131738495Y-117200794D01*
X131729026Y-117107566D01*
X131729025Y-117107562D01*
X131728381Y-117101220D01*
X131726474Y-117095135D01*
X131726473Y-117095130D01*
X131725172Y-117090979D01*
X131723888Y-117019994D01*
X131761185Y-116959583D01*
X131825222Y-116928927D01*
X131895667Y-116937758D01*
X131939039Y-116968987D01*
X131976747Y-117010866D01*
X131989311Y-117019994D01*
X132109843Y-117107566D01*
X132131248Y-117123118D01*
X132137276Y-117125802D01*
X132137278Y-117125803D01*
X132296440Y-117196666D01*
X132305712Y-117200794D01*
X132399112Y-117220647D01*
X132486056Y-117239128D01*
X132486061Y-117239128D01*
X132492513Y-117240500D01*
X132683487Y-117240500D01*
X132689939Y-117239128D01*
X132689944Y-117239128D01*
X132776888Y-117220647D01*
X132870288Y-117200794D01*
X132879560Y-117196666D01*
X133038722Y-117125803D01*
X133038724Y-117125802D01*
X133044752Y-117123118D01*
X133066158Y-117107566D01*
X133186689Y-117019994D01*
X133199253Y-117010866D01*
X133236958Y-116968990D01*
X133322621Y-116873852D01*
X133322622Y-116873851D01*
X133327040Y-116868944D01*
X133422527Y-116703556D01*
X133481542Y-116521928D01*
X133501504Y-116332000D01*
X133481542Y-116142072D01*
X133422527Y-115960444D01*
X133327040Y-115795056D01*
X133199253Y-115653134D01*
X133044752Y-115540882D01*
X133038724Y-115538198D01*
X133038722Y-115538197D01*
X132876319Y-115465891D01*
X132876318Y-115465891D01*
X132870288Y-115463206D01*
X132776887Y-115443353D01*
X132689944Y-115424872D01*
X132689939Y-115424872D01*
X132683487Y-115423500D01*
X132492513Y-115423500D01*
X132486061Y-115424872D01*
X132486056Y-115424872D01*
X132399113Y-115443353D01*
X132305712Y-115463206D01*
X132299682Y-115465891D01*
X132299681Y-115465891D01*
X132137278Y-115538197D01*
X132137276Y-115538198D01*
X132131248Y-115540882D01*
X131976747Y-115653134D01*
X131848960Y-115795056D01*
X131753473Y-115960444D01*
X131694458Y-116142072D01*
X131674496Y-116332000D01*
X131675186Y-116338565D01*
X131694458Y-116521928D01*
X131692939Y-116522088D01*
X131688140Y-116585056D01*
X131645328Y-116641693D01*
X131578693Y-116666193D01*
X131509390Y-116650777D01*
X131474623Y-116622471D01*
X131441739Y-116584104D01*
X131369676Y-116528206D01*
X131288907Y-116465555D01*
X131288904Y-116465553D01*
X131283863Y-116461643D01*
X131278137Y-116458825D01*
X131278133Y-116458823D01*
X131110318Y-116376248D01*
X131104589Y-116373429D01*
X130985797Y-116342486D01*
X130917420Y-116324675D01*
X130917417Y-116324675D01*
X130911238Y-116323065D01*
X130817744Y-116318165D01*
X130718089Y-116312942D01*
X130718085Y-116312942D01*
X130711708Y-116312608D01*
X130514152Y-116342486D01*
X130326639Y-116411477D01*
X130156828Y-116516765D01*
X130011656Y-116654047D01*
X129897054Y-116817716D01*
X129817702Y-117001086D01*
X129776844Y-117196666D01*
X129776500Y-117203229D01*
X129776500Y-117649934D01*
X128909782Y-117649934D01*
X128857573Y-117613377D01*
X128679796Y-117536446D01*
X128567889Y-117513067D01*
X128494927Y-117497824D01*
X128494923Y-117497824D01*
X128490182Y-117496833D01*
X128483828Y-117496500D01*
X127681592Y-117496500D01*
X127667898Y-117497891D01*
X127543632Y-117510513D01*
X127543630Y-117510513D01*
X127537284Y-117511158D01*
X127487019Y-117526910D01*
X127418179Y-117548483D01*
X127347194Y-117549767D01*
X127286783Y-117512470D01*
X127256127Y-117448433D01*
X127254500Y-117428249D01*
X127254500Y-112649934D01*
X129776500Y-112649934D01*
X129791619Y-112798780D01*
X129821040Y-112892662D01*
X129843820Y-112965350D01*
X129851369Y-112989440D01*
X129948235Y-113164191D01*
X130078261Y-113315896D01*
X130083298Y-113319803D01*
X130083300Y-113319805D01*
X130231093Y-113434445D01*
X130231096Y-113434447D01*
X130236137Y-113438357D01*
X130241863Y-113441175D01*
X130241867Y-113441177D01*
X130409682Y-113523752D01*
X130415411Y-113526571D01*
X130504906Y-113549883D01*
X130602580Y-113575325D01*
X130602583Y-113575325D01*
X130608762Y-113576935D01*
X130702256Y-113581835D01*
X130801911Y-113587058D01*
X130801915Y-113587058D01*
X130808292Y-113587392D01*
X131005848Y-113557514D01*
X131193361Y-113488523D01*
X131363172Y-113383235D01*
X131508344Y-113245953D01*
X131622946Y-113082284D01*
X131702298Y-112898914D01*
X131727976Y-112776000D01*
X139294496Y-112776000D01*
X139295186Y-112782565D01*
X139308031Y-112904774D01*
X139314458Y-112965928D01*
X139373473Y-113147556D01*
X139468960Y-113312944D01*
X139473378Y-113317851D01*
X139473379Y-113317852D01*
X139556414Y-113410072D01*
X139596747Y-113454866D01*
X139751248Y-113567118D01*
X139757276Y-113569802D01*
X139757278Y-113569803D01*
X139919681Y-113642109D01*
X139925712Y-113644794D01*
X140019112Y-113664647D01*
X140106056Y-113683128D01*
X140106061Y-113683128D01*
X140112513Y-113684500D01*
X140303487Y-113684500D01*
X140309939Y-113683128D01*
X140309944Y-113683128D01*
X140396887Y-113664647D01*
X140490288Y-113644794D01*
X140496319Y-113642109D01*
X140658722Y-113569803D01*
X140658724Y-113569802D01*
X140664752Y-113567118D01*
X140819253Y-113454866D01*
X140859586Y-113410072D01*
X140942621Y-113317852D01*
X140942622Y-113317851D01*
X140947040Y-113312944D01*
X141042527Y-113147556D01*
X141101542Y-112965928D01*
X141107970Y-112904774D01*
X141120814Y-112782565D01*
X141121504Y-112776000D01*
X141120814Y-112769435D01*
X141102232Y-112592635D01*
X141102232Y-112592633D01*
X141101542Y-112586072D01*
X141073575Y-112500000D01*
X165159996Y-112500000D01*
X165160686Y-112506565D01*
X165176089Y-112653113D01*
X165179958Y-112689928D01*
X165238973Y-112871556D01*
X165242276Y-112877278D01*
X165242277Y-112877279D01*
X165254768Y-112898914D01*
X165318125Y-113008652D01*
X165334863Y-113077645D01*
X165318125Y-113134649D01*
X165263973Y-113228444D01*
X165204958Y-113410072D01*
X165204268Y-113416633D01*
X165204268Y-113416635D01*
X165196481Y-113490727D01*
X165184996Y-113600000D01*
X165204958Y-113789928D01*
X165263973Y-113971556D01*
X165359460Y-114136944D01*
X165487247Y-114278866D01*
X165641748Y-114391118D01*
X165647776Y-114393802D01*
X165647778Y-114393803D01*
X165810181Y-114466109D01*
X165816212Y-114468794D01*
X165909613Y-114488647D01*
X165996556Y-114507128D01*
X165996561Y-114507128D01*
X166003013Y-114508500D01*
X166193987Y-114508500D01*
X166200439Y-114507128D01*
X166200444Y-114507128D01*
X166287387Y-114488647D01*
X166380788Y-114468794D01*
X166386819Y-114466109D01*
X166549222Y-114393803D01*
X166549224Y-114393802D01*
X166555252Y-114391118D01*
X166709753Y-114278866D01*
X166837540Y-114136944D01*
X166933027Y-113971556D01*
X166992042Y-113789928D01*
X167012004Y-113600000D01*
X167000519Y-113490727D01*
X166992732Y-113416635D01*
X166992732Y-113416633D01*
X166992042Y-113410072D01*
X166933027Y-113228444D01*
X166853875Y-113091348D01*
X166837137Y-113022355D01*
X166853875Y-112965350D01*
X166857331Y-112959365D01*
X166892232Y-112898914D01*
X166904723Y-112877279D01*
X166904724Y-112877278D01*
X166908027Y-112871556D01*
X166967042Y-112689928D01*
X166970912Y-112653113D01*
X166971246Y-112649934D01*
X167365500Y-112649934D01*
X167380619Y-112798780D01*
X167410040Y-112892662D01*
X167432820Y-112965350D01*
X167440369Y-112989440D01*
X167537235Y-113164191D01*
X167667261Y-113315896D01*
X167672298Y-113319803D01*
X167672300Y-113319805D01*
X167820093Y-113434445D01*
X167820096Y-113434447D01*
X167825137Y-113438357D01*
X167830863Y-113441175D01*
X167830867Y-113441177D01*
X167998682Y-113523752D01*
X168004411Y-113526571D01*
X168093906Y-113549883D01*
X168191580Y-113575325D01*
X168191583Y-113575325D01*
X168197762Y-113576935D01*
X168291256Y-113581835D01*
X168390911Y-113587058D01*
X168390915Y-113587058D01*
X168397292Y-113587392D01*
X168594848Y-113557514D01*
X168782361Y-113488523D01*
X168952172Y-113383235D01*
X169097344Y-113245953D01*
X169211946Y-113082284D01*
X169291298Y-112898914D01*
X169332156Y-112703334D01*
X169332500Y-112696771D01*
X169332500Y-112250066D01*
X169320785Y-112134729D01*
X169318026Y-112107566D01*
X169318025Y-112107562D01*
X169317381Y-112101220D01*
X169257631Y-111910560D01*
X169233763Y-111867500D01*
X169187520Y-111784077D01*
X169160765Y-111735809D01*
X169120087Y-111688349D01*
X169034891Y-111588948D01*
X169034890Y-111588947D01*
X169030739Y-111584104D01*
X169025700Y-111580195D01*
X168877907Y-111465555D01*
X168877904Y-111465553D01*
X168872863Y-111461643D01*
X168867137Y-111458825D01*
X168867133Y-111458823D01*
X168699318Y-111376248D01*
X168693589Y-111373429D01*
X168574797Y-111342486D01*
X168506420Y-111324675D01*
X168506417Y-111324675D01*
X168500238Y-111323065D01*
X168406744Y-111318165D01*
X168307089Y-111312942D01*
X168307085Y-111312942D01*
X168300708Y-111312608D01*
X168103152Y-111342486D01*
X168097165Y-111344689D01*
X168097164Y-111344689D01*
X167938184Y-111403182D01*
X167915639Y-111411477D01*
X167745828Y-111516765D01*
X167600656Y-111654047D01*
X167486054Y-111817716D01*
X167406702Y-112001086D01*
X167365844Y-112196666D01*
X167365500Y-112203229D01*
X167365500Y-112649934D01*
X166971246Y-112649934D01*
X166986314Y-112506565D01*
X166987004Y-112500000D01*
X166976827Y-112403167D01*
X166967732Y-112316635D01*
X166967732Y-112316633D01*
X166967042Y-112310072D01*
X166908027Y-112128444D01*
X166892786Y-112102045D01*
X166838106Y-112007338D01*
X166812540Y-111963056D01*
X166765273Y-111910560D01*
X166689175Y-111826045D01*
X166689174Y-111826044D01*
X166684753Y-111821134D01*
X166530252Y-111708882D01*
X166524224Y-111706198D01*
X166524222Y-111706197D01*
X166361819Y-111633891D01*
X166361818Y-111633891D01*
X166355788Y-111631206D01*
X166262387Y-111611353D01*
X166175444Y-111592872D01*
X166175439Y-111592872D01*
X166168987Y-111591500D01*
X165978013Y-111591500D01*
X165971561Y-111592872D01*
X165971556Y-111592872D01*
X165884612Y-111611353D01*
X165791212Y-111631206D01*
X165785182Y-111633891D01*
X165785181Y-111633891D01*
X165622778Y-111706197D01*
X165622776Y-111706198D01*
X165616748Y-111708882D01*
X165462247Y-111821134D01*
X165457826Y-111826044D01*
X165457825Y-111826045D01*
X165381728Y-111910560D01*
X165334460Y-111963056D01*
X165308894Y-112007338D01*
X165254215Y-112102045D01*
X165238973Y-112128444D01*
X165179958Y-112310072D01*
X165179268Y-112316633D01*
X165179268Y-112316635D01*
X165170173Y-112403167D01*
X165159996Y-112500000D01*
X141073575Y-112500000D01*
X141042527Y-112404444D01*
X140947040Y-112239056D01*
X140941450Y-112232847D01*
X140823675Y-112102045D01*
X140823674Y-112102044D01*
X140819253Y-112097134D01*
X140664752Y-111984882D01*
X140658724Y-111982198D01*
X140658722Y-111982197D01*
X140496319Y-111909891D01*
X140496318Y-111909891D01*
X140490288Y-111907206D01*
X140396887Y-111887353D01*
X140309944Y-111868872D01*
X140309939Y-111868872D01*
X140303487Y-111867500D01*
X140112513Y-111867500D01*
X140106061Y-111868872D01*
X140106056Y-111868872D01*
X140019113Y-111887353D01*
X139925712Y-111907206D01*
X139919682Y-111909891D01*
X139919681Y-111909891D01*
X139757278Y-111982197D01*
X139757276Y-111982198D01*
X139751248Y-111984882D01*
X139596747Y-112097134D01*
X139592326Y-112102044D01*
X139592325Y-112102045D01*
X139474551Y-112232847D01*
X139468960Y-112239056D01*
X139373473Y-112404444D01*
X139314458Y-112586072D01*
X139313768Y-112592633D01*
X139313768Y-112592635D01*
X139295186Y-112769435D01*
X139294496Y-112776000D01*
X131727976Y-112776000D01*
X131743156Y-112703334D01*
X131743500Y-112696771D01*
X131743500Y-112250066D01*
X131731785Y-112134729D01*
X131729026Y-112107566D01*
X131729025Y-112107562D01*
X131728381Y-112101220D01*
X131668631Y-111910560D01*
X131644763Y-111867500D01*
X131598520Y-111784077D01*
X131571765Y-111735809D01*
X131531087Y-111688349D01*
X131445891Y-111588948D01*
X131445890Y-111588947D01*
X131441739Y-111584104D01*
X131436700Y-111580195D01*
X131288907Y-111465555D01*
X131288904Y-111465553D01*
X131283863Y-111461643D01*
X131278137Y-111458825D01*
X131278133Y-111458823D01*
X131110318Y-111376248D01*
X131104589Y-111373429D01*
X130985797Y-111342486D01*
X130917420Y-111324675D01*
X130917417Y-111324675D01*
X130911238Y-111323065D01*
X130817744Y-111318165D01*
X130718089Y-111312942D01*
X130718085Y-111312942D01*
X130711708Y-111312608D01*
X130514152Y-111342486D01*
X130508165Y-111344689D01*
X130508164Y-111344689D01*
X130349184Y-111403182D01*
X130326639Y-111411477D01*
X130156828Y-111516765D01*
X130011656Y-111654047D01*
X129897054Y-111817716D01*
X129817702Y-112001086D01*
X129776844Y-112196666D01*
X129776500Y-112203229D01*
X129776500Y-112649934D01*
X127254500Y-112649934D01*
X127254500Y-112475009D01*
X127274502Y-112406888D01*
X127328158Y-112360395D01*
X127398432Y-112350291D01*
X127430544Y-112359374D01*
X127440204Y-112363554D01*
X127446452Y-112364859D01*
X127446451Y-112364859D01*
X127625073Y-112402176D01*
X127625077Y-112402176D01*
X127629818Y-112403167D01*
X127636172Y-112403500D01*
X128438408Y-112403500D01*
X128485457Y-112398721D01*
X128576368Y-112389487D01*
X128576370Y-112389487D01*
X128582716Y-112388842D01*
X128767561Y-112330915D01*
X128936982Y-112237003D01*
X128978333Y-112201561D01*
X129079207Y-112115102D01*
X129079209Y-112115100D01*
X129084059Y-112110943D01*
X129147349Y-112029350D01*
X129198868Y-111962933D01*
X129198870Y-111962930D01*
X129202784Y-111957884D01*
X129288307Y-111784077D01*
X129289914Y-111777907D01*
X129289916Y-111777902D01*
X129335525Y-111602806D01*
X129335525Y-111602803D01*
X129337135Y-111596624D01*
X129346662Y-111414840D01*
X129346939Y-111409563D01*
X129346939Y-111409559D01*
X129347273Y-111403182D01*
X129318307Y-111211651D01*
X129251419Y-111029858D01*
X129248061Y-111024442D01*
X129248059Y-111024438D01*
X129152707Y-110870650D01*
X129152704Y-110870646D01*
X129149344Y-110865227D01*
X129016249Y-110724483D01*
X128857573Y-110613377D01*
X128679796Y-110536446D01*
X128567889Y-110513067D01*
X128494927Y-110497824D01*
X128494923Y-110497824D01*
X128490182Y-110496833D01*
X128483828Y-110496500D01*
X127681592Y-110496500D01*
X127635839Y-110501147D01*
X127543632Y-110510513D01*
X127543630Y-110510513D01*
X127537284Y-110511158D01*
X127487019Y-110526910D01*
X127418179Y-110548483D01*
X127347194Y-110549767D01*
X127286783Y-110512470D01*
X127276026Y-110490000D01*
X133706496Y-110490000D01*
X133707186Y-110496565D01*
X133724679Y-110662997D01*
X133726458Y-110679928D01*
X133785473Y-110861556D01*
X133880960Y-111026944D01*
X133885378Y-111031851D01*
X133885379Y-111031852D01*
X133955923Y-111110199D01*
X134008747Y-111168866D01*
X134163248Y-111281118D01*
X134169276Y-111283802D01*
X134169278Y-111283803D01*
X134301083Y-111342486D01*
X134337712Y-111358794D01*
X134419826Y-111376248D01*
X134518056Y-111397128D01*
X134518061Y-111397128D01*
X134524513Y-111398500D01*
X134715487Y-111398500D01*
X134721939Y-111397128D01*
X134721944Y-111397128D01*
X134820174Y-111376248D01*
X134902288Y-111358794D01*
X134938917Y-111342486D01*
X135070722Y-111283803D01*
X135070724Y-111283802D01*
X135076752Y-111281118D01*
X135231253Y-111168866D01*
X135284077Y-111110199D01*
X135354621Y-111031852D01*
X135354622Y-111031851D01*
X135359040Y-111026944D01*
X135454527Y-110861556D01*
X135513542Y-110679928D01*
X135515322Y-110662997D01*
X135532814Y-110496565D01*
X135533504Y-110490000D01*
X135513542Y-110300072D01*
X135454527Y-110118444D01*
X135359040Y-109953056D01*
X135343162Y-109935421D01*
X135235675Y-109816045D01*
X135235674Y-109816044D01*
X135231253Y-109811134D01*
X135076752Y-109698882D01*
X135070724Y-109696198D01*
X135070722Y-109696197D01*
X134908319Y-109623891D01*
X134908318Y-109623891D01*
X134902288Y-109621206D01*
X134789721Y-109597279D01*
X134721944Y-109582872D01*
X134721939Y-109582872D01*
X134715487Y-109581500D01*
X134524513Y-109581500D01*
X134518061Y-109582872D01*
X134518056Y-109582872D01*
X134450279Y-109597279D01*
X134337712Y-109621206D01*
X134331682Y-109623891D01*
X134331681Y-109623891D01*
X134169278Y-109696197D01*
X134169276Y-109696198D01*
X134163248Y-109698882D01*
X134008747Y-109811134D01*
X134004326Y-109816044D01*
X134004325Y-109816045D01*
X133896839Y-109935421D01*
X133880960Y-109953056D01*
X133785473Y-110118444D01*
X133726458Y-110300072D01*
X133706496Y-110490000D01*
X127276026Y-110490000D01*
X127256127Y-110448433D01*
X127254500Y-110428249D01*
X127254500Y-109220000D01*
X143612496Y-109220000D01*
X143632458Y-109409928D01*
X143691473Y-109591556D01*
X143786960Y-109756944D01*
X143791378Y-109761851D01*
X143791379Y-109761852D01*
X143835753Y-109811134D01*
X143914747Y-109898866D01*
X144069248Y-110011118D01*
X144075276Y-110013802D01*
X144075278Y-110013803D01*
X144237681Y-110086109D01*
X144243712Y-110088794D01*
X144337113Y-110108647D01*
X144424056Y-110127128D01*
X144424061Y-110127128D01*
X144430513Y-110128500D01*
X144621487Y-110128500D01*
X144627939Y-110127128D01*
X144627944Y-110127128D01*
X144714887Y-110108647D01*
X144808288Y-110088794D01*
X144814319Y-110086109D01*
X144976722Y-110013803D01*
X144976724Y-110013802D01*
X144982752Y-110011118D01*
X145086940Y-109935421D01*
X145153806Y-109911563D01*
X145222958Y-109927643D01*
X145235056Y-109935418D01*
X145339248Y-110011118D01*
X145345276Y-110013802D01*
X145345278Y-110013803D01*
X145507681Y-110086109D01*
X145513712Y-110088794D01*
X145607113Y-110108647D01*
X145694056Y-110127128D01*
X145694061Y-110127128D01*
X145700513Y-110128500D01*
X145891487Y-110128500D01*
X145897939Y-110127128D01*
X145897944Y-110127128D01*
X145984887Y-110108647D01*
X146078288Y-110088794D01*
X146084319Y-110086109D01*
X146246722Y-110013803D01*
X146246724Y-110013802D01*
X146252752Y-110011118D01*
X146356940Y-109935421D01*
X146423806Y-109911563D01*
X146492958Y-109927643D01*
X146505056Y-109935418D01*
X146609248Y-110011118D01*
X146615276Y-110013802D01*
X146615278Y-110013803D01*
X146777681Y-110086109D01*
X146783712Y-110088794D01*
X146877113Y-110108647D01*
X146964056Y-110127128D01*
X146964061Y-110127128D01*
X146970513Y-110128500D01*
X147161487Y-110128500D01*
X147167939Y-110127128D01*
X147167944Y-110127128D01*
X147254887Y-110108647D01*
X147348288Y-110088794D01*
X147354319Y-110086109D01*
X147516722Y-110013803D01*
X147516724Y-110013802D01*
X147522752Y-110011118D01*
X147677253Y-109898866D01*
X147756247Y-109811134D01*
X147800621Y-109761852D01*
X147800622Y-109761851D01*
X147805040Y-109756944D01*
X147900527Y-109591556D01*
X147959542Y-109409928D01*
X147979504Y-109220000D01*
X147959542Y-109030072D01*
X147900527Y-108848444D01*
X147805040Y-108683056D01*
X147759744Y-108632749D01*
X147681675Y-108546045D01*
X147681674Y-108546044D01*
X147677253Y-108541134D01*
X147522752Y-108428882D01*
X147516724Y-108426198D01*
X147516722Y-108426197D01*
X147354319Y-108353891D01*
X147354318Y-108353891D01*
X147348288Y-108351206D01*
X147254888Y-108331353D01*
X147167944Y-108312872D01*
X147167939Y-108312872D01*
X147161487Y-108311500D01*
X146970513Y-108311500D01*
X146964061Y-108312872D01*
X146964056Y-108312872D01*
X146877112Y-108331353D01*
X146783712Y-108351206D01*
X146777682Y-108353891D01*
X146777681Y-108353891D01*
X146615278Y-108426197D01*
X146615276Y-108426198D01*
X146609248Y-108428882D01*
X146505060Y-108504579D01*
X146438194Y-108528437D01*
X146369042Y-108512357D01*
X146356944Y-108504582D01*
X146252752Y-108428882D01*
X146246724Y-108426198D01*
X146246722Y-108426197D01*
X146084319Y-108353891D01*
X146084318Y-108353891D01*
X146078288Y-108351206D01*
X145984888Y-108331353D01*
X145897944Y-108312872D01*
X145897939Y-108312872D01*
X145891487Y-108311500D01*
X145700513Y-108311500D01*
X145694061Y-108312872D01*
X145694056Y-108312872D01*
X145607112Y-108331353D01*
X145513712Y-108351206D01*
X145507682Y-108353891D01*
X145507681Y-108353891D01*
X145345278Y-108426197D01*
X145345276Y-108426198D01*
X145339248Y-108428882D01*
X145235060Y-108504579D01*
X145168194Y-108528437D01*
X145099042Y-108512357D01*
X145086944Y-108504582D01*
X144982752Y-108428882D01*
X144976724Y-108426198D01*
X144976722Y-108426197D01*
X144814319Y-108353891D01*
X144814318Y-108353891D01*
X144808288Y-108351206D01*
X144714888Y-108331353D01*
X144627944Y-108312872D01*
X144627939Y-108312872D01*
X144621487Y-108311500D01*
X144430513Y-108311500D01*
X144424061Y-108312872D01*
X144424056Y-108312872D01*
X144337112Y-108331353D01*
X144243712Y-108351206D01*
X144237682Y-108353891D01*
X144237681Y-108353891D01*
X144075278Y-108426197D01*
X144075276Y-108426198D01*
X144069248Y-108428882D01*
X143914747Y-108541134D01*
X143910326Y-108546044D01*
X143910325Y-108546045D01*
X143832257Y-108632749D01*
X143786960Y-108683056D01*
X143691473Y-108848444D01*
X143632458Y-109030072D01*
X143612496Y-109220000D01*
X127254500Y-109220000D01*
X127254500Y-107950000D01*
X141834496Y-107950000D01*
X141854458Y-108139928D01*
X141913473Y-108321556D01*
X142008960Y-108486944D01*
X142013378Y-108491851D01*
X142013379Y-108491852D01*
X142057753Y-108541134D01*
X142136747Y-108628866D01*
X142204578Y-108678148D01*
X142280075Y-108733000D01*
X142291248Y-108741118D01*
X142297276Y-108743802D01*
X142297278Y-108743803D01*
X142459681Y-108816109D01*
X142465712Y-108818794D01*
X142559113Y-108838647D01*
X142646056Y-108857128D01*
X142646061Y-108857128D01*
X142652513Y-108858500D01*
X142843487Y-108858500D01*
X142849939Y-108857128D01*
X142849944Y-108857128D01*
X142936887Y-108838647D01*
X143030288Y-108818794D01*
X143036319Y-108816109D01*
X143198722Y-108743803D01*
X143198724Y-108743802D01*
X143204752Y-108741118D01*
X143215926Y-108733000D01*
X143291422Y-108678148D01*
X143359253Y-108628866D01*
X143438247Y-108541134D01*
X143482621Y-108491852D01*
X143482622Y-108491851D01*
X143487040Y-108486944D01*
X143582527Y-108321556D01*
X143599386Y-108269669D01*
X165792001Y-108269669D01*
X165792371Y-108276490D01*
X165797895Y-108327352D01*
X165801521Y-108342604D01*
X165846676Y-108463054D01*
X165855214Y-108478649D01*
X165931715Y-108580724D01*
X165944276Y-108593285D01*
X166046351Y-108669786D01*
X166061946Y-108678324D01*
X166182394Y-108723478D01*
X166197649Y-108727105D01*
X166248514Y-108732631D01*
X166255328Y-108733000D01*
X166877885Y-108733000D01*
X166893124Y-108728525D01*
X166894329Y-108727135D01*
X166896000Y-108719452D01*
X166896000Y-108714884D01*
X167404000Y-108714884D01*
X167408475Y-108730123D01*
X167409865Y-108731328D01*
X167417548Y-108732999D01*
X168044669Y-108732999D01*
X168051490Y-108732629D01*
X168102352Y-108727105D01*
X168117604Y-108723479D01*
X168238054Y-108678324D01*
X168253649Y-108669786D01*
X168355724Y-108593285D01*
X168368285Y-108580724D01*
X168444786Y-108478649D01*
X168453324Y-108463054D01*
X168498478Y-108342606D01*
X168502105Y-108327351D01*
X168507631Y-108276486D01*
X168508000Y-108269672D01*
X168508000Y-107647115D01*
X168503525Y-107631876D01*
X168502135Y-107630671D01*
X168494452Y-107629000D01*
X167422115Y-107629000D01*
X167406876Y-107633475D01*
X167405671Y-107634865D01*
X167404000Y-107642548D01*
X167404000Y-108714884D01*
X166896000Y-108714884D01*
X166896000Y-107647115D01*
X166891525Y-107631876D01*
X166890135Y-107630671D01*
X166882452Y-107629000D01*
X165810116Y-107629000D01*
X165794877Y-107633475D01*
X165793672Y-107634865D01*
X165792001Y-107642548D01*
X165792001Y-108269669D01*
X143599386Y-108269669D01*
X143641542Y-108139928D01*
X143661504Y-107950000D01*
X143660814Y-107943435D01*
X143642232Y-107766635D01*
X143642232Y-107766633D01*
X143641542Y-107760072D01*
X143582527Y-107578444D01*
X143487040Y-107413056D01*
X143474662Y-107399309D01*
X143443946Y-107335303D01*
X143452710Y-107264850D01*
X143474661Y-107230693D01*
X143487040Y-107216944D01*
X143582527Y-107051556D01*
X143620724Y-106934000D01*
X147168496Y-106934000D01*
X147188458Y-107123928D01*
X147247473Y-107305556D01*
X147250776Y-107311278D01*
X147250777Y-107311279D01*
X147264647Y-107335303D01*
X147342960Y-107470944D01*
X147470747Y-107612866D01*
X147625248Y-107725118D01*
X147631276Y-107727802D01*
X147631278Y-107727803D01*
X147703756Y-107760072D01*
X147799712Y-107802794D01*
X147893113Y-107822647D01*
X147980056Y-107841128D01*
X147980061Y-107841128D01*
X147986513Y-107842500D01*
X148177487Y-107842500D01*
X148183939Y-107841128D01*
X148183944Y-107841128D01*
X148270887Y-107822647D01*
X148364288Y-107802794D01*
X148460244Y-107760072D01*
X148532722Y-107727803D01*
X148532724Y-107727802D01*
X148538752Y-107725118D01*
X148693253Y-107612866D01*
X148821040Y-107470944D01*
X148899353Y-107335303D01*
X148913223Y-107311279D01*
X148913224Y-107311278D01*
X148916527Y-107305556D01*
X148975542Y-107123928D01*
X148995504Y-106934000D01*
X148975542Y-106744072D01*
X148916527Y-106562444D01*
X148874124Y-106489000D01*
X148857386Y-106420005D01*
X148874124Y-106363000D01*
X148913223Y-106295279D01*
X148913224Y-106295278D01*
X148916527Y-106289556D01*
X148975542Y-106107928D01*
X148977138Y-106092749D01*
X148994814Y-105924565D01*
X148995504Y-105918000D01*
X148975542Y-105728072D01*
X148916527Y-105546444D01*
X148874124Y-105473000D01*
X148857386Y-105404005D01*
X148874124Y-105347000D01*
X148913223Y-105279279D01*
X148913224Y-105279278D01*
X148916527Y-105273556D01*
X148975542Y-105091928D01*
X148980107Y-105048500D01*
X148994814Y-104908565D01*
X148995504Y-104902000D01*
X148988110Y-104831646D01*
X148976232Y-104718635D01*
X148976232Y-104718633D01*
X148975542Y-104712072D01*
X148916527Y-104530444D01*
X148821040Y-104365056D01*
X148816137Y-104359610D01*
X148697675Y-104228045D01*
X148697674Y-104228044D01*
X148693253Y-104223134D01*
X148578829Y-104140000D01*
X148544094Y-104114763D01*
X148544093Y-104114762D01*
X148538752Y-104110882D01*
X148532724Y-104108198D01*
X148532722Y-104108197D01*
X148370319Y-104035891D01*
X148370318Y-104035891D01*
X148364288Y-104033206D01*
X148270887Y-104013353D01*
X148183944Y-103994872D01*
X148183939Y-103994872D01*
X148177487Y-103993500D01*
X147986513Y-103993500D01*
X147980061Y-103994872D01*
X147980056Y-103994872D01*
X147893112Y-104013353D01*
X147799712Y-104033206D01*
X147793682Y-104035891D01*
X147793681Y-104035891D01*
X147631278Y-104108197D01*
X147631276Y-104108198D01*
X147625248Y-104110882D01*
X147619907Y-104114762D01*
X147619906Y-104114763D01*
X147585171Y-104140000D01*
X147470747Y-104223134D01*
X147466326Y-104228044D01*
X147466325Y-104228045D01*
X147347864Y-104359610D01*
X147342960Y-104365056D01*
X147247473Y-104530444D01*
X147188458Y-104712072D01*
X147187768Y-104718633D01*
X147187768Y-104718635D01*
X147175890Y-104831646D01*
X147168496Y-104902000D01*
X147169186Y-104908565D01*
X147183894Y-105048500D01*
X147188458Y-105091928D01*
X147247473Y-105273556D01*
X147250776Y-105279278D01*
X147250777Y-105279279D01*
X147289876Y-105347000D01*
X147306614Y-105415995D01*
X147289876Y-105473000D01*
X147247473Y-105546444D01*
X147188458Y-105728072D01*
X147168496Y-105918000D01*
X147169186Y-105924565D01*
X147186863Y-106092749D01*
X147188458Y-106107928D01*
X147247473Y-106289556D01*
X147250776Y-106295278D01*
X147250777Y-106295279D01*
X147289876Y-106363000D01*
X147306614Y-106431995D01*
X147289876Y-106489000D01*
X147247473Y-106562444D01*
X147188458Y-106744072D01*
X147168496Y-106934000D01*
X143620724Y-106934000D01*
X143641542Y-106869928D01*
X143661504Y-106680000D01*
X143641542Y-106490072D01*
X143582527Y-106308444D01*
X143487040Y-106143056D01*
X143474662Y-106129309D01*
X143443946Y-106065303D01*
X143452710Y-105994850D01*
X143474661Y-105960693D01*
X143487040Y-105946944D01*
X143582527Y-105781556D01*
X143641542Y-105599928D01*
X143647707Y-105541277D01*
X143660814Y-105416565D01*
X143661504Y-105410000D01*
X143641542Y-105220072D01*
X143582527Y-105038444D01*
X143577518Y-105029767D01*
X143502994Y-104900689D01*
X143486256Y-104831694D01*
X143509476Y-104764602D01*
X143565283Y-104720715D01*
X143635959Y-104713966D01*
X143663361Y-104722582D01*
X143729677Y-104752108D01*
X143729685Y-104752111D01*
X143735712Y-104754794D01*
X143829112Y-104774647D01*
X143916056Y-104793128D01*
X143916061Y-104793128D01*
X143922513Y-104794500D01*
X144113487Y-104794500D01*
X144119939Y-104793128D01*
X144119944Y-104793128D01*
X144206888Y-104774647D01*
X144300288Y-104754794D01*
X144474752Y-104677118D01*
X144545118Y-104667684D01*
X144577247Y-104677118D01*
X144577248Y-104677118D01*
X144751712Y-104754794D01*
X144845112Y-104774647D01*
X144932056Y-104793128D01*
X144932061Y-104793128D01*
X144938513Y-104794500D01*
X145129487Y-104794500D01*
X145135939Y-104793128D01*
X145135944Y-104793128D01*
X145222888Y-104774647D01*
X145316288Y-104754794D01*
X145490752Y-104677118D01*
X145561118Y-104667684D01*
X145593247Y-104677118D01*
X145593248Y-104677118D01*
X145767712Y-104754794D01*
X145861112Y-104774647D01*
X145948056Y-104793128D01*
X145948061Y-104793128D01*
X145954513Y-104794500D01*
X146145487Y-104794500D01*
X146151939Y-104793128D01*
X146151944Y-104793128D01*
X146238888Y-104774647D01*
X146332288Y-104754794D01*
X146338321Y-104752108D01*
X146500722Y-104679803D01*
X146500724Y-104679802D01*
X146506752Y-104677118D01*
X146661253Y-104564866D01*
X146697400Y-104524721D01*
X146784621Y-104427852D01*
X146784622Y-104427851D01*
X146789040Y-104422944D01*
X146884527Y-104257556D01*
X146943542Y-104075928D01*
X146948177Y-104031834D01*
X146962814Y-103892565D01*
X146963504Y-103886000D01*
X146956501Y-103819373D01*
X146944232Y-103702635D01*
X146944232Y-103702633D01*
X146943542Y-103696072D01*
X146884527Y-103514444D01*
X146789040Y-103349056D01*
X146661253Y-103207134D01*
X146519288Y-103103990D01*
X146512094Y-103098763D01*
X146512093Y-103098762D01*
X146506752Y-103094882D01*
X146500724Y-103092198D01*
X146500722Y-103092197D01*
X146338319Y-103019891D01*
X146338318Y-103019891D01*
X146332288Y-103017206D01*
X146237589Y-102997077D01*
X146151944Y-102978872D01*
X146151939Y-102978872D01*
X146145487Y-102977500D01*
X145954513Y-102977500D01*
X145948061Y-102978872D01*
X145948056Y-102978872D01*
X145862411Y-102997077D01*
X145767712Y-103017206D01*
X145593248Y-103094882D01*
X145522882Y-103104316D01*
X145490753Y-103094882D01*
X145490752Y-103094882D01*
X145316288Y-103017206D01*
X145221589Y-102997077D01*
X145135944Y-102978872D01*
X145135939Y-102978872D01*
X145129487Y-102977500D01*
X144938513Y-102977500D01*
X144932061Y-102978872D01*
X144932056Y-102978872D01*
X144846411Y-102997077D01*
X144751712Y-103017206D01*
X144577248Y-103094882D01*
X144506882Y-103104316D01*
X144474753Y-103094882D01*
X144474752Y-103094882D01*
X144300288Y-103017206D01*
X144205589Y-102997077D01*
X144119944Y-102978872D01*
X144119939Y-102978872D01*
X144113487Y-102977500D01*
X143922513Y-102977500D01*
X143916061Y-102978872D01*
X143916056Y-102978872D01*
X143830411Y-102997077D01*
X143735712Y-103017206D01*
X143729682Y-103019891D01*
X143729681Y-103019891D01*
X143567278Y-103092197D01*
X143567276Y-103092198D01*
X143561248Y-103094882D01*
X143555907Y-103098762D01*
X143555906Y-103098763D01*
X143548712Y-103103990D01*
X143406747Y-103207134D01*
X143278960Y-103349056D01*
X143183473Y-103514444D01*
X143124458Y-103696072D01*
X143123768Y-103702633D01*
X143123768Y-103702635D01*
X143111499Y-103819373D01*
X143104496Y-103886000D01*
X143105186Y-103892565D01*
X143119824Y-104031834D01*
X143124458Y-104075928D01*
X143183473Y-104257556D01*
X143186776Y-104263278D01*
X143186777Y-104263279D01*
X143263006Y-104395311D01*
X143279744Y-104464306D01*
X143256524Y-104531398D01*
X143200717Y-104575285D01*
X143130041Y-104582034D01*
X143102639Y-104573418D01*
X143036323Y-104543892D01*
X143036315Y-104543889D01*
X143030288Y-104541206D01*
X142917721Y-104517279D01*
X142849944Y-104502872D01*
X142849939Y-104502872D01*
X142843487Y-104501500D01*
X142652513Y-104501500D01*
X142646061Y-104502872D01*
X142646056Y-104502872D01*
X142578279Y-104517279D01*
X142465712Y-104541206D01*
X142459682Y-104543891D01*
X142459681Y-104543891D01*
X142297278Y-104616197D01*
X142297276Y-104616198D01*
X142291248Y-104618882D01*
X142136747Y-104731134D01*
X142132326Y-104736044D01*
X142132325Y-104736045D01*
X142054257Y-104822749D01*
X142008960Y-104873056D01*
X141994420Y-104898240D01*
X141929798Y-105010169D01*
X141913473Y-105038444D01*
X141854458Y-105220072D01*
X141834496Y-105410000D01*
X141835186Y-105416565D01*
X141848294Y-105541277D01*
X141854458Y-105599928D01*
X141913473Y-105781556D01*
X142008960Y-105946944D01*
X142021338Y-105960691D01*
X142052054Y-106024697D01*
X142043290Y-106095150D01*
X142021339Y-106129307D01*
X142008960Y-106143056D01*
X141913473Y-106308444D01*
X141854458Y-106490072D01*
X141834496Y-106680000D01*
X141854458Y-106869928D01*
X141913473Y-107051556D01*
X142008960Y-107216944D01*
X142021338Y-107230691D01*
X142052054Y-107294697D01*
X142043290Y-107365150D01*
X142021339Y-107399307D01*
X142008960Y-107413056D01*
X141913473Y-107578444D01*
X141854458Y-107760072D01*
X141853768Y-107766633D01*
X141853768Y-107766635D01*
X141835186Y-107943435D01*
X141834496Y-107950000D01*
X127254500Y-107950000D01*
X127254500Y-105410000D01*
X128626496Y-105410000D01*
X128627186Y-105416565D01*
X128640294Y-105541277D01*
X128646458Y-105599928D01*
X128705473Y-105781556D01*
X128800960Y-105946944D01*
X128805375Y-105951847D01*
X128805379Y-105951852D01*
X128855000Y-106006962D01*
X128928747Y-106088866D01*
X129083248Y-106201118D01*
X129089276Y-106203802D01*
X129089278Y-106203803D01*
X129251681Y-106276109D01*
X129257712Y-106278794D01*
X129351112Y-106298647D01*
X129438056Y-106317128D01*
X129438061Y-106317128D01*
X129444513Y-106318500D01*
X129635487Y-106318500D01*
X129641939Y-106317128D01*
X129641944Y-106317128D01*
X129728887Y-106298647D01*
X129822288Y-106278794D01*
X129828319Y-106276109D01*
X129990722Y-106203803D01*
X129990724Y-106203802D01*
X129996752Y-106201118D01*
X130151253Y-106088866D01*
X130225000Y-106006962D01*
X130274621Y-105951852D01*
X130274625Y-105951847D01*
X130279040Y-105946944D01*
X130374527Y-105781556D01*
X130433542Y-105599928D01*
X130439707Y-105541277D01*
X130452814Y-105416565D01*
X130453504Y-105410000D01*
X130439765Y-105279279D01*
X130434233Y-105226642D01*
X130434232Y-105226635D01*
X130433542Y-105220072D01*
X130422310Y-105185504D01*
X130420282Y-105114538D01*
X130456944Y-105053740D01*
X130515945Y-105023322D01*
X130577824Y-105010169D01*
X130577833Y-105010166D01*
X130584288Y-105008794D01*
X130590319Y-105006109D01*
X130752722Y-104933803D01*
X130752724Y-104933802D01*
X130758752Y-104931118D01*
X130789794Y-104908565D01*
X130886415Y-104838365D01*
X130913253Y-104818866D01*
X130936428Y-104793128D01*
X131036621Y-104681852D01*
X131036622Y-104681851D01*
X131041040Y-104676944D01*
X131120201Y-104539834D01*
X131133223Y-104517279D01*
X131133224Y-104517278D01*
X131136527Y-104511556D01*
X131195542Y-104329928D01*
X131207175Y-104219251D01*
X131214814Y-104146565D01*
X131215504Y-104140000D01*
X131674496Y-104140000D01*
X131675186Y-104146565D01*
X131682826Y-104219251D01*
X131694458Y-104329928D01*
X131753473Y-104511556D01*
X131756776Y-104517278D01*
X131756777Y-104517279D01*
X131769799Y-104539834D01*
X131848960Y-104676944D01*
X131853378Y-104681851D01*
X131853379Y-104681852D01*
X131953572Y-104793128D01*
X131976747Y-104818866D01*
X132003585Y-104838365D01*
X132100207Y-104908565D01*
X132131248Y-104931118D01*
X132137276Y-104933802D01*
X132137278Y-104933803D01*
X132299681Y-105006109D01*
X132305712Y-105008794D01*
X132380614Y-105024715D01*
X132486056Y-105047128D01*
X132486061Y-105047128D01*
X132492513Y-105048500D01*
X132683487Y-105048500D01*
X132689939Y-105047128D01*
X132689944Y-105047128D01*
X132795386Y-105024715D01*
X132870288Y-105008794D01*
X132876319Y-105006109D01*
X133038722Y-104933803D01*
X133038724Y-104933802D01*
X133044752Y-104931118D01*
X133075794Y-104908565D01*
X133172415Y-104838365D01*
X133199253Y-104818866D01*
X133222428Y-104793128D01*
X133322621Y-104681852D01*
X133322622Y-104681851D01*
X133327040Y-104676944D01*
X133406201Y-104539834D01*
X133419223Y-104517279D01*
X133419224Y-104517278D01*
X133422527Y-104511556D01*
X133481542Y-104329928D01*
X133493175Y-104219251D01*
X133500814Y-104146565D01*
X133501504Y-104140000D01*
X133490280Y-104033206D01*
X133482232Y-103956635D01*
X133482232Y-103956633D01*
X133481542Y-103950072D01*
X133422527Y-103768444D01*
X133327040Y-103603056D01*
X133247254Y-103514444D01*
X133203675Y-103466045D01*
X133203674Y-103466044D01*
X133199253Y-103461134D01*
X133044752Y-103348882D01*
X133038724Y-103346198D01*
X133038722Y-103346197D01*
X132876319Y-103273891D01*
X132876318Y-103273891D01*
X132870288Y-103271206D01*
X132776887Y-103251353D01*
X132689944Y-103232872D01*
X132689939Y-103232872D01*
X132683487Y-103231500D01*
X132492513Y-103231500D01*
X132486061Y-103232872D01*
X132486056Y-103232872D01*
X132399113Y-103251353D01*
X132305712Y-103271206D01*
X132299682Y-103273891D01*
X132299681Y-103273891D01*
X132137278Y-103346197D01*
X132137276Y-103346198D01*
X132131248Y-103348882D01*
X131976747Y-103461134D01*
X131972326Y-103466044D01*
X131972325Y-103466045D01*
X131928747Y-103514444D01*
X131848960Y-103603056D01*
X131753473Y-103768444D01*
X131694458Y-103950072D01*
X131693768Y-103956633D01*
X131693768Y-103956635D01*
X131685720Y-104033206D01*
X131674496Y-104140000D01*
X131215504Y-104140000D01*
X131204280Y-104033206D01*
X131196232Y-103956635D01*
X131196232Y-103956633D01*
X131195542Y-103950072D01*
X131136527Y-103768444D01*
X131041040Y-103603056D01*
X130961254Y-103514444D01*
X130917675Y-103466045D01*
X130917674Y-103466044D01*
X130913253Y-103461134D01*
X130758752Y-103348882D01*
X130752724Y-103346198D01*
X130752722Y-103346197D01*
X130590319Y-103273891D01*
X130590318Y-103273891D01*
X130584288Y-103271206D01*
X130490887Y-103251353D01*
X130403944Y-103232872D01*
X130403939Y-103232872D01*
X130397487Y-103231500D01*
X130206513Y-103231500D01*
X130200061Y-103232872D01*
X130200056Y-103232872D01*
X130113113Y-103251353D01*
X130019712Y-103271206D01*
X130013682Y-103273891D01*
X130013681Y-103273891D01*
X129851278Y-103346197D01*
X129851276Y-103346198D01*
X129845248Y-103348882D01*
X129690747Y-103461134D01*
X129686326Y-103466044D01*
X129686325Y-103466045D01*
X129642747Y-103514444D01*
X129562960Y-103603056D01*
X129467473Y-103768444D01*
X129408458Y-103950072D01*
X129407768Y-103956633D01*
X129407768Y-103956635D01*
X129399720Y-104033206D01*
X129388496Y-104140000D01*
X129389186Y-104146565D01*
X129397234Y-104223134D01*
X129408458Y-104329928D01*
X129419690Y-104364496D01*
X129421718Y-104435462D01*
X129385056Y-104496260D01*
X129326055Y-104526678D01*
X129264176Y-104539831D01*
X129264167Y-104539834D01*
X129257712Y-104541206D01*
X129251682Y-104543891D01*
X129251681Y-104543891D01*
X129089278Y-104616197D01*
X129089276Y-104616198D01*
X129083248Y-104618882D01*
X128928747Y-104731134D01*
X128924326Y-104736044D01*
X128924325Y-104736045D01*
X128846257Y-104822749D01*
X128800960Y-104873056D01*
X128786420Y-104898240D01*
X128721798Y-105010169D01*
X128705473Y-105038444D01*
X128646458Y-105220072D01*
X128626496Y-105410000D01*
X127254500Y-105410000D01*
X127254500Y-98250000D01*
X132761496Y-98250000D01*
X132762186Y-98256565D01*
X132780474Y-98430562D01*
X132781458Y-98439928D01*
X132840473Y-98621556D01*
X132935960Y-98786944D01*
X133063747Y-98928866D01*
X133218248Y-99041118D01*
X133224276Y-99043802D01*
X133224278Y-99043803D01*
X133386681Y-99116109D01*
X133392712Y-99118794D01*
X133461263Y-99133365D01*
X133573056Y-99157128D01*
X133573061Y-99157128D01*
X133579513Y-99158500D01*
X133770487Y-99158500D01*
X133776939Y-99157128D01*
X133776944Y-99157128D01*
X133888737Y-99133365D01*
X133957288Y-99118794D01*
X133963319Y-99116109D01*
X134125722Y-99043803D01*
X134125724Y-99043802D01*
X134131752Y-99041118D01*
X134286253Y-98928866D01*
X134396882Y-98806000D01*
X135484496Y-98806000D01*
X135485186Y-98812565D01*
X135497410Y-98928866D01*
X135504458Y-98995928D01*
X135563473Y-99177556D01*
X135658960Y-99342944D01*
X135786747Y-99484866D01*
X135941248Y-99597118D01*
X135947276Y-99599802D01*
X135947278Y-99599803D01*
X136109681Y-99672109D01*
X136115712Y-99674794D01*
X136209113Y-99694647D01*
X136296056Y-99713128D01*
X136296061Y-99713128D01*
X136302513Y-99714500D01*
X136493487Y-99714500D01*
X136499939Y-99713128D01*
X136499944Y-99713128D01*
X136586887Y-99694647D01*
X136680288Y-99674794D01*
X136686319Y-99672109D01*
X136848722Y-99599803D01*
X136848724Y-99599802D01*
X136854752Y-99597118D01*
X137009253Y-99484866D01*
X137137040Y-99342944D01*
X137232527Y-99177556D01*
X137291542Y-98995928D01*
X137296370Y-98950000D01*
X163936496Y-98950000D01*
X163937186Y-98956565D01*
X163953955Y-99116109D01*
X163956458Y-99139928D01*
X164015473Y-99321556D01*
X164110960Y-99486944D01*
X164115378Y-99491851D01*
X164115379Y-99491852D01*
X164234325Y-99623955D01*
X164238747Y-99628866D01*
X164298266Y-99672109D01*
X164366515Y-99721695D01*
X164393248Y-99741118D01*
X164399276Y-99743802D01*
X164399278Y-99743803D01*
X164561681Y-99816109D01*
X164567712Y-99818794D01*
X164661113Y-99838647D01*
X164748056Y-99857128D01*
X164748061Y-99857128D01*
X164754513Y-99858500D01*
X164945487Y-99858500D01*
X164951939Y-99857128D01*
X164951944Y-99857128D01*
X165038888Y-99838647D01*
X165132288Y-99818794D01*
X165138319Y-99816109D01*
X165300722Y-99743803D01*
X165300724Y-99743802D01*
X165306752Y-99741118D01*
X165333486Y-99721695D01*
X165401734Y-99672109D01*
X165461253Y-99628866D01*
X165582158Y-99494587D01*
X165642604Y-99457348D01*
X165713588Y-99458700D01*
X165772572Y-99498214D01*
X165800830Y-99563344D01*
X165801081Y-99592283D01*
X165792778Y-99669981D01*
X165788167Y-99713128D01*
X165787251Y-99721695D01*
X165787548Y-99726847D01*
X165787548Y-99726851D01*
X165792929Y-99820166D01*
X165800110Y-99944715D01*
X165801247Y-99949761D01*
X165801248Y-99949767D01*
X165821119Y-100037939D01*
X165849222Y-100162639D01*
X165933266Y-100369616D01*
X166049987Y-100560088D01*
X166196250Y-100728938D01*
X166368126Y-100871632D01*
X166438595Y-100912811D01*
X166441445Y-100914476D01*
X166490169Y-100966114D01*
X166503240Y-101035897D01*
X166476509Y-101101669D01*
X166436055Y-101135027D01*
X166423607Y-101141507D01*
X166419474Y-101144610D01*
X166419471Y-101144612D01*
X166395247Y-101162800D01*
X166244965Y-101275635D01*
X166090629Y-101437138D01*
X165964743Y-101621680D01*
X165870688Y-101824305D01*
X165810989Y-102039570D01*
X165787251Y-102261695D01*
X165787548Y-102266848D01*
X165787548Y-102266851D01*
X165793011Y-102361590D01*
X165800110Y-102484715D01*
X165801247Y-102489761D01*
X165801248Y-102489767D01*
X165821119Y-102577939D01*
X165849222Y-102702639D01*
X165933266Y-102909616D01*
X165935965Y-102914020D01*
X166046797Y-103094882D01*
X166049987Y-103100088D01*
X166196250Y-103268938D01*
X166368126Y-103411632D01*
X166438595Y-103452811D01*
X166441445Y-103454476D01*
X166490169Y-103506114D01*
X166503240Y-103575897D01*
X166476509Y-103641669D01*
X166436055Y-103675027D01*
X166423607Y-103681507D01*
X166419474Y-103684610D01*
X166419471Y-103684612D01*
X166249100Y-103812530D01*
X166244965Y-103815635D01*
X166090629Y-103977138D01*
X166087715Y-103981410D01*
X166087714Y-103981411D01*
X166078532Y-103994872D01*
X165964743Y-104161680D01*
X165949003Y-104195590D01*
X165889692Y-104323365D01*
X165870688Y-104364305D01*
X165810989Y-104579570D01*
X165787251Y-104801695D01*
X165787548Y-104806848D01*
X165787548Y-104806851D01*
X165794713Y-104931118D01*
X165800110Y-105024715D01*
X165801247Y-105029761D01*
X165801248Y-105029767D01*
X165801914Y-105032721D01*
X165849222Y-105242639D01*
X165933266Y-105449616D01*
X165935965Y-105454020D01*
X165996454Y-105552729D01*
X166049987Y-105640088D01*
X166196250Y-105808938D01*
X166200225Y-105812238D01*
X166200231Y-105812244D01*
X166205425Y-105816556D01*
X166245059Y-105875460D01*
X166246555Y-105946441D01*
X166209439Y-106006962D01*
X166169168Y-106031480D01*
X166061946Y-106071676D01*
X166046351Y-106080214D01*
X165944276Y-106156715D01*
X165931715Y-106169276D01*
X165855214Y-106271351D01*
X165846676Y-106286946D01*
X165801522Y-106407394D01*
X165797895Y-106422649D01*
X165792369Y-106473514D01*
X165792000Y-106480328D01*
X165792000Y-107102885D01*
X165796475Y-107118124D01*
X165797865Y-107119329D01*
X165805548Y-107121000D01*
X168489884Y-107121000D01*
X168505123Y-107116525D01*
X168506328Y-107115135D01*
X168507999Y-107107452D01*
X168507999Y-106480331D01*
X168507629Y-106473510D01*
X168502105Y-106422648D01*
X168498479Y-106407396D01*
X168453324Y-106286946D01*
X168444786Y-106271351D01*
X168368285Y-106169276D01*
X168355724Y-106156715D01*
X168253649Y-106080214D01*
X168238054Y-106071676D01*
X168127813Y-106030348D01*
X168071049Y-105987706D01*
X168046349Y-105921145D01*
X168061557Y-105851796D01*
X168083104Y-105823115D01*
X168184430Y-105722144D01*
X168184440Y-105722132D01*
X168188096Y-105718489D01*
X168247594Y-105635689D01*
X168315435Y-105541277D01*
X168318453Y-105537077D01*
X168378014Y-105416565D01*
X168415136Y-105341453D01*
X168415137Y-105341451D01*
X168417430Y-105336811D01*
X168482370Y-105123069D01*
X168511529Y-104901590D01*
X168511611Y-104898240D01*
X168513074Y-104838365D01*
X168513074Y-104838361D01*
X168513156Y-104835000D01*
X168494852Y-104612361D01*
X168440431Y-104395702D01*
X168351354Y-104190840D01*
X168297890Y-104108197D01*
X168232822Y-104007617D01*
X168232820Y-104007614D01*
X168230014Y-104003277D01*
X168079670Y-103838051D01*
X168075619Y-103834852D01*
X168075615Y-103834848D01*
X167908414Y-103702800D01*
X167908410Y-103702798D01*
X167904359Y-103699598D01*
X167863053Y-103676796D01*
X167813084Y-103626364D01*
X167798312Y-103556921D01*
X167823428Y-103490516D01*
X167850780Y-103463909D01*
X167894603Y-103432650D01*
X168029860Y-103336173D01*
X168188096Y-103178489D01*
X168247594Y-103095689D01*
X168315435Y-103001277D01*
X168318453Y-102997077D01*
X168327451Y-102978872D01*
X168415136Y-102801453D01*
X168415137Y-102801451D01*
X168417430Y-102796811D01*
X168482370Y-102583069D01*
X168511529Y-102361590D01*
X168513156Y-102295000D01*
X168494852Y-102072361D01*
X168440431Y-101855702D01*
X168351354Y-101650840D01*
X168230014Y-101463277D01*
X168079670Y-101298051D01*
X168075619Y-101294852D01*
X168075615Y-101294848D01*
X167908414Y-101162800D01*
X167908410Y-101162798D01*
X167904359Y-101159598D01*
X167863053Y-101136796D01*
X167813084Y-101086364D01*
X167798312Y-101016921D01*
X167823428Y-100950516D01*
X167850780Y-100923909D01*
X167894603Y-100892650D01*
X168029860Y-100796173D01*
X168188096Y-100638489D01*
X168247594Y-100555689D01*
X168315435Y-100461277D01*
X168318453Y-100457077D01*
X168417430Y-100256811D01*
X168482370Y-100043069D01*
X168511529Y-99821590D01*
X168513156Y-99755000D01*
X168494852Y-99532361D01*
X168440431Y-99315702D01*
X168351354Y-99110840D01*
X168281394Y-99002698D01*
X168232822Y-98927617D01*
X168232820Y-98927614D01*
X168230014Y-98923277D01*
X168079670Y-98758051D01*
X168075619Y-98754852D01*
X168075615Y-98754848D01*
X167908414Y-98622800D01*
X167908410Y-98622798D01*
X167904359Y-98619598D01*
X167708789Y-98511638D01*
X167703920Y-98509914D01*
X167703916Y-98509912D01*
X167503087Y-98438795D01*
X167503083Y-98438794D01*
X167498212Y-98437069D01*
X167493119Y-98436162D01*
X167493116Y-98436161D01*
X167283373Y-98398800D01*
X167283367Y-98398799D01*
X167278284Y-98397894D01*
X167204452Y-98396992D01*
X167060081Y-98395228D01*
X167060079Y-98395228D01*
X167054911Y-98395165D01*
X166834091Y-98428955D01*
X166621756Y-98498357D01*
X166591443Y-98514137D01*
X166467911Y-98578444D01*
X166423607Y-98601507D01*
X166419474Y-98604610D01*
X166419471Y-98604612D01*
X166249100Y-98732530D01*
X166244965Y-98735635D01*
X166090629Y-98897138D01*
X166087715Y-98901410D01*
X166087714Y-98901411D01*
X165992128Y-99041535D01*
X165937217Y-99086538D01*
X165866692Y-99094709D01*
X165802945Y-99063455D01*
X165766215Y-99002698D01*
X165763178Y-98963170D01*
X165762814Y-98963170D01*
X165762814Y-98958435D01*
X165762731Y-98957355D01*
X165762814Y-98956566D01*
X165762814Y-98956565D01*
X165763504Y-98950000D01*
X165746882Y-98791852D01*
X165744232Y-98766635D01*
X165744232Y-98766633D01*
X165743542Y-98760072D01*
X165684527Y-98578444D01*
X165589040Y-98413056D01*
X165575332Y-98397831D01*
X165465675Y-98276045D01*
X165465674Y-98276044D01*
X165461253Y-98271134D01*
X165306752Y-98158882D01*
X165300724Y-98156198D01*
X165300722Y-98156197D01*
X165138319Y-98083891D01*
X165138318Y-98083891D01*
X165132288Y-98081206D01*
X165032861Y-98060072D01*
X164951944Y-98042872D01*
X164951939Y-98042872D01*
X164945487Y-98041500D01*
X164754513Y-98041500D01*
X164748061Y-98042872D01*
X164748056Y-98042872D01*
X164667139Y-98060072D01*
X164567712Y-98081206D01*
X164561682Y-98083891D01*
X164561681Y-98083891D01*
X164399278Y-98156197D01*
X164399276Y-98156198D01*
X164393248Y-98158882D01*
X164238747Y-98271134D01*
X164234326Y-98276044D01*
X164234325Y-98276045D01*
X164124669Y-98397831D01*
X164110960Y-98413056D01*
X164015473Y-98578444D01*
X163956458Y-98760072D01*
X163955768Y-98766633D01*
X163955768Y-98766635D01*
X163953118Y-98791852D01*
X163936496Y-98950000D01*
X137296370Y-98950000D01*
X137298591Y-98928866D01*
X137310814Y-98812565D01*
X137311504Y-98806000D01*
X137304501Y-98739373D01*
X137292232Y-98622635D01*
X137292232Y-98622633D01*
X137291542Y-98616072D01*
X137232527Y-98434444D01*
X137228907Y-98428173D01*
X137140341Y-98274774D01*
X137137040Y-98269056D01*
X137041334Y-98162763D01*
X137013675Y-98132045D01*
X137013674Y-98132044D01*
X137009253Y-98127134D01*
X136854752Y-98014882D01*
X136848724Y-98012198D01*
X136848722Y-98012197D01*
X136686319Y-97939891D01*
X136686318Y-97939891D01*
X136680288Y-97937206D01*
X136586887Y-97917353D01*
X136499944Y-97898872D01*
X136499939Y-97898872D01*
X136493487Y-97897500D01*
X136302513Y-97897500D01*
X136296061Y-97898872D01*
X136296056Y-97898872D01*
X136209112Y-97917353D01*
X136115712Y-97937206D01*
X136109682Y-97939891D01*
X136109681Y-97939891D01*
X135947278Y-98012197D01*
X135947276Y-98012198D01*
X135941248Y-98014882D01*
X135786747Y-98127134D01*
X135782326Y-98132044D01*
X135782325Y-98132045D01*
X135754667Y-98162763D01*
X135658960Y-98269056D01*
X135655659Y-98274774D01*
X135567094Y-98428173D01*
X135563473Y-98434444D01*
X135504458Y-98616072D01*
X135503768Y-98622633D01*
X135503768Y-98622635D01*
X135491499Y-98739373D01*
X135484496Y-98806000D01*
X134396882Y-98806000D01*
X134414040Y-98786944D01*
X134509527Y-98621556D01*
X134568542Y-98439928D01*
X134569527Y-98430562D01*
X134587814Y-98256565D01*
X134588504Y-98250000D01*
X134576107Y-98132045D01*
X134569232Y-98066635D01*
X134569232Y-98066633D01*
X134568542Y-98060072D01*
X134509527Y-97878444D01*
X134414040Y-97713056D01*
X134286253Y-97571134D01*
X134131752Y-97458882D01*
X134125724Y-97456198D01*
X134125722Y-97456197D01*
X133963319Y-97383891D01*
X133963318Y-97383891D01*
X133957288Y-97381206D01*
X133863888Y-97361353D01*
X133776944Y-97342872D01*
X133776939Y-97342872D01*
X133770487Y-97341500D01*
X133579513Y-97341500D01*
X133573061Y-97342872D01*
X133573056Y-97342872D01*
X133486112Y-97361353D01*
X133392712Y-97381206D01*
X133386682Y-97383891D01*
X133386681Y-97383891D01*
X133224278Y-97456197D01*
X133224276Y-97456198D01*
X133218248Y-97458882D01*
X133063747Y-97571134D01*
X132935960Y-97713056D01*
X132840473Y-97878444D01*
X132781458Y-98060072D01*
X132780768Y-98066633D01*
X132780768Y-98066635D01*
X132773893Y-98132045D01*
X132761496Y-98250000D01*
X127254500Y-98250000D01*
X127254500Y-90296500D01*
X127274502Y-90228379D01*
X127328158Y-90181886D01*
X127380500Y-90170500D01*
X135779693Y-90170500D01*
X135847814Y-90190502D01*
G37*
%TD.AperFunction*%
%TD*%
M02*
