%TF.GenerationSoftware,KiCad,Pcbnew,6.0.9+dfsg-1~bpo11+1*%
%TF.CreationDate,2022-12-22T20:36:38-06:00*%
%TF.ProjectId,CAE32_PCB,43414533-325f-4504-9342-2e6b69636164,rev?*%
%TF.SameCoordinates,Original*%
%TF.FileFunction,Copper,L1,Top*%
%TF.FilePolarity,Positive*%
%FSLAX46Y46*%
G04 Gerber Fmt 4.6, Leading zero omitted, Abs format (unit mm)*
G04 Created by KiCad (PCBNEW 6.0.9+dfsg-1~bpo11+1) date 2022-12-22 20:36:38*
%MOMM*%
%LPD*%
G01*
G04 APERTURE LIST*
G04 Aperture macros list*
%AMRoundRect*
0 Rectangle with rounded corners*
0 $1 Rounding radius*
0 $2 $3 $4 $5 $6 $7 $8 $9 X,Y pos of 4 corners*
0 Add a 4 corners polygon primitive as box body*
4,1,4,$2,$3,$4,$5,$6,$7,$8,$9,$2,$3,0*
0 Add four circle primitives for the rounded corners*
1,1,$1+$1,$2,$3*
1,1,$1+$1,$4,$5*
1,1,$1+$1,$6,$7*
1,1,$1+$1,$8,$9*
0 Add four rect primitives between the rounded corners*
20,1,$1+$1,$2,$3,$4,$5,0*
20,1,$1+$1,$4,$5,$6,$7,0*
20,1,$1+$1,$6,$7,$8,$9,0*
20,1,$1+$1,$8,$9,$2,$3,0*%
G04 Aperture macros list end*
%TA.AperFunction,SMDPad,CuDef*%
%ADD10RoundRect,0.250000X-0.250000X-0.475000X0.250000X-0.475000X0.250000X0.475000X-0.250000X0.475000X0*%
%TD*%
%TA.AperFunction,SMDPad,CuDef*%
%ADD11RoundRect,0.150000X-0.587500X-0.150000X0.587500X-0.150000X0.587500X0.150000X-0.587500X0.150000X0*%
%TD*%
%TA.AperFunction,SMDPad,CuDef*%
%ADD12RoundRect,0.250000X-0.475000X0.250000X-0.475000X-0.250000X0.475000X-0.250000X0.475000X0.250000X0*%
%TD*%
%TA.AperFunction,SMDPad,CuDef*%
%ADD13C,2.500000*%
%TD*%
%TA.AperFunction,SMDPad,CuDef*%
%ADD14RoundRect,0.125000X-0.175000X0.125000X-0.175000X-0.125000X0.175000X-0.125000X0.175000X0.125000X0*%
%TD*%
%TA.AperFunction,SMDPad,CuDef*%
%ADD15RoundRect,0.250000X0.250000X0.475000X-0.250000X0.475000X-0.250000X-0.475000X0.250000X-0.475000X0*%
%TD*%
%TA.AperFunction,SMDPad,CuDef*%
%ADD16RoundRect,0.250000X0.450000X-0.262500X0.450000X0.262500X-0.450000X0.262500X-0.450000X-0.262500X0*%
%TD*%
%TA.AperFunction,SMDPad,CuDef*%
%ADD17R,1.350000X0.400000*%
%TD*%
%TA.AperFunction,ComponentPad*%
%ADD18O,1.550000X0.890000*%
%TD*%
%TA.AperFunction,SMDPad,CuDef*%
%ADD19R,1.550000X1.500000*%
%TD*%
%TA.AperFunction,SMDPad,CuDef*%
%ADD20R,1.550000X1.200000*%
%TD*%
%TA.AperFunction,ComponentPad*%
%ADD21O,0.950000X1.250000*%
%TD*%
%TA.AperFunction,ComponentPad*%
%ADD22R,2.020000X5.020000*%
%TD*%
%TA.AperFunction,ComponentPad*%
%ADD23O,2.020000X5.020000*%
%TD*%
%TA.AperFunction,SMDPad,CuDef*%
%ADD24RoundRect,0.243750X-0.243750X-0.456250X0.243750X-0.456250X0.243750X0.456250X-0.243750X0.456250X0*%
%TD*%
%TA.AperFunction,SMDPad,CuDef*%
%ADD25R,1.500000X0.600000*%
%TD*%
%TA.AperFunction,SMDPad,CuDef*%
%ADD26RoundRect,0.250000X-0.450000X0.262500X-0.450000X-0.262500X0.450000X-0.262500X0.450000X0.262500X0*%
%TD*%
%TA.AperFunction,SMDPad,CuDef*%
%ADD27R,1.500000X0.900000*%
%TD*%
%TA.AperFunction,SMDPad,CuDef*%
%ADD28R,0.900000X1.500000*%
%TD*%
%TA.AperFunction,SMDPad,CuDef*%
%ADD29R,0.900000X0.900000*%
%TD*%
%TA.AperFunction,SMDPad,CuDef*%
%ADD30RoundRect,0.150000X-0.625000X-0.150000X0.625000X-0.150000X0.625000X0.150000X-0.625000X0.150000X0*%
%TD*%
%TA.AperFunction,SMDPad,CuDef*%
%ADD31R,2.000000X1.500000*%
%TD*%
%TA.AperFunction,SMDPad,CuDef*%
%ADD32R,2.000000X3.800000*%
%TD*%
%TA.AperFunction,ComponentPad*%
%ADD33R,1.700000X1.700000*%
%TD*%
%TA.AperFunction,ComponentPad*%
%ADD34O,1.700000X1.700000*%
%TD*%
%TA.AperFunction,SMDPad,CuDef*%
%ADD35R,1.100000X0.510000*%
%TD*%
%TA.AperFunction,SMDPad,CuDef*%
%ADD36RoundRect,0.125000X0.175000X-0.125000X0.175000X0.125000X-0.175000X0.125000X-0.175000X-0.125000X0*%
%TD*%
%TA.AperFunction,SMDPad,CuDef*%
%ADD37R,1.050000X0.650000*%
%TD*%
%TA.AperFunction,SMDPad,CuDef*%
%ADD38RoundRect,0.150000X0.587500X0.150000X-0.587500X0.150000X-0.587500X-0.150000X0.587500X-0.150000X0*%
%TD*%
%TA.AperFunction,ViaPad*%
%ADD39C,0.800000*%
%TD*%
%TA.AperFunction,Conductor*%
%ADD40C,0.250000*%
%TD*%
%TA.AperFunction,Conductor*%
%ADD41C,0.200000*%
%TD*%
G04 APERTURE END LIST*
D10*
%TO.P,C6,1*%
%TO.N,Net-(C6-Pad1)*%
X130325000Y-98125000D03*
%TO.P,C6,2*%
%TO.N,GNDREF*%
X132225000Y-98125000D03*
%TD*%
%TO.P,C9,1*%
%TO.N,+3.3V*%
X168087000Y-133858000D03*
%TO.P,C9,2*%
%TO.N,GNDREF*%
X169987000Y-133858000D03*
%TD*%
D11*
%TO.P,VR1,1,IN*%
%TO.N,+5V*%
X137637500Y-127275000D03*
%TO.P,VR1,2,OUT*%
%TO.N,/3v3REF+*%
X137637500Y-129175000D03*
%TO.P,VR1,3,GND*%
%TO.N,GNDREF*%
X139512500Y-128225000D03*
%TD*%
D12*
%TO.P,C3,1*%
%TO.N,+3.3V*%
X131064000Y-100904000D03*
%TO.P,C3,2*%
%TO.N,GNDREF*%
X131064000Y-102804000D03*
%TD*%
D10*
%TO.P,C1,1*%
%TO.N,+5V*%
X158750000Y-132588000D03*
%TO.P,C1,2*%
%TO.N,GNDREF*%
X160650000Y-132588000D03*
%TD*%
D13*
%TO.P,TP?-3v3,1,1*%
%TO.N,-3V3*%
X129540000Y-136144000D03*
%TD*%
D14*
%TO.P,D1,1*%
%TO.N,GNDREF*%
X134550000Y-111650000D03*
%TO.P,D1,2*%
%TO.N,/D-*%
X134550000Y-113950000D03*
%TD*%
D15*
%TO.P,C13,1*%
%TO.N,GNDREF*%
X153775000Y-139625000D03*
%TO.P,C13,2*%
%TO.N,-3V3*%
X151875000Y-139625000D03*
%TD*%
D16*
%TO.P,R2,1*%
%TO.N,/EN*%
X128016000Y-99615000D03*
%TO.P,R2,2*%
%TO.N,Net-(C6-Pad1)*%
X128016000Y-97790000D03*
%TD*%
D17*
%TO.P,J4,1,VBUS*%
%TO.N,+5V*%
X168349000Y-116250000D03*
%TO.P,J4,2,D-*%
%TO.N,unconnected-(J4-Pad2)*%
X168349000Y-115600000D03*
%TO.P,J4,3,D+*%
%TO.N,unconnected-(J4-Pad3)*%
X168349000Y-114950000D03*
%TO.P,J4,4,ID*%
%TO.N,GNDREF*%
X168349000Y-114300000D03*
%TO.P,J4,5,GND*%
X168349000Y-113650000D03*
D18*
%TO.P,J4,6,Shield*%
%TO.N,unconnected-(J4-Pad6)*%
X171049000Y-111450000D03*
D19*
X171049000Y-115950000D03*
D20*
X171049000Y-117850000D03*
X171049000Y-112050000D03*
D19*
X171049000Y-113950000D03*
D21*
X168349000Y-117450000D03*
X168349000Y-112450000D03*
D18*
X171049000Y-118450000D03*
%TD*%
D12*
%TO.P,C4,1*%
%TO.N,+3.3V*%
X134366000Y-100904000D03*
%TO.P,C4,2*%
%TO.N,GNDREF*%
X134366000Y-102804000D03*
%TD*%
D22*
%TO.P,J5,1*%
%TO.N,+3.3V*%
X145536000Y-147828000D03*
D23*
%TO.P,J5,2*%
%TO.N,GNDREF*%
X140356000Y-147828000D03*
%TD*%
D24*
%TO.P,C2,1*%
%TO.N,+3.3V*%
X166370000Y-121666000D03*
%TO.P,C2,2*%
%TO.N,GNDREF*%
X168245000Y-121666000D03*
%TD*%
D25*
%TO.P,U2,1,A4*%
%TO.N,Net-(J3-Pad5)*%
X158629000Y-135636000D03*
%TO.P,U2,2,A6*%
%TO.N,Net-(J3-Pad7)*%
X158629000Y-136906000D03*
%TO.P,U2,3,A*%
%TO.N,Net-(U2-Pad3)*%
X158629000Y-138176000D03*
%TO.P,U2,4,A7*%
%TO.N,Net-(J3-Pad8)*%
X158629000Y-139446000D03*
%TO.P,U2,5,A5*%
%TO.N,Net-(J3-Pad6)*%
X158629000Y-140716000D03*
%TO.P,U2,6,~{E}*%
%TO.N,+3.3V*%
X158629000Y-141986000D03*
%TO.P,U2,7,VEE*%
%TO.N,-3V3*%
X158629000Y-143256000D03*
%TO.P,U2,8,GND*%
%TO.N,GNDREF*%
X158629000Y-144526000D03*
%TO.P,U2,9,S2*%
%TO.N,/S2*%
X165729000Y-144526000D03*
%TO.P,U2,10,S1*%
%TO.N,/S1*%
X165729000Y-143256000D03*
%TO.P,U2,11,S0*%
%TO.N,/S0*%
X165729000Y-141986000D03*
%TO.P,U2,12,A3*%
%TO.N,Net-(J3-Pad4)*%
X165729000Y-140716000D03*
%TO.P,U2,13,A0*%
%TO.N,Net-(J3-Pad1)*%
X165729000Y-139446000D03*
%TO.P,U2,14,A1*%
%TO.N,Net-(J3-Pad2)*%
X165729000Y-138176000D03*
%TO.P,U2,15,A2*%
%TO.N,Net-(J3-Pad3)*%
X165729000Y-136906000D03*
%TO.P,U2,16,VCC*%
%TO.N,+3.3V*%
X165729000Y-135636000D03*
%TD*%
D12*
%TO.P,C5,1*%
%TO.N,GNDREF*%
X131064000Y-106238000D03*
%TO.P,C5,2*%
%TO.N,/EN*%
X131064000Y-108138000D03*
%TD*%
D26*
%TO.P,R1,1*%
%TO.N,+3.3V*%
X134366000Y-104497500D03*
%TO.P,R1,2*%
%TO.N,/EN*%
X134366000Y-106322500D03*
%TD*%
D13*
%TO.P,TP+5v1,1,1*%
%TO.N,+5V*%
X163576000Y-112014000D03*
%TD*%
D10*
%TO.P,C10,1*%
%TO.N,+3.3V*%
X168087000Y-138811000D03*
%TO.P,C10,2*%
%TO.N,GNDREF*%
X169987000Y-138811000D03*
%TD*%
D17*
%TO.P,J1,1,VBUS*%
%TO.N,unconnected-(J1-Pad1)*%
X130760000Y-113650000D03*
%TO.P,J1,2,D-*%
%TO.N,/D-*%
X130760000Y-114300000D03*
%TO.P,J1,3,D+*%
%TO.N,/D+*%
X130760000Y-114950000D03*
%TO.P,J1,4,ID*%
%TO.N,unconnected-(J1-Pad4)*%
X130760000Y-115600000D03*
%TO.P,J1,5,GND*%
%TO.N,GNDREF*%
X130760000Y-116250000D03*
D18*
%TO.P,J1,6,Shield*%
%TO.N,unconnected-(J1-Pad6)*%
X128060000Y-118450000D03*
X128060000Y-111450000D03*
D20*
X128060000Y-112050000D03*
X128060000Y-117850000D03*
D21*
X130760000Y-112450000D03*
D19*
X128060000Y-115950000D03*
D21*
X130760000Y-117450000D03*
D19*
X128060000Y-113950000D03*
%TD*%
D27*
%TO.P,U1,1,GND*%
%TO.N,GNDREF*%
X138175000Y-98740000D03*
%TO.P,U1,2,3V3*%
%TO.N,+3.3V*%
X138175000Y-100010000D03*
%TO.P,U1,3,EN*%
%TO.N,/EN*%
X138175000Y-101280000D03*
%TO.P,U1,4,GPIO4/TOUCH4/ADC1_CH3*%
%TO.N,unconnected-(U1-Pad4)*%
X138175000Y-102550000D03*
%TO.P,U1,5,GPIO5/TOUCH5/ADC1_CH4*%
%TO.N,unconnected-(U1-Pad5)*%
X138175000Y-103820000D03*
%TO.P,U1,6,GPIO6/TOUCH6/ADC1_CH5*%
%TO.N,unconnected-(U1-Pad6)*%
X138175000Y-105090000D03*
%TO.P,U1,7,GPIO7/TOUCH7/ADC1_CH6*%
%TO.N,unconnected-(U1-Pad7)*%
X138175000Y-106360000D03*
%TO.P,U1,8,GPIO15/U0RTS/ADC2_CH4/XTAL_32K_P*%
%TO.N,unconnected-(U1-Pad8)*%
X138175000Y-107630000D03*
%TO.P,U1,9,GPIO16/U0CTS/ADC2_CH5/XTAL_32K_NH5*%
%TO.N,unconnected-(U1-Pad9)*%
X138175000Y-108900000D03*
%TO.P,U1,10,GPIO17/U1TXD/ADC2_CH6*%
%TO.N,unconnected-(U1-Pad10)*%
X138175000Y-110170000D03*
%TO.P,U1,11,GPIO18/U1RXD/ADC2_CH7/CLK_OUT3*%
%TO.N,unconnected-(U1-Pad11)*%
X138175000Y-111440000D03*
%TO.P,U1,12,GPIO8/TOUCH8/ADC1_CH7/SUBSPICS1*%
%TO.N,/S2*%
X138175000Y-112710000D03*
%TO.P,U1,13,GPIO19/U1RTS/ADC2_CH8/CLK_OUT2/USB_D-*%
%TO.N,/D-*%
X138175000Y-113980000D03*
%TO.P,U1,14,GPIO20/U1CTS/ADC2_CH9/CLK_OUT1/USB_D+*%
%TO.N,/D+*%
X138175000Y-115250000D03*
D28*
%TO.P,U1,15,GPIO3/TOUCH3/ADC1_CH2*%
%TO.N,unconnected-(U1-Pad15)*%
X139940000Y-116500000D03*
%TO.P,U1,16,GPIO46*%
%TO.N,unconnected-(U1-Pad16)*%
X141210000Y-116500000D03*
%TO.P,U1,17,GPIO9/TOUCH9/ADC1_CH8/FSPIHD/SUBSPIHD*%
%TO.N,/S1*%
X142480000Y-116500000D03*
%TO.P,U1,18,GPIO10/TOUCH10/ADC1_CH9/FSPICS0/FSPIIO4/SUBSPICS0*%
%TO.N,/S0*%
X143750000Y-116500000D03*
%TO.P,U1,19,GPIO11/TOUCH11/ADC2_CH0/FSPID/FSPIIO5/SUBSPID*%
%TO.N,/CS_ADC*%
X145020000Y-116500000D03*
%TO.P,U1,20,GPIO12/TOUCH12/ADC2_CH1/FSPICLK/FSPIIO6/SUBSPICLK*%
%TO.N,/SPICLK*%
X146290000Y-116500000D03*
%TO.P,U1,21,GPIO13/TOUCH13/ADC2_CH2/FSPIQ/FSPIIO7/SUBSPIQ*%
%TO.N,/MISO*%
X147560000Y-116500000D03*
%TO.P,U1,22,GPIO14/TOUCH14/ADC2_CH3/FSPIWP/FSPIDQS/SUBSPIWP*%
%TO.N,/MOSI*%
X148830000Y-116500000D03*
%TO.P,U1,23,GPIO21*%
%TO.N,unconnected-(U1-Pad23)*%
X150100000Y-116500000D03*
%TO.P,U1,24,GPIO47/SPICLK_P/SUBSPICLK_P_DIFF*%
%TO.N,unconnected-(U1-Pad24)*%
X151370000Y-116500000D03*
%TO.P,U1,25,GPIO48/SPICLK_N/SUBSPICLK_N_DIFF*%
%TO.N,unconnected-(U1-Pad25)*%
X152640000Y-116500000D03*
%TO.P,U1,26,GPIO45*%
%TO.N,unconnected-(U1-Pad26)*%
X153910000Y-116500000D03*
D27*
%TO.P,U1,27,GPIO0/BOOT*%
%TO.N,/BOOT*%
X155675000Y-115250000D03*
%TO.P,U1,28,SPIIO6/GPIO35/FSPID/SUBSPID*%
%TO.N,unconnected-(U1-Pad28)*%
X155675000Y-113980000D03*
%TO.P,U1,29,SPIIO7/GPIO36/FSPICLK/SUBSPICLK*%
%TO.N,unconnected-(U1-Pad29)*%
X155675000Y-112710000D03*
%TO.P,U1,30,SPIDQS/GPIO37/FSPIQ/SUBSPIQ*%
%TO.N,unconnected-(U1-Pad30)*%
X155675000Y-111440000D03*
%TO.P,U1,31,GPIO38/FSPIWP/SUBSPIWP*%
%TO.N,unconnected-(U1-Pad31)*%
X155675000Y-110170000D03*
%TO.P,U1,32,MTCK/GPIO39/CLK_OUT3/SUBSPICS1*%
%TO.N,unconnected-(U1-Pad32)*%
X155675000Y-108900000D03*
%TO.P,U1,33,MTDO/GPIO40/CLK_OUT2*%
%TO.N,unconnected-(U1-Pad33)*%
X155675000Y-107630000D03*
%TO.P,U1,34,MTDI/GPIO41/CLK_OUT1*%
%TO.N,unconnected-(U1-Pad34)*%
X155675000Y-106360000D03*
%TO.P,U1,35,MTMS/GPIO42*%
%TO.N,unconnected-(U1-Pad35)*%
X155675000Y-105090000D03*
%TO.P,U1,36,U0RXD/GPIO44/CLK_OUT2*%
%TO.N,/TX0*%
X155675000Y-103820000D03*
%TO.P,U1,37,U0TXD/GPIO43/CLK_OUT1*%
%TO.N,/RX0*%
X155675000Y-102550000D03*
%TO.P,U1,38,GPIO2/TOUCH2/ADC1_CH1*%
%TO.N,unconnected-(U1-Pad38)*%
X155675000Y-101280000D03*
%TO.P,U1,39,GPIO1/TOUCH1/ADC1_CH0*%
%TO.N,unconnected-(U1-Pad39)*%
X155675000Y-100010000D03*
%TO.P,U1,40,GND*%
%TO.N,GNDREF*%
X155675000Y-98740000D03*
D29*
%TO.P,U1,41,GND*%
X145425000Y-105060000D03*
X144025000Y-106460000D03*
X145425000Y-107860000D03*
X146825000Y-105060000D03*
X144025000Y-107860000D03*
X145425000Y-106460000D03*
X146825000Y-106460000D03*
X146825000Y-107860000D03*
X144025000Y-105060000D03*
%TD*%
D30*
%TO.P,U5,1,NC*%
%TO.N,unconnected-(U5-Pad1)*%
X144424800Y-135713400D03*
%TO.P,U5,2,CAP+*%
%TO.N,Net-(C12-Pad1)*%
X144424800Y-136983400D03*
%TO.P,U5,3,GND*%
%TO.N,GNDREF*%
X144424800Y-138253400D03*
%TO.P,U5,4,CAP-*%
%TO.N,Net-(C12-Pad2)*%
X144424800Y-139523400D03*
%TO.P,U5,5,VOUT*%
%TO.N,-3V3*%
X149774800Y-139523400D03*
%TO.P,U5,6,LV*%
%TO.N,GNDREF*%
X149774800Y-138253400D03*
%TO.P,U5,7,OBS*%
%TO.N,unconnected-(U5-Pad7)*%
X149774800Y-136983400D03*
%TO.P,U5,8,V+*%
%TO.N,+3.3V*%
X149774800Y-135713400D03*
%TD*%
D10*
%TO.P,C11,1*%
%TO.N,+5V*%
X137800000Y-122650000D03*
%TO.P,C11,2*%
%TO.N,GNDREF*%
X139700000Y-122650000D03*
%TD*%
%TO.P,C7,1*%
%TO.N,+3.3V*%
X152738000Y-126041000D03*
%TO.P,C7,2*%
%TO.N,GNDREF*%
X154638000Y-126041000D03*
%TD*%
D31*
%TO.P,U4,1,GND*%
%TO.N,GNDREF*%
X159425000Y-124175000D03*
D32*
%TO.P,U4,2,VO*%
%TO.N,+3.3V*%
X165725000Y-126475000D03*
D31*
X159425000Y-126475000D03*
%TO.P,U4,3,VI*%
%TO.N,+5V*%
X159425000Y-128775000D03*
%TD*%
D10*
%TO.P,C8,1*%
%TO.N,+3.3V*%
X152738000Y-131248000D03*
%TO.P,C8,2*%
%TO.N,GNDREF*%
X154638000Y-131248000D03*
%TD*%
D33*
%TO.P,J3,1,Pin_1*%
%TO.N,Net-(J3-Pad1)*%
X168387000Y-151663000D03*
D34*
%TO.P,J3,2,Pin_2*%
%TO.N,Net-(J3-Pad2)*%
X165847000Y-151663000D03*
%TO.P,J3,3,Pin_3*%
%TO.N,Net-(J3-Pad3)*%
X163307000Y-151663000D03*
%TO.P,J3,4,Pin_4*%
%TO.N,Net-(J3-Pad4)*%
X160767000Y-151663000D03*
%TO.P,J3,5,Pin_5*%
%TO.N,Net-(J3-Pad5)*%
X158227000Y-151663000D03*
%TO.P,J3,6,Pin_6*%
%TO.N,Net-(J3-Pad6)*%
X155687000Y-151663000D03*
%TO.P,J3,7,Pin_7*%
%TO.N,Net-(J3-Pad7)*%
X153147000Y-151663000D03*
%TO.P,J3,8,Pin_8*%
%TO.N,Net-(J3-Pad8)*%
X150607000Y-151663000D03*
%TD*%
D35*
%TO.P,U3,1,SCLK*%
%TO.N,/SPICLK*%
X144600000Y-126200000D03*
%TO.P,U3,2,~{CS}*%
%TO.N,/CS_ADC*%
X144600000Y-127200000D03*
%TO.P,U3,3,AIN(+)*%
%TO.N,Net-(U2-Pad3)*%
X144600000Y-128200000D03*
%TO.P,U3,4,AIN(-)*%
%TO.N,GNDREF*%
X144600000Y-129200000D03*
%TO.P,U3,5,REFIN(+)*%
%TO.N,/3v3REF+*%
X144600000Y-130200000D03*
%TO.P,U3,6,REFIN(-)*%
%TO.N,GNDREF*%
X149700000Y-130200000D03*
%TO.P,U3,7,GND*%
X149700000Y-129200000D03*
%TO.P,U3,8,VDD*%
%TO.N,+3.3V*%
X149700000Y-128200000D03*
%TO.P,U3,9,~{RDY}*%
%TO.N,/MISO*%
X149700000Y-127200000D03*
%TO.P,U3,10,DIN*%
%TO.N,/MOSI*%
X149700000Y-126200000D03*
%TD*%
D36*
%TO.P,D2,1*%
%TO.N,GNDREF*%
X134550000Y-117600000D03*
%TO.P,D2,2*%
%TO.N,/D+*%
X134550000Y-115300000D03*
%TD*%
D37*
%TO.P,SW2,1,1*%
%TO.N,/BOOT*%
X159775000Y-92950000D03*
X163925000Y-92950000D03*
%TO.P,SW2,2,2*%
%TO.N,GNDREF*%
X163925000Y-95100000D03*
X159775000Y-95100000D03*
%TD*%
D38*
%TO.P,D3,1,K*%
%TO.N,+5V*%
X160195500Y-120584000D03*
%TO.P,D3,2,K*%
%TO.N,unconnected-(D3-Pad2)*%
X160195500Y-118684000D03*
%TO.P,D3,3,A*%
%TO.N,GNDREF*%
X158320500Y-119634000D03*
%TD*%
D33*
%TO.P,J2,1*%
%TO.N,+3.3V*%
X167150000Y-107375000D03*
D34*
%TO.P,J2,2*%
%TO.N,/TX0*%
X167150000Y-104835000D03*
%TO.P,J2,3*%
%TO.N,/RX0*%
X167150000Y-102295000D03*
%TO.P,J2,4*%
%TO.N,GNDREF*%
X167150000Y-99755000D03*
%TD*%
D10*
%TO.P,C12,1*%
%TO.N,Net-(C12-Pad1)*%
X139545800Y-139472600D03*
%TO.P,C12,2*%
%TO.N,Net-(C12-Pad2)*%
X141445800Y-139472600D03*
%TD*%
D37*
%TO.P,SW1,1,1*%
%TO.N,Net-(C6-Pad1)*%
X129425000Y-92950000D03*
X133575000Y-92950000D03*
%TO.P,SW1,2,2*%
%TO.N,GNDREF*%
X129425000Y-95100000D03*
X133575000Y-95100000D03*
%TD*%
D13*
%TO.P,GND1,1,1*%
%TO.N,GNDREF*%
X129540000Y-130048000D03*
%TD*%
%TO.P,TP+3v3,1,1*%
%TO.N,+3.3V*%
X129794000Y-123952000D03*
%TD*%
D39*
%TO.N,+5V*%
X148082000Y-134112000D03*
X149352000Y-143256000D03*
%TO.N,+3.3V*%
X168148000Y-140919200D03*
X151468600Y-134799000D03*
X132334000Y-122936000D03*
X164846000Y-121412000D03*
X164700000Y-106675000D03*
X132334000Y-124968000D03*
X147574000Y-149860000D03*
X151976000Y-124517000D03*
X164846000Y-133858000D03*
X147574000Y-145542000D03*
X132334000Y-123952000D03*
X151595000Y-132645000D03*
X157450000Y-127050000D03*
X166243000Y-133858000D03*
X129286000Y-101600000D03*
X129286000Y-100584000D03*
X157450000Y-126037500D03*
X160274000Y-141986000D03*
X147574000Y-147574000D03*
%TO.N,-3V3*%
X160575000Y-143300000D03*
X153670000Y-142325000D03*
%TO.N,Net-(J3-Pad1)*%
X170434000Y-142748000D03*
X164125000Y-139500000D03*
%TO.N,/S2*%
X164100000Y-144575000D03*
X140208000Y-112776000D03*
%TO.N,/S1*%
X142494000Y-118364000D03*
X164075000Y-143425000D03*
%TO.N,/S0*%
X143764000Y-118364000D03*
X164100000Y-142375000D03*
%TO.N,Net-(U2-Pad3)*%
X155194000Y-137668000D03*
X156900000Y-139325000D03*
%TO.N,GNDREF*%
X142748000Y-107950000D03*
X132588000Y-104140000D03*
X171602400Y-138785600D03*
X162052000Y-132588000D03*
X132334000Y-130810000D03*
X134620000Y-118872000D03*
X148082000Y-105918000D03*
X166098500Y-113600000D03*
X141300000Y-122625000D03*
X157450000Y-123000000D03*
X146050000Y-103886000D03*
X148420000Y-130232000D03*
X169672000Y-121666000D03*
X157450000Y-125025000D03*
X129540000Y-105410000D03*
X147066000Y-109220000D03*
X166073500Y-112500000D03*
X132334000Y-129794000D03*
X157450000Y-124012500D03*
X142240000Y-148844000D03*
X132588000Y-116332000D03*
X155913000Y-126041000D03*
X145796000Y-109220000D03*
X143213000Y-129216000D03*
X142240000Y-147066000D03*
X148420000Y-129343000D03*
X134620000Y-110490000D03*
X142748000Y-105410000D03*
X158975000Y-96500000D03*
X133675000Y-98250000D03*
X160550000Y-144525000D03*
X142756400Y-138202600D03*
X148082000Y-106934000D03*
X144526000Y-109220000D03*
X136398000Y-98806000D03*
X130302000Y-104140000D03*
X132334000Y-128778000D03*
X171551600Y-133858000D03*
X156972000Y-119634000D03*
X142240000Y-145542000D03*
X164850000Y-96550000D03*
X144018000Y-103886000D03*
X148082000Y-104902000D03*
X154059400Y-137999400D03*
X142748000Y-106680000D03*
X158242000Y-97282000D03*
X164850000Y-98950000D03*
X145034000Y-103886000D03*
X155913000Y-131248000D03*
X141200000Y-128225000D03*
%TD*%
D40*
%TO.N,+5V*%
X153670000Y-144018000D02*
X150114000Y-144018000D01*
X161725000Y-126475000D02*
X159425000Y-128775000D01*
X137637500Y-122812500D02*
X137800000Y-122650000D01*
X156210000Y-137922000D02*
X155194000Y-138938000D01*
X137637500Y-127275000D02*
X137637500Y-122812500D01*
X155194000Y-142494000D02*
X153670000Y-144018000D01*
X167132000Y-116332000D02*
X168267000Y-116332000D01*
X135382000Y-129032000D02*
X135382000Y-129540000D01*
X164950000Y-116025000D02*
X166825000Y-116025000D01*
X161725000Y-120469000D02*
X161725000Y-119250000D01*
X163576000Y-112522000D02*
X163576000Y-114651000D01*
X168267000Y-116332000D02*
X168349000Y-116250000D01*
X160195500Y-120584000D02*
X161610000Y-120584000D01*
X166825000Y-116025000D02*
X167132000Y-116332000D01*
X161725000Y-119250000D02*
X164950000Y-116025000D01*
X135382000Y-129540000D02*
X139192000Y-133350000D01*
X158750000Y-132588000D02*
X159425000Y-131913000D01*
X139192000Y-133350000D02*
X139446000Y-133604000D01*
X159425000Y-131913000D02*
X159425000Y-128775000D01*
X139446000Y-133604000D02*
X147574000Y-133604000D01*
X161610000Y-120584000D02*
X161725000Y-120469000D01*
X155194000Y-138938000D02*
X155194000Y-142494000D01*
X161725000Y-120469000D02*
X161725000Y-126475000D01*
X158750000Y-132588000D02*
X156210000Y-135128000D01*
X150114000Y-144018000D02*
X149352000Y-143256000D01*
X137637500Y-127275000D02*
X137139000Y-127275000D01*
X137139000Y-127275000D02*
X135382000Y-129032000D01*
X156210000Y-135128000D02*
X156210000Y-137922000D01*
X163576000Y-114651000D02*
X164950000Y-116025000D01*
X147574000Y-133604000D02*
X148082000Y-134112000D01*
%TO.N,+3.3V*%
X152738000Y-125279000D02*
X151976000Y-124517000D01*
X134366000Y-104497500D02*
X133754500Y-104497500D01*
X131318000Y-104140000D02*
X132588000Y-102870000D01*
X159425000Y-126475000D02*
X157887500Y-126475000D01*
X158629000Y-141986000D02*
X160274000Y-141986000D01*
X147574000Y-149860000D02*
X147568000Y-149860000D01*
X147574000Y-145790000D02*
X145536000Y-147828000D01*
X166309000Y-135636000D02*
X168087000Y-133858000D01*
X130048000Y-124206000D02*
X132080000Y-124206000D01*
X131064000Y-100904000D02*
X132268000Y-100904000D01*
X129286000Y-100584000D02*
X130744000Y-100584000D01*
X166179000Y-135636000D02*
X165729000Y-135636000D01*
X133096000Y-105156000D02*
X132080000Y-105156000D01*
X168148000Y-138872000D02*
X168087000Y-138811000D01*
X168087000Y-137544000D02*
X166179000Y-135636000D01*
X132080000Y-105156000D02*
X131318000Y-104394000D01*
X130744000Y-100584000D02*
X131064000Y-100904000D01*
X149774800Y-135713400D02*
X150554200Y-135713400D01*
X168087000Y-133858000D02*
X166243000Y-133858000D01*
X166116000Y-121412000D02*
X166370000Y-121666000D01*
X168148000Y-140919200D02*
X168148000Y-138872000D01*
X136718000Y-100010000D02*
X138175000Y-100010000D01*
X131572000Y-124206000D02*
X132334000Y-124968000D01*
X150452000Y-128200000D02*
X149700000Y-128200000D01*
X135811500Y-100916500D02*
X136718000Y-100010000D01*
X158025000Y-126475000D02*
X157450000Y-127050000D01*
X165725000Y-126475000D02*
X165725000Y-122311000D01*
X165725000Y-122311000D02*
X166370000Y-121666000D01*
X152738000Y-131248000D02*
X152738000Y-130486000D01*
X129286000Y-101600000D02*
X130368000Y-101600000D01*
X164700000Y-106675000D02*
X165400000Y-107375000D01*
X132588000Y-102870000D02*
X132588000Y-101224000D01*
X150554200Y-135713400D02*
X151468600Y-134799000D01*
X152738000Y-131502000D02*
X151595000Y-132645000D01*
X132588000Y-101224000D02*
X132268000Y-100904000D01*
X165729000Y-135636000D02*
X165729000Y-134741000D01*
X147568000Y-149860000D02*
X145536000Y-147828000D01*
X165729000Y-134741000D02*
X164846000Y-133858000D01*
X133754500Y-104497500D02*
X133096000Y-105156000D01*
X152738000Y-126041000D02*
X150579000Y-128200000D01*
X132268000Y-100904000D02*
X134366000Y-100904000D01*
X130048000Y-124206000D02*
X131572000Y-124206000D01*
X165725000Y-126475000D02*
X165975000Y-126475000D01*
X164846000Y-121412000D02*
X166116000Y-121412000D01*
X152738000Y-130486000D02*
X150452000Y-128200000D01*
X147574000Y-147574000D02*
X145790000Y-147574000D01*
X133858000Y-100916500D02*
X135811500Y-100916500D01*
X131318000Y-104394000D02*
X131318000Y-104140000D01*
X150579000Y-128200000D02*
X149700000Y-128200000D01*
X152738000Y-131248000D02*
X152738000Y-131502000D01*
X152738000Y-126041000D02*
X152738000Y-125279000D01*
X130048000Y-124206000D02*
X131318000Y-122936000D01*
X165725000Y-126475000D02*
X166025000Y-126475000D01*
X168087000Y-138811000D02*
X168087000Y-137544000D01*
X165400000Y-107375000D02*
X167150000Y-107375000D01*
X145790000Y-147574000D02*
X145536000Y-147828000D01*
X157887500Y-126475000D02*
X157450000Y-126037500D01*
X147574000Y-145542000D02*
X147574000Y-145790000D01*
X159425000Y-126475000D02*
X158025000Y-126475000D01*
X165729000Y-135636000D02*
X166309000Y-135636000D01*
X131318000Y-122936000D02*
X132334000Y-122936000D01*
X132080000Y-124206000D02*
X132334000Y-123952000D01*
X130368000Y-101600000D02*
X131064000Y-100904000D01*
%TO.N,/EN*%
X139446000Y-97790000D02*
X140208000Y-98552000D01*
X140208000Y-98552000D02*
X140208000Y-100076000D01*
X135890000Y-97790000D02*
X139446000Y-97790000D01*
X140208000Y-100076000D02*
X139004000Y-101280000D01*
X137480000Y-101280000D02*
X138175000Y-101280000D01*
X132550500Y-108138000D02*
X134366000Y-106322500D01*
X135636000Y-105052500D02*
X135636000Y-103124000D01*
X139004000Y-101280000D02*
X138175000Y-101280000D01*
X134366000Y-106322500D02*
X135636000Y-105052500D01*
X131064000Y-108138000D02*
X132550500Y-108138000D01*
X128016000Y-99615000D02*
X134065000Y-99615000D01*
X134065000Y-99615000D02*
X135890000Y-97790000D01*
X135636000Y-103124000D02*
X137480000Y-101280000D01*
%TO.N,Net-(C12-Pad1)*%
X139545800Y-139472600D02*
X142035000Y-136983400D01*
X142035000Y-136983400D02*
X144424800Y-136983400D01*
%TO.N,Net-(C12-Pad2)*%
X144374000Y-139472600D02*
X144424800Y-139523400D01*
X141445800Y-139472600D02*
X144374000Y-139472600D01*
%TO.N,-3V3*%
X133096000Y-143764000D02*
X147736000Y-143764000D01*
X151773400Y-139523400D02*
X151875000Y-139625000D01*
X133096000Y-143764000D02*
X129540000Y-140208000D01*
X160575000Y-143300000D02*
X158673000Y-143300000D01*
X158673000Y-143300000D02*
X158629000Y-143256000D01*
X151875000Y-139625000D02*
X151875000Y-140530000D01*
X147736000Y-143764000D02*
X151875000Y-139625000D01*
X151875000Y-140530000D02*
X153670000Y-142325000D01*
X151875000Y-139625000D02*
X152100000Y-139625000D01*
X129540000Y-140208000D02*
X129540000Y-136144000D01*
X149774800Y-139523400D02*
X151773400Y-139523400D01*
%TO.N,Net-(C6-Pad1)*%
X128387500Y-98125000D02*
X130325000Y-98125000D01*
X128387500Y-93812500D02*
X129425000Y-92775000D01*
X128387500Y-98125000D02*
X128387500Y-93812500D01*
X129425000Y-92775000D02*
X133575000Y-92775000D01*
%TO.N,Net-(J3-Pad1)*%
X165675000Y-139500000D02*
X165729000Y-139446000D01*
X171155600Y-143469600D02*
X170434000Y-142748000D01*
X168387000Y-151663000D02*
X169087000Y-151663000D01*
X171155600Y-149594400D02*
X171155600Y-143469600D01*
X164125000Y-139500000D02*
X165675000Y-139500000D01*
X169087000Y-151663000D02*
X171155600Y-149594400D01*
%TO.N,/S2*%
X138241000Y-112776000D02*
X138175000Y-112710000D01*
X164100000Y-144575000D02*
X165680000Y-144575000D01*
X140208000Y-112776000D02*
X138241000Y-112776000D01*
X165680000Y-144575000D02*
X165729000Y-144526000D01*
%TO.N,/S1*%
X165560000Y-143425000D02*
X165729000Y-143256000D01*
X142494000Y-116514000D02*
X142480000Y-116500000D01*
X164075000Y-143425000D02*
X165560000Y-143425000D01*
X142494000Y-118364000D02*
X142494000Y-116514000D01*
%TO.N,/S0*%
X164100000Y-142375000D02*
X165340000Y-142375000D01*
X165340000Y-142375000D02*
X165729000Y-141986000D01*
X143764000Y-116514000D02*
X143750000Y-116500000D01*
X143764000Y-118364000D02*
X143764000Y-116514000D01*
%TO.N,/CS_ADC*%
X143256000Y-126746000D02*
X143256000Y-120396000D01*
X144600000Y-127200000D02*
X143710000Y-127200000D01*
X145020000Y-118604000D02*
X145020000Y-116500000D01*
X145034000Y-118618000D02*
X145020000Y-118604000D01*
X143710000Y-127200000D02*
X143256000Y-126746000D01*
X143256000Y-120396000D02*
X145034000Y-118618000D01*
%TO.N,/SPICLK*%
X144600000Y-120576000D02*
X146290000Y-118886000D01*
X146290000Y-118886000D02*
X146290000Y-116500000D01*
X144600000Y-126200000D02*
X144600000Y-120576000D01*
%TO.N,/MISO*%
X149700000Y-127200000D02*
X148536000Y-127200000D01*
X147560000Y-126224000D02*
X147560000Y-116500000D01*
X148536000Y-127200000D02*
X147560000Y-126224000D01*
%TO.N,/MOSI*%
X149700000Y-119728000D02*
X148830000Y-118858000D01*
X149700000Y-126200000D02*
X149700000Y-119728000D01*
X148830000Y-118858000D02*
X148830000Y-116500000D01*
%TO.N,Net-(J3-Pad2)*%
X168615600Y-149478600D02*
X168873000Y-149221200D01*
X168873000Y-142685600D02*
X166827200Y-140639800D01*
X165847000Y-151663000D02*
X168031400Y-149478600D01*
X166827200Y-138824200D02*
X166179000Y-138176000D01*
X168873000Y-149221200D02*
X168873000Y-142685600D01*
X166827200Y-140639800D02*
X166827200Y-138824200D01*
X166179000Y-138176000D02*
X165729000Y-138176000D01*
X168031400Y-149478600D02*
X168615600Y-149478600D01*
%TO.N,Net-(J3-Pad3)*%
X165279000Y-136906000D02*
X162451200Y-139733800D01*
X162382200Y-150738200D02*
X163307000Y-151663000D01*
X162382200Y-139776200D02*
X162382200Y-150738200D01*
X165729000Y-136906000D02*
X165279000Y-136906000D01*
%TO.N,Net-(U2-Pad3)*%
X145575000Y-128200000D02*
X147300000Y-129925000D01*
X156900000Y-139325000D02*
X158049000Y-138176000D01*
X154499305Y-136804400D02*
X154499305Y-136973305D01*
X151168295Y-134074000D02*
X151768905Y-134074000D01*
X147300000Y-129925000D02*
X147300000Y-130500000D01*
X147300000Y-130500000D02*
X151021148Y-134221148D01*
X151021148Y-134221148D02*
X151168295Y-134074000D01*
X154499305Y-136973305D02*
X155194000Y-137668000D01*
X158049000Y-138176000D02*
X158629000Y-138176000D01*
X151768905Y-134074000D02*
X154499305Y-136804400D01*
X144600000Y-128200000D02*
X145575000Y-128200000D01*
%TO.N,Net-(J3-Pad4)*%
X162012000Y-152908000D02*
X160767000Y-151663000D01*
X164592000Y-150876000D02*
X164592000Y-152654000D01*
X164338000Y-152908000D02*
X162012000Y-152908000D01*
X163150000Y-142183400D02*
X164617400Y-140716000D01*
X164592000Y-152654000D02*
X164338000Y-152908000D01*
X164617400Y-140716000D02*
X165729000Y-140716000D01*
X163150000Y-149093000D02*
X163150000Y-142183400D01*
X163150000Y-149093000D02*
X164338000Y-150281000D01*
X164338000Y-150281000D02*
X164338000Y-150622000D01*
X164338000Y-150622000D02*
X164592000Y-150876000D01*
%TO.N,Net-(J3-Pad5)*%
X162001200Y-137464800D02*
X162001200Y-139520804D01*
X160172400Y-135636000D02*
X162001200Y-137464800D01*
X158629000Y-135636000D02*
X160172400Y-135636000D01*
X162001200Y-139520804D02*
X161798000Y-139724004D01*
X159004000Y-150876000D02*
X158227000Y-151653000D01*
X159598200Y-150876000D02*
X159004000Y-150876000D01*
X161798000Y-148676200D02*
X159598200Y-150876000D01*
X158227000Y-151653000D02*
X158227000Y-151663000D01*
X161798000Y-139724004D02*
X161798000Y-148676200D01*
%TO.N,Net-(J3-Pad6)*%
X157022800Y-141892200D02*
X158199000Y-140716000D01*
X155687000Y-151663000D02*
X158455600Y-148894400D01*
X158455600Y-148844000D02*
X158455600Y-147868400D01*
X158455600Y-146771600D02*
X157022800Y-145338800D01*
X158199000Y-140716000D02*
X158629000Y-140716000D01*
X158455600Y-148894400D02*
X158455600Y-147868400D01*
X158455600Y-147868400D02*
X158455600Y-146771600D01*
X157022800Y-145338800D02*
X157022800Y-141892200D01*
%TO.N,Net-(J3-Pad7)*%
X155915600Y-139169400D02*
X155915600Y-148884400D01*
X158629000Y-136906000D02*
X158179000Y-136906000D01*
X155498400Y-149311600D02*
X155498400Y-149301600D01*
X158179000Y-136906000D02*
X155915600Y-139169400D01*
X155498400Y-149311600D02*
X153147000Y-151663000D01*
X155498400Y-149301600D02*
X155915600Y-148884400D01*
%TO.N,GNDREF*%
X156784000Y-98740000D02*
X158242000Y-97282000D01*
X138109000Y-98806000D02*
X138175000Y-98740000D01*
X147156000Y-107860000D02*
X147320000Y-107696000D01*
X159425000Y-124175000D02*
X158300000Y-124175000D01*
X158625000Y-124175000D02*
X157450000Y-123000000D01*
X141118000Y-147066000D02*
X140356000Y-147828000D01*
X167973500Y-113650000D02*
X167248500Y-113650000D01*
X144424800Y-138253400D02*
X144509000Y-138253400D01*
X149700000Y-130200000D02*
X148452000Y-130200000D01*
X130302000Y-103566000D02*
X131064000Y-102804000D01*
X134550000Y-110560000D02*
X134620000Y-110490000D01*
X154638000Y-126041000D02*
X155913000Y-126041000D01*
X147924000Y-105060000D02*
X148082000Y-104902000D01*
X133550000Y-98125000D02*
X133675000Y-98250000D01*
X129540000Y-105410000D02*
X130236000Y-105410000D01*
X143098000Y-105060000D02*
X142748000Y-105410000D01*
X144584000Y-129216000D02*
X144600000Y-129200000D01*
X148452000Y-130200000D02*
X148420000Y-130232000D01*
X158975000Y-96500000D02*
X158975000Y-95900000D01*
X132506000Y-116250000D02*
X132588000Y-116332000D01*
X152637000Y-138253400D02*
X149774800Y-138253400D01*
X139512500Y-128225000D02*
X141200000Y-128225000D01*
X142240000Y-147066000D02*
X141118000Y-147066000D01*
X142240000Y-148844000D02*
X141372000Y-148844000D01*
X145425000Y-107860000D02*
X145425000Y-108849000D01*
X133030000Y-104140000D02*
X134366000Y-102804000D01*
X167248500Y-113650000D02*
X167223500Y-113650000D01*
X142968000Y-106460000D02*
X142748000Y-106680000D01*
X134620000Y-117670000D02*
X134550000Y-117600000D01*
X144025000Y-105060000D02*
X143098000Y-105060000D01*
X146825000Y-105060000D02*
X146825000Y-104661000D01*
X129540000Y-130048000D02*
X130810000Y-128778000D01*
X153775000Y-139625000D02*
X153775000Y-139391400D01*
X145425000Y-106460000D02*
X144025000Y-106460000D01*
X168245000Y-121666000D02*
X169672000Y-121666000D01*
X147540000Y-106460000D02*
X148082000Y-105918000D01*
X147320000Y-107696000D02*
X148082000Y-106934000D01*
X169987000Y-133858000D02*
X171551600Y-133858000D01*
X134620000Y-118872000D02*
X134620000Y-117670000D01*
X130236000Y-105410000D02*
X131064000Y-106238000D01*
X133575000Y-96775000D02*
X133575000Y-94925000D01*
X149700000Y-129200000D02*
X148563000Y-129200000D01*
X144025000Y-103893000D02*
X144018000Y-103886000D01*
X166798500Y-114300000D02*
X166098500Y-113600000D01*
X145425000Y-104277000D02*
X145034000Y-103886000D01*
X145425000Y-105060000D02*
X145425000Y-104277000D01*
X144025000Y-107860000D02*
X142838000Y-107860000D01*
X144025000Y-106460000D02*
X142968000Y-106460000D01*
X167973500Y-114300000D02*
X166798500Y-114300000D01*
X167248500Y-113650000D02*
X166148500Y-113650000D01*
X145425000Y-108849000D02*
X145796000Y-109220000D01*
X157612500Y-124175000D02*
X157450000Y-124012500D01*
X130810000Y-128778000D02*
X132334000Y-128778000D01*
X144509000Y-138202600D02*
X142756400Y-138202600D01*
X147320000Y-108966000D02*
X147066000Y-109220000D01*
X153775000Y-139625000D02*
X153775000Y-138283800D01*
X129540000Y-130048000D02*
X132080000Y-130048000D01*
X132225000Y-98125000D02*
X133550000Y-98125000D01*
X146825000Y-104661000D02*
X146050000Y-103886000D01*
X132225000Y-97725000D02*
X129425000Y-94925000D01*
X130302000Y-104140000D02*
X130302000Y-103566000D01*
X132080000Y-130048000D02*
X132334000Y-129794000D01*
X141300000Y-122625000D02*
X139725000Y-122625000D01*
X159425000Y-124175000D02*
X157612500Y-124175000D01*
X153775000Y-138283800D02*
X154059400Y-137999400D01*
X144025000Y-107860000D02*
X144025000Y-108719000D01*
X132588000Y-104140000D02*
X133030000Y-104140000D01*
X142240000Y-145542000D02*
X140356000Y-147426000D01*
X169987000Y-138811000D02*
X171577000Y-138811000D01*
X166148500Y-113650000D02*
X166098500Y-113600000D01*
X131572000Y-130048000D02*
X132334000Y-130810000D01*
X134550000Y-111650000D02*
X134550000Y-110560000D01*
X139725000Y-122625000D02*
X139700000Y-122650000D01*
X164850000Y-98950000D02*
X165655000Y-99755000D01*
X142838000Y-107860000D02*
X142748000Y-107950000D01*
X158975000Y-95900000D02*
X159775000Y-95100000D01*
X130760000Y-116250000D02*
X132506000Y-116250000D01*
X160550000Y-144525000D02*
X158630000Y-144525000D01*
X136398000Y-98806000D02*
X138109000Y-98806000D01*
X141372000Y-148844000D02*
X140356000Y-147828000D01*
X158320500Y-119634000D02*
X156972000Y-119634000D01*
X143213000Y-129216000D02*
X144584000Y-129216000D01*
X165655000Y-99755000D02*
X167150000Y-99755000D01*
X164850000Y-96550000D02*
X164850000Y-96025000D01*
X171577000Y-138811000D02*
X171602400Y-138785600D01*
X159425000Y-124175000D02*
X158625000Y-124175000D01*
X144025000Y-108719000D02*
X144526000Y-109220000D01*
X154638000Y-131248000D02*
X155913000Y-131248000D01*
X155675000Y-98740000D02*
X156784000Y-98740000D01*
X148563000Y-129200000D02*
X148420000Y-129343000D01*
X144534400Y-138228000D02*
X144509000Y-138202600D01*
X167223500Y-113650000D02*
X166073500Y-112500000D01*
X144025000Y-105060000D02*
X144025000Y-103893000D01*
X140356000Y-147426000D02*
X140356000Y-147828000D01*
X146825000Y-105060000D02*
X147924000Y-105060000D01*
X144509000Y-138253400D02*
X144534400Y-138228000D01*
X158630000Y-144525000D02*
X158629000Y-144526000D01*
X158300000Y-124175000D02*
X157450000Y-125025000D01*
X162052000Y-132588000D02*
X160650000Y-132588000D01*
X146825000Y-106460000D02*
X147540000Y-106460000D01*
X146825000Y-107860000D02*
X147156000Y-107860000D01*
X129540000Y-130048000D02*
X131572000Y-130048000D01*
X147320000Y-107696000D02*
X147320000Y-108966000D01*
X153775000Y-139391400D02*
X152637000Y-138253400D01*
X164850000Y-96025000D02*
X163925000Y-95100000D01*
X132225000Y-98125000D02*
X132225000Y-97725000D01*
X132225000Y-98125000D02*
X133575000Y-96775000D01*
D41*
%TO.N,/D+*%
X134525000Y-114850000D02*
X137775000Y-114850000D01*
X137775000Y-114850000D02*
X138175000Y-115250000D01*
X131872501Y-114850000D02*
X134525000Y-114850000D01*
X134550000Y-115300000D02*
X134550000Y-114875000D01*
X134550000Y-114875000D02*
X134525000Y-114850000D01*
X130760000Y-114950000D02*
X131772501Y-114950000D01*
X131772501Y-114950000D02*
X131872501Y-114850000D01*
%TO.N,/D-*%
X130760000Y-114300000D02*
X131772501Y-114300000D01*
X134550000Y-113950000D02*
X134550000Y-114325000D01*
X131872501Y-114400000D02*
X134475000Y-114400000D01*
X131772501Y-114300000D02*
X131872501Y-114400000D01*
X134550000Y-114325000D02*
X134475000Y-114400000D01*
X137755000Y-114400000D02*
X138175000Y-113980000D01*
X134475000Y-114400000D02*
X137755000Y-114400000D01*
D40*
%TO.N,/BOOT*%
X161102000Y-115250000D02*
X161544000Y-114808000D01*
X161544000Y-110490000D02*
X162306000Y-109728000D01*
X169672000Y-97790000D02*
X164832000Y-92950000D01*
X155675000Y-115250000D02*
X161102000Y-115250000D01*
X162306000Y-109728000D02*
X168910000Y-109728000D01*
X163925000Y-92950000D02*
X159775000Y-92950000D01*
X164832000Y-92950000D02*
X163925000Y-92950000D01*
X161544000Y-114808000D02*
X161544000Y-110490000D01*
X168910000Y-109728000D02*
X169672000Y-108966000D01*
X169672000Y-108966000D02*
X169672000Y-97790000D01*
%TO.N,/TX0*%
X167150000Y-104835000D02*
X157585000Y-104835000D01*
X157585000Y-104835000D02*
X156425000Y-103675000D01*
%TO.N,/RX0*%
X167150000Y-102295000D02*
X155930000Y-102295000D01*
X155930000Y-102295000D02*
X155675000Y-102550000D01*
%TO.N,Net-(J3-Pad8)*%
X158242000Y-139446000D02*
X156413200Y-141274800D01*
X158629000Y-139446000D02*
X158242000Y-139446000D01*
X151852000Y-152908000D02*
X150607000Y-151663000D01*
X153924000Y-152908000D02*
X151852000Y-152908000D01*
X154322000Y-151240000D02*
X154322000Y-152510000D01*
X158179000Y-139446000D02*
X158629000Y-139446000D01*
X157090600Y-146727400D02*
X157090600Y-148471400D01*
X156413200Y-141274800D02*
X156413200Y-146050000D01*
X154322000Y-152510000D02*
X153924000Y-152908000D01*
X156413200Y-146050000D02*
X157090600Y-146727400D01*
X157090600Y-148471400D02*
X154322000Y-151240000D01*
%TO.N,/3v3REF+*%
X137637500Y-129175000D02*
X138925000Y-129175000D01*
X139950000Y-130200000D02*
X144600000Y-130200000D01*
X138925000Y-129175000D02*
X139950000Y-130200000D01*
%TD*%
M02*
