%TF.GenerationSoftware,KiCad,Pcbnew,6.0.9+dfsg-1~bpo11+1*%
%TF.CreationDate,2022-12-22T20:36:38-06:00*%
%TF.ProjectId,CAE32_PCB,43414533-325f-4504-9342-2e6b69636164,rev?*%
%TF.SameCoordinates,Original*%
%TF.FileFunction,Copper,L4,Bot*%
%TF.FilePolarity,Positive*%
%FSLAX46Y46*%
G04 Gerber Fmt 4.6, Leading zero omitted, Abs format (unit mm)*
G04 Created by KiCad (PCBNEW 6.0.9+dfsg-1~bpo11+1) date 2022-12-22 20:36:38*
%MOMM*%
%LPD*%
G01*
G04 APERTURE LIST*
%TA.AperFunction,ComponentPad*%
%ADD10O,1.550000X0.890000*%
%TD*%
%TA.AperFunction,ComponentPad*%
%ADD11O,0.950000X1.250000*%
%TD*%
%TA.AperFunction,ComponentPad*%
%ADD12R,2.020000X5.020000*%
%TD*%
%TA.AperFunction,ComponentPad*%
%ADD13O,2.020000X5.020000*%
%TD*%
%TA.AperFunction,ComponentPad*%
%ADD14R,1.700000X1.700000*%
%TD*%
%TA.AperFunction,ComponentPad*%
%ADD15O,1.700000X1.700000*%
%TD*%
%TA.AperFunction,ViaPad*%
%ADD16C,0.800000*%
%TD*%
%TA.AperFunction,Conductor*%
%ADD17C,0.250000*%
%TD*%
G04 APERTURE END LIST*
D10*
%TO.P,J4,6,Shield*%
%TO.N,unconnected-(J4-Pad6)*%
X171049000Y-111450000D03*
D11*
X168349000Y-117450000D03*
X168349000Y-112450000D03*
D10*
X171049000Y-118450000D03*
%TD*%
D12*
%TO.P,J5,1*%
%TO.N,+3.3V*%
X145536000Y-147828000D03*
D13*
%TO.P,J5,2*%
%TO.N,GNDREF*%
X140356000Y-147828000D03*
%TD*%
D10*
%TO.P,J1,6,Shield*%
%TO.N,unconnected-(J1-Pad6)*%
X128060000Y-118450000D03*
X128060000Y-111450000D03*
D11*
X130760000Y-112450000D03*
X130760000Y-117450000D03*
%TD*%
D14*
%TO.P,J3,1,Pin_1*%
%TO.N,Net-(J3-Pad1)*%
X168387000Y-151663000D03*
D15*
%TO.P,J3,2,Pin_2*%
%TO.N,Net-(J3-Pad2)*%
X165847000Y-151663000D03*
%TO.P,J3,3,Pin_3*%
%TO.N,Net-(J3-Pad3)*%
X163307000Y-151663000D03*
%TO.P,J3,4,Pin_4*%
%TO.N,Net-(J3-Pad4)*%
X160767000Y-151663000D03*
%TO.P,J3,5,Pin_5*%
%TO.N,Net-(J3-Pad5)*%
X158227000Y-151663000D03*
%TO.P,J3,6,Pin_6*%
%TO.N,Net-(J3-Pad6)*%
X155687000Y-151663000D03*
%TO.P,J3,7,Pin_7*%
%TO.N,Net-(J3-Pad7)*%
X153147000Y-151663000D03*
%TO.P,J3,8,Pin_8*%
%TO.N,Net-(J3-Pad8)*%
X150607000Y-151663000D03*
%TD*%
D14*
%TO.P,J2,1*%
%TO.N,+3.3V*%
X167150000Y-107375000D03*
D15*
%TO.P,J2,2*%
%TO.N,/TX0*%
X167150000Y-104835000D03*
%TO.P,J2,3*%
%TO.N,/RX0*%
X167150000Y-102295000D03*
%TO.P,J2,4*%
%TO.N,GNDREF*%
X167150000Y-99755000D03*
%TD*%
D16*
%TO.N,+5V*%
X148082000Y-134112000D03*
X149352000Y-143256000D03*
%TO.N,+3.3V*%
X168148000Y-140919200D03*
X151468600Y-134799000D03*
X132334000Y-122936000D03*
X164846000Y-121412000D03*
X164700000Y-106675000D03*
X132334000Y-124968000D03*
X147574000Y-149860000D03*
X151976000Y-124517000D03*
X164846000Y-133858000D03*
X147574000Y-145542000D03*
X132334000Y-123952000D03*
X151595000Y-132645000D03*
X157450000Y-127050000D03*
X166243000Y-133858000D03*
X129286000Y-101600000D03*
X129286000Y-100584000D03*
X157450000Y-126037500D03*
X160274000Y-141986000D03*
X147574000Y-147574000D03*
%TO.N,-3V3*%
X160575000Y-143300000D03*
X153670000Y-142325000D03*
%TO.N,Net-(J3-Pad1)*%
X170434000Y-142748000D03*
X164125000Y-139500000D03*
%TO.N,/S2*%
X164100000Y-144575000D03*
X140208000Y-112776000D03*
%TO.N,/S1*%
X142494000Y-118364000D03*
X164075000Y-143425000D03*
%TO.N,/S0*%
X143764000Y-118364000D03*
X164100000Y-142375000D03*
%TO.N,Net-(U2-Pad3)*%
X155194000Y-137668000D03*
X156900000Y-139325000D03*
%TO.N,GNDREF*%
X142748000Y-107950000D03*
X132588000Y-104140000D03*
X171602400Y-138785600D03*
X162052000Y-132588000D03*
X132334000Y-130810000D03*
X134620000Y-118872000D03*
X148082000Y-105918000D03*
X166098500Y-113600000D03*
X141300000Y-122625000D03*
X157450000Y-123000000D03*
X146050000Y-103886000D03*
X148420000Y-130232000D03*
X169672000Y-121666000D03*
X157450000Y-125025000D03*
X129540000Y-105410000D03*
X147066000Y-109220000D03*
X166073500Y-112500000D03*
X132334000Y-129794000D03*
X157450000Y-124012500D03*
X142240000Y-148844000D03*
X132588000Y-116332000D03*
X155913000Y-126041000D03*
X145796000Y-109220000D03*
X143213000Y-129216000D03*
X142240000Y-147066000D03*
X148420000Y-129343000D03*
X134620000Y-110490000D03*
X142748000Y-105410000D03*
X158975000Y-96500000D03*
X133675000Y-98250000D03*
X160550000Y-144525000D03*
X142756400Y-138202600D03*
X148082000Y-106934000D03*
X144526000Y-109220000D03*
X136398000Y-98806000D03*
X130302000Y-104140000D03*
X132334000Y-128778000D03*
X171551600Y-133858000D03*
X156972000Y-119634000D03*
X142240000Y-145542000D03*
X164850000Y-96550000D03*
X144018000Y-103886000D03*
X148082000Y-104902000D03*
X154059400Y-137999400D03*
X142748000Y-106680000D03*
X158242000Y-97282000D03*
X164850000Y-98950000D03*
X145034000Y-103886000D03*
X155913000Y-131248000D03*
X141200000Y-128225000D03*
%TD*%
D17*
%TO.N,+5V*%
X148082000Y-141986000D02*
X148082000Y-134112000D01*
X149352000Y-143256000D02*
X148082000Y-141986000D01*
%TO.N,-3V3*%
X153670000Y-142494000D02*
X154476000Y-143300000D01*
X153670000Y-142325000D02*
X153670000Y-142494000D01*
X154476000Y-143300000D02*
X160575000Y-143300000D01*
%TO.N,Net-(J3-Pad1)*%
X170350000Y-142850000D02*
X167475000Y-142850000D01*
X167475000Y-142850000D02*
X164125000Y-139500000D01*
%TO.N,/S2*%
X140208000Y-119762396D02*
X147574000Y-127128396D01*
X147574000Y-127128396D02*
X147574000Y-130411305D01*
X153416000Y-133858000D02*
X164100000Y-144542000D01*
X164100000Y-144542000D02*
X164100000Y-144575000D01*
X147574000Y-130411305D02*
X151020695Y-133858000D01*
X151020695Y-133858000D02*
X153416000Y-133858000D01*
X140208000Y-112776000D02*
X140208000Y-119762396D01*
%TO.N,/S1*%
X164075000Y-143425000D02*
X148666000Y-128016000D01*
X142494000Y-121412000D02*
X142494000Y-118364000D01*
X148666000Y-128016000D02*
X148666000Y-127584000D01*
X148666000Y-127584000D02*
X142494000Y-121412000D01*
%TO.N,/S0*%
X164100000Y-142375000D02*
X143764000Y-122039000D01*
X143764000Y-122039000D02*
X143764000Y-118364000D01*
%TO.N,Net-(U2-Pad3)*%
X155300000Y-137725000D02*
X156900000Y-139325000D01*
%TD*%
M02*
