%TF.GenerationSoftware,KiCad,Pcbnew,6.0.9+dfsg-1~bpo11+1*%
%TF.CreationDate,2022-12-22T20:36:38-06:00*%
%TF.ProjectId,CAE32_PCB,43414533-325f-4504-9342-2e6b69636164,rev?*%
%TF.SameCoordinates,Original*%
%TF.FileFunction,Copper,L3,Inr*%
%TF.FilePolarity,Positive*%
%FSLAX46Y46*%
G04 Gerber Fmt 4.6, Leading zero omitted, Abs format (unit mm)*
G04 Created by KiCad (PCBNEW 6.0.9+dfsg-1~bpo11+1) date 2022-12-22 20:36:38*
%MOMM*%
%LPD*%
G01*
G04 APERTURE LIST*
%TA.AperFunction,ComponentPad*%
%ADD10O,1.550000X0.890000*%
%TD*%
%TA.AperFunction,ComponentPad*%
%ADD11O,0.950000X1.250000*%
%TD*%
%TA.AperFunction,ComponentPad*%
%ADD12R,2.020000X5.020000*%
%TD*%
%TA.AperFunction,ComponentPad*%
%ADD13O,2.020000X5.020000*%
%TD*%
%TA.AperFunction,ComponentPad*%
%ADD14R,1.700000X1.700000*%
%TD*%
%TA.AperFunction,ComponentPad*%
%ADD15O,1.700000X1.700000*%
%TD*%
%TA.AperFunction,ViaPad*%
%ADD16C,0.800000*%
%TD*%
G04 APERTURE END LIST*
D10*
%TO.N,unconnected-(J4-Pad6)*%
%TO.C,J4*%
X171049000Y-111450000D03*
D11*
X168349000Y-117450000D03*
X168349000Y-112450000D03*
D10*
X171049000Y-118450000D03*
%TD*%
D12*
%TO.N,+3.3V*%
%TO.C,J5*%
X145536000Y-147828000D03*
D13*
%TO.N,GNDREF*%
X140356000Y-147828000D03*
%TD*%
D10*
%TO.N,unconnected-(J1-Pad6)*%
%TO.C,J1*%
X128060000Y-118450000D03*
X128060000Y-111450000D03*
D11*
X130760000Y-112450000D03*
X130760000Y-117450000D03*
%TD*%
D14*
%TO.N,Net-(J3-Pad1)*%
%TO.C,J3*%
X168387000Y-151663000D03*
D15*
%TO.N,Net-(J3-Pad2)*%
X165847000Y-151663000D03*
%TO.N,Net-(J3-Pad3)*%
X163307000Y-151663000D03*
%TO.N,Net-(J3-Pad4)*%
X160767000Y-151663000D03*
%TO.N,Net-(J3-Pad5)*%
X158227000Y-151663000D03*
%TO.N,Net-(J3-Pad6)*%
X155687000Y-151663000D03*
%TO.N,Net-(J3-Pad7)*%
X153147000Y-151663000D03*
%TO.N,Net-(J3-Pad8)*%
X150607000Y-151663000D03*
%TD*%
D14*
%TO.N,+3.3V*%
%TO.C,J2*%
X167150000Y-107375000D03*
D15*
%TO.N,/TX0*%
X167150000Y-104835000D03*
%TO.N,/RX0*%
X167150000Y-102295000D03*
%TO.N,GNDREF*%
X167150000Y-99755000D03*
%TD*%
D16*
%TO.N,+5V*%
X148082000Y-134112000D03*
X149352000Y-143256000D03*
%TO.N,+3.3V*%
X168148000Y-140919200D03*
X151468600Y-134799000D03*
X132334000Y-122936000D03*
X164846000Y-121412000D03*
X164700000Y-106675000D03*
X132334000Y-124968000D03*
X147574000Y-149860000D03*
X151976000Y-124517000D03*
X164846000Y-133858000D03*
X147574000Y-145542000D03*
X132334000Y-123952000D03*
X151595000Y-132645000D03*
X157450000Y-127050000D03*
X166243000Y-133858000D03*
X129286000Y-101600000D03*
X129286000Y-100584000D03*
X157450000Y-126037500D03*
X160274000Y-141986000D03*
X147574000Y-147574000D03*
%TO.N,-3V3*%
X160575000Y-143300000D03*
X153670000Y-142325000D03*
%TO.N,Net-(J3-Pad1)*%
X170434000Y-142748000D03*
X164125000Y-139500000D03*
%TO.N,/S2*%
X164100000Y-144575000D03*
X140208000Y-112776000D03*
%TO.N,/S1*%
X142494000Y-118364000D03*
X164075000Y-143425000D03*
%TO.N,/S0*%
X143764000Y-118364000D03*
X164100000Y-142375000D03*
%TO.N,Net-(U2-Pad3)*%
X155194000Y-137668000D03*
X156900000Y-139325000D03*
%TO.N,GNDREF*%
X142748000Y-107950000D03*
X132588000Y-104140000D03*
X171602400Y-138785600D03*
X162052000Y-132588000D03*
X132334000Y-130810000D03*
X134620000Y-118872000D03*
X148082000Y-105918000D03*
X166098500Y-113600000D03*
X141300000Y-122625000D03*
X157450000Y-123000000D03*
X146050000Y-103886000D03*
X148420000Y-130232000D03*
X169672000Y-121666000D03*
X157450000Y-125025000D03*
X129540000Y-105410000D03*
X147066000Y-109220000D03*
X166073500Y-112500000D03*
X132334000Y-129794000D03*
X157450000Y-124012500D03*
X142240000Y-148844000D03*
X132588000Y-116332000D03*
X155913000Y-126041000D03*
X145796000Y-109220000D03*
X143213000Y-129216000D03*
X142240000Y-147066000D03*
X148420000Y-129343000D03*
X134620000Y-110490000D03*
X142748000Y-105410000D03*
X158975000Y-96500000D03*
X133675000Y-98250000D03*
X160550000Y-144525000D03*
X142756400Y-138202600D03*
X148082000Y-106934000D03*
X144526000Y-109220000D03*
X136398000Y-98806000D03*
X130302000Y-104140000D03*
X132334000Y-128778000D03*
X171551600Y-133858000D03*
X156972000Y-119634000D03*
X142240000Y-145542000D03*
X164850000Y-96550000D03*
X144018000Y-103886000D03*
X148082000Y-104902000D03*
X154059400Y-137999400D03*
X142748000Y-106680000D03*
X158242000Y-97282000D03*
X164850000Y-98950000D03*
X145034000Y-103886000D03*
X155913000Y-131248000D03*
X141200000Y-128225000D03*
%TD*%
%TA.AperFunction,Conductor*%
%TO.N,GNDREF*%
G36*
X135832121Y-90190502D02*
G01*
X135878614Y-90244158D01*
X135890000Y-90296500D01*
X135890000Y-97282000D01*
X157480000Y-97282000D01*
X157480000Y-90296500D01*
X157500002Y-90228379D01*
X157553658Y-90181886D01*
X157606000Y-90170500D01*
X171831500Y-90170500D01*
X171899621Y-90190502D01*
X171946114Y-90244158D01*
X171957500Y-90296500D01*
X171957500Y-110469563D01*
X171937498Y-110537684D01*
X171883842Y-110584177D01*
X171813568Y-110594281D01*
X171781461Y-110585201D01*
X171668796Y-110536446D01*
X171556889Y-110513067D01*
X171483927Y-110497824D01*
X171483923Y-110497824D01*
X171479182Y-110496833D01*
X171472828Y-110496500D01*
X170670592Y-110496500D01*
X170624839Y-110501147D01*
X170532632Y-110510513D01*
X170532630Y-110510513D01*
X170526284Y-110511158D01*
X170341439Y-110569085D01*
X170172018Y-110662997D01*
X170024941Y-110789057D01*
X169906216Y-110942116D01*
X169820693Y-111115923D01*
X169819086Y-111122093D01*
X169819084Y-111122098D01*
X169794113Y-111217965D01*
X169771865Y-111303376D01*
X169761727Y-111496818D01*
X169790693Y-111688349D01*
X169857581Y-111870142D01*
X169860939Y-111875558D01*
X169860941Y-111875562D01*
X169956293Y-112029350D01*
X169956296Y-112029354D01*
X169959656Y-112034773D01*
X170092751Y-112175517D01*
X170251427Y-112286623D01*
X170353780Y-112330915D01*
X170419545Y-112359374D01*
X170429204Y-112363554D01*
X170435452Y-112364859D01*
X170435451Y-112364859D01*
X170614073Y-112402176D01*
X170614077Y-112402176D01*
X170618818Y-112403167D01*
X170625172Y-112403500D01*
X171427408Y-112403500D01*
X171474457Y-112398721D01*
X171565368Y-112389487D01*
X171565370Y-112389487D01*
X171571716Y-112388842D01*
X171756561Y-112330915D01*
X171770415Y-112323236D01*
X171839690Y-112307704D01*
X171906366Y-112332092D01*
X171949273Y-112388656D01*
X171957500Y-112433438D01*
X171957500Y-117469563D01*
X171937498Y-117537684D01*
X171883842Y-117584177D01*
X171813568Y-117594281D01*
X171781461Y-117585201D01*
X171668796Y-117536446D01*
X171556889Y-117513067D01*
X171483927Y-117497824D01*
X171483923Y-117497824D01*
X171479182Y-117496833D01*
X171472828Y-117496500D01*
X170670592Y-117496500D01*
X170656898Y-117497891D01*
X170532632Y-117510513D01*
X170532630Y-117510513D01*
X170526284Y-117511158D01*
X170341439Y-117569085D01*
X170172018Y-117662997D01*
X170167170Y-117667153D01*
X170167169Y-117667153D01*
X170130594Y-117698502D01*
X170024941Y-117789057D01*
X169999273Y-117822148D01*
X169944577Y-117892662D01*
X169906216Y-117942116D01*
X169820693Y-118115923D01*
X169819086Y-118122093D01*
X169819084Y-118122098D01*
X169785681Y-118250335D01*
X169771865Y-118303376D01*
X169771531Y-118309756D01*
X169762162Y-118488523D01*
X169761727Y-118496818D01*
X169790693Y-118688349D01*
X169792896Y-118694337D01*
X169792897Y-118694340D01*
X169808062Y-118735556D01*
X169857581Y-118870142D01*
X169860939Y-118875558D01*
X169860941Y-118875562D01*
X169956293Y-119029350D01*
X169956296Y-119029354D01*
X169959656Y-119034773D01*
X169964042Y-119039411D01*
X170073461Y-119155118D01*
X170092751Y-119175517D01*
X170251427Y-119286623D01*
X170353780Y-119330915D01*
X170419545Y-119359374D01*
X170429204Y-119363554D01*
X170435452Y-119364859D01*
X170435451Y-119364859D01*
X170614073Y-119402176D01*
X170614077Y-119402176D01*
X170618818Y-119403167D01*
X170625172Y-119403500D01*
X171427408Y-119403500D01*
X171473161Y-119398853D01*
X171565368Y-119389487D01*
X171565370Y-119389487D01*
X171571716Y-119388842D01*
X171756561Y-119330915D01*
X171770415Y-119323236D01*
X171839690Y-119307704D01*
X171906366Y-119332092D01*
X171949273Y-119388656D01*
X171957500Y-119433438D01*
X171957500Y-155321500D01*
X171937498Y-155389621D01*
X171883842Y-155436114D01*
X171831500Y-155447500D01*
X127500500Y-155447500D01*
X127432379Y-155427498D01*
X127385886Y-155373842D01*
X127374500Y-155321500D01*
X127374500Y-151629695D01*
X149244251Y-151629695D01*
X149257110Y-151852715D01*
X149258247Y-151857761D01*
X149258248Y-151857767D01*
X149282304Y-151964508D01*
X149306222Y-152070639D01*
X149390266Y-152277616D01*
X149427685Y-152338678D01*
X149504291Y-152463688D01*
X149506987Y-152468088D01*
X149653250Y-152636938D01*
X149825126Y-152779632D01*
X150018000Y-152892338D01*
X150226692Y-152972030D01*
X150231760Y-152973061D01*
X150231763Y-152973062D01*
X150339017Y-152994883D01*
X150445597Y-153016567D01*
X150450772Y-153016757D01*
X150450774Y-153016757D01*
X150663673Y-153024564D01*
X150663677Y-153024564D01*
X150668837Y-153024753D01*
X150673957Y-153024097D01*
X150673959Y-153024097D01*
X150885288Y-152997025D01*
X150885289Y-152997025D01*
X150890416Y-152996368D01*
X150895366Y-152994883D01*
X151099429Y-152933661D01*
X151099434Y-152933659D01*
X151104384Y-152932174D01*
X151304994Y-152833896D01*
X151486860Y-152704173D01*
X151645096Y-152546489D01*
X151704594Y-152463689D01*
X151775453Y-152365077D01*
X151776776Y-152366028D01*
X151823645Y-152322857D01*
X151893580Y-152310625D01*
X151959026Y-152338144D01*
X151986875Y-152369994D01*
X152046987Y-152468088D01*
X152193250Y-152636938D01*
X152365126Y-152779632D01*
X152558000Y-152892338D01*
X152766692Y-152972030D01*
X152771760Y-152973061D01*
X152771763Y-152973062D01*
X152879017Y-152994883D01*
X152985597Y-153016567D01*
X152990772Y-153016757D01*
X152990774Y-153016757D01*
X153203673Y-153024564D01*
X153203677Y-153024564D01*
X153208837Y-153024753D01*
X153213957Y-153024097D01*
X153213959Y-153024097D01*
X153425288Y-152997025D01*
X153425289Y-152997025D01*
X153430416Y-152996368D01*
X153435366Y-152994883D01*
X153639429Y-152933661D01*
X153639434Y-152933659D01*
X153644384Y-152932174D01*
X153844994Y-152833896D01*
X154026860Y-152704173D01*
X154185096Y-152546489D01*
X154244594Y-152463689D01*
X154315453Y-152365077D01*
X154316776Y-152366028D01*
X154363645Y-152322857D01*
X154433580Y-152310625D01*
X154499026Y-152338144D01*
X154526875Y-152369994D01*
X154586987Y-152468088D01*
X154733250Y-152636938D01*
X154905126Y-152779632D01*
X155098000Y-152892338D01*
X155306692Y-152972030D01*
X155311760Y-152973061D01*
X155311763Y-152973062D01*
X155419017Y-152994883D01*
X155525597Y-153016567D01*
X155530772Y-153016757D01*
X155530774Y-153016757D01*
X155743673Y-153024564D01*
X155743677Y-153024564D01*
X155748837Y-153024753D01*
X155753957Y-153024097D01*
X155753959Y-153024097D01*
X155965288Y-152997025D01*
X155965289Y-152997025D01*
X155970416Y-152996368D01*
X155975366Y-152994883D01*
X156179429Y-152933661D01*
X156179434Y-152933659D01*
X156184384Y-152932174D01*
X156384994Y-152833896D01*
X156566860Y-152704173D01*
X156725096Y-152546489D01*
X156784594Y-152463689D01*
X156855453Y-152365077D01*
X156856776Y-152366028D01*
X156903645Y-152322857D01*
X156973580Y-152310625D01*
X157039026Y-152338144D01*
X157066875Y-152369994D01*
X157126987Y-152468088D01*
X157273250Y-152636938D01*
X157445126Y-152779632D01*
X157638000Y-152892338D01*
X157846692Y-152972030D01*
X157851760Y-152973061D01*
X157851763Y-152973062D01*
X157959017Y-152994883D01*
X158065597Y-153016567D01*
X158070772Y-153016757D01*
X158070774Y-153016757D01*
X158283673Y-153024564D01*
X158283677Y-153024564D01*
X158288837Y-153024753D01*
X158293957Y-153024097D01*
X158293959Y-153024097D01*
X158505288Y-152997025D01*
X158505289Y-152997025D01*
X158510416Y-152996368D01*
X158515366Y-152994883D01*
X158719429Y-152933661D01*
X158719434Y-152933659D01*
X158724384Y-152932174D01*
X158924994Y-152833896D01*
X159106860Y-152704173D01*
X159265096Y-152546489D01*
X159324594Y-152463689D01*
X159395453Y-152365077D01*
X159396776Y-152366028D01*
X159443645Y-152322857D01*
X159513580Y-152310625D01*
X159579026Y-152338144D01*
X159606875Y-152369994D01*
X159666987Y-152468088D01*
X159813250Y-152636938D01*
X159985126Y-152779632D01*
X160178000Y-152892338D01*
X160386692Y-152972030D01*
X160391760Y-152973061D01*
X160391763Y-152973062D01*
X160499017Y-152994883D01*
X160605597Y-153016567D01*
X160610772Y-153016757D01*
X160610774Y-153016757D01*
X160823673Y-153024564D01*
X160823677Y-153024564D01*
X160828837Y-153024753D01*
X160833957Y-153024097D01*
X160833959Y-153024097D01*
X161045288Y-152997025D01*
X161045289Y-152997025D01*
X161050416Y-152996368D01*
X161055366Y-152994883D01*
X161259429Y-152933661D01*
X161259434Y-152933659D01*
X161264384Y-152932174D01*
X161464994Y-152833896D01*
X161646860Y-152704173D01*
X161805096Y-152546489D01*
X161864594Y-152463689D01*
X161935453Y-152365077D01*
X161936776Y-152366028D01*
X161983645Y-152322857D01*
X162053580Y-152310625D01*
X162119026Y-152338144D01*
X162146875Y-152369994D01*
X162206987Y-152468088D01*
X162353250Y-152636938D01*
X162525126Y-152779632D01*
X162718000Y-152892338D01*
X162926692Y-152972030D01*
X162931760Y-152973061D01*
X162931763Y-152973062D01*
X163039017Y-152994883D01*
X163145597Y-153016567D01*
X163150772Y-153016757D01*
X163150774Y-153016757D01*
X163363673Y-153024564D01*
X163363677Y-153024564D01*
X163368837Y-153024753D01*
X163373957Y-153024097D01*
X163373959Y-153024097D01*
X163585288Y-152997025D01*
X163585289Y-152997025D01*
X163590416Y-152996368D01*
X163595366Y-152994883D01*
X163799429Y-152933661D01*
X163799434Y-152933659D01*
X163804384Y-152932174D01*
X164004994Y-152833896D01*
X164186860Y-152704173D01*
X164345096Y-152546489D01*
X164404594Y-152463689D01*
X164475453Y-152365077D01*
X164476776Y-152366028D01*
X164523645Y-152322857D01*
X164593580Y-152310625D01*
X164659026Y-152338144D01*
X164686875Y-152369994D01*
X164746987Y-152468088D01*
X164893250Y-152636938D01*
X165065126Y-152779632D01*
X165258000Y-152892338D01*
X165466692Y-152972030D01*
X165471760Y-152973061D01*
X165471763Y-152973062D01*
X165579017Y-152994883D01*
X165685597Y-153016567D01*
X165690772Y-153016757D01*
X165690774Y-153016757D01*
X165903673Y-153024564D01*
X165903677Y-153024564D01*
X165908837Y-153024753D01*
X165913957Y-153024097D01*
X165913959Y-153024097D01*
X166125288Y-152997025D01*
X166125289Y-152997025D01*
X166130416Y-152996368D01*
X166135366Y-152994883D01*
X166339429Y-152933661D01*
X166339434Y-152933659D01*
X166344384Y-152932174D01*
X166544994Y-152833896D01*
X166726860Y-152704173D01*
X166835091Y-152596319D01*
X166897462Y-152562404D01*
X166968268Y-152567592D01*
X167025030Y-152610238D01*
X167042012Y-152641341D01*
X167086385Y-152759705D01*
X167173739Y-152876261D01*
X167290295Y-152963615D01*
X167426684Y-153014745D01*
X167488866Y-153021500D01*
X169285134Y-153021500D01*
X169347316Y-153014745D01*
X169483705Y-152963615D01*
X169600261Y-152876261D01*
X169687615Y-152759705D01*
X169738745Y-152623316D01*
X169745500Y-152561134D01*
X169745500Y-150764866D01*
X169738745Y-150702684D01*
X169687615Y-150566295D01*
X169600261Y-150449739D01*
X169483705Y-150362385D01*
X169347316Y-150311255D01*
X169285134Y-150304500D01*
X167488866Y-150304500D01*
X167426684Y-150311255D01*
X167290295Y-150362385D01*
X167173739Y-150449739D01*
X167086385Y-150566295D01*
X167083233Y-150574703D01*
X167041919Y-150684907D01*
X166999277Y-150741671D01*
X166932716Y-150766371D01*
X166863367Y-150751163D01*
X166830743Y-150725476D01*
X166780151Y-150669875D01*
X166780142Y-150669866D01*
X166776670Y-150666051D01*
X166772619Y-150662852D01*
X166772615Y-150662848D01*
X166605414Y-150530800D01*
X166605410Y-150530798D01*
X166601359Y-150527598D01*
X166572015Y-150511399D01*
X166549136Y-150498769D01*
X166405789Y-150419638D01*
X166400920Y-150417914D01*
X166400916Y-150417912D01*
X166200087Y-150346795D01*
X166200083Y-150346794D01*
X166195212Y-150345069D01*
X166190119Y-150344162D01*
X166190116Y-150344161D01*
X165980373Y-150306800D01*
X165980367Y-150306799D01*
X165975284Y-150305894D01*
X165901452Y-150304992D01*
X165757081Y-150303228D01*
X165757079Y-150303228D01*
X165751911Y-150303165D01*
X165531091Y-150336955D01*
X165318756Y-150406357D01*
X165120607Y-150509507D01*
X165116474Y-150512610D01*
X165116471Y-150512612D01*
X164963075Y-150627785D01*
X164941965Y-150643635D01*
X164916483Y-150670300D01*
X164800407Y-150791767D01*
X164787629Y-150805138D01*
X164680201Y-150962621D01*
X164625293Y-151007621D01*
X164554768Y-151015792D01*
X164491021Y-150984538D01*
X164470324Y-150960054D01*
X164389822Y-150835617D01*
X164389820Y-150835614D01*
X164387014Y-150831277D01*
X164236670Y-150666051D01*
X164232619Y-150662852D01*
X164232615Y-150662848D01*
X164065414Y-150530800D01*
X164065410Y-150530798D01*
X164061359Y-150527598D01*
X164032015Y-150511399D01*
X164009136Y-150498769D01*
X163865789Y-150419638D01*
X163860920Y-150417914D01*
X163860916Y-150417912D01*
X163660087Y-150346795D01*
X163660083Y-150346794D01*
X163655212Y-150345069D01*
X163650119Y-150344162D01*
X163650116Y-150344161D01*
X163440373Y-150306800D01*
X163440367Y-150306799D01*
X163435284Y-150305894D01*
X163361452Y-150304992D01*
X163217081Y-150303228D01*
X163217079Y-150303228D01*
X163211911Y-150303165D01*
X162991091Y-150336955D01*
X162778756Y-150406357D01*
X162580607Y-150509507D01*
X162576474Y-150512610D01*
X162576471Y-150512612D01*
X162423075Y-150627785D01*
X162401965Y-150643635D01*
X162376483Y-150670300D01*
X162260407Y-150791767D01*
X162247629Y-150805138D01*
X162140201Y-150962621D01*
X162085293Y-151007621D01*
X162014768Y-151015792D01*
X161951021Y-150984538D01*
X161930324Y-150960054D01*
X161849822Y-150835617D01*
X161849820Y-150835614D01*
X161847014Y-150831277D01*
X161696670Y-150666051D01*
X161692619Y-150662852D01*
X161692615Y-150662848D01*
X161525414Y-150530800D01*
X161525410Y-150530798D01*
X161521359Y-150527598D01*
X161492015Y-150511399D01*
X161469136Y-150498769D01*
X161325789Y-150419638D01*
X161320920Y-150417914D01*
X161320916Y-150417912D01*
X161120087Y-150346795D01*
X161120083Y-150346794D01*
X161115212Y-150345069D01*
X161110119Y-150344162D01*
X161110116Y-150344161D01*
X160900373Y-150306800D01*
X160900367Y-150306799D01*
X160895284Y-150305894D01*
X160821452Y-150304992D01*
X160677081Y-150303228D01*
X160677079Y-150303228D01*
X160671911Y-150303165D01*
X160451091Y-150336955D01*
X160238756Y-150406357D01*
X160040607Y-150509507D01*
X160036474Y-150512610D01*
X160036471Y-150512612D01*
X159883075Y-150627785D01*
X159861965Y-150643635D01*
X159836483Y-150670300D01*
X159720407Y-150791767D01*
X159707629Y-150805138D01*
X159600201Y-150962621D01*
X159545293Y-151007621D01*
X159474768Y-151015792D01*
X159411021Y-150984538D01*
X159390324Y-150960054D01*
X159309822Y-150835617D01*
X159309820Y-150835614D01*
X159307014Y-150831277D01*
X159156670Y-150666051D01*
X159152619Y-150662852D01*
X159152615Y-150662848D01*
X158985414Y-150530800D01*
X158985410Y-150530798D01*
X158981359Y-150527598D01*
X158952015Y-150511399D01*
X158929136Y-150498769D01*
X158785789Y-150419638D01*
X158780920Y-150417914D01*
X158780916Y-150417912D01*
X158580087Y-150346795D01*
X158580083Y-150346794D01*
X158575212Y-150345069D01*
X158570119Y-150344162D01*
X158570116Y-150344161D01*
X158360373Y-150306800D01*
X158360367Y-150306799D01*
X158355284Y-150305894D01*
X158281452Y-150304992D01*
X158137081Y-150303228D01*
X158137079Y-150303228D01*
X158131911Y-150303165D01*
X157911091Y-150336955D01*
X157698756Y-150406357D01*
X157500607Y-150509507D01*
X157496474Y-150512610D01*
X157496471Y-150512612D01*
X157343075Y-150627785D01*
X157321965Y-150643635D01*
X157296483Y-150670300D01*
X157180407Y-150791767D01*
X157167629Y-150805138D01*
X157060201Y-150962621D01*
X157005293Y-151007621D01*
X156934768Y-151015792D01*
X156871021Y-150984538D01*
X156850324Y-150960054D01*
X156769822Y-150835617D01*
X156769820Y-150835614D01*
X156767014Y-150831277D01*
X156616670Y-150666051D01*
X156612619Y-150662852D01*
X156612615Y-150662848D01*
X156445414Y-150530800D01*
X156445410Y-150530798D01*
X156441359Y-150527598D01*
X156412015Y-150511399D01*
X156389136Y-150498769D01*
X156245789Y-150419638D01*
X156240920Y-150417914D01*
X156240916Y-150417912D01*
X156040087Y-150346795D01*
X156040083Y-150346794D01*
X156035212Y-150345069D01*
X156030119Y-150344162D01*
X156030116Y-150344161D01*
X155820373Y-150306800D01*
X155820367Y-150306799D01*
X155815284Y-150305894D01*
X155741452Y-150304992D01*
X155597081Y-150303228D01*
X155597079Y-150303228D01*
X155591911Y-150303165D01*
X155371091Y-150336955D01*
X155158756Y-150406357D01*
X154960607Y-150509507D01*
X154956474Y-150512610D01*
X154956471Y-150512612D01*
X154803075Y-150627785D01*
X154781965Y-150643635D01*
X154756483Y-150670300D01*
X154640407Y-150791767D01*
X154627629Y-150805138D01*
X154520201Y-150962621D01*
X154465293Y-151007621D01*
X154394768Y-151015792D01*
X154331021Y-150984538D01*
X154310324Y-150960054D01*
X154229822Y-150835617D01*
X154229820Y-150835614D01*
X154227014Y-150831277D01*
X154076670Y-150666051D01*
X154072619Y-150662852D01*
X154072615Y-150662848D01*
X153905414Y-150530800D01*
X153905410Y-150530798D01*
X153901359Y-150527598D01*
X153872015Y-150511399D01*
X153849136Y-150498769D01*
X153705789Y-150419638D01*
X153700920Y-150417914D01*
X153700916Y-150417912D01*
X153500087Y-150346795D01*
X153500083Y-150346794D01*
X153495212Y-150345069D01*
X153490119Y-150344162D01*
X153490116Y-150344161D01*
X153280373Y-150306800D01*
X153280367Y-150306799D01*
X153275284Y-150305894D01*
X153201452Y-150304992D01*
X153057081Y-150303228D01*
X153057079Y-150303228D01*
X153051911Y-150303165D01*
X152831091Y-150336955D01*
X152618756Y-150406357D01*
X152420607Y-150509507D01*
X152416474Y-150512610D01*
X152416471Y-150512612D01*
X152263075Y-150627785D01*
X152241965Y-150643635D01*
X152216483Y-150670300D01*
X152100407Y-150791767D01*
X152087629Y-150805138D01*
X151980201Y-150962621D01*
X151925293Y-151007621D01*
X151854768Y-151015792D01*
X151791021Y-150984538D01*
X151770324Y-150960054D01*
X151689822Y-150835617D01*
X151689820Y-150835614D01*
X151687014Y-150831277D01*
X151536670Y-150666051D01*
X151532619Y-150662852D01*
X151532615Y-150662848D01*
X151365414Y-150530800D01*
X151365410Y-150530798D01*
X151361359Y-150527598D01*
X151332015Y-150511399D01*
X151309136Y-150498769D01*
X151165789Y-150419638D01*
X151160920Y-150417914D01*
X151160916Y-150417912D01*
X150960087Y-150346795D01*
X150960083Y-150346794D01*
X150955212Y-150345069D01*
X150950119Y-150344162D01*
X150950116Y-150344161D01*
X150740373Y-150306800D01*
X150740367Y-150306799D01*
X150735284Y-150305894D01*
X150661452Y-150304992D01*
X150517081Y-150303228D01*
X150517079Y-150303228D01*
X150511911Y-150303165D01*
X150291091Y-150336955D01*
X150078756Y-150406357D01*
X149880607Y-150509507D01*
X149876474Y-150512610D01*
X149876471Y-150512612D01*
X149723075Y-150627785D01*
X149701965Y-150643635D01*
X149676483Y-150670300D01*
X149560407Y-150791767D01*
X149547629Y-150805138D01*
X149544720Y-150809403D01*
X149544714Y-150809411D01*
X149532404Y-150827457D01*
X149421743Y-150989680D01*
X149327688Y-151192305D01*
X149267989Y-151407570D01*
X149244251Y-151629695D01*
X127374500Y-151629695D01*
X127374500Y-149386854D01*
X138838000Y-149386854D01*
X138838202Y-149391886D01*
X138852247Y-149566447D01*
X138853859Y-149576400D01*
X138909714Y-149803800D01*
X138912897Y-149813370D01*
X139004391Y-150028916D01*
X139009065Y-150037855D01*
X139133840Y-150235994D01*
X139139881Y-150244070D01*
X139294730Y-150419713D01*
X139301987Y-150426721D01*
X139482935Y-150575352D01*
X139491209Y-150581102D01*
X139693578Y-150698884D01*
X139702691Y-150703251D01*
X139921291Y-150787164D01*
X139930963Y-150790011D01*
X140084264Y-150822037D01*
X140098325Y-150820914D01*
X140102000Y-150810806D01*
X140102000Y-150808656D01*
X140610000Y-150808656D01*
X140614136Y-150822742D01*
X140627114Y-150824791D01*
X140646781Y-150822516D01*
X140656677Y-150820556D01*
X140881987Y-150756799D01*
X140891436Y-150753285D01*
X141103661Y-150654324D01*
X141112425Y-150649345D01*
X141306088Y-150517731D01*
X141313963Y-150511399D01*
X141446427Y-150386134D01*
X144017500Y-150386134D01*
X144024255Y-150448316D01*
X144075385Y-150584705D01*
X144162739Y-150701261D01*
X144279295Y-150788615D01*
X144415684Y-150839745D01*
X144477866Y-150846500D01*
X146594134Y-150846500D01*
X146656316Y-150839745D01*
X146792705Y-150788615D01*
X146909261Y-150701261D01*
X146932466Y-150670298D01*
X146989322Y-150627785D01*
X147060141Y-150622758D01*
X147107354Y-150643929D01*
X147117248Y-150651118D01*
X147123276Y-150653802D01*
X147123278Y-150653803D01*
X147285681Y-150726109D01*
X147291712Y-150728794D01*
X147385112Y-150748647D01*
X147472056Y-150767128D01*
X147472061Y-150767128D01*
X147478513Y-150768500D01*
X147669487Y-150768500D01*
X147675939Y-150767128D01*
X147675944Y-150767128D01*
X147762888Y-150748647D01*
X147856288Y-150728794D01*
X147862319Y-150726109D01*
X148024722Y-150653803D01*
X148024724Y-150653802D01*
X148030752Y-150651118D01*
X148041052Y-150643635D01*
X148086157Y-150610864D01*
X148185253Y-150538866D01*
X148208892Y-150512612D01*
X148308621Y-150401852D01*
X148308622Y-150401851D01*
X148313040Y-150396944D01*
X148408527Y-150231556D01*
X148467542Y-150049928D01*
X148469751Y-150028916D01*
X148486814Y-149866565D01*
X148487504Y-149860000D01*
X148467542Y-149670072D01*
X148408527Y-149488444D01*
X148313040Y-149323056D01*
X148185253Y-149181134D01*
X148030752Y-149068882D01*
X148024724Y-149066198D01*
X148024722Y-149066197D01*
X147862319Y-148993891D01*
X147862318Y-148993891D01*
X147856288Y-148991206D01*
X147762887Y-148971353D01*
X147675944Y-148952872D01*
X147675939Y-148952872D01*
X147669487Y-148951500D01*
X147478513Y-148951500D01*
X147472061Y-148952872D01*
X147472056Y-148952872D01*
X147385113Y-148971353D01*
X147291712Y-148991206D01*
X147285685Y-148993889D01*
X147285677Y-148993892D01*
X147231748Y-149017903D01*
X147161381Y-149027337D01*
X147097084Y-148997230D01*
X147059271Y-148937141D01*
X147054500Y-148902796D01*
X147054500Y-148531204D01*
X147074502Y-148463083D01*
X147128158Y-148416590D01*
X147198432Y-148406486D01*
X147231748Y-148416097D01*
X147285677Y-148440108D01*
X147285685Y-148440111D01*
X147291712Y-148442794D01*
X147385113Y-148462647D01*
X147472056Y-148481128D01*
X147472061Y-148481128D01*
X147478513Y-148482500D01*
X147669487Y-148482500D01*
X147675939Y-148481128D01*
X147675944Y-148481128D01*
X147762887Y-148462647D01*
X147856288Y-148442794D01*
X147862321Y-148440108D01*
X148024722Y-148367803D01*
X148024724Y-148367802D01*
X148030752Y-148365118D01*
X148185253Y-148252866D01*
X148313040Y-148110944D01*
X148408527Y-147945556D01*
X148467542Y-147763928D01*
X148487504Y-147574000D01*
X148467542Y-147384072D01*
X148408527Y-147202444D01*
X148313040Y-147037056D01*
X148185253Y-146895134D01*
X148030752Y-146782882D01*
X148024724Y-146780198D01*
X148024722Y-146780197D01*
X147862319Y-146707891D01*
X147862318Y-146707891D01*
X147856288Y-146705206D01*
X147743570Y-146681247D01*
X147681097Y-146647518D01*
X147646775Y-146585369D01*
X147651503Y-146514530D01*
X147693779Y-146457492D01*
X147743570Y-146434753D01*
X147760836Y-146431083D01*
X147856288Y-146410794D01*
X147862321Y-146408108D01*
X148024722Y-146335803D01*
X148024724Y-146335802D01*
X148030752Y-146333118D01*
X148185253Y-146220866D01*
X148313040Y-146078944D01*
X148408527Y-145913556D01*
X148467542Y-145731928D01*
X148478562Y-145627084D01*
X148486814Y-145548565D01*
X148487504Y-145542000D01*
X148482984Y-145498998D01*
X148468232Y-145358635D01*
X148468232Y-145358633D01*
X148467542Y-145352072D01*
X148408527Y-145170444D01*
X148313040Y-145005056D01*
X148267735Y-144954739D01*
X148189675Y-144868045D01*
X148189674Y-144868044D01*
X148185253Y-144863134D01*
X148086157Y-144791136D01*
X148036094Y-144754763D01*
X148036093Y-144754762D01*
X148030752Y-144750882D01*
X148024724Y-144748198D01*
X148024722Y-144748197D01*
X147862319Y-144675891D01*
X147862318Y-144675891D01*
X147856288Y-144673206D01*
X147762887Y-144653353D01*
X147675944Y-144634872D01*
X147675939Y-144634872D01*
X147669487Y-144633500D01*
X147478513Y-144633500D01*
X147472061Y-144634872D01*
X147472056Y-144634872D01*
X147385113Y-144653353D01*
X147291712Y-144673206D01*
X147285682Y-144675891D01*
X147285681Y-144675891D01*
X147123278Y-144748197D01*
X147123276Y-144748198D01*
X147117248Y-144750882D01*
X147111907Y-144754762D01*
X147111906Y-144754763D01*
X147000859Y-144835444D01*
X146962747Y-144863134D01*
X146959756Y-144866455D01*
X146896461Y-144896828D01*
X146826008Y-144888062D01*
X146800599Y-144873302D01*
X146792705Y-144867385D01*
X146656316Y-144816255D01*
X146594134Y-144809500D01*
X144477866Y-144809500D01*
X144415684Y-144816255D01*
X144279295Y-144867385D01*
X144162739Y-144954739D01*
X144075385Y-145071295D01*
X144024255Y-145207684D01*
X144017500Y-145269866D01*
X144017500Y-150386134D01*
X141446427Y-150386134D01*
X141484084Y-150350523D01*
X141490836Y-150343024D01*
X141633062Y-150157002D01*
X141638519Y-150148534D01*
X141749172Y-149942168D01*
X141753213Y-149932917D01*
X141829444Y-149711525D01*
X141831953Y-149701752D01*
X141871995Y-149469938D01*
X141872850Y-149462066D01*
X141873936Y-149438159D01*
X141874000Y-149435326D01*
X141874000Y-148100115D01*
X141869525Y-148084876D01*
X141868135Y-148083671D01*
X141860452Y-148082000D01*
X140628115Y-148082000D01*
X140612876Y-148086475D01*
X140611671Y-148087865D01*
X140610000Y-148095548D01*
X140610000Y-150808656D01*
X140102000Y-150808656D01*
X140102000Y-148100115D01*
X140097525Y-148084876D01*
X140096135Y-148083671D01*
X140088452Y-148082000D01*
X138856115Y-148082000D01*
X138840876Y-148086475D01*
X138839671Y-148087865D01*
X138838000Y-148095548D01*
X138838000Y-149386854D01*
X127374500Y-149386854D01*
X127374500Y-147555885D01*
X138838000Y-147555885D01*
X138842475Y-147571124D01*
X138843865Y-147572329D01*
X138851548Y-147574000D01*
X140083885Y-147574000D01*
X140099124Y-147569525D01*
X140100329Y-147568135D01*
X140102000Y-147560452D01*
X140102000Y-147555885D01*
X140610000Y-147555885D01*
X140614475Y-147571124D01*
X140615865Y-147572329D01*
X140623548Y-147574000D01*
X141855885Y-147574000D01*
X141871124Y-147569525D01*
X141872329Y-147568135D01*
X141874000Y-147560452D01*
X141874000Y-146269146D01*
X141873798Y-146264114D01*
X141859753Y-146089553D01*
X141858141Y-146079600D01*
X141802286Y-145852200D01*
X141799103Y-145842630D01*
X141707609Y-145627084D01*
X141702935Y-145618145D01*
X141578160Y-145420006D01*
X141572119Y-145411930D01*
X141417270Y-145236287D01*
X141410013Y-145229279D01*
X141229065Y-145080648D01*
X141220791Y-145074898D01*
X141018422Y-144957116D01*
X141009309Y-144952749D01*
X140790709Y-144868836D01*
X140781037Y-144865989D01*
X140627736Y-144833963D01*
X140613675Y-144835086D01*
X140610000Y-144845194D01*
X140610000Y-147555885D01*
X140102000Y-147555885D01*
X140102000Y-144847344D01*
X140097864Y-144833258D01*
X140084886Y-144831209D01*
X140065219Y-144833484D01*
X140055323Y-144835444D01*
X139830013Y-144899201D01*
X139820564Y-144902715D01*
X139608339Y-145001676D01*
X139599575Y-145006655D01*
X139405912Y-145138269D01*
X139398037Y-145144601D01*
X139227916Y-145305477D01*
X139221164Y-145312976D01*
X139078938Y-145498998D01*
X139073481Y-145507466D01*
X138962828Y-145713832D01*
X138958787Y-145723083D01*
X138882556Y-145944475D01*
X138880047Y-145954248D01*
X138840005Y-146186062D01*
X138839150Y-146193934D01*
X138838064Y-146217841D01*
X138838000Y-146220674D01*
X138838000Y-147555885D01*
X127374500Y-147555885D01*
X127374500Y-143256000D01*
X148438496Y-143256000D01*
X148439186Y-143262565D01*
X148456863Y-143430749D01*
X148458458Y-143445928D01*
X148517473Y-143627556D01*
X148612960Y-143792944D01*
X148740747Y-143934866D01*
X148773484Y-143958651D01*
X148887308Y-144041349D01*
X148895248Y-144047118D01*
X148901276Y-144049802D01*
X148901278Y-144049803D01*
X149063681Y-144122109D01*
X149069712Y-144124794D01*
X149163112Y-144144647D01*
X149250056Y-144163128D01*
X149250061Y-144163128D01*
X149256513Y-144164500D01*
X149447487Y-144164500D01*
X149453939Y-144163128D01*
X149453944Y-144163128D01*
X149540888Y-144144647D01*
X149634288Y-144124794D01*
X149640319Y-144122109D01*
X149802722Y-144049803D01*
X149802724Y-144049802D01*
X149808752Y-144047118D01*
X149816693Y-144041349D01*
X149930516Y-143958651D01*
X149963253Y-143934866D01*
X150091040Y-143792944D01*
X150186527Y-143627556D01*
X150245542Y-143445928D01*
X150247138Y-143430749D01*
X150264814Y-143262565D01*
X150265504Y-143256000D01*
X150245542Y-143066072D01*
X150186527Y-142884444D01*
X150091040Y-142719056D01*
X150045744Y-142668749D01*
X149967675Y-142582045D01*
X149967674Y-142582044D01*
X149963253Y-142577134D01*
X149808752Y-142464882D01*
X149802724Y-142462198D01*
X149802722Y-142462197D01*
X149640319Y-142389891D01*
X149640318Y-142389891D01*
X149634288Y-142387206D01*
X149521707Y-142363276D01*
X149453944Y-142348872D01*
X149453939Y-142348872D01*
X149447487Y-142347500D01*
X149256513Y-142347500D01*
X149250061Y-142348872D01*
X149250056Y-142348872D01*
X149182293Y-142363276D01*
X149069712Y-142387206D01*
X149063682Y-142389891D01*
X149063681Y-142389891D01*
X148901278Y-142462197D01*
X148901276Y-142462198D01*
X148895248Y-142464882D01*
X148740747Y-142577134D01*
X148736326Y-142582044D01*
X148736325Y-142582045D01*
X148658257Y-142668749D01*
X148612960Y-142719056D01*
X148517473Y-142884444D01*
X148458458Y-143066072D01*
X148438496Y-143256000D01*
X127374500Y-143256000D01*
X127374500Y-142325000D01*
X152756496Y-142325000D01*
X152776458Y-142514928D01*
X152835473Y-142696556D01*
X152930960Y-142861944D01*
X152935378Y-142866851D01*
X152935379Y-142866852D01*
X153005029Y-142944206D01*
X153058747Y-143003866D01*
X153119108Y-143047721D01*
X153196286Y-143103794D01*
X153213248Y-143116118D01*
X153219276Y-143118802D01*
X153219278Y-143118803D01*
X153381681Y-143191109D01*
X153387712Y-143193794D01*
X153481113Y-143213647D01*
X153568056Y-143232128D01*
X153568061Y-143232128D01*
X153574513Y-143233500D01*
X153765487Y-143233500D01*
X153771939Y-143232128D01*
X153771944Y-143232128D01*
X153858887Y-143213647D01*
X153952288Y-143193794D01*
X153958319Y-143191109D01*
X154120722Y-143118803D01*
X154120724Y-143118802D01*
X154126752Y-143116118D01*
X154143715Y-143103794D01*
X154220892Y-143047721D01*
X154281253Y-143003866D01*
X154334971Y-142944206D01*
X154404621Y-142866852D01*
X154404622Y-142866851D01*
X154409040Y-142861944D01*
X154504527Y-142696556D01*
X154563542Y-142514928D01*
X154583504Y-142325000D01*
X154563542Y-142135072D01*
X154515105Y-141986000D01*
X159360496Y-141986000D01*
X159361186Y-141992565D01*
X159368826Y-142065251D01*
X159380458Y-142175928D01*
X159439473Y-142357556D01*
X159534960Y-142522944D01*
X159539378Y-142527851D01*
X159539379Y-142527852D01*
X159627792Y-142626045D01*
X159662747Y-142664866D01*
X159714241Y-142702279D01*
X159732927Y-142715855D01*
X159776281Y-142772077D01*
X159782356Y-142842814D01*
X159767986Y-142880790D01*
X159740473Y-142928444D01*
X159681458Y-143110072D01*
X159680768Y-143116633D01*
X159680768Y-143116635D01*
X159663679Y-143279226D01*
X159661496Y-143300000D01*
X159681458Y-143489928D01*
X159740473Y-143671556D01*
X159835960Y-143836944D01*
X159840378Y-143841851D01*
X159840379Y-143841852D01*
X159959325Y-143973955D01*
X159963747Y-143978866D01*
X160118248Y-144091118D01*
X160124276Y-144093802D01*
X160124278Y-144093803D01*
X160196967Y-144126166D01*
X160292712Y-144168794D01*
X160386113Y-144188647D01*
X160473056Y-144207128D01*
X160473061Y-144207128D01*
X160479513Y-144208500D01*
X160670487Y-144208500D01*
X160676939Y-144207128D01*
X160676944Y-144207128D01*
X160763887Y-144188647D01*
X160857288Y-144168794D01*
X160953033Y-144126166D01*
X161025722Y-144093803D01*
X161025724Y-144093802D01*
X161031752Y-144091118D01*
X161186253Y-143978866D01*
X161190675Y-143973955D01*
X161309621Y-143841852D01*
X161309622Y-143841851D01*
X161314040Y-143836944D01*
X161409527Y-143671556D01*
X161468542Y-143489928D01*
X161475366Y-143425000D01*
X163161496Y-143425000D01*
X163181458Y-143614928D01*
X163240473Y-143796556D01*
X163322569Y-143938749D01*
X163334059Y-143958651D01*
X163350797Y-144027646D01*
X163334060Y-144084648D01*
X163265473Y-144203444D01*
X163206458Y-144385072D01*
X163186496Y-144575000D01*
X163187186Y-144581565D01*
X163205390Y-144754763D01*
X163206458Y-144764928D01*
X163265473Y-144946556D01*
X163268776Y-144952278D01*
X163268777Y-144952279D01*
X163270197Y-144954739D01*
X163360960Y-145111944D01*
X163365378Y-145116851D01*
X163365379Y-145116852D01*
X163454238Y-145215540D01*
X163488747Y-145253866D01*
X163559783Y-145305477D01*
X163632949Y-145358635D01*
X163643248Y-145366118D01*
X163649276Y-145368802D01*
X163649278Y-145368803D01*
X163764283Y-145420006D01*
X163817712Y-145443794D01*
X163911112Y-145463647D01*
X163998056Y-145482128D01*
X163998061Y-145482128D01*
X164004513Y-145483500D01*
X164195487Y-145483500D01*
X164201939Y-145482128D01*
X164201944Y-145482128D01*
X164288888Y-145463647D01*
X164382288Y-145443794D01*
X164435717Y-145420006D01*
X164550722Y-145368803D01*
X164550724Y-145368802D01*
X164556752Y-145366118D01*
X164567052Y-145358635D01*
X164640217Y-145305477D01*
X164711253Y-145253866D01*
X164745762Y-145215540D01*
X164834621Y-145116852D01*
X164834622Y-145116851D01*
X164839040Y-145111944D01*
X164929803Y-144954739D01*
X164931223Y-144952279D01*
X164931224Y-144952278D01*
X164934527Y-144946556D01*
X164993542Y-144764928D01*
X164994611Y-144754763D01*
X165012814Y-144581565D01*
X165013504Y-144575000D01*
X164993542Y-144385072D01*
X164934527Y-144203444D01*
X164911251Y-144163128D01*
X164840941Y-144041349D01*
X164824203Y-143972354D01*
X164840940Y-143915352D01*
X164909527Y-143796556D01*
X164968542Y-143614928D01*
X164988504Y-143425000D01*
X164968542Y-143235072D01*
X164909527Y-143053444D01*
X164869809Y-142984650D01*
X164853071Y-142915656D01*
X164869809Y-142858651D01*
X164931223Y-142752279D01*
X164931224Y-142752278D01*
X164933693Y-142748000D01*
X169520496Y-142748000D01*
X169521186Y-142754565D01*
X169538860Y-142922721D01*
X169540458Y-142937928D01*
X169599473Y-143119556D01*
X169694960Y-143284944D01*
X169699378Y-143289851D01*
X169699379Y-143289852D01*
X169815156Y-143418435D01*
X169822747Y-143426866D01*
X169977248Y-143539118D01*
X169983276Y-143541802D01*
X169983278Y-143541803D01*
X170132780Y-143608365D01*
X170151712Y-143616794D01*
X170245113Y-143636647D01*
X170332056Y-143655128D01*
X170332061Y-143655128D01*
X170338513Y-143656500D01*
X170529487Y-143656500D01*
X170535939Y-143655128D01*
X170535944Y-143655128D01*
X170622887Y-143636647D01*
X170716288Y-143616794D01*
X170735220Y-143608365D01*
X170884722Y-143541803D01*
X170884724Y-143541802D01*
X170890752Y-143539118D01*
X171045253Y-143426866D01*
X171052844Y-143418435D01*
X171168621Y-143289852D01*
X171168622Y-143289851D01*
X171173040Y-143284944D01*
X171268527Y-143119556D01*
X171327542Y-142937928D01*
X171329141Y-142922721D01*
X171346814Y-142754565D01*
X171347504Y-142748000D01*
X171341437Y-142690271D01*
X171328232Y-142564635D01*
X171328232Y-142564633D01*
X171327542Y-142558072D01*
X171268527Y-142376444D01*
X171260925Y-142363276D01*
X171176341Y-142216774D01*
X171173040Y-142211056D01*
X171147064Y-142182206D01*
X171049675Y-142074045D01*
X171049674Y-142074044D01*
X171045253Y-142069134D01*
X170930829Y-141986000D01*
X170896094Y-141960763D01*
X170896093Y-141960762D01*
X170890752Y-141956882D01*
X170884724Y-141954198D01*
X170884722Y-141954197D01*
X170722319Y-141881891D01*
X170722318Y-141881891D01*
X170716288Y-141879206D01*
X170622887Y-141859353D01*
X170535944Y-141840872D01*
X170535939Y-141840872D01*
X170529487Y-141839500D01*
X170338513Y-141839500D01*
X170332061Y-141840872D01*
X170332056Y-141840872D01*
X170245113Y-141859353D01*
X170151712Y-141879206D01*
X170145682Y-141881891D01*
X170145681Y-141881891D01*
X169983278Y-141954197D01*
X169983276Y-141954198D01*
X169977248Y-141956882D01*
X169971907Y-141960762D01*
X169971906Y-141960763D01*
X169937171Y-141986000D01*
X169822747Y-142069134D01*
X169818326Y-142074044D01*
X169818325Y-142074045D01*
X169720937Y-142182206D01*
X169694960Y-142211056D01*
X169691659Y-142216774D01*
X169607076Y-142363276D01*
X169599473Y-142376444D01*
X169540458Y-142558072D01*
X169539768Y-142564633D01*
X169539768Y-142564635D01*
X169526563Y-142690271D01*
X169520496Y-142748000D01*
X164933693Y-142748000D01*
X164934527Y-142746556D01*
X164993542Y-142564928D01*
X164994923Y-142551794D01*
X165012814Y-142381565D01*
X165013504Y-142375000D01*
X164993542Y-142185072D01*
X164934527Y-142003444D01*
X164839040Y-141838056D01*
X164829716Y-141827700D01*
X164715675Y-141701045D01*
X164715674Y-141701044D01*
X164711253Y-141696134D01*
X164556752Y-141583882D01*
X164550724Y-141581198D01*
X164550722Y-141581197D01*
X164388319Y-141508891D01*
X164388318Y-141508891D01*
X164382288Y-141506206D01*
X164288887Y-141486353D01*
X164201944Y-141467872D01*
X164201939Y-141467872D01*
X164195487Y-141466500D01*
X164004513Y-141466500D01*
X163998061Y-141467872D01*
X163998056Y-141467872D01*
X163911113Y-141486353D01*
X163817712Y-141506206D01*
X163811682Y-141508891D01*
X163811681Y-141508891D01*
X163649278Y-141581197D01*
X163649276Y-141581198D01*
X163643248Y-141583882D01*
X163488747Y-141696134D01*
X163484326Y-141701044D01*
X163484325Y-141701045D01*
X163370285Y-141827700D01*
X163360960Y-141838056D01*
X163265473Y-142003444D01*
X163206458Y-142185072D01*
X163186496Y-142375000D01*
X163187186Y-142381565D01*
X163205078Y-142551794D01*
X163206458Y-142564928D01*
X163265473Y-142746556D01*
X163268776Y-142752278D01*
X163268777Y-142752279D01*
X163305191Y-142815349D01*
X163321929Y-142884344D01*
X163305191Y-142941349D01*
X163240473Y-143053444D01*
X163181458Y-143235072D01*
X163161496Y-143425000D01*
X161475366Y-143425000D01*
X161488504Y-143300000D01*
X161486321Y-143279226D01*
X161469232Y-143116635D01*
X161469232Y-143116633D01*
X161468542Y-143110072D01*
X161409527Y-142928444D01*
X161314040Y-142763056D01*
X161304337Y-142752279D01*
X161190675Y-142626045D01*
X161190674Y-142626044D01*
X161186253Y-142621134D01*
X161116073Y-142570145D01*
X161072719Y-142513923D01*
X161066644Y-142443186D01*
X161081014Y-142405210D01*
X161089858Y-142389891D01*
X161108527Y-142357556D01*
X161167542Y-142175928D01*
X161179175Y-142065251D01*
X161186814Y-141992565D01*
X161187504Y-141986000D01*
X161176280Y-141879206D01*
X161168232Y-141802635D01*
X161168232Y-141802633D01*
X161167542Y-141796072D01*
X161108527Y-141614444D01*
X161013040Y-141449056D01*
X160983727Y-141416500D01*
X160889675Y-141312045D01*
X160889674Y-141312044D01*
X160885253Y-141307134D01*
X160730752Y-141194882D01*
X160724724Y-141192198D01*
X160724722Y-141192197D01*
X160562319Y-141119891D01*
X160562318Y-141119891D01*
X160556288Y-141117206D01*
X160462887Y-141097353D01*
X160375944Y-141078872D01*
X160375939Y-141078872D01*
X160369487Y-141077500D01*
X160178513Y-141077500D01*
X160172061Y-141078872D01*
X160172056Y-141078872D01*
X160085113Y-141097353D01*
X159991712Y-141117206D01*
X159985682Y-141119891D01*
X159985681Y-141119891D01*
X159823278Y-141192197D01*
X159823276Y-141192198D01*
X159817248Y-141194882D01*
X159662747Y-141307134D01*
X159658326Y-141312044D01*
X159658325Y-141312045D01*
X159564274Y-141416500D01*
X159534960Y-141449056D01*
X159439473Y-141614444D01*
X159380458Y-141796072D01*
X159379768Y-141802633D01*
X159379768Y-141802635D01*
X159371720Y-141879206D01*
X159360496Y-141986000D01*
X154515105Y-141986000D01*
X154504527Y-141953444D01*
X154409040Y-141788056D01*
X154339045Y-141710318D01*
X154285675Y-141651045D01*
X154285674Y-141651044D01*
X154281253Y-141646134D01*
X154126752Y-141533882D01*
X154120724Y-141531198D01*
X154120722Y-141531197D01*
X153958319Y-141458891D01*
X153958318Y-141458891D01*
X153952288Y-141456206D01*
X153858888Y-141436353D01*
X153771944Y-141417872D01*
X153771939Y-141417872D01*
X153765487Y-141416500D01*
X153574513Y-141416500D01*
X153568061Y-141417872D01*
X153568056Y-141417872D01*
X153481112Y-141436353D01*
X153387712Y-141456206D01*
X153381682Y-141458891D01*
X153381681Y-141458891D01*
X153219278Y-141531197D01*
X153219276Y-141531198D01*
X153213248Y-141533882D01*
X153058747Y-141646134D01*
X153054326Y-141651044D01*
X153054325Y-141651045D01*
X153000956Y-141710318D01*
X152930960Y-141788056D01*
X152835473Y-141953444D01*
X152776458Y-142135072D01*
X152756496Y-142325000D01*
X127374500Y-142325000D01*
X127374500Y-140919200D01*
X167234496Y-140919200D01*
X167254458Y-141109128D01*
X167313473Y-141290756D01*
X167408960Y-141456144D01*
X167413378Y-141461051D01*
X167413379Y-141461052D01*
X167482450Y-141537763D01*
X167536747Y-141598066D01*
X167691248Y-141710318D01*
X167697276Y-141713002D01*
X167697278Y-141713003D01*
X167859681Y-141785309D01*
X167865712Y-141787994D01*
X167959113Y-141807847D01*
X168046056Y-141826328D01*
X168046061Y-141826328D01*
X168052513Y-141827700D01*
X168243487Y-141827700D01*
X168249939Y-141826328D01*
X168249944Y-141826328D01*
X168336887Y-141807847D01*
X168430288Y-141787994D01*
X168436319Y-141785309D01*
X168598722Y-141713003D01*
X168598724Y-141713002D01*
X168604752Y-141710318D01*
X168759253Y-141598066D01*
X168813550Y-141537763D01*
X168882621Y-141461052D01*
X168882622Y-141461051D01*
X168887040Y-141456144D01*
X168982527Y-141290756D01*
X169041542Y-141109128D01*
X169061504Y-140919200D01*
X169041542Y-140729272D01*
X168982527Y-140547644D01*
X168887040Y-140382256D01*
X168759253Y-140240334D01*
X168604752Y-140128082D01*
X168598724Y-140125398D01*
X168598722Y-140125397D01*
X168436319Y-140053091D01*
X168436318Y-140053091D01*
X168430288Y-140050406D01*
X168336887Y-140030553D01*
X168249944Y-140012072D01*
X168249939Y-140012072D01*
X168243487Y-140010700D01*
X168052513Y-140010700D01*
X168046061Y-140012072D01*
X168046056Y-140012072D01*
X167959113Y-140030553D01*
X167865712Y-140050406D01*
X167859682Y-140053091D01*
X167859681Y-140053091D01*
X167697278Y-140125397D01*
X167697276Y-140125398D01*
X167691248Y-140128082D01*
X167536747Y-140240334D01*
X167408960Y-140382256D01*
X167313473Y-140547644D01*
X167254458Y-140729272D01*
X167234496Y-140919200D01*
X127374500Y-140919200D01*
X127374500Y-139325000D01*
X155986496Y-139325000D01*
X156006458Y-139514928D01*
X156065473Y-139696556D01*
X156160960Y-139861944D01*
X156165378Y-139866851D01*
X156165379Y-139866852D01*
X156174768Y-139877279D01*
X156288747Y-140003866D01*
X156443248Y-140116118D01*
X156449276Y-140118802D01*
X156449278Y-140118803D01*
X156584183Y-140178866D01*
X156617712Y-140193794D01*
X156711112Y-140213647D01*
X156798056Y-140232128D01*
X156798061Y-140232128D01*
X156804513Y-140233500D01*
X156995487Y-140233500D01*
X157001939Y-140232128D01*
X157001944Y-140232128D01*
X157088888Y-140213647D01*
X157182288Y-140193794D01*
X157215817Y-140178866D01*
X157350722Y-140118803D01*
X157350724Y-140118802D01*
X157356752Y-140116118D01*
X157511253Y-140003866D01*
X157625232Y-139877279D01*
X157634621Y-139866852D01*
X157634622Y-139866851D01*
X157639040Y-139861944D01*
X157734527Y-139696556D01*
X157793542Y-139514928D01*
X157795111Y-139500000D01*
X163211496Y-139500000D01*
X163231458Y-139689928D01*
X163290473Y-139871556D01*
X163385960Y-140036944D01*
X163390378Y-140041851D01*
X163390379Y-140041852D01*
X163459666Y-140118803D01*
X163513747Y-140178866D01*
X163668248Y-140291118D01*
X163674276Y-140293802D01*
X163674278Y-140293803D01*
X163836681Y-140366109D01*
X163842712Y-140368794D01*
X163932946Y-140387974D01*
X164023056Y-140407128D01*
X164023061Y-140407128D01*
X164029513Y-140408500D01*
X164220487Y-140408500D01*
X164226939Y-140407128D01*
X164226944Y-140407128D01*
X164317054Y-140387974D01*
X164407288Y-140368794D01*
X164413319Y-140366109D01*
X164575722Y-140293803D01*
X164575724Y-140293802D01*
X164581752Y-140291118D01*
X164736253Y-140178866D01*
X164790334Y-140118803D01*
X164859621Y-140041852D01*
X164859622Y-140041851D01*
X164864040Y-140036944D01*
X164959527Y-139871556D01*
X165018542Y-139689928D01*
X165038504Y-139500000D01*
X165018542Y-139310072D01*
X164959527Y-139128444D01*
X164864040Y-138963056D01*
X164855386Y-138953444D01*
X164740675Y-138826045D01*
X164740674Y-138826044D01*
X164736253Y-138821134D01*
X164581752Y-138708882D01*
X164575724Y-138706198D01*
X164575722Y-138706197D01*
X164413319Y-138633891D01*
X164413318Y-138633891D01*
X164407288Y-138631206D01*
X164313887Y-138611353D01*
X164226944Y-138592872D01*
X164226939Y-138592872D01*
X164220487Y-138591500D01*
X164029513Y-138591500D01*
X164023061Y-138592872D01*
X164023056Y-138592872D01*
X163936113Y-138611353D01*
X163842712Y-138631206D01*
X163836682Y-138633891D01*
X163836681Y-138633891D01*
X163674278Y-138706197D01*
X163674276Y-138706198D01*
X163668248Y-138708882D01*
X163513747Y-138821134D01*
X163509326Y-138826044D01*
X163509325Y-138826045D01*
X163394615Y-138953444D01*
X163385960Y-138963056D01*
X163290473Y-139128444D01*
X163231458Y-139310072D01*
X163211496Y-139500000D01*
X157795111Y-139500000D01*
X157813504Y-139325000D01*
X157793542Y-139135072D01*
X157734527Y-138953444D01*
X157639040Y-138788056D01*
X157567752Y-138708882D01*
X157515675Y-138651045D01*
X157515674Y-138651044D01*
X157511253Y-138646134D01*
X157371252Y-138544417D01*
X157362094Y-138537763D01*
X157362093Y-138537762D01*
X157356752Y-138533882D01*
X157350724Y-138531198D01*
X157350722Y-138531197D01*
X157188319Y-138458891D01*
X157188318Y-138458891D01*
X157182288Y-138456206D01*
X157088887Y-138436353D01*
X157001944Y-138417872D01*
X157001939Y-138417872D01*
X156995487Y-138416500D01*
X156804513Y-138416500D01*
X156798061Y-138417872D01*
X156798056Y-138417872D01*
X156711113Y-138436353D01*
X156617712Y-138456206D01*
X156611682Y-138458891D01*
X156611681Y-138458891D01*
X156449278Y-138531197D01*
X156449276Y-138531198D01*
X156443248Y-138533882D01*
X156437907Y-138537762D01*
X156437906Y-138537763D01*
X156428748Y-138544417D01*
X156288747Y-138646134D01*
X156284326Y-138651044D01*
X156284325Y-138651045D01*
X156232249Y-138708882D01*
X156160960Y-138788056D01*
X156065473Y-138953444D01*
X156006458Y-139135072D01*
X155986496Y-139325000D01*
X127374500Y-139325000D01*
X127374500Y-138791487D01*
X127359080Y-138683813D01*
X127298792Y-138551218D01*
X127285047Y-138535266D01*
X127255733Y-138470603D01*
X127254500Y-138453018D01*
X127254500Y-137668000D01*
X154280496Y-137668000D01*
X154300458Y-137857928D01*
X154359473Y-138039556D01*
X154454960Y-138204944D01*
X154582747Y-138346866D01*
X154678590Y-138416500D01*
X154731352Y-138454834D01*
X154737248Y-138459118D01*
X154743276Y-138461802D01*
X154743278Y-138461803D01*
X154905681Y-138534109D01*
X154911712Y-138536794D01*
X155005112Y-138556647D01*
X155092056Y-138575128D01*
X155092061Y-138575128D01*
X155098513Y-138576500D01*
X155289487Y-138576500D01*
X155295939Y-138575128D01*
X155295944Y-138575128D01*
X155382888Y-138556647D01*
X155476288Y-138536794D01*
X155482319Y-138534109D01*
X155644722Y-138461803D01*
X155644724Y-138461802D01*
X155650752Y-138459118D01*
X155656649Y-138454834D01*
X155709410Y-138416500D01*
X155805253Y-138346866D01*
X155933040Y-138204944D01*
X156028527Y-138039556D01*
X156087542Y-137857928D01*
X156107504Y-137668000D01*
X156087542Y-137478072D01*
X156028527Y-137296444D01*
X155933040Y-137131056D01*
X155805253Y-136989134D01*
X155650752Y-136876882D01*
X155644724Y-136874198D01*
X155644722Y-136874197D01*
X155482319Y-136801891D01*
X155482318Y-136801891D01*
X155476288Y-136799206D01*
X155382888Y-136779353D01*
X155295944Y-136760872D01*
X155295939Y-136760872D01*
X155289487Y-136759500D01*
X155098513Y-136759500D01*
X155092061Y-136760872D01*
X155092056Y-136760872D01*
X155005112Y-136779353D01*
X154911712Y-136799206D01*
X154905682Y-136801891D01*
X154905681Y-136801891D01*
X154743278Y-136874197D01*
X154743276Y-136874198D01*
X154737248Y-136876882D01*
X154582747Y-136989134D01*
X154454960Y-137131056D01*
X154359473Y-137296444D01*
X154300458Y-137478072D01*
X154280496Y-137668000D01*
X127254500Y-137668000D01*
X127254500Y-134112000D01*
X147168496Y-134112000D01*
X147188458Y-134301928D01*
X147247473Y-134483556D01*
X147250776Y-134489278D01*
X147250777Y-134489279D01*
X147275416Y-134531955D01*
X147342960Y-134648944D01*
X147470747Y-134790866D01*
X147625248Y-134903118D01*
X147631276Y-134905802D01*
X147631278Y-134905803D01*
X147793681Y-134978109D01*
X147799712Y-134980794D01*
X147867515Y-134995206D01*
X147980056Y-135019128D01*
X147980061Y-135019128D01*
X147986513Y-135020500D01*
X148177487Y-135020500D01*
X148183939Y-135019128D01*
X148183944Y-135019128D01*
X148296485Y-134995206D01*
X148364288Y-134980794D01*
X148370319Y-134978109D01*
X148532722Y-134905803D01*
X148532724Y-134905802D01*
X148538752Y-134903118D01*
X148682058Y-134799000D01*
X150555096Y-134799000D01*
X150575058Y-134988928D01*
X150634073Y-135170556D01*
X150729560Y-135335944D01*
X150857347Y-135477866D01*
X151011848Y-135590118D01*
X151017876Y-135592802D01*
X151017878Y-135592803D01*
X151180281Y-135665109D01*
X151186312Y-135667794D01*
X151279713Y-135687647D01*
X151366656Y-135706128D01*
X151366661Y-135706128D01*
X151373113Y-135707500D01*
X151564087Y-135707500D01*
X151570539Y-135706128D01*
X151570544Y-135706128D01*
X151657487Y-135687647D01*
X151750888Y-135667794D01*
X151756919Y-135665109D01*
X151919322Y-135592803D01*
X151919324Y-135592802D01*
X151925352Y-135590118D01*
X152079853Y-135477866D01*
X152207640Y-135335944D01*
X152303127Y-135170556D01*
X152362142Y-134988928D01*
X152382104Y-134799000D01*
X152362142Y-134609072D01*
X152303127Y-134427444D01*
X152207640Y-134262056D01*
X152079853Y-134120134D01*
X151925352Y-134007882D01*
X151919324Y-134005198D01*
X151919322Y-134005197D01*
X151756919Y-133932891D01*
X151756918Y-133932891D01*
X151750888Y-133930206D01*
X151657487Y-133910353D01*
X151570544Y-133891872D01*
X151570539Y-133891872D01*
X151564087Y-133890500D01*
X151373113Y-133890500D01*
X151366661Y-133891872D01*
X151366656Y-133891872D01*
X151279713Y-133910353D01*
X151186312Y-133930206D01*
X151180282Y-133932891D01*
X151180281Y-133932891D01*
X151017878Y-134005197D01*
X151017876Y-134005198D01*
X151011848Y-134007882D01*
X150857347Y-134120134D01*
X150729560Y-134262056D01*
X150634073Y-134427444D01*
X150575058Y-134609072D01*
X150555096Y-134799000D01*
X148682058Y-134799000D01*
X148693253Y-134790866D01*
X148821040Y-134648944D01*
X148888584Y-134531955D01*
X148913223Y-134489279D01*
X148913224Y-134489278D01*
X148916527Y-134483556D01*
X148975542Y-134301928D01*
X148995504Y-134112000D01*
X148975542Y-133922072D01*
X148954724Y-133858000D01*
X163932496Y-133858000D01*
X163952458Y-134047928D01*
X164011473Y-134229556D01*
X164106960Y-134394944D01*
X164111378Y-134399851D01*
X164111379Y-134399852D01*
X164203872Y-134502576D01*
X164234747Y-134536866D01*
X164389248Y-134649118D01*
X164395276Y-134651802D01*
X164395278Y-134651803D01*
X164557681Y-134724109D01*
X164563712Y-134726794D01*
X164657113Y-134746647D01*
X164744056Y-134765128D01*
X164744061Y-134765128D01*
X164750513Y-134766500D01*
X164941487Y-134766500D01*
X164947939Y-134765128D01*
X164947944Y-134765128D01*
X165034887Y-134746647D01*
X165128288Y-134726794D01*
X165134319Y-134724109D01*
X165296722Y-134651803D01*
X165296724Y-134651802D01*
X165302752Y-134649118D01*
X165310862Y-134643226D01*
X165451909Y-134540749D01*
X165451911Y-134540747D01*
X165457253Y-134536866D01*
X165460683Y-134533056D01*
X165524196Y-134502576D01*
X165594649Y-134511339D01*
X165628145Y-134532865D01*
X165631747Y-134536866D01*
X165637089Y-134540747D01*
X165637091Y-134540749D01*
X165778138Y-134643226D01*
X165786248Y-134649118D01*
X165792276Y-134651802D01*
X165792278Y-134651803D01*
X165954681Y-134724109D01*
X165960712Y-134726794D01*
X166054113Y-134746647D01*
X166141056Y-134765128D01*
X166141061Y-134765128D01*
X166147513Y-134766500D01*
X166338487Y-134766500D01*
X166344939Y-134765128D01*
X166344944Y-134765128D01*
X166431887Y-134746647D01*
X166525288Y-134726794D01*
X166531319Y-134724109D01*
X166693722Y-134651803D01*
X166693724Y-134651802D01*
X166699752Y-134649118D01*
X166854253Y-134536866D01*
X166885128Y-134502576D01*
X166977621Y-134399852D01*
X166977622Y-134399851D01*
X166982040Y-134394944D01*
X167077527Y-134229556D01*
X167136542Y-134047928D01*
X167156504Y-133858000D01*
X167136542Y-133668072D01*
X167077527Y-133486444D01*
X166982040Y-133321056D01*
X166854253Y-133179134D01*
X166699752Y-133066882D01*
X166693724Y-133064198D01*
X166693722Y-133064197D01*
X166531319Y-132991891D01*
X166531318Y-132991891D01*
X166525288Y-132989206D01*
X166431888Y-132969353D01*
X166344944Y-132950872D01*
X166344939Y-132950872D01*
X166338487Y-132949500D01*
X166147513Y-132949500D01*
X166141061Y-132950872D01*
X166141056Y-132950872D01*
X166054112Y-132969353D01*
X165960712Y-132989206D01*
X165954682Y-132991891D01*
X165954681Y-132991891D01*
X165792278Y-133064197D01*
X165792276Y-133064198D01*
X165786248Y-133066882D01*
X165631747Y-133179134D01*
X165628317Y-133182944D01*
X165564804Y-133213424D01*
X165494351Y-133204661D01*
X165460855Y-133183135D01*
X165457253Y-133179134D01*
X165302752Y-133066882D01*
X165296724Y-133064198D01*
X165296722Y-133064197D01*
X165134319Y-132991891D01*
X165134318Y-132991891D01*
X165128288Y-132989206D01*
X165034888Y-132969353D01*
X164947944Y-132950872D01*
X164947939Y-132950872D01*
X164941487Y-132949500D01*
X164750513Y-132949500D01*
X164744061Y-132950872D01*
X164744056Y-132950872D01*
X164657112Y-132969353D01*
X164563712Y-132989206D01*
X164557682Y-132991891D01*
X164557681Y-132991891D01*
X164395278Y-133064197D01*
X164395276Y-133064198D01*
X164389248Y-133066882D01*
X164234747Y-133179134D01*
X164106960Y-133321056D01*
X164011473Y-133486444D01*
X163952458Y-133668072D01*
X163932496Y-133858000D01*
X148954724Y-133858000D01*
X148916527Y-133740444D01*
X148821040Y-133575056D01*
X148741254Y-133486444D01*
X148697675Y-133438045D01*
X148697674Y-133438044D01*
X148693253Y-133433134D01*
X148538752Y-133320882D01*
X148532724Y-133318198D01*
X148532722Y-133318197D01*
X148370319Y-133245891D01*
X148370318Y-133245891D01*
X148364288Y-133243206D01*
X148270888Y-133223353D01*
X148183944Y-133204872D01*
X148183939Y-133204872D01*
X148177487Y-133203500D01*
X147986513Y-133203500D01*
X147980061Y-133204872D01*
X147980056Y-133204872D01*
X147893112Y-133223353D01*
X147799712Y-133243206D01*
X147793682Y-133245891D01*
X147793681Y-133245891D01*
X147631278Y-133318197D01*
X147631276Y-133318198D01*
X147625248Y-133320882D01*
X147470747Y-133433134D01*
X147466326Y-133438044D01*
X147466325Y-133438045D01*
X147422747Y-133486444D01*
X147342960Y-133575056D01*
X147247473Y-133740444D01*
X147188458Y-133922072D01*
X147168496Y-134112000D01*
X127254500Y-134112000D01*
X127254500Y-132645000D01*
X150681496Y-132645000D01*
X150701458Y-132834928D01*
X150760473Y-133016556D01*
X150855960Y-133181944D01*
X150860378Y-133186851D01*
X150860379Y-133186852D01*
X150979325Y-133318955D01*
X150983747Y-133323866D01*
X151138248Y-133436118D01*
X151144276Y-133438802D01*
X151144278Y-133438803D01*
X151265399Y-133492729D01*
X151312712Y-133513794D01*
X151406112Y-133533647D01*
X151493056Y-133552128D01*
X151493061Y-133552128D01*
X151499513Y-133553500D01*
X151690487Y-133553500D01*
X151696939Y-133552128D01*
X151696944Y-133552128D01*
X151783888Y-133533647D01*
X151877288Y-133513794D01*
X151924601Y-133492729D01*
X152045722Y-133438803D01*
X152045724Y-133438802D01*
X152051752Y-133436118D01*
X152206253Y-133323866D01*
X152210675Y-133318955D01*
X152329621Y-133186852D01*
X152329622Y-133186851D01*
X152334040Y-133181944D01*
X152429527Y-133016556D01*
X152488542Y-132834928D01*
X152508504Y-132645000D01*
X152488542Y-132455072D01*
X152429527Y-132273444D01*
X152334040Y-132108056D01*
X152206253Y-131966134D01*
X152051752Y-131853882D01*
X152045724Y-131851198D01*
X152045722Y-131851197D01*
X151883319Y-131778891D01*
X151883318Y-131778891D01*
X151877288Y-131776206D01*
X151783887Y-131756353D01*
X151696944Y-131737872D01*
X151696939Y-131737872D01*
X151690487Y-131736500D01*
X151499513Y-131736500D01*
X151493061Y-131737872D01*
X151493056Y-131737872D01*
X151406113Y-131756353D01*
X151312712Y-131776206D01*
X151306682Y-131778891D01*
X151306681Y-131778891D01*
X151144278Y-131851197D01*
X151144276Y-131851198D01*
X151138248Y-131853882D01*
X150983747Y-131966134D01*
X150855960Y-132108056D01*
X150760473Y-132273444D01*
X150701458Y-132455072D01*
X150681496Y-132645000D01*
X127254500Y-132645000D01*
X127254500Y-127050000D01*
X156536496Y-127050000D01*
X156556458Y-127239928D01*
X156615473Y-127421556D01*
X156710960Y-127586944D01*
X156838747Y-127728866D01*
X156993248Y-127841118D01*
X156999276Y-127843802D01*
X156999278Y-127843803D01*
X157161681Y-127916109D01*
X157167712Y-127918794D01*
X157261113Y-127938647D01*
X157348056Y-127957128D01*
X157348061Y-127957128D01*
X157354513Y-127958500D01*
X157545487Y-127958500D01*
X157551939Y-127957128D01*
X157551944Y-127957128D01*
X157638887Y-127938647D01*
X157732288Y-127918794D01*
X157738319Y-127916109D01*
X157900722Y-127843803D01*
X157900724Y-127843802D01*
X157906752Y-127841118D01*
X158061253Y-127728866D01*
X158189040Y-127586944D01*
X158284527Y-127421556D01*
X158343542Y-127239928D01*
X158363504Y-127050000D01*
X158343542Y-126860072D01*
X158284527Y-126678444D01*
X158243133Y-126606749D01*
X158226396Y-126537755D01*
X158243133Y-126480752D01*
X158284527Y-126409056D01*
X158343542Y-126227428D01*
X158363504Y-126037500D01*
X158362814Y-126030935D01*
X158344232Y-125854135D01*
X158344232Y-125854133D01*
X158343542Y-125847572D01*
X158284527Y-125665944D01*
X158189040Y-125500556D01*
X158061253Y-125358634D01*
X157906752Y-125246382D01*
X157900724Y-125243698D01*
X157900722Y-125243697D01*
X157738319Y-125171391D01*
X157738318Y-125171391D01*
X157732288Y-125168706D01*
X157638888Y-125148853D01*
X157551944Y-125130372D01*
X157551939Y-125130372D01*
X157545487Y-125129000D01*
X157354513Y-125129000D01*
X157348061Y-125130372D01*
X157348056Y-125130372D01*
X157261112Y-125148853D01*
X157167712Y-125168706D01*
X157161682Y-125171391D01*
X157161681Y-125171391D01*
X156999278Y-125243697D01*
X156999276Y-125243698D01*
X156993248Y-125246382D01*
X156838747Y-125358634D01*
X156710960Y-125500556D01*
X156615473Y-125665944D01*
X156556458Y-125847572D01*
X156555768Y-125854133D01*
X156555768Y-125854135D01*
X156537186Y-126030935D01*
X156536496Y-126037500D01*
X156556458Y-126227428D01*
X156615473Y-126409056D01*
X156656867Y-126480751D01*
X156673604Y-126549745D01*
X156656867Y-126606748D01*
X156615473Y-126678444D01*
X156556458Y-126860072D01*
X156536496Y-127050000D01*
X127254500Y-127050000D01*
X127254500Y-124968000D01*
X131420496Y-124968000D01*
X131421186Y-124974565D01*
X131437418Y-125129000D01*
X131440458Y-125157928D01*
X131499473Y-125339556D01*
X131594960Y-125504944D01*
X131722747Y-125646866D01*
X131877248Y-125759118D01*
X131883276Y-125761802D01*
X131883278Y-125761803D01*
X132045681Y-125834109D01*
X132051712Y-125836794D01*
X132133295Y-125854135D01*
X132232056Y-125875128D01*
X132232061Y-125875128D01*
X132238513Y-125876500D01*
X132429487Y-125876500D01*
X132435939Y-125875128D01*
X132435944Y-125875128D01*
X132534705Y-125854135D01*
X132616288Y-125836794D01*
X132622319Y-125834109D01*
X132784722Y-125761803D01*
X132784724Y-125761802D01*
X132790752Y-125759118D01*
X132945253Y-125646866D01*
X133073040Y-125504944D01*
X133168527Y-125339556D01*
X133227542Y-125157928D01*
X133230583Y-125129000D01*
X133246814Y-124974565D01*
X133247504Y-124968000D01*
X133227542Y-124778072D01*
X133168527Y-124596444D01*
X133126124Y-124523000D01*
X133124668Y-124517000D01*
X151062496Y-124517000D01*
X151082458Y-124706928D01*
X151141473Y-124888556D01*
X151236960Y-125053944D01*
X151241378Y-125058851D01*
X151241379Y-125058852D01*
X151336240Y-125164206D01*
X151364747Y-125195866D01*
X151519248Y-125308118D01*
X151525276Y-125310802D01*
X151525278Y-125310803D01*
X151687681Y-125383109D01*
X151693712Y-125385794D01*
X151787112Y-125405647D01*
X151874056Y-125424128D01*
X151874061Y-125424128D01*
X151880513Y-125425500D01*
X152071487Y-125425500D01*
X152077939Y-125424128D01*
X152077944Y-125424128D01*
X152164888Y-125405647D01*
X152258288Y-125385794D01*
X152264319Y-125383109D01*
X152426722Y-125310803D01*
X152426724Y-125310802D01*
X152432752Y-125308118D01*
X152587253Y-125195866D01*
X152615760Y-125164206D01*
X152710621Y-125058852D01*
X152710622Y-125058851D01*
X152715040Y-125053944D01*
X152810527Y-124888556D01*
X152869542Y-124706928D01*
X152889504Y-124517000D01*
X152869542Y-124327072D01*
X152810527Y-124145444D01*
X152715040Y-123980056D01*
X152695690Y-123958565D01*
X152591675Y-123843045D01*
X152591674Y-123843044D01*
X152587253Y-123838134D01*
X152432752Y-123725882D01*
X152426724Y-123723198D01*
X152426722Y-123723197D01*
X152264319Y-123650891D01*
X152264318Y-123650891D01*
X152258288Y-123648206D01*
X152164888Y-123628353D01*
X152077944Y-123609872D01*
X152077939Y-123609872D01*
X152071487Y-123608500D01*
X151880513Y-123608500D01*
X151874061Y-123609872D01*
X151874056Y-123609872D01*
X151787112Y-123628353D01*
X151693712Y-123648206D01*
X151687682Y-123650891D01*
X151687681Y-123650891D01*
X151525278Y-123723197D01*
X151525276Y-123723198D01*
X151519248Y-123725882D01*
X151364747Y-123838134D01*
X151360326Y-123843044D01*
X151360325Y-123843045D01*
X151256311Y-123958565D01*
X151236960Y-123980056D01*
X151141473Y-124145444D01*
X151082458Y-124327072D01*
X151062496Y-124517000D01*
X133124668Y-124517000D01*
X133109386Y-124454005D01*
X133126124Y-124397000D01*
X133165223Y-124329279D01*
X133165224Y-124329278D01*
X133168527Y-124323556D01*
X133227542Y-124141928D01*
X133247504Y-123952000D01*
X133227542Y-123762072D01*
X133168527Y-123580444D01*
X133126124Y-123507000D01*
X133109386Y-123438005D01*
X133126124Y-123381000D01*
X133165223Y-123313279D01*
X133165224Y-123313278D01*
X133168527Y-123307556D01*
X133227542Y-123125928D01*
X133247504Y-122936000D01*
X133227542Y-122746072D01*
X133168527Y-122564444D01*
X133073040Y-122399056D01*
X132945253Y-122257134D01*
X132790752Y-122144882D01*
X132784724Y-122142198D01*
X132784722Y-122142197D01*
X132622319Y-122069891D01*
X132622318Y-122069891D01*
X132616288Y-122067206D01*
X132522887Y-122047353D01*
X132435944Y-122028872D01*
X132435939Y-122028872D01*
X132429487Y-122027500D01*
X132238513Y-122027500D01*
X132232061Y-122028872D01*
X132232056Y-122028872D01*
X132145113Y-122047353D01*
X132051712Y-122067206D01*
X132045682Y-122069891D01*
X132045681Y-122069891D01*
X131883278Y-122142197D01*
X131883276Y-122142198D01*
X131877248Y-122144882D01*
X131722747Y-122257134D01*
X131594960Y-122399056D01*
X131499473Y-122564444D01*
X131440458Y-122746072D01*
X131420496Y-122936000D01*
X131440458Y-123125928D01*
X131499473Y-123307556D01*
X131502776Y-123313278D01*
X131502777Y-123313279D01*
X131541876Y-123381000D01*
X131558614Y-123449995D01*
X131541876Y-123507000D01*
X131499473Y-123580444D01*
X131440458Y-123762072D01*
X131420496Y-123952000D01*
X131440458Y-124141928D01*
X131499473Y-124323556D01*
X131502776Y-124329278D01*
X131502777Y-124329279D01*
X131541876Y-124397000D01*
X131558614Y-124465995D01*
X131541876Y-124523000D01*
X131499473Y-124596444D01*
X131440458Y-124778072D01*
X131420496Y-124968000D01*
X127254500Y-124968000D01*
X127254500Y-121412000D01*
X163932496Y-121412000D01*
X163952458Y-121601928D01*
X164011473Y-121783556D01*
X164106960Y-121948944D01*
X164234747Y-122090866D01*
X164389248Y-122203118D01*
X164395276Y-122205802D01*
X164395278Y-122205803D01*
X164557681Y-122278109D01*
X164563712Y-122280794D01*
X164657113Y-122300647D01*
X164744056Y-122319128D01*
X164744061Y-122319128D01*
X164750513Y-122320500D01*
X164941487Y-122320500D01*
X164947939Y-122319128D01*
X164947944Y-122319128D01*
X165034887Y-122300647D01*
X165128288Y-122280794D01*
X165134319Y-122278109D01*
X165296722Y-122205803D01*
X165296724Y-122205802D01*
X165302752Y-122203118D01*
X165457253Y-122090866D01*
X165585040Y-121948944D01*
X165680527Y-121783556D01*
X165739542Y-121601928D01*
X165759504Y-121412000D01*
X165739542Y-121222072D01*
X165680527Y-121040444D01*
X165585040Y-120875056D01*
X165457253Y-120733134D01*
X165302752Y-120620882D01*
X165296724Y-120618198D01*
X165296722Y-120618197D01*
X165134319Y-120545891D01*
X165134318Y-120545891D01*
X165128288Y-120543206D01*
X165034887Y-120523353D01*
X164947944Y-120504872D01*
X164947939Y-120504872D01*
X164941487Y-120503500D01*
X164750513Y-120503500D01*
X164744061Y-120504872D01*
X164744056Y-120504872D01*
X164657113Y-120523353D01*
X164563712Y-120543206D01*
X164557682Y-120545891D01*
X164557681Y-120545891D01*
X164395278Y-120618197D01*
X164395276Y-120618198D01*
X164389248Y-120620882D01*
X164234747Y-120733134D01*
X164106960Y-120875056D01*
X164011473Y-121040444D01*
X163952458Y-121222072D01*
X163932496Y-121412000D01*
X127254500Y-121412000D01*
X127254500Y-119475009D01*
X127274502Y-119406888D01*
X127328158Y-119360395D01*
X127398432Y-119350291D01*
X127430544Y-119359374D01*
X127440204Y-119363554D01*
X127446452Y-119364859D01*
X127446451Y-119364859D01*
X127625073Y-119402176D01*
X127625077Y-119402176D01*
X127629818Y-119403167D01*
X127636172Y-119403500D01*
X128438408Y-119403500D01*
X128484161Y-119398853D01*
X128576368Y-119389487D01*
X128576370Y-119389487D01*
X128582716Y-119388842D01*
X128767561Y-119330915D01*
X128936982Y-119237003D01*
X129014134Y-119170876D01*
X129079207Y-119115102D01*
X129079209Y-119115100D01*
X129084059Y-119110943D01*
X129139545Y-119039411D01*
X129198868Y-118962933D01*
X129198870Y-118962930D01*
X129202784Y-118957884D01*
X129288307Y-118784077D01*
X129289914Y-118777907D01*
X129289916Y-118777902D01*
X129335525Y-118602806D01*
X129335525Y-118602803D01*
X129337135Y-118596624D01*
X129347273Y-118403182D01*
X129318307Y-118211651D01*
X129304481Y-118174072D01*
X129280979Y-118110199D01*
X129251419Y-118029858D01*
X129248061Y-118024442D01*
X129248059Y-118024438D01*
X129152707Y-117870650D01*
X129152704Y-117870646D01*
X129149344Y-117865227D01*
X129016249Y-117724483D01*
X128909782Y-117649934D01*
X129776500Y-117649934D01*
X129791619Y-117798780D01*
X129851369Y-117989440D01*
X129948235Y-118164191D01*
X129952391Y-118169040D01*
X130062232Y-118297194D01*
X130078261Y-118315896D01*
X130083298Y-118319803D01*
X130083300Y-118319805D01*
X130231093Y-118434445D01*
X130231096Y-118434447D01*
X130236137Y-118438357D01*
X130241863Y-118441175D01*
X130241867Y-118441177D01*
X130354945Y-118496818D01*
X130415411Y-118526571D01*
X130495241Y-118547365D01*
X130602580Y-118575325D01*
X130602583Y-118575325D01*
X130608762Y-118576935D01*
X130702256Y-118581835D01*
X130801911Y-118587058D01*
X130801915Y-118587058D01*
X130808292Y-118587392D01*
X131005848Y-118557514D01*
X131033433Y-118547365D01*
X131187371Y-118490727D01*
X131187372Y-118490727D01*
X131193361Y-118488523D01*
X131363172Y-118383235D01*
X131383513Y-118364000D01*
X141580496Y-118364000D01*
X141581186Y-118370565D01*
X141595120Y-118503136D01*
X141600458Y-118553928D01*
X141659473Y-118735556D01*
X141662776Y-118741278D01*
X141662777Y-118741279D01*
X141687487Y-118784077D01*
X141754960Y-118900944D01*
X141882747Y-119042866D01*
X142037248Y-119155118D01*
X142043276Y-119157802D01*
X142043278Y-119157803D01*
X142205681Y-119230109D01*
X142211712Y-119232794D01*
X142305112Y-119252647D01*
X142392056Y-119271128D01*
X142392061Y-119271128D01*
X142398513Y-119272500D01*
X142589487Y-119272500D01*
X142595939Y-119271128D01*
X142595944Y-119271128D01*
X142682888Y-119252647D01*
X142776288Y-119232794D01*
X142782319Y-119230109D01*
X142944722Y-119157803D01*
X142944724Y-119157802D01*
X142950752Y-119155118D01*
X143054940Y-119079421D01*
X143121806Y-119055563D01*
X143190958Y-119071643D01*
X143203056Y-119079418D01*
X143307248Y-119155118D01*
X143313276Y-119157802D01*
X143313278Y-119157803D01*
X143475681Y-119230109D01*
X143481712Y-119232794D01*
X143575112Y-119252647D01*
X143662056Y-119271128D01*
X143662061Y-119271128D01*
X143668513Y-119272500D01*
X143859487Y-119272500D01*
X143865939Y-119271128D01*
X143865944Y-119271128D01*
X143952888Y-119252647D01*
X144046288Y-119232794D01*
X144052319Y-119230109D01*
X144214722Y-119157803D01*
X144214724Y-119157802D01*
X144220752Y-119155118D01*
X144375253Y-119042866D01*
X144503040Y-118900944D01*
X144570513Y-118784077D01*
X144595223Y-118741279D01*
X144595224Y-118741278D01*
X144598527Y-118735556D01*
X144657542Y-118553928D01*
X144662881Y-118503136D01*
X144676814Y-118370565D01*
X144677504Y-118364000D01*
X144671132Y-118303376D01*
X144658232Y-118180635D01*
X144658232Y-118180633D01*
X144657542Y-118174072D01*
X144598527Y-117992444D01*
X144503040Y-117827056D01*
X144375253Y-117685134D01*
X144326805Y-117649934D01*
X167365500Y-117649934D01*
X167380619Y-117798780D01*
X167440369Y-117989440D01*
X167537235Y-118164191D01*
X167541391Y-118169040D01*
X167651232Y-118297194D01*
X167667261Y-118315896D01*
X167672298Y-118319803D01*
X167672300Y-118319805D01*
X167820093Y-118434445D01*
X167820096Y-118434447D01*
X167825137Y-118438357D01*
X167830863Y-118441175D01*
X167830867Y-118441177D01*
X167943945Y-118496818D01*
X168004411Y-118526571D01*
X168084241Y-118547365D01*
X168191580Y-118575325D01*
X168191583Y-118575325D01*
X168197762Y-118576935D01*
X168291256Y-118581835D01*
X168390911Y-118587058D01*
X168390915Y-118587058D01*
X168397292Y-118587392D01*
X168594848Y-118557514D01*
X168622433Y-118547365D01*
X168776371Y-118490727D01*
X168776372Y-118490727D01*
X168782361Y-118488523D01*
X168952172Y-118383235D01*
X168972513Y-118364000D01*
X169092710Y-118250335D01*
X169097344Y-118245953D01*
X169211946Y-118082284D01*
X169291298Y-117898914D01*
X169332156Y-117703334D01*
X169332500Y-117696771D01*
X169332500Y-117250066D01*
X169317381Y-117101220D01*
X169257631Y-116910560D01*
X169160765Y-116735809D01*
X169030739Y-116584104D01*
X169025700Y-116580195D01*
X168877907Y-116465555D01*
X168877904Y-116465553D01*
X168872863Y-116461643D01*
X168867137Y-116458825D01*
X168867133Y-116458823D01*
X168699318Y-116376248D01*
X168693589Y-116373429D01*
X168574797Y-116342486D01*
X168506420Y-116324675D01*
X168506417Y-116324675D01*
X168500238Y-116323065D01*
X168406744Y-116318165D01*
X168307089Y-116312942D01*
X168307085Y-116312942D01*
X168300708Y-116312608D01*
X168103152Y-116342486D01*
X167915639Y-116411477D01*
X167745828Y-116516765D01*
X167600656Y-116654047D01*
X167486054Y-116817716D01*
X167406702Y-117001086D01*
X167365844Y-117196666D01*
X167365500Y-117203229D01*
X167365500Y-117649934D01*
X144326805Y-117649934D01*
X144220752Y-117572882D01*
X144214724Y-117570198D01*
X144214722Y-117570197D01*
X144052319Y-117497891D01*
X144052318Y-117497891D01*
X144046288Y-117495206D01*
X143952887Y-117475353D01*
X143865944Y-117456872D01*
X143865939Y-117456872D01*
X143859487Y-117455500D01*
X143668513Y-117455500D01*
X143662061Y-117456872D01*
X143662056Y-117456872D01*
X143575113Y-117475353D01*
X143481712Y-117495206D01*
X143475682Y-117497891D01*
X143475681Y-117497891D01*
X143313278Y-117570197D01*
X143313276Y-117570198D01*
X143307248Y-117572882D01*
X143203060Y-117648579D01*
X143136194Y-117672437D01*
X143067042Y-117656357D01*
X143054944Y-117648582D01*
X142950752Y-117572882D01*
X142944724Y-117570198D01*
X142944722Y-117570197D01*
X142782319Y-117497891D01*
X142782318Y-117497891D01*
X142776288Y-117495206D01*
X142682887Y-117475353D01*
X142595944Y-117456872D01*
X142595939Y-117456872D01*
X142589487Y-117455500D01*
X142398513Y-117455500D01*
X142392061Y-117456872D01*
X142392056Y-117456872D01*
X142305113Y-117475353D01*
X142211712Y-117495206D01*
X142205682Y-117497891D01*
X142205681Y-117497891D01*
X142043278Y-117570197D01*
X142043276Y-117570198D01*
X142037248Y-117572882D01*
X141882747Y-117685134D01*
X141754960Y-117827056D01*
X141659473Y-117992444D01*
X141600458Y-118174072D01*
X141599768Y-118180633D01*
X141599768Y-118180635D01*
X141586868Y-118303376D01*
X141580496Y-118364000D01*
X131383513Y-118364000D01*
X131503710Y-118250335D01*
X131508344Y-118245953D01*
X131622946Y-118082284D01*
X131702298Y-117898914D01*
X131743156Y-117703334D01*
X131743500Y-117696771D01*
X131743500Y-117250066D01*
X131728381Y-117101220D01*
X131668631Y-116910560D01*
X131571765Y-116735809D01*
X131441739Y-116584104D01*
X131436700Y-116580195D01*
X131288907Y-116465555D01*
X131288904Y-116465553D01*
X131283863Y-116461643D01*
X131278137Y-116458825D01*
X131278133Y-116458823D01*
X131110318Y-116376248D01*
X131104589Y-116373429D01*
X130985797Y-116342486D01*
X130917420Y-116324675D01*
X130917417Y-116324675D01*
X130911238Y-116323065D01*
X130817744Y-116318165D01*
X130718089Y-116312942D01*
X130718085Y-116312942D01*
X130711708Y-116312608D01*
X130514152Y-116342486D01*
X130326639Y-116411477D01*
X130156828Y-116516765D01*
X130011656Y-116654047D01*
X129897054Y-116817716D01*
X129817702Y-117001086D01*
X129776844Y-117196666D01*
X129776500Y-117203229D01*
X129776500Y-117649934D01*
X128909782Y-117649934D01*
X128857573Y-117613377D01*
X128679796Y-117536446D01*
X128567889Y-117513067D01*
X128494927Y-117497824D01*
X128494923Y-117497824D01*
X128490182Y-117496833D01*
X128483828Y-117496500D01*
X127681592Y-117496500D01*
X127667898Y-117497891D01*
X127543632Y-117510513D01*
X127543630Y-117510513D01*
X127537284Y-117511158D01*
X127487019Y-117526910D01*
X127418179Y-117548483D01*
X127347194Y-117549767D01*
X127286783Y-117512470D01*
X127256127Y-117448433D01*
X127254500Y-117428249D01*
X127254500Y-112649934D01*
X129776500Y-112649934D01*
X129791619Y-112798780D01*
X129851369Y-112989440D01*
X129948235Y-113164191D01*
X130078261Y-113315896D01*
X130083298Y-113319803D01*
X130083300Y-113319805D01*
X130231093Y-113434445D01*
X130231096Y-113434447D01*
X130236137Y-113438357D01*
X130241863Y-113441175D01*
X130241867Y-113441177D01*
X130409682Y-113523752D01*
X130415411Y-113526571D01*
X130504906Y-113549883D01*
X130602580Y-113575325D01*
X130602583Y-113575325D01*
X130608762Y-113576935D01*
X130702256Y-113581835D01*
X130801911Y-113587058D01*
X130801915Y-113587058D01*
X130808292Y-113587392D01*
X131005848Y-113557514D01*
X131193361Y-113488523D01*
X131363172Y-113383235D01*
X131508344Y-113245953D01*
X131622946Y-113082284D01*
X131702298Y-112898914D01*
X131727976Y-112776000D01*
X139294496Y-112776000D01*
X139295186Y-112782565D01*
X139308031Y-112904774D01*
X139314458Y-112965928D01*
X139373473Y-113147556D01*
X139468960Y-113312944D01*
X139473378Y-113317851D01*
X139473379Y-113317852D01*
X139528305Y-113378853D01*
X139596747Y-113454866D01*
X139751248Y-113567118D01*
X139757276Y-113569802D01*
X139757278Y-113569803D01*
X139794637Y-113586436D01*
X139925712Y-113644794D01*
X140019112Y-113664647D01*
X140106056Y-113683128D01*
X140106061Y-113683128D01*
X140112513Y-113684500D01*
X140303487Y-113684500D01*
X140309939Y-113683128D01*
X140309944Y-113683128D01*
X140396887Y-113664647D01*
X140490288Y-113644794D01*
X140621363Y-113586436D01*
X140658722Y-113569803D01*
X140658724Y-113569802D01*
X140664752Y-113567118D01*
X140819253Y-113454866D01*
X140887695Y-113378853D01*
X140942621Y-113317852D01*
X140942622Y-113317851D01*
X140947040Y-113312944D01*
X141042527Y-113147556D01*
X141101542Y-112965928D01*
X141107970Y-112904774D01*
X141120814Y-112782565D01*
X141121504Y-112776000D01*
X141120814Y-112769435D01*
X141108254Y-112649934D01*
X167365500Y-112649934D01*
X167380619Y-112798780D01*
X167440369Y-112989440D01*
X167537235Y-113164191D01*
X167667261Y-113315896D01*
X167672298Y-113319803D01*
X167672300Y-113319805D01*
X167820093Y-113434445D01*
X167820096Y-113434447D01*
X167825137Y-113438357D01*
X167830863Y-113441175D01*
X167830867Y-113441177D01*
X167998682Y-113523752D01*
X168004411Y-113526571D01*
X168093906Y-113549883D01*
X168191580Y-113575325D01*
X168191583Y-113575325D01*
X168197762Y-113576935D01*
X168291256Y-113581835D01*
X168390911Y-113587058D01*
X168390915Y-113587058D01*
X168397292Y-113587392D01*
X168594848Y-113557514D01*
X168782361Y-113488523D01*
X168952172Y-113383235D01*
X169097344Y-113245953D01*
X169211946Y-113082284D01*
X169291298Y-112898914D01*
X169332156Y-112703334D01*
X169332500Y-112696771D01*
X169332500Y-112250066D01*
X169317381Y-112101220D01*
X169257631Y-111910560D01*
X169233763Y-111867500D01*
X169187520Y-111784077D01*
X169160765Y-111735809D01*
X169120087Y-111688349D01*
X169034891Y-111588948D01*
X169034890Y-111588947D01*
X169030739Y-111584104D01*
X169025700Y-111580195D01*
X168877907Y-111465555D01*
X168877904Y-111465553D01*
X168872863Y-111461643D01*
X168867137Y-111458825D01*
X168867133Y-111458823D01*
X168699318Y-111376248D01*
X168693589Y-111373429D01*
X168574797Y-111342486D01*
X168506420Y-111324675D01*
X168506417Y-111324675D01*
X168500238Y-111323065D01*
X168406744Y-111318165D01*
X168307089Y-111312942D01*
X168307085Y-111312942D01*
X168300708Y-111312608D01*
X168103152Y-111342486D01*
X167915639Y-111411477D01*
X167745828Y-111516765D01*
X167600656Y-111654047D01*
X167486054Y-111817716D01*
X167406702Y-112001086D01*
X167365844Y-112196666D01*
X167365500Y-112203229D01*
X167365500Y-112649934D01*
X141108254Y-112649934D01*
X141102232Y-112592635D01*
X141102232Y-112592633D01*
X141101542Y-112586072D01*
X141042527Y-112404444D01*
X140947040Y-112239056D01*
X140941450Y-112232847D01*
X140823675Y-112102045D01*
X140823674Y-112102044D01*
X140819253Y-112097134D01*
X140664752Y-111984882D01*
X140658724Y-111982198D01*
X140658722Y-111982197D01*
X140496319Y-111909891D01*
X140496318Y-111909891D01*
X140490288Y-111907206D01*
X140396887Y-111887353D01*
X140309944Y-111868872D01*
X140309939Y-111868872D01*
X140303487Y-111867500D01*
X140112513Y-111867500D01*
X140106061Y-111868872D01*
X140106056Y-111868872D01*
X140019113Y-111887353D01*
X139925712Y-111907206D01*
X139919682Y-111909891D01*
X139919681Y-111909891D01*
X139757278Y-111982197D01*
X139757276Y-111982198D01*
X139751248Y-111984882D01*
X139596747Y-112097134D01*
X139592326Y-112102044D01*
X139592325Y-112102045D01*
X139474551Y-112232847D01*
X139468960Y-112239056D01*
X139373473Y-112404444D01*
X139314458Y-112586072D01*
X139313768Y-112592633D01*
X139313768Y-112592635D01*
X139295186Y-112769435D01*
X139294496Y-112776000D01*
X131727976Y-112776000D01*
X131743156Y-112703334D01*
X131743500Y-112696771D01*
X131743500Y-112250066D01*
X131728381Y-112101220D01*
X131668631Y-111910560D01*
X131644763Y-111867500D01*
X131598520Y-111784077D01*
X131571765Y-111735809D01*
X131531087Y-111688349D01*
X131445891Y-111588948D01*
X131445890Y-111588947D01*
X131441739Y-111584104D01*
X131436700Y-111580195D01*
X131288907Y-111465555D01*
X131288904Y-111465553D01*
X131283863Y-111461643D01*
X131278137Y-111458825D01*
X131278133Y-111458823D01*
X131110318Y-111376248D01*
X131104589Y-111373429D01*
X130985797Y-111342486D01*
X130917420Y-111324675D01*
X130917417Y-111324675D01*
X130911238Y-111323065D01*
X130817744Y-111318165D01*
X130718089Y-111312942D01*
X130718085Y-111312942D01*
X130711708Y-111312608D01*
X130514152Y-111342486D01*
X130326639Y-111411477D01*
X130156828Y-111516765D01*
X130011656Y-111654047D01*
X129897054Y-111817716D01*
X129817702Y-112001086D01*
X129776844Y-112196666D01*
X129776500Y-112203229D01*
X129776500Y-112649934D01*
X127254500Y-112649934D01*
X127254500Y-112475009D01*
X127274502Y-112406888D01*
X127328158Y-112360395D01*
X127398432Y-112350291D01*
X127430544Y-112359374D01*
X127440204Y-112363554D01*
X127446452Y-112364859D01*
X127446451Y-112364859D01*
X127625073Y-112402176D01*
X127625077Y-112402176D01*
X127629818Y-112403167D01*
X127636172Y-112403500D01*
X128438408Y-112403500D01*
X128485457Y-112398721D01*
X128576368Y-112389487D01*
X128576370Y-112389487D01*
X128582716Y-112388842D01*
X128767561Y-112330915D01*
X128936982Y-112237003D01*
X128978333Y-112201561D01*
X129079207Y-112115102D01*
X129079209Y-112115100D01*
X129084059Y-112110943D01*
X129147349Y-112029350D01*
X129198868Y-111962933D01*
X129198870Y-111962930D01*
X129202784Y-111957884D01*
X129288307Y-111784077D01*
X129289914Y-111777907D01*
X129289916Y-111777902D01*
X129335525Y-111602806D01*
X129335525Y-111602803D01*
X129337135Y-111596624D01*
X129346662Y-111414840D01*
X129346939Y-111409563D01*
X129346939Y-111409559D01*
X129347273Y-111403182D01*
X129318307Y-111211651D01*
X129251419Y-111029858D01*
X129248061Y-111024442D01*
X129248059Y-111024438D01*
X129152707Y-110870650D01*
X129152704Y-110870646D01*
X129149344Y-110865227D01*
X129016249Y-110724483D01*
X128857573Y-110613377D01*
X128679796Y-110536446D01*
X128567889Y-110513067D01*
X128494927Y-110497824D01*
X128494923Y-110497824D01*
X128490182Y-110496833D01*
X128483828Y-110496500D01*
X127681592Y-110496500D01*
X127635839Y-110501147D01*
X127543632Y-110510513D01*
X127543630Y-110510513D01*
X127537284Y-110511158D01*
X127487019Y-110526910D01*
X127418179Y-110548483D01*
X127347194Y-110549767D01*
X127286783Y-110512470D01*
X127256127Y-110448433D01*
X127254500Y-110428249D01*
X127254500Y-106675000D01*
X163786496Y-106675000D01*
X163806458Y-106864928D01*
X163865473Y-107046556D01*
X163960960Y-107211944D01*
X164088747Y-107353866D01*
X164243248Y-107466118D01*
X164249276Y-107468802D01*
X164249278Y-107468803D01*
X164411681Y-107541109D01*
X164417712Y-107543794D01*
X164511112Y-107563647D01*
X164598056Y-107582128D01*
X164598061Y-107582128D01*
X164604513Y-107583500D01*
X164795487Y-107583500D01*
X164801939Y-107582128D01*
X164801944Y-107582128D01*
X164888887Y-107563647D01*
X164982288Y-107543794D01*
X164988319Y-107541109D01*
X165150722Y-107468803D01*
X165150724Y-107468802D01*
X165156752Y-107466118D01*
X165311253Y-107353866D01*
X165439040Y-107211944D01*
X165534527Y-107046556D01*
X165545668Y-107012269D01*
X165585741Y-106953665D01*
X165651138Y-106926028D01*
X165721094Y-106938135D01*
X165773400Y-106986141D01*
X165791500Y-107051207D01*
X165791500Y-108273134D01*
X165798255Y-108335316D01*
X165849385Y-108471705D01*
X165936739Y-108588261D01*
X166053295Y-108675615D01*
X166189684Y-108726745D01*
X166251866Y-108733500D01*
X168048134Y-108733500D01*
X168110316Y-108726745D01*
X168246705Y-108675615D01*
X168363261Y-108588261D01*
X168450615Y-108471705D01*
X168501745Y-108335316D01*
X168508500Y-108273134D01*
X168508500Y-106476866D01*
X168501745Y-106414684D01*
X168450615Y-106278295D01*
X168363261Y-106161739D01*
X168246705Y-106074385D01*
X168234132Y-106069672D01*
X168128203Y-106029960D01*
X168071439Y-105987318D01*
X168046739Y-105920756D01*
X168061947Y-105851408D01*
X168083493Y-105822727D01*
X168097330Y-105808938D01*
X168188096Y-105718489D01*
X168247594Y-105635689D01*
X168315435Y-105541277D01*
X168318453Y-105537077D01*
X168417430Y-105336811D01*
X168482370Y-105123069D01*
X168511529Y-104901590D01*
X168513156Y-104835000D01*
X168494852Y-104612361D01*
X168440431Y-104395702D01*
X168351354Y-104190840D01*
X168230014Y-104003277D01*
X168079670Y-103838051D01*
X168075619Y-103834852D01*
X168075615Y-103834848D01*
X167908414Y-103702800D01*
X167908410Y-103702798D01*
X167904359Y-103699598D01*
X167863053Y-103676796D01*
X167813084Y-103626364D01*
X167798312Y-103556921D01*
X167823428Y-103490516D01*
X167850780Y-103463909D01*
X167894603Y-103432650D01*
X168029860Y-103336173D01*
X168188096Y-103178489D01*
X168247594Y-103095689D01*
X168315435Y-103001277D01*
X168318453Y-102997077D01*
X168417430Y-102796811D01*
X168482370Y-102583069D01*
X168511529Y-102361590D01*
X168513156Y-102295000D01*
X168494852Y-102072361D01*
X168440431Y-101855702D01*
X168351354Y-101650840D01*
X168230014Y-101463277D01*
X168079670Y-101298051D01*
X168075619Y-101294852D01*
X168075615Y-101294848D01*
X167908414Y-101162800D01*
X167908410Y-101162798D01*
X167904359Y-101159598D01*
X167862569Y-101136529D01*
X167812598Y-101086097D01*
X167797826Y-101016654D01*
X167822942Y-100950248D01*
X167850294Y-100923641D01*
X168025328Y-100798792D01*
X168033200Y-100792139D01*
X168184052Y-100641812D01*
X168190730Y-100633965D01*
X168315003Y-100461020D01*
X168320313Y-100452183D01*
X168414670Y-100261267D01*
X168418469Y-100251672D01*
X168480377Y-100047910D01*
X168482555Y-100037837D01*
X168483986Y-100026962D01*
X168481775Y-100012778D01*
X168468617Y-100009000D01*
X165833225Y-100009000D01*
X165819694Y-100012973D01*
X165818257Y-100022966D01*
X165848565Y-100157446D01*
X165851645Y-100167275D01*
X165931770Y-100364603D01*
X165936413Y-100373794D01*
X166047694Y-100555388D01*
X166053777Y-100563699D01*
X166193213Y-100724667D01*
X166200580Y-100731883D01*
X166364434Y-100867916D01*
X166372881Y-100873831D01*
X166441969Y-100914203D01*
X166490693Y-100965842D01*
X166503764Y-101035625D01*
X166477033Y-101101396D01*
X166436584Y-101134752D01*
X166423607Y-101141507D01*
X166419474Y-101144610D01*
X166419471Y-101144612D01*
X166249100Y-101272530D01*
X166244965Y-101275635D01*
X166090629Y-101437138D01*
X165964743Y-101621680D01*
X165949003Y-101655590D01*
X165889692Y-101783365D01*
X165870688Y-101824305D01*
X165810989Y-102039570D01*
X165787251Y-102261695D01*
X165787548Y-102266848D01*
X165787548Y-102266851D01*
X165794713Y-102391118D01*
X165800110Y-102484715D01*
X165801247Y-102489761D01*
X165801248Y-102489767D01*
X165805161Y-102507128D01*
X165849222Y-102702639D01*
X165933266Y-102909616D01*
X166049987Y-103100088D01*
X166196250Y-103268938D01*
X166368126Y-103411632D01*
X166438595Y-103452811D01*
X166441445Y-103454476D01*
X166490169Y-103506114D01*
X166503240Y-103575897D01*
X166476509Y-103641669D01*
X166436055Y-103675027D01*
X166423607Y-103681507D01*
X166419474Y-103684610D01*
X166419471Y-103684612D01*
X166395247Y-103702800D01*
X166244965Y-103815635D01*
X166090629Y-103977138D01*
X165964743Y-104161680D01*
X165870688Y-104364305D01*
X165810989Y-104579570D01*
X165787251Y-104801695D01*
X165787548Y-104806848D01*
X165787548Y-104806851D01*
X165793011Y-104901590D01*
X165800110Y-105024715D01*
X165801247Y-105029761D01*
X165801248Y-105029767D01*
X165821119Y-105117939D01*
X165849222Y-105242639D01*
X165933266Y-105449616D01*
X166049987Y-105640088D01*
X166196250Y-105808938D01*
X166200230Y-105812242D01*
X166204981Y-105816187D01*
X166244616Y-105875090D01*
X166246113Y-105946071D01*
X166208997Y-106006593D01*
X166168724Y-106031112D01*
X166053295Y-106074385D01*
X165936739Y-106161739D01*
X165849385Y-106278295D01*
X165846233Y-106286703D01*
X165802814Y-106402522D01*
X165760172Y-106459286D01*
X165693611Y-106483986D01*
X165624262Y-106468778D01*
X165574144Y-106418492D01*
X165565001Y-106397233D01*
X165534527Y-106303444D01*
X165439040Y-106138056D01*
X165381711Y-106074385D01*
X165315675Y-106001045D01*
X165315674Y-106001044D01*
X165311253Y-105996134D01*
X165156752Y-105883882D01*
X165150724Y-105881198D01*
X165150722Y-105881197D01*
X164988319Y-105808891D01*
X164988318Y-105808891D01*
X164982288Y-105806206D01*
X164888888Y-105786353D01*
X164801944Y-105767872D01*
X164801939Y-105767872D01*
X164795487Y-105766500D01*
X164604513Y-105766500D01*
X164598061Y-105767872D01*
X164598056Y-105767872D01*
X164511112Y-105786353D01*
X164417712Y-105806206D01*
X164411682Y-105808891D01*
X164411681Y-105808891D01*
X164249278Y-105881197D01*
X164249276Y-105881198D01*
X164243248Y-105883882D01*
X164088747Y-105996134D01*
X164084326Y-106001044D01*
X164084325Y-106001045D01*
X164018290Y-106074385D01*
X163960960Y-106138056D01*
X163865473Y-106303444D01*
X163806458Y-106485072D01*
X163786496Y-106675000D01*
X127254500Y-106675000D01*
X127254500Y-101600000D01*
X128372496Y-101600000D01*
X128392458Y-101789928D01*
X128451473Y-101971556D01*
X128546960Y-102136944D01*
X128674747Y-102278866D01*
X128829248Y-102391118D01*
X128835276Y-102393802D01*
X128835278Y-102393803D01*
X128997681Y-102466109D01*
X129003712Y-102468794D01*
X129078614Y-102484715D01*
X129184056Y-102507128D01*
X129184061Y-102507128D01*
X129190513Y-102508500D01*
X129381487Y-102508500D01*
X129387939Y-102507128D01*
X129387944Y-102507128D01*
X129493386Y-102484715D01*
X129568288Y-102468794D01*
X129574319Y-102466109D01*
X129736722Y-102393803D01*
X129736724Y-102393802D01*
X129742752Y-102391118D01*
X129897253Y-102278866D01*
X130025040Y-102136944D01*
X130120527Y-101971556D01*
X130179542Y-101789928D01*
X130199504Y-101600000D01*
X130179542Y-101410072D01*
X130120527Y-101228444D01*
X130078124Y-101155000D01*
X130061386Y-101086005D01*
X130078124Y-101029000D01*
X130117223Y-100961279D01*
X130117224Y-100961278D01*
X130120527Y-100955556D01*
X130179542Y-100773928D01*
X130184720Y-100724667D01*
X130198814Y-100590565D01*
X130199504Y-100584000D01*
X130196497Y-100555388D01*
X130180232Y-100400635D01*
X130180232Y-100400633D01*
X130179542Y-100394072D01*
X130120527Y-100212444D01*
X130025040Y-100047056D01*
X129897253Y-99905134D01*
X129742752Y-99792882D01*
X129736724Y-99790198D01*
X129736722Y-99790197D01*
X129574319Y-99717891D01*
X129574318Y-99717891D01*
X129568288Y-99715206D01*
X129474888Y-99695353D01*
X129387944Y-99676872D01*
X129387939Y-99676872D01*
X129381487Y-99675500D01*
X129190513Y-99675500D01*
X129184061Y-99676872D01*
X129184056Y-99676872D01*
X129097112Y-99695353D01*
X129003712Y-99715206D01*
X128997682Y-99717891D01*
X128997681Y-99717891D01*
X128835278Y-99790197D01*
X128835276Y-99790198D01*
X128829248Y-99792882D01*
X128674747Y-99905134D01*
X128546960Y-100047056D01*
X128451473Y-100212444D01*
X128392458Y-100394072D01*
X128391768Y-100400633D01*
X128391768Y-100400635D01*
X128375503Y-100555388D01*
X128372496Y-100584000D01*
X128373186Y-100590565D01*
X128387281Y-100724667D01*
X128392458Y-100773928D01*
X128451473Y-100955556D01*
X128454776Y-100961278D01*
X128454777Y-100961279D01*
X128493876Y-101029000D01*
X128510614Y-101097995D01*
X128493876Y-101155000D01*
X128451473Y-101228444D01*
X128392458Y-101410072D01*
X128372496Y-101600000D01*
X127254500Y-101600000D01*
X127254500Y-99489183D01*
X165814389Y-99489183D01*
X165815912Y-99497607D01*
X165828292Y-99501000D01*
X166877885Y-99501000D01*
X166893124Y-99496525D01*
X166894329Y-99495135D01*
X166896000Y-99487452D01*
X166896000Y-99482885D01*
X167404000Y-99482885D01*
X167408475Y-99498124D01*
X167409865Y-99499329D01*
X167417548Y-99501000D01*
X168468344Y-99501000D01*
X168481875Y-99497027D01*
X168483180Y-99487947D01*
X168441214Y-99320875D01*
X168437894Y-99311124D01*
X168352972Y-99115814D01*
X168348105Y-99106739D01*
X168232426Y-98927926D01*
X168226136Y-98919757D01*
X168082806Y-98762240D01*
X168075273Y-98755215D01*
X167908139Y-98623222D01*
X167899552Y-98617517D01*
X167713117Y-98514599D01*
X167703705Y-98510369D01*
X167502959Y-98439280D01*
X167492988Y-98436646D01*
X167421837Y-98423972D01*
X167408540Y-98425432D01*
X167404000Y-98439989D01*
X167404000Y-99482885D01*
X166896000Y-99482885D01*
X166896000Y-98438102D01*
X166892082Y-98424758D01*
X166877806Y-98422771D01*
X166839324Y-98428660D01*
X166829288Y-98431051D01*
X166626868Y-98497212D01*
X166617359Y-98501209D01*
X166428463Y-98599542D01*
X166419738Y-98605036D01*
X166249433Y-98732905D01*
X166241726Y-98739748D01*
X166094590Y-98893717D01*
X166088104Y-98901727D01*
X165968098Y-99077649D01*
X165963000Y-99086623D01*
X165873338Y-99279783D01*
X165869775Y-99289470D01*
X165814389Y-99489183D01*
X127254500Y-99489183D01*
X127254500Y-90296500D01*
X127274502Y-90228379D01*
X127328158Y-90181886D01*
X127380500Y-90170500D01*
X135764000Y-90170500D01*
X135832121Y-90190502D01*
G37*
%TD.AperFunction*%
%TD*%
M02*
