%TF.GenerationSoftware,KiCad,Pcbnew,6.0.9+dfsg-1~bpo11+1*%
%TF.CreationDate,2022-12-22T20:36:38-06:00*%
%TF.ProjectId,CAE32_PCB,43414533-325f-4504-9342-2e6b69636164,rev?*%
%TF.SameCoordinates,Original*%
%TF.FileFunction,Legend,Top*%
%TF.FilePolarity,Positive*%
%FSLAX46Y46*%
G04 Gerber Fmt 4.6, Leading zero omitted, Abs format (unit mm)*
G04 Created by KiCad (PCBNEW 6.0.9+dfsg-1~bpo11+1) date 2022-12-22 20:36:38*
%MOMM*%
%LPD*%
G01*
G04 APERTURE LIST*
%ADD10C,0.150000*%
%ADD11C,0.120000*%
G04 APERTURE END LIST*
D10*
%TO.C,C6*%
X131108333Y-96802142D02*
X131060714Y-96849761D01*
X130917857Y-96897380D01*
X130822619Y-96897380D01*
X130679761Y-96849761D01*
X130584523Y-96754523D01*
X130536904Y-96659285D01*
X130489285Y-96468809D01*
X130489285Y-96325952D01*
X130536904Y-96135476D01*
X130584523Y-96040238D01*
X130679761Y-95945000D01*
X130822619Y-95897380D01*
X130917857Y-95897380D01*
X131060714Y-95945000D01*
X131108333Y-95992619D01*
X131965476Y-95897380D02*
X131775000Y-95897380D01*
X131679761Y-95945000D01*
X131632142Y-95992619D01*
X131536904Y-96135476D01*
X131489285Y-96325952D01*
X131489285Y-96706904D01*
X131536904Y-96802142D01*
X131584523Y-96849761D01*
X131679761Y-96897380D01*
X131870238Y-96897380D01*
X131965476Y-96849761D01*
X132013095Y-96802142D01*
X132060714Y-96706904D01*
X132060714Y-96468809D01*
X132013095Y-96373571D01*
X131965476Y-96325952D01*
X131870238Y-96278333D01*
X131679761Y-96278333D01*
X131584523Y-96325952D01*
X131536904Y-96373571D01*
X131489285Y-96468809D01*
%TO.C,C9*%
X168870333Y-132535142D02*
X168822714Y-132582761D01*
X168679857Y-132630380D01*
X168584619Y-132630380D01*
X168441761Y-132582761D01*
X168346523Y-132487523D01*
X168298904Y-132392285D01*
X168251285Y-132201809D01*
X168251285Y-132058952D01*
X168298904Y-131868476D01*
X168346523Y-131773238D01*
X168441761Y-131678000D01*
X168584619Y-131630380D01*
X168679857Y-131630380D01*
X168822714Y-131678000D01*
X168870333Y-131725619D01*
X169346523Y-132630380D02*
X169537000Y-132630380D01*
X169632238Y-132582761D01*
X169679857Y-132535142D01*
X169775095Y-132392285D01*
X169822714Y-132201809D01*
X169822714Y-131820857D01*
X169775095Y-131725619D01*
X169727476Y-131678000D01*
X169632238Y-131630380D01*
X169441761Y-131630380D01*
X169346523Y-131678000D01*
X169298904Y-131725619D01*
X169251285Y-131820857D01*
X169251285Y-132058952D01*
X169298904Y-132154190D01*
X169346523Y-132201809D01*
X169441761Y-132249428D01*
X169632238Y-132249428D01*
X169727476Y-132201809D01*
X169775095Y-132154190D01*
X169822714Y-132058952D01*
%TO.C,VR1*%
X137265476Y-125277380D02*
X137598809Y-126277380D01*
X137932142Y-125277380D01*
X138836904Y-126277380D02*
X138503571Y-125801190D01*
X138265476Y-126277380D02*
X138265476Y-125277380D01*
X138646428Y-125277380D01*
X138741666Y-125325000D01*
X138789285Y-125372619D01*
X138836904Y-125467857D01*
X138836904Y-125610714D01*
X138789285Y-125705952D01*
X138741666Y-125753571D01*
X138646428Y-125801190D01*
X138265476Y-125801190D01*
X139789285Y-126277380D02*
X139217857Y-126277380D01*
X139503571Y-126277380D02*
X139503571Y-125277380D01*
X139408333Y-125420238D01*
X139313095Y-125515476D01*
X139217857Y-125563095D01*
%TO.C,C3*%
X133101142Y-102020666D02*
X133148761Y-102068285D01*
X133196380Y-102211142D01*
X133196380Y-102306380D01*
X133148761Y-102449238D01*
X133053523Y-102544476D01*
X132958285Y-102592095D01*
X132767809Y-102639714D01*
X132624952Y-102639714D01*
X132434476Y-102592095D01*
X132339238Y-102544476D01*
X132244000Y-102449238D01*
X132196380Y-102306380D01*
X132196380Y-102211142D01*
X132244000Y-102068285D01*
X132291619Y-102020666D01*
X132196380Y-101687333D02*
X132196380Y-101068285D01*
X132577333Y-101401619D01*
X132577333Y-101258761D01*
X132624952Y-101163523D01*
X132672571Y-101115904D01*
X132767809Y-101068285D01*
X133005904Y-101068285D01*
X133101142Y-101115904D01*
X133148761Y-101163523D01*
X133196380Y-101258761D01*
X133196380Y-101544476D01*
X133148761Y-101639714D01*
X133101142Y-101687333D01*
%TO.C,C1*%
X159533333Y-131265142D02*
X159485714Y-131312761D01*
X159342857Y-131360380D01*
X159247619Y-131360380D01*
X159104761Y-131312761D01*
X159009523Y-131217523D01*
X158961904Y-131122285D01*
X158914285Y-130931809D01*
X158914285Y-130788952D01*
X158961904Y-130598476D01*
X159009523Y-130503238D01*
X159104761Y-130408000D01*
X159247619Y-130360380D01*
X159342857Y-130360380D01*
X159485714Y-130408000D01*
X159533333Y-130455619D01*
X160485714Y-131360380D02*
X159914285Y-131360380D01*
X160200000Y-131360380D02*
X160200000Y-130360380D01*
X160104761Y-130503238D01*
X160009523Y-130598476D01*
X159914285Y-130646095D01*
%TO.C,TP?-3v3*%
X127389333Y-133056380D02*
X127960761Y-133056380D01*
X127675047Y-134056380D02*
X127675047Y-133056380D01*
X128294095Y-134056380D02*
X128294095Y-133056380D01*
X128675047Y-133056380D01*
X128770285Y-133104000D01*
X128817904Y-133151619D01*
X128865523Y-133246857D01*
X128865523Y-133389714D01*
X128817904Y-133484952D01*
X128770285Y-133532571D01*
X128675047Y-133580190D01*
X128294095Y-133580190D01*
X129436952Y-133961142D02*
X129484571Y-134008761D01*
X129436952Y-134056380D01*
X129389333Y-134008761D01*
X129436952Y-133961142D01*
X129436952Y-134056380D01*
X129246476Y-133104000D02*
X129341714Y-133056380D01*
X129579809Y-133056380D01*
X129675047Y-133104000D01*
X129722666Y-133199238D01*
X129722666Y-133294476D01*
X129675047Y-133389714D01*
X129627428Y-133437333D01*
X129532190Y-133484952D01*
X129484571Y-133532571D01*
X129436952Y-133627809D01*
X129436952Y-133675428D01*
X130151238Y-133675428D02*
X130913142Y-133675428D01*
X131294095Y-133056380D02*
X131913142Y-133056380D01*
X131579809Y-133437333D01*
X131722666Y-133437333D01*
X131817904Y-133484952D01*
X131865523Y-133532571D01*
X131913142Y-133627809D01*
X131913142Y-133865904D01*
X131865523Y-133961142D01*
X131817904Y-134008761D01*
X131722666Y-134056380D01*
X131436952Y-134056380D01*
X131341714Y-134008761D01*
X131294095Y-133961142D01*
X132246476Y-133389714D02*
X132484571Y-134056380D01*
X132722666Y-133389714D01*
X133008380Y-133056380D02*
X133627428Y-133056380D01*
X133294095Y-133437333D01*
X133436952Y-133437333D01*
X133532190Y-133484952D01*
X133579809Y-133532571D01*
X133627428Y-133627809D01*
X133627428Y-133865904D01*
X133579809Y-133961142D01*
X133532190Y-134008761D01*
X133436952Y-134056380D01*
X133151238Y-134056380D01*
X133056000Y-134008761D01*
X133008380Y-133961142D01*
%TO.C,D1*%
X135437619Y-112061904D02*
X136437619Y-112061904D01*
X136437619Y-112300000D01*
X136390000Y-112442857D01*
X136294761Y-112538095D01*
X136199523Y-112585714D01*
X136009047Y-112633333D01*
X135866190Y-112633333D01*
X135675714Y-112585714D01*
X135580476Y-112538095D01*
X135485238Y-112442857D01*
X135437619Y-112300000D01*
X135437619Y-112061904D01*
X135437619Y-113585714D02*
X135437619Y-113014285D01*
X135437619Y-113300000D02*
X136437619Y-113300000D01*
X136294761Y-113204761D01*
X136199523Y-113109523D01*
X136151904Y-113014285D01*
%TO.C,C13*%
X152182142Y-141662142D02*
X152134523Y-141709761D01*
X151991666Y-141757380D01*
X151896428Y-141757380D01*
X151753571Y-141709761D01*
X151658333Y-141614523D01*
X151610714Y-141519285D01*
X151563095Y-141328809D01*
X151563095Y-141185952D01*
X151610714Y-140995476D01*
X151658333Y-140900238D01*
X151753571Y-140805000D01*
X151896428Y-140757380D01*
X151991666Y-140757380D01*
X152134523Y-140805000D01*
X152182142Y-140852619D01*
X153134523Y-141757380D02*
X152563095Y-141757380D01*
X152848809Y-141757380D02*
X152848809Y-140757380D01*
X152753571Y-140900238D01*
X152658333Y-140995476D01*
X152563095Y-141043095D01*
X153467857Y-140757380D02*
X154086904Y-140757380D01*
X153753571Y-141138333D01*
X153896428Y-141138333D01*
X153991666Y-141185952D01*
X154039285Y-141233571D01*
X154086904Y-141328809D01*
X154086904Y-141566904D01*
X154039285Y-141662142D01*
X153991666Y-141709761D01*
X153896428Y-141757380D01*
X153610714Y-141757380D01*
X153515476Y-141709761D01*
X153467857Y-141662142D01*
%TO.C,R2*%
X128214380Y-96178666D02*
X127738190Y-96512000D01*
X128214380Y-96750095D02*
X127214380Y-96750095D01*
X127214380Y-96369142D01*
X127262000Y-96273904D01*
X127309619Y-96226285D01*
X127404857Y-96178666D01*
X127547714Y-96178666D01*
X127642952Y-96226285D01*
X127690571Y-96273904D01*
X127738190Y-96369142D01*
X127738190Y-96750095D01*
X127309619Y-95797714D02*
X127262000Y-95750095D01*
X127214380Y-95654857D01*
X127214380Y-95416761D01*
X127262000Y-95321523D01*
X127309619Y-95273904D01*
X127404857Y-95226285D01*
X127500095Y-95226285D01*
X127642952Y-95273904D01*
X128214380Y-95845333D01*
X128214380Y-95226285D01*
%TO.C,J4*%
X165701380Y-115283333D02*
X166415666Y-115283333D01*
X166558523Y-115330952D01*
X166653761Y-115426190D01*
X166701380Y-115569047D01*
X166701380Y-115664285D01*
X166034714Y-114378571D02*
X166701380Y-114378571D01*
X165653761Y-114616666D02*
X166368047Y-114854761D01*
X166368047Y-114235714D01*
%TO.C,C4*%
X136403142Y-102020666D02*
X136450761Y-102068285D01*
X136498380Y-102211142D01*
X136498380Y-102306380D01*
X136450761Y-102449238D01*
X136355523Y-102544476D01*
X136260285Y-102592095D01*
X136069809Y-102639714D01*
X135926952Y-102639714D01*
X135736476Y-102592095D01*
X135641238Y-102544476D01*
X135546000Y-102449238D01*
X135498380Y-102306380D01*
X135498380Y-102211142D01*
X135546000Y-102068285D01*
X135593619Y-102020666D01*
X135831714Y-101163523D02*
X136498380Y-101163523D01*
X135450761Y-101401619D02*
X136165047Y-101639714D01*
X136165047Y-101020666D01*
%TO.C,J5*%
X134402666Y-140280380D02*
X134402666Y-140994666D01*
X134355047Y-141137523D01*
X134259809Y-141232761D01*
X134116952Y-141280380D01*
X134021714Y-141280380D01*
X135355047Y-140280380D02*
X134878857Y-140280380D01*
X134831238Y-140756571D01*
X134878857Y-140708952D01*
X134974095Y-140661333D01*
X135212190Y-140661333D01*
X135307428Y-140708952D01*
X135355047Y-140756571D01*
X135402666Y-140851809D01*
X135402666Y-141089904D01*
X135355047Y-141185142D01*
X135307428Y-141232761D01*
X135212190Y-141280380D01*
X134974095Y-141280380D01*
X134878857Y-141232761D01*
X134831238Y-141185142D01*
%TO.C,C2*%
X167140833Y-120373142D02*
X167093214Y-120420761D01*
X166950357Y-120468380D01*
X166855119Y-120468380D01*
X166712261Y-120420761D01*
X166617023Y-120325523D01*
X166569404Y-120230285D01*
X166521785Y-120039809D01*
X166521785Y-119896952D01*
X166569404Y-119706476D01*
X166617023Y-119611238D01*
X166712261Y-119516000D01*
X166855119Y-119468380D01*
X166950357Y-119468380D01*
X167093214Y-119516000D01*
X167140833Y-119563619D01*
X167521785Y-119563619D02*
X167569404Y-119516000D01*
X167664642Y-119468380D01*
X167902738Y-119468380D01*
X167997976Y-119516000D01*
X168045595Y-119563619D01*
X168093214Y-119658857D01*
X168093214Y-119754095D01*
X168045595Y-119896952D01*
X167474166Y-120468380D01*
X168093214Y-120468380D01*
%TO.C,U2*%
X161417095Y-133333380D02*
X161417095Y-134142904D01*
X161464714Y-134238142D01*
X161512333Y-134285761D01*
X161607571Y-134333380D01*
X161798047Y-134333380D01*
X161893285Y-134285761D01*
X161940904Y-134238142D01*
X161988523Y-134142904D01*
X161988523Y-133333380D01*
X162417095Y-133428619D02*
X162464714Y-133381000D01*
X162559952Y-133333380D01*
X162798047Y-133333380D01*
X162893285Y-133381000D01*
X162940904Y-133428619D01*
X162988523Y-133523857D01*
X162988523Y-133619095D01*
X162940904Y-133761952D01*
X162369476Y-134333380D01*
X162988523Y-134333380D01*
%TO.C,C5*%
X133101142Y-107354666D02*
X133148761Y-107402285D01*
X133196380Y-107545142D01*
X133196380Y-107640380D01*
X133148761Y-107783238D01*
X133053523Y-107878476D01*
X132958285Y-107926095D01*
X132767809Y-107973714D01*
X132624952Y-107973714D01*
X132434476Y-107926095D01*
X132339238Y-107878476D01*
X132244000Y-107783238D01*
X132196380Y-107640380D01*
X132196380Y-107545142D01*
X132244000Y-107402285D01*
X132291619Y-107354666D01*
X132196380Y-106449904D02*
X132196380Y-106926095D01*
X132672571Y-106973714D01*
X132624952Y-106926095D01*
X132577333Y-106830857D01*
X132577333Y-106592761D01*
X132624952Y-106497523D01*
X132672571Y-106449904D01*
X132767809Y-106402285D01*
X133005904Y-106402285D01*
X133101142Y-106449904D01*
X133148761Y-106497523D01*
X133196380Y-106592761D01*
X133196380Y-106830857D01*
X133148761Y-106926095D01*
X133101142Y-106973714D01*
%TO.C,R1*%
X136468380Y-105576666D02*
X135992190Y-105910000D01*
X136468380Y-106148095D02*
X135468380Y-106148095D01*
X135468380Y-105767142D01*
X135516000Y-105671904D01*
X135563619Y-105624285D01*
X135658857Y-105576666D01*
X135801714Y-105576666D01*
X135896952Y-105624285D01*
X135944571Y-105671904D01*
X135992190Y-105767142D01*
X135992190Y-106148095D01*
X136468380Y-104624285D02*
X136468380Y-105195714D01*
X136468380Y-104910000D02*
X135468380Y-104910000D01*
X135611238Y-105005238D01*
X135706476Y-105100476D01*
X135754095Y-105195714D01*
%TO.C,TP+5v1*%
X160837904Y-109318380D02*
X161409333Y-109318380D01*
X161123619Y-110318380D02*
X161123619Y-109318380D01*
X161742666Y-110318380D02*
X161742666Y-109318380D01*
X162123619Y-109318380D01*
X162218857Y-109366000D01*
X162266476Y-109413619D01*
X162314095Y-109508857D01*
X162314095Y-109651714D01*
X162266476Y-109746952D01*
X162218857Y-109794571D01*
X162123619Y-109842190D01*
X161742666Y-109842190D01*
X162742666Y-109937428D02*
X163504571Y-109937428D01*
X163123619Y-110318380D02*
X163123619Y-109556476D01*
X164456952Y-109318380D02*
X163980761Y-109318380D01*
X163933142Y-109794571D01*
X163980761Y-109746952D01*
X164076000Y-109699333D01*
X164314095Y-109699333D01*
X164409333Y-109746952D01*
X164456952Y-109794571D01*
X164504571Y-109889809D01*
X164504571Y-110127904D01*
X164456952Y-110223142D01*
X164409333Y-110270761D01*
X164314095Y-110318380D01*
X164076000Y-110318380D01*
X163980761Y-110270761D01*
X163933142Y-110223142D01*
X164837904Y-109651714D02*
X165076000Y-110318380D01*
X165314095Y-109651714D01*
X166218857Y-110318380D02*
X165647428Y-110318380D01*
X165933142Y-110318380D02*
X165933142Y-109318380D01*
X165837904Y-109461238D01*
X165742666Y-109556476D01*
X165647428Y-109604095D01*
%TO.C,C10*%
X168394142Y-137488142D02*
X168346523Y-137535761D01*
X168203666Y-137583380D01*
X168108428Y-137583380D01*
X167965571Y-137535761D01*
X167870333Y-137440523D01*
X167822714Y-137345285D01*
X167775095Y-137154809D01*
X167775095Y-137011952D01*
X167822714Y-136821476D01*
X167870333Y-136726238D01*
X167965571Y-136631000D01*
X168108428Y-136583380D01*
X168203666Y-136583380D01*
X168346523Y-136631000D01*
X168394142Y-136678619D01*
X169346523Y-137583380D02*
X168775095Y-137583380D01*
X169060809Y-137583380D02*
X169060809Y-136583380D01*
X168965571Y-136726238D01*
X168870333Y-136821476D01*
X168775095Y-136869095D01*
X169965571Y-136583380D02*
X170060809Y-136583380D01*
X170156047Y-136631000D01*
X170203666Y-136678619D01*
X170251285Y-136773857D01*
X170298904Y-136964333D01*
X170298904Y-137202428D01*
X170251285Y-137392904D01*
X170203666Y-137488142D01*
X170156047Y-137535761D01*
X170060809Y-137583380D01*
X169965571Y-137583380D01*
X169870333Y-137535761D01*
X169822714Y-137488142D01*
X169775095Y-137392904D01*
X169727476Y-137202428D01*
X169727476Y-136964333D01*
X169775095Y-136773857D01*
X169822714Y-136678619D01*
X169870333Y-136631000D01*
X169965571Y-136583380D01*
%TO.C,J1*%
X132312380Y-115283333D02*
X133026666Y-115283333D01*
X133169523Y-115330952D01*
X133264761Y-115426190D01*
X133312380Y-115569047D01*
X133312380Y-115664285D01*
X133312380Y-114283333D02*
X133312380Y-114854761D01*
X133312380Y-114569047D02*
X132312380Y-114569047D01*
X132455238Y-114664285D01*
X132550476Y-114759523D01*
X132598095Y-114854761D01*
%TO.C,U1*%
X146163095Y-89402380D02*
X146163095Y-90211904D01*
X146210714Y-90307142D01*
X146258333Y-90354761D01*
X146353571Y-90402380D01*
X146544047Y-90402380D01*
X146639285Y-90354761D01*
X146686904Y-90307142D01*
X146734523Y-90211904D01*
X146734523Y-89402380D01*
X147734523Y-90402380D02*
X147163095Y-90402380D01*
X147448809Y-90402380D02*
X147448809Y-89402380D01*
X147353571Y-89545238D01*
X147258333Y-89640476D01*
X147163095Y-89688095D01*
X142163095Y-94416666D02*
X142639285Y-94416666D01*
X142067857Y-94702380D02*
X142401190Y-93702380D01*
X142734523Y-94702380D01*
X143067857Y-94035714D02*
X143067857Y-94702380D01*
X143067857Y-94130952D02*
X143115476Y-94083333D01*
X143210714Y-94035714D01*
X143353571Y-94035714D01*
X143448809Y-94083333D01*
X143496428Y-94178571D01*
X143496428Y-94702380D01*
X143829761Y-94035714D02*
X144210714Y-94035714D01*
X143972619Y-93702380D02*
X143972619Y-94559523D01*
X144020238Y-94654761D01*
X144115476Y-94702380D01*
X144210714Y-94702380D01*
X144925000Y-94654761D02*
X144829761Y-94702380D01*
X144639285Y-94702380D01*
X144544047Y-94654761D01*
X144496428Y-94559523D01*
X144496428Y-94178571D01*
X144544047Y-94083333D01*
X144639285Y-94035714D01*
X144829761Y-94035714D01*
X144925000Y-94083333D01*
X144972619Y-94178571D01*
X144972619Y-94273809D01*
X144496428Y-94369047D01*
X145401190Y-94035714D02*
X145401190Y-94702380D01*
X145401190Y-94130952D02*
X145448809Y-94083333D01*
X145544047Y-94035714D01*
X145686904Y-94035714D01*
X145782142Y-94083333D01*
X145829761Y-94178571D01*
X145829761Y-94702380D01*
X146305952Y-94035714D02*
X146305952Y-94702380D01*
X146305952Y-94130952D02*
X146353571Y-94083333D01*
X146448809Y-94035714D01*
X146591666Y-94035714D01*
X146686904Y-94083333D01*
X146734523Y-94178571D01*
X146734523Y-94702380D01*
X147639285Y-94702380D02*
X147639285Y-94178571D01*
X147591666Y-94083333D01*
X147496428Y-94035714D01*
X147305952Y-94035714D01*
X147210714Y-94083333D01*
X147639285Y-94654761D02*
X147544047Y-94702380D01*
X147305952Y-94702380D01*
X147210714Y-94654761D01*
X147163095Y-94559523D01*
X147163095Y-94464285D01*
X147210714Y-94369047D01*
X147305952Y-94321428D01*
X147544047Y-94321428D01*
X147639285Y-94273809D01*
X148829761Y-94416666D02*
X149305952Y-94416666D01*
X148734523Y-94702380D02*
X149067857Y-93702380D01*
X149401190Y-94702380D01*
X149734523Y-94702380D02*
X149734523Y-94035714D01*
X149734523Y-94226190D02*
X149782142Y-94130952D01*
X149829761Y-94083333D01*
X149925000Y-94035714D01*
X150020238Y-94035714D01*
X150734523Y-94654761D02*
X150639285Y-94702380D01*
X150448809Y-94702380D01*
X150353571Y-94654761D01*
X150305952Y-94559523D01*
X150305952Y-94178571D01*
X150353571Y-94083333D01*
X150448809Y-94035714D01*
X150639285Y-94035714D01*
X150734523Y-94083333D01*
X150782142Y-94178571D01*
X150782142Y-94273809D01*
X150305952Y-94369047D01*
X151639285Y-94702380D02*
X151639285Y-94178571D01*
X151591666Y-94083333D01*
X151496428Y-94035714D01*
X151305952Y-94035714D01*
X151210714Y-94083333D01*
X151639285Y-94654761D02*
X151544047Y-94702380D01*
X151305952Y-94702380D01*
X151210714Y-94654761D01*
X151163095Y-94559523D01*
X151163095Y-94464285D01*
X151210714Y-94369047D01*
X151305952Y-94321428D01*
X151544047Y-94321428D01*
X151639285Y-94273809D01*
%TO.C,U5*%
X146337895Y-133590780D02*
X146337895Y-134400304D01*
X146385514Y-134495542D01*
X146433133Y-134543161D01*
X146528371Y-134590780D01*
X146718847Y-134590780D01*
X146814085Y-134543161D01*
X146861704Y-134495542D01*
X146909323Y-134400304D01*
X146909323Y-133590780D01*
X147861704Y-133590780D02*
X147385514Y-133590780D01*
X147337895Y-134066971D01*
X147385514Y-134019352D01*
X147480752Y-133971733D01*
X147718847Y-133971733D01*
X147814085Y-134019352D01*
X147861704Y-134066971D01*
X147909323Y-134162209D01*
X147909323Y-134400304D01*
X147861704Y-134495542D01*
X147814085Y-134543161D01*
X147718847Y-134590780D01*
X147480752Y-134590780D01*
X147385514Y-134543161D01*
X147337895Y-134495542D01*
%TO.C,C11*%
X138107142Y-121327142D02*
X138059523Y-121374761D01*
X137916666Y-121422380D01*
X137821428Y-121422380D01*
X137678571Y-121374761D01*
X137583333Y-121279523D01*
X137535714Y-121184285D01*
X137488095Y-120993809D01*
X137488095Y-120850952D01*
X137535714Y-120660476D01*
X137583333Y-120565238D01*
X137678571Y-120470000D01*
X137821428Y-120422380D01*
X137916666Y-120422380D01*
X138059523Y-120470000D01*
X138107142Y-120517619D01*
X139059523Y-121422380D02*
X138488095Y-121422380D01*
X138773809Y-121422380D02*
X138773809Y-120422380D01*
X138678571Y-120565238D01*
X138583333Y-120660476D01*
X138488095Y-120708095D01*
X140011904Y-121422380D02*
X139440476Y-121422380D01*
X139726190Y-121422380D02*
X139726190Y-120422380D01*
X139630952Y-120565238D01*
X139535714Y-120660476D01*
X139440476Y-120708095D01*
%TO.C,C7*%
X153521333Y-124718142D02*
X153473714Y-124765761D01*
X153330857Y-124813380D01*
X153235619Y-124813380D01*
X153092761Y-124765761D01*
X152997523Y-124670523D01*
X152949904Y-124575285D01*
X152902285Y-124384809D01*
X152902285Y-124241952D01*
X152949904Y-124051476D01*
X152997523Y-123956238D01*
X153092761Y-123861000D01*
X153235619Y-123813380D01*
X153330857Y-123813380D01*
X153473714Y-123861000D01*
X153521333Y-123908619D01*
X153854666Y-123813380D02*
X154521333Y-123813380D01*
X154092761Y-124813380D01*
%TO.C,U4*%
X161813095Y-121427380D02*
X161813095Y-122236904D01*
X161860714Y-122332142D01*
X161908333Y-122379761D01*
X162003571Y-122427380D01*
X162194047Y-122427380D01*
X162289285Y-122379761D01*
X162336904Y-122332142D01*
X162384523Y-122236904D01*
X162384523Y-121427380D01*
X163289285Y-121760714D02*
X163289285Y-122427380D01*
X163051190Y-121379761D02*
X162813095Y-122094047D01*
X163432142Y-122094047D01*
%TO.C,C8*%
X153521333Y-129925142D02*
X153473714Y-129972761D01*
X153330857Y-130020380D01*
X153235619Y-130020380D01*
X153092761Y-129972761D01*
X152997523Y-129877523D01*
X152949904Y-129782285D01*
X152902285Y-129591809D01*
X152902285Y-129448952D01*
X152949904Y-129258476D01*
X152997523Y-129163238D01*
X153092761Y-129068000D01*
X153235619Y-129020380D01*
X153330857Y-129020380D01*
X153473714Y-129068000D01*
X153521333Y-129115619D01*
X154092761Y-129448952D02*
X153997523Y-129401333D01*
X153949904Y-129353714D01*
X153902285Y-129258476D01*
X153902285Y-129210857D01*
X153949904Y-129115619D01*
X153997523Y-129068000D01*
X154092761Y-129020380D01*
X154283238Y-129020380D01*
X154378476Y-129068000D01*
X154426095Y-129115619D01*
X154473714Y-129210857D01*
X154473714Y-129258476D01*
X154426095Y-129353714D01*
X154378476Y-129401333D01*
X154283238Y-129448952D01*
X154092761Y-129448952D01*
X153997523Y-129496571D01*
X153949904Y-129544190D01*
X153902285Y-129639428D01*
X153902285Y-129829904D01*
X153949904Y-129925142D01*
X153997523Y-129972761D01*
X154092761Y-130020380D01*
X154283238Y-130020380D01*
X154378476Y-129972761D01*
X154426095Y-129925142D01*
X154473714Y-129829904D01*
X154473714Y-129639428D01*
X154426095Y-129544190D01*
X154378476Y-129496571D01*
X154283238Y-129448952D01*
%TO.C,J3*%
X170609380Y-151996333D02*
X171323666Y-151996333D01*
X171466523Y-152043952D01*
X171561761Y-152139190D01*
X171609380Y-152282047D01*
X171609380Y-152377285D01*
X170609380Y-151615380D02*
X170609380Y-150996333D01*
X170990333Y-151329666D01*
X170990333Y-151186809D01*
X171037952Y-151091571D01*
X171085571Y-151043952D01*
X171180809Y-150996333D01*
X171418904Y-150996333D01*
X171514142Y-151043952D01*
X171561761Y-151091571D01*
X171609380Y-151186809D01*
X171609380Y-151472523D01*
X171561761Y-151567761D01*
X171514142Y-151615380D01*
%TO.C,U3*%
X146388095Y-124152380D02*
X146388095Y-124961904D01*
X146435714Y-125057142D01*
X146483333Y-125104761D01*
X146578571Y-125152380D01*
X146769047Y-125152380D01*
X146864285Y-125104761D01*
X146911904Y-125057142D01*
X146959523Y-124961904D01*
X146959523Y-124152380D01*
X147340476Y-124152380D02*
X147959523Y-124152380D01*
X147626190Y-124533333D01*
X147769047Y-124533333D01*
X147864285Y-124580952D01*
X147911904Y-124628571D01*
X147959523Y-124723809D01*
X147959523Y-124961904D01*
X147911904Y-125057142D01*
X147864285Y-125104761D01*
X147769047Y-125152380D01*
X147483333Y-125152380D01*
X147388095Y-125104761D01*
X147340476Y-125057142D01*
%TO.C,D2*%
X135372619Y-115711904D02*
X136372619Y-115711904D01*
X136372619Y-115950000D01*
X136325000Y-116092857D01*
X136229761Y-116188095D01*
X136134523Y-116235714D01*
X135944047Y-116283333D01*
X135801190Y-116283333D01*
X135610714Y-116235714D01*
X135515476Y-116188095D01*
X135420238Y-116092857D01*
X135372619Y-115950000D01*
X135372619Y-115711904D01*
X136277380Y-116664285D02*
X136325000Y-116711904D01*
X136372619Y-116807142D01*
X136372619Y-117045238D01*
X136325000Y-117140476D01*
X136277380Y-117188095D01*
X136182142Y-117235714D01*
X136086904Y-117235714D01*
X135944047Y-117188095D01*
X135372619Y-116616666D01*
X135372619Y-117235714D01*
%TO.C,SW2*%
X160516666Y-91829761D02*
X160659523Y-91877380D01*
X160897619Y-91877380D01*
X160992857Y-91829761D01*
X161040476Y-91782142D01*
X161088095Y-91686904D01*
X161088095Y-91591666D01*
X161040476Y-91496428D01*
X160992857Y-91448809D01*
X160897619Y-91401190D01*
X160707142Y-91353571D01*
X160611904Y-91305952D01*
X160564285Y-91258333D01*
X160516666Y-91163095D01*
X160516666Y-91067857D01*
X160564285Y-90972619D01*
X160611904Y-90925000D01*
X160707142Y-90877380D01*
X160945238Y-90877380D01*
X161088095Y-90925000D01*
X161421428Y-90877380D02*
X161659523Y-91877380D01*
X161850000Y-91163095D01*
X162040476Y-91877380D01*
X162278571Y-90877380D01*
X162611904Y-90972619D02*
X162659523Y-90925000D01*
X162754761Y-90877380D01*
X162992857Y-90877380D01*
X163088095Y-90925000D01*
X163135714Y-90972619D01*
X163183333Y-91067857D01*
X163183333Y-91163095D01*
X163135714Y-91305952D01*
X162564285Y-91877380D01*
X163183333Y-91877380D01*
%TO.C,D3*%
X158519904Y-122486380D02*
X158519904Y-121486380D01*
X158758000Y-121486380D01*
X158900857Y-121534000D01*
X158996095Y-121629238D01*
X159043714Y-121724476D01*
X159091333Y-121914952D01*
X159091333Y-122057809D01*
X159043714Y-122248285D01*
X158996095Y-122343523D01*
X158900857Y-122438761D01*
X158758000Y-122486380D01*
X158519904Y-122486380D01*
X159424666Y-121486380D02*
X160043714Y-121486380D01*
X159710380Y-121867333D01*
X159853238Y-121867333D01*
X159948476Y-121914952D01*
X159996095Y-121962571D01*
X160043714Y-122057809D01*
X160043714Y-122295904D01*
X159996095Y-122391142D01*
X159948476Y-122438761D01*
X159853238Y-122486380D01*
X159567523Y-122486380D01*
X159472285Y-122438761D01*
X159424666Y-122391142D01*
%TO.C,J2*%
X166816666Y-109597380D02*
X166816666Y-110311666D01*
X166769047Y-110454523D01*
X166673809Y-110549761D01*
X166530952Y-110597380D01*
X166435714Y-110597380D01*
X167245238Y-109692619D02*
X167292857Y-109645000D01*
X167388095Y-109597380D01*
X167626190Y-109597380D01*
X167721428Y-109645000D01*
X167769047Y-109692619D01*
X167816666Y-109787857D01*
X167816666Y-109883095D01*
X167769047Y-110025952D01*
X167197619Y-110597380D01*
X167816666Y-110597380D01*
%TO.C,C12*%
X139852942Y-138149742D02*
X139805323Y-138197361D01*
X139662466Y-138244980D01*
X139567228Y-138244980D01*
X139424371Y-138197361D01*
X139329133Y-138102123D01*
X139281514Y-138006885D01*
X139233895Y-137816409D01*
X139233895Y-137673552D01*
X139281514Y-137483076D01*
X139329133Y-137387838D01*
X139424371Y-137292600D01*
X139567228Y-137244980D01*
X139662466Y-137244980D01*
X139805323Y-137292600D01*
X139852942Y-137340219D01*
X140805323Y-138244980D02*
X140233895Y-138244980D01*
X140519609Y-138244980D02*
X140519609Y-137244980D01*
X140424371Y-137387838D01*
X140329133Y-137483076D01*
X140233895Y-137530695D01*
X141186276Y-137340219D02*
X141233895Y-137292600D01*
X141329133Y-137244980D01*
X141567228Y-137244980D01*
X141662466Y-137292600D01*
X141710085Y-137340219D01*
X141757704Y-137435457D01*
X141757704Y-137530695D01*
X141710085Y-137673552D01*
X141138657Y-138244980D01*
X141757704Y-138244980D01*
%TO.C,SW1*%
X130166666Y-91829761D02*
X130309523Y-91877380D01*
X130547619Y-91877380D01*
X130642857Y-91829761D01*
X130690476Y-91782142D01*
X130738095Y-91686904D01*
X130738095Y-91591666D01*
X130690476Y-91496428D01*
X130642857Y-91448809D01*
X130547619Y-91401190D01*
X130357142Y-91353571D01*
X130261904Y-91305952D01*
X130214285Y-91258333D01*
X130166666Y-91163095D01*
X130166666Y-91067857D01*
X130214285Y-90972619D01*
X130261904Y-90925000D01*
X130357142Y-90877380D01*
X130595238Y-90877380D01*
X130738095Y-90925000D01*
X131071428Y-90877380D02*
X131309523Y-91877380D01*
X131500000Y-91163095D01*
X131690476Y-91877380D01*
X131928571Y-90877380D01*
X132833333Y-91877380D02*
X132261904Y-91877380D01*
X132547619Y-91877380D02*
X132547619Y-90877380D01*
X132452380Y-91020238D01*
X132357142Y-91115476D01*
X132261904Y-91163095D01*
%TO.C,GND1*%
X128301904Y-127400000D02*
X128206666Y-127352380D01*
X128063809Y-127352380D01*
X127920952Y-127400000D01*
X127825714Y-127495238D01*
X127778095Y-127590476D01*
X127730476Y-127780952D01*
X127730476Y-127923809D01*
X127778095Y-128114285D01*
X127825714Y-128209523D01*
X127920952Y-128304761D01*
X128063809Y-128352380D01*
X128159047Y-128352380D01*
X128301904Y-128304761D01*
X128349523Y-128257142D01*
X128349523Y-127923809D01*
X128159047Y-127923809D01*
X128778095Y-128352380D02*
X128778095Y-127352380D01*
X129349523Y-128352380D01*
X129349523Y-127352380D01*
X129825714Y-128352380D02*
X129825714Y-127352380D01*
X130063809Y-127352380D01*
X130206666Y-127400000D01*
X130301904Y-127495238D01*
X130349523Y-127590476D01*
X130397142Y-127780952D01*
X130397142Y-127923809D01*
X130349523Y-128114285D01*
X130301904Y-128209523D01*
X130206666Y-128304761D01*
X130063809Y-128352380D01*
X129825714Y-128352380D01*
X131349523Y-128352380D02*
X130778095Y-128352380D01*
X131063809Y-128352380D02*
X131063809Y-127352380D01*
X130968571Y-127495238D01*
X130873333Y-127590476D01*
X130778095Y-127638095D01*
%TO.C,TP+3v3*%
X127309904Y-121118380D02*
X127881333Y-121118380D01*
X127595619Y-122118380D02*
X127595619Y-121118380D01*
X128214666Y-122118380D02*
X128214666Y-121118380D01*
X128595619Y-121118380D01*
X128690857Y-121166000D01*
X128738476Y-121213619D01*
X128786095Y-121308857D01*
X128786095Y-121451714D01*
X128738476Y-121546952D01*
X128690857Y-121594571D01*
X128595619Y-121642190D01*
X128214666Y-121642190D01*
X129214666Y-121737428D02*
X129976571Y-121737428D01*
X129595619Y-122118380D02*
X129595619Y-121356476D01*
X130357523Y-121118380D02*
X130976571Y-121118380D01*
X130643238Y-121499333D01*
X130786095Y-121499333D01*
X130881333Y-121546952D01*
X130928952Y-121594571D01*
X130976571Y-121689809D01*
X130976571Y-121927904D01*
X130928952Y-122023142D01*
X130881333Y-122070761D01*
X130786095Y-122118380D01*
X130500380Y-122118380D01*
X130405142Y-122070761D01*
X130357523Y-122023142D01*
X131309904Y-121451714D02*
X131548000Y-122118380D01*
X131786095Y-121451714D01*
X132071809Y-121118380D02*
X132690857Y-121118380D01*
X132357523Y-121499333D01*
X132500380Y-121499333D01*
X132595619Y-121546952D01*
X132643238Y-121594571D01*
X132690857Y-121689809D01*
X132690857Y-121927904D01*
X132643238Y-122023142D01*
X132595619Y-122070761D01*
X132500380Y-122118380D01*
X132214666Y-122118380D01*
X132119428Y-122070761D01*
X132071809Y-122023142D01*
D11*
%TO.C,C6*%
X131013748Y-98860000D02*
X131536252Y-98860000D01*
X131013748Y-97390000D02*
X131536252Y-97390000D01*
%TO.C,C9*%
X168775748Y-134593000D02*
X169298252Y-134593000D01*
X168775748Y-133123000D02*
X169298252Y-133123000D01*
%TO.C,VR1*%
X138575000Y-126665000D02*
X139225000Y-126665000D01*
X138575000Y-126665000D02*
X136900000Y-126665000D01*
X138575000Y-129785000D02*
X137925000Y-129785000D01*
X138575000Y-129785000D02*
X139225000Y-129785000D01*
%TO.C,C3*%
X131799000Y-101592748D02*
X131799000Y-102115252D01*
X130329000Y-101592748D02*
X130329000Y-102115252D01*
%TO.C,C1*%
X159438748Y-133323000D02*
X159961252Y-133323000D01*
X159438748Y-131853000D02*
X159961252Y-131853000D01*
%TO.C,TP?-3v3*%
X130990000Y-136144000D02*
G75*
G03*
X130990000Y-136144000I-1450000J0D01*
G01*
%TO.C,D1*%
X135050000Y-112100000D02*
X134100000Y-112100000D01*
X134100000Y-112100000D02*
X134100000Y-113550000D01*
X134100000Y-113550000D02*
X135050000Y-113550000D01*
X135050000Y-113550000D02*
X135050000Y-112100000D01*
%TO.C,C13*%
X153086252Y-138890000D02*
X152563748Y-138890000D01*
X153086252Y-140360000D02*
X152563748Y-140360000D01*
%TO.C,R2*%
X127281000Y-98929564D02*
X127281000Y-98475436D01*
X128751000Y-98929564D02*
X128751000Y-98475436D01*
%TO.C,J4*%
X172439000Y-118710000D02*
X172039000Y-118710000D01*
X167409000Y-116260000D02*
X167409000Y-116710000D01*
X168089000Y-118710000D02*
X168089000Y-118290000D01*
X168089000Y-111190000D02*
X168089000Y-111610000D01*
X167859000Y-116710000D02*
X167409000Y-116710000D01*
X170069000Y-118710000D02*
X168089000Y-118710000D01*
X170069000Y-111190000D02*
X168089000Y-111190000D01*
X172039000Y-111190000D02*
X172439000Y-111190000D01*
%TO.C,C4*%
X133631000Y-101592748D02*
X133631000Y-102115252D01*
X135101000Y-101592748D02*
X135101000Y-102115252D01*
%TO.C,J5*%
X126986000Y-152773000D02*
X140986000Y-152773000D01*
X146756000Y-144088000D02*
X140986000Y-144088000D01*
X140986000Y-142883000D02*
X126986000Y-142883000D01*
X140986000Y-151568000D02*
X146756000Y-151568000D01*
X140986000Y-152773000D02*
X140986000Y-151568000D01*
X140986000Y-144088000D02*
X140986000Y-142883000D01*
X146756000Y-151568000D02*
X146756000Y-144088000D01*
%TO.C,C2*%
X165622500Y-122626000D02*
X168307500Y-122626000D01*
X168307500Y-120706000D02*
X165622500Y-120706000D01*
X165622500Y-120706000D02*
X165622500Y-122626000D01*
D10*
%TO.C,U2*%
X159404000Y-145356000D02*
X164954000Y-145356000D01*
X159404000Y-145356000D02*
X159404000Y-145001000D01*
X159404000Y-135081000D02*
X157879000Y-135081000D01*
X159404000Y-134806000D02*
X159404000Y-135081000D01*
X164954000Y-134806000D02*
X164954000Y-135161000D01*
X164954000Y-145356000D02*
X164954000Y-145001000D01*
X159404000Y-134806000D02*
X164954000Y-134806000D01*
D11*
%TO.C,C5*%
X131799000Y-106926748D02*
X131799000Y-107449252D01*
X130329000Y-106926748D02*
X130329000Y-107449252D01*
%TO.C,R1*%
X135101000Y-105182936D02*
X135101000Y-105637064D01*
X133631000Y-105182936D02*
X133631000Y-105637064D01*
%TO.C,TP+5v1*%
X165026000Y-112014000D02*
G75*
G03*
X165026000Y-112014000I-1450000J0D01*
G01*
%TO.C,C10*%
X168775748Y-138076000D02*
X169298252Y-138076000D01*
X168775748Y-139546000D02*
X169298252Y-139546000D01*
%TO.C,J1*%
X131250000Y-113190000D02*
X131700000Y-113190000D01*
X127070000Y-118710000D02*
X126670000Y-118710000D01*
X131700000Y-113640000D02*
X131700000Y-113190000D01*
X131020000Y-111190000D02*
X131020000Y-111610000D01*
X131020000Y-118710000D02*
X131020000Y-118290000D01*
X126670000Y-111190000D02*
X127070000Y-111190000D01*
X129040000Y-118710000D02*
X131020000Y-118710000D01*
X129040000Y-111190000D02*
X131020000Y-111190000D01*
%TO.C,U1*%
X155925000Y-116750000D02*
X154925000Y-116750000D01*
X137925000Y-91250000D02*
X155925000Y-91250000D01*
X155925000Y-97190000D02*
X137925000Y-97190000D01*
X137925000Y-116750000D02*
X138925000Y-116750000D01*
X155925000Y-91250000D02*
X155925000Y-98000000D01*
X137925000Y-91250000D02*
X137925000Y-98000000D01*
X155925000Y-116000000D02*
X155925000Y-116750000D01*
X137925000Y-116000000D02*
X137925000Y-116750000D01*
%TO.C,U5*%
X147099800Y-134983400D02*
X143649800Y-134983400D01*
X147099800Y-140253400D02*
X145149800Y-140253400D01*
X147099800Y-140253400D02*
X149049800Y-140253400D01*
X147099800Y-134983400D02*
X149049800Y-134983400D01*
%TO.C,C11*%
X138488748Y-123385000D02*
X139011252Y-123385000D01*
X138488748Y-121915000D02*
X139011252Y-121915000D01*
%TO.C,C7*%
X153426748Y-125306000D02*
X153949252Y-125306000D01*
X153426748Y-126776000D02*
X153949252Y-126776000D01*
%TO.C,U4*%
X158475000Y-123065000D02*
X164485000Y-123065000D01*
X164485000Y-129885000D02*
X164485000Y-128625000D01*
X164485000Y-123065000D02*
X164485000Y-124325000D01*
X160725000Y-129885000D02*
X164485000Y-129885000D01*
%TO.C,C8*%
X153426748Y-131983000D02*
X153949252Y-131983000D01*
X153426748Y-130513000D02*
X153949252Y-130513000D01*
%TO.C,J3*%
X149277000Y-150333000D02*
X149277000Y-152993000D01*
X169717000Y-152993000D02*
X168387000Y-152993000D01*
X167117000Y-150333000D02*
X149277000Y-150333000D01*
X167117000Y-152993000D02*
X149277000Y-152993000D01*
X167117000Y-150333000D02*
X167117000Y-152993000D01*
X169717000Y-151663000D02*
X169717000Y-152993000D01*
D10*
%TO.C,U3*%
X145080000Y-130770000D02*
X149220000Y-130770000D01*
X144150000Y-125630000D02*
X149220000Y-125630000D01*
D11*
%TO.C,D2*%
X134050000Y-117150000D02*
X135000000Y-117150000D01*
X135000000Y-117150000D02*
X135000000Y-115700000D01*
X135000000Y-115700000D02*
X134050000Y-115700000D01*
X134050000Y-115700000D02*
X134050000Y-117150000D01*
%TO.C,SW2*%
X164050000Y-92445000D02*
X164050000Y-92325000D01*
X164050000Y-92325000D02*
X159650000Y-92325000D01*
X159650000Y-92325000D02*
X159650000Y-92445000D01*
X164050000Y-94595000D02*
X164050000Y-93455000D01*
X159650000Y-95605000D02*
X159650000Y-95725000D01*
X159650000Y-93455000D02*
X159650000Y-94595000D01*
X164050000Y-95725000D02*
X164050000Y-95605000D01*
X159650000Y-95725000D02*
X164050000Y-95725000D01*
%TO.C,D3*%
X159258000Y-121194000D02*
X158608000Y-121194000D01*
X159258000Y-118074000D02*
X158608000Y-118074000D01*
X159258000Y-118074000D02*
X159908000Y-118074000D01*
X159258000Y-121194000D02*
X160933000Y-121194000D01*
%TO.C,J2*%
X165820000Y-108705000D02*
X165820000Y-107375000D01*
X165820000Y-106105000D02*
X165820000Y-98425000D01*
X168480000Y-106105000D02*
X165820000Y-106105000D01*
X167150000Y-108705000D02*
X165820000Y-108705000D01*
X168480000Y-106105000D02*
X168480000Y-98425000D01*
X168480000Y-98425000D02*
X165820000Y-98425000D01*
%TO.C,C12*%
X140234548Y-140207600D02*
X140757052Y-140207600D01*
X140234548Y-138737600D02*
X140757052Y-138737600D01*
%TO.C,SW1*%
X129300000Y-93455000D02*
X129300000Y-94595000D01*
X129300000Y-95605000D02*
X129300000Y-95725000D01*
X133700000Y-92325000D02*
X129300000Y-92325000D01*
X129300000Y-92325000D02*
X129300000Y-92445000D01*
X133700000Y-92445000D02*
X133700000Y-92325000D01*
X133700000Y-95725000D02*
X133700000Y-95605000D01*
X133700000Y-94595000D02*
X133700000Y-93455000D01*
X129300000Y-95725000D02*
X133700000Y-95725000D01*
%TO.C,GND1*%
X130990000Y-130048000D02*
G75*
G03*
X130990000Y-130048000I-1450000J0D01*
G01*
%TO.C,TP+3v3*%
X131244000Y-123952000D02*
G75*
G03*
X131244000Y-123952000I-1450000J0D01*
G01*
%TD*%
M02*
