%TF.GenerationSoftware,KiCad,Pcbnew,6.0.10+dfsg-1~bpo11+1*%
%TF.CreationDate,2023-01-29T22:13:57-06:00*%
%TF.ProjectId,Pedals,50656461-6c73-42e6-9b69-6361645f7063,rev?*%
%TF.SameCoordinates,Original*%
%TF.FileFunction,Legend,Bot*%
%TF.FilePolarity,Positive*%
%FSLAX46Y46*%
G04 Gerber Fmt 4.6, Leading zero omitted, Abs format (unit mm)*
G04 Created by KiCad (PCBNEW 6.0.10+dfsg-1~bpo11+1) date 2023-01-29 22:13:57*
%MOMM*%
%LPD*%
G01*
G04 APERTURE LIST*
%TA.AperFunction,Profile*%
%ADD10C,0.349999*%
%TD*%
%TA.AperFunction,Profile*%
%ADD11C,2.075000*%
%TD*%
%ADD12C,0.150000*%
%ADD13C,0.120000*%
G04 APERTURE END LIST*
D10*
X125183550Y-75797418D02*
X125363960Y-75478420D01*
X166262042Y-73300778D02*
X166553182Y-73527581D01*
X124624190Y-121510361D02*
X124526193Y-121157226D01*
X124336701Y-78587814D02*
X124382194Y-78221573D01*
X161799997Y-71829097D02*
X162171901Y-71838314D01*
X129971872Y-126602905D02*
X129618736Y-126504908D01*
X131058717Y-71865797D02*
X131428097Y-71838314D01*
X169299997Y-79329097D02*
X169299997Y-119329097D01*
X168416448Y-75797418D02*
X168580885Y-76124473D01*
X126766193Y-124888857D02*
X126496700Y-124632400D01*
X129971872Y-72055289D02*
X130329990Y-71974539D01*
X167359757Y-74295289D02*
X167601514Y-74575913D01*
X163270007Y-71974539D02*
X163628126Y-72055289D01*
X169290780Y-119701000D02*
X169263297Y-120070380D01*
X163981261Y-126504908D02*
X163628126Y-126602905D01*
X124382194Y-78221573D02*
X124445443Y-77859086D01*
X131800000Y-126829097D02*
X131428097Y-126819879D01*
X127337956Y-73300778D02*
X127638996Y-73089185D01*
X131428097Y-126819879D02*
X131058717Y-126792397D01*
X126240242Y-74295289D02*
X126496700Y-74025796D01*
X165650675Y-125765138D02*
X165331676Y-125945548D01*
X169154555Y-120799107D02*
X169073805Y-121157226D01*
X168580885Y-76124473D02*
X168729094Y-76458971D01*
X124870904Y-76458971D02*
X125019113Y-76124473D01*
X166553182Y-73527581D02*
X166833806Y-73769338D01*
X163628126Y-72055289D02*
X163981261Y-72153286D01*
X127949323Y-72893056D02*
X128268322Y-72712646D01*
X168860820Y-121857898D02*
X168729094Y-122199223D01*
X125363960Y-123179774D02*
X125183550Y-122860776D01*
X167601514Y-124082282D02*
X167359757Y-124362906D01*
X129618736Y-126504908D02*
X129271199Y-126389919D01*
X124336701Y-120070380D02*
X124309218Y-119701000D01*
X130692477Y-71911290D02*
X131058717Y-71865797D01*
X161799997Y-126829097D02*
X131800000Y-126829097D01*
X125998484Y-124082282D02*
X125771682Y-123791142D01*
X169073805Y-77500968D02*
X169154555Y-77859086D01*
X163628126Y-126602905D02*
X163270007Y-126683655D01*
X168975808Y-77147833D02*
X169073805Y-77500968D01*
X164328798Y-126389919D02*
X163981261Y-126504908D01*
X127337956Y-125357417D02*
X127046816Y-125130614D01*
X124309218Y-119701000D02*
X124300001Y-119329097D01*
D11*
X130737500Y-76000000D02*
G75*
G03*
X130737500Y-76000000I-1037500J0D01*
G01*
D10*
X161799997Y-71829097D02*
X161799997Y-71829097D01*
X129618736Y-72153286D02*
X129971872Y-72055289D01*
X125771682Y-123791142D02*
X125560089Y-123490101D01*
X124300001Y-79329097D02*
X124309218Y-78957193D01*
X127046816Y-125130614D02*
X126766193Y-124888857D01*
X124739178Y-76800295D02*
X124870904Y-76458971D01*
X126496700Y-124632400D02*
X126240242Y-124362906D01*
X166553182Y-125130614D02*
X166262042Y-125357417D01*
X165650675Y-72893056D02*
X165961002Y-73089185D01*
X169263297Y-120070380D02*
X169217804Y-120436620D01*
X127638996Y-125569009D02*
X127337956Y-125357417D01*
X130329990Y-126683655D02*
X129971872Y-126602905D01*
X124739178Y-121857898D02*
X124624190Y-121510361D01*
X128595377Y-72548209D02*
X128929874Y-72400000D01*
X167103300Y-74025796D02*
X167359757Y-74295289D01*
X162541280Y-71865797D02*
X162907520Y-71911290D01*
X162171901Y-71838314D02*
X162541280Y-71865797D01*
X166833806Y-73769338D02*
X167103300Y-74025796D01*
X162907520Y-71911290D02*
X163270007Y-71974539D01*
X131058717Y-126792397D02*
X130692477Y-126746904D01*
X124382194Y-120436620D02*
X124336701Y-120070380D01*
X168729094Y-122199223D02*
X168580885Y-122533720D01*
X165961002Y-73089185D02*
X166262042Y-73300778D01*
X125560089Y-123490101D02*
X125363960Y-123179774D01*
X165004621Y-72548209D02*
X165331676Y-72712646D01*
X168729094Y-76458971D02*
X168860820Y-76800295D01*
X168416448Y-122860776D02*
X168236038Y-123179774D01*
X164670123Y-72400000D02*
X165004621Y-72548209D01*
X163981261Y-72153286D02*
X164328798Y-72268274D01*
X165331676Y-72712646D02*
X165650675Y-72893056D01*
X126766193Y-73769338D02*
X127046816Y-73527581D01*
X129271199Y-72268274D02*
X129618736Y-72153286D01*
X165331676Y-125945548D02*
X165004621Y-126109985D01*
X169299997Y-119329097D02*
X169290780Y-119701000D01*
X126240242Y-124362906D02*
X125998484Y-124082282D01*
X131800000Y-71829097D02*
X161799997Y-71829097D01*
X126496700Y-74025796D02*
X126766193Y-73769338D01*
X169073805Y-121157226D02*
X168975808Y-121510361D01*
X166262042Y-125357417D02*
X165961002Y-125569009D01*
D11*
X164337500Y-76000000D02*
G75*
G03*
X164337500Y-76000000I-1037500J0D01*
G01*
D10*
X168236038Y-123179774D02*
X168039910Y-123490101D01*
X169154555Y-77859086D02*
X169217804Y-78221573D01*
X169217804Y-120436620D02*
X169154555Y-120799107D01*
X129271199Y-126389919D02*
X128929874Y-126258193D01*
X167828317Y-123791142D02*
X167601514Y-124082282D01*
X124445443Y-77859086D02*
X124526193Y-77500968D01*
X128268322Y-125945548D02*
X127949323Y-125765138D01*
X165004621Y-126109985D02*
X164670123Y-126258193D01*
X168236038Y-75478420D02*
X168416448Y-75797418D01*
X130329990Y-71974539D02*
X130692477Y-71911290D01*
X126496700Y-124632400D02*
X126496700Y-124632400D01*
X124526193Y-77500968D02*
X124624190Y-77147833D01*
X168975808Y-121510361D02*
X168860820Y-121857898D01*
X124526193Y-121157226D02*
X124445443Y-120799107D01*
X169290780Y-78957193D02*
X169299997Y-79329097D01*
X131428097Y-71838314D02*
X131800000Y-71829097D01*
X127046816Y-73527581D02*
X127337956Y-73300778D01*
X131800000Y-71829097D02*
X131800000Y-71829097D01*
X166833806Y-124888857D02*
X166553182Y-125130614D01*
X125183550Y-122860776D02*
X125019113Y-122533720D01*
X162541280Y-126792397D02*
X162171901Y-126819879D01*
X125771682Y-74867052D02*
X125998484Y-74575913D01*
X127638996Y-73089185D02*
X127949323Y-72893056D01*
X128929874Y-126258193D02*
X128595377Y-126109985D01*
X168039910Y-75168093D02*
X168236038Y-75478420D01*
X169299997Y-79329097D02*
X169299997Y-79329097D01*
X130692477Y-126746904D02*
X130329990Y-126683655D01*
X163270007Y-126683655D02*
X162907520Y-126746904D01*
X161799997Y-126829097D02*
X161799997Y-126829097D01*
D11*
X130737500Y-122700000D02*
G75*
G03*
X130737500Y-122700000I-1037500J0D01*
G01*
D10*
X167359757Y-124362906D02*
X167103300Y-124632400D01*
X124624190Y-77147833D02*
X124739178Y-76800295D01*
X125560089Y-75168093D02*
X125771682Y-74867052D01*
X125998484Y-74575913D02*
X126240242Y-74295289D01*
X167828317Y-74867052D02*
X168039910Y-75168093D01*
X165961002Y-125569009D02*
X165650675Y-125765138D01*
X127949323Y-125765138D02*
X127638996Y-125569009D01*
X125363960Y-75478420D02*
X125560089Y-75168093D01*
X128595377Y-126109985D02*
X128268322Y-125945548D01*
X164670123Y-126258193D02*
X164328798Y-126389919D01*
X131800000Y-126829097D02*
X131800000Y-126829097D01*
X168580885Y-122533720D02*
X168416448Y-122860776D01*
X124445443Y-120799107D02*
X124382194Y-120436620D01*
X167103300Y-74025796D02*
X167103300Y-74025796D01*
X128268322Y-72712646D02*
X128595377Y-72548209D01*
D11*
X164337500Y-122700000D02*
G75*
G03*
X164337500Y-122700000I-1037500J0D01*
G01*
D10*
X169263297Y-78587814D02*
X169290780Y-78957193D01*
X169299997Y-119329097D02*
X169299997Y-119329097D01*
X168039910Y-123490101D02*
X167828317Y-123791142D01*
X162907520Y-126746904D02*
X162541280Y-126792397D01*
X124300001Y-79329097D02*
X124300001Y-79329097D01*
X124309218Y-78957193D02*
X124336701Y-78587814D01*
X168860820Y-76800295D02*
X168975808Y-77147833D01*
X125019113Y-122533720D02*
X124870904Y-122199223D01*
X164328798Y-72268274D02*
X164670123Y-72400000D01*
X128929874Y-72400000D02*
X129271199Y-72268274D01*
X126496700Y-74025796D02*
X126496700Y-74025796D01*
X162171901Y-126819879D02*
X161799997Y-126829097D01*
X124870904Y-122199223D02*
X124739178Y-121857898D01*
X124300001Y-119329097D02*
X124300001Y-79329097D01*
X167103300Y-124632400D02*
X166833806Y-124888857D01*
X167601514Y-74575913D02*
X167828317Y-74867052D01*
X167103300Y-124632400D02*
X167103300Y-124632400D01*
X169217804Y-78221573D02*
X169263297Y-78587814D01*
X125019113Y-76124473D02*
X125183550Y-75797418D01*
D12*
%TO.C,MODE1*%
X133485714Y-92402380D02*
X133485714Y-91402380D01*
X133152380Y-92116666D01*
X132819047Y-91402380D01*
X132819047Y-92402380D01*
X132152380Y-91402380D02*
X131961904Y-91402380D01*
X131866666Y-91450000D01*
X131771428Y-91545238D01*
X131723809Y-91735714D01*
X131723809Y-92069047D01*
X131771428Y-92259523D01*
X131866666Y-92354761D01*
X131961904Y-92402380D01*
X132152380Y-92402380D01*
X132247619Y-92354761D01*
X132342857Y-92259523D01*
X132390476Y-92069047D01*
X132390476Y-91735714D01*
X132342857Y-91545238D01*
X132247619Y-91450000D01*
X132152380Y-91402380D01*
X131295238Y-92402380D02*
X131295238Y-91402380D01*
X131057142Y-91402380D01*
X130914285Y-91450000D01*
X130819047Y-91545238D01*
X130771428Y-91640476D01*
X130723809Y-91830952D01*
X130723809Y-91973809D01*
X130771428Y-92164285D01*
X130819047Y-92259523D01*
X130914285Y-92354761D01*
X131057142Y-92402380D01*
X131295238Y-92402380D01*
X130295238Y-91878571D02*
X129961904Y-91878571D01*
X129819047Y-92402380D02*
X130295238Y-92402380D01*
X130295238Y-91402380D01*
X129819047Y-91402380D01*
X128866666Y-92402380D02*
X129438095Y-92402380D01*
X129152380Y-92402380D02*
X129152380Y-91402380D01*
X129247619Y-91545238D01*
X129342857Y-91640476D01*
X129438095Y-91688095D01*
%TO.C,C4*%
X154666666Y-99357142D02*
X154714285Y-99404761D01*
X154857142Y-99452380D01*
X154952380Y-99452380D01*
X155095238Y-99404761D01*
X155190476Y-99309523D01*
X155238095Y-99214285D01*
X155285714Y-99023809D01*
X155285714Y-98880952D01*
X155238095Y-98690476D01*
X155190476Y-98595238D01*
X155095238Y-98500000D01*
X154952380Y-98452380D01*
X154857142Y-98452380D01*
X154714285Y-98500000D01*
X154666666Y-98547619D01*
X153809523Y-98785714D02*
X153809523Y-99452380D01*
X154047619Y-98404761D02*
X154285714Y-99119047D01*
X153666666Y-99119047D01*
%TO.C,C5*%
X154666666Y-96857142D02*
X154714285Y-96904761D01*
X154857142Y-96952380D01*
X154952380Y-96952380D01*
X155095238Y-96904761D01*
X155190476Y-96809523D01*
X155238095Y-96714285D01*
X155285714Y-96523809D01*
X155285714Y-96380952D01*
X155238095Y-96190476D01*
X155190476Y-96095238D01*
X155095238Y-96000000D01*
X154952380Y-95952380D01*
X154857142Y-95952380D01*
X154714285Y-96000000D01*
X154666666Y-96047619D01*
X153761904Y-95952380D02*
X154238095Y-95952380D01*
X154285714Y-96428571D01*
X154238095Y-96380952D01*
X154142857Y-96333333D01*
X153904761Y-96333333D01*
X153809523Y-96380952D01*
X153761904Y-96428571D01*
X153714285Y-96523809D01*
X153714285Y-96761904D01*
X153761904Y-96857142D01*
X153809523Y-96904761D01*
X153904761Y-96952380D01*
X154142857Y-96952380D01*
X154238095Y-96904761D01*
X154285714Y-96857142D01*
%TO.C,U2*%
X144261904Y-91452380D02*
X144261904Y-92261904D01*
X144214285Y-92357142D01*
X144166666Y-92404761D01*
X144071428Y-92452380D01*
X143880952Y-92452380D01*
X143785714Y-92404761D01*
X143738095Y-92357142D01*
X143690476Y-92261904D01*
X143690476Y-91452380D01*
X143261904Y-91547619D02*
X143214285Y-91500000D01*
X143119047Y-91452380D01*
X142880952Y-91452380D01*
X142785714Y-91500000D01*
X142738095Y-91547619D01*
X142690476Y-91642857D01*
X142690476Y-91738095D01*
X142738095Y-91880952D01*
X143309523Y-92452380D01*
X142690476Y-92452380D01*
D13*
%TO.C,MODE1*%
X134430000Y-92770000D02*
X127970000Y-92770000D01*
X134430000Y-99230000D02*
X134430000Y-99200000D01*
X134430000Y-94700000D02*
X134430000Y-97300000D01*
X127970000Y-92770000D02*
X127970000Y-92800000D01*
X134430000Y-99230000D02*
X127970000Y-99230000D01*
X134430000Y-92800000D02*
X134430000Y-92770000D01*
X127970000Y-99230000D02*
X127970000Y-99200000D01*
X127970000Y-94700000D02*
X127970000Y-97300000D01*
%TO.C,C4*%
X150738748Y-98265000D02*
X151261252Y-98265000D01*
X150738748Y-99735000D02*
X151261252Y-99735000D01*
%TO.C,C5*%
X150738748Y-95765000D02*
X151261252Y-95765000D01*
X150738748Y-97235000D02*
X151261252Y-97235000D01*
%TO.C,U2*%
X141590000Y-99910000D02*
X141590000Y-98650000D01*
X147600000Y-93090000D02*
X141590000Y-93090000D01*
X141590000Y-93090000D02*
X141590000Y-94350000D01*
X145350000Y-99910000D02*
X141590000Y-99910000D01*
%TD*%
M02*
