%TF.GenerationSoftware,KiCad,Pcbnew,6.0.10+dfsg-1~bpo11+1*%
%TF.CreationDate,2023-01-30T12:17:40-06:00*%
%TF.ProjectId,Pedals,50656461-6c73-42e6-9b69-6361645f7063,rev?*%
%TF.SameCoordinates,Original*%
%TF.FileFunction,Copper,L1,Top*%
%TF.FilePolarity,Positive*%
%FSLAX46Y46*%
G04 Gerber Fmt 4.6, Leading zero omitted, Abs format (unit mm)*
G04 Created by KiCad (PCBNEW 6.0.10+dfsg-1~bpo11+1) date 2023-01-30 12:17:40*
%MOMM*%
%LPD*%
G01*
G04 APERTURE LIST*
G04 Aperture macros list*
%AMRoundRect*
0 Rectangle with rounded corners*
0 $1 Rounding radius*
0 $2 $3 $4 $5 $6 $7 $8 $9 X,Y pos of 4 corners*
0 Add a 4 corners polygon primitive as box body*
4,1,4,$2,$3,$4,$5,$6,$7,$8,$9,$2,$3,0*
0 Add four circle primitives for the rounded corners*
1,1,$1+$1,$2,$3*
1,1,$1+$1,$4,$5*
1,1,$1+$1,$6,$7*
1,1,$1+$1,$8,$9*
0 Add four rect primitives between the rounded corners*
20,1,$1+$1,$2,$3,$4,$5,0*
20,1,$1+$1,$4,$5,$6,$7,0*
20,1,$1+$1,$6,$7,$8,$9,0*
20,1,$1+$1,$8,$9,$2,$3,0*%
G04 Aperture macros list end*
%TA.AperFunction,Profile*%
%ADD10C,0.349999*%
%TD*%
%TA.AperFunction,Profile*%
%ADD11C,2.075000*%
%TD*%
%TA.AperFunction,ComponentPad*%
%ADD12RoundRect,0.250000X0.600000X0.725000X-0.600000X0.725000X-0.600000X-0.725000X0.600000X-0.725000X0*%
%TD*%
%TA.AperFunction,ComponentPad*%
%ADD13O,1.700000X1.950000*%
%TD*%
%TA.AperFunction,SMDPad,CuDef*%
%ADD14RoundRect,0.250000X0.475000X-0.337500X0.475000X0.337500X-0.475000X0.337500X-0.475000X-0.337500X0*%
%TD*%
%TA.AperFunction,SMDPad,CuDef*%
%ADD15RoundRect,0.250000X-0.325000X-0.450000X0.325000X-0.450000X0.325000X0.450000X-0.325000X0.450000X0*%
%TD*%
%TA.AperFunction,ComponentPad*%
%ADD16R,1.500000X1.500000*%
%TD*%
%TA.AperFunction,ComponentPad*%
%ADD17C,1.500000*%
%TD*%
%TA.AperFunction,ComponentPad*%
%ADD18C,2.300000*%
%TD*%
%TA.AperFunction,SMDPad,CuDef*%
%ADD19RoundRect,0.250000X0.450000X-0.350000X0.450000X0.350000X-0.450000X0.350000X-0.450000X-0.350000X0*%
%TD*%
%TA.AperFunction,SMDPad,CuDef*%
%ADD20RoundRect,0.250000X0.350000X0.450000X-0.350000X0.450000X-0.350000X-0.450000X0.350000X-0.450000X0*%
%TD*%
%TA.AperFunction,SMDPad,CuDef*%
%ADD21R,1.000000X1.450000*%
%TD*%
%TA.AperFunction,SMDPad,CuDef*%
%ADD22RoundRect,0.125000X-0.625000X-0.125000X0.625000X-0.125000X0.625000X0.125000X-0.625000X0.125000X0*%
%TD*%
%TA.AperFunction,SMDPad,CuDef*%
%ADD23RoundRect,0.125000X-0.125000X-0.625000X0.125000X-0.625000X0.125000X0.625000X-0.125000X0.625000X0*%
%TD*%
%TA.AperFunction,ComponentPad*%
%ADD24R,1.700000X1.700000*%
%TD*%
%TA.AperFunction,ComponentPad*%
%ADD25O,1.700000X1.700000*%
%TD*%
%TA.AperFunction,SMDPad,CuDef*%
%ADD26RoundRect,0.250000X-0.475000X0.337500X-0.475000X-0.337500X0.475000X-0.337500X0.475000X0.337500X0*%
%TD*%
%TA.AperFunction,SMDPad,CuDef*%
%ADD27RoundRect,0.250000X0.325000X0.450000X-0.325000X0.450000X-0.325000X-0.450000X0.325000X-0.450000X0*%
%TD*%
%TA.AperFunction,ViaPad*%
%ADD28C,0.800000*%
%TD*%
%TA.AperFunction,Conductor*%
%ADD29C,0.250000*%
%TD*%
G04 APERTURE END LIST*
D10*
X125183550Y-75797418D02*
X125363960Y-75478420D01*
X166262042Y-73300778D02*
X166553182Y-73527581D01*
X124624190Y-121510361D02*
X124526193Y-121157226D01*
X124336701Y-78587814D02*
X124382194Y-78221573D01*
X161799997Y-71829097D02*
X162171901Y-71838314D01*
X129971872Y-126602905D02*
X129618736Y-126504908D01*
X131058717Y-71865797D02*
X131428097Y-71838314D01*
X169299997Y-79329097D02*
X169299997Y-119329097D01*
X168416448Y-75797418D02*
X168580885Y-76124473D01*
X126766193Y-124888857D02*
X126496700Y-124632400D01*
X129971872Y-72055289D02*
X130329990Y-71974539D01*
X167359757Y-74295289D02*
X167601514Y-74575913D01*
X163270007Y-71974539D02*
X163628126Y-72055289D01*
X169290780Y-119701000D02*
X169263297Y-120070380D01*
X163981261Y-126504908D02*
X163628126Y-126602905D01*
X124382194Y-78221573D02*
X124445443Y-77859086D01*
X131800000Y-126829097D02*
X131428097Y-126819879D01*
X127337956Y-73300778D02*
X127638996Y-73089185D01*
X131428097Y-126819879D02*
X131058717Y-126792397D01*
X126240242Y-74295289D02*
X126496700Y-74025796D01*
X165650675Y-125765138D02*
X165331676Y-125945548D01*
X169154555Y-120799107D02*
X169073805Y-121157226D01*
X168580885Y-76124473D02*
X168729094Y-76458971D01*
X124870904Y-76458971D02*
X125019113Y-76124473D01*
X166553182Y-73527581D02*
X166833806Y-73769338D01*
X163628126Y-72055289D02*
X163981261Y-72153286D01*
X127949323Y-72893056D02*
X128268322Y-72712646D01*
X168860820Y-121857898D02*
X168729094Y-122199223D01*
X125363960Y-123179774D02*
X125183550Y-122860776D01*
X167601514Y-124082282D02*
X167359757Y-124362906D01*
X129618736Y-126504908D02*
X129271199Y-126389919D01*
X124336701Y-120070380D02*
X124309218Y-119701000D01*
X130692477Y-71911290D02*
X131058717Y-71865797D01*
X161799997Y-126829097D02*
X131800000Y-126829097D01*
X125998484Y-124082282D02*
X125771682Y-123791142D01*
X169073805Y-77500968D02*
X169154555Y-77859086D01*
X163628126Y-126602905D02*
X163270007Y-126683655D01*
X168975808Y-77147833D02*
X169073805Y-77500968D01*
X164328798Y-126389919D02*
X163981261Y-126504908D01*
X127337956Y-125357417D02*
X127046816Y-125130614D01*
X124309218Y-119701000D02*
X124300001Y-119329097D01*
D11*
X130737500Y-76000000D02*
G75*
G03*
X130737500Y-76000000I-1037500J0D01*
G01*
D10*
X161799997Y-71829097D02*
X161799997Y-71829097D01*
X129618736Y-72153286D02*
X129971872Y-72055289D01*
X125771682Y-123791142D02*
X125560089Y-123490101D01*
X124300001Y-79329097D02*
X124309218Y-78957193D01*
X127046816Y-125130614D02*
X126766193Y-124888857D01*
X124739178Y-76800295D02*
X124870904Y-76458971D01*
X126496700Y-124632400D02*
X126240242Y-124362906D01*
X166553182Y-125130614D02*
X166262042Y-125357417D01*
X165650675Y-72893056D02*
X165961002Y-73089185D01*
X169263297Y-120070380D02*
X169217804Y-120436620D01*
X127638996Y-125569009D02*
X127337956Y-125357417D01*
X130329990Y-126683655D02*
X129971872Y-126602905D01*
X124739178Y-121857898D02*
X124624190Y-121510361D01*
X128595377Y-72548209D02*
X128929874Y-72400000D01*
X167103300Y-74025796D02*
X167359757Y-74295289D01*
X162541280Y-71865797D02*
X162907520Y-71911290D01*
X162171901Y-71838314D02*
X162541280Y-71865797D01*
X166833806Y-73769338D02*
X167103300Y-74025796D01*
X162907520Y-71911290D02*
X163270007Y-71974539D01*
X131058717Y-126792397D02*
X130692477Y-126746904D01*
X124382194Y-120436620D02*
X124336701Y-120070380D01*
X168729094Y-122199223D02*
X168580885Y-122533720D01*
X165961002Y-73089185D02*
X166262042Y-73300778D01*
X125560089Y-123490101D02*
X125363960Y-123179774D01*
X165004621Y-72548209D02*
X165331676Y-72712646D01*
X168729094Y-76458971D02*
X168860820Y-76800295D01*
X168416448Y-122860776D02*
X168236038Y-123179774D01*
X164670123Y-72400000D02*
X165004621Y-72548209D01*
X163981261Y-72153286D02*
X164328798Y-72268274D01*
X165331676Y-72712646D02*
X165650675Y-72893056D01*
X126766193Y-73769338D02*
X127046816Y-73527581D01*
X129271199Y-72268274D02*
X129618736Y-72153286D01*
X165331676Y-125945548D02*
X165004621Y-126109985D01*
X169299997Y-119329097D02*
X169290780Y-119701000D01*
X126240242Y-124362906D02*
X125998484Y-124082282D01*
X131800000Y-71829097D02*
X161799997Y-71829097D01*
X126496700Y-74025796D02*
X126766193Y-73769338D01*
X169073805Y-121157226D02*
X168975808Y-121510361D01*
X166262042Y-125357417D02*
X165961002Y-125569009D01*
D11*
X164337500Y-76000000D02*
G75*
G03*
X164337500Y-76000000I-1037500J0D01*
G01*
D10*
X168236038Y-123179774D02*
X168039910Y-123490101D01*
X169154555Y-77859086D02*
X169217804Y-78221573D01*
X169217804Y-120436620D02*
X169154555Y-120799107D01*
X129271199Y-126389919D02*
X128929874Y-126258193D01*
X167828317Y-123791142D02*
X167601514Y-124082282D01*
X124445443Y-77859086D02*
X124526193Y-77500968D01*
X128268322Y-125945548D02*
X127949323Y-125765138D01*
X165004621Y-126109985D02*
X164670123Y-126258193D01*
X168236038Y-75478420D02*
X168416448Y-75797418D01*
X130329990Y-71974539D02*
X130692477Y-71911290D01*
X126496700Y-124632400D02*
X126496700Y-124632400D01*
X124526193Y-77500968D02*
X124624190Y-77147833D01*
X168975808Y-121510361D02*
X168860820Y-121857898D01*
X124526193Y-121157226D02*
X124445443Y-120799107D01*
X169290780Y-78957193D02*
X169299997Y-79329097D01*
X131428097Y-71838314D02*
X131800000Y-71829097D01*
X127046816Y-73527581D02*
X127337956Y-73300778D01*
X131800000Y-71829097D02*
X131800000Y-71829097D01*
X166833806Y-124888857D02*
X166553182Y-125130614D01*
X125183550Y-122860776D02*
X125019113Y-122533720D01*
X162541280Y-126792397D02*
X162171901Y-126819879D01*
X125771682Y-74867052D02*
X125998484Y-74575913D01*
X127638996Y-73089185D02*
X127949323Y-72893056D01*
X128929874Y-126258193D02*
X128595377Y-126109985D01*
X168039910Y-75168093D02*
X168236038Y-75478420D01*
X169299997Y-79329097D02*
X169299997Y-79329097D01*
X130692477Y-126746904D02*
X130329990Y-126683655D01*
X163270007Y-126683655D02*
X162907520Y-126746904D01*
X161799997Y-126829097D02*
X161799997Y-126829097D01*
D11*
X130737500Y-122700000D02*
G75*
G03*
X130737500Y-122700000I-1037500J0D01*
G01*
D10*
X167359757Y-124362906D02*
X167103300Y-124632400D01*
X124624190Y-77147833D02*
X124739178Y-76800295D01*
X125560089Y-75168093D02*
X125771682Y-74867052D01*
X125998484Y-74575913D02*
X126240242Y-74295289D01*
X167828317Y-74867052D02*
X168039910Y-75168093D01*
X165961002Y-125569009D02*
X165650675Y-125765138D01*
X127949323Y-125765138D02*
X127638996Y-125569009D01*
X125363960Y-75478420D02*
X125560089Y-75168093D01*
X128595377Y-126109985D02*
X128268322Y-125945548D01*
X164670123Y-126258193D02*
X164328798Y-126389919D01*
X131800000Y-126829097D02*
X131800000Y-126829097D01*
X168580885Y-122533720D02*
X168416448Y-122860776D01*
X124445443Y-120799107D02*
X124382194Y-120436620D01*
X167103300Y-74025796D02*
X167103300Y-74025796D01*
X128268322Y-72712646D02*
X128595377Y-72548209D01*
D11*
X164337500Y-122700000D02*
G75*
G03*
X164337500Y-122700000I-1037500J0D01*
G01*
D10*
X169263297Y-78587814D02*
X169290780Y-78957193D01*
X169299997Y-119329097D02*
X169299997Y-119329097D01*
X168039910Y-123490101D02*
X167828317Y-123791142D01*
X162907520Y-126746904D02*
X162541280Y-126792397D01*
X124300001Y-79329097D02*
X124300001Y-79329097D01*
X124309218Y-78957193D02*
X124336701Y-78587814D01*
X168860820Y-76800295D02*
X168975808Y-77147833D01*
X125019113Y-122533720D02*
X124870904Y-122199223D01*
X164328798Y-72268274D02*
X164670123Y-72400000D01*
X128929874Y-72400000D02*
X129271199Y-72268274D01*
X126496700Y-74025796D02*
X126496700Y-74025796D01*
X162171901Y-126819879D02*
X161799997Y-126829097D01*
X124870904Y-122199223D02*
X124739178Y-121857898D01*
X124300001Y-119329097D02*
X124300001Y-79329097D01*
X167103300Y-124632400D02*
X166833806Y-124888857D01*
X167601514Y-74575913D02*
X167828317Y-74867052D01*
X167103300Y-124632400D02*
X167103300Y-124632400D01*
X169217804Y-78221573D02*
X169263297Y-78587814D01*
X125019113Y-76124473D02*
X125183550Y-75797418D01*
D12*
%TO.P,BRAKE1,1,Pin_1*%
%TO.N,+3.3V*%
X149000000Y-116935000D03*
D13*
%TO.P,BRAKE1,2,Pin_2*%
%TO.N,/BRAKE*%
X146500000Y-116935000D03*
%TO.P,BRAKE1,3,Pin_3*%
%TO.N,GNDREF*%
X144000000Y-116935000D03*
%TD*%
D14*
%TO.P,C2,1*%
%TO.N,GNDREF*%
X135250000Y-105037500D03*
%TO.P,C2,2*%
%TO.N,+3.3V*%
X135250000Y-102962500D03*
%TD*%
D15*
%TO.P,ID1,1,K*%
%TO.N,GNDREF*%
X129375000Y-96100000D03*
%TO.P,ID1,2,A*%
%TO.N,Net-(ID1-Pad2)*%
X131425000Y-96100000D03*
%TD*%
D12*
%TO.P,CLUTCH1,1,Pin_1*%
%TO.N,+3.3V*%
X161500000Y-116967500D03*
D13*
%TO.P,CLUTCH1,2,Pin_2*%
%TO.N,/CLUTCH*%
X159000000Y-116967500D03*
%TO.P,CLUTCH1,3,Pin_3*%
%TO.N,GNDREF*%
X156500000Y-116967500D03*
%TD*%
D16*
%TO.P,DATA1,1*%
%TO.N,GNDREF*%
X142440000Y-83125000D03*
D17*
%TO.P,DATA1,2*%
%TO.N,/MOSI*%
X143456000Y-84905000D03*
%TO.P,DATA1,3*%
%TO.N,/BOOT*%
X144472000Y-83125000D03*
%TO.P,DATA1,4*%
%TO.N,/MISO*%
X145488000Y-84905000D03*
%TO.P,DATA1,5*%
%TO.N,unconnected-(DATA1-Pad5)*%
X146504000Y-83125000D03*
%TO.P,DATA1,6*%
%TO.N,/CS_PDL*%
X147520000Y-84905000D03*
%TO.P,DATA1,7*%
%TO.N,+5V*%
X148536000Y-83125000D03*
%TO.P,DATA1,8*%
%TO.N,/SCKL*%
X149552000Y-84905000D03*
%TO.P,DATA1,9*%
%TO.N,unconnected-(DATA1-Pad9)*%
X139140000Y-89725000D03*
%TO.P,DATA1,10*%
%TO.N,unconnected-(DATA1-Pad10)*%
X141430000Y-89725000D03*
%TO.P,DATA1,11*%
%TO.N,unconnected-(DATA1-Pad11)*%
X150570000Y-89725000D03*
%TO.P,DATA1,12*%
%TO.N,unconnected-(DATA1-Pad12)*%
X152860000Y-89725000D03*
D18*
%TO.P,DATA1,SH*%
%TO.N,GNDREF*%
X137870000Y-84015000D03*
X154130000Y-84015000D03*
%TD*%
D19*
%TO.P,R1,1*%
%TO.N,/SWCLK*%
X163000000Y-105030000D03*
%TO.P,R1,2*%
%TO.N,GNDREF*%
X163000000Y-103030000D03*
%TD*%
D20*
%TO.P,R2,1*%
%TO.N,/IND0*%
X135600000Y-96100000D03*
%TO.P,R2,2*%
%TO.N,Net-(ID1-Pad2)*%
X133600000Y-96100000D03*
%TD*%
D21*
%TO.P,RST1,1,1*%
%TO.N,/NRST*%
X167700000Y-111325000D03*
X167700000Y-106175000D03*
%TO.P,RST1,2,2*%
%TO.N,GNDREF*%
X166000000Y-106175000D03*
X166000000Y-111325000D03*
%TD*%
D20*
%TO.P,R4,1*%
%TO.N,/IND2*%
X135600000Y-94100000D03*
%TO.P,R4,2*%
%TO.N,Net-(ID3-Pad2)*%
X133600000Y-94100000D03*
%TD*%
D14*
%TO.P,C1,1*%
%TO.N,GNDREF*%
X138750000Y-105037500D03*
%TO.P,C1,2*%
%TO.N,+3.3V*%
X138750000Y-102962500D03*
%TD*%
D15*
%TO.P,ID2,1,K*%
%TO.N,GNDREF*%
X129375000Y-98200000D03*
%TO.P,ID2,2,A*%
%TO.N,Net-(ID2-Pad2)*%
X131425000Y-98200000D03*
%TD*%
D21*
%TO.P,BOOT1,1,1*%
%TO.N,+3.3V*%
X167700000Y-103575000D03*
X167700000Y-98425000D03*
%TO.P,BOOT1,2,2*%
%TO.N,/SWCLK*%
X166000000Y-103575000D03*
X166000000Y-98425000D03*
%TD*%
D20*
%TO.P,R5,1*%
%TO.N,+3.3V*%
X131200000Y-81100000D03*
%TO.P,R5,2*%
%TO.N,Net-(PWD1-Pad2)*%
X129200000Y-81100000D03*
%TD*%
D22*
%TO.P,U1,1,PB9*%
%TO.N,/MODE*%
X142325000Y-100200000D03*
%TO.P,U1,2,OSC32_IN/PC14*%
%TO.N,unconnected-(U1-Pad2)*%
X142325000Y-101000000D03*
%TO.P,U1,3,OSC32_OUT/PC15*%
%TO.N,unconnected-(U1-Pad3)*%
X142325000Y-101800000D03*
%TO.P,U1,4,VDD/VDDA*%
%TO.N,+3.3V*%
X142325000Y-102600000D03*
%TO.P,U1,5,VSS/VSSA*%
%TO.N,GNDREF*%
X142325000Y-103400000D03*
%TO.P,U1,6,~{RST}/PF2*%
%TO.N,/NRST*%
X142325000Y-104200000D03*
%TO.P,U1,7,PA0*%
%TO.N,unconnected-(U1-Pad7)*%
X142325000Y-105000000D03*
%TO.P,U1,8,PA1*%
%TO.N,/SCKL*%
X142325000Y-105800000D03*
D23*
%TO.P,U1,9,PA2*%
%TO.N,/USART_TX*%
X143700000Y-107175000D03*
%TO.P,U1,10,PA3*%
%TO.N,/USART_RX*%
X144500000Y-107175000D03*
%TO.P,U1,11,PA4*%
%TO.N,/CS_PDL*%
X145300000Y-107175000D03*
%TO.P,U1,12,PA5*%
%TO.N,unconnected-(U1-Pad12)*%
X146100000Y-107175000D03*
%TO.P,U1,13,PA6*%
%TO.N,/MISO*%
X146900000Y-107175000D03*
%TO.P,U1,14,PA7*%
%TO.N,/ACCEL*%
X147700000Y-107175000D03*
%TO.P,U1,15,PB0*%
%TO.N,/BRAKE*%
X148500000Y-107175000D03*
%TO.P,U1,16,PB1*%
%TO.N,/CLUTCH*%
X149300000Y-107175000D03*
D22*
%TO.P,U1,17,PB2*%
%TO.N,unconnected-(U1-Pad17)*%
X150675000Y-105800000D03*
%TO.P,U1,18,PA8*%
%TO.N,unconnected-(U1-Pad18)*%
X150675000Y-105000000D03*
%TO.P,U1,19,PA9*%
%TO.N,unconnected-(U1-Pad19)*%
X150675000Y-104200000D03*
%TO.P,U1,20,PC6*%
%TO.N,unconnected-(U1-Pad20)*%
X150675000Y-103400000D03*
%TO.P,U1,21,PA10*%
%TO.N,unconnected-(U1-Pad21)*%
X150675000Y-102600000D03*
%TO.P,U1,22,PA11_[PA9]*%
%TO.N,unconnected-(U1-Pad22)*%
X150675000Y-101800000D03*
%TO.P,U1,23,PA12_[PA10]*%
%TO.N,/MOSI*%
X150675000Y-101000000D03*
%TO.P,U1,24,PA13*%
%TO.N,/SWDIO*%
X150675000Y-100200000D03*
D23*
%TO.P,U1,25,PA14/BOOT0*%
%TO.N,/SWCLK*%
X149300000Y-98825000D03*
%TO.P,U1,26,PA15*%
%TO.N,unconnected-(U1-Pad26)*%
X148500000Y-98825000D03*
%TO.P,U1,27,PB3*%
%TO.N,unconnected-(U1-Pad27)*%
X147700000Y-98825000D03*
%TO.P,U1,28,PB4*%
%TO.N,unconnected-(U1-Pad28)*%
X146900000Y-98825000D03*
%TO.P,U1,29,PB5*%
%TO.N,unconnected-(U1-Pad29)*%
X146100000Y-98825000D03*
%TO.P,U1,30,PB6*%
%TO.N,/IND0*%
X145300000Y-98825000D03*
%TO.P,U1,31,PB7*%
%TO.N,/IND1*%
X144500000Y-98825000D03*
%TO.P,U1,32,PB8*%
%TO.N,/IND2*%
X143700000Y-98825000D03*
%TD*%
D24*
%TO.P,UART_PGRM1,1,Pin_1*%
%TO.N,GNDREF*%
X127500000Y-101600000D03*
D25*
%TO.P,UART_PGRM1,2,Pin_2*%
%TO.N,/USART_TX*%
X127500000Y-104140000D03*
%TO.P,UART_PGRM1,3,Pin_3*%
%TO.N,/USART_RX*%
X127500000Y-106680000D03*
%TO.P,UART_PGRM1,4,Pin_4*%
%TO.N,+3.3V*%
X127500000Y-109220000D03*
%TO.P,UART_PGRM1,5,Pin_5*%
%TO.N,unconnected-(UART_PGRM1-Pad5)*%
X127500000Y-111760000D03*
%TD*%
D26*
%TO.P,C3,1*%
%TO.N,/NRST*%
X163300000Y-110562500D03*
%TO.P,C3,2*%
%TO.N,GNDREF*%
X163300000Y-112637500D03*
%TD*%
D12*
%TO.P,ACCEL1,1,Pin_1*%
%TO.N,+3.3V*%
X136500000Y-116967500D03*
D13*
%TO.P,ACCEL1,2,Pin_2*%
%TO.N,/ACCEL*%
X134000000Y-116967500D03*
%TO.P,ACCEL1,3,Pin_3*%
%TO.N,GNDREF*%
X131500000Y-116967500D03*
%TD*%
D15*
%TO.P,ID3,1,K*%
%TO.N,GNDREF*%
X129375000Y-94000000D03*
%TO.P,ID3,2,A*%
%TO.N,Net-(ID3-Pad2)*%
X131425000Y-94000000D03*
%TD*%
D20*
%TO.P,R3,1*%
%TO.N,/IND1*%
X135600000Y-98100000D03*
%TO.P,R3,2*%
%TO.N,Net-(ID2-Pad2)*%
X133600000Y-98100000D03*
%TD*%
D27*
%TO.P,PWD1,1,K*%
%TO.N,GNDREF*%
X131375000Y-84500000D03*
%TO.P,PWD1,2,A*%
%TO.N,Net-(PWD1-Pad2)*%
X129325000Y-84500000D03*
%TD*%
D24*
%TO.P,ST-LINK1,1,Pin_1*%
%TO.N,GNDREF*%
X163800000Y-95300000D03*
D25*
%TO.P,ST-LINK1,2,Pin_2*%
%TO.N,/SWCLK*%
X163800000Y-92760000D03*
%TO.P,ST-LINK1,3,Pin_3*%
%TO.N,/SWDIO*%
X163800000Y-90220000D03*
%TO.P,ST-LINK1,4,Pin_4*%
%TO.N,/NRST*%
X163800000Y-87680000D03*
%TO.P,ST-LINK1,5,Pin_5*%
%TO.N,+3.3V*%
X163800000Y-85140000D03*
%TD*%
D28*
%TO.N,GNDREF*%
X156950000Y-109050000D03*
X156250000Y-108250000D03*
X155850000Y-107400000D03*
%TO.N,/NRST*%
X161700000Y-109000000D03*
X166900000Y-104900000D03*
X145250000Y-102250000D03*
%TO.N,/USART_TX*%
X142500000Y-107700000D03*
%TO.N,/SWCLK*%
X147250000Y-101250000D03*
X166000000Y-96000000D03*
%TO.N,/SWDIO*%
X148800000Y-101200000D03*
%TO.N,/MODE*%
X136500000Y-92200000D03*
X142400000Y-99000000D03*
%TO.N,+3.3V*%
X135250000Y-101500000D03*
X138750000Y-101500000D03*
X132800000Y-81100000D03*
X167950000Y-96500000D03*
%TO.N,GNDREF*%
X148500000Y-94000000D03*
X134800000Y-99900000D03*
X152000000Y-95000000D03*
X153750000Y-97750000D03*
X148500000Y-95000000D03*
%TO.N,/CLUTCH*%
X149500000Y-108800000D03*
%TO.N,/ACCEL*%
X147400000Y-108800000D03*
%TO.N,/BRAKE*%
X148500000Y-108800000D03*
%TO.N,/MISO*%
X147000000Y-105750000D03*
%TO.N,/MOSI*%
X152300000Y-100600000D03*
%TO.N,/CS_PDL*%
X145750000Y-105750000D03*
%TO.N,/SCKL*%
X145000000Y-103250000D03*
X154750000Y-105750000D03*
%TO.N,/USART_RX*%
X144300000Y-108900000D03*
%TO.N,/IND0*%
X137000000Y-96100000D03*
X145300000Y-100400000D03*
%TO.N,/IND1*%
X137000000Y-98100000D03*
X144500000Y-97200000D03*
%TO.N,/IND2*%
X142800000Y-97300000D03*
X137000000Y-94100000D03*
%TD*%
D29*
%TO.N,/NRST*%
X167700000Y-106700000D02*
X166900000Y-107500000D01*
X163362500Y-110562500D02*
X163300000Y-110562500D01*
X144200000Y-102600000D02*
X144550000Y-102250000D01*
X166900000Y-107500000D02*
X166900000Y-110525000D01*
X166900000Y-110525000D02*
X167700000Y-111325000D01*
X167700000Y-111900000D02*
X167000000Y-112600000D01*
X167700000Y-106175000D02*
X167700000Y-106700000D01*
X166900000Y-105375000D02*
X167700000Y-106175000D01*
X144550000Y-102250000D02*
X145250000Y-102250000D01*
X165400000Y-112600000D02*
X163362500Y-110562500D01*
X143200000Y-104200000D02*
X144200000Y-103200000D01*
X167000000Y-112600000D02*
X165400000Y-112600000D01*
X167700000Y-111325000D02*
X167700000Y-111900000D01*
X161737500Y-109000000D02*
X163300000Y-110562500D01*
X166900000Y-104900000D02*
X166900000Y-105375000D01*
X161700000Y-109000000D02*
X161737500Y-109000000D01*
X144200000Y-103200000D02*
X144200000Y-102600000D01*
X142325000Y-104200000D02*
X143200000Y-104200000D01*
%TO.N,/USART_TX*%
X142500000Y-107700000D02*
X143175000Y-107700000D01*
X143175000Y-107700000D02*
X143700000Y-107175000D01*
%TO.N,/SWCLK*%
X149300000Y-99500000D02*
X147550000Y-101250000D01*
X163000000Y-105030000D02*
X164545000Y-105030000D01*
X149300000Y-98825000D02*
X149300000Y-99500000D01*
X166800000Y-102775000D02*
X166000000Y-103575000D01*
X166000000Y-98600000D02*
X166800000Y-99400000D01*
X166000000Y-96000000D02*
X166000000Y-98425000D01*
X164545000Y-105030000D02*
X166000000Y-103575000D01*
X147550000Y-101250000D02*
X147250000Y-101250000D01*
X166000000Y-98425000D02*
X166000000Y-98600000D01*
X166800000Y-99400000D02*
X166800000Y-102775000D01*
%TO.N,/SWDIO*%
X149700000Y-100200000D02*
X150675000Y-100200000D01*
X148800000Y-101200000D02*
X149700000Y-100200000D01*
%TO.N,/MODE*%
X142400000Y-99000000D02*
X142400000Y-100125000D01*
X142400000Y-100125000D02*
X142325000Y-100200000D01*
%TO.N,Net-(PWD1-Pad2)*%
X129325000Y-81225000D02*
X129200000Y-81100000D01*
X129325000Y-84500000D02*
X129325000Y-81225000D01*
%TO.N,+3.3V*%
X167700000Y-102150000D02*
X167350000Y-101800000D01*
X138750000Y-102962500D02*
X138962500Y-102962500D01*
X135250000Y-102962500D02*
X135250000Y-101750000D01*
X140500000Y-103000000D02*
X140900000Y-102600000D01*
X167700000Y-96750000D02*
X167950000Y-96500000D01*
X135500000Y-102750000D02*
X135250000Y-102962500D01*
X140900000Y-102600000D02*
X142325000Y-102600000D01*
X132800000Y-81100000D02*
X131200000Y-81100000D01*
X167700000Y-98425000D02*
X167700000Y-96750000D01*
X167350000Y-98775000D02*
X167700000Y-98425000D01*
X138962500Y-102962500D02*
X139000000Y-103000000D01*
X135500000Y-102962500D02*
X138750000Y-102962500D01*
X167700000Y-103575000D02*
X167700000Y-102150000D01*
X138750000Y-102962500D02*
X138750000Y-101500000D01*
X139000000Y-103000000D02*
X140500000Y-103000000D01*
X167350000Y-101800000D02*
X167350000Y-98775000D01*
X135250000Y-101750000D02*
X135500000Y-101500000D01*
%TO.N,GNDREF*%
X142325000Y-103400000D02*
X141100000Y-103400000D01*
X141100000Y-103400000D02*
X140500000Y-104000000D01*
%TO.N,/CLUTCH*%
X149300000Y-107175000D02*
X149300000Y-108600000D01*
X149300000Y-108600000D02*
X149500000Y-108800000D01*
%TO.N,/ACCEL*%
X147700000Y-108500000D02*
X147400000Y-108800000D01*
X147700000Y-107175000D02*
X147700000Y-108500000D01*
%TO.N,/BRAKE*%
X148500000Y-107175000D02*
X148500000Y-108800000D01*
%TO.N,/MISO*%
X147000000Y-105750000D02*
X147000000Y-107075000D01*
X147000000Y-107075000D02*
X146900000Y-107175000D01*
%TO.N,/MOSI*%
X150675000Y-101000000D02*
X151900000Y-101000000D01*
X151900000Y-101000000D02*
X152300000Y-100600000D01*
%TO.N,/CS_PDL*%
X145750000Y-105950000D02*
X145300000Y-106400000D01*
X145300000Y-106400000D02*
X145300000Y-107175000D01*
X145750000Y-105750000D02*
X145750000Y-105950000D01*
%TO.N,/SCKL*%
X145000000Y-104200000D02*
X143400000Y-105800000D01*
X145000000Y-103250000D02*
X145000000Y-104200000D01*
X143400000Y-105800000D02*
X142325000Y-105800000D01*
%TO.N,/USART_RX*%
X144300000Y-108900000D02*
X144300000Y-108400000D01*
X144500000Y-108200000D02*
X144500000Y-107175000D01*
X144300000Y-108400000D02*
X144500000Y-108200000D01*
%TO.N,/IND0*%
X145300000Y-100400000D02*
X145300000Y-98825000D01*
X137000000Y-96100000D02*
X135600000Y-96100000D01*
%TO.N,/IND1*%
X137000000Y-98100000D02*
X135600000Y-98100000D01*
X144500000Y-97200000D02*
X144500000Y-98825000D01*
%TO.N,/IND2*%
X142800000Y-97925000D02*
X143700000Y-98825000D01*
X137000000Y-94100000D02*
X135600000Y-94100000D01*
X142800000Y-97300000D02*
X142800000Y-97925000D01*
%TO.N,Net-(ID1-Pad2)*%
X133600000Y-96100000D02*
X131425000Y-96100000D01*
%TO.N,Net-(ID2-Pad2)*%
X133500000Y-98200000D02*
X133600000Y-98100000D01*
X131425000Y-98200000D02*
X133500000Y-98200000D01*
%TO.N,Net-(ID3-Pad2)*%
X133600000Y-94100000D02*
X131525000Y-94100000D01*
X131525000Y-94100000D02*
X131425000Y-94000000D01*
%TD*%
%TA.AperFunction,Conductor*%
%TO.N,GNDREF*%
G36*
X161795285Y-72337636D02*
G01*
X162143615Y-72346270D01*
X162149808Y-72346576D01*
X162450949Y-72368982D01*
X162487953Y-72371735D01*
X162494138Y-72372349D01*
X162829366Y-72413990D01*
X162835479Y-72414902D01*
X163167295Y-72472800D01*
X163173319Y-72474005D01*
X163367185Y-72517718D01*
X163501138Y-72547923D01*
X163507115Y-72549425D01*
X163830377Y-72639132D01*
X163836261Y-72640921D01*
X163912038Y-72665993D01*
X164154365Y-72746171D01*
X164160151Y-72748243D01*
X164472615Y-72868830D01*
X164478256Y-72871166D01*
X164784530Y-73006871D01*
X164790012Y-73009462D01*
X164989493Y-73109757D01*
X165089411Y-73159994D01*
X165094839Y-73162891D01*
X165386823Y-73328022D01*
X165386837Y-73328030D01*
X165392113Y-73331186D01*
X165646558Y-73491997D01*
X165676178Y-73510717D01*
X165681317Y-73514144D01*
X165956875Y-73707827D01*
X165961853Y-73711512D01*
X166228341Y-73919111D01*
X166233145Y-73923047D01*
X166490031Y-74144354D01*
X166494632Y-74148521D01*
X166701264Y-74345158D01*
X166707969Y-74352245D01*
X166712076Y-74358754D01*
X166746385Y-74389054D01*
X166754236Y-74396619D01*
X166931941Y-74583358D01*
X166980575Y-74634464D01*
X166984751Y-74639075D01*
X167206060Y-74895964D01*
X167209973Y-74900740D01*
X167348458Y-75078507D01*
X167417585Y-75167243D01*
X167421270Y-75172221D01*
X167614949Y-75447776D01*
X167618376Y-75452915D01*
X167707140Y-75593362D01*
X167797897Y-75736964D01*
X167801057Y-75742246D01*
X167874259Y-75871681D01*
X167966207Y-76034262D01*
X167969104Y-76039690D01*
X168109495Y-76318918D01*
X168119613Y-76339043D01*
X168122238Y-76344595D01*
X168244783Y-76621171D01*
X168257919Y-76650819D01*
X168260268Y-76656489D01*
X168380857Y-76968955D01*
X168382911Y-76974689D01*
X168488181Y-77292859D01*
X168489962Y-77298717D01*
X168579672Y-77621990D01*
X168581174Y-77627967D01*
X168602756Y-77723682D01*
X168655083Y-77955744D01*
X168655086Y-77955758D01*
X168656294Y-77961798D01*
X168710480Y-78272340D01*
X168714192Y-78293613D01*
X168715105Y-78299732D01*
X168736001Y-78467955D01*
X168756745Y-78634955D01*
X168757359Y-78641138D01*
X168781726Y-78968634D01*
X168782518Y-78979281D01*
X168782825Y-78985491D01*
X168786593Y-79137511D01*
X168791377Y-79330557D01*
X168791414Y-79334448D01*
X168791342Y-79346216D01*
X168791021Y-79398818D01*
X168791405Y-79400162D01*
X168791497Y-79401507D01*
X168791497Y-95748605D01*
X168771495Y-95816726D01*
X168717839Y-95863219D01*
X168647565Y-95873323D01*
X168582985Y-95843829D01*
X168571862Y-95832917D01*
X168561253Y-95821134D01*
X168406752Y-95708882D01*
X168400724Y-95706198D01*
X168400722Y-95706197D01*
X168238319Y-95633891D01*
X168238318Y-95633891D01*
X168232288Y-95631206D01*
X168138887Y-95611353D01*
X168051944Y-95592872D01*
X168051939Y-95592872D01*
X168045487Y-95591500D01*
X167854513Y-95591500D01*
X167848061Y-95592872D01*
X167848056Y-95592872D01*
X167761112Y-95611353D01*
X167667712Y-95631206D01*
X167661682Y-95633891D01*
X167661681Y-95633891D01*
X167499278Y-95706197D01*
X167499276Y-95706198D01*
X167493248Y-95708882D01*
X167338747Y-95821134D01*
X167334328Y-95826042D01*
X167334325Y-95826045D01*
X167252758Y-95916635D01*
X167210960Y-95963056D01*
X167184306Y-96009222D01*
X167147933Y-96072222D01*
X167096551Y-96121215D01*
X167026837Y-96134651D01*
X166960926Y-96108265D01*
X166919744Y-96050433D01*
X166912814Y-96009222D01*
X166912814Y-96006565D01*
X166913504Y-96000000D01*
X166904052Y-95910072D01*
X166894232Y-95816635D01*
X166894232Y-95816633D01*
X166893542Y-95810072D01*
X166834527Y-95628444D01*
X166813990Y-95592872D01*
X166794130Y-95558475D01*
X166739040Y-95463056D01*
X166611253Y-95321134D01*
X166456752Y-95208882D01*
X166450724Y-95206198D01*
X166450722Y-95206197D01*
X166288319Y-95133891D01*
X166288318Y-95133891D01*
X166282288Y-95131206D01*
X166188888Y-95111353D01*
X166101944Y-95092872D01*
X166101939Y-95092872D01*
X166095487Y-95091500D01*
X165904513Y-95091500D01*
X165898061Y-95092872D01*
X165898056Y-95092872D01*
X165811112Y-95111353D01*
X165717712Y-95131206D01*
X165711682Y-95133891D01*
X165711681Y-95133891D01*
X165549278Y-95206197D01*
X165549276Y-95206198D01*
X165543248Y-95208882D01*
X165388747Y-95321134D01*
X165260960Y-95463056D01*
X165257659Y-95468774D01*
X165244825Y-95491002D01*
X165193442Y-95539994D01*
X165135707Y-95554000D01*
X164072115Y-95554000D01*
X164056876Y-95558475D01*
X164055671Y-95559865D01*
X164054000Y-95567548D01*
X164054000Y-96639884D01*
X164058475Y-96655123D01*
X164059865Y-96656328D01*
X164067548Y-96657999D01*
X164694669Y-96657999D01*
X164701490Y-96657629D01*
X164752352Y-96652105D01*
X164767604Y-96648479D01*
X164888054Y-96603324D01*
X164903649Y-96594786D01*
X165005724Y-96518285D01*
X165018284Y-96505725D01*
X165030688Y-96489174D01*
X165087547Y-96446658D01*
X165158365Y-96441632D01*
X165220659Y-96475691D01*
X165240633Y-96501737D01*
X165260960Y-96536944D01*
X165334137Y-96618215D01*
X165364853Y-96682221D01*
X165366500Y-96702524D01*
X165366500Y-97119618D01*
X165346498Y-97187739D01*
X165292842Y-97234232D01*
X165284731Y-97237599D01*
X165261707Y-97246231D01*
X165261704Y-97246232D01*
X165253295Y-97249385D01*
X165136739Y-97336739D01*
X165049385Y-97453295D01*
X164998255Y-97589684D01*
X164991500Y-97651866D01*
X164991500Y-99198134D01*
X164998255Y-99260316D01*
X165049385Y-99396705D01*
X165136739Y-99513261D01*
X165253295Y-99600615D01*
X165389684Y-99651745D01*
X165451866Y-99658500D01*
X166040500Y-99658500D01*
X166108621Y-99678502D01*
X166155114Y-99732158D01*
X166166500Y-99784500D01*
X166166500Y-100160821D01*
X166146498Y-100228942D01*
X166092842Y-100275435D01*
X166022568Y-100285539D01*
X165977500Y-100269940D01*
X165842054Y-100191740D01*
X165842053Y-100191739D01*
X165836331Y-100188436D01*
X165738876Y-100156771D01*
X165665981Y-100133086D01*
X165665980Y-100133086D01*
X165659702Y-100131046D01*
X165653139Y-100130356D01*
X165653138Y-100130356D01*
X165628942Y-100127813D01*
X165521306Y-100116500D01*
X165428694Y-100116500D01*
X165321058Y-100127813D01*
X165296862Y-100130356D01*
X165296861Y-100130356D01*
X165290298Y-100131046D01*
X165284020Y-100133086D01*
X165284019Y-100133086D01*
X165211124Y-100156771D01*
X165113669Y-100188436D01*
X165107947Y-100191739D01*
X165107946Y-100191740D01*
X165057923Y-100220621D01*
X164952831Y-100281296D01*
X164947924Y-100285714D01*
X164947923Y-100285715D01*
X164835980Y-100386509D01*
X164814815Y-100405566D01*
X164810934Y-100410908D01*
X164810932Y-100410910D01*
X164773259Y-100462763D01*
X164705652Y-100555816D01*
X164702968Y-100561844D01*
X164702967Y-100561846D01*
X164635644Y-100713056D01*
X164630113Y-100725479D01*
X164619103Y-100777279D01*
X164596264Y-100884729D01*
X164591500Y-100907140D01*
X164591500Y-101092860D01*
X164592872Y-101099313D01*
X164592872Y-101099317D01*
X164610807Y-101183691D01*
X164630113Y-101274521D01*
X164632797Y-101280550D01*
X164632798Y-101280552D01*
X164701632Y-101435153D01*
X164705652Y-101444183D01*
X164709532Y-101449524D01*
X164709533Y-101449525D01*
X164810307Y-101588229D01*
X164814815Y-101594434D01*
X164819725Y-101598855D01*
X164819726Y-101598856D01*
X164946854Y-101713322D01*
X164952831Y-101718704D01*
X165046218Y-101772621D01*
X165107945Y-101808259D01*
X165113669Y-101811564D01*
X165186866Y-101835347D01*
X165276661Y-101864523D01*
X165290298Y-101868954D01*
X165296861Y-101869644D01*
X165296862Y-101869644D01*
X165306729Y-101870681D01*
X165428694Y-101883500D01*
X165521306Y-101883500D01*
X165643271Y-101870681D01*
X165653138Y-101869644D01*
X165653139Y-101869644D01*
X165659702Y-101868954D01*
X165673340Y-101864523D01*
X165763134Y-101835347D01*
X165836331Y-101811564D01*
X165842056Y-101808259D01*
X165977500Y-101730060D01*
X166046495Y-101713322D01*
X166113587Y-101736542D01*
X166157474Y-101792350D01*
X166166500Y-101839179D01*
X166166500Y-102215500D01*
X166146498Y-102283621D01*
X166092842Y-102330114D01*
X166040500Y-102341500D01*
X165451866Y-102341500D01*
X165389684Y-102348255D01*
X165253295Y-102399385D01*
X165136739Y-102486739D01*
X165049385Y-102603295D01*
X164998255Y-102739684D01*
X164991500Y-102801866D01*
X164991500Y-103635405D01*
X164971498Y-103703526D01*
X164954595Y-103724501D01*
X164323438Y-104355657D01*
X164261126Y-104389682D01*
X164190310Y-104384617D01*
X164133475Y-104342070D01*
X164127205Y-104332872D01*
X164048478Y-104205652D01*
X164006935Y-104164181D01*
X163961537Y-104118862D01*
X163927458Y-104056579D01*
X163932461Y-103985759D01*
X163961382Y-103940671D01*
X164043739Y-103858171D01*
X164052751Y-103846760D01*
X164137816Y-103708757D01*
X164143963Y-103695576D01*
X164195138Y-103541290D01*
X164198005Y-103527914D01*
X164207672Y-103433562D01*
X164208000Y-103427146D01*
X164208000Y-103302115D01*
X164203525Y-103286876D01*
X164202135Y-103285671D01*
X164194452Y-103284000D01*
X161810116Y-103284000D01*
X161794877Y-103288475D01*
X161793672Y-103289865D01*
X161792001Y-103297548D01*
X161792001Y-103427095D01*
X161792338Y-103433614D01*
X161802257Y-103529206D01*
X161805149Y-103542600D01*
X161856588Y-103696784D01*
X161862761Y-103709962D01*
X161948063Y-103847807D01*
X161957099Y-103859208D01*
X162038462Y-103940430D01*
X162072541Y-104002713D01*
X162067538Y-104073533D01*
X162038617Y-104118620D01*
X161955870Y-104201512D01*
X161955866Y-104201517D01*
X161950695Y-104206697D01*
X161946855Y-104212927D01*
X161946854Y-104212928D01*
X161863512Y-104348134D01*
X161857885Y-104357262D01*
X161833404Y-104431070D01*
X161815695Y-104484463D01*
X161802203Y-104525139D01*
X161801503Y-104531975D01*
X161801502Y-104531978D01*
X161797773Y-104568378D01*
X161791500Y-104629600D01*
X161791500Y-105430400D01*
X161791837Y-105433646D01*
X161791837Y-105433650D01*
X161801472Y-105526507D01*
X161802474Y-105536166D01*
X161804655Y-105542702D01*
X161804655Y-105542704D01*
X161826627Y-105608562D01*
X161858450Y-105703946D01*
X161951522Y-105854348D01*
X162076697Y-105979305D01*
X162082927Y-105983145D01*
X162082928Y-105983146D01*
X162220090Y-106067694D01*
X162227262Y-106072115D01*
X162307005Y-106098564D01*
X162388611Y-106125632D01*
X162388613Y-106125632D01*
X162395139Y-106127797D01*
X162401975Y-106128497D01*
X162401978Y-106128498D01*
X162442621Y-106132662D01*
X162499600Y-106138500D01*
X163500400Y-106138500D01*
X163503646Y-106138163D01*
X163503650Y-106138163D01*
X163599308Y-106128238D01*
X163599312Y-106128237D01*
X163606166Y-106127526D01*
X163612702Y-106125345D01*
X163612704Y-106125345D01*
X163744806Y-106081272D01*
X163773946Y-106071550D01*
X163924348Y-105978478D01*
X164049305Y-105853303D01*
X164065882Y-105826411D01*
X164129389Y-105723384D01*
X164182162Y-105675890D01*
X164236649Y-105663500D01*
X164466233Y-105663500D01*
X164477416Y-105664027D01*
X164484909Y-105665702D01*
X164492835Y-105665453D01*
X164492836Y-105665453D01*
X164552986Y-105663562D01*
X164556945Y-105663500D01*
X164584856Y-105663500D01*
X164588791Y-105663003D01*
X164588856Y-105662995D01*
X164600693Y-105662062D01*
X164632951Y-105661048D01*
X164636970Y-105660922D01*
X164644889Y-105660673D01*
X164664343Y-105655021D01*
X164683700Y-105651013D01*
X164695930Y-105649468D01*
X164695931Y-105649468D01*
X164703797Y-105648474D01*
X164711168Y-105645555D01*
X164711170Y-105645555D01*
X164744912Y-105632196D01*
X164756142Y-105628351D01*
X164790983Y-105618229D01*
X164790984Y-105618229D01*
X164798593Y-105616018D01*
X164805414Y-105611984D01*
X164812693Y-105608834D01*
X164813669Y-105611089D01*
X164870680Y-105596626D01*
X164938011Y-105619144D01*
X164982479Y-105674490D01*
X164992000Y-105722539D01*
X164992000Y-105902885D01*
X164996475Y-105918124D01*
X164997865Y-105919329D01*
X165005548Y-105921000D01*
X166128000Y-105921000D01*
X166196121Y-105941002D01*
X166242614Y-105994658D01*
X166254000Y-106047000D01*
X166254000Y-107389882D01*
X166260332Y-107411448D01*
X166263884Y-107466652D01*
X166263020Y-107472107D01*
X166263020Y-107472116D01*
X166261780Y-107479943D01*
X166262526Y-107487835D01*
X166265941Y-107523961D01*
X166266500Y-107535819D01*
X166266500Y-107990803D01*
X166246498Y-108058924D01*
X166192842Y-108105417D01*
X166122568Y-108115521D01*
X166056192Y-108084440D01*
X165997169Y-108031296D01*
X165880942Y-107964192D01*
X165842054Y-107941740D01*
X165842053Y-107941739D01*
X165836331Y-107938436D01*
X165706360Y-107896206D01*
X165665981Y-107883086D01*
X165665980Y-107883086D01*
X165659702Y-107881046D01*
X165653139Y-107880356D01*
X165653138Y-107880356D01*
X165628942Y-107877813D01*
X165521306Y-107866500D01*
X165428694Y-107866500D01*
X165321058Y-107877813D01*
X165296862Y-107880356D01*
X165296861Y-107880356D01*
X165290298Y-107881046D01*
X165284020Y-107883086D01*
X165284019Y-107883086D01*
X165243640Y-107896206D01*
X165113669Y-107938436D01*
X165107947Y-107941739D01*
X165107946Y-107941740D01*
X165069058Y-107964192D01*
X164952831Y-108031296D01*
X164947924Y-108035714D01*
X164947923Y-108035715D01*
X164819726Y-108151144D01*
X164814815Y-108155566D01*
X164810934Y-108160908D01*
X164810932Y-108160910D01*
X164709533Y-108300474D01*
X164705652Y-108305816D01*
X164702968Y-108311844D01*
X164702967Y-108311846D01*
X164633098Y-108468774D01*
X164630113Y-108475479D01*
X164614979Y-108546680D01*
X164596264Y-108634729D01*
X164591500Y-108657140D01*
X164591500Y-108842860D01*
X164630113Y-109024521D01*
X164632797Y-109030550D01*
X164632798Y-109030552D01*
X164700033Y-109181562D01*
X164705652Y-109194183D01*
X164709532Y-109199524D01*
X164709533Y-109199525D01*
X164783500Y-109301332D01*
X164814815Y-109344434D01*
X164819725Y-109348855D01*
X164819726Y-109348856D01*
X164893810Y-109415561D01*
X164952831Y-109468704D01*
X164977158Y-109482749D01*
X165107945Y-109558259D01*
X165113669Y-109561564D01*
X165119955Y-109563606D01*
X165119954Y-109563606D01*
X165276661Y-109614523D01*
X165290298Y-109618954D01*
X165296861Y-109619644D01*
X165296862Y-109619644D01*
X165317890Y-109621854D01*
X165428694Y-109633500D01*
X165521306Y-109633500D01*
X165632110Y-109621854D01*
X165653138Y-109619644D01*
X165653139Y-109619644D01*
X165659702Y-109618954D01*
X165673340Y-109614523D01*
X165830046Y-109563606D01*
X165830045Y-109563606D01*
X165836331Y-109561564D01*
X165842056Y-109558259D01*
X165972842Y-109482749D01*
X165997169Y-109468704D01*
X166056192Y-109415560D01*
X166120197Y-109384844D01*
X166190650Y-109393607D01*
X166245182Y-109439070D01*
X166266500Y-109509197D01*
X166266500Y-110038372D01*
X166258513Y-110065572D01*
X166262507Y-110066441D01*
X166254000Y-110105548D01*
X166254000Y-111453000D01*
X166233998Y-111521121D01*
X166180342Y-111567614D01*
X166128000Y-111579000D01*
X165872000Y-111579000D01*
X165803879Y-111558998D01*
X165757386Y-111505342D01*
X165746000Y-111453000D01*
X165746000Y-110110116D01*
X165741525Y-110094877D01*
X165740135Y-110093672D01*
X165732452Y-110092001D01*
X165455331Y-110092001D01*
X165448510Y-110092371D01*
X165397648Y-110097895D01*
X165382396Y-110101521D01*
X165261946Y-110146676D01*
X165246351Y-110155214D01*
X165144276Y-110231715D01*
X165131715Y-110244276D01*
X165055214Y-110346351D01*
X165046676Y-110361946D01*
X165001522Y-110482394D01*
X164997895Y-110497649D01*
X164992369Y-110548514D01*
X164992000Y-110555328D01*
X164992000Y-110991905D01*
X164971998Y-111060026D01*
X164918342Y-111106519D01*
X164848068Y-111116623D01*
X164783488Y-111087129D01*
X164776915Y-111081011D01*
X164570404Y-110874499D01*
X164536379Y-110812187D01*
X164533500Y-110785404D01*
X164533500Y-110174600D01*
X164530557Y-110146233D01*
X164523238Y-110075692D01*
X164523237Y-110075688D01*
X164522526Y-110068834D01*
X164466550Y-109901054D01*
X164373478Y-109750652D01*
X164248303Y-109625695D01*
X164192209Y-109591118D01*
X164103968Y-109536725D01*
X164103966Y-109536724D01*
X164097738Y-109532885D01*
X163938475Y-109480060D01*
X163936389Y-109479368D01*
X163936387Y-109479368D01*
X163929861Y-109477203D01*
X163923025Y-109476503D01*
X163923022Y-109476502D01*
X163879129Y-109472005D01*
X163825400Y-109466500D01*
X163152095Y-109466500D01*
X163083974Y-109446498D01*
X163062999Y-109429595D01*
X162853405Y-109220000D01*
X162642717Y-109009312D01*
X162608692Y-108947000D01*
X162606503Y-108933388D01*
X162594232Y-108816636D01*
X162594232Y-108816635D01*
X162593542Y-108810072D01*
X162590270Y-108800000D01*
X162536569Y-108634729D01*
X162534527Y-108628444D01*
X162439040Y-108463056D01*
X162400561Y-108420320D01*
X162315675Y-108326045D01*
X162315674Y-108326044D01*
X162311253Y-108321134D01*
X162176254Y-108223051D01*
X162162094Y-108212763D01*
X162162093Y-108212762D01*
X162156752Y-108208882D01*
X162150724Y-108206198D01*
X162150722Y-108206197D01*
X161988319Y-108133891D01*
X161988318Y-108133891D01*
X161982288Y-108131206D01*
X161888888Y-108111353D01*
X161801944Y-108092872D01*
X161801939Y-108092872D01*
X161795487Y-108091500D01*
X161604513Y-108091500D01*
X161598061Y-108092872D01*
X161598056Y-108092872D01*
X161511112Y-108111353D01*
X161417712Y-108131206D01*
X161411682Y-108133891D01*
X161411681Y-108133891D01*
X161249278Y-108206197D01*
X161249276Y-108206198D01*
X161243248Y-108208882D01*
X161237907Y-108212762D01*
X161237906Y-108212763D01*
X161223746Y-108223051D01*
X161088747Y-108321134D01*
X161084326Y-108326044D01*
X161084325Y-108326045D01*
X160999440Y-108420320D01*
X160960960Y-108463056D01*
X160865473Y-108628444D01*
X160806458Y-108810072D01*
X160786496Y-109000000D01*
X160787186Y-109006565D01*
X160805129Y-109177279D01*
X160806458Y-109189928D01*
X160865473Y-109371556D01*
X160960960Y-109536944D01*
X160965378Y-109541851D01*
X160965379Y-109541852D01*
X161079678Y-109668794D01*
X161088747Y-109678866D01*
X161243248Y-109791118D01*
X161249276Y-109793802D01*
X161249278Y-109793803D01*
X161350838Y-109839020D01*
X161417712Y-109868794D01*
X161511112Y-109888647D01*
X161598056Y-109907128D01*
X161598061Y-109907128D01*
X161604513Y-109908500D01*
X161697906Y-109908500D01*
X161766027Y-109928502D01*
X161787001Y-109945405D01*
X162029595Y-110187999D01*
X162063621Y-110250311D01*
X162066500Y-110277094D01*
X162066500Y-110950400D01*
X162066837Y-110953646D01*
X162066837Y-110953650D01*
X162067715Y-110962107D01*
X162077474Y-111056166D01*
X162079655Y-111062702D01*
X162079655Y-111062704D01*
X162123728Y-111194806D01*
X162133450Y-111223946D01*
X162226522Y-111374348D01*
X162351697Y-111499305D01*
X162356235Y-111502102D01*
X162396824Y-111559353D01*
X162400054Y-111630276D01*
X162364428Y-111691687D01*
X162355932Y-111699062D01*
X162345793Y-111707098D01*
X162231261Y-111821829D01*
X162222249Y-111833240D01*
X162137184Y-111971243D01*
X162131037Y-111984424D01*
X162079862Y-112138710D01*
X162076995Y-112152086D01*
X162067328Y-112246438D01*
X162067000Y-112252855D01*
X162067000Y-112365385D01*
X162071475Y-112380624D01*
X162072865Y-112381829D01*
X162080548Y-112383500D01*
X163428000Y-112383500D01*
X163496121Y-112403502D01*
X163542614Y-112457158D01*
X163554000Y-112509500D01*
X163554000Y-113714884D01*
X163558475Y-113730123D01*
X163559865Y-113731328D01*
X163567548Y-113732999D01*
X163822095Y-113732999D01*
X163828614Y-113732662D01*
X163924206Y-113722743D01*
X163937600Y-113719851D01*
X164091784Y-113668412D01*
X164104962Y-113662239D01*
X164242807Y-113576937D01*
X164254208Y-113567901D01*
X164368739Y-113453171D01*
X164377751Y-113441760D01*
X164462816Y-113303757D01*
X164468963Y-113290576D01*
X164520138Y-113136290D01*
X164523005Y-113122914D01*
X164532672Y-113028562D01*
X164533000Y-113022146D01*
X164533000Y-112933094D01*
X164553002Y-112864973D01*
X164606658Y-112818480D01*
X164676932Y-112808376D01*
X164741512Y-112837870D01*
X164748095Y-112843999D01*
X164896343Y-112992247D01*
X164903887Y-113000537D01*
X164908000Y-113007018D01*
X164913777Y-113012443D01*
X164957667Y-113053658D01*
X164960509Y-113056413D01*
X164980230Y-113076134D01*
X164983354Y-113078557D01*
X164983358Y-113078561D01*
X164983423Y-113078611D01*
X164992443Y-113086316D01*
X165024679Y-113116586D01*
X165036190Y-113122914D01*
X165042431Y-113126345D01*
X165058953Y-113137198D01*
X165074959Y-113149614D01*
X165082237Y-113152764D01*
X165082238Y-113152764D01*
X165115537Y-113167174D01*
X165126187Y-113172391D01*
X165164940Y-113193695D01*
X165172615Y-113195666D01*
X165172616Y-113195666D01*
X165184562Y-113198733D01*
X165203267Y-113205137D01*
X165221855Y-113213181D01*
X165229678Y-113214420D01*
X165229688Y-113214423D01*
X165265524Y-113220099D01*
X165277144Y-113222505D01*
X165308959Y-113230673D01*
X165319970Y-113233500D01*
X165340224Y-113233500D01*
X165359934Y-113235051D01*
X165379943Y-113238220D01*
X165387835Y-113237474D01*
X165406580Y-113235702D01*
X165423962Y-113234059D01*
X165435819Y-113233500D01*
X166921233Y-113233500D01*
X166932416Y-113234027D01*
X166939909Y-113235702D01*
X166947835Y-113235453D01*
X166947836Y-113235453D01*
X167007986Y-113233562D01*
X167011945Y-113233500D01*
X167039856Y-113233500D01*
X167043791Y-113233003D01*
X167043856Y-113232995D01*
X167055693Y-113232062D01*
X167087951Y-113231048D01*
X167091970Y-113230922D01*
X167099889Y-113230673D01*
X167119343Y-113225021D01*
X167138700Y-113221013D01*
X167150930Y-113219468D01*
X167150931Y-113219468D01*
X167158797Y-113218474D01*
X167166168Y-113215555D01*
X167166170Y-113215555D01*
X167199912Y-113202196D01*
X167211142Y-113198351D01*
X167245983Y-113188229D01*
X167245984Y-113188229D01*
X167253593Y-113186018D01*
X167260412Y-113181985D01*
X167260417Y-113181983D01*
X167271028Y-113175707D01*
X167288776Y-113167012D01*
X167307617Y-113159552D01*
X167343387Y-113133564D01*
X167353307Y-113127048D01*
X167384535Y-113108580D01*
X167384538Y-113108578D01*
X167391362Y-113104542D01*
X167405683Y-113090221D01*
X167420717Y-113077380D01*
X167430694Y-113070131D01*
X167437107Y-113065472D01*
X167465298Y-113031395D01*
X167473288Y-113022616D01*
X167900499Y-112595405D01*
X167962811Y-112561379D01*
X167989594Y-112558500D01*
X168248134Y-112558500D01*
X168310316Y-112551745D01*
X168446705Y-112500615D01*
X168563261Y-112413261D01*
X168568642Y-112406081D01*
X168574992Y-112399731D01*
X168577240Y-112401979D01*
X168621541Y-112368861D01*
X168692360Y-112363842D01*
X168754650Y-112397907D01*
X168788635Y-112460241D01*
X168791497Y-112486945D01*
X168791497Y-119320500D01*
X168791495Y-119321238D01*
X168791489Y-119322262D01*
X168791452Y-119324633D01*
X168789460Y-119405031D01*
X168782825Y-119672698D01*
X168782518Y-119678908D01*
X168776284Y-119762695D01*
X168757359Y-120017053D01*
X168756745Y-120023236D01*
X168730930Y-120231060D01*
X168715104Y-120358462D01*
X168714191Y-120364582D01*
X168676985Y-120577816D01*
X168656297Y-120696378D01*
X168655089Y-120702419D01*
X168611392Y-120896212D01*
X168581170Y-121030242D01*
X168579668Y-121036219D01*
X168489962Y-121359477D01*
X168488172Y-121365364D01*
X168382923Y-121683465D01*
X168380851Y-121689251D01*
X168260267Y-122001707D01*
X168257922Y-122007367D01*
X168122239Y-122313593D01*
X168119632Y-122319110D01*
X167998026Y-122560977D01*
X167969099Y-122618512D01*
X167966202Y-122623940D01*
X167875809Y-122783773D01*
X167801070Y-122915925D01*
X167797910Y-122921208D01*
X167697984Y-123079317D01*
X167618361Y-123205301D01*
X167614934Y-123210439D01*
X167421271Y-123485972D01*
X167417606Y-123490924D01*
X167209959Y-123757472D01*
X167206071Y-123762218D01*
X166984758Y-124019113D01*
X166980601Y-124023704D01*
X166756873Y-124258805D01*
X166747853Y-124267389D01*
X166716173Y-124294687D01*
X166711290Y-124302221D01*
X166708571Y-124305337D01*
X166700486Y-124313779D01*
X166494632Y-124509676D01*
X166490031Y-124513842D01*
X166247868Y-124722464D01*
X166233151Y-124735143D01*
X166228345Y-124739081D01*
X165961838Y-124946694D01*
X165956860Y-124950379D01*
X165681326Y-125144044D01*
X165676187Y-125147471D01*
X165392122Y-125327002D01*
X165386833Y-125330166D01*
X165094828Y-125495309D01*
X165089400Y-125498206D01*
X164790047Y-125648715D01*
X164784503Y-125651336D01*
X164478246Y-125787031D01*
X164472603Y-125789368D01*
X164319160Y-125848585D01*
X164160167Y-125909944D01*
X164154382Y-125912016D01*
X163836233Y-126017282D01*
X163830367Y-126019065D01*
X163507105Y-126108772D01*
X163501128Y-126110274D01*
X163173335Y-126184185D01*
X163167279Y-126185396D01*
X163074214Y-126201635D01*
X162835465Y-126243294D01*
X162829369Y-126244203D01*
X162541812Y-126279922D01*
X162494140Y-126285844D01*
X162487957Y-126286458D01*
X162487944Y-126286459D01*
X162149798Y-126311618D01*
X162143605Y-126311924D01*
X161804093Y-126320339D01*
X161795276Y-126320558D01*
X161792154Y-126320597D01*
X131807840Y-126320597D01*
X131804718Y-126320558D01*
X131798475Y-126320403D01*
X131456379Y-126311923D01*
X131450186Y-126311617D01*
X131145064Y-126288916D01*
X131112044Y-126286459D01*
X131105861Y-126285845D01*
X131063259Y-126280553D01*
X130770623Y-126244202D01*
X130764515Y-126243291D01*
X130584858Y-126211944D01*
X130432706Y-126185395D01*
X130426649Y-126184184D01*
X130098864Y-126110273D01*
X130092891Y-126108772D01*
X129769620Y-126019063D01*
X129763766Y-126017283D01*
X129445613Y-125912016D01*
X129439851Y-125909953D01*
X129127393Y-125789367D01*
X129121723Y-125787018D01*
X128815490Y-125651333D01*
X128809938Y-125648709D01*
X128510603Y-125498209D01*
X128505175Y-125495312D01*
X128213161Y-125330164D01*
X128207879Y-125327004D01*
X127923799Y-125147462D01*
X127918665Y-125144039D01*
X127643130Y-124950373D01*
X127638152Y-124946688D01*
X127478330Y-124822184D01*
X127371636Y-124739067D01*
X127366847Y-124735143D01*
X127109991Y-124513861D01*
X127105391Y-124509697D01*
X126898731Y-124313033D01*
X126892029Y-124305947D01*
X126887924Y-124299442D01*
X126853621Y-124269146D01*
X126845769Y-124261581D01*
X126619417Y-124023723D01*
X126615254Y-124019126D01*
X126393939Y-123762233D01*
X126390026Y-123757457D01*
X126384294Y-123750098D01*
X126218368Y-123537104D01*
X126182413Y-123490949D01*
X126178728Y-123485971D01*
X125985054Y-123210424D01*
X125981627Y-123205285D01*
X125802100Y-122921227D01*
X125798936Y-122915938D01*
X125676812Y-122700000D01*
X127186540Y-122700000D01*
X127206359Y-123015020D01*
X127265505Y-123325072D01*
X127363044Y-123625266D01*
X127364731Y-123628852D01*
X127364733Y-123628856D01*
X127495750Y-123907283D01*
X127495754Y-123907290D01*
X127497438Y-123910869D01*
X127666568Y-124177375D01*
X127739501Y-124265535D01*
X127839583Y-124386513D01*
X127867767Y-124420582D01*
X127870657Y-124423296D01*
X127870658Y-124423297D01*
X127880371Y-124432418D01*
X128097860Y-124636654D01*
X128353221Y-124822184D01*
X128356690Y-124824091D01*
X128356693Y-124824093D01*
X128613652Y-124965358D01*
X128629821Y-124974247D01*
X128633490Y-124975700D01*
X128633495Y-124975702D01*
X128919628Y-125088990D01*
X128923298Y-125090443D01*
X129229025Y-125168940D01*
X129542179Y-125208500D01*
X129857821Y-125208500D01*
X130170975Y-125168940D01*
X130476702Y-125090443D01*
X130480372Y-125088990D01*
X130766505Y-124975702D01*
X130766510Y-124975700D01*
X130770179Y-124974247D01*
X130786348Y-124965358D01*
X131043307Y-124824093D01*
X131043310Y-124824091D01*
X131046779Y-124822184D01*
X131302140Y-124636654D01*
X131519629Y-124432418D01*
X131529342Y-124423297D01*
X131529343Y-124423296D01*
X131532233Y-124420582D01*
X131560418Y-124386513D01*
X131660499Y-124265535D01*
X131733432Y-124177375D01*
X131902562Y-123910869D01*
X131904246Y-123907290D01*
X131904250Y-123907283D01*
X132035267Y-123628856D01*
X132035269Y-123628852D01*
X132036956Y-123625266D01*
X132134495Y-123325072D01*
X132193641Y-123015020D01*
X132213460Y-122700000D01*
X160786540Y-122700000D01*
X160806359Y-123015020D01*
X160865505Y-123325072D01*
X160963044Y-123625266D01*
X160964731Y-123628852D01*
X160964733Y-123628856D01*
X161095750Y-123907283D01*
X161095754Y-123907290D01*
X161097438Y-123910869D01*
X161266568Y-124177375D01*
X161339501Y-124265535D01*
X161439583Y-124386513D01*
X161467767Y-124420582D01*
X161470657Y-124423296D01*
X161470658Y-124423297D01*
X161480371Y-124432418D01*
X161697860Y-124636654D01*
X161953221Y-124822184D01*
X161956690Y-124824091D01*
X161956693Y-124824093D01*
X162213652Y-124965358D01*
X162229821Y-124974247D01*
X162233490Y-124975700D01*
X162233495Y-124975702D01*
X162519628Y-125088990D01*
X162523298Y-125090443D01*
X162829025Y-125168940D01*
X163142179Y-125208500D01*
X163457821Y-125208500D01*
X163770975Y-125168940D01*
X164076702Y-125090443D01*
X164080372Y-125088990D01*
X164366505Y-124975702D01*
X164366510Y-124975700D01*
X164370179Y-124974247D01*
X164386348Y-124965358D01*
X164643307Y-124824093D01*
X164643310Y-124824091D01*
X164646779Y-124822184D01*
X164902140Y-124636654D01*
X165119629Y-124432418D01*
X165129342Y-124423297D01*
X165129343Y-124423296D01*
X165132233Y-124420582D01*
X165160418Y-124386513D01*
X165260499Y-124265535D01*
X165333432Y-124177375D01*
X165502562Y-123910869D01*
X165504246Y-123907290D01*
X165504250Y-123907283D01*
X165635267Y-123628856D01*
X165635269Y-123628852D01*
X165636956Y-123625266D01*
X165734495Y-123325072D01*
X165793641Y-123015020D01*
X165813460Y-122700000D01*
X165793641Y-122384980D01*
X165734495Y-122074928D01*
X165636956Y-121774734D01*
X165599895Y-121695975D01*
X165504250Y-121492717D01*
X165504246Y-121492710D01*
X165502562Y-121489131D01*
X165333432Y-121222625D01*
X165179223Y-121036219D01*
X165134758Y-120982470D01*
X165134757Y-120982469D01*
X165132233Y-120979418D01*
X164902140Y-120763346D01*
X164646779Y-120577816D01*
X164597647Y-120550805D01*
X164373648Y-120427660D01*
X164373647Y-120427659D01*
X164370179Y-120425753D01*
X164366510Y-120424300D01*
X164366505Y-120424298D01*
X164080372Y-120311010D01*
X164080371Y-120311010D01*
X164076702Y-120309557D01*
X163770975Y-120231060D01*
X163457821Y-120191500D01*
X163142179Y-120191500D01*
X162829025Y-120231060D01*
X162523298Y-120309557D01*
X162519629Y-120311010D01*
X162519628Y-120311010D01*
X162233495Y-120424298D01*
X162233490Y-120424300D01*
X162229821Y-120425753D01*
X162226353Y-120427659D01*
X162226352Y-120427660D01*
X162002354Y-120550805D01*
X161953221Y-120577816D01*
X161697860Y-120763346D01*
X161467767Y-120979418D01*
X161465243Y-120982469D01*
X161465242Y-120982470D01*
X161420777Y-121036219D01*
X161266568Y-121222625D01*
X161097438Y-121489131D01*
X161095754Y-121492710D01*
X161095750Y-121492717D01*
X161000105Y-121695975D01*
X160963044Y-121774734D01*
X160865505Y-122074928D01*
X160806359Y-122384980D01*
X160786540Y-122700000D01*
X132213460Y-122700000D01*
X132193641Y-122384980D01*
X132134495Y-122074928D01*
X132036956Y-121774734D01*
X131999895Y-121695975D01*
X131904250Y-121492717D01*
X131904246Y-121492710D01*
X131902562Y-121489131D01*
X131733432Y-121222625D01*
X131579223Y-121036219D01*
X131534758Y-120982470D01*
X131534757Y-120982469D01*
X131532233Y-120979418D01*
X131302140Y-120763346D01*
X131046779Y-120577816D01*
X130997647Y-120550805D01*
X130773648Y-120427660D01*
X130773647Y-120427659D01*
X130770179Y-120425753D01*
X130766510Y-120424300D01*
X130766505Y-120424298D01*
X130480372Y-120311010D01*
X130480371Y-120311010D01*
X130476702Y-120309557D01*
X130170975Y-120231060D01*
X129857821Y-120191500D01*
X129542179Y-120191500D01*
X129229025Y-120231060D01*
X128923298Y-120309557D01*
X128919629Y-120311010D01*
X128919628Y-120311010D01*
X128633495Y-120424298D01*
X128633490Y-120424300D01*
X128629821Y-120425753D01*
X128626353Y-120427659D01*
X128626352Y-120427660D01*
X128402354Y-120550805D01*
X128353221Y-120577816D01*
X128097860Y-120763346D01*
X127867767Y-120979418D01*
X127865243Y-120982469D01*
X127865242Y-120982470D01*
X127820777Y-121036219D01*
X127666568Y-121222625D01*
X127497438Y-121489131D01*
X127495754Y-121492710D01*
X127495750Y-121492717D01*
X127400105Y-121695975D01*
X127363044Y-121774734D01*
X127265505Y-122074928D01*
X127206359Y-122384980D01*
X127186540Y-122700000D01*
X125676812Y-122700000D01*
X125633796Y-122623940D01*
X125630899Y-122618512D01*
X125529265Y-122416369D01*
X125480376Y-122319131D01*
X125477758Y-122313593D01*
X125342076Y-122007367D01*
X125339725Y-122001691D01*
X125252136Y-121774734D01*
X125219143Y-121689244D01*
X125217074Y-121683465D01*
X125111819Y-121365343D01*
X125110034Y-121359472D01*
X125098929Y-121319452D01*
X125020325Y-121036202D01*
X125018824Y-121030228D01*
X124944913Y-120702435D01*
X124943702Y-120696378D01*
X124885807Y-120364582D01*
X124884893Y-120358456D01*
X124869191Y-120232045D01*
X124843253Y-120023236D01*
X124842639Y-120017056D01*
X124823714Y-119762695D01*
X124817479Y-119678895D01*
X124817172Y-119672685D01*
X124808540Y-119324382D01*
X124808501Y-119321260D01*
X124808501Y-117237693D01*
X130149410Y-117237693D01*
X130156124Y-117316825D01*
X130157914Y-117327297D01*
X130213130Y-117540035D01*
X130216665Y-117550075D01*
X130306937Y-117750470D01*
X130312106Y-117759756D01*
X130434850Y-117942075D01*
X130441519Y-117950370D01*
X130593228Y-118109400D01*
X130601186Y-118116441D01*
X130777525Y-118247641D01*
X130786562Y-118253245D01*
X130982484Y-118352857D01*
X130992335Y-118356857D01*
X131202240Y-118422034D01*
X131212624Y-118424317D01*
X131228043Y-118426361D01*
X131242207Y-118424165D01*
X131246000Y-118410978D01*
X131246000Y-118408692D01*
X131754000Y-118408692D01*
X131757973Y-118422223D01*
X131768580Y-118423748D01*
X131886421Y-118399023D01*
X131896617Y-118395963D01*
X132101029Y-118315237D01*
X132110561Y-118310506D01*
X132298462Y-118196484D01*
X132307052Y-118190220D01*
X132473052Y-118046173D01*
X132480472Y-118038542D01*
X132619826Y-117868589D01*
X132625848Y-117859826D01*
X132641238Y-117832789D01*
X132692320Y-117783482D01*
X132761951Y-117769620D01*
X132828022Y-117795603D01*
X132855261Y-117824753D01*
X132884773Y-117868589D01*
X132937441Y-117946819D01*
X132941120Y-117950676D01*
X132941122Y-117950678D01*
X132998212Y-118010523D01*
X133096576Y-118113635D01*
X133281542Y-118251254D01*
X133286293Y-118253670D01*
X133286297Y-118253672D01*
X133349481Y-118285796D01*
X133487051Y-118355740D01*
X133492145Y-118357322D01*
X133492148Y-118357323D01*
X133656121Y-118408238D01*
X133707227Y-118424107D01*
X133712516Y-118424808D01*
X133930489Y-118453698D01*
X133930494Y-118453698D01*
X133935774Y-118454398D01*
X133941103Y-118454198D01*
X133941105Y-118454198D01*
X134050966Y-118450073D01*
X134166158Y-118445749D01*
X134188802Y-118440998D01*
X134297633Y-118418163D01*
X134391791Y-118398407D01*
X134396750Y-118396449D01*
X134396752Y-118396448D01*
X134601256Y-118315685D01*
X134601258Y-118315684D01*
X134606221Y-118313724D01*
X134611525Y-118310506D01*
X134798757Y-118196890D01*
X134798756Y-118196890D01*
X134803317Y-118194123D01*
X134845268Y-118157720D01*
X134973412Y-118046523D01*
X134973414Y-118046521D01*
X134977445Y-118043023D01*
X135006670Y-118007380D01*
X135065329Y-117967386D01*
X135136299Y-117965454D01*
X135197048Y-118002198D01*
X135211248Y-118020968D01*
X135265972Y-118109400D01*
X135301522Y-118166848D01*
X135426697Y-118291805D01*
X135432927Y-118295645D01*
X135432928Y-118295646D01*
X135570090Y-118380194D01*
X135577262Y-118384615D01*
X135640627Y-118405632D01*
X135738611Y-118438132D01*
X135738613Y-118438132D01*
X135745139Y-118440297D01*
X135751975Y-118440997D01*
X135751978Y-118440998D01*
X135787663Y-118444654D01*
X135849600Y-118451000D01*
X137150400Y-118451000D01*
X137153646Y-118450663D01*
X137153650Y-118450663D01*
X137249308Y-118440738D01*
X137249312Y-118440737D01*
X137256166Y-118440026D01*
X137262702Y-118437845D01*
X137262704Y-118437845D01*
X137407508Y-118389534D01*
X137423946Y-118384050D01*
X137574348Y-118290978D01*
X137699305Y-118165803D01*
X137704037Y-118158126D01*
X137788275Y-118021468D01*
X137788276Y-118021466D01*
X137792115Y-118015238D01*
X137847797Y-117847361D01*
X137850114Y-117824753D01*
X137858172Y-117746098D01*
X137858500Y-117742900D01*
X137858500Y-117205193D01*
X142649410Y-117205193D01*
X142656124Y-117284325D01*
X142657914Y-117294797D01*
X142713130Y-117507535D01*
X142716665Y-117517575D01*
X142806937Y-117717970D01*
X142812106Y-117727256D01*
X142934850Y-117909575D01*
X142941519Y-117917870D01*
X143093228Y-118076900D01*
X143101186Y-118083941D01*
X143277525Y-118215141D01*
X143286562Y-118220745D01*
X143482484Y-118320357D01*
X143492335Y-118324357D01*
X143702240Y-118389534D01*
X143712624Y-118391817D01*
X143728043Y-118393861D01*
X143742207Y-118391665D01*
X143746000Y-118378478D01*
X143746000Y-118376192D01*
X144254000Y-118376192D01*
X144257973Y-118389723D01*
X144268580Y-118391248D01*
X144386421Y-118366523D01*
X144396617Y-118363463D01*
X144601029Y-118282737D01*
X144610561Y-118278006D01*
X144798462Y-118163984D01*
X144807052Y-118157720D01*
X144973052Y-118013673D01*
X144980472Y-118006042D01*
X145119826Y-117836089D01*
X145125848Y-117827326D01*
X145141238Y-117800289D01*
X145192320Y-117750982D01*
X145261951Y-117737120D01*
X145328022Y-117763103D01*
X145355261Y-117792253D01*
X145382552Y-117832789D01*
X145437441Y-117914319D01*
X145441120Y-117918176D01*
X145441122Y-117918178D01*
X145502710Y-117982738D01*
X145596576Y-118081135D01*
X145600854Y-118084318D01*
X145658317Y-118127072D01*
X145781542Y-118218754D01*
X145786293Y-118221170D01*
X145786297Y-118221172D01*
X145851129Y-118254134D01*
X145987051Y-118323240D01*
X145992145Y-118324822D01*
X145992148Y-118324823D01*
X146182890Y-118384050D01*
X146207227Y-118391607D01*
X146212516Y-118392308D01*
X146430489Y-118421198D01*
X146430494Y-118421198D01*
X146435774Y-118421898D01*
X146441103Y-118421698D01*
X146441105Y-118421698D01*
X146550966Y-118417573D01*
X146666158Y-118413249D01*
X146688802Y-118408498D01*
X146886572Y-118367002D01*
X146891791Y-118365907D01*
X146896750Y-118363949D01*
X146896752Y-118363948D01*
X147101256Y-118283185D01*
X147101258Y-118283184D01*
X147106221Y-118281224D01*
X147111525Y-118278006D01*
X147294706Y-118166848D01*
X147303317Y-118161623D01*
X147343134Y-118127072D01*
X147473412Y-118014023D01*
X147473414Y-118014021D01*
X147477445Y-118010523D01*
X147506670Y-117974880D01*
X147565329Y-117934886D01*
X147636299Y-117932954D01*
X147697048Y-117969698D01*
X147711248Y-117988468D01*
X147731360Y-118020968D01*
X147801522Y-118134348D01*
X147926697Y-118259305D01*
X147932927Y-118263145D01*
X147932928Y-118263146D01*
X148070090Y-118347694D01*
X148077262Y-118352115D01*
X148112938Y-118363948D01*
X148238611Y-118405632D01*
X148238613Y-118405632D01*
X148245139Y-118407797D01*
X148251975Y-118408497D01*
X148251978Y-118408498D01*
X148287663Y-118412154D01*
X148349600Y-118418500D01*
X149650400Y-118418500D01*
X149653646Y-118418163D01*
X149653650Y-118418163D01*
X149749308Y-118408238D01*
X149749312Y-118408237D01*
X149756166Y-118407526D01*
X149762702Y-118405345D01*
X149762704Y-118405345D01*
X149911387Y-118355740D01*
X149923946Y-118351550D01*
X150074348Y-118258478D01*
X150199305Y-118133303D01*
X150231462Y-118081135D01*
X150288275Y-117988968D01*
X150288276Y-117988966D01*
X150292115Y-117982738D01*
X150334852Y-117853889D01*
X150345632Y-117821389D01*
X150345632Y-117821387D01*
X150347797Y-117814861D01*
X150350114Y-117792253D01*
X150358172Y-117713598D01*
X150358500Y-117710400D01*
X150358500Y-117237693D01*
X155149410Y-117237693D01*
X155156124Y-117316825D01*
X155157914Y-117327297D01*
X155213130Y-117540035D01*
X155216665Y-117550075D01*
X155306937Y-117750470D01*
X155312106Y-117759756D01*
X155434850Y-117942075D01*
X155441519Y-117950370D01*
X155593228Y-118109400D01*
X155601186Y-118116441D01*
X155777525Y-118247641D01*
X155786562Y-118253245D01*
X155982484Y-118352857D01*
X155992335Y-118356857D01*
X156202240Y-118422034D01*
X156212624Y-118424317D01*
X156228043Y-118426361D01*
X156242207Y-118424165D01*
X156246000Y-118410978D01*
X156246000Y-118408692D01*
X156754000Y-118408692D01*
X156757973Y-118422223D01*
X156768580Y-118423748D01*
X156886421Y-118399023D01*
X156896617Y-118395963D01*
X157101029Y-118315237D01*
X157110561Y-118310506D01*
X157298462Y-118196484D01*
X157307052Y-118190220D01*
X157473052Y-118046173D01*
X157480472Y-118038542D01*
X157619826Y-117868589D01*
X157625848Y-117859826D01*
X157641238Y-117832789D01*
X157692320Y-117783482D01*
X157761951Y-117769620D01*
X157828022Y-117795603D01*
X157855261Y-117824753D01*
X157884773Y-117868589D01*
X157937441Y-117946819D01*
X157941120Y-117950676D01*
X157941122Y-117950678D01*
X157998212Y-118010523D01*
X158096576Y-118113635D01*
X158281542Y-118251254D01*
X158286293Y-118253670D01*
X158286297Y-118253672D01*
X158349481Y-118285796D01*
X158487051Y-118355740D01*
X158492145Y-118357322D01*
X158492148Y-118357323D01*
X158656121Y-118408238D01*
X158707227Y-118424107D01*
X158712516Y-118424808D01*
X158930489Y-118453698D01*
X158930494Y-118453698D01*
X158935774Y-118454398D01*
X158941103Y-118454198D01*
X158941105Y-118454198D01*
X159050966Y-118450073D01*
X159166158Y-118445749D01*
X159188802Y-118440998D01*
X159297633Y-118418163D01*
X159391791Y-118398407D01*
X159396750Y-118396449D01*
X159396752Y-118396448D01*
X159601256Y-118315685D01*
X159601258Y-118315684D01*
X159606221Y-118313724D01*
X159611525Y-118310506D01*
X159798757Y-118196890D01*
X159798756Y-118196890D01*
X159803317Y-118194123D01*
X159845268Y-118157720D01*
X159973412Y-118046523D01*
X159973414Y-118046521D01*
X159977445Y-118043023D01*
X160006670Y-118007380D01*
X160065329Y-117967386D01*
X160136299Y-117965454D01*
X160197048Y-118002198D01*
X160211248Y-118020968D01*
X160265972Y-118109400D01*
X160301522Y-118166848D01*
X160426697Y-118291805D01*
X160432927Y-118295645D01*
X160432928Y-118295646D01*
X160570090Y-118380194D01*
X160577262Y-118384615D01*
X160640627Y-118405632D01*
X160738611Y-118438132D01*
X160738613Y-118438132D01*
X160745139Y-118440297D01*
X160751975Y-118440997D01*
X160751978Y-118440998D01*
X160787663Y-118444654D01*
X160849600Y-118451000D01*
X162150400Y-118451000D01*
X162153646Y-118450663D01*
X162153650Y-118450663D01*
X162249308Y-118440738D01*
X162249312Y-118440737D01*
X162256166Y-118440026D01*
X162262702Y-118437845D01*
X162262704Y-118437845D01*
X162407508Y-118389534D01*
X162423946Y-118384050D01*
X162574348Y-118290978D01*
X162699305Y-118165803D01*
X162704037Y-118158126D01*
X162788275Y-118021468D01*
X162788276Y-118021466D01*
X162792115Y-118015238D01*
X162847797Y-117847361D01*
X162850114Y-117824753D01*
X162858172Y-117746098D01*
X162858500Y-117742900D01*
X162858500Y-116192100D01*
X162850696Y-116116884D01*
X162848238Y-116093192D01*
X162848237Y-116093188D01*
X162847526Y-116086334D01*
X162840785Y-116066127D01*
X162793868Y-115925502D01*
X162791550Y-115918554D01*
X162698478Y-115768152D01*
X162573303Y-115643195D01*
X162542965Y-115624494D01*
X162428968Y-115554225D01*
X162428966Y-115554224D01*
X162422738Y-115550385D01*
X162336330Y-115521725D01*
X162261389Y-115496868D01*
X162261387Y-115496868D01*
X162254861Y-115494703D01*
X162248025Y-115494003D01*
X162248022Y-115494002D01*
X162204969Y-115489591D01*
X162150400Y-115484000D01*
X160849600Y-115484000D01*
X160846354Y-115484337D01*
X160846350Y-115484337D01*
X160750692Y-115494262D01*
X160750688Y-115494263D01*
X160743834Y-115494974D01*
X160737298Y-115497155D01*
X160737296Y-115497155D01*
X160605194Y-115541228D01*
X160576054Y-115550950D01*
X160425652Y-115644022D01*
X160300695Y-115769197D01*
X160212065Y-115912982D01*
X160210920Y-115914839D01*
X160158148Y-115962332D01*
X160088076Y-115973756D01*
X160022952Y-115945482D01*
X160012490Y-115935695D01*
X159907103Y-115825222D01*
X159903424Y-115821365D01*
X159855465Y-115785682D01*
X159722740Y-115686932D01*
X159722741Y-115686932D01*
X159718458Y-115683746D01*
X159713707Y-115681330D01*
X159713703Y-115681328D01*
X159595588Y-115621276D01*
X159512949Y-115579260D01*
X159507855Y-115577678D01*
X159507852Y-115577677D01*
X159297871Y-115512476D01*
X159292773Y-115510893D01*
X159287484Y-115510192D01*
X159069511Y-115481302D01*
X159069506Y-115481302D01*
X159064226Y-115480602D01*
X159058897Y-115480802D01*
X159058895Y-115480802D01*
X158949034Y-115484927D01*
X158833842Y-115489251D01*
X158828623Y-115490346D01*
X158741438Y-115508639D01*
X158608209Y-115536593D01*
X158603250Y-115538551D01*
X158603248Y-115538552D01*
X158398744Y-115619315D01*
X158398742Y-115619316D01*
X158393779Y-115621276D01*
X158389220Y-115624043D01*
X158389217Y-115624044D01*
X158294113Y-115681755D01*
X158196683Y-115740877D01*
X158192653Y-115744374D01*
X158027989Y-115887262D01*
X158022555Y-115891977D01*
X158005332Y-115912982D01*
X157879760Y-116066127D01*
X157879756Y-116066133D01*
X157876376Y-116070255D01*
X157873733Y-116074898D01*
X157858171Y-116102235D01*
X157807088Y-116151541D01*
X157737458Y-116165402D01*
X157671387Y-116139418D01*
X157644149Y-116110268D01*
X157565148Y-115992922D01*
X157558481Y-115984630D01*
X157406772Y-115825600D01*
X157398814Y-115818559D01*
X157222475Y-115687359D01*
X157213438Y-115681755D01*
X157017516Y-115582143D01*
X157007665Y-115578143D01*
X156797760Y-115512966D01*
X156787376Y-115510683D01*
X156771957Y-115508639D01*
X156757793Y-115510835D01*
X156754000Y-115524022D01*
X156754000Y-118408692D01*
X156246000Y-118408692D01*
X156246000Y-117239615D01*
X156241525Y-117224376D01*
X156240135Y-117223171D01*
X156232452Y-117221500D01*
X155166151Y-117221500D01*
X155151473Y-117225810D01*
X155149410Y-117237693D01*
X150358500Y-117237693D01*
X150358500Y-116695674D01*
X155146496Y-116695674D01*
X155147915Y-116708914D01*
X155162550Y-116713500D01*
X156227885Y-116713500D01*
X156243124Y-116709025D01*
X156244329Y-116707635D01*
X156246000Y-116699952D01*
X156246000Y-115526308D01*
X156242027Y-115512777D01*
X156231420Y-115511252D01*
X156113579Y-115535977D01*
X156103383Y-115539037D01*
X155898971Y-115619763D01*
X155889439Y-115624494D01*
X155701538Y-115738516D01*
X155692948Y-115744780D01*
X155526948Y-115888827D01*
X155519528Y-115896458D01*
X155380174Y-116066411D01*
X155374150Y-116075178D01*
X155265424Y-116266182D01*
X155260959Y-116275846D01*
X155185969Y-116482441D01*
X155183198Y-116492708D01*
X155146496Y-116695674D01*
X150358500Y-116695674D01*
X150358500Y-116159600D01*
X150354068Y-116116884D01*
X150348238Y-116060692D01*
X150348237Y-116060688D01*
X150347526Y-116053834D01*
X150340785Y-116033627D01*
X150293868Y-115893002D01*
X150291550Y-115886054D01*
X150198478Y-115735652D01*
X150073303Y-115610695D01*
X150042965Y-115591994D01*
X149928968Y-115521725D01*
X149928966Y-115521724D01*
X149922738Y-115517885D01*
X149835806Y-115489051D01*
X149761389Y-115464368D01*
X149761387Y-115464368D01*
X149754861Y-115462203D01*
X149748025Y-115461503D01*
X149748022Y-115461502D01*
X149704969Y-115457091D01*
X149650400Y-115451500D01*
X148349600Y-115451500D01*
X148346354Y-115451837D01*
X148346350Y-115451837D01*
X148250692Y-115461762D01*
X148250688Y-115461763D01*
X148243834Y-115462474D01*
X148237298Y-115464655D01*
X148237296Y-115464655D01*
X148105461Y-115508639D01*
X148076054Y-115518450D01*
X147925652Y-115611522D01*
X147800695Y-115736697D01*
X147796855Y-115742927D01*
X147796854Y-115742928D01*
X147784494Y-115762979D01*
X147727170Y-115855977D01*
X147710920Y-115882339D01*
X147658148Y-115929832D01*
X147588076Y-115941256D01*
X147522952Y-115912982D01*
X147512490Y-115903195D01*
X147467446Y-115855977D01*
X147403424Y-115788865D01*
X147218458Y-115651246D01*
X147213707Y-115648830D01*
X147213703Y-115648828D01*
X147095588Y-115588776D01*
X147012949Y-115546760D01*
X147007855Y-115545178D01*
X147007852Y-115545177D01*
X146797871Y-115479976D01*
X146792773Y-115478393D01*
X146787484Y-115477692D01*
X146569511Y-115448802D01*
X146569506Y-115448802D01*
X146564226Y-115448102D01*
X146558897Y-115448302D01*
X146558895Y-115448302D01*
X146449034Y-115452427D01*
X146333842Y-115456751D01*
X146328623Y-115457846D01*
X146306566Y-115462474D01*
X146108209Y-115504093D01*
X146103250Y-115506051D01*
X146103248Y-115506052D01*
X145898744Y-115586815D01*
X145898742Y-115586816D01*
X145893779Y-115588776D01*
X145889220Y-115591543D01*
X145889217Y-115591544D01*
X145794197Y-115649204D01*
X145696683Y-115708377D01*
X145692653Y-115711874D01*
X145562031Y-115825222D01*
X145522555Y-115859477D01*
X145495907Y-115891977D01*
X145379760Y-116033627D01*
X145379756Y-116033633D01*
X145376376Y-116037755D01*
X145373733Y-116042398D01*
X145358171Y-116069735D01*
X145307088Y-116119041D01*
X145237458Y-116132902D01*
X145171387Y-116106918D01*
X145144149Y-116077768D01*
X145065148Y-115960422D01*
X145058481Y-115952130D01*
X144906772Y-115793100D01*
X144898814Y-115786059D01*
X144722475Y-115654859D01*
X144713438Y-115649255D01*
X144517516Y-115549643D01*
X144507665Y-115545643D01*
X144297760Y-115480466D01*
X144287376Y-115478183D01*
X144271957Y-115476139D01*
X144257793Y-115478335D01*
X144254000Y-115491522D01*
X144254000Y-118376192D01*
X143746000Y-118376192D01*
X143746000Y-117207115D01*
X143741525Y-117191876D01*
X143740135Y-117190671D01*
X143732452Y-117189000D01*
X142666151Y-117189000D01*
X142651473Y-117193310D01*
X142649410Y-117205193D01*
X137858500Y-117205193D01*
X137858500Y-116663174D01*
X142646496Y-116663174D01*
X142647915Y-116676414D01*
X142662550Y-116681000D01*
X143727885Y-116681000D01*
X143743124Y-116676525D01*
X143744329Y-116675135D01*
X143746000Y-116667452D01*
X143746000Y-115493808D01*
X143742027Y-115480277D01*
X143731420Y-115478752D01*
X143613579Y-115503477D01*
X143603383Y-115506537D01*
X143398971Y-115587263D01*
X143389439Y-115591994D01*
X143201538Y-115706016D01*
X143192948Y-115712280D01*
X143026948Y-115856327D01*
X143019528Y-115863958D01*
X142880174Y-116033911D01*
X142874150Y-116042678D01*
X142765424Y-116233682D01*
X142760959Y-116243346D01*
X142685969Y-116449941D01*
X142683198Y-116460208D01*
X142646496Y-116663174D01*
X137858500Y-116663174D01*
X137858500Y-116192100D01*
X137850696Y-116116884D01*
X137848238Y-116093192D01*
X137848237Y-116093188D01*
X137847526Y-116086334D01*
X137840785Y-116066127D01*
X137793868Y-115925502D01*
X137791550Y-115918554D01*
X137698478Y-115768152D01*
X137573303Y-115643195D01*
X137542965Y-115624494D01*
X137428968Y-115554225D01*
X137428966Y-115554224D01*
X137422738Y-115550385D01*
X137336330Y-115521725D01*
X137261389Y-115496868D01*
X137261387Y-115496868D01*
X137254861Y-115494703D01*
X137248025Y-115494003D01*
X137248022Y-115494002D01*
X137204969Y-115489591D01*
X137150400Y-115484000D01*
X135849600Y-115484000D01*
X135846354Y-115484337D01*
X135846350Y-115484337D01*
X135750692Y-115494262D01*
X135750688Y-115494263D01*
X135743834Y-115494974D01*
X135737298Y-115497155D01*
X135737296Y-115497155D01*
X135605194Y-115541228D01*
X135576054Y-115550950D01*
X135425652Y-115644022D01*
X135300695Y-115769197D01*
X135212065Y-115912982D01*
X135210920Y-115914839D01*
X135158148Y-115962332D01*
X135088076Y-115973756D01*
X135022952Y-115945482D01*
X135012490Y-115935695D01*
X134907103Y-115825222D01*
X134903424Y-115821365D01*
X134855465Y-115785682D01*
X134722740Y-115686932D01*
X134722741Y-115686932D01*
X134718458Y-115683746D01*
X134713707Y-115681330D01*
X134713703Y-115681328D01*
X134595588Y-115621276D01*
X134512949Y-115579260D01*
X134507855Y-115577678D01*
X134507852Y-115577677D01*
X134297871Y-115512476D01*
X134292773Y-115510893D01*
X134287484Y-115510192D01*
X134069511Y-115481302D01*
X134069506Y-115481302D01*
X134064226Y-115480602D01*
X134058897Y-115480802D01*
X134058895Y-115480802D01*
X133949034Y-115484927D01*
X133833842Y-115489251D01*
X133828623Y-115490346D01*
X133741438Y-115508639D01*
X133608209Y-115536593D01*
X133603250Y-115538551D01*
X133603248Y-115538552D01*
X133398744Y-115619315D01*
X133398742Y-115619316D01*
X133393779Y-115621276D01*
X133389220Y-115624043D01*
X133389217Y-115624044D01*
X133294113Y-115681755D01*
X133196683Y-115740877D01*
X133192653Y-115744374D01*
X133027989Y-115887262D01*
X133022555Y-115891977D01*
X133005332Y-115912982D01*
X132879760Y-116066127D01*
X132879756Y-116066133D01*
X132876376Y-116070255D01*
X132873733Y-116074898D01*
X132858171Y-116102235D01*
X132807088Y-116151541D01*
X132737458Y-116165402D01*
X132671387Y-116139418D01*
X132644149Y-116110268D01*
X132565148Y-115992922D01*
X132558481Y-115984630D01*
X132406772Y-115825600D01*
X132398814Y-115818559D01*
X132222475Y-115687359D01*
X132213438Y-115681755D01*
X132017516Y-115582143D01*
X132007665Y-115578143D01*
X131797760Y-115512966D01*
X131787376Y-115510683D01*
X131771957Y-115508639D01*
X131757793Y-115510835D01*
X131754000Y-115524022D01*
X131754000Y-118408692D01*
X131246000Y-118408692D01*
X131246000Y-117239615D01*
X131241525Y-117224376D01*
X131240135Y-117223171D01*
X131232452Y-117221500D01*
X130166151Y-117221500D01*
X130151473Y-117225810D01*
X130149410Y-117237693D01*
X124808501Y-117237693D01*
X124808501Y-116695674D01*
X130146496Y-116695674D01*
X130147915Y-116708914D01*
X130162550Y-116713500D01*
X131227885Y-116713500D01*
X131243124Y-116709025D01*
X131244329Y-116707635D01*
X131246000Y-116699952D01*
X131246000Y-115526308D01*
X131242027Y-115512777D01*
X131231420Y-115511252D01*
X131113579Y-115535977D01*
X131103383Y-115539037D01*
X130898971Y-115619763D01*
X130889439Y-115624494D01*
X130701538Y-115738516D01*
X130692948Y-115744780D01*
X130526948Y-115888827D01*
X130519528Y-115896458D01*
X130380174Y-116066411D01*
X130374150Y-116075178D01*
X130265424Y-116266182D01*
X130260959Y-116275846D01*
X130185969Y-116482441D01*
X130183198Y-116492708D01*
X130146496Y-116695674D01*
X124808501Y-116695674D01*
X124808501Y-111726695D01*
X126137251Y-111726695D01*
X126137548Y-111731848D01*
X126137548Y-111731851D01*
X126143011Y-111826590D01*
X126150110Y-111949715D01*
X126151247Y-111954761D01*
X126151248Y-111954767D01*
X126157932Y-111984424D01*
X126199222Y-112167639D01*
X126283266Y-112374616D01*
X126300034Y-112401979D01*
X126395724Y-112558131D01*
X126399987Y-112565088D01*
X126546250Y-112733938D01*
X126718126Y-112876632D01*
X126911000Y-112989338D01*
X126915825Y-112991180D01*
X126915826Y-112991181D01*
X126941608Y-113001026D01*
X127119692Y-113069030D01*
X127124760Y-113070061D01*
X127124763Y-113070062D01*
X127204655Y-113086316D01*
X127338597Y-113113567D01*
X127343772Y-113113757D01*
X127343774Y-113113757D01*
X127556673Y-113121564D01*
X127556677Y-113121564D01*
X127561837Y-113121753D01*
X127566957Y-113121097D01*
X127566959Y-113121097D01*
X127778288Y-113094025D01*
X127778289Y-113094025D01*
X127783416Y-113093368D01*
X127788366Y-113091883D01*
X127992429Y-113030661D01*
X127992434Y-113030659D01*
X127997384Y-113029174D01*
X128011834Y-113022095D01*
X162067001Y-113022095D01*
X162067338Y-113028614D01*
X162077257Y-113124206D01*
X162080149Y-113137600D01*
X162131588Y-113291784D01*
X162137761Y-113304962D01*
X162223063Y-113442807D01*
X162232099Y-113454208D01*
X162346829Y-113568739D01*
X162358240Y-113577751D01*
X162496243Y-113662816D01*
X162509424Y-113668963D01*
X162663710Y-113720138D01*
X162677086Y-113723005D01*
X162771438Y-113732672D01*
X162777854Y-113733000D01*
X163027885Y-113733000D01*
X163043124Y-113728525D01*
X163044329Y-113727135D01*
X163046000Y-113719452D01*
X163046000Y-112909615D01*
X163041525Y-112894376D01*
X163040135Y-112893171D01*
X163032452Y-112891500D01*
X162085116Y-112891500D01*
X162069877Y-112895975D01*
X162068672Y-112897365D01*
X162067001Y-112905048D01*
X162067001Y-113022095D01*
X128011834Y-113022095D01*
X128197994Y-112930896D01*
X128379860Y-112801173D01*
X128538096Y-112643489D01*
X128597594Y-112560689D01*
X128665435Y-112466277D01*
X128668453Y-112462077D01*
X128697403Y-112403502D01*
X128765136Y-112266453D01*
X128765137Y-112266451D01*
X128767430Y-112261811D01*
X128832370Y-112048069D01*
X128861529Y-111826590D01*
X128863156Y-111760000D01*
X128844852Y-111537361D01*
X128790431Y-111320702D01*
X128701354Y-111115840D01*
X128661906Y-111054862D01*
X128582822Y-110932617D01*
X128582820Y-110932614D01*
X128580014Y-110928277D01*
X128429670Y-110763051D01*
X128425619Y-110759852D01*
X128425615Y-110759848D01*
X128258414Y-110627800D01*
X128258410Y-110627798D01*
X128254359Y-110624598D01*
X128213053Y-110601796D01*
X128163084Y-110551364D01*
X128148312Y-110481921D01*
X128173428Y-110415516D01*
X128200780Y-110388909D01*
X128260444Y-110346351D01*
X128379860Y-110261173D01*
X128409780Y-110231358D01*
X128534435Y-110107137D01*
X128538096Y-110103489D01*
X128597594Y-110020689D01*
X128665435Y-109926277D01*
X128668453Y-109922077D01*
X128675410Y-109908002D01*
X128765136Y-109726453D01*
X128765137Y-109726451D01*
X128767430Y-109721811D01*
X128800027Y-109614523D01*
X128830865Y-109513023D01*
X128830865Y-109513021D01*
X128832370Y-109508069D01*
X128861529Y-109286590D01*
X128861611Y-109283240D01*
X128863074Y-109223365D01*
X128863074Y-109223361D01*
X128863156Y-109220000D01*
X128844852Y-108997361D01*
X128790431Y-108780702D01*
X128701354Y-108575840D01*
X128632090Y-108468774D01*
X128582822Y-108392617D01*
X128582820Y-108392614D01*
X128580014Y-108388277D01*
X128429670Y-108223051D01*
X128425619Y-108219852D01*
X128425615Y-108219848D01*
X128258414Y-108087800D01*
X128258410Y-108087798D01*
X128254359Y-108084598D01*
X128213053Y-108061796D01*
X128163084Y-108011364D01*
X128148312Y-107941921D01*
X128173428Y-107875516D01*
X128200780Y-107848909D01*
X128248886Y-107814595D01*
X128379860Y-107721173D01*
X128538096Y-107563489D01*
X128597594Y-107480689D01*
X128665435Y-107386277D01*
X128668453Y-107382077D01*
X128673736Y-107371389D01*
X128765136Y-107186453D01*
X128765137Y-107186451D01*
X128767430Y-107181811D01*
X128804719Y-107059079D01*
X128830865Y-106973023D01*
X128830865Y-106973021D01*
X128832370Y-106968069D01*
X128861529Y-106746590D01*
X128863156Y-106680000D01*
X128844852Y-106457361D01*
X128790431Y-106240702D01*
X128701354Y-106035840D01*
X128624150Y-105916501D01*
X128582822Y-105852617D01*
X128582820Y-105852614D01*
X128580014Y-105848277D01*
X128429670Y-105683051D01*
X128425619Y-105679852D01*
X128425615Y-105679848D01*
X128258414Y-105547800D01*
X128258410Y-105547798D01*
X128254359Y-105544598D01*
X128213053Y-105521796D01*
X128163084Y-105471364D01*
X128152603Y-105422095D01*
X134017001Y-105422095D01*
X134017338Y-105428614D01*
X134027257Y-105524206D01*
X134030149Y-105537600D01*
X134081588Y-105691784D01*
X134087761Y-105704962D01*
X134173063Y-105842807D01*
X134182099Y-105854208D01*
X134296829Y-105968739D01*
X134308240Y-105977751D01*
X134446243Y-106062816D01*
X134459424Y-106068963D01*
X134613710Y-106120138D01*
X134627086Y-106123005D01*
X134721438Y-106132672D01*
X134727854Y-106133000D01*
X134977885Y-106133000D01*
X134993124Y-106128525D01*
X134994329Y-106127135D01*
X134996000Y-106119452D01*
X134996000Y-106114884D01*
X135504000Y-106114884D01*
X135508475Y-106130123D01*
X135509865Y-106131328D01*
X135517548Y-106132999D01*
X135772095Y-106132999D01*
X135778614Y-106132662D01*
X135874206Y-106122743D01*
X135887600Y-106119851D01*
X136041784Y-106068412D01*
X136054962Y-106062239D01*
X136192807Y-105976937D01*
X136204208Y-105967901D01*
X136318739Y-105853171D01*
X136327751Y-105841760D01*
X136412816Y-105703757D01*
X136418963Y-105690576D01*
X136470138Y-105536290D01*
X136473005Y-105522914D01*
X136482672Y-105428562D01*
X136483000Y-105422146D01*
X136483000Y-105422095D01*
X137517001Y-105422095D01*
X137517338Y-105428614D01*
X137527257Y-105524206D01*
X137530149Y-105537600D01*
X137581588Y-105691784D01*
X137587761Y-105704962D01*
X137673063Y-105842807D01*
X137682099Y-105854208D01*
X137796829Y-105968739D01*
X137808240Y-105977751D01*
X137946243Y-106062816D01*
X137959424Y-106068963D01*
X138113710Y-106120138D01*
X138127086Y-106123005D01*
X138221438Y-106132672D01*
X138227854Y-106133000D01*
X138477885Y-106133000D01*
X138493124Y-106128525D01*
X138494329Y-106127135D01*
X138496000Y-106119452D01*
X138496000Y-106114884D01*
X139004000Y-106114884D01*
X139008475Y-106130123D01*
X139009865Y-106131328D01*
X139017548Y-106132999D01*
X139272095Y-106132999D01*
X139278614Y-106132662D01*
X139374206Y-106122743D01*
X139387600Y-106119851D01*
X139541784Y-106068412D01*
X139554962Y-106062239D01*
X139692807Y-105976937D01*
X139704208Y-105967901D01*
X139818739Y-105853171D01*
X139827751Y-105841760D01*
X139912816Y-105703757D01*
X139918963Y-105690576D01*
X139970138Y-105536290D01*
X139973005Y-105522914D01*
X139982672Y-105428562D01*
X139983000Y-105422146D01*
X139983000Y-105309615D01*
X139978525Y-105294376D01*
X139977135Y-105293171D01*
X139969452Y-105291500D01*
X139022115Y-105291500D01*
X139006876Y-105295975D01*
X139005671Y-105297365D01*
X139004000Y-105305048D01*
X139004000Y-106114884D01*
X138496000Y-106114884D01*
X138496000Y-105309615D01*
X138491525Y-105294376D01*
X138490135Y-105293171D01*
X138482452Y-105291500D01*
X137535116Y-105291500D01*
X137519877Y-105295975D01*
X137518672Y-105297365D01*
X137517001Y-105305048D01*
X137517001Y-105422095D01*
X136483000Y-105422095D01*
X136483000Y-105309615D01*
X136478525Y-105294376D01*
X136477135Y-105293171D01*
X136469452Y-105291500D01*
X135522115Y-105291500D01*
X135506876Y-105295975D01*
X135505671Y-105297365D01*
X135504000Y-105305048D01*
X135504000Y-106114884D01*
X134996000Y-106114884D01*
X134996000Y-105309615D01*
X134991525Y-105294376D01*
X134990135Y-105293171D01*
X134982452Y-105291500D01*
X134035116Y-105291500D01*
X134019877Y-105295975D01*
X134018672Y-105297365D01*
X134017001Y-105305048D01*
X134017001Y-105422095D01*
X128152603Y-105422095D01*
X128148312Y-105401921D01*
X128173428Y-105335516D01*
X128200780Y-105308909D01*
X128253147Y-105271556D01*
X128379860Y-105181173D01*
X128538096Y-105023489D01*
X128555417Y-104999385D01*
X128665435Y-104846277D01*
X128668453Y-104842077D01*
X128682581Y-104813492D01*
X128765136Y-104646453D01*
X128765137Y-104646451D01*
X128767430Y-104641811D01*
X128832370Y-104428069D01*
X128861529Y-104206590D01*
X128861678Y-104200479D01*
X128863074Y-104143365D01*
X128863074Y-104143361D01*
X128863156Y-104140000D01*
X128844852Y-103917361D01*
X128790431Y-103700702D01*
X128701354Y-103495840D01*
X128607265Y-103350400D01*
X134016500Y-103350400D01*
X134016837Y-103353646D01*
X134016837Y-103353650D01*
X134026441Y-103446206D01*
X134027474Y-103456166D01*
X134029655Y-103462702D01*
X134029655Y-103462704D01*
X134046064Y-103511886D01*
X134083450Y-103623946D01*
X134176522Y-103774348D01*
X134301697Y-103899305D01*
X134306235Y-103902102D01*
X134346824Y-103959353D01*
X134350054Y-104030276D01*
X134314428Y-104091687D01*
X134305932Y-104099062D01*
X134295793Y-104107098D01*
X134181261Y-104221829D01*
X134172249Y-104233240D01*
X134087184Y-104371243D01*
X134081037Y-104384424D01*
X134029862Y-104538710D01*
X134026995Y-104552086D01*
X134017328Y-104646438D01*
X134017000Y-104652855D01*
X134017000Y-104765385D01*
X134021475Y-104780624D01*
X134022865Y-104781829D01*
X134030548Y-104783500D01*
X136464884Y-104783500D01*
X136480123Y-104779025D01*
X136481328Y-104777635D01*
X136482999Y-104769952D01*
X136482999Y-104652905D01*
X136482662Y-104646386D01*
X136472743Y-104550794D01*
X136469851Y-104537400D01*
X136418412Y-104383216D01*
X136412239Y-104370038D01*
X136326937Y-104232193D01*
X136317901Y-104220792D01*
X136203172Y-104106262D01*
X136194238Y-104099206D01*
X136153177Y-104041288D01*
X136149947Y-103970365D01*
X136185574Y-103908954D01*
X136193407Y-103902154D01*
X136199348Y-103898478D01*
X136213399Y-103884403D01*
X136319134Y-103778483D01*
X136324305Y-103773303D01*
X136329518Y-103764847D01*
X136385333Y-103674297D01*
X136396684Y-103655883D01*
X136449455Y-103608391D01*
X136503943Y-103596000D01*
X137495954Y-103596000D01*
X137564075Y-103616002D01*
X137603098Y-103655697D01*
X137645676Y-103724501D01*
X137676522Y-103774348D01*
X137801697Y-103899305D01*
X137806235Y-103902102D01*
X137846824Y-103959353D01*
X137850054Y-104030276D01*
X137814428Y-104091687D01*
X137805932Y-104099062D01*
X137795793Y-104107098D01*
X137681261Y-104221829D01*
X137672249Y-104233240D01*
X137587184Y-104371243D01*
X137581037Y-104384424D01*
X137529862Y-104538710D01*
X137526995Y-104552086D01*
X137517328Y-104646438D01*
X137517000Y-104652855D01*
X137517000Y-104765385D01*
X137521475Y-104780624D01*
X137522865Y-104781829D01*
X137530548Y-104783500D01*
X139964884Y-104783500D01*
X139980123Y-104779025D01*
X139981328Y-104777635D01*
X139982999Y-104769952D01*
X139982999Y-104652905D01*
X139982662Y-104646386D01*
X139972743Y-104550794D01*
X139969851Y-104537400D01*
X139918412Y-104383216D01*
X139912239Y-104370038D01*
X139826937Y-104232193D01*
X139817901Y-104220792D01*
X139703172Y-104106262D01*
X139694238Y-104099206D01*
X139653177Y-104041288D01*
X139649947Y-103970365D01*
X139685574Y-103908954D01*
X139693407Y-103902154D01*
X139699348Y-103898478D01*
X139713399Y-103884403D01*
X139819134Y-103778483D01*
X139824305Y-103773303D01*
X139829518Y-103764847D01*
X139873568Y-103693384D01*
X139926340Y-103645891D01*
X139980828Y-103633500D01*
X140421233Y-103633500D01*
X140432416Y-103634027D01*
X140439909Y-103635702D01*
X140447835Y-103635453D01*
X140447836Y-103635453D01*
X140507986Y-103633562D01*
X140511945Y-103633500D01*
X140539856Y-103633500D01*
X140543791Y-103633003D01*
X140543856Y-103632995D01*
X140555693Y-103632062D01*
X140589711Y-103630993D01*
X140591970Y-103630922D01*
X140599889Y-103630673D01*
X140619343Y-103625021D01*
X140638700Y-103621013D01*
X140650930Y-103619468D01*
X140650931Y-103619468D01*
X140658797Y-103618474D01*
X140666168Y-103615555D01*
X140666170Y-103615555D01*
X140699912Y-103602196D01*
X140711142Y-103598351D01*
X140745983Y-103588229D01*
X140745984Y-103588229D01*
X140753593Y-103586018D01*
X140760412Y-103581985D01*
X140760417Y-103581983D01*
X140771028Y-103575707D01*
X140788776Y-103567012D01*
X140807617Y-103559552D01*
X140843387Y-103533564D01*
X140853302Y-103527051D01*
X140878944Y-103511886D01*
X140947760Y-103494427D01*
X141015092Y-103516944D01*
X141059561Y-103572288D01*
X141068695Y-103610459D01*
X141069319Y-103618392D01*
X141071620Y-103630993D01*
X141110248Y-103763951D01*
X141110248Y-103834257D01*
X141082605Y-103929404D01*
X141069326Y-103975111D01*
X141068821Y-103981530D01*
X141066693Y-104008562D01*
X141066692Y-104008575D01*
X141066500Y-104011021D01*
X141066501Y-104388978D01*
X141066695Y-104391438D01*
X141066695Y-104391443D01*
X141068583Y-104415438D01*
X141069326Y-104424889D01*
X141071120Y-104431063D01*
X141071121Y-104431070D01*
X141109988Y-104564847D01*
X141109988Y-104635153D01*
X141071123Y-104768925D01*
X141069326Y-104775111D01*
X141068821Y-104781530D01*
X141066693Y-104808562D01*
X141066692Y-104808575D01*
X141066500Y-104811021D01*
X141066501Y-105188978D01*
X141069326Y-105224889D01*
X141071120Y-105231063D01*
X141071121Y-105231070D01*
X141109988Y-105364847D01*
X141109988Y-105435153D01*
X141071123Y-105568925D01*
X141069326Y-105575111D01*
X141068821Y-105581530D01*
X141066693Y-105608562D01*
X141066692Y-105608575D01*
X141066500Y-105611021D01*
X141066501Y-105988978D01*
X141066695Y-105991438D01*
X141066695Y-105991443D01*
X141067894Y-106006680D01*
X141069326Y-106024889D01*
X141113982Y-106178593D01*
X141118016Y-106185414D01*
X141191424Y-106309543D01*
X141191427Y-106309547D01*
X141195458Y-106316363D01*
X141308637Y-106429542D01*
X141315453Y-106433573D01*
X141315457Y-106433576D01*
X141421784Y-106496456D01*
X141446407Y-106511018D01*
X141454017Y-106513229D01*
X141593928Y-106553878D01*
X141593931Y-106553879D01*
X141600111Y-106555674D01*
X141612762Y-106556670D01*
X141633562Y-106558307D01*
X141633575Y-106558308D01*
X141636021Y-106558500D01*
X141641045Y-106558500D01*
X142301885Y-106558499D01*
X142370004Y-106578501D01*
X142416497Y-106632157D01*
X142426601Y-106702430D01*
X142397108Y-106767011D01*
X142337381Y-106805395D01*
X142328080Y-106807745D01*
X142224178Y-106829831D01*
X142224173Y-106829833D01*
X142217712Y-106831206D01*
X142211682Y-106833891D01*
X142211681Y-106833891D01*
X142049278Y-106906197D01*
X142049276Y-106906198D01*
X142043248Y-106908882D01*
X141888747Y-107021134D01*
X141884326Y-107026044D01*
X141884325Y-107026045D01*
X141828433Y-107088120D01*
X141760960Y-107163056D01*
X141702686Y-107263990D01*
X141675983Y-107310241D01*
X141665473Y-107328444D01*
X141606458Y-107510072D01*
X141605768Y-107516633D01*
X141605768Y-107516635D01*
X141603752Y-107535819D01*
X141586496Y-107700000D01*
X141587186Y-107706565D01*
X141603996Y-107866500D01*
X141606458Y-107889928D01*
X141665473Y-108071556D01*
X141760960Y-108236944D01*
X141765378Y-108241851D01*
X141765379Y-108241852D01*
X141884325Y-108373955D01*
X141888747Y-108378866D01*
X142043248Y-108491118D01*
X142049276Y-108493802D01*
X142049278Y-108493803D01*
X142178588Y-108551375D01*
X142217712Y-108568794D01*
X142311112Y-108588647D01*
X142398056Y-108607128D01*
X142398061Y-108607128D01*
X142404513Y-108608500D01*
X142595487Y-108608500D01*
X142601939Y-108607128D01*
X142601944Y-108607128D01*
X142688888Y-108588647D01*
X142782288Y-108568794D01*
X142821412Y-108551375D01*
X142950722Y-108493803D01*
X142950724Y-108493802D01*
X142956752Y-108491118D01*
X142987506Y-108468774D01*
X143105909Y-108382749D01*
X143105911Y-108382747D01*
X143111253Y-108378866D01*
X143115671Y-108373959D01*
X143120367Y-108369731D01*
X143184375Y-108339015D01*
X143254829Y-108347780D01*
X143268807Y-108354911D01*
X143321407Y-108386018D01*
X143329010Y-108388227D01*
X143329017Y-108388230D01*
X143370472Y-108400273D01*
X143430308Y-108438485D01*
X143459986Y-108502982D01*
X143455153Y-108560205D01*
X143406458Y-108710072D01*
X143405768Y-108716633D01*
X143405768Y-108716635D01*
X143396316Y-108806565D01*
X143386496Y-108900000D01*
X143387186Y-108906565D01*
X143399584Y-109024521D01*
X143406458Y-109089928D01*
X143465473Y-109271556D01*
X143468776Y-109277278D01*
X143468777Y-109277279D01*
X143482664Y-109301332D01*
X143560960Y-109436944D01*
X143565378Y-109441851D01*
X143565379Y-109441852D01*
X143649694Y-109535493D01*
X143688747Y-109578866D01*
X143763944Y-109633500D01*
X143826385Y-109678866D01*
X143843248Y-109691118D01*
X143849276Y-109693802D01*
X143849278Y-109693803D01*
X144011681Y-109766109D01*
X144017712Y-109768794D01*
X144104479Y-109787237D01*
X144198056Y-109807128D01*
X144198061Y-109807128D01*
X144204513Y-109808500D01*
X144395487Y-109808500D01*
X144401939Y-109807128D01*
X144401944Y-109807128D01*
X144495521Y-109787237D01*
X144582288Y-109768794D01*
X144588319Y-109766109D01*
X144750722Y-109693803D01*
X144750724Y-109693802D01*
X144756752Y-109691118D01*
X144773616Y-109678866D01*
X144836056Y-109633500D01*
X144911253Y-109578866D01*
X144950306Y-109535493D01*
X145034621Y-109441852D01*
X145034622Y-109441851D01*
X145039040Y-109436944D01*
X145117336Y-109301332D01*
X145131223Y-109277279D01*
X145131224Y-109277278D01*
X145134527Y-109271556D01*
X145193542Y-109089928D01*
X145200417Y-109024521D01*
X145212814Y-108906565D01*
X145213504Y-108900000D01*
X145203684Y-108806565D01*
X145194232Y-108716635D01*
X145194232Y-108716633D01*
X145193542Y-108710072D01*
X145157269Y-108598436D01*
X145155241Y-108527469D01*
X145191904Y-108466671D01*
X145255616Y-108435345D01*
X145277101Y-108433500D01*
X145483430Y-108433499D01*
X145488978Y-108433499D01*
X145496766Y-108432886D01*
X145518474Y-108431179D01*
X145518477Y-108431178D01*
X145524889Y-108430674D01*
X145531063Y-108428880D01*
X145531070Y-108428879D01*
X145664847Y-108390012D01*
X145735153Y-108390012D01*
X145868925Y-108428877D01*
X145868927Y-108428877D01*
X145875111Y-108430674D01*
X145887762Y-108431670D01*
X145908562Y-108433307D01*
X145908575Y-108433308D01*
X145911021Y-108433500D01*
X146099885Y-108433500D01*
X146288978Y-108433499D01*
X146296766Y-108432886D01*
X146318474Y-108431179D01*
X146318477Y-108431178D01*
X146324889Y-108430674D01*
X146331063Y-108428880D01*
X146331070Y-108428879D01*
X146361227Y-108420117D01*
X146432223Y-108420320D01*
X146491839Y-108458874D01*
X146521148Y-108523538D01*
X146516213Y-108580049D01*
X146506458Y-108610072D01*
X146505768Y-108616633D01*
X146505768Y-108616635D01*
X146489023Y-108775954D01*
X146486496Y-108800000D01*
X146506458Y-108989928D01*
X146565473Y-109171556D01*
X146568776Y-109177278D01*
X146568777Y-109177279D01*
X146575055Y-109188153D01*
X146660960Y-109336944D01*
X146665378Y-109341851D01*
X146665379Y-109341852D01*
X146777908Y-109466828D01*
X146788747Y-109478866D01*
X146887843Y-109550864D01*
X146926385Y-109578866D01*
X146943248Y-109591118D01*
X146949276Y-109593802D01*
X146949278Y-109593803D01*
X147036025Y-109632425D01*
X147117712Y-109668794D01*
X147183365Y-109682749D01*
X147298056Y-109707128D01*
X147298061Y-109707128D01*
X147304513Y-109708500D01*
X147495487Y-109708500D01*
X147501939Y-109707128D01*
X147501944Y-109707128D01*
X147616635Y-109682749D01*
X147682288Y-109668794D01*
X147763975Y-109632425D01*
X147850722Y-109593803D01*
X147850724Y-109593802D01*
X147856752Y-109591118D01*
X147875940Y-109577177D01*
X147942808Y-109553319D01*
X148011959Y-109569400D01*
X148024060Y-109577177D01*
X148043248Y-109591118D01*
X148049276Y-109593802D01*
X148049278Y-109593803D01*
X148136025Y-109632425D01*
X148217712Y-109668794D01*
X148283365Y-109682749D01*
X148398056Y-109707128D01*
X148398061Y-109707128D01*
X148404513Y-109708500D01*
X148595487Y-109708500D01*
X148601939Y-109707128D01*
X148601944Y-109707128D01*
X148716635Y-109682749D01*
X148782288Y-109668794D01*
X148948752Y-109594680D01*
X149019118Y-109585246D01*
X149051247Y-109594680D01*
X149217712Y-109668794D01*
X149283365Y-109682749D01*
X149398056Y-109707128D01*
X149398061Y-109707128D01*
X149404513Y-109708500D01*
X149595487Y-109708500D01*
X149601939Y-109707128D01*
X149601944Y-109707128D01*
X149716635Y-109682749D01*
X149782288Y-109668794D01*
X149863975Y-109632425D01*
X149950722Y-109593803D01*
X149950724Y-109593802D01*
X149956752Y-109591118D01*
X149973616Y-109578866D01*
X150012157Y-109550864D01*
X150111253Y-109478866D01*
X150122092Y-109466828D01*
X150234621Y-109341852D01*
X150234622Y-109341851D01*
X150239040Y-109336944D01*
X150324945Y-109188153D01*
X150331223Y-109177279D01*
X150331224Y-109177278D01*
X150334527Y-109171556D01*
X150393542Y-108989928D01*
X150413504Y-108800000D01*
X150410977Y-108775954D01*
X150394232Y-108616635D01*
X150394232Y-108616633D01*
X150393542Y-108610072D01*
X150334527Y-108428444D01*
X150329720Y-108420117D01*
X150292075Y-108354915D01*
X150239040Y-108263056D01*
X150203020Y-108223051D01*
X150115675Y-108126045D01*
X150115674Y-108126044D01*
X150111253Y-108121134D01*
X150090162Y-108105810D01*
X150083928Y-108101281D01*
X150040574Y-108045058D01*
X150034499Y-107974322D01*
X150036992Y-107964192D01*
X150052498Y-107910821D01*
X150055674Y-107899889D01*
X150058302Y-107866500D01*
X150058307Y-107866438D01*
X150058308Y-107866425D01*
X150058500Y-107863979D01*
X150058499Y-106944669D01*
X164992001Y-106944669D01*
X164992371Y-106951490D01*
X164997895Y-107002352D01*
X165001521Y-107017604D01*
X165046676Y-107138054D01*
X165055214Y-107153649D01*
X165131715Y-107255724D01*
X165144276Y-107268285D01*
X165246351Y-107344786D01*
X165261946Y-107353324D01*
X165382394Y-107398478D01*
X165397649Y-107402105D01*
X165448514Y-107407631D01*
X165455328Y-107408000D01*
X165727885Y-107408000D01*
X165743124Y-107403525D01*
X165744329Y-107402135D01*
X165746000Y-107394452D01*
X165746000Y-106447115D01*
X165741525Y-106431876D01*
X165740135Y-106430671D01*
X165732452Y-106429000D01*
X165010116Y-106429000D01*
X164994877Y-106433475D01*
X164993672Y-106434865D01*
X164992001Y-106442548D01*
X164992001Y-106944669D01*
X150058499Y-106944669D01*
X150058499Y-106684500D01*
X150078501Y-106616379D01*
X150132157Y-106569886D01*
X150184499Y-106558500D01*
X151338839Y-106558499D01*
X151363978Y-106558499D01*
X151371766Y-106557886D01*
X151393474Y-106556179D01*
X151393477Y-106556178D01*
X151399889Y-106555674D01*
X151553593Y-106511018D01*
X151578216Y-106496456D01*
X151684543Y-106433576D01*
X151684547Y-106433573D01*
X151691363Y-106429542D01*
X151804542Y-106316363D01*
X151808573Y-106309547D01*
X151808576Y-106309543D01*
X151881984Y-106185414D01*
X151886018Y-106178593D01*
X151899360Y-106132672D01*
X151928878Y-106031072D01*
X151928879Y-106031067D01*
X151930674Y-106024889D01*
X151932444Y-106002401D01*
X151933307Y-105991438D01*
X151933308Y-105991425D01*
X151933500Y-105988979D01*
X151933499Y-105750000D01*
X153836496Y-105750000D01*
X153837186Y-105756564D01*
X153837186Y-105756565D01*
X153854482Y-105921123D01*
X153856458Y-105939928D01*
X153915473Y-106121556D01*
X153918776Y-106127278D01*
X153918777Y-106127279D01*
X153944010Y-106170983D01*
X154010960Y-106286944D01*
X154015378Y-106291851D01*
X154015379Y-106291852D01*
X154130393Y-106419588D01*
X154138747Y-106428866D01*
X154293248Y-106541118D01*
X154299276Y-106543802D01*
X154299278Y-106543803D01*
X154461681Y-106616109D01*
X154467712Y-106618794D01*
X154530580Y-106632157D01*
X154648056Y-106657128D01*
X154648061Y-106657128D01*
X154654513Y-106658500D01*
X154845487Y-106658500D01*
X154851939Y-106657128D01*
X154851944Y-106657128D01*
X154969420Y-106632157D01*
X155032288Y-106618794D01*
X155038319Y-106616109D01*
X155200722Y-106543803D01*
X155200724Y-106543802D01*
X155206752Y-106541118D01*
X155361253Y-106428866D01*
X155369607Y-106419588D01*
X155484621Y-106291852D01*
X155484622Y-106291851D01*
X155489040Y-106286944D01*
X155555990Y-106170983D01*
X155581223Y-106127279D01*
X155581224Y-106127278D01*
X155584527Y-106121556D01*
X155643542Y-105939928D01*
X155645519Y-105921123D01*
X155662814Y-105756565D01*
X155662814Y-105756564D01*
X155663504Y-105750000D01*
X155656869Y-105686870D01*
X155644232Y-105566635D01*
X155644232Y-105566633D01*
X155643542Y-105560072D01*
X155584527Y-105378444D01*
X155559743Y-105335516D01*
X155535990Y-105294376D01*
X155489040Y-105213056D01*
X155465133Y-105186504D01*
X155365675Y-105076045D01*
X155365674Y-105076044D01*
X155361253Y-105071134D01*
X155206752Y-104958882D01*
X155200724Y-104956198D01*
X155200722Y-104956197D01*
X155038319Y-104883891D01*
X155038318Y-104883891D01*
X155032288Y-104881206D01*
X154936822Y-104860914D01*
X154851944Y-104842872D01*
X154851939Y-104842872D01*
X154845487Y-104841500D01*
X154654513Y-104841500D01*
X154648061Y-104842872D01*
X154648056Y-104842872D01*
X154563178Y-104860914D01*
X154467712Y-104881206D01*
X154461682Y-104883891D01*
X154461681Y-104883891D01*
X154299278Y-104956197D01*
X154299276Y-104956198D01*
X154293248Y-104958882D01*
X154138747Y-105071134D01*
X154134326Y-105076044D01*
X154134325Y-105076045D01*
X154034868Y-105186504D01*
X154010960Y-105213056D01*
X153964010Y-105294376D01*
X153940258Y-105335516D01*
X153915473Y-105378444D01*
X153856458Y-105560072D01*
X153855768Y-105566633D01*
X153855768Y-105566635D01*
X153843131Y-105686870D01*
X153836496Y-105750000D01*
X151933499Y-105750000D01*
X151933499Y-105611022D01*
X151930674Y-105575111D01*
X151928880Y-105568937D01*
X151928879Y-105568930D01*
X151890012Y-105435153D01*
X151890012Y-105364847D01*
X151928877Y-105231075D01*
X151928878Y-105231070D01*
X151930674Y-105224889D01*
X151931670Y-105212238D01*
X151933307Y-105191438D01*
X151933308Y-105191425D01*
X151933500Y-105188979D01*
X151933499Y-104811022D01*
X151931334Y-104783500D01*
X151931179Y-104781526D01*
X151931178Y-104781523D01*
X151930674Y-104775111D01*
X151928880Y-104768937D01*
X151928879Y-104768930D01*
X151890012Y-104635153D01*
X151890012Y-104564847D01*
X151928877Y-104431075D01*
X151928878Y-104431070D01*
X151930674Y-104424889D01*
X151932890Y-104396734D01*
X151933307Y-104391438D01*
X151933308Y-104391425D01*
X151933500Y-104388979D01*
X151933499Y-104011022D01*
X151931967Y-103991550D01*
X151931179Y-103981526D01*
X151931178Y-103981523D01*
X151930674Y-103975111D01*
X151928880Y-103968937D01*
X151928879Y-103968930D01*
X151890012Y-103835153D01*
X151890012Y-103764847D01*
X151928877Y-103631075D01*
X151928878Y-103631070D01*
X151930674Y-103624889D01*
X151932632Y-103600010D01*
X151933307Y-103591438D01*
X151933308Y-103591425D01*
X151933500Y-103588979D01*
X151933499Y-103211022D01*
X151930674Y-103175111D01*
X151928880Y-103168937D01*
X151928879Y-103168930D01*
X151890012Y-103035153D01*
X151890012Y-102964847D01*
X151928877Y-102831075D01*
X151928878Y-102831070D01*
X151930674Y-102824889D01*
X151932486Y-102801866D01*
X151933307Y-102791438D01*
X151933308Y-102791425D01*
X151933500Y-102788979D01*
X151933500Y-102757885D01*
X161792000Y-102757885D01*
X161796475Y-102773124D01*
X161797865Y-102774329D01*
X161805548Y-102776000D01*
X162727885Y-102776000D01*
X162743124Y-102771525D01*
X162744329Y-102770135D01*
X162746000Y-102762452D01*
X162746000Y-102757885D01*
X163254000Y-102757885D01*
X163258475Y-102773124D01*
X163259865Y-102774329D01*
X163267548Y-102776000D01*
X164189884Y-102776000D01*
X164205123Y-102771525D01*
X164206328Y-102770135D01*
X164207999Y-102762452D01*
X164207999Y-102632905D01*
X164207662Y-102626386D01*
X164197743Y-102530794D01*
X164194851Y-102517400D01*
X164143412Y-102363216D01*
X164137239Y-102350038D01*
X164051937Y-102212193D01*
X164042901Y-102200792D01*
X163928171Y-102086261D01*
X163916760Y-102077249D01*
X163778757Y-101992184D01*
X163765576Y-101986037D01*
X163611290Y-101934862D01*
X163597914Y-101931995D01*
X163503562Y-101922328D01*
X163497145Y-101922000D01*
X163272115Y-101922000D01*
X163256876Y-101926475D01*
X163255671Y-101927865D01*
X163254000Y-101935548D01*
X163254000Y-102757885D01*
X162746000Y-102757885D01*
X162746000Y-101940116D01*
X162741525Y-101924877D01*
X162740135Y-101923672D01*
X162732452Y-101922001D01*
X162502905Y-101922001D01*
X162496386Y-101922338D01*
X162400794Y-101932257D01*
X162387400Y-101935149D01*
X162233216Y-101986588D01*
X162220038Y-101992761D01*
X162082193Y-102078063D01*
X162070792Y-102087099D01*
X161956261Y-102201829D01*
X161947249Y-102213240D01*
X161862184Y-102351243D01*
X161856037Y-102364424D01*
X161804862Y-102518710D01*
X161801995Y-102532086D01*
X161792328Y-102626438D01*
X161792000Y-102632855D01*
X161792000Y-102757885D01*
X151933500Y-102757885D01*
X151933499Y-102411022D01*
X151932336Y-102396233D01*
X151931179Y-102381526D01*
X151931178Y-102381523D01*
X151930674Y-102375111D01*
X151928880Y-102368937D01*
X151928879Y-102368930D01*
X151890012Y-102235153D01*
X151890012Y-102164847D01*
X151928877Y-102031075D01*
X151928877Y-102031073D01*
X151930674Y-102024889D01*
X151931706Y-102011773D01*
X151933307Y-101991438D01*
X151933308Y-101991425D01*
X151933500Y-101988979D01*
X151933499Y-101745386D01*
X151953501Y-101677266D01*
X152007156Y-101630773D01*
X152043705Y-101620381D01*
X152058797Y-101618474D01*
X152066168Y-101615555D01*
X152066170Y-101615555D01*
X152099912Y-101602196D01*
X152111142Y-101598351D01*
X152145983Y-101588229D01*
X152145984Y-101588229D01*
X152153593Y-101586018D01*
X152160412Y-101581985D01*
X152160417Y-101581983D01*
X152171028Y-101575707D01*
X152188776Y-101567012D01*
X152207617Y-101559552D01*
X152243387Y-101533564D01*
X152253285Y-101527061D01*
X152254985Y-101526055D01*
X152319139Y-101508500D01*
X152395487Y-101508500D01*
X152401939Y-101507128D01*
X152401944Y-101507128D01*
X152488887Y-101488647D01*
X152582288Y-101468794D01*
X152604551Y-101458882D01*
X152750722Y-101393803D01*
X152750724Y-101393802D01*
X152756752Y-101391118D01*
X152911253Y-101278866D01*
X152989969Y-101191443D01*
X153034621Y-101141852D01*
X153034622Y-101141851D01*
X153039040Y-101136944D01*
X153134527Y-100971556D01*
X153193542Y-100789928D01*
X153194872Y-100777279D01*
X153212814Y-100606565D01*
X153213504Y-100600000D01*
X153197599Y-100448668D01*
X153194232Y-100416635D01*
X153194232Y-100416633D01*
X153193542Y-100410072D01*
X153134527Y-100228444D01*
X153130011Y-100220621D01*
X153073295Y-100122388D01*
X153039040Y-100063056D01*
X152994413Y-100013492D01*
X152915675Y-99926045D01*
X152915674Y-99926044D01*
X152911253Y-99921134D01*
X152756752Y-99808882D01*
X152750724Y-99806198D01*
X152750722Y-99806197D01*
X152588319Y-99733891D01*
X152588318Y-99733891D01*
X152582288Y-99731206D01*
X152488887Y-99711353D01*
X152401944Y-99692872D01*
X152401939Y-99692872D01*
X152395487Y-99691500D01*
X152204513Y-99691500D01*
X152198061Y-99692872D01*
X152198056Y-99692872D01*
X152087467Y-99716379D01*
X152017712Y-99731206D01*
X152011673Y-99733895D01*
X152011672Y-99733895D01*
X151973795Y-99750758D01*
X151903428Y-99760192D01*
X151839132Y-99730085D01*
X151814094Y-99699789D01*
X151808579Y-99690463D01*
X151808578Y-99690462D01*
X151804542Y-99683637D01*
X151691363Y-99570458D01*
X151684547Y-99566427D01*
X151684543Y-99566424D01*
X151571769Y-99499731D01*
X151553593Y-99488982D01*
X151545983Y-99486771D01*
X151406072Y-99446122D01*
X151406069Y-99446121D01*
X151399889Y-99444326D01*
X151387238Y-99443330D01*
X151366438Y-99441693D01*
X151366425Y-99441692D01*
X151363979Y-99441500D01*
X151338870Y-99441500D01*
X150184500Y-99441501D01*
X150116379Y-99421499D01*
X150069886Y-99367843D01*
X150058500Y-99315501D01*
X150058499Y-98138496D01*
X150058499Y-98136022D01*
X150057886Y-98128234D01*
X150056179Y-98106526D01*
X150056178Y-98106523D01*
X150055674Y-98100111D01*
X150011018Y-97946407D01*
X149985817Y-97903794D01*
X149933576Y-97815457D01*
X149933573Y-97815453D01*
X149929542Y-97808637D01*
X149816363Y-97695458D01*
X149809547Y-97691427D01*
X149809543Y-97691424D01*
X149685414Y-97618016D01*
X149685415Y-97618016D01*
X149678593Y-97613982D01*
X149664846Y-97609988D01*
X149531072Y-97571122D01*
X149531069Y-97571121D01*
X149524889Y-97569326D01*
X149512238Y-97568330D01*
X149491438Y-97566693D01*
X149491425Y-97566692D01*
X149488979Y-97566500D01*
X149300115Y-97566500D01*
X149111022Y-97566501D01*
X149103234Y-97567114D01*
X149081526Y-97568821D01*
X149081523Y-97568822D01*
X149075111Y-97569326D01*
X149068937Y-97571120D01*
X149068930Y-97571121D01*
X148935153Y-97609988D01*
X148864847Y-97609988D01*
X148731075Y-97571123D01*
X148731073Y-97571123D01*
X148724889Y-97569326D01*
X148712238Y-97568330D01*
X148691438Y-97566693D01*
X148691425Y-97566692D01*
X148688979Y-97566500D01*
X148500115Y-97566500D01*
X148311022Y-97566501D01*
X148303234Y-97567114D01*
X148281526Y-97568821D01*
X148281523Y-97568822D01*
X148275111Y-97569326D01*
X148268937Y-97571120D01*
X148268930Y-97571121D01*
X148135153Y-97609988D01*
X148064847Y-97609988D01*
X147931075Y-97571123D01*
X147931073Y-97571123D01*
X147924889Y-97569326D01*
X147912238Y-97568330D01*
X147891438Y-97566693D01*
X147891425Y-97566692D01*
X147888979Y-97566500D01*
X147700115Y-97566500D01*
X147511022Y-97566501D01*
X147503234Y-97567114D01*
X147481526Y-97568821D01*
X147481523Y-97568822D01*
X147475111Y-97569326D01*
X147468937Y-97571120D01*
X147468930Y-97571121D01*
X147335153Y-97609988D01*
X147264847Y-97609988D01*
X147131075Y-97571123D01*
X147131073Y-97571123D01*
X147124889Y-97569326D01*
X147112238Y-97568330D01*
X147091438Y-97566693D01*
X147091425Y-97566692D01*
X147088979Y-97566500D01*
X146900115Y-97566500D01*
X146711022Y-97566501D01*
X146703234Y-97567114D01*
X146681526Y-97568821D01*
X146681523Y-97568822D01*
X146675111Y-97569326D01*
X146668937Y-97571120D01*
X146668930Y-97571121D01*
X146535153Y-97609988D01*
X146464847Y-97609988D01*
X146331075Y-97571123D01*
X146331073Y-97571123D01*
X146324889Y-97569326D01*
X146312238Y-97568330D01*
X146291438Y-97566693D01*
X146291425Y-97566692D01*
X146288979Y-97566500D01*
X146100115Y-97566500D01*
X145911022Y-97566501D01*
X145903234Y-97567114D01*
X145881526Y-97568821D01*
X145881523Y-97568822D01*
X145875111Y-97569326D01*
X145868937Y-97571120D01*
X145868930Y-97571121D01*
X145735153Y-97609988D01*
X145664847Y-97609988D01*
X145531075Y-97571123D01*
X145531073Y-97571123D01*
X145524889Y-97569326D01*
X145499319Y-97567314D01*
X145432978Y-97542030D01*
X145390838Y-97484892D01*
X145386277Y-97414042D01*
X145389370Y-97402769D01*
X145391502Y-97396207D01*
X145391502Y-97396205D01*
X145393542Y-97389928D01*
X145397089Y-97356185D01*
X145412814Y-97206565D01*
X145413504Y-97200000D01*
X145408258Y-97150089D01*
X145394232Y-97016635D01*
X145394232Y-97016633D01*
X145393542Y-97010072D01*
X145334527Y-96828444D01*
X145239040Y-96663056D01*
X145182625Y-96600400D01*
X145115675Y-96526045D01*
X145115674Y-96526044D01*
X145111253Y-96521134D01*
X144956752Y-96408882D01*
X144950724Y-96406198D01*
X144950722Y-96406197D01*
X144788319Y-96333891D01*
X144788318Y-96333891D01*
X144782288Y-96331206D01*
X144682861Y-96310072D01*
X144601944Y-96292872D01*
X144601939Y-96292872D01*
X144595487Y-96291500D01*
X144404513Y-96291500D01*
X144398061Y-96292872D01*
X144398056Y-96292872D01*
X144317139Y-96310072D01*
X144217712Y-96331206D01*
X144211682Y-96333891D01*
X144211681Y-96333891D01*
X144049278Y-96406197D01*
X144049276Y-96406198D01*
X144043248Y-96408882D01*
X143888747Y-96521134D01*
X143884326Y-96526044D01*
X143884325Y-96526045D01*
X143817376Y-96600400D01*
X143760960Y-96663056D01*
X143736071Y-96706166D01*
X143725791Y-96723971D01*
X143674409Y-96772964D01*
X143604695Y-96786401D01*
X143538784Y-96760014D01*
X143523036Y-96745282D01*
X143516332Y-96737836D01*
X143411253Y-96621134D01*
X143280375Y-96526045D01*
X143262094Y-96512763D01*
X143262093Y-96512762D01*
X143256752Y-96508882D01*
X143250724Y-96506198D01*
X143250722Y-96506197D01*
X143088319Y-96433891D01*
X143088318Y-96433891D01*
X143082288Y-96431206D01*
X142988887Y-96411353D01*
X142901944Y-96392872D01*
X142901939Y-96392872D01*
X142895487Y-96391500D01*
X142704513Y-96391500D01*
X142698061Y-96392872D01*
X142698056Y-96392872D01*
X142611113Y-96411353D01*
X142517712Y-96431206D01*
X142511682Y-96433891D01*
X142511681Y-96433891D01*
X142349278Y-96506197D01*
X142349276Y-96506198D01*
X142343248Y-96508882D01*
X142337907Y-96512762D01*
X142337906Y-96512763D01*
X142319625Y-96526045D01*
X142188747Y-96621134D01*
X142184329Y-96626041D01*
X142184325Y-96626045D01*
X142132719Y-96683360D01*
X142060960Y-96763056D01*
X142010702Y-96850105D01*
X141985410Y-96893913D01*
X141965473Y-96928444D01*
X141906458Y-97110072D01*
X141905768Y-97116633D01*
X141905768Y-97116635D01*
X141892901Y-97239063D01*
X141886496Y-97300000D01*
X141887186Y-97306565D01*
X141899872Y-97427262D01*
X141906458Y-97489928D01*
X141965473Y-97671556D01*
X141968776Y-97677278D01*
X141968777Y-97677279D01*
X141995013Y-97722721D01*
X142060960Y-97836944D01*
X142136273Y-97920588D01*
X142166989Y-97984593D01*
X142168574Y-98000938D01*
X142169250Y-98022448D01*
X142151397Y-98091164D01*
X142094561Y-98141513D01*
X141949278Y-98206197D01*
X141949276Y-98206198D01*
X141943248Y-98208882D01*
X141788747Y-98321134D01*
X141660960Y-98463056D01*
X141565473Y-98628444D01*
X141506458Y-98810072D01*
X141505768Y-98816633D01*
X141505768Y-98816635D01*
X141491058Y-98956598D01*
X141486496Y-99000000D01*
X141487186Y-99006565D01*
X141502507Y-99152332D01*
X141506458Y-99189928D01*
X141549887Y-99323588D01*
X141551915Y-99394554D01*
X141515252Y-99455352D01*
X141465206Y-99483520D01*
X141454020Y-99486770D01*
X141454019Y-99486771D01*
X141446407Y-99488982D01*
X141428231Y-99499731D01*
X141315457Y-99566424D01*
X141315453Y-99566427D01*
X141308637Y-99570458D01*
X141195458Y-99683637D01*
X141191427Y-99690453D01*
X141191424Y-99690457D01*
X141155763Y-99750758D01*
X141113982Y-99821407D01*
X141069326Y-99975111D01*
X141068821Y-99981530D01*
X141066693Y-100008562D01*
X141066692Y-100008575D01*
X141066500Y-100011021D01*
X141066501Y-100388978D01*
X141066695Y-100391438D01*
X141066695Y-100391443D01*
X141068677Y-100416635D01*
X141069326Y-100424889D01*
X141071120Y-100431063D01*
X141071121Y-100431070D01*
X141109988Y-100564847D01*
X141109988Y-100635153D01*
X141072185Y-100765271D01*
X141069326Y-100775111D01*
X141068330Y-100787762D01*
X141066693Y-100808562D01*
X141066692Y-100808575D01*
X141066500Y-100811021D01*
X141066501Y-101188978D01*
X141069326Y-101224889D01*
X141071120Y-101231063D01*
X141071121Y-101231070D01*
X141109988Y-101364847D01*
X141109988Y-101435153D01*
X141071123Y-101568925D01*
X141069326Y-101575111D01*
X141068821Y-101581530D01*
X141066693Y-101608562D01*
X141066692Y-101608575D01*
X141066500Y-101611021D01*
X141066501Y-101788760D01*
X141066501Y-101838851D01*
X141046499Y-101906972D01*
X140992844Y-101953465D01*
X140944460Y-101964790D01*
X140899001Y-101966219D01*
X140892031Y-101966438D01*
X140888075Y-101966500D01*
X140860144Y-101966500D01*
X140856229Y-101966995D01*
X140856225Y-101966995D01*
X140856167Y-101967003D01*
X140856138Y-101967006D01*
X140844296Y-101967939D01*
X140800110Y-101969327D01*
X140782744Y-101974372D01*
X140780658Y-101974978D01*
X140761306Y-101978986D01*
X140749068Y-101980532D01*
X140749066Y-101980533D01*
X140741203Y-101981526D01*
X140700086Y-101997806D01*
X140688885Y-102001641D01*
X140646406Y-102013982D01*
X140639587Y-102018015D01*
X140639582Y-102018017D01*
X140628971Y-102024293D01*
X140611221Y-102032990D01*
X140592383Y-102040448D01*
X140585967Y-102045109D01*
X140585966Y-102045110D01*
X140556625Y-102066428D01*
X140546701Y-102072947D01*
X140515460Y-102091422D01*
X140515455Y-102091426D01*
X140508637Y-102095458D01*
X140494313Y-102109782D01*
X140479281Y-102122621D01*
X140462893Y-102134528D01*
X140448690Y-102151697D01*
X140434712Y-102168593D01*
X140426722Y-102177373D01*
X140274500Y-102329595D01*
X140212188Y-102363621D01*
X140185405Y-102366500D01*
X140026387Y-102366500D01*
X139958266Y-102346498D01*
X139917816Y-102300270D01*
X139916550Y-102301054D01*
X139871818Y-102228768D01*
X139823478Y-102150652D01*
X139698303Y-102025695D01*
X139692071Y-102021853D01*
X139692069Y-102021852D01*
X139646115Y-101993525D01*
X139598622Y-101940753D01*
X139587200Y-101870681D01*
X139592399Y-101847330D01*
X139641502Y-101696206D01*
X139643542Y-101689928D01*
X139646502Y-101661770D01*
X139662814Y-101506565D01*
X139663504Y-101500000D01*
X139657850Y-101446206D01*
X139644232Y-101316635D01*
X139644232Y-101316633D01*
X139643542Y-101310072D01*
X139584527Y-101128444D01*
X139567711Y-101099317D01*
X139541428Y-101053794D01*
X139489040Y-100963056D01*
X139444639Y-100913743D01*
X139365675Y-100826045D01*
X139365674Y-100826044D01*
X139361253Y-100821134D01*
X139206752Y-100708882D01*
X139200724Y-100706198D01*
X139200722Y-100706197D01*
X139038319Y-100633891D01*
X139038318Y-100633891D01*
X139032288Y-100631206D01*
X138916362Y-100606565D01*
X138851944Y-100592872D01*
X138851939Y-100592872D01*
X138845487Y-100591500D01*
X138654513Y-100591500D01*
X138648061Y-100592872D01*
X138648056Y-100592872D01*
X138583638Y-100606565D01*
X138467712Y-100631206D01*
X138461682Y-100633891D01*
X138461681Y-100633891D01*
X138299278Y-100706197D01*
X138299276Y-100706198D01*
X138293248Y-100708882D01*
X138138747Y-100821134D01*
X138134326Y-100826044D01*
X138134325Y-100826045D01*
X138055362Y-100913743D01*
X138010960Y-100963056D01*
X137958572Y-101053794D01*
X137932290Y-101099317D01*
X137915473Y-101128444D01*
X137856458Y-101310072D01*
X137855768Y-101316633D01*
X137855768Y-101316635D01*
X137842150Y-101446206D01*
X137836496Y-101500000D01*
X137837186Y-101506565D01*
X137853499Y-101661770D01*
X137856458Y-101689928D01*
X137858498Y-101696206D01*
X137907616Y-101847376D01*
X137909644Y-101918343D01*
X137872981Y-101979141D01*
X137854087Y-101993455D01*
X137800652Y-102026522D01*
X137675695Y-102151697D01*
X137671855Y-102157927D01*
X137671854Y-102157928D01*
X137671144Y-102159080D01*
X137611054Y-102256565D01*
X137603317Y-102269116D01*
X137550545Y-102316609D01*
X137496057Y-102329000D01*
X136504046Y-102329000D01*
X136435925Y-102308998D01*
X136396902Y-102269303D01*
X136328693Y-102159080D01*
X136323478Y-102150652D01*
X136198303Y-102025695D01*
X136192071Y-102021853D01*
X136192069Y-102021852D01*
X136146115Y-101993525D01*
X136098622Y-101940753D01*
X136087200Y-101870681D01*
X136092399Y-101847330D01*
X136141502Y-101696206D01*
X136143542Y-101689928D01*
X136146502Y-101661770D01*
X136162814Y-101506565D01*
X136163504Y-101500000D01*
X136157850Y-101446206D01*
X136144232Y-101316635D01*
X136144232Y-101316633D01*
X136143542Y-101310072D01*
X136084527Y-101128444D01*
X136067711Y-101099317D01*
X136041428Y-101053794D01*
X135989040Y-100963056D01*
X135944639Y-100913743D01*
X135865675Y-100826045D01*
X135865674Y-100826044D01*
X135861253Y-100821134D01*
X135706752Y-100708882D01*
X135700724Y-100706198D01*
X135700722Y-100706197D01*
X135538319Y-100633891D01*
X135538318Y-100633891D01*
X135532288Y-100631206D01*
X135416362Y-100606565D01*
X135351944Y-100592872D01*
X135351939Y-100592872D01*
X135345487Y-100591500D01*
X135154513Y-100591500D01*
X135148061Y-100592872D01*
X135148056Y-100592872D01*
X135083638Y-100606565D01*
X134967712Y-100631206D01*
X134961682Y-100633891D01*
X134961681Y-100633891D01*
X134799278Y-100706197D01*
X134799276Y-100706198D01*
X134793248Y-100708882D01*
X134638747Y-100821134D01*
X134634326Y-100826044D01*
X134634325Y-100826045D01*
X134555362Y-100913743D01*
X134510960Y-100963056D01*
X134458572Y-101053794D01*
X134432290Y-101099317D01*
X134415473Y-101128444D01*
X134356458Y-101310072D01*
X134355768Y-101316633D01*
X134355768Y-101316635D01*
X134342150Y-101446206D01*
X134336496Y-101500000D01*
X134337186Y-101506565D01*
X134353499Y-101661770D01*
X134356458Y-101689928D01*
X134358498Y-101696206D01*
X134407616Y-101847376D01*
X134409644Y-101918343D01*
X134372981Y-101979141D01*
X134354087Y-101993455D01*
X134300652Y-102026522D01*
X134175695Y-102151697D01*
X134171855Y-102157927D01*
X134171854Y-102157928D01*
X134094376Y-102283621D01*
X134082885Y-102302262D01*
X134066710Y-102351029D01*
X134036266Y-102442816D01*
X134027203Y-102470139D01*
X134026503Y-102476975D01*
X134026502Y-102476978D01*
X134024690Y-102494669D01*
X134016500Y-102574600D01*
X134016500Y-103350400D01*
X128607265Y-103350400D01*
X128580014Y-103308277D01*
X128576540Y-103304459D01*
X128576533Y-103304450D01*
X128432435Y-103146088D01*
X128401383Y-103082242D01*
X128409779Y-103011744D01*
X128454956Y-102956976D01*
X128481400Y-102943307D01*
X128588052Y-102903325D01*
X128603649Y-102894786D01*
X128705724Y-102818285D01*
X128718285Y-102805724D01*
X128794786Y-102703649D01*
X128803324Y-102688054D01*
X128848478Y-102567606D01*
X128852105Y-102552351D01*
X128857631Y-102501486D01*
X128858000Y-102494672D01*
X128858000Y-101872115D01*
X128853525Y-101856876D01*
X128852135Y-101855671D01*
X128844452Y-101854000D01*
X126160116Y-101854000D01*
X126144877Y-101858475D01*
X126143672Y-101859865D01*
X126142001Y-101867548D01*
X126142001Y-102494669D01*
X126142371Y-102501490D01*
X126147895Y-102552352D01*
X126151521Y-102567604D01*
X126196676Y-102688054D01*
X126205214Y-102703649D01*
X126281715Y-102805724D01*
X126294276Y-102818285D01*
X126396351Y-102894786D01*
X126411946Y-102903324D01*
X126520827Y-102944142D01*
X126577591Y-102986784D01*
X126602291Y-103053345D01*
X126587083Y-103122694D01*
X126567691Y-103149175D01*
X126477614Y-103243435D01*
X126440629Y-103282138D01*
X126437715Y-103286410D01*
X126437714Y-103286411D01*
X126425409Y-103304450D01*
X126314743Y-103466680D01*
X126286722Y-103527047D01*
X126226918Y-103655884D01*
X126220688Y-103669305D01*
X126160989Y-103884570D01*
X126137251Y-104106695D01*
X126137548Y-104111848D01*
X126137548Y-104111851D01*
X126149812Y-104324547D01*
X126150110Y-104329715D01*
X126151247Y-104334761D01*
X126151248Y-104334767D01*
X126167264Y-104405834D01*
X126199222Y-104547639D01*
X126260037Y-104697409D01*
X126279791Y-104746057D01*
X126283266Y-104754616D01*
X126299759Y-104781530D01*
X126362486Y-104883891D01*
X126399987Y-104945088D01*
X126546250Y-105113938D01*
X126718126Y-105256632D01*
X126777796Y-105291500D01*
X126791445Y-105299476D01*
X126840169Y-105351114D01*
X126853240Y-105420897D01*
X126826509Y-105486669D01*
X126786055Y-105520027D01*
X126773607Y-105526507D01*
X126769474Y-105529610D01*
X126769471Y-105529612D01*
X126599100Y-105657530D01*
X126594965Y-105660635D01*
X126440629Y-105822138D01*
X126437715Y-105826410D01*
X126437714Y-105826411D01*
X126385547Y-105902885D01*
X126314743Y-106006680D01*
X126283300Y-106074419D01*
X126256884Y-106131328D01*
X126220688Y-106209305D01*
X126160989Y-106424570D01*
X126137251Y-106646695D01*
X126137548Y-106651848D01*
X126137548Y-106651851D01*
X126147810Y-106829831D01*
X126150110Y-106869715D01*
X126151247Y-106874761D01*
X126151248Y-106874767D01*
X126159811Y-106912763D01*
X126199222Y-107087639D01*
X126283266Y-107294616D01*
X126285965Y-107299020D01*
X126354861Y-107411448D01*
X126399987Y-107485088D01*
X126546250Y-107653938D01*
X126718126Y-107796632D01*
X126748866Y-107814595D01*
X126791445Y-107839476D01*
X126840169Y-107891114D01*
X126853240Y-107960897D01*
X126826509Y-108026669D01*
X126786055Y-108060027D01*
X126773607Y-108066507D01*
X126769474Y-108069610D01*
X126769471Y-108069612D01*
X126599100Y-108197530D01*
X126594965Y-108200635D01*
X126591393Y-108204373D01*
X126446905Y-108355571D01*
X126440629Y-108362138D01*
X126437715Y-108366410D01*
X126437714Y-108366411D01*
X126375135Y-108458148D01*
X126314743Y-108546680D01*
X126220688Y-108749305D01*
X126160989Y-108964570D01*
X126137251Y-109186695D01*
X126137548Y-109191848D01*
X126137548Y-109191851D01*
X126143011Y-109286590D01*
X126150110Y-109409715D01*
X126151247Y-109414761D01*
X126151248Y-109414767D01*
X126173392Y-109513023D01*
X126199222Y-109627639D01*
X126249172Y-109750652D01*
X126264028Y-109787237D01*
X126283266Y-109834616D01*
X126285965Y-109839020D01*
X126395547Y-110017842D01*
X126399987Y-110025088D01*
X126546250Y-110193938D01*
X126718126Y-110336632D01*
X126761446Y-110361946D01*
X126791445Y-110379476D01*
X126840169Y-110431114D01*
X126853240Y-110500897D01*
X126826509Y-110566669D01*
X126786055Y-110600027D01*
X126773607Y-110606507D01*
X126769474Y-110609610D01*
X126769471Y-110609612D01*
X126749124Y-110624889D01*
X126594965Y-110740635D01*
X126440629Y-110902138D01*
X126314743Y-111086680D01*
X126300844Y-111116623D01*
X126251027Y-111223946D01*
X126220688Y-111289305D01*
X126160989Y-111504570D01*
X126137251Y-111726695D01*
X124808501Y-111726695D01*
X124808501Y-101327885D01*
X126142000Y-101327885D01*
X126146475Y-101343124D01*
X126147865Y-101344329D01*
X126155548Y-101346000D01*
X127227885Y-101346000D01*
X127243124Y-101341525D01*
X127244329Y-101340135D01*
X127246000Y-101332452D01*
X127246000Y-101327885D01*
X127754000Y-101327885D01*
X127758475Y-101343124D01*
X127759865Y-101344329D01*
X127767548Y-101346000D01*
X128839884Y-101346000D01*
X128855123Y-101341525D01*
X128856328Y-101340135D01*
X128857999Y-101332452D01*
X128857999Y-100705331D01*
X128857629Y-100698510D01*
X128852105Y-100647648D01*
X128848479Y-100632396D01*
X128803324Y-100511946D01*
X128794786Y-100496351D01*
X128718285Y-100394276D01*
X128705724Y-100381715D01*
X128603649Y-100305214D01*
X128588054Y-100296676D01*
X128467606Y-100251522D01*
X128452351Y-100247895D01*
X128401486Y-100242369D01*
X128394672Y-100242000D01*
X127772115Y-100242000D01*
X127756876Y-100246475D01*
X127755671Y-100247865D01*
X127754000Y-100255548D01*
X127754000Y-101327885D01*
X127246000Y-101327885D01*
X127246000Y-100260116D01*
X127241525Y-100244877D01*
X127240135Y-100243672D01*
X127232452Y-100242001D01*
X126605331Y-100242001D01*
X126598510Y-100242371D01*
X126547648Y-100247895D01*
X126532396Y-100251521D01*
X126411946Y-100296676D01*
X126396351Y-100305214D01*
X126294276Y-100381715D01*
X126281715Y-100394276D01*
X126205214Y-100496351D01*
X126196676Y-100511946D01*
X126151522Y-100632394D01*
X126147895Y-100647649D01*
X126142369Y-100698514D01*
X126142000Y-100705328D01*
X126142000Y-101327885D01*
X124808501Y-101327885D01*
X124808501Y-98697095D01*
X128292001Y-98697095D01*
X128292338Y-98703614D01*
X128302257Y-98799206D01*
X128305149Y-98812600D01*
X128356588Y-98966784D01*
X128362761Y-98979962D01*
X128448063Y-99117807D01*
X128457099Y-99129208D01*
X128571829Y-99243739D01*
X128583240Y-99252751D01*
X128721243Y-99337816D01*
X128734424Y-99343963D01*
X128888710Y-99395138D01*
X128902086Y-99398005D01*
X128996438Y-99407672D01*
X129002854Y-99408000D01*
X129102885Y-99408000D01*
X129118124Y-99403525D01*
X129119329Y-99402135D01*
X129121000Y-99394452D01*
X129121000Y-99389884D01*
X129629000Y-99389884D01*
X129633475Y-99405123D01*
X129634865Y-99406328D01*
X129642548Y-99407999D01*
X129747095Y-99407999D01*
X129753614Y-99407662D01*
X129849206Y-99397743D01*
X129862600Y-99394851D01*
X130016784Y-99343412D01*
X130029962Y-99337239D01*
X130167807Y-99251937D01*
X130179208Y-99242901D01*
X130293738Y-99128172D01*
X130300794Y-99119238D01*
X130358712Y-99078177D01*
X130429635Y-99074947D01*
X130491046Y-99110574D01*
X130497846Y-99118407D01*
X130501522Y-99124348D01*
X130506704Y-99129521D01*
X130525694Y-99148478D01*
X130626697Y-99249305D01*
X130632927Y-99253145D01*
X130632928Y-99253146D01*
X130770288Y-99337816D01*
X130777262Y-99342115D01*
X130854830Y-99367843D01*
X130938611Y-99395632D01*
X130938613Y-99395632D01*
X130945139Y-99397797D01*
X130951975Y-99398497D01*
X130951978Y-99398498D01*
X130995031Y-99402909D01*
X131049600Y-99408500D01*
X131800400Y-99408500D01*
X131803646Y-99408163D01*
X131803650Y-99408163D01*
X131899308Y-99398238D01*
X131899312Y-99398237D01*
X131906166Y-99397526D01*
X131912702Y-99395345D01*
X131912704Y-99395345D01*
X132044806Y-99351272D01*
X132073946Y-99341550D01*
X132224348Y-99248478D01*
X132349305Y-99123303D01*
X132423627Y-99002731D01*
X132476398Y-98955239D01*
X132546470Y-98943815D01*
X132611594Y-98972089D01*
X132638027Y-99002540D01*
X132651522Y-99024348D01*
X132776697Y-99149305D01*
X132782927Y-99153145D01*
X132782928Y-99153146D01*
X132920090Y-99237694D01*
X132927262Y-99242115D01*
X132959329Y-99252751D01*
X133088611Y-99295632D01*
X133088613Y-99295632D01*
X133095139Y-99297797D01*
X133101975Y-99298497D01*
X133101978Y-99298498D01*
X133145031Y-99302909D01*
X133199600Y-99308500D01*
X134000400Y-99308500D01*
X134003646Y-99308163D01*
X134003650Y-99308163D01*
X134099308Y-99298238D01*
X134099312Y-99298237D01*
X134106166Y-99297526D01*
X134112702Y-99295345D01*
X134112704Y-99295345D01*
X134244806Y-99251272D01*
X134273946Y-99241550D01*
X134424348Y-99148478D01*
X134510784Y-99061891D01*
X134573066Y-99027812D01*
X134643886Y-99032815D01*
X134688975Y-99061736D01*
X134750650Y-99123303D01*
X134776697Y-99149305D01*
X134782927Y-99153145D01*
X134782928Y-99153146D01*
X134920090Y-99237694D01*
X134927262Y-99242115D01*
X134959329Y-99252751D01*
X135088611Y-99295632D01*
X135088613Y-99295632D01*
X135095139Y-99297797D01*
X135101975Y-99298497D01*
X135101978Y-99298498D01*
X135145031Y-99302909D01*
X135199600Y-99308500D01*
X136000400Y-99308500D01*
X136003646Y-99308163D01*
X136003650Y-99308163D01*
X136099308Y-99298238D01*
X136099312Y-99298237D01*
X136106166Y-99297526D01*
X136112702Y-99295345D01*
X136112704Y-99295345D01*
X136244806Y-99251272D01*
X136273946Y-99241550D01*
X136424348Y-99148478D01*
X136549305Y-99023303D01*
X136554103Y-99015519D01*
X136555034Y-99014681D01*
X136557683Y-99011327D01*
X136558257Y-99011780D01*
X136606871Y-98968025D01*
X136676942Y-98956598D01*
X136705266Y-98964480D01*
X136705400Y-98964068D01*
X136711680Y-98966108D01*
X136717712Y-98968794D01*
X136811112Y-98988647D01*
X136898056Y-99007128D01*
X136898061Y-99007128D01*
X136904513Y-99008500D01*
X137095487Y-99008500D01*
X137101939Y-99007128D01*
X137101944Y-99007128D01*
X137188888Y-98988647D01*
X137282288Y-98968794D01*
X137288319Y-98966109D01*
X137450722Y-98893803D01*
X137450724Y-98893802D01*
X137456752Y-98891118D01*
X137611253Y-98778866D01*
X137739040Y-98636944D01*
X137834527Y-98471556D01*
X137893542Y-98289928D01*
X137913504Y-98100000D01*
X137903092Y-98000938D01*
X137894232Y-97916635D01*
X137894232Y-97916633D01*
X137893542Y-97910072D01*
X137834527Y-97728444D01*
X137815483Y-97695458D01*
X137757563Y-97595139D01*
X137739040Y-97563056D01*
X137647782Y-97461703D01*
X137615675Y-97426045D01*
X137615674Y-97426044D01*
X137611253Y-97421134D01*
X137495094Y-97336739D01*
X137462094Y-97312763D01*
X137462093Y-97312762D01*
X137456752Y-97308882D01*
X137450724Y-97306198D01*
X137450722Y-97306197D01*
X137288319Y-97233891D01*
X137288318Y-97233891D01*
X137282288Y-97231206D01*
X137244844Y-97223247D01*
X137182371Y-97189518D01*
X137148049Y-97127369D01*
X137152777Y-97056530D01*
X137195053Y-96999492D01*
X137244844Y-96976753D01*
X137282288Y-96968794D01*
X137318144Y-96952830D01*
X137450722Y-96893803D01*
X137450724Y-96893802D01*
X137456752Y-96891118D01*
X137611253Y-96778866D01*
X137625488Y-96763056D01*
X137734621Y-96641852D01*
X137734622Y-96641851D01*
X137739040Y-96636944D01*
X137814527Y-96506197D01*
X137831223Y-96477279D01*
X137831224Y-96477278D01*
X137834527Y-96471556D01*
X137893542Y-96289928D01*
X137895889Y-96267604D01*
X137903554Y-96194669D01*
X162442001Y-96194669D01*
X162442371Y-96201490D01*
X162447895Y-96252352D01*
X162451521Y-96267604D01*
X162496676Y-96388054D01*
X162505214Y-96403649D01*
X162581715Y-96505724D01*
X162594276Y-96518285D01*
X162696351Y-96594786D01*
X162711946Y-96603324D01*
X162832394Y-96648478D01*
X162847649Y-96652105D01*
X162898514Y-96657631D01*
X162905328Y-96658000D01*
X163527885Y-96658000D01*
X163543124Y-96653525D01*
X163544329Y-96652135D01*
X163546000Y-96644452D01*
X163546000Y-95572115D01*
X163541525Y-95556876D01*
X163540135Y-95555671D01*
X163532452Y-95554000D01*
X162460116Y-95554000D01*
X162444877Y-95558475D01*
X162443672Y-95559865D01*
X162442001Y-95567548D01*
X162442001Y-96194669D01*
X137903554Y-96194669D01*
X137912814Y-96106565D01*
X137913504Y-96100000D01*
X137893542Y-95910072D01*
X137834527Y-95728444D01*
X137739040Y-95563056D01*
X137684143Y-95502086D01*
X137615675Y-95426045D01*
X137615674Y-95426044D01*
X137611253Y-95421134D01*
X137512157Y-95349136D01*
X137462094Y-95312763D01*
X137462093Y-95312762D01*
X137456752Y-95308882D01*
X137450724Y-95306198D01*
X137450722Y-95306197D01*
X137288319Y-95233891D01*
X137288318Y-95233891D01*
X137282288Y-95231206D01*
X137244844Y-95223247D01*
X137182371Y-95189518D01*
X137148049Y-95127369D01*
X137152777Y-95056530D01*
X137195053Y-94999492D01*
X137244844Y-94976753D01*
X137282288Y-94968794D01*
X137299931Y-94960939D01*
X137450722Y-94893803D01*
X137450724Y-94893802D01*
X137456752Y-94891118D01*
X137611253Y-94778866D01*
X137739040Y-94636944D01*
X137834527Y-94471556D01*
X137893542Y-94289928D01*
X137913504Y-94100000D01*
X137893542Y-93910072D01*
X137834527Y-93728444D01*
X137739040Y-93563056D01*
X137611253Y-93421134D01*
X137456752Y-93308882D01*
X137450724Y-93306198D01*
X137450722Y-93306197D01*
X137288319Y-93233891D01*
X137288318Y-93233891D01*
X137282288Y-93231206D01*
X137188888Y-93211353D01*
X137101944Y-93192872D01*
X137101939Y-93192872D01*
X137095487Y-93191500D01*
X137068738Y-93191500D01*
X137000617Y-93171498D01*
X136954124Y-93117842D01*
X136944020Y-93047568D01*
X136973514Y-92982988D01*
X136994677Y-92963564D01*
X137036976Y-92932832D01*
X137111253Y-92878866D01*
X137155335Y-92829908D01*
X137234621Y-92741852D01*
X137234622Y-92741851D01*
X137239040Y-92736944D01*
X137244957Y-92726695D01*
X162437251Y-92726695D01*
X162437548Y-92731848D01*
X162437548Y-92731851D01*
X162447386Y-92902474D01*
X162450110Y-92949715D01*
X162451247Y-92954761D01*
X162451248Y-92954767D01*
X162474221Y-93056704D01*
X162499222Y-93167639D01*
X162583266Y-93374616D01*
X162699987Y-93565088D01*
X162846250Y-93733938D01*
X162850225Y-93737238D01*
X162850231Y-93737244D01*
X162855425Y-93741556D01*
X162895059Y-93800460D01*
X162896555Y-93871441D01*
X162859439Y-93931962D01*
X162819168Y-93956480D01*
X162711946Y-93996676D01*
X162696351Y-94005214D01*
X162594276Y-94081715D01*
X162581715Y-94094276D01*
X162505214Y-94196351D01*
X162496676Y-94211946D01*
X162451522Y-94332394D01*
X162447895Y-94347649D01*
X162442369Y-94398514D01*
X162442000Y-94405328D01*
X162442000Y-95027885D01*
X162446475Y-95043124D01*
X162447865Y-95044329D01*
X162455548Y-95046000D01*
X165139884Y-95046000D01*
X165155123Y-95041525D01*
X165156328Y-95040135D01*
X165157999Y-95032452D01*
X165157999Y-94405331D01*
X165157629Y-94398510D01*
X165152105Y-94347648D01*
X165148479Y-94332396D01*
X165103324Y-94211946D01*
X165094786Y-94196351D01*
X165018285Y-94094276D01*
X165005724Y-94081715D01*
X164903649Y-94005214D01*
X164888054Y-93996676D01*
X164777813Y-93955348D01*
X164721049Y-93912706D01*
X164696349Y-93846145D01*
X164711557Y-93776796D01*
X164733104Y-93748115D01*
X164834430Y-93647144D01*
X164834440Y-93647132D01*
X164838096Y-93643489D01*
X164897594Y-93560689D01*
X164965435Y-93466277D01*
X164968453Y-93462077D01*
X164990608Y-93417251D01*
X165065136Y-93266453D01*
X165065137Y-93266451D01*
X165067430Y-93261811D01*
X165121684Y-93083240D01*
X165130865Y-93053023D01*
X165130865Y-93053021D01*
X165132370Y-93048069D01*
X165161529Y-92826590D01*
X165162378Y-92791837D01*
X165163074Y-92763365D01*
X165163074Y-92763361D01*
X165163156Y-92760000D01*
X165144852Y-92537361D01*
X165090431Y-92320702D01*
X165001354Y-92115840D01*
X164880014Y-91928277D01*
X164729670Y-91763051D01*
X164725619Y-91759852D01*
X164725615Y-91759848D01*
X164558414Y-91627800D01*
X164558410Y-91627798D01*
X164554359Y-91624598D01*
X164513053Y-91601796D01*
X164463084Y-91551364D01*
X164448312Y-91481921D01*
X164473428Y-91415516D01*
X164500780Y-91388909D01*
X164544603Y-91357650D01*
X164679860Y-91261173D01*
X164838096Y-91103489D01*
X164897594Y-91020689D01*
X164965435Y-90926277D01*
X164968453Y-90922077D01*
X165067430Y-90721811D01*
X165132370Y-90508069D01*
X165161529Y-90286590D01*
X165161611Y-90283240D01*
X165163074Y-90223365D01*
X165163074Y-90223361D01*
X165163156Y-90220000D01*
X165144852Y-89997361D01*
X165090431Y-89780702D01*
X165001354Y-89575840D01*
X164880014Y-89388277D01*
X164729670Y-89223051D01*
X164725619Y-89219852D01*
X164725615Y-89219848D01*
X164558414Y-89087800D01*
X164558410Y-89087798D01*
X164554359Y-89084598D01*
X164513053Y-89061796D01*
X164463084Y-89011364D01*
X164448312Y-88941921D01*
X164473428Y-88875516D01*
X164500780Y-88848909D01*
X164544603Y-88817650D01*
X164679860Y-88721173D01*
X164838096Y-88563489D01*
X164897594Y-88480689D01*
X164965435Y-88386277D01*
X164968453Y-88382077D01*
X165067430Y-88181811D01*
X165132370Y-87968069D01*
X165161529Y-87746590D01*
X165163156Y-87680000D01*
X165144852Y-87457361D01*
X165090431Y-87240702D01*
X165001354Y-87035840D01*
X164880014Y-86848277D01*
X164729670Y-86683051D01*
X164725619Y-86679852D01*
X164725615Y-86679848D01*
X164558414Y-86547800D01*
X164558410Y-86547798D01*
X164554359Y-86544598D01*
X164513053Y-86521796D01*
X164463084Y-86471364D01*
X164448312Y-86401921D01*
X164473428Y-86335516D01*
X164500780Y-86308909D01*
X164544603Y-86277650D01*
X164679860Y-86181173D01*
X164838096Y-86023489D01*
X164897594Y-85940689D01*
X164965435Y-85846277D01*
X164968453Y-85842077D01*
X165010065Y-85757882D01*
X165065136Y-85646453D01*
X165065137Y-85646451D01*
X165067430Y-85641811D01*
X165132370Y-85428069D01*
X165161529Y-85206590D01*
X165163156Y-85140000D01*
X165144852Y-84917361D01*
X165090431Y-84700702D01*
X165001354Y-84495840D01*
X164941294Y-84403002D01*
X164882822Y-84312617D01*
X164882820Y-84312614D01*
X164880014Y-84308277D01*
X164729670Y-84143051D01*
X164725619Y-84139852D01*
X164725615Y-84139848D01*
X164558414Y-84007800D01*
X164558410Y-84007798D01*
X164554359Y-84004598D01*
X164358789Y-83896638D01*
X164353920Y-83894914D01*
X164353916Y-83894912D01*
X164153087Y-83823795D01*
X164153083Y-83823794D01*
X164148212Y-83822069D01*
X164143119Y-83821162D01*
X164143116Y-83821161D01*
X163933373Y-83783800D01*
X163933367Y-83783799D01*
X163928284Y-83782894D01*
X163854452Y-83781992D01*
X163710081Y-83780228D01*
X163710079Y-83780228D01*
X163704911Y-83780165D01*
X163484091Y-83813955D01*
X163271756Y-83883357D01*
X163202001Y-83919669D01*
X163091194Y-83977352D01*
X163073607Y-83986507D01*
X163069474Y-83989610D01*
X163069471Y-83989612D01*
X162899100Y-84117530D01*
X162894965Y-84120635D01*
X162740629Y-84282138D01*
X162614743Y-84466680D01*
X162520688Y-84669305D01*
X162460989Y-84884570D01*
X162437251Y-85106695D01*
X162437548Y-85111848D01*
X162437548Y-85111851D01*
X162443011Y-85206590D01*
X162450110Y-85329715D01*
X162451247Y-85334761D01*
X162451248Y-85334767D01*
X162457971Y-85364596D01*
X162499222Y-85547639D01*
X162552050Y-85677739D01*
X162564404Y-85708163D01*
X162583266Y-85754616D01*
X162585965Y-85759020D01*
X162657594Y-85875908D01*
X162699987Y-85945088D01*
X162846250Y-86113938D01*
X163018126Y-86256632D01*
X163088595Y-86297811D01*
X163091445Y-86299476D01*
X163140169Y-86351114D01*
X163153240Y-86420897D01*
X163126509Y-86486669D01*
X163086055Y-86520027D01*
X163073607Y-86526507D01*
X163069474Y-86529610D01*
X163069471Y-86529612D01*
X163045247Y-86547800D01*
X162894965Y-86660635D01*
X162740629Y-86822138D01*
X162614743Y-87006680D01*
X162520688Y-87209305D01*
X162460989Y-87424570D01*
X162437251Y-87646695D01*
X162437548Y-87651848D01*
X162437548Y-87651851D01*
X162443011Y-87746590D01*
X162450110Y-87869715D01*
X162451247Y-87874761D01*
X162451248Y-87874767D01*
X162471119Y-87962939D01*
X162499222Y-88087639D01*
X162583266Y-88294616D01*
X162585965Y-88299020D01*
X162685651Y-88461693D01*
X162699987Y-88485088D01*
X162846250Y-88653938D01*
X163018126Y-88796632D01*
X163088595Y-88837811D01*
X163091445Y-88839476D01*
X163140169Y-88891114D01*
X163153240Y-88960897D01*
X163126509Y-89026669D01*
X163086055Y-89060027D01*
X163073607Y-89066507D01*
X163069474Y-89069610D01*
X163069471Y-89069612D01*
X163037859Y-89093347D01*
X162894965Y-89200635D01*
X162740629Y-89362138D01*
X162614743Y-89546680D01*
X162599003Y-89580590D01*
X162529429Y-89730475D01*
X162520688Y-89749305D01*
X162460989Y-89964570D01*
X162437251Y-90186695D01*
X162437548Y-90191848D01*
X162437548Y-90191851D01*
X162448377Y-90379664D01*
X162450110Y-90409715D01*
X162451247Y-90414761D01*
X162451248Y-90414767D01*
X162471119Y-90502939D01*
X162499222Y-90627639D01*
X162583266Y-90834616D01*
X162585965Y-90839020D01*
X162677448Y-90988307D01*
X162699987Y-91025088D01*
X162846250Y-91193938D01*
X163018126Y-91336632D01*
X163088595Y-91377811D01*
X163091445Y-91379476D01*
X163140169Y-91431114D01*
X163153240Y-91500897D01*
X163126509Y-91566669D01*
X163086055Y-91600027D01*
X163073607Y-91606507D01*
X163069474Y-91609610D01*
X163069471Y-91609612D01*
X162990675Y-91668774D01*
X162894965Y-91740635D01*
X162740629Y-91902138D01*
X162614743Y-92086680D01*
X162520688Y-92289305D01*
X162460989Y-92504570D01*
X162437251Y-92726695D01*
X137244957Y-92726695D01*
X137334527Y-92571556D01*
X137393542Y-92389928D01*
X137400291Y-92325720D01*
X137412814Y-92206565D01*
X137413504Y-92200000D01*
X137393542Y-92010072D01*
X137334527Y-91828444D01*
X137239040Y-91663056D01*
X137207296Y-91627800D01*
X137115675Y-91526045D01*
X137115674Y-91526044D01*
X137111253Y-91521134D01*
X136956752Y-91408882D01*
X136950724Y-91406198D01*
X136950722Y-91406197D01*
X136788319Y-91333891D01*
X136788318Y-91333891D01*
X136782288Y-91331206D01*
X136688887Y-91311353D01*
X136601944Y-91292872D01*
X136601939Y-91292872D01*
X136595487Y-91291500D01*
X136404513Y-91291500D01*
X136398061Y-91292872D01*
X136398056Y-91292872D01*
X136311113Y-91311353D01*
X136217712Y-91331206D01*
X136211682Y-91333891D01*
X136211681Y-91333891D01*
X136049278Y-91406197D01*
X136049276Y-91406198D01*
X136043248Y-91408882D01*
X135888747Y-91521134D01*
X135884326Y-91526044D01*
X135884325Y-91526045D01*
X135792705Y-91627800D01*
X135760960Y-91663056D01*
X135665473Y-91828444D01*
X135606458Y-92010072D01*
X135586496Y-92200000D01*
X135587186Y-92206565D01*
X135599710Y-92325720D01*
X135606458Y-92389928D01*
X135665473Y-92571556D01*
X135668776Y-92577278D01*
X135668777Y-92577279D01*
X135741074Y-92702500D01*
X135757812Y-92771495D01*
X135734592Y-92838587D01*
X135678785Y-92882474D01*
X135631955Y-92891500D01*
X135199600Y-92891500D01*
X135196354Y-92891837D01*
X135196350Y-92891837D01*
X135100692Y-92901762D01*
X135100688Y-92901763D01*
X135093834Y-92902474D01*
X135087298Y-92904655D01*
X135087296Y-92904655D01*
X134967726Y-92944547D01*
X134926054Y-92958450D01*
X134775652Y-93051522D01*
X134705473Y-93121824D01*
X134689216Y-93138109D01*
X134626934Y-93172188D01*
X134556114Y-93167185D01*
X134511025Y-93138264D01*
X134428483Y-93055866D01*
X134423303Y-93050695D01*
X134417072Y-93046854D01*
X134278968Y-92961725D01*
X134278966Y-92961724D01*
X134272738Y-92957885D01*
X134112254Y-92904655D01*
X134111389Y-92904368D01*
X134111387Y-92904368D01*
X134104861Y-92902203D01*
X134098025Y-92901503D01*
X134098022Y-92901502D01*
X134054969Y-92897091D01*
X134000400Y-92891500D01*
X133199600Y-92891500D01*
X133196354Y-92891837D01*
X133196350Y-92891837D01*
X133100692Y-92901762D01*
X133100688Y-92901763D01*
X133093834Y-92902474D01*
X133087298Y-92904655D01*
X133087296Y-92904655D01*
X132967726Y-92944547D01*
X132926054Y-92958450D01*
X132775652Y-93051522D01*
X132650695Y-93176697D01*
X132646852Y-93182931D01*
X132646850Y-93182934D01*
X132638133Y-93197074D01*
X132585360Y-93244567D01*
X132515288Y-93255988D01*
X132450165Y-93227713D01*
X132423731Y-93197259D01*
X132352332Y-93081880D01*
X132348478Y-93075652D01*
X132328658Y-93055866D01*
X132228483Y-92955866D01*
X132223303Y-92950695D01*
X132148147Y-92904368D01*
X132078968Y-92861725D01*
X132078966Y-92861724D01*
X132072738Y-92857885D01*
X131992995Y-92831436D01*
X131911389Y-92804368D01*
X131911387Y-92804368D01*
X131904861Y-92802203D01*
X131898025Y-92801503D01*
X131898022Y-92801502D01*
X131854969Y-92797091D01*
X131800400Y-92791500D01*
X131049600Y-92791500D01*
X131046354Y-92791837D01*
X131046350Y-92791837D01*
X130950692Y-92801762D01*
X130950688Y-92801763D01*
X130943834Y-92802474D01*
X130937298Y-92804655D01*
X130937296Y-92804655D01*
X130835590Y-92838587D01*
X130776054Y-92858450D01*
X130625652Y-92951522D01*
X130500695Y-93076697D01*
X130497898Y-93081235D01*
X130440647Y-93121824D01*
X130369724Y-93125054D01*
X130308313Y-93089428D01*
X130300938Y-93080932D01*
X130292902Y-93070793D01*
X130178171Y-92956261D01*
X130166760Y-92947249D01*
X130028757Y-92862184D01*
X130015576Y-92856037D01*
X129861290Y-92804862D01*
X129847914Y-92801995D01*
X129753562Y-92792328D01*
X129747145Y-92792000D01*
X129647115Y-92792000D01*
X129631876Y-92796475D01*
X129630671Y-92797865D01*
X129629000Y-92805548D01*
X129629000Y-99389884D01*
X129121000Y-99389884D01*
X129121000Y-98472115D01*
X129116525Y-98456876D01*
X129115135Y-98455671D01*
X129107452Y-98454000D01*
X128310116Y-98454000D01*
X128294877Y-98458475D01*
X128293672Y-98459865D01*
X128292001Y-98467548D01*
X128292001Y-98697095D01*
X124808501Y-98697095D01*
X124808501Y-97927885D01*
X128292000Y-97927885D01*
X128296475Y-97943124D01*
X128297865Y-97944329D01*
X128305548Y-97946000D01*
X129102885Y-97946000D01*
X129118124Y-97941525D01*
X129119329Y-97940135D01*
X129121000Y-97932452D01*
X129121000Y-96372115D01*
X129116525Y-96356876D01*
X129115135Y-96355671D01*
X129107452Y-96354000D01*
X128310116Y-96354000D01*
X128294877Y-96358475D01*
X128293672Y-96359865D01*
X128292001Y-96367548D01*
X128292001Y-96597095D01*
X128292338Y-96603614D01*
X128302257Y-96699206D01*
X128305149Y-96712600D01*
X128356588Y-96866784D01*
X128362761Y-96879962D01*
X128448063Y-97017807D01*
X128457099Y-97029208D01*
X128488817Y-97060871D01*
X128522896Y-97123154D01*
X128517893Y-97193974D01*
X128488971Y-97239063D01*
X128456261Y-97271829D01*
X128447249Y-97283240D01*
X128362184Y-97421243D01*
X128356037Y-97434424D01*
X128304862Y-97588710D01*
X128301995Y-97602086D01*
X128292328Y-97696438D01*
X128292000Y-97702855D01*
X128292000Y-97927885D01*
X124808501Y-97927885D01*
X124808501Y-95827885D01*
X128292000Y-95827885D01*
X128296475Y-95843124D01*
X128297865Y-95844329D01*
X128305548Y-95846000D01*
X129102885Y-95846000D01*
X129118124Y-95841525D01*
X129119329Y-95840135D01*
X129121000Y-95832452D01*
X129121000Y-94272115D01*
X129116525Y-94256876D01*
X129115135Y-94255671D01*
X129107452Y-94254000D01*
X128310116Y-94254000D01*
X128294877Y-94258475D01*
X128293672Y-94259865D01*
X128292001Y-94267548D01*
X128292001Y-94497095D01*
X128292338Y-94503614D01*
X128302257Y-94599206D01*
X128305149Y-94612600D01*
X128356588Y-94766784D01*
X128362761Y-94779962D01*
X128448063Y-94917807D01*
X128457099Y-94929208D01*
X128488817Y-94960871D01*
X128522896Y-95023154D01*
X128517893Y-95093974D01*
X128488971Y-95139063D01*
X128456261Y-95171829D01*
X128447249Y-95183240D01*
X128362184Y-95321243D01*
X128356037Y-95334424D01*
X128304862Y-95488710D01*
X128301995Y-95502086D01*
X128292328Y-95596438D01*
X128292000Y-95602855D01*
X128292000Y-95827885D01*
X124808501Y-95827885D01*
X124808501Y-93727885D01*
X128292000Y-93727885D01*
X128296475Y-93743124D01*
X128297865Y-93744329D01*
X128305548Y-93746000D01*
X129102885Y-93746000D01*
X129118124Y-93741525D01*
X129119329Y-93740135D01*
X129121000Y-93732452D01*
X129121000Y-92810116D01*
X129116525Y-92794877D01*
X129115135Y-92793672D01*
X129107452Y-92792001D01*
X129002905Y-92792001D01*
X128996386Y-92792338D01*
X128900794Y-92802257D01*
X128887400Y-92805149D01*
X128733216Y-92856588D01*
X128720038Y-92862761D01*
X128582193Y-92948063D01*
X128570792Y-92957099D01*
X128456261Y-93071829D01*
X128447249Y-93083240D01*
X128362184Y-93221243D01*
X128356037Y-93234424D01*
X128304862Y-93388710D01*
X128301995Y-93402086D01*
X128292328Y-93496438D01*
X128292000Y-93502855D01*
X128292000Y-93727885D01*
X124808501Y-93727885D01*
X124808501Y-89725000D01*
X137876693Y-89725000D01*
X137895885Y-89944371D01*
X137952880Y-90157076D01*
X137955205Y-90162061D01*
X138043618Y-90351666D01*
X138043621Y-90351671D01*
X138045944Y-90356653D01*
X138049100Y-90361160D01*
X138049101Y-90361162D01*
X138155436Y-90513023D01*
X138172251Y-90537038D01*
X138327962Y-90692749D01*
X138332471Y-90695906D01*
X138332473Y-90695908D01*
X138376096Y-90726453D01*
X138508346Y-90819056D01*
X138707924Y-90912120D01*
X138920629Y-90969115D01*
X139140000Y-90988307D01*
X139359371Y-90969115D01*
X139572076Y-90912120D01*
X139771654Y-90819056D01*
X139903904Y-90726453D01*
X139947527Y-90695908D01*
X139947529Y-90695906D01*
X139952038Y-90692749D01*
X140107749Y-90537038D01*
X140124565Y-90513023D01*
X140181787Y-90431301D01*
X140237244Y-90386973D01*
X140307864Y-90379664D01*
X140371224Y-90411695D01*
X140388213Y-90431301D01*
X140445436Y-90513023D01*
X140462251Y-90537038D01*
X140617962Y-90692749D01*
X140622471Y-90695906D01*
X140622473Y-90695908D01*
X140666096Y-90726453D01*
X140798346Y-90819056D01*
X140997924Y-90912120D01*
X141210629Y-90969115D01*
X141430000Y-90988307D01*
X141649371Y-90969115D01*
X141862076Y-90912120D01*
X142061654Y-90819056D01*
X142193904Y-90726453D01*
X142237527Y-90695908D01*
X142237529Y-90695906D01*
X142242038Y-90692749D01*
X142397749Y-90537038D01*
X142414565Y-90513023D01*
X142520899Y-90361162D01*
X142520900Y-90361160D01*
X142524056Y-90356653D01*
X142526379Y-90351671D01*
X142526382Y-90351666D01*
X142614795Y-90162061D01*
X142617120Y-90157076D01*
X142674115Y-89944371D01*
X142693307Y-89725000D01*
X149306693Y-89725000D01*
X149325885Y-89944371D01*
X149382880Y-90157076D01*
X149385205Y-90162061D01*
X149473618Y-90351666D01*
X149473621Y-90351671D01*
X149475944Y-90356653D01*
X149479100Y-90361160D01*
X149479101Y-90361162D01*
X149585436Y-90513023D01*
X149602251Y-90537038D01*
X149757962Y-90692749D01*
X149762471Y-90695906D01*
X149762473Y-90695908D01*
X149806096Y-90726453D01*
X149938346Y-90819056D01*
X150137924Y-90912120D01*
X150350629Y-90969115D01*
X150570000Y-90988307D01*
X150789371Y-90969115D01*
X151002076Y-90912120D01*
X151201654Y-90819056D01*
X151333904Y-90726453D01*
X151377527Y-90695908D01*
X151377529Y-90695906D01*
X151382038Y-90692749D01*
X151537749Y-90537038D01*
X151554565Y-90513023D01*
X151611787Y-90431301D01*
X151667244Y-90386973D01*
X151737864Y-90379664D01*
X151801224Y-90411695D01*
X151818213Y-90431301D01*
X151875436Y-90513023D01*
X151892251Y-90537038D01*
X152047962Y-90692749D01*
X152052471Y-90695906D01*
X152052473Y-90695908D01*
X152096096Y-90726453D01*
X152228346Y-90819056D01*
X152427924Y-90912120D01*
X152640629Y-90969115D01*
X152860000Y-90988307D01*
X153079371Y-90969115D01*
X153292076Y-90912120D01*
X153491654Y-90819056D01*
X153623904Y-90726453D01*
X153667527Y-90695908D01*
X153667529Y-90695906D01*
X153672038Y-90692749D01*
X153827749Y-90537038D01*
X153844565Y-90513023D01*
X153950899Y-90361162D01*
X153950900Y-90361160D01*
X153954056Y-90356653D01*
X153956379Y-90351671D01*
X153956382Y-90351666D01*
X154044795Y-90162061D01*
X154047120Y-90157076D01*
X154104115Y-89944371D01*
X154123307Y-89725000D01*
X154104115Y-89505629D01*
X154047120Y-89292924D01*
X154002637Y-89197530D01*
X153956382Y-89098334D01*
X153956379Y-89098329D01*
X153954056Y-89093347D01*
X153937437Y-89069612D01*
X153830908Y-88917473D01*
X153830906Y-88917470D01*
X153827749Y-88912962D01*
X153672038Y-88757251D01*
X153615310Y-88717529D01*
X153529208Y-88657240D01*
X153491654Y-88630944D01*
X153292076Y-88537880D01*
X153079371Y-88480885D01*
X152860000Y-88461693D01*
X152640629Y-88480885D01*
X152427924Y-88537880D01*
X152365182Y-88567137D01*
X152233334Y-88628618D01*
X152233329Y-88628621D01*
X152228347Y-88630944D01*
X152223840Y-88634100D01*
X152223838Y-88634101D01*
X152052473Y-88754092D01*
X152052470Y-88754094D01*
X152047962Y-88757251D01*
X151892251Y-88912962D01*
X151889094Y-88917470D01*
X151889092Y-88917473D01*
X151818213Y-89018699D01*
X151762756Y-89063027D01*
X151692136Y-89070336D01*
X151628776Y-89038305D01*
X151611787Y-89018699D01*
X151540908Y-88917473D01*
X151540906Y-88917470D01*
X151537749Y-88912962D01*
X151382038Y-88757251D01*
X151325310Y-88717529D01*
X151239208Y-88657240D01*
X151201654Y-88630944D01*
X151002076Y-88537880D01*
X150789371Y-88480885D01*
X150570000Y-88461693D01*
X150350629Y-88480885D01*
X150137924Y-88537880D01*
X150075182Y-88567137D01*
X149943334Y-88628618D01*
X149943329Y-88628621D01*
X149938347Y-88630944D01*
X149933840Y-88634100D01*
X149933838Y-88634101D01*
X149762473Y-88754092D01*
X149762470Y-88754094D01*
X149757962Y-88757251D01*
X149602251Y-88912962D01*
X149599094Y-88917470D01*
X149599092Y-88917473D01*
X149492563Y-89069612D01*
X149475944Y-89093347D01*
X149473621Y-89098329D01*
X149473618Y-89098334D01*
X149427363Y-89197530D01*
X149382880Y-89292924D01*
X149325885Y-89505629D01*
X149306693Y-89725000D01*
X142693307Y-89725000D01*
X142674115Y-89505629D01*
X142617120Y-89292924D01*
X142572637Y-89197530D01*
X142526382Y-89098334D01*
X142526379Y-89098329D01*
X142524056Y-89093347D01*
X142507437Y-89069612D01*
X142400908Y-88917473D01*
X142400906Y-88917470D01*
X142397749Y-88912962D01*
X142242038Y-88757251D01*
X142185310Y-88717529D01*
X142099208Y-88657240D01*
X142061654Y-88630944D01*
X141862076Y-88537880D01*
X141649371Y-88480885D01*
X141430000Y-88461693D01*
X141210629Y-88480885D01*
X140997924Y-88537880D01*
X140935182Y-88567137D01*
X140803334Y-88628618D01*
X140803329Y-88628621D01*
X140798347Y-88630944D01*
X140793840Y-88634100D01*
X140793838Y-88634101D01*
X140622473Y-88754092D01*
X140622470Y-88754094D01*
X140617962Y-88757251D01*
X140462251Y-88912962D01*
X140459094Y-88917470D01*
X140459092Y-88917473D01*
X140388213Y-89018699D01*
X140332756Y-89063027D01*
X140262136Y-89070336D01*
X140198776Y-89038305D01*
X140181787Y-89018699D01*
X140110908Y-88917473D01*
X140110906Y-88917470D01*
X140107749Y-88912962D01*
X139952038Y-88757251D01*
X139895310Y-88717529D01*
X139809208Y-88657240D01*
X139771654Y-88630944D01*
X139572076Y-88537880D01*
X139359371Y-88480885D01*
X139140000Y-88461693D01*
X138920629Y-88480885D01*
X138707924Y-88537880D01*
X138645182Y-88567137D01*
X138513334Y-88628618D01*
X138513329Y-88628621D01*
X138508347Y-88630944D01*
X138503840Y-88634100D01*
X138503838Y-88634101D01*
X138332473Y-88754092D01*
X138332470Y-88754094D01*
X138327962Y-88757251D01*
X138172251Y-88912962D01*
X138169094Y-88917470D01*
X138169092Y-88917473D01*
X138062563Y-89069612D01*
X138045944Y-89093347D01*
X138043621Y-89098329D01*
X138043618Y-89098334D01*
X137997363Y-89197530D01*
X137952880Y-89292924D01*
X137895885Y-89505629D01*
X137876693Y-89725000D01*
X124808501Y-89725000D01*
X124808501Y-81600400D01*
X128091500Y-81600400D01*
X128091837Y-81603646D01*
X128091837Y-81603650D01*
X128095292Y-81636944D01*
X128102474Y-81706166D01*
X128104655Y-81712702D01*
X128104655Y-81712704D01*
X128141715Y-81823784D01*
X128158450Y-81873946D01*
X128251522Y-82024348D01*
X128256704Y-82029521D01*
X128259677Y-82032489D01*
X128376697Y-82149305D01*
X128382927Y-82153145D01*
X128382928Y-82153146D01*
X128520090Y-82237694D01*
X128527262Y-82242115D01*
X128584949Y-82261249D01*
X128605167Y-82267955D01*
X128663527Y-82308386D01*
X128690764Y-82373950D01*
X128691500Y-82387548D01*
X128691500Y-83278689D01*
X128671498Y-83346810D01*
X128631804Y-83385833D01*
X128525652Y-83451522D01*
X128400695Y-83576697D01*
X128396855Y-83582927D01*
X128396854Y-83582928D01*
X128348801Y-83660885D01*
X128307885Y-83727262D01*
X128252203Y-83895139D01*
X128241500Y-83999600D01*
X128241500Y-85000400D01*
X128241837Y-85003646D01*
X128241837Y-85003650D01*
X128251618Y-85097914D01*
X128252474Y-85106166D01*
X128254655Y-85112702D01*
X128254655Y-85112704D01*
X128285978Y-85206590D01*
X128308450Y-85273946D01*
X128401522Y-85424348D01*
X128526697Y-85549305D01*
X128532927Y-85553145D01*
X128532928Y-85553146D01*
X128670288Y-85637816D01*
X128677262Y-85642115D01*
X128690341Y-85646453D01*
X128838611Y-85695632D01*
X128838613Y-85695632D01*
X128845139Y-85697797D01*
X128851975Y-85698497D01*
X128851978Y-85698498D01*
X128895031Y-85702909D01*
X128949600Y-85708500D01*
X129700400Y-85708500D01*
X129703646Y-85708163D01*
X129703650Y-85708163D01*
X129799308Y-85698238D01*
X129799312Y-85698237D01*
X129806166Y-85697526D01*
X129812702Y-85695345D01*
X129812704Y-85695345D01*
X129959250Y-85646453D01*
X129973946Y-85641550D01*
X130124348Y-85548478D01*
X130249305Y-85423303D01*
X130252102Y-85418765D01*
X130309353Y-85378176D01*
X130380276Y-85374946D01*
X130441687Y-85410572D01*
X130449062Y-85419068D01*
X130457098Y-85429207D01*
X130571829Y-85543739D01*
X130583240Y-85552751D01*
X130721243Y-85637816D01*
X130734424Y-85643963D01*
X130888710Y-85695138D01*
X130902086Y-85698005D01*
X130996438Y-85707672D01*
X131002854Y-85708000D01*
X131102885Y-85708000D01*
X131118124Y-85703525D01*
X131119329Y-85702135D01*
X131121000Y-85694452D01*
X131121000Y-85689884D01*
X131629000Y-85689884D01*
X131633475Y-85705123D01*
X131634865Y-85706328D01*
X131642548Y-85707999D01*
X131747095Y-85707999D01*
X131753614Y-85707662D01*
X131849206Y-85697743D01*
X131862600Y-85694851D01*
X132016784Y-85643412D01*
X132029962Y-85637239D01*
X132167807Y-85551937D01*
X132179208Y-85542901D01*
X132293739Y-85428171D01*
X132302751Y-85416760D01*
X132339461Y-85357204D01*
X136893151Y-85357204D01*
X136897720Y-85363735D01*
X137110736Y-85494271D01*
X137119530Y-85498752D01*
X137351492Y-85594834D01*
X137360877Y-85597883D01*
X137605017Y-85656496D01*
X137614764Y-85658039D01*
X137865070Y-85677739D01*
X137874930Y-85677739D01*
X138125236Y-85658039D01*
X138134983Y-85656496D01*
X138379123Y-85597883D01*
X138388508Y-85594834D01*
X138620470Y-85498752D01*
X138629264Y-85494271D01*
X138840875Y-85364596D01*
X138846922Y-85355330D01*
X138840915Y-85345125D01*
X137882812Y-84387022D01*
X137868868Y-84379408D01*
X137867035Y-84379539D01*
X137860420Y-84383790D01*
X136900544Y-85343666D01*
X136893151Y-85357204D01*
X132339461Y-85357204D01*
X132387816Y-85278757D01*
X132393963Y-85265576D01*
X132445138Y-85111290D01*
X132448005Y-85097914D01*
X132457672Y-85003562D01*
X132458000Y-84997146D01*
X132458000Y-84772115D01*
X132453525Y-84756876D01*
X132452135Y-84755671D01*
X132444452Y-84754000D01*
X131647115Y-84754000D01*
X131631876Y-84758475D01*
X131630671Y-84759865D01*
X131629000Y-84767548D01*
X131629000Y-85689884D01*
X131121000Y-85689884D01*
X131121000Y-84227885D01*
X131629000Y-84227885D01*
X131633475Y-84243124D01*
X131634865Y-84244329D01*
X131642548Y-84246000D01*
X132439884Y-84246000D01*
X132455123Y-84241525D01*
X132456328Y-84240135D01*
X132457999Y-84232452D01*
X132457999Y-84019930D01*
X136207261Y-84019930D01*
X136226961Y-84270236D01*
X136228504Y-84279983D01*
X136287117Y-84524123D01*
X136290166Y-84533508D01*
X136386248Y-84765470D01*
X136390729Y-84774264D01*
X136520404Y-84985875D01*
X136529670Y-84991922D01*
X136539875Y-84985915D01*
X137497978Y-84027812D01*
X137504356Y-84016132D01*
X138234408Y-84016132D01*
X138234539Y-84017965D01*
X138238790Y-84024580D01*
X139198666Y-84984456D01*
X139212204Y-84991849D01*
X139218735Y-84987280D01*
X139349271Y-84774264D01*
X139353752Y-84765470D01*
X139449834Y-84533508D01*
X139452883Y-84524123D01*
X139511496Y-84279983D01*
X139513039Y-84270236D01*
X139532739Y-84019930D01*
X139532739Y-84010070D01*
X139525624Y-83919669D01*
X141182001Y-83919669D01*
X141182371Y-83926490D01*
X141187895Y-83977352D01*
X141191521Y-83992604D01*
X141236676Y-84113054D01*
X141245214Y-84128649D01*
X141321715Y-84230724D01*
X141334276Y-84243285D01*
X141436351Y-84319786D01*
X141451946Y-84328324D01*
X141572394Y-84373478D01*
X141587649Y-84377105D01*
X141638514Y-84382631D01*
X141645328Y-84383000D01*
X142128768Y-84383000D01*
X142196889Y-84403002D01*
X142243382Y-84456658D01*
X142253486Y-84526932D01*
X142250474Y-84541612D01*
X142213310Y-84680308D01*
X142213309Y-84680317D01*
X142211885Y-84685629D01*
X142192693Y-84905000D01*
X142211885Y-85124371D01*
X142268880Y-85337076D01*
X142311311Y-85428069D01*
X142359618Y-85531666D01*
X142359621Y-85531671D01*
X142361944Y-85536653D01*
X142365100Y-85541160D01*
X142365101Y-85541162D01*
X142482273Y-85708500D01*
X142488251Y-85717038D01*
X142643962Y-85872749D01*
X142824346Y-85999056D01*
X143023924Y-86092120D01*
X143236629Y-86149115D01*
X143456000Y-86168307D01*
X143675371Y-86149115D01*
X143888076Y-86092120D01*
X144087654Y-85999056D01*
X144268038Y-85872749D01*
X144382905Y-85757882D01*
X144445217Y-85723856D01*
X144516032Y-85728921D01*
X144561095Y-85757882D01*
X144675962Y-85872749D01*
X144856346Y-85999056D01*
X145055924Y-86092120D01*
X145268629Y-86149115D01*
X145488000Y-86168307D01*
X145707371Y-86149115D01*
X145920076Y-86092120D01*
X146119654Y-85999056D01*
X146300038Y-85872749D01*
X146414905Y-85757882D01*
X146477217Y-85723856D01*
X146548032Y-85728921D01*
X146593095Y-85757882D01*
X146707962Y-85872749D01*
X146888346Y-85999056D01*
X147087924Y-86092120D01*
X147300629Y-86149115D01*
X147520000Y-86168307D01*
X147739371Y-86149115D01*
X147952076Y-86092120D01*
X148151654Y-85999056D01*
X148332038Y-85872749D01*
X148446905Y-85757882D01*
X148509217Y-85723856D01*
X148580032Y-85728921D01*
X148625095Y-85757882D01*
X148739962Y-85872749D01*
X148920346Y-85999056D01*
X149119924Y-86092120D01*
X149332629Y-86149115D01*
X149552000Y-86168307D01*
X149771371Y-86149115D01*
X149984076Y-86092120D01*
X150183654Y-85999056D01*
X150364038Y-85872749D01*
X150519749Y-85717038D01*
X150525728Y-85708500D01*
X150642899Y-85541162D01*
X150642900Y-85541160D01*
X150646056Y-85536653D01*
X150648379Y-85531671D01*
X150648382Y-85531666D01*
X150696689Y-85428069D01*
X150729734Y-85357204D01*
X153153151Y-85357204D01*
X153157720Y-85363735D01*
X153370736Y-85494271D01*
X153379530Y-85498752D01*
X153611492Y-85594834D01*
X153620877Y-85597883D01*
X153865017Y-85656496D01*
X153874764Y-85658039D01*
X154125070Y-85677739D01*
X154134930Y-85677739D01*
X154385236Y-85658039D01*
X154394983Y-85656496D01*
X154639123Y-85597883D01*
X154648508Y-85594834D01*
X154880470Y-85498752D01*
X154889264Y-85494271D01*
X155100875Y-85364596D01*
X155106922Y-85355330D01*
X155100915Y-85345125D01*
X154142812Y-84387022D01*
X154128868Y-84379408D01*
X154127035Y-84379539D01*
X154120420Y-84383790D01*
X153160544Y-85343666D01*
X153153151Y-85357204D01*
X150729734Y-85357204D01*
X150739120Y-85337076D01*
X150796115Y-85124371D01*
X150815307Y-84905000D01*
X150796115Y-84685629D01*
X150739120Y-84472924D01*
X150652148Y-84286411D01*
X150648382Y-84278334D01*
X150648379Y-84278329D01*
X150646056Y-84273347D01*
X150642899Y-84268838D01*
X150522908Y-84097473D01*
X150522906Y-84097470D01*
X150519749Y-84092962D01*
X150446717Y-84019930D01*
X152467261Y-84019930D01*
X152486961Y-84270236D01*
X152488504Y-84279983D01*
X152547117Y-84524123D01*
X152550166Y-84533508D01*
X152646248Y-84765470D01*
X152650729Y-84774264D01*
X152780404Y-84985875D01*
X152789670Y-84991922D01*
X152799875Y-84985915D01*
X153757978Y-84027812D01*
X153764356Y-84016132D01*
X154494408Y-84016132D01*
X154494539Y-84017965D01*
X154498790Y-84024580D01*
X155458666Y-84984456D01*
X155472204Y-84991849D01*
X155478735Y-84987280D01*
X155609271Y-84774264D01*
X155613752Y-84765470D01*
X155709834Y-84533508D01*
X155712883Y-84524123D01*
X155771496Y-84279983D01*
X155773039Y-84270236D01*
X155792739Y-84019930D01*
X155792739Y-84010070D01*
X155773039Y-83759764D01*
X155771496Y-83750017D01*
X155712883Y-83505877D01*
X155709834Y-83496492D01*
X155613752Y-83264530D01*
X155609271Y-83255736D01*
X155479596Y-83044125D01*
X155470330Y-83038078D01*
X155460125Y-83044085D01*
X154502022Y-84002188D01*
X154494408Y-84016132D01*
X153764356Y-84016132D01*
X153765592Y-84013868D01*
X153765461Y-84012035D01*
X153761210Y-84005420D01*
X152801334Y-83045544D01*
X152787796Y-83038151D01*
X152781265Y-83042720D01*
X152650729Y-83255736D01*
X152646248Y-83264530D01*
X152550166Y-83496492D01*
X152547117Y-83505877D01*
X152488504Y-83750017D01*
X152486961Y-83759764D01*
X152467261Y-84010070D01*
X152467261Y-84019930D01*
X150446717Y-84019930D01*
X150364038Y-83937251D01*
X150338929Y-83919669D01*
X150284759Y-83881739D01*
X150183654Y-83810944D01*
X149984076Y-83717880D01*
X149822107Y-83674480D01*
X149761485Y-83637528D01*
X149730463Y-83573667D01*
X149733012Y-83520162D01*
X149778692Y-83349684D01*
X149778693Y-83349677D01*
X149780115Y-83344371D01*
X149799307Y-83125000D01*
X149780115Y-82905629D01*
X149723120Y-82692924D01*
X149654440Y-82545639D01*
X149632382Y-82498334D01*
X149632379Y-82498329D01*
X149630056Y-82493347D01*
X149589317Y-82435166D01*
X149506908Y-82317473D01*
X149506906Y-82317470D01*
X149503749Y-82312962D01*
X149348038Y-82157251D01*
X149342679Y-82153498D01*
X149246971Y-82086483D01*
X149167654Y-82030944D01*
X148968076Y-81937880D01*
X148755371Y-81880885D01*
X148536000Y-81861693D01*
X148316629Y-81880885D01*
X148103924Y-81937880D01*
X148010562Y-81981415D01*
X147909334Y-82028618D01*
X147909329Y-82028621D01*
X147904347Y-82030944D01*
X147899840Y-82034100D01*
X147899838Y-82034101D01*
X147728473Y-82154092D01*
X147728470Y-82154094D01*
X147723962Y-82157251D01*
X147609095Y-82272118D01*
X147546783Y-82306144D01*
X147475968Y-82301079D01*
X147430905Y-82272118D01*
X147316038Y-82157251D01*
X147310679Y-82153498D01*
X147214971Y-82086483D01*
X147135654Y-82030944D01*
X146936076Y-81937880D01*
X146723371Y-81880885D01*
X146504000Y-81861693D01*
X146284629Y-81880885D01*
X146071924Y-81937880D01*
X145978562Y-81981415D01*
X145877334Y-82028618D01*
X145877329Y-82028621D01*
X145872347Y-82030944D01*
X145867840Y-82034100D01*
X145867838Y-82034101D01*
X145696473Y-82154092D01*
X145696470Y-82154094D01*
X145691962Y-82157251D01*
X145577095Y-82272118D01*
X145514783Y-82306144D01*
X145443968Y-82301079D01*
X145398905Y-82272118D01*
X145284038Y-82157251D01*
X145278679Y-82153498D01*
X145182971Y-82086483D01*
X145103654Y-82030944D01*
X144904076Y-81937880D01*
X144691371Y-81880885D01*
X144472000Y-81861693D01*
X144252629Y-81880885D01*
X144039924Y-81937880D01*
X143946562Y-81981415D01*
X143845334Y-82028618D01*
X143845329Y-82028621D01*
X143840347Y-82030944D01*
X143761028Y-82086484D01*
X143693756Y-82109171D01*
X143624896Y-82091886D01*
X143587933Y-82058835D01*
X143558285Y-82019276D01*
X143545724Y-82006715D01*
X143443649Y-81930214D01*
X143428054Y-81921676D01*
X143307606Y-81876522D01*
X143292351Y-81872895D01*
X143241486Y-81867369D01*
X143234672Y-81867000D01*
X142712115Y-81867000D01*
X142696876Y-81871475D01*
X142695671Y-81872865D01*
X142694000Y-81880548D01*
X142694000Y-83253000D01*
X142673998Y-83321121D01*
X142620342Y-83367614D01*
X142568000Y-83379000D01*
X141200116Y-83379000D01*
X141184877Y-83383475D01*
X141183672Y-83384865D01*
X141182001Y-83392548D01*
X141182001Y-83919669D01*
X139525624Y-83919669D01*
X139513039Y-83759764D01*
X139511496Y-83750017D01*
X139452883Y-83505877D01*
X139449834Y-83496492D01*
X139353752Y-83264530D01*
X139349271Y-83255736D01*
X139219596Y-83044125D01*
X139210330Y-83038078D01*
X139200125Y-83044085D01*
X138242022Y-84002188D01*
X138234408Y-84016132D01*
X137504356Y-84016132D01*
X137505592Y-84013868D01*
X137505461Y-84012035D01*
X137501210Y-84005420D01*
X136541334Y-83045544D01*
X136527796Y-83038151D01*
X136521265Y-83042720D01*
X136390729Y-83255736D01*
X136386248Y-83264530D01*
X136290166Y-83496492D01*
X136287117Y-83505877D01*
X136228504Y-83750017D01*
X136226961Y-83759764D01*
X136207261Y-84010070D01*
X136207261Y-84019930D01*
X132457999Y-84019930D01*
X132457999Y-84002905D01*
X132457662Y-83996386D01*
X132447743Y-83900794D01*
X132444851Y-83887400D01*
X132393412Y-83733216D01*
X132387239Y-83720038D01*
X132301937Y-83582193D01*
X132292901Y-83570792D01*
X132178171Y-83456261D01*
X132166760Y-83447249D01*
X132028757Y-83362184D01*
X132015576Y-83356037D01*
X131861290Y-83304862D01*
X131847914Y-83301995D01*
X131753562Y-83292328D01*
X131747145Y-83292000D01*
X131647115Y-83292000D01*
X131631876Y-83296475D01*
X131630671Y-83297865D01*
X131629000Y-83305548D01*
X131629000Y-84227885D01*
X131121000Y-84227885D01*
X131121000Y-83310116D01*
X131116525Y-83294877D01*
X131115135Y-83293672D01*
X131107452Y-83292001D01*
X131002905Y-83292001D01*
X130996386Y-83292338D01*
X130900794Y-83302257D01*
X130887400Y-83305149D01*
X130733216Y-83356588D01*
X130720038Y-83362761D01*
X130582193Y-83448063D01*
X130570792Y-83457099D01*
X130456262Y-83571828D01*
X130449206Y-83580762D01*
X130391288Y-83621823D01*
X130320365Y-83625053D01*
X130258954Y-83589426D01*
X130252154Y-83581593D01*
X130248478Y-83575652D01*
X130123303Y-83450695D01*
X130018383Y-83386021D01*
X129970891Y-83333250D01*
X129958500Y-83278762D01*
X129958500Y-82674670D01*
X136893078Y-82674670D01*
X136899085Y-82684875D01*
X137857188Y-83642978D01*
X137871132Y-83650592D01*
X137872965Y-83650461D01*
X137879580Y-83646210D01*
X138839459Y-82686331D01*
X138844824Y-82676506D01*
X138895027Y-82626304D01*
X138964401Y-82611214D01*
X138998709Y-82618566D01*
X139053382Y-82638574D01*
X139337604Y-82700544D01*
X139366650Y-82702830D01*
X139563297Y-82718307D01*
X139563304Y-82718307D01*
X139565753Y-82718500D01*
X139723121Y-82718500D01*
X139725257Y-82718354D01*
X139725268Y-82718354D01*
X139935949Y-82703991D01*
X139935955Y-82703990D01*
X139940226Y-82703699D01*
X139944421Y-82702830D01*
X139944423Y-82702830D01*
X140120990Y-82666265D01*
X140225081Y-82644709D01*
X140499295Y-82547605D01*
X140757793Y-82414184D01*
X140761294Y-82411723D01*
X140761298Y-82411721D01*
X140983549Y-82255520D01*
X141050784Y-82232715D01*
X141119674Y-82249880D01*
X141168348Y-82301565D01*
X141182000Y-82358607D01*
X141182000Y-82852885D01*
X141186475Y-82868124D01*
X141187865Y-82869329D01*
X141195548Y-82871000D01*
X142167885Y-82871000D01*
X142183124Y-82866525D01*
X142184329Y-82865135D01*
X142186000Y-82857452D01*
X142186000Y-81885116D01*
X142181525Y-81869877D01*
X142180135Y-81868672D01*
X142172452Y-81867001D01*
X141645331Y-81867001D01*
X141638507Y-81867371D01*
X141602151Y-81871319D01*
X141532269Y-81858789D01*
X141480255Y-81810467D01*
X141462623Y-81741694D01*
X141481114Y-81680221D01*
X141542897Y-81579402D01*
X141542901Y-81579394D01*
X141545133Y-81575752D01*
X141553869Y-81555852D01*
X141660334Y-81313315D01*
X141662059Y-81309386D01*
X141665814Y-81296206D01*
X141721704Y-81100000D01*
X141741754Y-81029616D01*
X141744286Y-81011829D01*
X141782137Y-80745870D01*
X141782742Y-80741619D01*
X141782859Y-80719277D01*
X150215735Y-80719277D01*
X150253705Y-81007687D01*
X150330465Y-81288276D01*
X150332149Y-81292224D01*
X150408641Y-81471556D01*
X150444596Y-81555852D01*
X150593985Y-81805462D01*
X150596669Y-81808813D01*
X150596671Y-81808815D01*
X150659091Y-81886728D01*
X150775867Y-82032489D01*
X150986878Y-82232731D01*
X151223113Y-82402483D01*
X151480200Y-82538603D01*
X151484223Y-82540075D01*
X151484227Y-82540077D01*
X151749351Y-82637099D01*
X151753382Y-82638574D01*
X152037604Y-82700544D01*
X152066650Y-82702830D01*
X152263297Y-82718307D01*
X152263304Y-82718307D01*
X152265753Y-82718500D01*
X152423121Y-82718500D01*
X152425257Y-82718354D01*
X152425268Y-82718354D01*
X152635949Y-82703991D01*
X152635955Y-82703990D01*
X152640226Y-82703699D01*
X152644421Y-82702830D01*
X152644423Y-82702830D01*
X152820990Y-82666265D01*
X152925081Y-82644709D01*
X152929115Y-82643281D01*
X152929124Y-82643278D01*
X153001218Y-82617748D01*
X153072108Y-82613864D01*
X153133845Y-82648922D01*
X153151864Y-82672607D01*
X153159085Y-82684875D01*
X154117188Y-83642978D01*
X154131132Y-83650592D01*
X154132965Y-83650461D01*
X154139580Y-83646210D01*
X155099456Y-82686334D01*
X155106849Y-82672796D01*
X155102280Y-82666265D01*
X154889264Y-82535729D01*
X154880470Y-82531248D01*
X154648508Y-82435166D01*
X154639123Y-82432117D01*
X154394983Y-82373504D01*
X154385236Y-82371961D01*
X154134930Y-82352261D01*
X154125070Y-82352261D01*
X153892923Y-82370532D01*
X153823443Y-82355936D01*
X153772884Y-82306094D01*
X153757297Y-82236829D01*
X153781632Y-82170133D01*
X153797266Y-82152620D01*
X153905745Y-82051815D01*
X153905748Y-82051812D01*
X153908888Y-82048894D01*
X153919895Y-82035447D01*
X154042939Y-81885116D01*
X154093139Y-81823784D01*
X154245133Y-81575752D01*
X154253869Y-81555852D01*
X154360334Y-81313315D01*
X154362059Y-81309386D01*
X154365814Y-81296206D01*
X154421704Y-81100000D01*
X154441754Y-81029616D01*
X154444286Y-81011829D01*
X154482137Y-80745870D01*
X154482742Y-80741619D01*
X154483997Y-80501978D01*
X154484243Y-80455009D01*
X154484243Y-80455003D01*
X154484265Y-80450723D01*
X154479859Y-80417251D01*
X154458437Y-80254539D01*
X154446295Y-80162313D01*
X154369535Y-79881724D01*
X154255404Y-79614148D01*
X154106015Y-79364538D01*
X154100341Y-79357455D01*
X153926823Y-79140869D01*
X153924133Y-79137511D01*
X153713122Y-78937269D01*
X153476887Y-78767517D01*
X153238198Y-78641138D01*
X153223587Y-78633402D01*
X153223586Y-78633401D01*
X153219800Y-78631397D01*
X153215777Y-78629925D01*
X153215773Y-78629923D01*
X152950649Y-78532901D01*
X152950647Y-78532900D01*
X152946618Y-78531426D01*
X152662396Y-78469456D01*
X152618598Y-78466009D01*
X152436703Y-78451693D01*
X152436696Y-78451693D01*
X152434247Y-78451500D01*
X152276879Y-78451500D01*
X152274743Y-78451646D01*
X152274732Y-78451646D01*
X152064051Y-78466009D01*
X152064045Y-78466010D01*
X152059774Y-78466301D01*
X152055579Y-78467170D01*
X152055577Y-78467170D01*
X152040130Y-78470369D01*
X151774919Y-78525291D01*
X151500705Y-78622395D01*
X151242207Y-78755816D01*
X151238706Y-78758277D01*
X151238702Y-78758279D01*
X151225558Y-78767517D01*
X151004208Y-78923085D01*
X150791112Y-79121106D01*
X150788398Y-79124422D01*
X150788395Y-79124425D01*
X150774936Y-79140869D01*
X150606861Y-79346216D01*
X150454867Y-79594248D01*
X150453148Y-79598165D01*
X150453146Y-79598168D01*
X150444397Y-79618100D01*
X150337941Y-79860614D01*
X150336765Y-79864742D01*
X150336764Y-79864745D01*
X150312218Y-79950913D01*
X150258246Y-80140384D01*
X150257642Y-80144626D01*
X150257641Y-80144632D01*
X150234647Y-80306197D01*
X150217258Y-80428381D01*
X150215735Y-80719277D01*
X141782859Y-80719277D01*
X141783997Y-80501978D01*
X141784243Y-80455009D01*
X141784243Y-80455003D01*
X141784265Y-80450723D01*
X141779859Y-80417251D01*
X141758437Y-80254539D01*
X141746295Y-80162313D01*
X141669535Y-79881724D01*
X141555404Y-79614148D01*
X141406015Y-79364538D01*
X141400341Y-79357455D01*
X141226823Y-79140869D01*
X141224133Y-79137511D01*
X141013122Y-78937269D01*
X140776887Y-78767517D01*
X140538198Y-78641138D01*
X140523587Y-78633402D01*
X140523586Y-78633401D01*
X140519800Y-78631397D01*
X140515777Y-78629925D01*
X140515773Y-78629923D01*
X140250649Y-78532901D01*
X140250647Y-78532900D01*
X140246618Y-78531426D01*
X139962396Y-78469456D01*
X139918598Y-78466009D01*
X139736703Y-78451693D01*
X139736696Y-78451693D01*
X139734247Y-78451500D01*
X139576879Y-78451500D01*
X139574743Y-78451646D01*
X139574732Y-78451646D01*
X139364051Y-78466009D01*
X139364045Y-78466010D01*
X139359774Y-78466301D01*
X139355579Y-78467170D01*
X139355577Y-78467170D01*
X139340130Y-78470369D01*
X139074919Y-78525291D01*
X138800705Y-78622395D01*
X138542207Y-78755816D01*
X138538706Y-78758277D01*
X138538702Y-78758279D01*
X138525558Y-78767517D01*
X138304208Y-78923085D01*
X138091112Y-79121106D01*
X138088398Y-79124422D01*
X138088395Y-79124425D01*
X138074936Y-79140869D01*
X137906861Y-79346216D01*
X137754867Y-79594248D01*
X137753148Y-79598165D01*
X137753146Y-79598168D01*
X137744397Y-79618100D01*
X137637941Y-79860614D01*
X137636765Y-79864742D01*
X137636764Y-79864745D01*
X137612218Y-79950913D01*
X137558246Y-80140384D01*
X137557642Y-80144626D01*
X137557641Y-80144632D01*
X137534647Y-80306197D01*
X137517258Y-80428381D01*
X137515735Y-80719277D01*
X137553705Y-81007687D01*
X137630465Y-81288276D01*
X137632149Y-81292224D01*
X137708641Y-81471556D01*
X137744596Y-81555852D01*
X137893985Y-81805462D01*
X137896669Y-81808813D01*
X137896671Y-81808815D01*
X137959091Y-81886728D01*
X138075867Y-82032489D01*
X138202155Y-82152332D01*
X138203384Y-82153498D01*
X138239028Y-82214898D01*
X138235819Y-82285822D01*
X138194775Y-82343752D01*
X138128927Y-82370296D01*
X138106765Y-82370507D01*
X137874930Y-82352261D01*
X137865070Y-82352261D01*
X137614764Y-82371961D01*
X137605017Y-82373504D01*
X137360877Y-82432117D01*
X137351492Y-82435166D01*
X137119530Y-82531248D01*
X137110736Y-82535729D01*
X136899125Y-82665404D01*
X136893078Y-82674670D01*
X129958500Y-82674670D01*
X129958500Y-82259428D01*
X129978502Y-82191307D01*
X130012888Y-82157505D01*
X130012388Y-82156875D01*
X130018120Y-82152332D01*
X130024348Y-82148478D01*
X130110784Y-82061891D01*
X130173066Y-82027812D01*
X130243886Y-82032815D01*
X130288976Y-82061736D01*
X130376697Y-82149305D01*
X130382927Y-82153145D01*
X130382928Y-82153146D01*
X130520090Y-82237694D01*
X130527262Y-82242115D01*
X130605168Y-82267955D01*
X130688611Y-82295632D01*
X130688613Y-82295632D01*
X130695139Y-82297797D01*
X130701975Y-82298497D01*
X130701978Y-82298498D01*
X130745031Y-82302909D01*
X130799600Y-82308500D01*
X131600400Y-82308500D01*
X131603646Y-82308163D01*
X131603650Y-82308163D01*
X131699308Y-82298238D01*
X131699312Y-82298237D01*
X131706166Y-82297526D01*
X131712702Y-82295345D01*
X131712704Y-82295345D01*
X131857865Y-82246915D01*
X131873946Y-82241550D01*
X132024348Y-82148478D01*
X132149305Y-82023303D01*
X132159276Y-82007128D01*
X132197174Y-81945645D01*
X132249946Y-81898152D01*
X132320018Y-81886728D01*
X132355681Y-81896653D01*
X132517712Y-81968794D01*
X132611112Y-81988647D01*
X132698056Y-82007128D01*
X132698061Y-82007128D01*
X132704513Y-82008500D01*
X132895487Y-82008500D01*
X132901939Y-82007128D01*
X132901944Y-82007128D01*
X132988888Y-81988647D01*
X133082288Y-81968794D01*
X133134282Y-81945645D01*
X133250722Y-81893803D01*
X133250724Y-81893802D01*
X133256752Y-81891118D01*
X133262795Y-81886728D01*
X133374647Y-81805462D01*
X133411253Y-81778866D01*
X133444723Y-81741694D01*
X133534621Y-81641852D01*
X133534622Y-81641851D01*
X133539040Y-81636944D01*
X133634527Y-81471556D01*
X133693542Y-81289928D01*
X133713504Y-81100000D01*
X133706541Y-81033746D01*
X133694232Y-80916635D01*
X133694232Y-80916633D01*
X133693542Y-80910072D01*
X133634527Y-80728444D01*
X133629235Y-80719277D01*
X133542341Y-80568774D01*
X133539040Y-80563056D01*
X133472010Y-80488611D01*
X133415675Y-80426045D01*
X133415674Y-80426044D01*
X133411253Y-80421134D01*
X133312157Y-80349136D01*
X133262094Y-80312763D01*
X133262093Y-80312762D01*
X133256752Y-80308882D01*
X133250724Y-80306198D01*
X133250722Y-80306197D01*
X133088319Y-80233891D01*
X133088318Y-80233891D01*
X133082288Y-80231206D01*
X132988888Y-80211353D01*
X132901944Y-80192872D01*
X132901939Y-80192872D01*
X132895487Y-80191500D01*
X132704513Y-80191500D01*
X132698061Y-80192872D01*
X132698056Y-80192872D01*
X132611112Y-80211353D01*
X132517712Y-80231206D01*
X132511685Y-80233889D01*
X132511677Y-80233892D01*
X132355687Y-80303343D01*
X132285320Y-80312777D01*
X132221023Y-80282670D01*
X132197295Y-80254539D01*
X132152332Y-80181880D01*
X132148478Y-80175652D01*
X132023303Y-80050695D01*
X132017072Y-80046854D01*
X131878968Y-79961725D01*
X131878966Y-79961724D01*
X131872738Y-79957885D01*
X131712254Y-79904655D01*
X131711389Y-79904368D01*
X131711387Y-79904368D01*
X131704861Y-79902203D01*
X131698025Y-79901503D01*
X131698022Y-79901502D01*
X131654969Y-79897091D01*
X131600400Y-79891500D01*
X130799600Y-79891500D01*
X130796354Y-79891837D01*
X130796350Y-79891837D01*
X130700692Y-79901762D01*
X130700688Y-79901763D01*
X130693834Y-79902474D01*
X130687298Y-79904655D01*
X130687296Y-79904655D01*
X130555194Y-79948728D01*
X130526054Y-79958450D01*
X130375652Y-80051522D01*
X130370479Y-80056704D01*
X130289216Y-80138109D01*
X130226934Y-80172188D01*
X130156114Y-80167185D01*
X130111025Y-80138264D01*
X130028483Y-80055866D01*
X130023303Y-80050695D01*
X130017072Y-80046854D01*
X129878968Y-79961725D01*
X129878966Y-79961724D01*
X129872738Y-79957885D01*
X129712254Y-79904655D01*
X129711389Y-79904368D01*
X129711387Y-79904368D01*
X129704861Y-79902203D01*
X129698025Y-79901503D01*
X129698022Y-79901502D01*
X129654969Y-79897091D01*
X129600400Y-79891500D01*
X128799600Y-79891500D01*
X128796354Y-79891837D01*
X128796350Y-79891837D01*
X128700692Y-79901762D01*
X128700688Y-79901763D01*
X128693834Y-79902474D01*
X128687298Y-79904655D01*
X128687296Y-79904655D01*
X128555194Y-79948728D01*
X128526054Y-79958450D01*
X128375652Y-80051522D01*
X128250695Y-80176697D01*
X128246855Y-80182927D01*
X128246854Y-80182928D01*
X128166814Y-80312777D01*
X128157885Y-80327262D01*
X128155581Y-80334209D01*
X128124346Y-80428381D01*
X128102203Y-80495139D01*
X128091500Y-80599600D01*
X128091500Y-81600400D01*
X124808501Y-81600400D01*
X124808501Y-79337694D01*
X124808503Y-79336956D01*
X124808509Y-79335932D01*
X124808546Y-79333548D01*
X124809670Y-79288199D01*
X124817174Y-78985479D01*
X124817480Y-78979286D01*
X124842639Y-78641138D01*
X124843253Y-78634958D01*
X124873504Y-78391424D01*
X124884895Y-78299720D01*
X124885807Y-78293606D01*
X124943703Y-77961802D01*
X124944914Y-77955744D01*
X125018827Y-77627954D01*
X125020329Y-77621978D01*
X125110036Y-77298716D01*
X125111826Y-77292829D01*
X125137836Y-77214216D01*
X125217076Y-76974721D01*
X125219133Y-76968976D01*
X125339740Y-76656466D01*
X125342092Y-76650790D01*
X125477751Y-76344618D01*
X125480377Y-76339061D01*
X125630894Y-76039691D01*
X125633791Y-76034263D01*
X125653168Y-76000000D01*
X127186540Y-76000000D01*
X127206359Y-76315020D01*
X127265505Y-76625072D01*
X127363044Y-76925266D01*
X127364731Y-76928852D01*
X127364733Y-76928856D01*
X127495750Y-77207283D01*
X127495754Y-77207290D01*
X127497438Y-77210869D01*
X127666568Y-77477375D01*
X127867767Y-77720582D01*
X128097860Y-77936654D01*
X128101062Y-77938981D01*
X128101064Y-77938982D01*
X128128314Y-77958780D01*
X128353221Y-78122184D01*
X128356690Y-78124091D01*
X128356693Y-78124093D01*
X128463524Y-78182824D01*
X128629821Y-78274247D01*
X128633490Y-78275700D01*
X128633495Y-78275702D01*
X128694206Y-78299739D01*
X128923298Y-78390443D01*
X129229025Y-78468940D01*
X129542179Y-78508500D01*
X129857821Y-78508500D01*
X130170975Y-78468940D01*
X130476702Y-78390443D01*
X130705794Y-78299739D01*
X130766505Y-78275702D01*
X130766510Y-78275700D01*
X130770179Y-78274247D01*
X130936476Y-78182824D01*
X131043307Y-78124093D01*
X131043310Y-78124091D01*
X131046779Y-78122184D01*
X131271686Y-77958780D01*
X131298936Y-77938982D01*
X131298938Y-77938981D01*
X131302140Y-77936654D01*
X131532233Y-77720582D01*
X131733432Y-77477375D01*
X131902562Y-77210869D01*
X131904246Y-77207290D01*
X131904250Y-77207283D01*
X132035267Y-76928856D01*
X132035269Y-76928852D01*
X132036956Y-76925266D01*
X132134495Y-76625072D01*
X132193641Y-76315020D01*
X132213460Y-76000000D01*
X160786540Y-76000000D01*
X160806359Y-76315020D01*
X160865505Y-76625072D01*
X160963044Y-76925266D01*
X160964731Y-76928852D01*
X160964733Y-76928856D01*
X161095750Y-77207283D01*
X161095754Y-77207290D01*
X161097438Y-77210869D01*
X161266568Y-77477375D01*
X161467767Y-77720582D01*
X161697860Y-77936654D01*
X161701062Y-77938981D01*
X161701064Y-77938982D01*
X161728314Y-77958780D01*
X161953221Y-78122184D01*
X161956690Y-78124091D01*
X161956693Y-78124093D01*
X162063524Y-78182824D01*
X162229821Y-78274247D01*
X162233490Y-78275700D01*
X162233495Y-78275702D01*
X162294206Y-78299739D01*
X162523298Y-78390443D01*
X162829025Y-78468940D01*
X163142179Y-78508500D01*
X163457821Y-78508500D01*
X163770975Y-78468940D01*
X164076702Y-78390443D01*
X164305794Y-78299739D01*
X164366505Y-78275702D01*
X164366510Y-78275700D01*
X164370179Y-78274247D01*
X164536476Y-78182824D01*
X164643307Y-78124093D01*
X164643310Y-78124091D01*
X164646779Y-78122184D01*
X164871686Y-77958780D01*
X164898936Y-77938982D01*
X164898938Y-77938981D01*
X164902140Y-77936654D01*
X165132233Y-77720582D01*
X165333432Y-77477375D01*
X165502562Y-77210869D01*
X165504246Y-77207290D01*
X165504250Y-77207283D01*
X165635267Y-76928856D01*
X165635269Y-76928852D01*
X165636956Y-76925266D01*
X165734495Y-76625072D01*
X165793641Y-76315020D01*
X165813460Y-76000000D01*
X165793641Y-75684980D01*
X165734495Y-75374928D01*
X165636956Y-75074734D01*
X165635267Y-75071144D01*
X165504250Y-74792717D01*
X165504246Y-74792710D01*
X165502562Y-74789131D01*
X165333432Y-74522625D01*
X165197866Y-74358754D01*
X165134758Y-74282470D01*
X165134757Y-74282469D01*
X165132233Y-74279418D01*
X164902140Y-74063346D01*
X164646779Y-73877816D01*
X164370179Y-73725753D01*
X164366510Y-73724300D01*
X164366505Y-73724298D01*
X164080372Y-73611010D01*
X164080371Y-73611010D01*
X164076702Y-73609557D01*
X163770975Y-73531060D01*
X163457821Y-73491500D01*
X163142179Y-73491500D01*
X162829025Y-73531060D01*
X162523298Y-73609557D01*
X162519629Y-73611010D01*
X162519628Y-73611010D01*
X162233495Y-73724298D01*
X162233490Y-73724300D01*
X162229821Y-73725753D01*
X161953221Y-73877816D01*
X161697860Y-74063346D01*
X161467767Y-74279418D01*
X161465243Y-74282469D01*
X161465242Y-74282470D01*
X161402134Y-74358754D01*
X161266568Y-74522625D01*
X161097438Y-74789131D01*
X161095754Y-74792710D01*
X161095750Y-74792717D01*
X160964733Y-75071144D01*
X160963044Y-75074734D01*
X160865505Y-75374928D01*
X160806359Y-75684980D01*
X160786540Y-76000000D01*
X132213460Y-76000000D01*
X132193641Y-75684980D01*
X132134495Y-75374928D01*
X132036956Y-75074734D01*
X132035267Y-75071144D01*
X131904250Y-74792717D01*
X131904246Y-74792710D01*
X131902562Y-74789131D01*
X131733432Y-74522625D01*
X131597866Y-74358754D01*
X131534758Y-74282470D01*
X131534757Y-74282469D01*
X131532233Y-74279418D01*
X131302140Y-74063346D01*
X131046779Y-73877816D01*
X130770179Y-73725753D01*
X130766510Y-73724300D01*
X130766505Y-73724298D01*
X130480372Y-73611010D01*
X130480371Y-73611010D01*
X130476702Y-73609557D01*
X130170975Y-73531060D01*
X129857821Y-73491500D01*
X129542179Y-73491500D01*
X129229025Y-73531060D01*
X128923298Y-73609557D01*
X128919629Y-73611010D01*
X128919628Y-73611010D01*
X128633495Y-73724298D01*
X128633490Y-73724300D01*
X128629821Y-73725753D01*
X128353221Y-73877816D01*
X128097860Y-74063346D01*
X127867767Y-74279418D01*
X127865243Y-74282469D01*
X127865242Y-74282470D01*
X127802134Y-74358754D01*
X127666568Y-74522625D01*
X127497438Y-74789131D01*
X127495754Y-74792710D01*
X127495750Y-74792717D01*
X127364733Y-75071144D01*
X127363044Y-75074734D01*
X127265505Y-75374928D01*
X127206359Y-75684980D01*
X127186540Y-76000000D01*
X125653168Y-76000000D01*
X125798937Y-75742254D01*
X125802101Y-75736966D01*
X125900308Y-75581576D01*
X125981624Y-75452912D01*
X125985031Y-75447802D01*
X126155082Y-75205864D01*
X126178726Y-75172225D01*
X126182411Y-75167247D01*
X126377480Y-74916842D01*
X126390032Y-74900731D01*
X126393962Y-74895935D01*
X126402617Y-74885889D01*
X126615240Y-74639085D01*
X126619413Y-74634476D01*
X126843123Y-74399396D01*
X126852150Y-74390804D01*
X126877027Y-74369369D01*
X126877030Y-74369366D01*
X126883827Y-74363509D01*
X126888709Y-74355977D01*
X126891415Y-74352875D01*
X126899503Y-74344429D01*
X127105374Y-74148515D01*
X127109985Y-74144340D01*
X127366861Y-73923041D01*
X127371646Y-73919119D01*
X127638144Y-73711512D01*
X127643117Y-73707831D01*
X127918683Y-73514144D01*
X127923822Y-73510717D01*
X128149017Y-73368392D01*
X128207893Y-73331182D01*
X128213175Y-73328022D01*
X128505156Y-73162892D01*
X128510584Y-73159995D01*
X128809958Y-73009476D01*
X128815515Y-73006850D01*
X129121718Y-72871177D01*
X129127395Y-72868825D01*
X129439854Y-72748240D01*
X129445640Y-72746168D01*
X129618963Y-72688821D01*
X129763758Y-72640913D01*
X129769616Y-72639132D01*
X130092890Y-72549422D01*
X130098864Y-72547921D01*
X130426678Y-72474005D01*
X130432702Y-72472800D01*
X130764524Y-72414901D01*
X130770637Y-72413989D01*
X131105856Y-72372349D01*
X131112041Y-72371735D01*
X131148092Y-72369053D01*
X131450202Y-72346575D01*
X131456395Y-72346269D01*
X131804716Y-72337636D01*
X131807837Y-72337597D01*
X161792162Y-72337597D01*
X161795285Y-72337636D01*
G37*
%TD.AperFunction*%
%TD*%
M02*
