%TF.GenerationSoftware,KiCad,Pcbnew,6.0.9+dfsg-1~bpo11+1*%
%TF.CreationDate,2022-12-30T18:48:50-06:00*%
%TF.ProjectId,Pedals,50656461-6c73-42e6-9b69-6361645f7063,rev?*%
%TF.SameCoordinates,Original*%
%TF.FileFunction,Copper,L2,Bot*%
%TF.FilePolarity,Positive*%
%FSLAX46Y46*%
G04 Gerber Fmt 4.6, Leading zero omitted, Abs format (unit mm)*
G04 Created by KiCad (PCBNEW 6.0.9+dfsg-1~bpo11+1) date 2022-12-30 18:48:50*
%MOMM*%
%LPD*%
G01*
G04 APERTURE LIST*
G04 Aperture macros list*
%AMRoundRect*
0 Rectangle with rounded corners*
0 $1 Rounding radius*
0 $2 $3 $4 $5 $6 $7 $8 $9 X,Y pos of 4 corners*
0 Add a 4 corners polygon primitive as box body*
4,1,4,$2,$3,$4,$5,$6,$7,$8,$9,$2,$3,0*
0 Add four circle primitives for the rounded corners*
1,1,$1+$1,$2,$3*
1,1,$1+$1,$4,$5*
1,1,$1+$1,$6,$7*
1,1,$1+$1,$8,$9*
0 Add four rect primitives between the rounded corners*
20,1,$1+$1,$2,$3,$4,$5,0*
20,1,$1+$1,$4,$5,$6,$7,0*
20,1,$1+$1,$6,$7,$8,$9,0*
20,1,$1+$1,$8,$9,$2,$3,0*%
G04 Aperture macros list end*
%TA.AperFunction,Profile*%
%ADD10C,0.349999*%
%TD*%
%TA.AperFunction,Profile*%
%ADD11C,2.075000*%
%TD*%
%TA.AperFunction,ComponentPad*%
%ADD12RoundRect,0.250000X0.600000X0.725000X-0.600000X0.725000X-0.600000X-0.725000X0.600000X-0.725000X0*%
%TD*%
%TA.AperFunction,ComponentPad*%
%ADD13O,1.700000X1.950000*%
%TD*%
%TA.AperFunction,ComponentPad*%
%ADD14R,1.500000X1.500000*%
%TD*%
%TA.AperFunction,ComponentPad*%
%ADD15C,1.500000*%
%TD*%
%TA.AperFunction,ComponentPad*%
%ADD16C,2.300000*%
%TD*%
%TA.AperFunction,ComponentPad*%
%ADD17R,1.700000X1.700000*%
%TD*%
%TA.AperFunction,ComponentPad*%
%ADD18O,1.700000X1.700000*%
%TD*%
%TA.AperFunction,SMDPad,CuDef*%
%ADD19RoundRect,0.250000X-0.337500X-0.475000X0.337500X-0.475000X0.337500X0.475000X-0.337500X0.475000X0*%
%TD*%
%TA.AperFunction,SMDPad,CuDef*%
%ADD20R,2.000000X1.500000*%
%TD*%
%TA.AperFunction,SMDPad,CuDef*%
%ADD21R,2.000000X3.800000*%
%TD*%
%TA.AperFunction,ViaPad*%
%ADD22C,0.800000*%
%TD*%
%TA.AperFunction,Conductor*%
%ADD23C,0.250000*%
%TD*%
G04 APERTURE END LIST*
D10*
X125183550Y-75797418D02*
X125363960Y-75478420D01*
X166262042Y-73300778D02*
X166553182Y-73527581D01*
X124624190Y-121510361D02*
X124526193Y-121157226D01*
X124336701Y-78587814D02*
X124382194Y-78221573D01*
X161799997Y-71829097D02*
X162171901Y-71838314D01*
X129971872Y-126602905D02*
X129618736Y-126504908D01*
X131058717Y-71865797D02*
X131428097Y-71838314D01*
X169299997Y-79329097D02*
X169299997Y-119329097D01*
X168416448Y-75797418D02*
X168580885Y-76124473D01*
X126766193Y-124888857D02*
X126496700Y-124632400D01*
X129971872Y-72055289D02*
X130329990Y-71974539D01*
X167359757Y-74295289D02*
X167601514Y-74575913D01*
X163270007Y-71974539D02*
X163628126Y-72055289D01*
X169290780Y-119701000D02*
X169263297Y-120070380D01*
X163981261Y-126504908D02*
X163628126Y-126602905D01*
X124382194Y-78221573D02*
X124445443Y-77859086D01*
X131800000Y-126829097D02*
X131428097Y-126819879D01*
X127337956Y-73300778D02*
X127638996Y-73089185D01*
X131428097Y-126819879D02*
X131058717Y-126792397D01*
X126240242Y-74295289D02*
X126496700Y-74025796D01*
X165650675Y-125765138D02*
X165331676Y-125945548D01*
X169154555Y-120799107D02*
X169073805Y-121157226D01*
X168580885Y-76124473D02*
X168729094Y-76458971D01*
X124870904Y-76458971D02*
X125019113Y-76124473D01*
X166553182Y-73527581D02*
X166833806Y-73769338D01*
X163628126Y-72055289D02*
X163981261Y-72153286D01*
X127949323Y-72893056D02*
X128268322Y-72712646D01*
X168860820Y-121857898D02*
X168729094Y-122199223D01*
X125363960Y-123179774D02*
X125183550Y-122860776D01*
X167601514Y-124082282D02*
X167359757Y-124362906D01*
X129618736Y-126504908D02*
X129271199Y-126389919D01*
X124336701Y-120070380D02*
X124309218Y-119701000D01*
X130692477Y-71911290D02*
X131058717Y-71865797D01*
X161799997Y-126829097D02*
X131800000Y-126829097D01*
X125998484Y-124082282D02*
X125771682Y-123791142D01*
X169073805Y-77500968D02*
X169154555Y-77859086D01*
X163628126Y-126602905D02*
X163270007Y-126683655D01*
X168975808Y-77147833D02*
X169073805Y-77500968D01*
X164328798Y-126389919D02*
X163981261Y-126504908D01*
X127337956Y-125357417D02*
X127046816Y-125130614D01*
X124309218Y-119701000D02*
X124300001Y-119329097D01*
D11*
X130737500Y-76000000D02*
G75*
G03*
X130737500Y-76000000I-1037500J0D01*
G01*
D10*
X161799997Y-71829097D02*
X161799997Y-71829097D01*
X129618736Y-72153286D02*
X129971872Y-72055289D01*
X125771682Y-123791142D02*
X125560089Y-123490101D01*
X124300001Y-79329097D02*
X124309218Y-78957193D01*
X127046816Y-125130614D02*
X126766193Y-124888857D01*
X124739178Y-76800295D02*
X124870904Y-76458971D01*
X126496700Y-124632400D02*
X126240242Y-124362906D01*
X166553182Y-125130614D02*
X166262042Y-125357417D01*
X165650675Y-72893056D02*
X165961002Y-73089185D01*
X169263297Y-120070380D02*
X169217804Y-120436620D01*
X127638996Y-125569009D02*
X127337956Y-125357417D01*
X130329990Y-126683655D02*
X129971872Y-126602905D01*
X124739178Y-121857898D02*
X124624190Y-121510361D01*
X128595377Y-72548209D02*
X128929874Y-72400000D01*
X167103300Y-74025796D02*
X167359757Y-74295289D01*
X162541280Y-71865797D02*
X162907520Y-71911290D01*
X162171901Y-71838314D02*
X162541280Y-71865797D01*
X166833806Y-73769338D02*
X167103300Y-74025796D01*
X162907520Y-71911290D02*
X163270007Y-71974539D01*
X131058717Y-126792397D02*
X130692477Y-126746904D01*
X124382194Y-120436620D02*
X124336701Y-120070380D01*
X168729094Y-122199223D02*
X168580885Y-122533720D01*
X165961002Y-73089185D02*
X166262042Y-73300778D01*
X125560089Y-123490101D02*
X125363960Y-123179774D01*
X165004621Y-72548209D02*
X165331676Y-72712646D01*
X168729094Y-76458971D02*
X168860820Y-76800295D01*
X168416448Y-122860776D02*
X168236038Y-123179774D01*
X164670123Y-72400000D02*
X165004621Y-72548209D01*
X163981261Y-72153286D02*
X164328798Y-72268274D01*
X165331676Y-72712646D02*
X165650675Y-72893056D01*
X126766193Y-73769338D02*
X127046816Y-73527581D01*
X129271199Y-72268274D02*
X129618736Y-72153286D01*
X165331676Y-125945548D02*
X165004621Y-126109985D01*
X169299997Y-119329097D02*
X169290780Y-119701000D01*
X126240242Y-124362906D02*
X125998484Y-124082282D01*
X131800000Y-71829097D02*
X161799997Y-71829097D01*
X126496700Y-74025796D02*
X126766193Y-73769338D01*
X169073805Y-121157226D02*
X168975808Y-121510361D01*
X166262042Y-125357417D02*
X165961002Y-125569009D01*
D11*
X164337500Y-76000000D02*
G75*
G03*
X164337500Y-76000000I-1037500J0D01*
G01*
D10*
X168236038Y-123179774D02*
X168039910Y-123490101D01*
X169154555Y-77859086D02*
X169217804Y-78221573D01*
X169217804Y-120436620D02*
X169154555Y-120799107D01*
X129271199Y-126389919D02*
X128929874Y-126258193D01*
X167828317Y-123791142D02*
X167601514Y-124082282D01*
X124445443Y-77859086D02*
X124526193Y-77500968D01*
X128268322Y-125945548D02*
X127949323Y-125765138D01*
X165004621Y-126109985D02*
X164670123Y-126258193D01*
X168236038Y-75478420D02*
X168416448Y-75797418D01*
X130329990Y-71974539D02*
X130692477Y-71911290D01*
X126496700Y-124632400D02*
X126496700Y-124632400D01*
X124526193Y-77500968D02*
X124624190Y-77147833D01*
X168975808Y-121510361D02*
X168860820Y-121857898D01*
X124526193Y-121157226D02*
X124445443Y-120799107D01*
X169290780Y-78957193D02*
X169299997Y-79329097D01*
X131428097Y-71838314D02*
X131800000Y-71829097D01*
X127046816Y-73527581D02*
X127337956Y-73300778D01*
X131800000Y-71829097D02*
X131800000Y-71829097D01*
X166833806Y-124888857D02*
X166553182Y-125130614D01*
X125183550Y-122860776D02*
X125019113Y-122533720D01*
X162541280Y-126792397D02*
X162171901Y-126819879D01*
X125771682Y-74867052D02*
X125998484Y-74575913D01*
X127638996Y-73089185D02*
X127949323Y-72893056D01*
X128929874Y-126258193D02*
X128595377Y-126109985D01*
X168039910Y-75168093D02*
X168236038Y-75478420D01*
X169299997Y-79329097D02*
X169299997Y-79329097D01*
X130692477Y-126746904D02*
X130329990Y-126683655D01*
X163270007Y-126683655D02*
X162907520Y-126746904D01*
X161799997Y-126829097D02*
X161799997Y-126829097D01*
D11*
X130737500Y-122700000D02*
G75*
G03*
X130737500Y-122700000I-1037500J0D01*
G01*
D10*
X167359757Y-124362906D02*
X167103300Y-124632400D01*
X124624190Y-77147833D02*
X124739178Y-76800295D01*
X125560089Y-75168093D02*
X125771682Y-74867052D01*
X125998484Y-74575913D02*
X126240242Y-74295289D01*
X167828317Y-74867052D02*
X168039910Y-75168093D01*
X165961002Y-125569009D02*
X165650675Y-125765138D01*
X127949323Y-125765138D02*
X127638996Y-125569009D01*
X125363960Y-75478420D02*
X125560089Y-75168093D01*
X128595377Y-126109985D02*
X128268322Y-125945548D01*
X164670123Y-126258193D02*
X164328798Y-126389919D01*
X131800000Y-126829097D02*
X131800000Y-126829097D01*
X168580885Y-122533720D02*
X168416448Y-122860776D01*
X124445443Y-120799107D02*
X124382194Y-120436620D01*
X167103300Y-74025796D02*
X167103300Y-74025796D01*
X128268322Y-72712646D02*
X128595377Y-72548209D01*
D11*
X164337500Y-122700000D02*
G75*
G03*
X164337500Y-122700000I-1037500J0D01*
G01*
D10*
X169263297Y-78587814D02*
X169290780Y-78957193D01*
X169299997Y-119329097D02*
X169299997Y-119329097D01*
X168039910Y-123490101D02*
X167828317Y-123791142D01*
X162907520Y-126746904D02*
X162541280Y-126792397D01*
X124300001Y-79329097D02*
X124300001Y-79329097D01*
X124309218Y-78957193D02*
X124336701Y-78587814D01*
X168860820Y-76800295D02*
X168975808Y-77147833D01*
X125019113Y-122533720D02*
X124870904Y-122199223D01*
X164328798Y-72268274D02*
X164670123Y-72400000D01*
X128929874Y-72400000D02*
X129271199Y-72268274D01*
X126496700Y-74025796D02*
X126496700Y-74025796D01*
X162171901Y-126819879D02*
X161799997Y-126829097D01*
X124870904Y-122199223D02*
X124739178Y-121857898D01*
X124300001Y-119329097D02*
X124300001Y-79329097D01*
X167103300Y-124632400D02*
X166833806Y-124888857D01*
X167601514Y-74575913D02*
X167828317Y-74867052D01*
X167103300Y-124632400D02*
X167103300Y-124632400D01*
X169217804Y-78221573D02*
X169263297Y-78587814D01*
X125019113Y-76124473D02*
X125183550Y-75797418D01*
D12*
%TO.P,BRAKE1,1,Pin_1*%
%TO.N,+3.3V*%
X149000000Y-116935000D03*
D13*
%TO.P,BRAKE1,2,Pin_2*%
%TO.N,/BRAKE*%
X146500000Y-116935000D03*
%TO.P,BRAKE1,3,Pin_3*%
%TO.N,GNDREF*%
X144000000Y-116935000D03*
%TD*%
D12*
%TO.P,CLUTCH1,1,Pin_1*%
%TO.N,+3.3V*%
X161500000Y-116967500D03*
D13*
%TO.P,CLUTCH1,2,Pin_2*%
%TO.N,/CLUTCH*%
X159000000Y-116967500D03*
%TO.P,CLUTCH1,3,Pin_3*%
%TO.N,GNDREF*%
X156500000Y-116967500D03*
%TD*%
D14*
%TO.P,DATA1,1*%
%TO.N,GNDREF*%
X142440000Y-83125000D03*
D15*
%TO.P,DATA1,2*%
%TO.N,/MOSI*%
X143456000Y-84905000D03*
%TO.P,DATA1,3*%
%TO.N,/BOOT*%
X144472000Y-83125000D03*
%TO.P,DATA1,4*%
%TO.N,/MISO*%
X145488000Y-84905000D03*
%TO.P,DATA1,5*%
%TO.N,/CS_PROGRAM*%
X146504000Y-83125000D03*
%TO.P,DATA1,6*%
%TO.N,/CS_PDL*%
X147520000Y-84905000D03*
%TO.P,DATA1,7*%
%TO.N,+5V*%
X148536000Y-83125000D03*
%TO.P,DATA1,8*%
%TO.N,/SCKL*%
X149552000Y-84905000D03*
%TO.P,DATA1,9*%
%TO.N,unconnected-(DATA1-Pad9)*%
X139140000Y-89725000D03*
%TO.P,DATA1,10*%
%TO.N,unconnected-(DATA1-Pad10)*%
X141430000Y-89725000D03*
%TO.P,DATA1,11*%
%TO.N,unconnected-(DATA1-Pad11)*%
X150570000Y-89725000D03*
%TO.P,DATA1,12*%
%TO.N,unconnected-(DATA1-Pad12)*%
X152860000Y-89725000D03*
D16*
%TO.P,DATA1,SH*%
%TO.N,GNDREF*%
X137870000Y-84015000D03*
X154130000Y-84015000D03*
%TD*%
D12*
%TO.P,ACCEL1,1,Pin_1*%
%TO.N,+3.3V*%
X136500000Y-116967500D03*
D13*
%TO.P,ACCEL1,2,Pin_2*%
%TO.N,/ACCEL*%
X134000000Y-116967500D03*
%TO.P,ACCEL1,3,Pin_3*%
%TO.N,GNDREF*%
X131500000Y-116967500D03*
%TD*%
D17*
%TO.P,ST-LINK1,1,Pin_1*%
%TO.N,GNDREF*%
X163800000Y-95300000D03*
D18*
%TO.P,ST-LINK1,2,Pin_2*%
%TO.N,/SWCLK*%
X163800000Y-92760000D03*
%TO.P,ST-LINK1,3,Pin_3*%
%TO.N,/SWDIO*%
X163800000Y-90220000D03*
%TO.P,ST-LINK1,4,Pin_4*%
%TO.N,/NRST*%
X163800000Y-87680000D03*
%TO.P,ST-LINK1,5,Pin_5*%
%TO.N,+3.3V*%
X163800000Y-85140000D03*
%TD*%
D19*
%TO.P,C4,1*%
%TO.N,+5V*%
X149962500Y-99000000D03*
%TO.P,C4,2*%
%TO.N,GNDREF*%
X152037500Y-99000000D03*
%TD*%
%TO.P,C5,1*%
%TO.N,+3.3V*%
X149962500Y-96500000D03*
%TO.P,C5,2*%
%TO.N,GNDREF*%
X152037500Y-96500000D03*
%TD*%
D20*
%TO.P,U2,1,GND*%
%TO.N,GNDREF*%
X146650000Y-94200000D03*
%TO.P,U2,2,VO*%
%TO.N,+3.3V*%
X146650000Y-96500000D03*
D21*
X140350000Y-96500000D03*
D20*
%TO.P,U2,3,VI*%
%TO.N,+5V*%
X146650000Y-98800000D03*
%TD*%
D22*
%TO.N,/CS_PROGRAM*%
X137500000Y-109250000D03*
X158500000Y-109250000D03*
%TO.N,/NRST*%
X153750000Y-107750000D03*
X145250000Y-102250000D03*
%TO.N,/SWCLK*%
X147250000Y-101250000D03*
%TO.N,/SWDIO*%
X148750000Y-101500000D03*
%TO.N,+3.3V*%
X135250000Y-101500000D03*
X138750000Y-101500000D03*
X128000000Y-84500000D03*
X167950000Y-96500000D03*
%TO.N,GNDREF*%
X148500000Y-94000000D03*
X152000000Y-95000000D03*
X153750000Y-97750000D03*
X148500000Y-95000000D03*
%TO.N,/MISO*%
X151750000Y-107500000D03*
X147000000Y-105750000D03*
%TO.N,/CS_PDL*%
X145750000Y-105750000D03*
%TO.N,/SCKL*%
X145000000Y-103250000D03*
X154750000Y-105750000D03*
%TD*%
D23*
%TO.N,/CS_PROGRAM*%
X137750000Y-109250000D02*
X137500000Y-109500000D01*
X158500000Y-109250000D02*
X137750000Y-109250000D01*
%TO.N,/NRST*%
X148000000Y-104250000D02*
X154750000Y-104250000D01*
X155750000Y-106250000D02*
X156250000Y-106750000D01*
X153750000Y-108500000D02*
X153750000Y-107750000D01*
X156250000Y-106750000D02*
X156250000Y-108250000D01*
X155750000Y-105250000D02*
X155750000Y-106250000D01*
X146000000Y-102250000D02*
X148000000Y-104250000D01*
X156250000Y-108250000D02*
X155750000Y-108750000D01*
X145250000Y-102250000D02*
X146000000Y-102250000D01*
X155750000Y-108750000D02*
X154000000Y-108750000D01*
X154000000Y-108750000D02*
X153750000Y-108500000D01*
X154750000Y-104250000D02*
X155750000Y-105250000D01*
%TO.N,/SWCLK*%
X153750000Y-102750000D02*
X156500000Y-100000000D01*
X147250000Y-101250000D02*
X147250000Y-101750000D01*
X147250000Y-101750000D02*
X148250000Y-102750000D01*
X148250000Y-102750000D02*
X153750000Y-102750000D01*
X156500000Y-97750000D02*
X161215000Y-93035000D01*
X161215000Y-93035000D02*
X163750000Y-93035000D01*
X156500000Y-100000000D02*
X156500000Y-97750000D01*
%TO.N,/SWDIO*%
X163750000Y-90495000D02*
X162755000Y-90495000D01*
X162755000Y-90495000D02*
X156000000Y-97250000D01*
X156000000Y-99500000D02*
X153500000Y-102000000D01*
X150750000Y-102000000D02*
X153250000Y-102000000D01*
X148750000Y-101500000D02*
X150250000Y-101500000D01*
X153250000Y-102000000D02*
X153500000Y-102000000D01*
X156000000Y-97250000D02*
X156000000Y-99500000D01*
X150250000Y-101500000D02*
X150750000Y-102000000D01*
%TO.N,+3.3V*%
X149962500Y-96500000D02*
X146650000Y-96500000D01*
%TO.N,GNDREF*%
X148500000Y-94000000D02*
X146850000Y-94000000D01*
X146950000Y-94200000D02*
X147750000Y-95000000D01*
X146850000Y-94000000D02*
X147000000Y-94000000D01*
X152037500Y-99000000D02*
X152500000Y-99000000D01*
X152037500Y-96500000D02*
X152037500Y-95037500D01*
X152037500Y-95037500D02*
X152000000Y-95000000D01*
X147750000Y-95000000D02*
X148500000Y-95000000D01*
X146850000Y-94000000D02*
X146650000Y-94200000D01*
X146650000Y-94200000D02*
X146950000Y-94200000D01*
X152500000Y-99000000D02*
X153750000Y-97750000D01*
X147000000Y-94000000D02*
X146650000Y-94200000D01*
%TO.N,+5V*%
X153000000Y-101500000D02*
X151000000Y-101500000D01*
X155000000Y-89500000D02*
X155000000Y-99500000D01*
X149962500Y-100462500D02*
X149962500Y-99000000D01*
X148536000Y-83125000D02*
X151625000Y-83125000D01*
X149500000Y-99000000D02*
X146850000Y-99000000D01*
X146850000Y-99000000D02*
X146650000Y-98800000D01*
X155000000Y-99500000D02*
X153000000Y-101500000D01*
X151625000Y-83125000D02*
X152000000Y-83500000D01*
X152000000Y-83500000D02*
X152000000Y-86500000D01*
X152000000Y-86500000D02*
X155000000Y-89500000D01*
X151000000Y-101500000D02*
X149962500Y-100462500D01*
%TO.N,/MISO*%
X150250000Y-107500000D02*
X148500000Y-105750000D01*
X151750000Y-107500000D02*
X150250000Y-107500000D01*
X148500000Y-105750000D02*
X147000000Y-105750000D01*
%TO.N,/CS_PDL*%
X144250000Y-104250000D02*
X142000000Y-106500000D01*
X145750000Y-105000000D02*
X145000000Y-104250000D01*
X145750000Y-105750000D02*
X145750000Y-105000000D01*
X142750000Y-88000000D02*
X146500000Y-88000000D01*
X146500000Y-88000000D02*
X147520000Y-86980000D01*
X142000000Y-106500000D02*
X140000000Y-106500000D01*
X136750000Y-89750000D02*
X139250000Y-87250000D01*
X145000000Y-104250000D02*
X144250000Y-104250000D01*
X142000000Y-87250000D02*
X142750000Y-88000000D01*
X136750000Y-103250000D02*
X136750000Y-89750000D01*
X147520000Y-86980000D02*
X147520000Y-84905000D01*
X140000000Y-106500000D02*
X136750000Y-103250000D01*
X139250000Y-87250000D02*
X142000000Y-87250000D01*
%TO.N,/SCKL*%
X145000000Y-103250000D02*
X146000000Y-103250000D01*
X146000000Y-103250000D02*
X147750000Y-105000000D01*
X154000000Y-105000000D02*
X154750000Y-105750000D01*
X147750000Y-105000000D02*
X154000000Y-105000000D01*
%TD*%
%TA.AperFunction,Conductor*%
%TO.N,+3.3V*%
G36*
X161795285Y-72337636D02*
G01*
X162143615Y-72346270D01*
X162149808Y-72346576D01*
X162450949Y-72368982D01*
X162487953Y-72371735D01*
X162494138Y-72372349D01*
X162829366Y-72413990D01*
X162835479Y-72414902D01*
X163167295Y-72472800D01*
X163173319Y-72474005D01*
X163367185Y-72517718D01*
X163501138Y-72547923D01*
X163507115Y-72549425D01*
X163830377Y-72639132D01*
X163836261Y-72640921D01*
X163912038Y-72665993D01*
X164154365Y-72746171D01*
X164160151Y-72748243D01*
X164472615Y-72868830D01*
X164478256Y-72871166D01*
X164784530Y-73006871D01*
X164790012Y-73009462D01*
X164989493Y-73109757D01*
X165089411Y-73159994D01*
X165094839Y-73162891D01*
X165386823Y-73328022D01*
X165386837Y-73328030D01*
X165392113Y-73331186D01*
X165646558Y-73491997D01*
X165676178Y-73510717D01*
X165681317Y-73514144D01*
X165956875Y-73707827D01*
X165961853Y-73711512D01*
X166228341Y-73919111D01*
X166233145Y-73923047D01*
X166490031Y-74144354D01*
X166494632Y-74148521D01*
X166701264Y-74345158D01*
X166707969Y-74352245D01*
X166712076Y-74358754D01*
X166746385Y-74389054D01*
X166754236Y-74396619D01*
X166931941Y-74583358D01*
X166980575Y-74634464D01*
X166984751Y-74639075D01*
X167206060Y-74895964D01*
X167209973Y-74900740D01*
X167348458Y-75078507D01*
X167417585Y-75167243D01*
X167421270Y-75172221D01*
X167614949Y-75447776D01*
X167618376Y-75452915D01*
X167707140Y-75593362D01*
X167797897Y-75736964D01*
X167801057Y-75742246D01*
X167874259Y-75871681D01*
X167966207Y-76034262D01*
X167969104Y-76039690D01*
X168109495Y-76318918D01*
X168119613Y-76339043D01*
X168122238Y-76344595D01*
X168244783Y-76621171D01*
X168257919Y-76650819D01*
X168260268Y-76656489D01*
X168380857Y-76968955D01*
X168382911Y-76974689D01*
X168488181Y-77292859D01*
X168489962Y-77298717D01*
X168579672Y-77621990D01*
X168581174Y-77627967D01*
X168602756Y-77723682D01*
X168655083Y-77955744D01*
X168655086Y-77955758D01*
X168656294Y-77961798D01*
X168710480Y-78272340D01*
X168714192Y-78293613D01*
X168715105Y-78299732D01*
X168736001Y-78467955D01*
X168756745Y-78634955D01*
X168757359Y-78641138D01*
X168781726Y-78968634D01*
X168782518Y-78979281D01*
X168782825Y-78985491D01*
X168786593Y-79137511D01*
X168791377Y-79330557D01*
X168791414Y-79334448D01*
X168791342Y-79346216D01*
X168791021Y-79398818D01*
X168791405Y-79400162D01*
X168791497Y-79401507D01*
X168791497Y-100088650D01*
X168771495Y-100156771D01*
X168717839Y-100203264D01*
X168647565Y-100213368D01*
X168602499Y-100197770D01*
X168592056Y-100191741D01*
X168592053Y-100191740D01*
X168586331Y-100188436D01*
X168457828Y-100146683D01*
X168415981Y-100133086D01*
X168415980Y-100133086D01*
X168409702Y-100131046D01*
X168403139Y-100130356D01*
X168403138Y-100130356D01*
X168378942Y-100127813D01*
X168271306Y-100116500D01*
X168178694Y-100116500D01*
X168071058Y-100127813D01*
X168046862Y-100130356D01*
X168046861Y-100130356D01*
X168040298Y-100131046D01*
X168034020Y-100133086D01*
X168034019Y-100133086D01*
X167992172Y-100146683D01*
X167863669Y-100188436D01*
X167857947Y-100191739D01*
X167857946Y-100191740D01*
X167816893Y-100215442D01*
X167702831Y-100281296D01*
X167697924Y-100285714D01*
X167697923Y-100285715D01*
X167579262Y-100392558D01*
X167564815Y-100405566D01*
X167560934Y-100410908D01*
X167560932Y-100410910D01*
X167491634Y-100506291D01*
X167455652Y-100555816D01*
X167452968Y-100561844D01*
X167452967Y-100561846D01*
X167385644Y-100713056D01*
X167380113Y-100725479D01*
X167362695Y-100807427D01*
X167346264Y-100884729D01*
X167341500Y-100907140D01*
X167341500Y-101092860D01*
X167380113Y-101274521D01*
X167382797Y-101280550D01*
X167382798Y-101280552D01*
X167427613Y-101381206D01*
X167455652Y-101444183D01*
X167459532Y-101449524D01*
X167459533Y-101449525D01*
X167551455Y-101576045D01*
X167564815Y-101594434D01*
X167569725Y-101598855D01*
X167569726Y-101598856D01*
X167627935Y-101651267D01*
X167702831Y-101718704D01*
X167787772Y-101767745D01*
X167857945Y-101808259D01*
X167863669Y-101811564D01*
X167869955Y-101813606D01*
X167869954Y-101813606D01*
X168026661Y-101864523D01*
X168040298Y-101868954D01*
X168046861Y-101869644D01*
X168046862Y-101869644D01*
X168071058Y-101872187D01*
X168178694Y-101883500D01*
X168271306Y-101883500D01*
X168378942Y-101872187D01*
X168403138Y-101869644D01*
X168403139Y-101869644D01*
X168409702Y-101868954D01*
X168423340Y-101864523D01*
X168580046Y-101813606D01*
X168580045Y-101813606D01*
X168586331Y-101811564D01*
X168592053Y-101808260D01*
X168592056Y-101808259D01*
X168602499Y-101802230D01*
X168671495Y-101785493D01*
X168738586Y-101808715D01*
X168782472Y-101864523D01*
X168791497Y-101911350D01*
X168791497Y-107838650D01*
X168771495Y-107906771D01*
X168717839Y-107953264D01*
X168647565Y-107963368D01*
X168602499Y-107947770D01*
X168592056Y-107941741D01*
X168592053Y-107941740D01*
X168586331Y-107938436D01*
X168409702Y-107881046D01*
X168403139Y-107880356D01*
X168403138Y-107880356D01*
X168373861Y-107877279D01*
X168271306Y-107866500D01*
X168178694Y-107866500D01*
X168076139Y-107877279D01*
X168046862Y-107880356D01*
X168046861Y-107880356D01*
X168040298Y-107881046D01*
X167863669Y-107938436D01*
X167857947Y-107941739D01*
X167857946Y-107941740D01*
X167804551Y-107972568D01*
X167702831Y-108031296D01*
X167697924Y-108035714D01*
X167697923Y-108035715D01*
X167611888Y-108113181D01*
X167564815Y-108155566D01*
X167560934Y-108160908D01*
X167560932Y-108160910D01*
X167469363Y-108286944D01*
X167455652Y-108305816D01*
X167452968Y-108311844D01*
X167452967Y-108311846D01*
X167382798Y-108469448D01*
X167380113Y-108475479D01*
X167341500Y-108657140D01*
X167341500Y-108842860D01*
X167342872Y-108849313D01*
X167342872Y-108849317D01*
X167350399Y-108884729D01*
X167380113Y-109024521D01*
X167382797Y-109030550D01*
X167382798Y-109030552D01*
X167398864Y-109066635D01*
X167455652Y-109194183D01*
X167564815Y-109344434D01*
X167702831Y-109468704D01*
X167801086Y-109525432D01*
X167857945Y-109558259D01*
X167863669Y-109561564D01*
X167869955Y-109563606D01*
X167869954Y-109563606D01*
X168028963Y-109615271D01*
X168040298Y-109618954D01*
X168046861Y-109619644D01*
X168046862Y-109619644D01*
X168065054Y-109621556D01*
X168178694Y-109633500D01*
X168271306Y-109633500D01*
X168384946Y-109621556D01*
X168403138Y-109619644D01*
X168403139Y-109619644D01*
X168409702Y-109618954D01*
X168421038Y-109615271D01*
X168580046Y-109563606D01*
X168580045Y-109563606D01*
X168586331Y-109561564D01*
X168592053Y-109558260D01*
X168592056Y-109558259D01*
X168602499Y-109552230D01*
X168671495Y-109535493D01*
X168738586Y-109558715D01*
X168782472Y-109614523D01*
X168791497Y-109661350D01*
X168791497Y-119320500D01*
X168791495Y-119321238D01*
X168791489Y-119322262D01*
X168791452Y-119324633D01*
X168789460Y-119405031D01*
X168782825Y-119672698D01*
X168782518Y-119678908D01*
X168776284Y-119762695D01*
X168757359Y-120017053D01*
X168756745Y-120023236D01*
X168730930Y-120231060D01*
X168715104Y-120358462D01*
X168714191Y-120364582D01*
X168676985Y-120577816D01*
X168656297Y-120696378D01*
X168655089Y-120702419D01*
X168611392Y-120896212D01*
X168581170Y-121030242D01*
X168579668Y-121036219D01*
X168489962Y-121359477D01*
X168488172Y-121365364D01*
X168382923Y-121683465D01*
X168380851Y-121689251D01*
X168260267Y-122001707D01*
X168257922Y-122007367D01*
X168122239Y-122313593D01*
X168119632Y-122319110D01*
X167998026Y-122560977D01*
X167969099Y-122618512D01*
X167966202Y-122623940D01*
X167875809Y-122783773D01*
X167801070Y-122915925D01*
X167797910Y-122921208D01*
X167697984Y-123079317D01*
X167618361Y-123205301D01*
X167614934Y-123210439D01*
X167421271Y-123485972D01*
X167417606Y-123490924D01*
X167209959Y-123757472D01*
X167206071Y-123762218D01*
X166984758Y-124019113D01*
X166980601Y-124023704D01*
X166756873Y-124258805D01*
X166747853Y-124267389D01*
X166716173Y-124294687D01*
X166711290Y-124302221D01*
X166708571Y-124305337D01*
X166700486Y-124313779D01*
X166494632Y-124509676D01*
X166490031Y-124513842D01*
X166247868Y-124722464D01*
X166233151Y-124735143D01*
X166228345Y-124739081D01*
X165961838Y-124946694D01*
X165956860Y-124950379D01*
X165681326Y-125144044D01*
X165676187Y-125147471D01*
X165392122Y-125327002D01*
X165386833Y-125330166D01*
X165094828Y-125495309D01*
X165089400Y-125498206D01*
X164790047Y-125648715D01*
X164784503Y-125651336D01*
X164478246Y-125787031D01*
X164472603Y-125789368D01*
X164319160Y-125848585D01*
X164160167Y-125909944D01*
X164154382Y-125912016D01*
X163836233Y-126017282D01*
X163830367Y-126019065D01*
X163507105Y-126108772D01*
X163501128Y-126110274D01*
X163173335Y-126184185D01*
X163167279Y-126185396D01*
X163074214Y-126201635D01*
X162835465Y-126243294D01*
X162829369Y-126244203D01*
X162541812Y-126279922D01*
X162494140Y-126285844D01*
X162487957Y-126286458D01*
X162487944Y-126286459D01*
X162149798Y-126311618D01*
X162143605Y-126311924D01*
X161804093Y-126320339D01*
X161795276Y-126320558D01*
X161792154Y-126320597D01*
X131807840Y-126320597D01*
X131804718Y-126320558D01*
X131798475Y-126320403D01*
X131456379Y-126311923D01*
X131450186Y-126311617D01*
X131145064Y-126288916D01*
X131112044Y-126286459D01*
X131105861Y-126285845D01*
X131063259Y-126280553D01*
X130770623Y-126244202D01*
X130764515Y-126243291D01*
X130584858Y-126211944D01*
X130432706Y-126185395D01*
X130426649Y-126184184D01*
X130098864Y-126110273D01*
X130092891Y-126108772D01*
X129769620Y-126019063D01*
X129763766Y-126017283D01*
X129445613Y-125912016D01*
X129439851Y-125909953D01*
X129127393Y-125789367D01*
X129121723Y-125787018D01*
X128815490Y-125651333D01*
X128809938Y-125648709D01*
X128510603Y-125498209D01*
X128505175Y-125495312D01*
X128213161Y-125330164D01*
X128207879Y-125327004D01*
X127923799Y-125147462D01*
X127918665Y-125144039D01*
X127643130Y-124950373D01*
X127638152Y-124946688D01*
X127478330Y-124822184D01*
X127371636Y-124739067D01*
X127366847Y-124735143D01*
X127109991Y-124513861D01*
X127105391Y-124509697D01*
X126898731Y-124313033D01*
X126892029Y-124305947D01*
X126887924Y-124299442D01*
X126853621Y-124269146D01*
X126845769Y-124261581D01*
X126619417Y-124023723D01*
X126615254Y-124019126D01*
X126393939Y-123762233D01*
X126390026Y-123757457D01*
X126384294Y-123750098D01*
X126218368Y-123537104D01*
X126182413Y-123490949D01*
X126178728Y-123485971D01*
X125985054Y-123210424D01*
X125981627Y-123205285D01*
X125802100Y-122921227D01*
X125798936Y-122915938D01*
X125676812Y-122700000D01*
X127186540Y-122700000D01*
X127206359Y-123015020D01*
X127265505Y-123325072D01*
X127363044Y-123625266D01*
X127364731Y-123628852D01*
X127364733Y-123628856D01*
X127495750Y-123907283D01*
X127495754Y-123907290D01*
X127497438Y-123910869D01*
X127666568Y-124177375D01*
X127739501Y-124265535D01*
X127839583Y-124386513D01*
X127867767Y-124420582D01*
X127870657Y-124423296D01*
X127870658Y-124423297D01*
X127880371Y-124432418D01*
X128097860Y-124636654D01*
X128353221Y-124822184D01*
X128356690Y-124824091D01*
X128356693Y-124824093D01*
X128613652Y-124965358D01*
X128629821Y-124974247D01*
X128633490Y-124975700D01*
X128633495Y-124975702D01*
X128919628Y-125088990D01*
X128923298Y-125090443D01*
X129229025Y-125168940D01*
X129542179Y-125208500D01*
X129857821Y-125208500D01*
X130170975Y-125168940D01*
X130476702Y-125090443D01*
X130480372Y-125088990D01*
X130766505Y-124975702D01*
X130766510Y-124975700D01*
X130770179Y-124974247D01*
X130786348Y-124965358D01*
X131043307Y-124824093D01*
X131043310Y-124824091D01*
X131046779Y-124822184D01*
X131302140Y-124636654D01*
X131519629Y-124432418D01*
X131529342Y-124423297D01*
X131529343Y-124423296D01*
X131532233Y-124420582D01*
X131560418Y-124386513D01*
X131660499Y-124265535D01*
X131733432Y-124177375D01*
X131902562Y-123910869D01*
X131904246Y-123907290D01*
X131904250Y-123907283D01*
X132035267Y-123628856D01*
X132035269Y-123628852D01*
X132036956Y-123625266D01*
X132134495Y-123325072D01*
X132193641Y-123015020D01*
X132213460Y-122700000D01*
X160786540Y-122700000D01*
X160806359Y-123015020D01*
X160865505Y-123325072D01*
X160963044Y-123625266D01*
X160964731Y-123628852D01*
X160964733Y-123628856D01*
X161095750Y-123907283D01*
X161095754Y-123907290D01*
X161097438Y-123910869D01*
X161266568Y-124177375D01*
X161339501Y-124265535D01*
X161439583Y-124386513D01*
X161467767Y-124420582D01*
X161470657Y-124423296D01*
X161470658Y-124423297D01*
X161480371Y-124432418D01*
X161697860Y-124636654D01*
X161953221Y-124822184D01*
X161956690Y-124824091D01*
X161956693Y-124824093D01*
X162213652Y-124965358D01*
X162229821Y-124974247D01*
X162233490Y-124975700D01*
X162233495Y-124975702D01*
X162519628Y-125088990D01*
X162523298Y-125090443D01*
X162829025Y-125168940D01*
X163142179Y-125208500D01*
X163457821Y-125208500D01*
X163770975Y-125168940D01*
X164076702Y-125090443D01*
X164080372Y-125088990D01*
X164366505Y-124975702D01*
X164366510Y-124975700D01*
X164370179Y-124974247D01*
X164386348Y-124965358D01*
X164643307Y-124824093D01*
X164643310Y-124824091D01*
X164646779Y-124822184D01*
X164902140Y-124636654D01*
X165119629Y-124432418D01*
X165129342Y-124423297D01*
X165129343Y-124423296D01*
X165132233Y-124420582D01*
X165160418Y-124386513D01*
X165260499Y-124265535D01*
X165333432Y-124177375D01*
X165502562Y-123910869D01*
X165504246Y-123907290D01*
X165504250Y-123907283D01*
X165635267Y-123628856D01*
X165635269Y-123628852D01*
X165636956Y-123625266D01*
X165734495Y-123325072D01*
X165793641Y-123015020D01*
X165813460Y-122700000D01*
X165793641Y-122384980D01*
X165734495Y-122074928D01*
X165636956Y-121774734D01*
X165599895Y-121695975D01*
X165504250Y-121492717D01*
X165504246Y-121492710D01*
X165502562Y-121489131D01*
X165333432Y-121222625D01*
X165179223Y-121036219D01*
X165134758Y-120982470D01*
X165134757Y-120982469D01*
X165132233Y-120979418D01*
X164902140Y-120763346D01*
X164646779Y-120577816D01*
X164597647Y-120550805D01*
X164373648Y-120427660D01*
X164373647Y-120427659D01*
X164370179Y-120425753D01*
X164366510Y-120424300D01*
X164366505Y-120424298D01*
X164080372Y-120311010D01*
X164080371Y-120311010D01*
X164076702Y-120309557D01*
X163770975Y-120231060D01*
X163457821Y-120191500D01*
X163142179Y-120191500D01*
X162829025Y-120231060D01*
X162523298Y-120309557D01*
X162519629Y-120311010D01*
X162519628Y-120311010D01*
X162233495Y-120424298D01*
X162233490Y-120424300D01*
X162229821Y-120425753D01*
X162226353Y-120427659D01*
X162226352Y-120427660D01*
X162002354Y-120550805D01*
X161953221Y-120577816D01*
X161697860Y-120763346D01*
X161467767Y-120979418D01*
X161465243Y-120982469D01*
X161465242Y-120982470D01*
X161420777Y-121036219D01*
X161266568Y-121222625D01*
X161097438Y-121489131D01*
X161095754Y-121492710D01*
X161095750Y-121492717D01*
X161000105Y-121695975D01*
X160963044Y-121774734D01*
X160865505Y-122074928D01*
X160806359Y-122384980D01*
X160786540Y-122700000D01*
X132213460Y-122700000D01*
X132193641Y-122384980D01*
X132134495Y-122074928D01*
X132036956Y-121774734D01*
X131999895Y-121695975D01*
X131904250Y-121492717D01*
X131904246Y-121492710D01*
X131902562Y-121489131D01*
X131733432Y-121222625D01*
X131579223Y-121036219D01*
X131534758Y-120982470D01*
X131534757Y-120982469D01*
X131532233Y-120979418D01*
X131302140Y-120763346D01*
X131046779Y-120577816D01*
X130997647Y-120550805D01*
X130773648Y-120427660D01*
X130773647Y-120427659D01*
X130770179Y-120425753D01*
X130766510Y-120424300D01*
X130766505Y-120424298D01*
X130480372Y-120311010D01*
X130480371Y-120311010D01*
X130476702Y-120309557D01*
X130170975Y-120231060D01*
X129857821Y-120191500D01*
X129542179Y-120191500D01*
X129229025Y-120231060D01*
X128923298Y-120309557D01*
X128919629Y-120311010D01*
X128919628Y-120311010D01*
X128633495Y-120424298D01*
X128633490Y-120424300D01*
X128629821Y-120425753D01*
X128626353Y-120427659D01*
X128626352Y-120427660D01*
X128402354Y-120550805D01*
X128353221Y-120577816D01*
X128097860Y-120763346D01*
X127867767Y-120979418D01*
X127865243Y-120982469D01*
X127865242Y-120982470D01*
X127820777Y-121036219D01*
X127666568Y-121222625D01*
X127497438Y-121489131D01*
X127495754Y-121492710D01*
X127495750Y-121492717D01*
X127400105Y-121695975D01*
X127363044Y-121774734D01*
X127265505Y-122074928D01*
X127206359Y-122384980D01*
X127186540Y-122700000D01*
X125676812Y-122700000D01*
X125633796Y-122623940D01*
X125630899Y-122618512D01*
X125529265Y-122416369D01*
X125480376Y-122319131D01*
X125477758Y-122313593D01*
X125342076Y-122007367D01*
X125339725Y-122001691D01*
X125252136Y-121774734D01*
X125219143Y-121689244D01*
X125217074Y-121683465D01*
X125111819Y-121365343D01*
X125110034Y-121359472D01*
X125098929Y-121319452D01*
X125020325Y-121036202D01*
X125018824Y-121030228D01*
X124944913Y-120702435D01*
X124943702Y-120696378D01*
X124885807Y-120364582D01*
X124884893Y-120358456D01*
X124869191Y-120232045D01*
X124843253Y-120023236D01*
X124842639Y-120017056D01*
X124823714Y-119762695D01*
X124817479Y-119678895D01*
X124817172Y-119672685D01*
X124808540Y-119324382D01*
X124808501Y-119321260D01*
X124808501Y-117150390D01*
X130141500Y-117150390D01*
X130141725Y-117153039D01*
X130152872Y-117284409D01*
X130156080Y-117322220D01*
X130157418Y-117327375D01*
X130157419Y-117327381D01*
X130206827Y-117517741D01*
X130213999Y-117545372D01*
X130308688Y-117755575D01*
X130437441Y-117946819D01*
X130596576Y-118113635D01*
X130781542Y-118251254D01*
X130786293Y-118253670D01*
X130786297Y-118253672D01*
X130848704Y-118285401D01*
X130987051Y-118355740D01*
X130992145Y-118357322D01*
X130992148Y-118357323D01*
X131143928Y-118404452D01*
X131207227Y-118424107D01*
X131212516Y-118424808D01*
X131430489Y-118453698D01*
X131430494Y-118453698D01*
X131435774Y-118454398D01*
X131441103Y-118454198D01*
X131441105Y-118454198D01*
X131550966Y-118450073D01*
X131666158Y-118445749D01*
X131671468Y-118444635D01*
X131819738Y-118413525D01*
X131891791Y-118398407D01*
X131896750Y-118396449D01*
X131896752Y-118396448D01*
X132101256Y-118315685D01*
X132101258Y-118315684D01*
X132106221Y-118313724D01*
X132159780Y-118281224D01*
X132298757Y-118196890D01*
X132298756Y-118196890D01*
X132303317Y-118194123D01*
X132380946Y-118126760D01*
X132473412Y-118046523D01*
X132473414Y-118046521D01*
X132477445Y-118043023D01*
X132533654Y-117974471D01*
X132620240Y-117868873D01*
X132620244Y-117868867D01*
X132623624Y-117864745D01*
X132641552Y-117833250D01*
X132692632Y-117783945D01*
X132762262Y-117770083D01*
X132828333Y-117796066D01*
X132855573Y-117825216D01*
X132937441Y-117946819D01*
X133096576Y-118113635D01*
X133281542Y-118251254D01*
X133286293Y-118253670D01*
X133286297Y-118253672D01*
X133348704Y-118285401D01*
X133487051Y-118355740D01*
X133492145Y-118357322D01*
X133492148Y-118357323D01*
X133643928Y-118404452D01*
X133707227Y-118424107D01*
X133712516Y-118424808D01*
X133930489Y-118453698D01*
X133930494Y-118453698D01*
X133935774Y-118454398D01*
X133941103Y-118454198D01*
X133941105Y-118454198D01*
X134050966Y-118450073D01*
X134166158Y-118445749D01*
X134171468Y-118444635D01*
X134319738Y-118413525D01*
X134391791Y-118398407D01*
X134396750Y-118396449D01*
X134396752Y-118396448D01*
X134601256Y-118315685D01*
X134601258Y-118315684D01*
X134606221Y-118313724D01*
X134659780Y-118281224D01*
X134798757Y-118196890D01*
X134798756Y-118196890D01*
X134803317Y-118194123D01*
X134880946Y-118126760D01*
X134973412Y-118046523D01*
X134973414Y-118046521D01*
X134977445Y-118043023D01*
X135007006Y-118006971D01*
X135065666Y-117966976D01*
X135136636Y-117965045D01*
X135197384Y-118001790D01*
X135211584Y-118020559D01*
X135298063Y-118160307D01*
X135307099Y-118171708D01*
X135421829Y-118286239D01*
X135433240Y-118295251D01*
X135571243Y-118380316D01*
X135584424Y-118386463D01*
X135738710Y-118437638D01*
X135752086Y-118440505D01*
X135846438Y-118450172D01*
X135852854Y-118450500D01*
X136227885Y-118450500D01*
X136243124Y-118446025D01*
X136244329Y-118444635D01*
X136246000Y-118436952D01*
X136246000Y-118432384D01*
X136754000Y-118432384D01*
X136758475Y-118447623D01*
X136759865Y-118448828D01*
X136767548Y-118450499D01*
X137147095Y-118450499D01*
X137153614Y-118450162D01*
X137249206Y-118440243D01*
X137262600Y-118437351D01*
X137416784Y-118385912D01*
X137429962Y-118379739D01*
X137567807Y-118294437D01*
X137579208Y-118285401D01*
X137693739Y-118170671D01*
X137702751Y-118159260D01*
X137787816Y-118021257D01*
X137793963Y-118008076D01*
X137845138Y-117853790D01*
X137848005Y-117840414D01*
X137857672Y-117746062D01*
X137858000Y-117739646D01*
X137858000Y-117239615D01*
X137853525Y-117224376D01*
X137852135Y-117223171D01*
X137844452Y-117221500D01*
X136772115Y-117221500D01*
X136756876Y-117225975D01*
X136755671Y-117227365D01*
X136754000Y-117235048D01*
X136754000Y-118432384D01*
X136246000Y-118432384D01*
X136246000Y-117117890D01*
X142641500Y-117117890D01*
X142645426Y-117164156D01*
X142651829Y-117239615D01*
X142656080Y-117289720D01*
X142657418Y-117294875D01*
X142657419Y-117294881D01*
X142697077Y-117447675D01*
X142713999Y-117512872D01*
X142716191Y-117517738D01*
X142716192Y-117517741D01*
X142728639Y-117545372D01*
X142808688Y-117723075D01*
X142937441Y-117914319D01*
X142941120Y-117918176D01*
X142941122Y-117918178D01*
X142972126Y-117950678D01*
X143096576Y-118081135D01*
X143100854Y-118084318D01*
X143157898Y-118126760D01*
X143281542Y-118218754D01*
X143286293Y-118221170D01*
X143286297Y-118221172D01*
X143350352Y-118253739D01*
X143487051Y-118323240D01*
X143492145Y-118324822D01*
X143492148Y-118324823D01*
X143669006Y-118379739D01*
X143707227Y-118391607D01*
X143712516Y-118392308D01*
X143930489Y-118421198D01*
X143930494Y-118421198D01*
X143935774Y-118421898D01*
X143941103Y-118421698D01*
X143941105Y-118421698D01*
X144050966Y-118417573D01*
X144166158Y-118413249D01*
X144171468Y-118412135D01*
X144386572Y-118367002D01*
X144391791Y-118365907D01*
X144396750Y-118363949D01*
X144396752Y-118363948D01*
X144601256Y-118283185D01*
X144601258Y-118283184D01*
X144606221Y-118281224D01*
X144651626Y-118253672D01*
X144798757Y-118164390D01*
X144798756Y-118164390D01*
X144803317Y-118161623D01*
X144843493Y-118126760D01*
X144973412Y-118014023D01*
X144973414Y-118014021D01*
X144977445Y-118010523D01*
X145041383Y-117932545D01*
X145120240Y-117836373D01*
X145120244Y-117836367D01*
X145123624Y-117832245D01*
X145141552Y-117800750D01*
X145192632Y-117751445D01*
X145262262Y-117737583D01*
X145328333Y-117763566D01*
X145355573Y-117792716D01*
X145437441Y-117914319D01*
X145441120Y-117918176D01*
X145441122Y-117918178D01*
X145472126Y-117950678D01*
X145596576Y-118081135D01*
X145600854Y-118084318D01*
X145657898Y-118126760D01*
X145781542Y-118218754D01*
X145786293Y-118221170D01*
X145786297Y-118221172D01*
X145850352Y-118253739D01*
X145987051Y-118323240D01*
X145992145Y-118324822D01*
X145992148Y-118324823D01*
X146169006Y-118379739D01*
X146207227Y-118391607D01*
X146212516Y-118392308D01*
X146430489Y-118421198D01*
X146430494Y-118421198D01*
X146435774Y-118421898D01*
X146441103Y-118421698D01*
X146441105Y-118421698D01*
X146550966Y-118417573D01*
X146666158Y-118413249D01*
X146671468Y-118412135D01*
X146886572Y-118367002D01*
X146891791Y-118365907D01*
X146896750Y-118363949D01*
X146896752Y-118363948D01*
X147101256Y-118283185D01*
X147101258Y-118283184D01*
X147106221Y-118281224D01*
X147151626Y-118253672D01*
X147298757Y-118164390D01*
X147298756Y-118164390D01*
X147303317Y-118161623D01*
X147343493Y-118126760D01*
X147473412Y-118014023D01*
X147473414Y-118014021D01*
X147477445Y-118010523D01*
X147507006Y-117974471D01*
X147565666Y-117934476D01*
X147636636Y-117932545D01*
X147697384Y-117969290D01*
X147711584Y-117988059D01*
X147798063Y-118127807D01*
X147807099Y-118139208D01*
X147921829Y-118253739D01*
X147933240Y-118262751D01*
X148071243Y-118347816D01*
X148084424Y-118353963D01*
X148238710Y-118405138D01*
X148252086Y-118408005D01*
X148346438Y-118417672D01*
X148352854Y-118418000D01*
X148727885Y-118418000D01*
X148743124Y-118413525D01*
X148744329Y-118412135D01*
X148746000Y-118404452D01*
X148746000Y-118399884D01*
X149254000Y-118399884D01*
X149258475Y-118415123D01*
X149259865Y-118416328D01*
X149267548Y-118417999D01*
X149647095Y-118417999D01*
X149653614Y-118417662D01*
X149749206Y-118407743D01*
X149762600Y-118404851D01*
X149916784Y-118353412D01*
X149929962Y-118347239D01*
X150067807Y-118261937D01*
X150079208Y-118252901D01*
X150193739Y-118138171D01*
X150202751Y-118126760D01*
X150287816Y-117988757D01*
X150293963Y-117975576D01*
X150345138Y-117821290D01*
X150348005Y-117807914D01*
X150357672Y-117713562D01*
X150358000Y-117707146D01*
X150358000Y-117207115D01*
X150353525Y-117191876D01*
X150352135Y-117190671D01*
X150344452Y-117189000D01*
X149272115Y-117189000D01*
X149256876Y-117193475D01*
X149255671Y-117194865D01*
X149254000Y-117202548D01*
X149254000Y-118399884D01*
X148746000Y-118399884D01*
X148746000Y-117150390D01*
X155141500Y-117150390D01*
X155141725Y-117153039D01*
X155152872Y-117284409D01*
X155156080Y-117322220D01*
X155157418Y-117327375D01*
X155157419Y-117327381D01*
X155206827Y-117517741D01*
X155213999Y-117545372D01*
X155308688Y-117755575D01*
X155437441Y-117946819D01*
X155596576Y-118113635D01*
X155781542Y-118251254D01*
X155786293Y-118253670D01*
X155786297Y-118253672D01*
X155848704Y-118285401D01*
X155987051Y-118355740D01*
X155992145Y-118357322D01*
X155992148Y-118357323D01*
X156143928Y-118404452D01*
X156207227Y-118424107D01*
X156212516Y-118424808D01*
X156430489Y-118453698D01*
X156430494Y-118453698D01*
X156435774Y-118454398D01*
X156441103Y-118454198D01*
X156441105Y-118454198D01*
X156550966Y-118450073D01*
X156666158Y-118445749D01*
X156671468Y-118444635D01*
X156819738Y-118413525D01*
X156891791Y-118398407D01*
X156896750Y-118396449D01*
X156896752Y-118396448D01*
X157101256Y-118315685D01*
X157101258Y-118315684D01*
X157106221Y-118313724D01*
X157159780Y-118281224D01*
X157298757Y-118196890D01*
X157298756Y-118196890D01*
X157303317Y-118194123D01*
X157380946Y-118126760D01*
X157473412Y-118046523D01*
X157473414Y-118046521D01*
X157477445Y-118043023D01*
X157533654Y-117974471D01*
X157620240Y-117868873D01*
X157620244Y-117868867D01*
X157623624Y-117864745D01*
X157641552Y-117833250D01*
X157692632Y-117783945D01*
X157762262Y-117770083D01*
X157828333Y-117796066D01*
X157855573Y-117825216D01*
X157937441Y-117946819D01*
X158096576Y-118113635D01*
X158281542Y-118251254D01*
X158286293Y-118253670D01*
X158286297Y-118253672D01*
X158348704Y-118285401D01*
X158487051Y-118355740D01*
X158492145Y-118357322D01*
X158492148Y-118357323D01*
X158643928Y-118404452D01*
X158707227Y-118424107D01*
X158712516Y-118424808D01*
X158930489Y-118453698D01*
X158930494Y-118453698D01*
X158935774Y-118454398D01*
X158941103Y-118454198D01*
X158941105Y-118454198D01*
X159050966Y-118450073D01*
X159166158Y-118445749D01*
X159171468Y-118444635D01*
X159319738Y-118413525D01*
X159391791Y-118398407D01*
X159396750Y-118396449D01*
X159396752Y-118396448D01*
X159601256Y-118315685D01*
X159601258Y-118315684D01*
X159606221Y-118313724D01*
X159659780Y-118281224D01*
X159798757Y-118196890D01*
X159798756Y-118196890D01*
X159803317Y-118194123D01*
X159880946Y-118126760D01*
X159973412Y-118046523D01*
X159973414Y-118046521D01*
X159977445Y-118043023D01*
X160007006Y-118006971D01*
X160065666Y-117966976D01*
X160136636Y-117965045D01*
X160197384Y-118001790D01*
X160211584Y-118020559D01*
X160298063Y-118160307D01*
X160307099Y-118171708D01*
X160421829Y-118286239D01*
X160433240Y-118295251D01*
X160571243Y-118380316D01*
X160584424Y-118386463D01*
X160738710Y-118437638D01*
X160752086Y-118440505D01*
X160846438Y-118450172D01*
X160852854Y-118450500D01*
X161227885Y-118450500D01*
X161243124Y-118446025D01*
X161244329Y-118444635D01*
X161246000Y-118436952D01*
X161246000Y-118432384D01*
X161754000Y-118432384D01*
X161758475Y-118447623D01*
X161759865Y-118448828D01*
X161767548Y-118450499D01*
X162147095Y-118450499D01*
X162153614Y-118450162D01*
X162249206Y-118440243D01*
X162262600Y-118437351D01*
X162416784Y-118385912D01*
X162429962Y-118379739D01*
X162567807Y-118294437D01*
X162579208Y-118285401D01*
X162693739Y-118170671D01*
X162702751Y-118159260D01*
X162787816Y-118021257D01*
X162793963Y-118008076D01*
X162845138Y-117853790D01*
X162848005Y-117840414D01*
X162857672Y-117746062D01*
X162858000Y-117739646D01*
X162858000Y-117239615D01*
X162853525Y-117224376D01*
X162852135Y-117223171D01*
X162844452Y-117221500D01*
X161772115Y-117221500D01*
X161756876Y-117225975D01*
X161755671Y-117227365D01*
X161754000Y-117235048D01*
X161754000Y-118432384D01*
X161246000Y-118432384D01*
X161246000Y-116695385D01*
X161754000Y-116695385D01*
X161758475Y-116710624D01*
X161759865Y-116711829D01*
X161767548Y-116713500D01*
X162839884Y-116713500D01*
X162855123Y-116709025D01*
X162856328Y-116707635D01*
X162857999Y-116699952D01*
X162857999Y-116195405D01*
X162857662Y-116188886D01*
X162847743Y-116093294D01*
X162844851Y-116079900D01*
X162793412Y-115925716D01*
X162787239Y-115912538D01*
X162701937Y-115774693D01*
X162692901Y-115763292D01*
X162578171Y-115648761D01*
X162566760Y-115639749D01*
X162428757Y-115554684D01*
X162415576Y-115548537D01*
X162261290Y-115497362D01*
X162247914Y-115494495D01*
X162153562Y-115484828D01*
X162147145Y-115484500D01*
X161772115Y-115484500D01*
X161756876Y-115488975D01*
X161755671Y-115490365D01*
X161754000Y-115498048D01*
X161754000Y-116695385D01*
X161246000Y-116695385D01*
X161246000Y-115502616D01*
X161241525Y-115487377D01*
X161240135Y-115486172D01*
X161232452Y-115484501D01*
X160852905Y-115484501D01*
X160846386Y-115484838D01*
X160750794Y-115494757D01*
X160737400Y-115497649D01*
X160583216Y-115549088D01*
X160570038Y-115555261D01*
X160432193Y-115640563D01*
X160420792Y-115649599D01*
X160306261Y-115764329D01*
X160297247Y-115775743D01*
X160211277Y-115915213D01*
X160158505Y-115962707D01*
X160088434Y-115974131D01*
X160023310Y-115945857D01*
X160012847Y-115936070D01*
X159992951Y-115915213D01*
X159903424Y-115821365D01*
X159855465Y-115785682D01*
X159722740Y-115686932D01*
X159722741Y-115686932D01*
X159718458Y-115683746D01*
X159713707Y-115681330D01*
X159713703Y-115681328D01*
X159587373Y-115617099D01*
X159512949Y-115579260D01*
X159507855Y-115577678D01*
X159507852Y-115577677D01*
X159297871Y-115512476D01*
X159292773Y-115510893D01*
X159287484Y-115510192D01*
X159069511Y-115481302D01*
X159069506Y-115481302D01*
X159064226Y-115480602D01*
X159058897Y-115480802D01*
X159058895Y-115480802D01*
X158960368Y-115484501D01*
X158833842Y-115489251D01*
X158828623Y-115490346D01*
X158808849Y-115494495D01*
X158608209Y-115536593D01*
X158603250Y-115538551D01*
X158603248Y-115538552D01*
X158398744Y-115619315D01*
X158398742Y-115619316D01*
X158393779Y-115621276D01*
X158389220Y-115624043D01*
X158389217Y-115624044D01*
X158290832Y-115683746D01*
X158196683Y-115740877D01*
X158192653Y-115744374D01*
X158033231Y-115882713D01*
X158022555Y-115891977D01*
X158003503Y-115915213D01*
X157879760Y-116066127D01*
X157879756Y-116066133D01*
X157876376Y-116070255D01*
X157858448Y-116101750D01*
X157807368Y-116151055D01*
X157737738Y-116164917D01*
X157671667Y-116138934D01*
X157644427Y-116109784D01*
X157617814Y-116070255D01*
X157562559Y-115988181D01*
X157531556Y-115955681D01*
X157407103Y-115825222D01*
X157403424Y-115821365D01*
X157355465Y-115785682D01*
X157222740Y-115686932D01*
X157222741Y-115686932D01*
X157218458Y-115683746D01*
X157213707Y-115681330D01*
X157213703Y-115681328D01*
X157087373Y-115617099D01*
X157012949Y-115579260D01*
X157007855Y-115577678D01*
X157007852Y-115577677D01*
X156797871Y-115512476D01*
X156792773Y-115510893D01*
X156787484Y-115510192D01*
X156569511Y-115481302D01*
X156569506Y-115481302D01*
X156564226Y-115480602D01*
X156558897Y-115480802D01*
X156558895Y-115480802D01*
X156460368Y-115484501D01*
X156333842Y-115489251D01*
X156328623Y-115490346D01*
X156308849Y-115494495D01*
X156108209Y-115536593D01*
X156103250Y-115538551D01*
X156103248Y-115538552D01*
X155898744Y-115619315D01*
X155898742Y-115619316D01*
X155893779Y-115621276D01*
X155889220Y-115624043D01*
X155889217Y-115624044D01*
X155790832Y-115683746D01*
X155696683Y-115740877D01*
X155692653Y-115744374D01*
X155533231Y-115882713D01*
X155522555Y-115891977D01*
X155503503Y-115915213D01*
X155379760Y-116066127D01*
X155379756Y-116066133D01*
X155376376Y-116070255D01*
X155373738Y-116074890D01*
X155373735Y-116074894D01*
X155322491Y-116164917D01*
X155262325Y-116270614D01*
X155183663Y-116487325D01*
X155182714Y-116492574D01*
X155182713Y-116492577D01*
X155143377Y-116710108D01*
X155143376Y-116710115D01*
X155142639Y-116714192D01*
X155141500Y-116738344D01*
X155141500Y-117150390D01*
X148746000Y-117150390D01*
X148746000Y-116662885D01*
X149254000Y-116662885D01*
X149258475Y-116678124D01*
X149259865Y-116679329D01*
X149267548Y-116681000D01*
X150339884Y-116681000D01*
X150355123Y-116676525D01*
X150356328Y-116675135D01*
X150357999Y-116667452D01*
X150357999Y-116162905D01*
X150357662Y-116156386D01*
X150347743Y-116060794D01*
X150344851Y-116047400D01*
X150293412Y-115893216D01*
X150287239Y-115880038D01*
X150201937Y-115742193D01*
X150192901Y-115730792D01*
X150078171Y-115616261D01*
X150066760Y-115607249D01*
X149928757Y-115522184D01*
X149915576Y-115516037D01*
X149761290Y-115464862D01*
X149747914Y-115461995D01*
X149653562Y-115452328D01*
X149647145Y-115452000D01*
X149272115Y-115452000D01*
X149256876Y-115456475D01*
X149255671Y-115457865D01*
X149254000Y-115465548D01*
X149254000Y-116662885D01*
X148746000Y-116662885D01*
X148746000Y-115470116D01*
X148741525Y-115454877D01*
X148740135Y-115453672D01*
X148732452Y-115452001D01*
X148352905Y-115452001D01*
X148346386Y-115452338D01*
X148250794Y-115462257D01*
X148237400Y-115465149D01*
X148083216Y-115516588D01*
X148070038Y-115522761D01*
X147932193Y-115608063D01*
X147920792Y-115617099D01*
X147806261Y-115731829D01*
X147797247Y-115743243D01*
X147711277Y-115882713D01*
X147658505Y-115930207D01*
X147588434Y-115941631D01*
X147523310Y-115913357D01*
X147512847Y-115903570D01*
X147492951Y-115882713D01*
X147403424Y-115788865D01*
X147385788Y-115775743D01*
X147291526Y-115705610D01*
X147218458Y-115651246D01*
X147213707Y-115648830D01*
X147213703Y-115648828D01*
X147091731Y-115586815D01*
X147012949Y-115546760D01*
X147007855Y-115545178D01*
X147007852Y-115545177D01*
X146797871Y-115479976D01*
X146792773Y-115478393D01*
X146787484Y-115477692D01*
X146569511Y-115448802D01*
X146569506Y-115448802D01*
X146564226Y-115448102D01*
X146558897Y-115448302D01*
X146558895Y-115448302D01*
X146460368Y-115452001D01*
X146333842Y-115456751D01*
X146328623Y-115457846D01*
X146308849Y-115461995D01*
X146108209Y-115504093D01*
X146103250Y-115506051D01*
X146103248Y-115506052D01*
X145898744Y-115586815D01*
X145898742Y-115586816D01*
X145893779Y-115588776D01*
X145889220Y-115591543D01*
X145889217Y-115591544D01*
X145793546Y-115649599D01*
X145696683Y-115708377D01*
X145692653Y-115711874D01*
X145562031Y-115825222D01*
X145522555Y-115859477D01*
X145495907Y-115891977D01*
X145379760Y-116033627D01*
X145379756Y-116033633D01*
X145376376Y-116037755D01*
X145358448Y-116069250D01*
X145307368Y-116118555D01*
X145237738Y-116132417D01*
X145171667Y-116106434D01*
X145144427Y-116077284D01*
X145115035Y-116033627D01*
X145062559Y-115955681D01*
X145053188Y-115945857D01*
X144938107Y-115825222D01*
X144903424Y-115788865D01*
X144885788Y-115775743D01*
X144791526Y-115705610D01*
X144718458Y-115651246D01*
X144713707Y-115648830D01*
X144713703Y-115648828D01*
X144591731Y-115586815D01*
X144512949Y-115546760D01*
X144507855Y-115545178D01*
X144507852Y-115545177D01*
X144297871Y-115479976D01*
X144292773Y-115478393D01*
X144287484Y-115477692D01*
X144069511Y-115448802D01*
X144069506Y-115448802D01*
X144064226Y-115448102D01*
X144058897Y-115448302D01*
X144058895Y-115448302D01*
X143960368Y-115452001D01*
X143833842Y-115456751D01*
X143828623Y-115457846D01*
X143808849Y-115461995D01*
X143608209Y-115504093D01*
X143603250Y-115506051D01*
X143603248Y-115506052D01*
X143398744Y-115586815D01*
X143398742Y-115586816D01*
X143393779Y-115588776D01*
X143389220Y-115591543D01*
X143389217Y-115591544D01*
X143293546Y-115649599D01*
X143196683Y-115708377D01*
X143192653Y-115711874D01*
X143062031Y-115825222D01*
X143022555Y-115859477D01*
X142995907Y-115891977D01*
X142879760Y-116033627D01*
X142879756Y-116033633D01*
X142876376Y-116037755D01*
X142873738Y-116042390D01*
X142873735Y-116042394D01*
X142814233Y-116146925D01*
X142762325Y-116238114D01*
X142683663Y-116454825D01*
X142682714Y-116460074D01*
X142682713Y-116460077D01*
X142643377Y-116677608D01*
X142643376Y-116677615D01*
X142642639Y-116681692D01*
X142641500Y-116705844D01*
X142641500Y-117117890D01*
X136246000Y-117117890D01*
X136246000Y-116695385D01*
X136754000Y-116695385D01*
X136758475Y-116710624D01*
X136759865Y-116711829D01*
X136767548Y-116713500D01*
X137839884Y-116713500D01*
X137855123Y-116709025D01*
X137856328Y-116707635D01*
X137857999Y-116699952D01*
X137857999Y-116195405D01*
X137857662Y-116188886D01*
X137847743Y-116093294D01*
X137844851Y-116079900D01*
X137793412Y-115925716D01*
X137787239Y-115912538D01*
X137701937Y-115774693D01*
X137692901Y-115763292D01*
X137578171Y-115648761D01*
X137566760Y-115639749D01*
X137428757Y-115554684D01*
X137415576Y-115548537D01*
X137261290Y-115497362D01*
X137247914Y-115494495D01*
X137153562Y-115484828D01*
X137147145Y-115484500D01*
X136772115Y-115484500D01*
X136756876Y-115488975D01*
X136755671Y-115490365D01*
X136754000Y-115498048D01*
X136754000Y-116695385D01*
X136246000Y-116695385D01*
X136246000Y-115502616D01*
X136241525Y-115487377D01*
X136240135Y-115486172D01*
X136232452Y-115484501D01*
X135852905Y-115484501D01*
X135846386Y-115484838D01*
X135750794Y-115494757D01*
X135737400Y-115497649D01*
X135583216Y-115549088D01*
X135570038Y-115555261D01*
X135432193Y-115640563D01*
X135420792Y-115649599D01*
X135306261Y-115764329D01*
X135297247Y-115775743D01*
X135211277Y-115915213D01*
X135158505Y-115962707D01*
X135088434Y-115974131D01*
X135023310Y-115945857D01*
X135012847Y-115936070D01*
X134992951Y-115915213D01*
X134903424Y-115821365D01*
X134855465Y-115785682D01*
X134722740Y-115686932D01*
X134722741Y-115686932D01*
X134718458Y-115683746D01*
X134713707Y-115681330D01*
X134713703Y-115681328D01*
X134587373Y-115617099D01*
X134512949Y-115579260D01*
X134507855Y-115577678D01*
X134507852Y-115577677D01*
X134297871Y-115512476D01*
X134292773Y-115510893D01*
X134287484Y-115510192D01*
X134069511Y-115481302D01*
X134069506Y-115481302D01*
X134064226Y-115480602D01*
X134058897Y-115480802D01*
X134058895Y-115480802D01*
X133960368Y-115484501D01*
X133833842Y-115489251D01*
X133828623Y-115490346D01*
X133808849Y-115494495D01*
X133608209Y-115536593D01*
X133603250Y-115538551D01*
X133603248Y-115538552D01*
X133398744Y-115619315D01*
X133398742Y-115619316D01*
X133393779Y-115621276D01*
X133389220Y-115624043D01*
X133389217Y-115624044D01*
X133290832Y-115683746D01*
X133196683Y-115740877D01*
X133192653Y-115744374D01*
X133033231Y-115882713D01*
X133022555Y-115891977D01*
X133003503Y-115915213D01*
X132879760Y-116066127D01*
X132879756Y-116066133D01*
X132876376Y-116070255D01*
X132858448Y-116101750D01*
X132807368Y-116151055D01*
X132737738Y-116164917D01*
X132671667Y-116138934D01*
X132644427Y-116109784D01*
X132617814Y-116070255D01*
X132562559Y-115988181D01*
X132531556Y-115955681D01*
X132407103Y-115825222D01*
X132403424Y-115821365D01*
X132355465Y-115785682D01*
X132222740Y-115686932D01*
X132222741Y-115686932D01*
X132218458Y-115683746D01*
X132213707Y-115681330D01*
X132213703Y-115681328D01*
X132087373Y-115617099D01*
X132012949Y-115579260D01*
X132007855Y-115577678D01*
X132007852Y-115577677D01*
X131797871Y-115512476D01*
X131792773Y-115510893D01*
X131787484Y-115510192D01*
X131569511Y-115481302D01*
X131569506Y-115481302D01*
X131564226Y-115480602D01*
X131558897Y-115480802D01*
X131558895Y-115480802D01*
X131460368Y-115484501D01*
X131333842Y-115489251D01*
X131328623Y-115490346D01*
X131308849Y-115494495D01*
X131108209Y-115536593D01*
X131103250Y-115538551D01*
X131103248Y-115538552D01*
X130898744Y-115619315D01*
X130898742Y-115619316D01*
X130893779Y-115621276D01*
X130889220Y-115624043D01*
X130889217Y-115624044D01*
X130790832Y-115683746D01*
X130696683Y-115740877D01*
X130692653Y-115744374D01*
X130533231Y-115882713D01*
X130522555Y-115891977D01*
X130503503Y-115915213D01*
X130379760Y-116066127D01*
X130379756Y-116066133D01*
X130376376Y-116070255D01*
X130373738Y-116074890D01*
X130373735Y-116074894D01*
X130322491Y-116164917D01*
X130262325Y-116270614D01*
X130183663Y-116487325D01*
X130182714Y-116492574D01*
X130182713Y-116492577D01*
X130143377Y-116710108D01*
X130143376Y-116710115D01*
X130142639Y-116714192D01*
X130141500Y-116738344D01*
X130141500Y-117150390D01*
X124808501Y-117150390D01*
X124808501Y-89729943D01*
X136111780Y-89729943D01*
X136114849Y-89762404D01*
X136115941Y-89773961D01*
X136116500Y-89785819D01*
X136116500Y-103171233D01*
X136115973Y-103182416D01*
X136114298Y-103189909D01*
X136114547Y-103197835D01*
X136114547Y-103197836D01*
X136116438Y-103257986D01*
X136116500Y-103261945D01*
X136116500Y-103289856D01*
X136116997Y-103293790D01*
X136116997Y-103293791D01*
X136117005Y-103293856D01*
X136117938Y-103305693D01*
X136119327Y-103349889D01*
X136124978Y-103369339D01*
X136128987Y-103388700D01*
X136131526Y-103408797D01*
X136134445Y-103416168D01*
X136134445Y-103416170D01*
X136147804Y-103449912D01*
X136151649Y-103461142D01*
X136160551Y-103491782D01*
X136163982Y-103503593D01*
X136168015Y-103510412D01*
X136168017Y-103510417D01*
X136174293Y-103521028D01*
X136182988Y-103538776D01*
X136190448Y-103557617D01*
X136195110Y-103564033D01*
X136195110Y-103564034D01*
X136216436Y-103593387D01*
X136222952Y-103603307D01*
X136238680Y-103629901D01*
X136245458Y-103641362D01*
X136259779Y-103655683D01*
X136272619Y-103670716D01*
X136284528Y-103687107D01*
X136315587Y-103712801D01*
X136318605Y-103715298D01*
X136327384Y-103723288D01*
X139496348Y-106892253D01*
X139503888Y-106900539D01*
X139508000Y-106907018D01*
X139513777Y-106912443D01*
X139557651Y-106953643D01*
X139560493Y-106956398D01*
X139580230Y-106976135D01*
X139583427Y-106978615D01*
X139592447Y-106986318D01*
X139624679Y-107016586D01*
X139631625Y-107020405D01*
X139631628Y-107020407D01*
X139642434Y-107026348D01*
X139658953Y-107037199D01*
X139674959Y-107049614D01*
X139682228Y-107052759D01*
X139682232Y-107052762D01*
X139715537Y-107067174D01*
X139726187Y-107072391D01*
X139764940Y-107093695D01*
X139772615Y-107095666D01*
X139772616Y-107095666D01*
X139784562Y-107098733D01*
X139803267Y-107105137D01*
X139821855Y-107113181D01*
X139829678Y-107114420D01*
X139829688Y-107114423D01*
X139865524Y-107120099D01*
X139877144Y-107122505D01*
X139908959Y-107130673D01*
X139919970Y-107133500D01*
X139940224Y-107133500D01*
X139959934Y-107135051D01*
X139979943Y-107138220D01*
X139987835Y-107137474D01*
X140006580Y-107135702D01*
X140023962Y-107134059D01*
X140035819Y-107133500D01*
X141921233Y-107133500D01*
X141932416Y-107134027D01*
X141939909Y-107135702D01*
X141947835Y-107135453D01*
X141947836Y-107135453D01*
X142007986Y-107133562D01*
X142011945Y-107133500D01*
X142039856Y-107133500D01*
X142043791Y-107133003D01*
X142043856Y-107132995D01*
X142055693Y-107132062D01*
X142087951Y-107131048D01*
X142091970Y-107130922D01*
X142099889Y-107130673D01*
X142119343Y-107125021D01*
X142138700Y-107121013D01*
X142150930Y-107119468D01*
X142150931Y-107119468D01*
X142158797Y-107118474D01*
X142166168Y-107115555D01*
X142166170Y-107115555D01*
X142199912Y-107102196D01*
X142211142Y-107098351D01*
X142245983Y-107088229D01*
X142245984Y-107088229D01*
X142253593Y-107086018D01*
X142260412Y-107081985D01*
X142260417Y-107081983D01*
X142271028Y-107075707D01*
X142288776Y-107067012D01*
X142307617Y-107059552D01*
X142343387Y-107033564D01*
X142353307Y-107027048D01*
X142384535Y-107008580D01*
X142384538Y-107008578D01*
X142391362Y-107004542D01*
X142405683Y-106990221D01*
X142420717Y-106977380D01*
X142430694Y-106970131D01*
X142437107Y-106965472D01*
X142465298Y-106931395D01*
X142473288Y-106922616D01*
X144475499Y-104920405D01*
X144537811Y-104886379D01*
X144564594Y-104883500D01*
X144685406Y-104883500D01*
X144753527Y-104903502D01*
X144774501Y-104920405D01*
X144963162Y-105109066D01*
X144997188Y-105171378D01*
X144992123Y-105242193D01*
X144983186Y-105261161D01*
X144918777Y-105372721D01*
X144915473Y-105378444D01*
X144856458Y-105560072D01*
X144855768Y-105566633D01*
X144855768Y-105566635D01*
X144838170Y-105734074D01*
X144836496Y-105750000D01*
X144856458Y-105939928D01*
X144915473Y-106121556D01*
X145010960Y-106286944D01*
X145015378Y-106291851D01*
X145015379Y-106291852D01*
X145097899Y-106383500D01*
X145138747Y-106428866D01*
X145293248Y-106541118D01*
X145299276Y-106543802D01*
X145299278Y-106543803D01*
X145461679Y-106616108D01*
X145467712Y-106618794D01*
X145561113Y-106638647D01*
X145648056Y-106657128D01*
X145648061Y-106657128D01*
X145654513Y-106658500D01*
X145845487Y-106658500D01*
X145851939Y-106657128D01*
X145851944Y-106657128D01*
X145938887Y-106638647D01*
X146032288Y-106618794D01*
X146038321Y-106616108D01*
X146200722Y-106543803D01*
X146200724Y-106543802D01*
X146206752Y-106541118D01*
X146277687Y-106489581D01*
X146300939Y-106472687D01*
X146367807Y-106448828D01*
X146436958Y-106464909D01*
X146449061Y-106472687D01*
X146472314Y-106489581D01*
X146543248Y-106541118D01*
X146549276Y-106543802D01*
X146549278Y-106543803D01*
X146711679Y-106616108D01*
X146717712Y-106618794D01*
X146811113Y-106638647D01*
X146898056Y-106657128D01*
X146898061Y-106657128D01*
X146904513Y-106658500D01*
X147095487Y-106658500D01*
X147101939Y-106657128D01*
X147101944Y-106657128D01*
X147188887Y-106638647D01*
X147282288Y-106618794D01*
X147288321Y-106616108D01*
X147450722Y-106543803D01*
X147450724Y-106543802D01*
X147456752Y-106541118D01*
X147611253Y-106428866D01*
X147615668Y-106423963D01*
X147620580Y-106419540D01*
X147621705Y-106420789D01*
X147675014Y-106387949D01*
X147708200Y-106383500D01*
X148185406Y-106383500D01*
X148253527Y-106403502D01*
X148274501Y-106420405D01*
X149746348Y-107892253D01*
X149753888Y-107900539D01*
X149758000Y-107907018D01*
X149763777Y-107912443D01*
X149807651Y-107953643D01*
X149810493Y-107956398D01*
X149830230Y-107976135D01*
X149833427Y-107978615D01*
X149842447Y-107986318D01*
X149874679Y-108016586D01*
X149881625Y-108020405D01*
X149881628Y-108020407D01*
X149892434Y-108026348D01*
X149908953Y-108037199D01*
X149924959Y-108049614D01*
X149932228Y-108052759D01*
X149932232Y-108052762D01*
X149965537Y-108067174D01*
X149976187Y-108072391D01*
X150014940Y-108093695D01*
X150022615Y-108095666D01*
X150022616Y-108095666D01*
X150034562Y-108098733D01*
X150053267Y-108105137D01*
X150071855Y-108113181D01*
X150079678Y-108114420D01*
X150079688Y-108114423D01*
X150115524Y-108120099D01*
X150127144Y-108122505D01*
X150162289Y-108131528D01*
X150169970Y-108133500D01*
X150190224Y-108133500D01*
X150209934Y-108135051D01*
X150229943Y-108138220D01*
X150237835Y-108137474D01*
X150273961Y-108134059D01*
X150285819Y-108133500D01*
X151041800Y-108133500D01*
X151109921Y-108153502D01*
X151129147Y-108169843D01*
X151129420Y-108169540D01*
X151134332Y-108173963D01*
X151138747Y-108178866D01*
X151293248Y-108291118D01*
X151299276Y-108293802D01*
X151299278Y-108293803D01*
X151339804Y-108311846D01*
X151467712Y-108368794D01*
X151474168Y-108370166D01*
X151475709Y-108370667D01*
X151534315Y-108410741D01*
X151561951Y-108476138D01*
X151549844Y-108546095D01*
X151501837Y-108598401D01*
X151436772Y-108616500D01*
X138208200Y-108616500D01*
X138140079Y-108596498D01*
X138120853Y-108580157D01*
X138120580Y-108580460D01*
X138115668Y-108576037D01*
X138111253Y-108571134D01*
X137956752Y-108458882D01*
X137950724Y-108456198D01*
X137950722Y-108456197D01*
X137788319Y-108383891D01*
X137788318Y-108383891D01*
X137782288Y-108381206D01*
X137688887Y-108361353D01*
X137601944Y-108342872D01*
X137601939Y-108342872D01*
X137595487Y-108341500D01*
X137404513Y-108341500D01*
X137398061Y-108342872D01*
X137398056Y-108342872D01*
X137311113Y-108361353D01*
X137217712Y-108381206D01*
X137211682Y-108383891D01*
X137211681Y-108383891D01*
X137049278Y-108456197D01*
X137049276Y-108456198D01*
X137043248Y-108458882D01*
X136888747Y-108571134D01*
X136884326Y-108576044D01*
X136884325Y-108576045D01*
X136805362Y-108663743D01*
X136760960Y-108713056D01*
X136757659Y-108718774D01*
X136682290Y-108849317D01*
X136665473Y-108878444D01*
X136606458Y-109060072D01*
X136605768Y-109066633D01*
X136605768Y-109066635D01*
X136592362Y-109194184D01*
X136586496Y-109250000D01*
X136606458Y-109439928D01*
X136665473Y-109621556D01*
X136760960Y-109786944D01*
X136888747Y-109928866D01*
X137043248Y-110041118D01*
X137049276Y-110043802D01*
X137049278Y-110043803D01*
X137211681Y-110116109D01*
X137217712Y-110118794D01*
X137311112Y-110138647D01*
X137398056Y-110157128D01*
X137398061Y-110157128D01*
X137404513Y-110158500D01*
X137595487Y-110158500D01*
X137601939Y-110157128D01*
X137601944Y-110157128D01*
X137688888Y-110138647D01*
X137782288Y-110118794D01*
X137788319Y-110116109D01*
X137950722Y-110043803D01*
X137950724Y-110043802D01*
X137956752Y-110041118D01*
X138111253Y-109928866D01*
X138115668Y-109923963D01*
X138120580Y-109919540D01*
X138121705Y-109920789D01*
X138175014Y-109887949D01*
X138208200Y-109883500D01*
X157791800Y-109883500D01*
X157859921Y-109903502D01*
X157879147Y-109919843D01*
X157879420Y-109919540D01*
X157884332Y-109923963D01*
X157888747Y-109928866D01*
X158043248Y-110041118D01*
X158049276Y-110043802D01*
X158049278Y-110043803D01*
X158211681Y-110116109D01*
X158217712Y-110118794D01*
X158311112Y-110138647D01*
X158398056Y-110157128D01*
X158398061Y-110157128D01*
X158404513Y-110158500D01*
X158595487Y-110158500D01*
X158601939Y-110157128D01*
X158601944Y-110157128D01*
X158688888Y-110138647D01*
X158782288Y-110118794D01*
X158788319Y-110116109D01*
X158950722Y-110043803D01*
X158950724Y-110043802D01*
X158956752Y-110041118D01*
X159111253Y-109928866D01*
X159239040Y-109786944D01*
X159334527Y-109621556D01*
X159393542Y-109439928D01*
X159413504Y-109250000D01*
X159407638Y-109194184D01*
X159394232Y-109066635D01*
X159394232Y-109066633D01*
X159393542Y-109060072D01*
X159334527Y-108878444D01*
X159317711Y-108849317D01*
X159313983Y-108842860D01*
X164591500Y-108842860D01*
X164592872Y-108849313D01*
X164592872Y-108849317D01*
X164600399Y-108884729D01*
X164630113Y-109024521D01*
X164632797Y-109030550D01*
X164632798Y-109030552D01*
X164648864Y-109066635D01*
X164705652Y-109194183D01*
X164814815Y-109344434D01*
X164952831Y-109468704D01*
X165051086Y-109525432D01*
X165107945Y-109558259D01*
X165113669Y-109561564D01*
X165119955Y-109563606D01*
X165119954Y-109563606D01*
X165278963Y-109615271D01*
X165290298Y-109618954D01*
X165296861Y-109619644D01*
X165296862Y-109619644D01*
X165315054Y-109621556D01*
X165428694Y-109633500D01*
X165521306Y-109633500D01*
X165634946Y-109621556D01*
X165653138Y-109619644D01*
X165653139Y-109619644D01*
X165659702Y-109618954D01*
X165671038Y-109615271D01*
X165830046Y-109563606D01*
X165830045Y-109563606D01*
X165836331Y-109561564D01*
X165842056Y-109558259D01*
X165898914Y-109525432D01*
X165997169Y-109468704D01*
X166135185Y-109344434D01*
X166203796Y-109250000D01*
X166240467Y-109199526D01*
X166240468Y-109199525D01*
X166244348Y-109194184D01*
X166319887Y-109024521D01*
X166349601Y-108884729D01*
X166357128Y-108849317D01*
X166357128Y-108849313D01*
X166358500Y-108842860D01*
X166358500Y-108657140D01*
X166319887Y-108475479D01*
X166317202Y-108469448D01*
X166247033Y-108311847D01*
X166247032Y-108311845D01*
X166244348Y-108305817D01*
X166240019Y-108299858D01*
X166139068Y-108160910D01*
X166139066Y-108160908D01*
X166135185Y-108155566D01*
X166088112Y-108113181D01*
X166002077Y-108035715D01*
X166002076Y-108035714D01*
X165997169Y-108031296D01*
X165895449Y-107972568D01*
X165842054Y-107941740D01*
X165842053Y-107941739D01*
X165836331Y-107938436D01*
X165659702Y-107881046D01*
X165653139Y-107880356D01*
X165653138Y-107880356D01*
X165623861Y-107877279D01*
X165521306Y-107866500D01*
X165428694Y-107866500D01*
X165326139Y-107877279D01*
X165296862Y-107880356D01*
X165296861Y-107880356D01*
X165290298Y-107881046D01*
X165113669Y-107938436D01*
X165107947Y-107941739D01*
X165107946Y-107941740D01*
X165054551Y-107972568D01*
X164952831Y-108031296D01*
X164947924Y-108035714D01*
X164947923Y-108035715D01*
X164861888Y-108113181D01*
X164814815Y-108155566D01*
X164810934Y-108160908D01*
X164810932Y-108160910D01*
X164719363Y-108286944D01*
X164705652Y-108305816D01*
X164702968Y-108311844D01*
X164702967Y-108311846D01*
X164632798Y-108469448D01*
X164630113Y-108475479D01*
X164591500Y-108657140D01*
X164591500Y-108842860D01*
X159313983Y-108842860D01*
X159242341Y-108718774D01*
X159239040Y-108713056D01*
X159194639Y-108663743D01*
X159115675Y-108576045D01*
X159115674Y-108576044D01*
X159111253Y-108571134D01*
X158956752Y-108458882D01*
X158950724Y-108456198D01*
X158950722Y-108456197D01*
X158788319Y-108383891D01*
X158788318Y-108383891D01*
X158782288Y-108381206D01*
X158688887Y-108361353D01*
X158601944Y-108342872D01*
X158601939Y-108342872D01*
X158595487Y-108341500D01*
X158404513Y-108341500D01*
X158398061Y-108342872D01*
X158398056Y-108342872D01*
X158311113Y-108361353D01*
X158217712Y-108381206D01*
X158211682Y-108383891D01*
X158211681Y-108383891D01*
X158049278Y-108456197D01*
X158049276Y-108456198D01*
X158043248Y-108458882D01*
X157888747Y-108571134D01*
X157884332Y-108576037D01*
X157879420Y-108580460D01*
X157878295Y-108579211D01*
X157824986Y-108612051D01*
X157791800Y-108616500D01*
X156973489Y-108616500D01*
X156905368Y-108596498D01*
X156858875Y-108542842D01*
X156848771Y-108472568D01*
X156857851Y-108440461D01*
X156860034Y-108435417D01*
X156863181Y-108428145D01*
X156864420Y-108420322D01*
X156864423Y-108420312D01*
X156870099Y-108384476D01*
X156872505Y-108372856D01*
X156881528Y-108337711D01*
X156881528Y-108337710D01*
X156883500Y-108330030D01*
X156883500Y-108309776D01*
X156885051Y-108290065D01*
X156886980Y-108277886D01*
X156888220Y-108270057D01*
X156884059Y-108226038D01*
X156883500Y-108214181D01*
X156883500Y-106828768D01*
X156884027Y-106817585D01*
X156885702Y-106810092D01*
X156883562Y-106742001D01*
X156883500Y-106738044D01*
X156883500Y-106710144D01*
X156882996Y-106706153D01*
X156882063Y-106694311D01*
X156881996Y-106692160D01*
X156880674Y-106650111D01*
X156878462Y-106642497D01*
X156878461Y-106642492D01*
X156875023Y-106630659D01*
X156871012Y-106611295D01*
X156869467Y-106599064D01*
X156868474Y-106591203D01*
X156865557Y-106583836D01*
X156865556Y-106583831D01*
X156852198Y-106550092D01*
X156848354Y-106538865D01*
X156838230Y-106504022D01*
X156836018Y-106496407D01*
X156825707Y-106478972D01*
X156817012Y-106461224D01*
X156809552Y-106442383D01*
X156799732Y-106428866D01*
X156783564Y-106406613D01*
X156777048Y-106396693D01*
X156758580Y-106365465D01*
X156758578Y-106365462D01*
X156754542Y-106358638D01*
X156740221Y-106344317D01*
X156727380Y-106329283D01*
X156720132Y-106319307D01*
X156715472Y-106312893D01*
X156681407Y-106284712D01*
X156672626Y-106276722D01*
X156420404Y-106024499D01*
X156386379Y-105962187D01*
X156383500Y-105935404D01*
X156383500Y-105328768D01*
X156384027Y-105317585D01*
X156385702Y-105310092D01*
X156383562Y-105242001D01*
X156383500Y-105238044D01*
X156383500Y-105210144D01*
X156382996Y-105206153D01*
X156382063Y-105194311D01*
X156381343Y-105171378D01*
X156380674Y-105150111D01*
X156375021Y-105130652D01*
X156371012Y-105111293D01*
X156370731Y-105109066D01*
X156368474Y-105091203D01*
X156365558Y-105083837D01*
X156365556Y-105083831D01*
X156352200Y-105050098D01*
X156348355Y-105038868D01*
X156338230Y-105004017D01*
X156338230Y-105004016D01*
X156336019Y-104996407D01*
X156325705Y-104978966D01*
X156317008Y-104961213D01*
X156312472Y-104949758D01*
X156309552Y-104942383D01*
X156283563Y-104906612D01*
X156277047Y-104896692D01*
X156269245Y-104883500D01*
X156254542Y-104858638D01*
X156240221Y-104844317D01*
X156227380Y-104829283D01*
X156220131Y-104819306D01*
X156215472Y-104812893D01*
X156209368Y-104807843D01*
X156209363Y-104807838D01*
X156181402Y-104784707D01*
X156172621Y-104776717D01*
X155253647Y-103857742D01*
X155246113Y-103849463D01*
X155242000Y-103842982D01*
X155192348Y-103796356D01*
X155189507Y-103793602D01*
X155169770Y-103773865D01*
X155166573Y-103771385D01*
X155157551Y-103763680D01*
X155153397Y-103759779D01*
X155125321Y-103733414D01*
X155118375Y-103729595D01*
X155118372Y-103729593D01*
X155107566Y-103723652D01*
X155091047Y-103712801D01*
X155090583Y-103712441D01*
X155075041Y-103700386D01*
X155067772Y-103697241D01*
X155067768Y-103697238D01*
X155034463Y-103682826D01*
X155023813Y-103677609D01*
X154985060Y-103656305D01*
X154965437Y-103651267D01*
X154946734Y-103644863D01*
X154935420Y-103639967D01*
X154935419Y-103639967D01*
X154928145Y-103636819D01*
X154920322Y-103635580D01*
X154920312Y-103635577D01*
X154884476Y-103629901D01*
X154872856Y-103627495D01*
X154837711Y-103618472D01*
X154837710Y-103618472D01*
X154830030Y-103616500D01*
X154809776Y-103616500D01*
X154790065Y-103614949D01*
X154777886Y-103613020D01*
X154770057Y-103611780D01*
X154762165Y-103612526D01*
X154726039Y-103615941D01*
X154714181Y-103616500D01*
X153936197Y-103616500D01*
X153868076Y-103596498D01*
X153821583Y-103542842D01*
X153811479Y-103472568D01*
X153840973Y-103407988D01*
X153903822Y-103369102D01*
X153908797Y-103368474D01*
X153916168Y-103365555D01*
X153916170Y-103365555D01*
X153949912Y-103352196D01*
X153961142Y-103348351D01*
X153995983Y-103338229D01*
X153995984Y-103338229D01*
X154003593Y-103336018D01*
X154010412Y-103331985D01*
X154010417Y-103331983D01*
X154021028Y-103325707D01*
X154038776Y-103317012D01*
X154057617Y-103309552D01*
X154079311Y-103293791D01*
X154093387Y-103283564D01*
X154103307Y-103277048D01*
X154134535Y-103258580D01*
X154134538Y-103258578D01*
X154141362Y-103254542D01*
X154155683Y-103240221D01*
X154170717Y-103227380D01*
X154180694Y-103220131D01*
X154187107Y-103215472D01*
X154215298Y-103181395D01*
X154223288Y-103172616D01*
X156303044Y-101092860D01*
X164591500Y-101092860D01*
X164630113Y-101274521D01*
X164632797Y-101280550D01*
X164632798Y-101280552D01*
X164677613Y-101381206D01*
X164705652Y-101444183D01*
X164709532Y-101449524D01*
X164709533Y-101449525D01*
X164801455Y-101576045D01*
X164814815Y-101594434D01*
X164819725Y-101598855D01*
X164819726Y-101598856D01*
X164877935Y-101651267D01*
X164952831Y-101718704D01*
X165037772Y-101767745D01*
X165107945Y-101808259D01*
X165113669Y-101811564D01*
X165119955Y-101813606D01*
X165119954Y-101813606D01*
X165276661Y-101864523D01*
X165290298Y-101868954D01*
X165296861Y-101869644D01*
X165296862Y-101869644D01*
X165321058Y-101872187D01*
X165428694Y-101883500D01*
X165521306Y-101883500D01*
X165628942Y-101872187D01*
X165653138Y-101869644D01*
X165653139Y-101869644D01*
X165659702Y-101868954D01*
X165673340Y-101864523D01*
X165830046Y-101813606D01*
X165830045Y-101813606D01*
X165836331Y-101811564D01*
X165842056Y-101808259D01*
X165912228Y-101767745D01*
X165997169Y-101718704D01*
X166072066Y-101651267D01*
X166130274Y-101598856D01*
X166130275Y-101598855D01*
X166135185Y-101594434D01*
X166148546Y-101576045D01*
X166240467Y-101449526D01*
X166240468Y-101449525D01*
X166244348Y-101444184D01*
X166319887Y-101274521D01*
X166358500Y-101092860D01*
X166358500Y-100907140D01*
X166353737Y-100884729D01*
X166337305Y-100807427D01*
X166319887Y-100725479D01*
X166314356Y-100713056D01*
X166247033Y-100561847D01*
X166247032Y-100561845D01*
X166244348Y-100555817D01*
X166208413Y-100506356D01*
X166139068Y-100410910D01*
X166139066Y-100410908D01*
X166135185Y-100405566D01*
X166120738Y-100392558D01*
X166002077Y-100285715D01*
X166002076Y-100285714D01*
X165997169Y-100281296D01*
X165883107Y-100215442D01*
X165842054Y-100191740D01*
X165842053Y-100191739D01*
X165836331Y-100188436D01*
X165707828Y-100146683D01*
X165665981Y-100133086D01*
X165665980Y-100133086D01*
X165659702Y-100131046D01*
X165653139Y-100130356D01*
X165653138Y-100130356D01*
X165628942Y-100127813D01*
X165521306Y-100116500D01*
X165428694Y-100116500D01*
X165321058Y-100127813D01*
X165296862Y-100130356D01*
X165296861Y-100130356D01*
X165290298Y-100131046D01*
X165284020Y-100133086D01*
X165284019Y-100133086D01*
X165242172Y-100146683D01*
X165113669Y-100188436D01*
X165107947Y-100191739D01*
X165107946Y-100191740D01*
X165066893Y-100215442D01*
X164952831Y-100281296D01*
X164947924Y-100285714D01*
X164947923Y-100285715D01*
X164829262Y-100392558D01*
X164814815Y-100405566D01*
X164810934Y-100410908D01*
X164810932Y-100410910D01*
X164741634Y-100506291D01*
X164705652Y-100555816D01*
X164702968Y-100561844D01*
X164702967Y-100561846D01*
X164635644Y-100713056D01*
X164630113Y-100725479D01*
X164612695Y-100807427D01*
X164596264Y-100884729D01*
X164591500Y-100907140D01*
X164591500Y-101092860D01*
X156303044Y-101092860D01*
X156892247Y-100503657D01*
X156900537Y-100496113D01*
X156907018Y-100492000D01*
X156953659Y-100442332D01*
X156956413Y-100439491D01*
X156976134Y-100419770D01*
X156978612Y-100416575D01*
X156986318Y-100407553D01*
X157008538Y-100383891D01*
X157016586Y-100375321D01*
X157026346Y-100357568D01*
X157037199Y-100341045D01*
X157044753Y-100331306D01*
X157049613Y-100325041D01*
X157067176Y-100284457D01*
X157072383Y-100273827D01*
X157093695Y-100235060D01*
X157095666Y-100227383D01*
X157095668Y-100227378D01*
X157098732Y-100215442D01*
X157105138Y-100196730D01*
X157107298Y-100191740D01*
X157113181Y-100178145D01*
X157114421Y-100170317D01*
X157114423Y-100170310D01*
X157120099Y-100134476D01*
X157122505Y-100122856D01*
X157131528Y-100087711D01*
X157131528Y-100087710D01*
X157133500Y-100080030D01*
X157133500Y-100059776D01*
X157135051Y-100040065D01*
X157136980Y-100027886D01*
X157138220Y-100020057D01*
X157134059Y-99976038D01*
X157133500Y-99964181D01*
X157133500Y-98064594D01*
X157153502Y-97996473D01*
X157170405Y-97975499D01*
X161440500Y-93705405D01*
X161502812Y-93671379D01*
X161529595Y-93668500D01*
X162732011Y-93668500D01*
X162800132Y-93688502D01*
X162827248Y-93712002D01*
X162842864Y-93730030D01*
X162842869Y-93730035D01*
X162846250Y-93733938D01*
X162850230Y-93737242D01*
X162854981Y-93741187D01*
X162894616Y-93800090D01*
X162896113Y-93871071D01*
X162858997Y-93931593D01*
X162818724Y-93956112D01*
X162703295Y-93999385D01*
X162586739Y-94086739D01*
X162499385Y-94203295D01*
X162448255Y-94339684D01*
X162441500Y-94401866D01*
X162441500Y-96198134D01*
X162448255Y-96260316D01*
X162499385Y-96396705D01*
X162586739Y-96513261D01*
X162703295Y-96600615D01*
X162839684Y-96651745D01*
X162901866Y-96658500D01*
X164698134Y-96658500D01*
X164760316Y-96651745D01*
X164896705Y-96600615D01*
X165013261Y-96513261D01*
X165100615Y-96396705D01*
X165151745Y-96260316D01*
X165158500Y-96198134D01*
X165158500Y-94401866D01*
X165151745Y-94339684D01*
X165100615Y-94203295D01*
X165013261Y-94086739D01*
X164896705Y-93999385D01*
X164880833Y-93993435D01*
X164778203Y-93954960D01*
X164721439Y-93912318D01*
X164696739Y-93845756D01*
X164711947Y-93776408D01*
X164733493Y-93747727D01*
X164834435Y-93647137D01*
X164838096Y-93643489D01*
X164968453Y-93462077D01*
X165025061Y-93347540D01*
X165065136Y-93266453D01*
X165065137Y-93266451D01*
X165067430Y-93261811D01*
X165132370Y-93048069D01*
X165161529Y-92826590D01*
X165163156Y-92760000D01*
X165144852Y-92537361D01*
X165090431Y-92320702D01*
X165001354Y-92115840D01*
X164880014Y-91928277D01*
X164729670Y-91763051D01*
X164725619Y-91759852D01*
X164725615Y-91759848D01*
X164558414Y-91627800D01*
X164558410Y-91627798D01*
X164554359Y-91624598D01*
X164513053Y-91601796D01*
X164463084Y-91551364D01*
X164448312Y-91481921D01*
X164473428Y-91415516D01*
X164500780Y-91388909D01*
X164544603Y-91357650D01*
X164679860Y-91261173D01*
X164699209Y-91241892D01*
X164834435Y-91107137D01*
X164838096Y-91103489D01*
X164935676Y-90967692D01*
X164965435Y-90926277D01*
X164968453Y-90922077D01*
X165067430Y-90721811D01*
X165132370Y-90508069D01*
X165161529Y-90286590D01*
X165161611Y-90283240D01*
X165163074Y-90223365D01*
X165163074Y-90223361D01*
X165163156Y-90220000D01*
X165144852Y-89997361D01*
X165090431Y-89780702D01*
X165001354Y-89575840D01*
X164926507Y-89460144D01*
X164882822Y-89392617D01*
X164882820Y-89392614D01*
X164880014Y-89388277D01*
X164729670Y-89223051D01*
X164725619Y-89219852D01*
X164725615Y-89219848D01*
X164558414Y-89087800D01*
X164558410Y-89087798D01*
X164554359Y-89084598D01*
X164513053Y-89061796D01*
X164463084Y-89011364D01*
X164448312Y-88941921D01*
X164473428Y-88875516D01*
X164500780Y-88848909D01*
X164544603Y-88817650D01*
X164679860Y-88721173D01*
X164838096Y-88563489D01*
X164875700Y-88511158D01*
X164965435Y-88386277D01*
X164968453Y-88382077D01*
X165067430Y-88181811D01*
X165132370Y-87968069D01*
X165161529Y-87746590D01*
X165163156Y-87680000D01*
X165144852Y-87457361D01*
X165090431Y-87240702D01*
X165001354Y-87035840D01*
X164949728Y-86956039D01*
X164882822Y-86852617D01*
X164882820Y-86852614D01*
X164880014Y-86848277D01*
X164729670Y-86683051D01*
X164725619Y-86679852D01*
X164725615Y-86679848D01*
X164558414Y-86547800D01*
X164558410Y-86547798D01*
X164554359Y-86544598D01*
X164512569Y-86521529D01*
X164462598Y-86471097D01*
X164447826Y-86401654D01*
X164472942Y-86335248D01*
X164500294Y-86308641D01*
X164675328Y-86183792D01*
X164683200Y-86177139D01*
X164834052Y-86026812D01*
X164840730Y-86018965D01*
X164965003Y-85846020D01*
X164970313Y-85837183D01*
X165064670Y-85646267D01*
X165068469Y-85636672D01*
X165130377Y-85432910D01*
X165132555Y-85422837D01*
X165133986Y-85411962D01*
X165131775Y-85397778D01*
X165118617Y-85394000D01*
X162483225Y-85394000D01*
X162469694Y-85397973D01*
X162468257Y-85407966D01*
X162498565Y-85542446D01*
X162501645Y-85552275D01*
X162581770Y-85749603D01*
X162586413Y-85758794D01*
X162697694Y-85940388D01*
X162703777Y-85948699D01*
X162843213Y-86109667D01*
X162850580Y-86116883D01*
X163014434Y-86252916D01*
X163022881Y-86258831D01*
X163091969Y-86299203D01*
X163140693Y-86350842D01*
X163153764Y-86420625D01*
X163127033Y-86486396D01*
X163086584Y-86519752D01*
X163073607Y-86526507D01*
X163069474Y-86529610D01*
X163069471Y-86529612D01*
X162907442Y-86651267D01*
X162894965Y-86660635D01*
X162829346Y-86729301D01*
X162754506Y-86807617D01*
X162740629Y-86822138D01*
X162614743Y-87006680D01*
X162570100Y-87102856D01*
X162541059Y-87165420D01*
X162520688Y-87209305D01*
X162460989Y-87424570D01*
X162437251Y-87646695D01*
X162437548Y-87651848D01*
X162437548Y-87651851D01*
X162443011Y-87746590D01*
X162450110Y-87869715D01*
X162451247Y-87874761D01*
X162451248Y-87874767D01*
X162471119Y-87962939D01*
X162499222Y-88087639D01*
X162537461Y-88181811D01*
X162566803Y-88254071D01*
X162583266Y-88294616D01*
X162585965Y-88299020D01*
X162695264Y-88477380D01*
X162699987Y-88485088D01*
X162846250Y-88653938D01*
X163018126Y-88796632D01*
X163088595Y-88837811D01*
X163091445Y-88839476D01*
X163140169Y-88891114D01*
X163153240Y-88960897D01*
X163126509Y-89026669D01*
X163086055Y-89060027D01*
X163073607Y-89066507D01*
X163069474Y-89069610D01*
X163069471Y-89069612D01*
X162899100Y-89197530D01*
X162894965Y-89200635D01*
X162876605Y-89219848D01*
X162768074Y-89333419D01*
X162740629Y-89362138D01*
X162737715Y-89366410D01*
X162737714Y-89366411D01*
X162708694Y-89408953D01*
X162614743Y-89546680D01*
X162599421Y-89579688D01*
X162523382Y-89743502D01*
X162520688Y-89749305D01*
X162504869Y-89806346D01*
X162486296Y-89873318D01*
X162448817Y-89933616D01*
X162438939Y-89941583D01*
X162411612Y-89961437D01*
X162401695Y-89967951D01*
X162363638Y-89990458D01*
X162349317Y-90004779D01*
X162334284Y-90017619D01*
X162317893Y-90029528D01*
X162312842Y-90035634D01*
X162289702Y-90063605D01*
X162281712Y-90072384D01*
X155848595Y-96505500D01*
X155786283Y-96539526D01*
X155715468Y-96534461D01*
X155658632Y-96491914D01*
X155633821Y-96425394D01*
X155633500Y-96416405D01*
X155633500Y-89578768D01*
X155634027Y-89567585D01*
X155635702Y-89560092D01*
X155635281Y-89546680D01*
X155633562Y-89492002D01*
X155633500Y-89488044D01*
X155633500Y-89460144D01*
X155632996Y-89456153D01*
X155632063Y-89444311D01*
X155631684Y-89432232D01*
X155630674Y-89400111D01*
X155626126Y-89384457D01*
X155625021Y-89380652D01*
X155621012Y-89361293D01*
X155620647Y-89358401D01*
X155618474Y-89341203D01*
X155615558Y-89333837D01*
X155615556Y-89333831D01*
X155602200Y-89300098D01*
X155598355Y-89288868D01*
X155588230Y-89254017D01*
X155588230Y-89254016D01*
X155586019Y-89246407D01*
X155575705Y-89228966D01*
X155567008Y-89211213D01*
X155562472Y-89199758D01*
X155559552Y-89192383D01*
X155533563Y-89156612D01*
X155527047Y-89146692D01*
X155508578Y-89115463D01*
X155504542Y-89108638D01*
X155490221Y-89094317D01*
X155477380Y-89079283D01*
X155465472Y-89062893D01*
X155431395Y-89034702D01*
X155422616Y-89026712D01*
X152670405Y-86274500D01*
X152636379Y-86212188D01*
X152633500Y-86185405D01*
X152633500Y-85158067D01*
X152653502Y-85089946D01*
X152707158Y-85043453D01*
X152777432Y-85033349D01*
X152842012Y-85062843D01*
X152855303Y-85076228D01*
X152953637Y-85191363D01*
X153152144Y-85360903D01*
X153374729Y-85497303D01*
X153379299Y-85499196D01*
X153379303Y-85499198D01*
X153611338Y-85595310D01*
X153615911Y-85597204D01*
X153704931Y-85618576D01*
X153864938Y-85656991D01*
X153864944Y-85656992D01*
X153869751Y-85658146D01*
X154130000Y-85678628D01*
X154390249Y-85658146D01*
X154395056Y-85656992D01*
X154395062Y-85656991D01*
X154555069Y-85618576D01*
X154644089Y-85597204D01*
X154648662Y-85595310D01*
X154880697Y-85499198D01*
X154880701Y-85499196D01*
X154885271Y-85497303D01*
X155107856Y-85360903D01*
X155306363Y-85191363D01*
X155475903Y-84992856D01*
X155548626Y-84874183D01*
X162464389Y-84874183D01*
X162465912Y-84882607D01*
X162478292Y-84886000D01*
X163527885Y-84886000D01*
X163543124Y-84881525D01*
X163544329Y-84880135D01*
X163546000Y-84872452D01*
X163546000Y-84867885D01*
X164054000Y-84867885D01*
X164058475Y-84883124D01*
X164059865Y-84884329D01*
X164067548Y-84886000D01*
X165118344Y-84886000D01*
X165131875Y-84882027D01*
X165133180Y-84872947D01*
X165091214Y-84705875D01*
X165087894Y-84696124D01*
X165002972Y-84500814D01*
X164998105Y-84491739D01*
X164882426Y-84312926D01*
X164876136Y-84304757D01*
X164732806Y-84147240D01*
X164725273Y-84140215D01*
X164558139Y-84008222D01*
X164549552Y-84002517D01*
X164363117Y-83899599D01*
X164353705Y-83895369D01*
X164152959Y-83824280D01*
X164142988Y-83821646D01*
X164071837Y-83808972D01*
X164058540Y-83810432D01*
X164054000Y-83824989D01*
X164054000Y-84867885D01*
X163546000Y-84867885D01*
X163546000Y-83823102D01*
X163542082Y-83809758D01*
X163527806Y-83807771D01*
X163489324Y-83813660D01*
X163479288Y-83816051D01*
X163276868Y-83882212D01*
X163267359Y-83886209D01*
X163078463Y-83984542D01*
X163069738Y-83990036D01*
X162899433Y-84117905D01*
X162891726Y-84124748D01*
X162744590Y-84278717D01*
X162738104Y-84286727D01*
X162618098Y-84462649D01*
X162613000Y-84471623D01*
X162523338Y-84664783D01*
X162519775Y-84674470D01*
X162464389Y-84874183D01*
X155548626Y-84874183D01*
X155612303Y-84770271D01*
X155626501Y-84735996D01*
X155710310Y-84533662D01*
X155710311Y-84533660D01*
X155712204Y-84529089D01*
X155749445Y-84373971D01*
X155771991Y-84280062D01*
X155771992Y-84280056D01*
X155773146Y-84275249D01*
X155793628Y-84015000D01*
X155773146Y-83754751D01*
X155771992Y-83749944D01*
X155771991Y-83749938D01*
X155713359Y-83505723D01*
X155712204Y-83500911D01*
X155710310Y-83496338D01*
X155614198Y-83264303D01*
X155614196Y-83264299D01*
X155612303Y-83259729D01*
X155475903Y-83037144D01*
X155306363Y-82838637D01*
X155107856Y-82669097D01*
X154885271Y-82532697D01*
X154880701Y-82530804D01*
X154880697Y-82530802D01*
X154648662Y-82434690D01*
X154648660Y-82434689D01*
X154644089Y-82432796D01*
X154555069Y-82411424D01*
X154395062Y-82373009D01*
X154395056Y-82373008D01*
X154390249Y-82371854D01*
X154130000Y-82351372D01*
X153893512Y-82369984D01*
X153824032Y-82355388D01*
X153773472Y-82305545D01*
X153757886Y-82236281D01*
X153782221Y-82169585D01*
X153797849Y-82152078D01*
X153908888Y-82048894D01*
X153919895Y-82035447D01*
X154025574Y-81906332D01*
X154093139Y-81823784D01*
X154245133Y-81575752D01*
X154253869Y-81555852D01*
X154360334Y-81313315D01*
X154362059Y-81309386D01*
X154368073Y-81288276D01*
X154387782Y-81219087D01*
X154441754Y-81029616D01*
X154444286Y-81011829D01*
X154482137Y-80745870D01*
X154482742Y-80741619D01*
X154484265Y-80450723D01*
X154446295Y-80162313D01*
X154369535Y-79881724D01*
X154255404Y-79614148D01*
X154106015Y-79364538D01*
X154100341Y-79357455D01*
X153926823Y-79140869D01*
X153924133Y-79137511D01*
X153713122Y-78937269D01*
X153476887Y-78767517D01*
X153238198Y-78641138D01*
X153223587Y-78633402D01*
X153223586Y-78633401D01*
X153219800Y-78631397D01*
X153215777Y-78629925D01*
X153215773Y-78629923D01*
X152950649Y-78532901D01*
X152950647Y-78532900D01*
X152946618Y-78531426D01*
X152662396Y-78469456D01*
X152618598Y-78466009D01*
X152436703Y-78451693D01*
X152436696Y-78451693D01*
X152434247Y-78451500D01*
X152276879Y-78451500D01*
X152274743Y-78451646D01*
X152274732Y-78451646D01*
X152064051Y-78466009D01*
X152064045Y-78466010D01*
X152059774Y-78466301D01*
X152055579Y-78467170D01*
X152055577Y-78467170D01*
X152040130Y-78470369D01*
X151774919Y-78525291D01*
X151500705Y-78622395D01*
X151242207Y-78755816D01*
X151238706Y-78758277D01*
X151238702Y-78758279D01*
X151225558Y-78767517D01*
X151004208Y-78923085D01*
X150791112Y-79121106D01*
X150788398Y-79124422D01*
X150788395Y-79124425D01*
X150774936Y-79140869D01*
X150606861Y-79346216D01*
X150454867Y-79594248D01*
X150453148Y-79598165D01*
X150453146Y-79598168D01*
X150444397Y-79618100D01*
X150337941Y-79860614D01*
X150336765Y-79864742D01*
X150336764Y-79864745D01*
X150312218Y-79950913D01*
X150258246Y-80140384D01*
X150257642Y-80144626D01*
X150257641Y-80144632D01*
X150255125Y-80162313D01*
X150217258Y-80428381D01*
X150215735Y-80719277D01*
X150253705Y-81007687D01*
X150330465Y-81288276D01*
X150444596Y-81555852D01*
X150593985Y-81805462D01*
X150596669Y-81808813D01*
X150596671Y-81808815D01*
X150654026Y-81880406D01*
X150775867Y-82032489D01*
X150904010Y-82154092D01*
X150967510Y-82214351D01*
X150986878Y-82232731D01*
X150990359Y-82235232D01*
X150990367Y-82235239D01*
X151029248Y-82263178D01*
X151072896Y-82319172D01*
X151079342Y-82389876D01*
X151046539Y-82452840D01*
X150984903Y-82488074D01*
X150955722Y-82491500D01*
X149694354Y-82491500D01*
X149626233Y-82471498D01*
X149591141Y-82437771D01*
X149587658Y-82432796D01*
X149530644Y-82351372D01*
X149506908Y-82317473D01*
X149506906Y-82317470D01*
X149503749Y-82312962D01*
X149348038Y-82157251D01*
X149340641Y-82152071D01*
X149254278Y-82091599D01*
X149167654Y-82030944D01*
X148968076Y-81937880D01*
X148755371Y-81880885D01*
X148536000Y-81861693D01*
X148316629Y-81880885D01*
X148103924Y-81937880D01*
X148010562Y-81981415D01*
X147909334Y-82028618D01*
X147909329Y-82028621D01*
X147904347Y-82030944D01*
X147899840Y-82034100D01*
X147899838Y-82034101D01*
X147728473Y-82154092D01*
X147728470Y-82154094D01*
X147723962Y-82157251D01*
X147609095Y-82272118D01*
X147546783Y-82306144D01*
X147475968Y-82301079D01*
X147430905Y-82272118D01*
X147316038Y-82157251D01*
X147308641Y-82152071D01*
X147222278Y-82091599D01*
X147135654Y-82030944D01*
X146936076Y-81937880D01*
X146723371Y-81880885D01*
X146504000Y-81861693D01*
X146284629Y-81880885D01*
X146071924Y-81937880D01*
X145978562Y-81981415D01*
X145877334Y-82028618D01*
X145877329Y-82028621D01*
X145872347Y-82030944D01*
X145867840Y-82034100D01*
X145867838Y-82034101D01*
X145696473Y-82154092D01*
X145696470Y-82154094D01*
X145691962Y-82157251D01*
X145577095Y-82272118D01*
X145514783Y-82306144D01*
X145443968Y-82301079D01*
X145398905Y-82272118D01*
X145284038Y-82157251D01*
X145276641Y-82152071D01*
X145190278Y-82091599D01*
X145103654Y-82030944D01*
X144904076Y-81937880D01*
X144691371Y-81880885D01*
X144472000Y-81861693D01*
X144252629Y-81880885D01*
X144039924Y-81937880D01*
X143946562Y-81981415D01*
X143845334Y-82028618D01*
X143845329Y-82028621D01*
X143840347Y-82030944D01*
X143835840Y-82034100D01*
X143835838Y-82034101D01*
X143761439Y-82086196D01*
X143694165Y-82108884D01*
X143625304Y-82091599D01*
X143588343Y-82058549D01*
X143553261Y-82011739D01*
X143436705Y-81924385D01*
X143300316Y-81873255D01*
X143238134Y-81866500D01*
X141641866Y-81866500D01*
X141602486Y-81870778D01*
X141532605Y-81858250D01*
X141480589Y-81809930D01*
X141462954Y-81741158D01*
X141481446Y-81679680D01*
X141542896Y-81579402D01*
X141545133Y-81575752D01*
X141553869Y-81555852D01*
X141660334Y-81313315D01*
X141662059Y-81309386D01*
X141668073Y-81288276D01*
X141687782Y-81219087D01*
X141741754Y-81029616D01*
X141744286Y-81011829D01*
X141782137Y-80745870D01*
X141782742Y-80741619D01*
X141784265Y-80450723D01*
X141746295Y-80162313D01*
X141669535Y-79881724D01*
X141555404Y-79614148D01*
X141406015Y-79364538D01*
X141400341Y-79357455D01*
X141226823Y-79140869D01*
X141224133Y-79137511D01*
X141013122Y-78937269D01*
X140776887Y-78767517D01*
X140538198Y-78641138D01*
X140523587Y-78633402D01*
X140523586Y-78633401D01*
X140519800Y-78631397D01*
X140515777Y-78629925D01*
X140515773Y-78629923D01*
X140250649Y-78532901D01*
X140250647Y-78532900D01*
X140246618Y-78531426D01*
X139962396Y-78469456D01*
X139918598Y-78466009D01*
X139736703Y-78451693D01*
X139736696Y-78451693D01*
X139734247Y-78451500D01*
X139576879Y-78451500D01*
X139574743Y-78451646D01*
X139574732Y-78451646D01*
X139364051Y-78466009D01*
X139364045Y-78466010D01*
X139359774Y-78466301D01*
X139355579Y-78467170D01*
X139355577Y-78467170D01*
X139340130Y-78470369D01*
X139074919Y-78525291D01*
X138800705Y-78622395D01*
X138542207Y-78755816D01*
X138538706Y-78758277D01*
X138538702Y-78758279D01*
X138525558Y-78767517D01*
X138304208Y-78923085D01*
X138091112Y-79121106D01*
X138088398Y-79124422D01*
X138088395Y-79124425D01*
X138074936Y-79140869D01*
X137906861Y-79346216D01*
X137754867Y-79594248D01*
X137753148Y-79598165D01*
X137753146Y-79598168D01*
X137744397Y-79618100D01*
X137637941Y-79860614D01*
X137636765Y-79864742D01*
X137636764Y-79864745D01*
X137612218Y-79950913D01*
X137558246Y-80140384D01*
X137557642Y-80144626D01*
X137557641Y-80144632D01*
X137555125Y-80162313D01*
X137517258Y-80428381D01*
X137515735Y-80719277D01*
X137553705Y-81007687D01*
X137630465Y-81288276D01*
X137744596Y-81555852D01*
X137893985Y-81805462D01*
X137896669Y-81808813D01*
X137896671Y-81808815D01*
X137954026Y-81880406D01*
X138075867Y-82032489D01*
X138078981Y-82035444D01*
X138078991Y-82035455D01*
X138202807Y-82152951D01*
X138238452Y-82214351D01*
X138235243Y-82285275D01*
X138194199Y-82343205D01*
X138128351Y-82369749D01*
X138106189Y-82369960D01*
X137874930Y-82351760D01*
X137870000Y-82351372D01*
X137609751Y-82371854D01*
X137604944Y-82373008D01*
X137604938Y-82373009D01*
X137444931Y-82411424D01*
X137355911Y-82432796D01*
X137351340Y-82434689D01*
X137351338Y-82434690D01*
X137119303Y-82530802D01*
X137119299Y-82530804D01*
X137114729Y-82532697D01*
X136892144Y-82669097D01*
X136693637Y-82838637D01*
X136524097Y-83037144D01*
X136387697Y-83259729D01*
X136385804Y-83264299D01*
X136385802Y-83264303D01*
X136289690Y-83496338D01*
X136287796Y-83500911D01*
X136286641Y-83505723D01*
X136228009Y-83749938D01*
X136228008Y-83749944D01*
X136226854Y-83754751D01*
X136206372Y-84015000D01*
X136226854Y-84275249D01*
X136228008Y-84280056D01*
X136228009Y-84280062D01*
X136250555Y-84373971D01*
X136287796Y-84529089D01*
X136289689Y-84533660D01*
X136289690Y-84533662D01*
X136373500Y-84735996D01*
X136387697Y-84770271D01*
X136524097Y-84992856D01*
X136693637Y-85191363D01*
X136892144Y-85360903D01*
X137114729Y-85497303D01*
X137119299Y-85499196D01*
X137119303Y-85499198D01*
X137351338Y-85595310D01*
X137355911Y-85597204D01*
X137444931Y-85618576D01*
X137604938Y-85656991D01*
X137604944Y-85656992D01*
X137609751Y-85658146D01*
X137870000Y-85678628D01*
X138130249Y-85658146D01*
X138135056Y-85656992D01*
X138135062Y-85656991D01*
X138295069Y-85618576D01*
X138384089Y-85597204D01*
X138388662Y-85595310D01*
X138620697Y-85499198D01*
X138620701Y-85499196D01*
X138625271Y-85497303D01*
X138847856Y-85360903D01*
X139046363Y-85191363D01*
X139215903Y-84992856D01*
X139352303Y-84770271D01*
X139366501Y-84735996D01*
X139450310Y-84533662D01*
X139450311Y-84533660D01*
X139452204Y-84529089D01*
X139489445Y-84373971D01*
X139511991Y-84280062D01*
X139511992Y-84280056D01*
X139513146Y-84275249D01*
X139533628Y-84015000D01*
X139513146Y-83754751D01*
X139511992Y-83749944D01*
X139511991Y-83749938D01*
X139453359Y-83505723D01*
X139452204Y-83500911D01*
X139450310Y-83496338D01*
X139354198Y-83264303D01*
X139354196Y-83264299D01*
X139352303Y-83259729D01*
X139215903Y-83037144D01*
X139107563Y-82910293D01*
X139077940Y-82875609D01*
X139048909Y-82810819D01*
X139059514Y-82740619D01*
X139106389Y-82687297D01*
X139174651Y-82667782D01*
X139200593Y-82670671D01*
X139337604Y-82700544D01*
X139366650Y-82702830D01*
X139563297Y-82718307D01*
X139563304Y-82718307D01*
X139565753Y-82718500D01*
X139723121Y-82718500D01*
X139725257Y-82718354D01*
X139725268Y-82718354D01*
X139935949Y-82703991D01*
X139935955Y-82703990D01*
X139940226Y-82703699D01*
X139944421Y-82702830D01*
X139944423Y-82702830D01*
X140099714Y-82670671D01*
X140225081Y-82644709D01*
X140499295Y-82547605D01*
X140712094Y-82437771D01*
X140753986Y-82416149D01*
X140753987Y-82416149D01*
X140757793Y-82414184D01*
X140761294Y-82411723D01*
X140761298Y-82411721D01*
X140983049Y-82255871D01*
X141050283Y-82233066D01*
X141119174Y-82250231D01*
X141167848Y-82301915D01*
X141181500Y-82358958D01*
X141181500Y-83923134D01*
X141188255Y-83985316D01*
X141239385Y-84121705D01*
X141326739Y-84238261D01*
X141443295Y-84325615D01*
X141579684Y-84376745D01*
X141641866Y-84383500D01*
X142128634Y-84383500D01*
X142196755Y-84403502D01*
X142243248Y-84457158D01*
X142253352Y-84527432D01*
X142250340Y-84542112D01*
X142213310Y-84680308D01*
X142213309Y-84680317D01*
X142211885Y-84685629D01*
X142192693Y-84905000D01*
X142211885Y-85124371D01*
X142268880Y-85337076D01*
X142303800Y-85411962D01*
X142359618Y-85531666D01*
X142359621Y-85531671D01*
X142361944Y-85536653D01*
X142365100Y-85541160D01*
X142365101Y-85541162D01*
X142446206Y-85656991D01*
X142488251Y-85717038D01*
X142643962Y-85872749D01*
X142824346Y-85999056D01*
X143023924Y-86092120D01*
X143236629Y-86149115D01*
X143456000Y-86168307D01*
X143675371Y-86149115D01*
X143888076Y-86092120D01*
X144087654Y-85999056D01*
X144268038Y-85872749D01*
X144382905Y-85757882D01*
X144445217Y-85723856D01*
X144516032Y-85728921D01*
X144561095Y-85757882D01*
X144675962Y-85872749D01*
X144856346Y-85999056D01*
X145055924Y-86092120D01*
X145268629Y-86149115D01*
X145488000Y-86168307D01*
X145707371Y-86149115D01*
X145920076Y-86092120D01*
X146119654Y-85999056D01*
X146300038Y-85872749D01*
X146414905Y-85757882D01*
X146477217Y-85723856D01*
X146548032Y-85728921D01*
X146593095Y-85757882D01*
X146707962Y-85872749D01*
X146712470Y-85875906D01*
X146712473Y-85875908D01*
X146765866Y-85913294D01*
X146832772Y-85960142D01*
X146877099Y-86015598D01*
X146886500Y-86063354D01*
X146886500Y-86665405D01*
X146866498Y-86733526D01*
X146849595Y-86754501D01*
X146274499Y-87329596D01*
X146212187Y-87363621D01*
X146185404Y-87366500D01*
X143064595Y-87366500D01*
X142996474Y-87346498D01*
X142975500Y-87329595D01*
X142503652Y-86857747D01*
X142496112Y-86849461D01*
X142492000Y-86842982D01*
X142442348Y-86796356D01*
X142439507Y-86793602D01*
X142419770Y-86773865D01*
X142416573Y-86771385D01*
X142407551Y-86763680D01*
X142397776Y-86754501D01*
X142375321Y-86733414D01*
X142368375Y-86729595D01*
X142368372Y-86729593D01*
X142357566Y-86723652D01*
X142341047Y-86712801D01*
X142331545Y-86705431D01*
X142325041Y-86700386D01*
X142317772Y-86697241D01*
X142317768Y-86697238D01*
X142284463Y-86682826D01*
X142273813Y-86677609D01*
X142235060Y-86656305D01*
X142215437Y-86651267D01*
X142196734Y-86644863D01*
X142185420Y-86639967D01*
X142185419Y-86639967D01*
X142178145Y-86636819D01*
X142170322Y-86635580D01*
X142170312Y-86635577D01*
X142134476Y-86629901D01*
X142122856Y-86627495D01*
X142087711Y-86618472D01*
X142087710Y-86618472D01*
X142080030Y-86616500D01*
X142059776Y-86616500D01*
X142040065Y-86614949D01*
X142027886Y-86613020D01*
X142020057Y-86611780D01*
X141990786Y-86614547D01*
X141976039Y-86615941D01*
X141964181Y-86616500D01*
X139328767Y-86616500D01*
X139317584Y-86615973D01*
X139310091Y-86614298D01*
X139302165Y-86614547D01*
X139302164Y-86614547D01*
X139242001Y-86616438D01*
X139238043Y-86616500D01*
X139210144Y-86616500D01*
X139206154Y-86617004D01*
X139194320Y-86617936D01*
X139150111Y-86619326D01*
X139142497Y-86621538D01*
X139142492Y-86621539D01*
X139130659Y-86624977D01*
X139111296Y-86628988D01*
X139091203Y-86631526D01*
X139083836Y-86634443D01*
X139083831Y-86634444D01*
X139050092Y-86647802D01*
X139038865Y-86651646D01*
X138996407Y-86663982D01*
X138989581Y-86668019D01*
X138978972Y-86674293D01*
X138961224Y-86682988D01*
X138942383Y-86690448D01*
X138935967Y-86695110D01*
X138935966Y-86695110D01*
X138906613Y-86716436D01*
X138896693Y-86722952D01*
X138865465Y-86741420D01*
X138865462Y-86741422D01*
X138858638Y-86745458D01*
X138844317Y-86759779D01*
X138829284Y-86772619D01*
X138812893Y-86784528D01*
X138784871Y-86818401D01*
X138784702Y-86818605D01*
X138776712Y-86827384D01*
X136357747Y-89246348D01*
X136349461Y-89253888D01*
X136342982Y-89258000D01*
X136337557Y-89263777D01*
X136296357Y-89307651D01*
X136293602Y-89310493D01*
X136273865Y-89330230D01*
X136271385Y-89333427D01*
X136263682Y-89342447D01*
X136233414Y-89374679D01*
X136229595Y-89381625D01*
X136229593Y-89381628D01*
X136223652Y-89392434D01*
X136212801Y-89408953D01*
X136200386Y-89424959D01*
X136197241Y-89432228D01*
X136197238Y-89432232D01*
X136182826Y-89465537D01*
X136177609Y-89476187D01*
X136156305Y-89514940D01*
X136154334Y-89522615D01*
X136154334Y-89522616D01*
X136151267Y-89534562D01*
X136144863Y-89553266D01*
X136136819Y-89571855D01*
X136135580Y-89579678D01*
X136135577Y-89579688D01*
X136129901Y-89615524D01*
X136127495Y-89627144D01*
X136116500Y-89669970D01*
X136116500Y-89690224D01*
X136114949Y-89709934D01*
X136111780Y-89729943D01*
X124808501Y-89729943D01*
X124808501Y-79337694D01*
X124808503Y-79336956D01*
X124808509Y-79335932D01*
X124808546Y-79333548D01*
X124809670Y-79288199D01*
X124817174Y-78985479D01*
X124817480Y-78979286D01*
X124842639Y-78641138D01*
X124843253Y-78634958D01*
X124873504Y-78391424D01*
X124884895Y-78299720D01*
X124885807Y-78293606D01*
X124943703Y-77961802D01*
X124944914Y-77955744D01*
X125018827Y-77627954D01*
X125020329Y-77621978D01*
X125110036Y-77298716D01*
X125111826Y-77292829D01*
X125137836Y-77214216D01*
X125217076Y-76974721D01*
X125219133Y-76968976D01*
X125339740Y-76656466D01*
X125342092Y-76650790D01*
X125477751Y-76344618D01*
X125480377Y-76339061D01*
X125630894Y-76039691D01*
X125633791Y-76034263D01*
X125653168Y-76000000D01*
X127186540Y-76000000D01*
X127206359Y-76315020D01*
X127265505Y-76625072D01*
X127363044Y-76925266D01*
X127364731Y-76928852D01*
X127364733Y-76928856D01*
X127495750Y-77207283D01*
X127495754Y-77207290D01*
X127497438Y-77210869D01*
X127666568Y-77477375D01*
X127867767Y-77720582D01*
X128097860Y-77936654D01*
X128101062Y-77938981D01*
X128101064Y-77938982D01*
X128128314Y-77958780D01*
X128353221Y-78122184D01*
X128356690Y-78124091D01*
X128356693Y-78124093D01*
X128463524Y-78182824D01*
X128629821Y-78274247D01*
X128633490Y-78275700D01*
X128633495Y-78275702D01*
X128694206Y-78299739D01*
X128923298Y-78390443D01*
X129229025Y-78468940D01*
X129542179Y-78508500D01*
X129857821Y-78508500D01*
X130170975Y-78468940D01*
X130476702Y-78390443D01*
X130705794Y-78299739D01*
X130766505Y-78275702D01*
X130766510Y-78275700D01*
X130770179Y-78274247D01*
X130936476Y-78182824D01*
X131043307Y-78124093D01*
X131043310Y-78124091D01*
X131046779Y-78122184D01*
X131271686Y-77958780D01*
X131298936Y-77938982D01*
X131298938Y-77938981D01*
X131302140Y-77936654D01*
X131532233Y-77720582D01*
X131733432Y-77477375D01*
X131902562Y-77210869D01*
X131904246Y-77207290D01*
X131904250Y-77207283D01*
X132035267Y-76928856D01*
X132035269Y-76928852D01*
X132036956Y-76925266D01*
X132134495Y-76625072D01*
X132193641Y-76315020D01*
X132213460Y-76000000D01*
X160786540Y-76000000D01*
X160806359Y-76315020D01*
X160865505Y-76625072D01*
X160963044Y-76925266D01*
X160964731Y-76928852D01*
X160964733Y-76928856D01*
X161095750Y-77207283D01*
X161095754Y-77207290D01*
X161097438Y-77210869D01*
X161266568Y-77477375D01*
X161467767Y-77720582D01*
X161697860Y-77936654D01*
X161701062Y-77938981D01*
X161701064Y-77938982D01*
X161728314Y-77958780D01*
X161953221Y-78122184D01*
X161956690Y-78124091D01*
X161956693Y-78124093D01*
X162063524Y-78182824D01*
X162229821Y-78274247D01*
X162233490Y-78275700D01*
X162233495Y-78275702D01*
X162294206Y-78299739D01*
X162523298Y-78390443D01*
X162829025Y-78468940D01*
X163142179Y-78508500D01*
X163457821Y-78508500D01*
X163770975Y-78468940D01*
X164076702Y-78390443D01*
X164305794Y-78299739D01*
X164366505Y-78275702D01*
X164366510Y-78275700D01*
X164370179Y-78274247D01*
X164536476Y-78182824D01*
X164643307Y-78124093D01*
X164643310Y-78124091D01*
X164646779Y-78122184D01*
X164871686Y-77958780D01*
X164898936Y-77938982D01*
X164898938Y-77938981D01*
X164902140Y-77936654D01*
X165132233Y-77720582D01*
X165333432Y-77477375D01*
X165502562Y-77210869D01*
X165504246Y-77207290D01*
X165504250Y-77207283D01*
X165635267Y-76928856D01*
X165635269Y-76928852D01*
X165636956Y-76925266D01*
X165734495Y-76625072D01*
X165793641Y-76315020D01*
X165813460Y-76000000D01*
X165793641Y-75684980D01*
X165734495Y-75374928D01*
X165636956Y-75074734D01*
X165635267Y-75071144D01*
X165504250Y-74792717D01*
X165504246Y-74792710D01*
X165502562Y-74789131D01*
X165333432Y-74522625D01*
X165197866Y-74358754D01*
X165134758Y-74282470D01*
X165134757Y-74282469D01*
X165132233Y-74279418D01*
X164902140Y-74063346D01*
X164646779Y-73877816D01*
X164370179Y-73725753D01*
X164366510Y-73724300D01*
X164366505Y-73724298D01*
X164080372Y-73611010D01*
X164080371Y-73611010D01*
X164076702Y-73609557D01*
X163770975Y-73531060D01*
X163457821Y-73491500D01*
X163142179Y-73491500D01*
X162829025Y-73531060D01*
X162523298Y-73609557D01*
X162519629Y-73611010D01*
X162519628Y-73611010D01*
X162233495Y-73724298D01*
X162233490Y-73724300D01*
X162229821Y-73725753D01*
X161953221Y-73877816D01*
X161697860Y-74063346D01*
X161467767Y-74279418D01*
X161465243Y-74282469D01*
X161465242Y-74282470D01*
X161402134Y-74358754D01*
X161266568Y-74522625D01*
X161097438Y-74789131D01*
X161095754Y-74792710D01*
X161095750Y-74792717D01*
X160964733Y-75071144D01*
X160963044Y-75074734D01*
X160865505Y-75374928D01*
X160806359Y-75684980D01*
X160786540Y-76000000D01*
X132213460Y-76000000D01*
X132193641Y-75684980D01*
X132134495Y-75374928D01*
X132036956Y-75074734D01*
X132035267Y-75071144D01*
X131904250Y-74792717D01*
X131904246Y-74792710D01*
X131902562Y-74789131D01*
X131733432Y-74522625D01*
X131597866Y-74358754D01*
X131534758Y-74282470D01*
X131534757Y-74282469D01*
X131532233Y-74279418D01*
X131302140Y-74063346D01*
X131046779Y-73877816D01*
X130770179Y-73725753D01*
X130766510Y-73724300D01*
X130766505Y-73724298D01*
X130480372Y-73611010D01*
X130480371Y-73611010D01*
X130476702Y-73609557D01*
X130170975Y-73531060D01*
X129857821Y-73491500D01*
X129542179Y-73491500D01*
X129229025Y-73531060D01*
X128923298Y-73609557D01*
X128919629Y-73611010D01*
X128919628Y-73611010D01*
X128633495Y-73724298D01*
X128633490Y-73724300D01*
X128629821Y-73725753D01*
X128353221Y-73877816D01*
X128097860Y-74063346D01*
X127867767Y-74279418D01*
X127865243Y-74282469D01*
X127865242Y-74282470D01*
X127802134Y-74358754D01*
X127666568Y-74522625D01*
X127497438Y-74789131D01*
X127495754Y-74792710D01*
X127495750Y-74792717D01*
X127364733Y-75071144D01*
X127363044Y-75074734D01*
X127265505Y-75374928D01*
X127206359Y-75684980D01*
X127186540Y-76000000D01*
X125653168Y-76000000D01*
X125798937Y-75742254D01*
X125802101Y-75736966D01*
X125900308Y-75581576D01*
X125981624Y-75452912D01*
X125985031Y-75447802D01*
X126155082Y-75205864D01*
X126178726Y-75172225D01*
X126182411Y-75167247D01*
X126377480Y-74916842D01*
X126390032Y-74900731D01*
X126393962Y-74895935D01*
X126402617Y-74885889D01*
X126615240Y-74639085D01*
X126619413Y-74634476D01*
X126843123Y-74399396D01*
X126852150Y-74390804D01*
X126877027Y-74369369D01*
X126877030Y-74369366D01*
X126883827Y-74363509D01*
X126888709Y-74355977D01*
X126891415Y-74352875D01*
X126899503Y-74344429D01*
X127105374Y-74148515D01*
X127109985Y-74144340D01*
X127366861Y-73923041D01*
X127371646Y-73919119D01*
X127638144Y-73711512D01*
X127643117Y-73707831D01*
X127918683Y-73514144D01*
X127923822Y-73510717D01*
X128149017Y-73368392D01*
X128207893Y-73331182D01*
X128213175Y-73328022D01*
X128505156Y-73162892D01*
X128510584Y-73159995D01*
X128809958Y-73009476D01*
X128815515Y-73006850D01*
X129121718Y-72871177D01*
X129127395Y-72868825D01*
X129439854Y-72748240D01*
X129445640Y-72746168D01*
X129618963Y-72688821D01*
X129763758Y-72640913D01*
X129769616Y-72639132D01*
X130092890Y-72549422D01*
X130098864Y-72547921D01*
X130426678Y-72474005D01*
X130432702Y-72472800D01*
X130764524Y-72414901D01*
X130770637Y-72413989D01*
X131105856Y-72372349D01*
X131112041Y-72371735D01*
X131148092Y-72369053D01*
X131450202Y-72346575D01*
X131456395Y-72346269D01*
X131804716Y-72337636D01*
X131807837Y-72337597D01*
X161792162Y-72337597D01*
X161795285Y-72337636D01*
G37*
%TD.AperFunction*%
%TA.AperFunction,Conductor*%
G36*
X151308621Y-83778502D02*
G01*
X151355114Y-83832158D01*
X151366500Y-83884500D01*
X151366500Y-86421233D01*
X151365973Y-86432416D01*
X151364298Y-86439909D01*
X151364547Y-86447835D01*
X151364547Y-86447836D01*
X151366438Y-86507986D01*
X151366500Y-86511945D01*
X151366500Y-86539856D01*
X151366997Y-86543790D01*
X151366997Y-86543791D01*
X151367005Y-86543856D01*
X151367938Y-86555693D01*
X151369327Y-86599889D01*
X151374726Y-86618472D01*
X151374978Y-86619339D01*
X151378987Y-86638700D01*
X151381526Y-86658797D01*
X151384445Y-86666168D01*
X151384445Y-86666170D01*
X151397804Y-86699912D01*
X151401649Y-86711142D01*
X151411771Y-86745983D01*
X151413982Y-86753593D01*
X151418015Y-86760412D01*
X151418017Y-86760417D01*
X151424293Y-86771028D01*
X151432988Y-86788776D01*
X151440448Y-86807617D01*
X151445110Y-86814033D01*
X151445110Y-86814034D01*
X151466436Y-86843387D01*
X151472952Y-86853307D01*
X151495458Y-86891362D01*
X151509779Y-86905683D01*
X151522619Y-86920716D01*
X151534528Y-86937107D01*
X151540634Y-86942158D01*
X151568605Y-86965298D01*
X151577384Y-86973288D01*
X152858167Y-88254071D01*
X152892193Y-88316383D01*
X152887128Y-88387198D01*
X152844581Y-88444034D01*
X152780054Y-88468687D01*
X152683637Y-88477122D01*
X152640629Y-88480885D01*
X152427924Y-88537880D01*
X152334562Y-88581415D01*
X152233334Y-88628618D01*
X152233329Y-88628621D01*
X152228347Y-88630944D01*
X152223840Y-88634100D01*
X152223838Y-88634101D01*
X152052473Y-88754092D01*
X152052470Y-88754094D01*
X152047962Y-88757251D01*
X151892251Y-88912962D01*
X151889094Y-88917470D01*
X151889092Y-88917473D01*
X151818213Y-89018699D01*
X151762756Y-89063027D01*
X151692136Y-89070336D01*
X151628776Y-89038305D01*
X151611787Y-89018699D01*
X151540908Y-88917473D01*
X151540906Y-88917470D01*
X151537749Y-88912962D01*
X151382038Y-88757251D01*
X151325310Y-88717529D01*
X151239208Y-88657240D01*
X151201654Y-88630944D01*
X151002076Y-88537880D01*
X150789371Y-88480885D01*
X150570000Y-88461693D01*
X150350629Y-88480885D01*
X150137924Y-88537880D01*
X150044562Y-88581415D01*
X149943334Y-88628618D01*
X149943329Y-88628621D01*
X149938347Y-88630944D01*
X149933840Y-88634100D01*
X149933838Y-88634101D01*
X149762473Y-88754092D01*
X149762470Y-88754094D01*
X149757962Y-88757251D01*
X149602251Y-88912962D01*
X149599094Y-88917470D01*
X149599092Y-88917473D01*
X149483816Y-89082104D01*
X149475944Y-89093347D01*
X149473621Y-89098329D01*
X149473618Y-89098334D01*
X149465631Y-89115463D01*
X149382880Y-89292924D01*
X149325885Y-89505629D01*
X149306693Y-89725000D01*
X149325885Y-89944371D01*
X149382880Y-90157076D01*
X149385205Y-90162061D01*
X149473618Y-90351666D01*
X149473621Y-90351671D01*
X149475944Y-90356653D01*
X149479100Y-90361160D01*
X149479101Y-90361162D01*
X149585436Y-90513023D01*
X149602251Y-90537038D01*
X149757962Y-90692749D01*
X149762471Y-90695906D01*
X149762473Y-90695908D01*
X149806096Y-90726453D01*
X149938346Y-90819056D01*
X150137924Y-90912120D01*
X150350629Y-90969115D01*
X150570000Y-90988307D01*
X150789371Y-90969115D01*
X151002076Y-90912120D01*
X151201654Y-90819056D01*
X151333904Y-90726453D01*
X151377527Y-90695908D01*
X151377529Y-90695906D01*
X151382038Y-90692749D01*
X151537749Y-90537038D01*
X151554565Y-90513023D01*
X151611787Y-90431301D01*
X151667244Y-90386973D01*
X151737864Y-90379664D01*
X151801224Y-90411695D01*
X151818213Y-90431301D01*
X151875436Y-90513023D01*
X151892251Y-90537038D01*
X152047962Y-90692749D01*
X152052471Y-90695906D01*
X152052473Y-90695908D01*
X152096096Y-90726453D01*
X152228346Y-90819056D01*
X152427924Y-90912120D01*
X152640629Y-90969115D01*
X152860000Y-90988307D01*
X153079371Y-90969115D01*
X153292076Y-90912120D01*
X153491654Y-90819056D01*
X153623904Y-90726453D01*
X153667527Y-90695908D01*
X153667529Y-90695906D01*
X153672038Y-90692749D01*
X153827749Y-90537038D01*
X153844565Y-90513023D01*
X153950899Y-90361162D01*
X153950900Y-90361160D01*
X153954056Y-90356653D01*
X153956379Y-90351671D01*
X153956382Y-90351666D01*
X154044795Y-90162061D01*
X154047120Y-90157076D01*
X154104115Y-89944371D01*
X154114979Y-89820192D01*
X154140842Y-89754073D01*
X154198346Y-89712434D01*
X154269233Y-89708493D01*
X154330998Y-89743502D01*
X154364030Y-89806346D01*
X154366500Y-89831173D01*
X154366500Y-96835983D01*
X154346498Y-96904104D01*
X154292842Y-96950597D01*
X154222568Y-96960701D01*
X154189251Y-96951090D01*
X154038319Y-96883891D01*
X154038318Y-96883891D01*
X154032288Y-96881206D01*
X153938887Y-96861353D01*
X153851944Y-96842872D01*
X153851939Y-96842872D01*
X153845487Y-96841500D01*
X153654513Y-96841500D01*
X153648061Y-96842872D01*
X153648056Y-96842872D01*
X153561113Y-96861353D01*
X153467712Y-96881206D01*
X153461682Y-96883891D01*
X153461681Y-96883891D01*
X153310749Y-96951090D01*
X153240382Y-96960524D01*
X153176085Y-96930417D01*
X153138271Y-96870329D01*
X153133500Y-96835983D01*
X153133500Y-95974600D01*
X153133163Y-95971350D01*
X153123238Y-95875692D01*
X153123237Y-95875688D01*
X153122526Y-95868834D01*
X153066550Y-95701054D01*
X152973478Y-95550652D01*
X152879317Y-95456655D01*
X152845238Y-95394373D01*
X152848502Y-95328546D01*
X152871441Y-95257948D01*
X152893542Y-95189928D01*
X152899598Y-95132314D01*
X152912814Y-95006565D01*
X152912814Y-95006564D01*
X152913504Y-95000000D01*
X152893542Y-94810072D01*
X152834527Y-94628444D01*
X152739040Y-94463056D01*
X152633959Y-94346351D01*
X152615675Y-94326045D01*
X152615674Y-94326044D01*
X152611253Y-94321134D01*
X152512157Y-94249136D01*
X152462094Y-94212763D01*
X152462093Y-94212762D01*
X152456752Y-94208882D01*
X152450724Y-94206198D01*
X152450722Y-94206197D01*
X152288319Y-94133891D01*
X152288318Y-94133891D01*
X152282288Y-94131206D01*
X152183068Y-94110116D01*
X152101944Y-94092872D01*
X152101939Y-94092872D01*
X152095487Y-94091500D01*
X151904513Y-94091500D01*
X151898061Y-94092872D01*
X151898056Y-94092872D01*
X151816932Y-94110116D01*
X151717712Y-94131206D01*
X151711682Y-94133891D01*
X151711681Y-94133891D01*
X151549278Y-94206197D01*
X151549276Y-94206198D01*
X151543248Y-94208882D01*
X151537907Y-94212762D01*
X151537906Y-94212763D01*
X151487843Y-94249136D01*
X151388747Y-94321134D01*
X151384326Y-94326044D01*
X151384325Y-94326045D01*
X151366042Y-94346351D01*
X151260960Y-94463056D01*
X151165473Y-94628444D01*
X151106458Y-94810072D01*
X151086496Y-95000000D01*
X151087186Y-95006564D01*
X151087186Y-95006565D01*
X151100403Y-95132314D01*
X151106458Y-95189928D01*
X151165473Y-95371556D01*
X151166516Y-95373362D01*
X151175726Y-95442068D01*
X151145618Y-95506364D01*
X151140358Y-95511965D01*
X151100695Y-95551697D01*
X151097898Y-95556235D01*
X151040647Y-95596824D01*
X150969724Y-95600054D01*
X150908313Y-95564428D01*
X150900938Y-95555932D01*
X150892902Y-95545793D01*
X150778171Y-95431261D01*
X150766760Y-95422249D01*
X150628757Y-95337184D01*
X150615576Y-95331037D01*
X150461290Y-95279862D01*
X150447914Y-95276995D01*
X150353562Y-95267328D01*
X150347145Y-95267000D01*
X150234615Y-95267000D01*
X150219376Y-95271475D01*
X150218171Y-95272865D01*
X150216500Y-95280548D01*
X150216500Y-96628000D01*
X150196498Y-96696121D01*
X150142842Y-96742614D01*
X150090500Y-96754000D01*
X148885116Y-96754000D01*
X148869877Y-96758475D01*
X148868672Y-96759865D01*
X148867001Y-96767548D01*
X148867001Y-97022095D01*
X148867338Y-97028614D01*
X148877257Y-97124206D01*
X148880149Y-97137600D01*
X148931588Y-97291784D01*
X148937761Y-97304962D01*
X149023063Y-97442807D01*
X149032099Y-97454208D01*
X149146829Y-97568739D01*
X149158240Y-97577751D01*
X149263124Y-97642402D01*
X149310617Y-97695174D01*
X149322041Y-97765246D01*
X149293767Y-97830369D01*
X149263311Y-97856806D01*
X149167728Y-97915955D01*
X149150652Y-97926522D01*
X149025695Y-98051697D01*
X148932885Y-98202262D01*
X148920202Y-98240500D01*
X148907045Y-98280167D01*
X148866614Y-98338527D01*
X148801050Y-98365764D01*
X148787452Y-98366500D01*
X148284500Y-98366500D01*
X148216379Y-98346498D01*
X148169886Y-98292842D01*
X148158500Y-98240500D01*
X148158500Y-98001866D01*
X148151745Y-97939684D01*
X148100615Y-97803295D01*
X148042047Y-97725148D01*
X148017199Y-97658642D01*
X148032252Y-97589259D01*
X148042047Y-97574018D01*
X148094786Y-97503648D01*
X148103324Y-97488054D01*
X148148478Y-97367606D01*
X148152105Y-97352351D01*
X148157631Y-97301486D01*
X148158000Y-97294672D01*
X148158000Y-96772115D01*
X148153525Y-96756876D01*
X148152135Y-96755671D01*
X148144452Y-96754000D01*
X145160116Y-96754000D01*
X145144877Y-96758475D01*
X145143672Y-96759865D01*
X145142001Y-96767548D01*
X145142001Y-97294669D01*
X145142371Y-97301490D01*
X145147895Y-97352352D01*
X145151521Y-97367604D01*
X145196676Y-97488054D01*
X145205214Y-97503648D01*
X145257953Y-97574018D01*
X145282801Y-97640524D01*
X145267748Y-97709907D01*
X145257953Y-97725148D01*
X145199385Y-97803295D01*
X145148255Y-97939684D01*
X145141500Y-98001866D01*
X145141500Y-99598134D01*
X145148255Y-99660316D01*
X145199385Y-99796705D01*
X145286739Y-99913261D01*
X145403295Y-100000615D01*
X145539684Y-100051745D01*
X145601866Y-100058500D01*
X147698134Y-100058500D01*
X147760316Y-100051745D01*
X147896705Y-100000615D01*
X148013261Y-99913261D01*
X148100615Y-99796705D01*
X148109205Y-99773791D01*
X148131144Y-99715270D01*
X148173786Y-99658506D01*
X148240348Y-99633806D01*
X148249126Y-99633500D01*
X148787462Y-99633500D01*
X148855583Y-99653502D01*
X148902076Y-99707158D01*
X148906986Y-99719624D01*
X148933450Y-99798946D01*
X149026522Y-99949348D01*
X149151697Y-100074305D01*
X149157927Y-100078145D01*
X149157928Y-100078146D01*
X149173445Y-100087711D01*
X149269117Y-100146684D01*
X149316609Y-100199455D01*
X149329000Y-100253943D01*
X149329000Y-100383733D01*
X149328473Y-100394916D01*
X149326798Y-100402409D01*
X149327047Y-100410335D01*
X149327047Y-100410336D01*
X149328938Y-100470486D01*
X149329000Y-100474445D01*
X149329000Y-100502356D01*
X149329497Y-100506290D01*
X149329497Y-100506291D01*
X149329505Y-100506356D01*
X149330438Y-100518199D01*
X149331827Y-100562390D01*
X149329601Y-100562460D01*
X149321958Y-100621595D01*
X149276236Y-100675909D01*
X149208408Y-100696881D01*
X149155360Y-100686001D01*
X149038319Y-100633891D01*
X149038318Y-100633891D01*
X149032288Y-100631206D01*
X148938888Y-100611353D01*
X148851944Y-100592872D01*
X148851939Y-100592872D01*
X148845487Y-100591500D01*
X148654513Y-100591500D01*
X148648061Y-100592872D01*
X148648056Y-100592872D01*
X148561113Y-100611353D01*
X148467712Y-100631206D01*
X148461682Y-100633891D01*
X148461681Y-100633891D01*
X148299278Y-100706197D01*
X148299276Y-100706198D01*
X148293248Y-100708882D01*
X148287907Y-100712762D01*
X148287906Y-100712763D01*
X148190451Y-100783569D01*
X148123584Y-100807427D01*
X148054432Y-100791347D01*
X148007271Y-100744633D01*
X147992341Y-100718774D01*
X147989040Y-100713056D01*
X147879466Y-100591361D01*
X147865675Y-100576045D01*
X147865674Y-100576044D01*
X147861253Y-100571134D01*
X147725438Y-100472458D01*
X147712094Y-100462763D01*
X147712093Y-100462762D01*
X147706752Y-100458882D01*
X147700724Y-100456198D01*
X147700722Y-100456197D01*
X147538319Y-100383891D01*
X147538318Y-100383891D01*
X147532288Y-100381206D01*
X147421081Y-100357568D01*
X147351944Y-100342872D01*
X147351939Y-100342872D01*
X147345487Y-100341500D01*
X147154513Y-100341500D01*
X147148061Y-100342872D01*
X147148056Y-100342872D01*
X147078919Y-100357568D01*
X146967712Y-100381206D01*
X146961682Y-100383891D01*
X146961681Y-100383891D01*
X146799278Y-100456197D01*
X146799276Y-100456198D01*
X146793248Y-100458882D01*
X146787907Y-100462762D01*
X146787906Y-100462763D01*
X146774562Y-100472458D01*
X146638747Y-100571134D01*
X146634326Y-100576044D01*
X146634325Y-100576045D01*
X146620535Y-100591361D01*
X146510960Y-100713056D01*
X146415473Y-100878444D01*
X146356458Y-101060072D01*
X146336496Y-101250000D01*
X146356458Y-101439928D01*
X146358498Y-101446206D01*
X146373387Y-101492031D01*
X146375414Y-101562999D01*
X146338752Y-101623797D01*
X146275039Y-101655122D01*
X146222220Y-101653008D01*
X146215429Y-101651265D01*
X146196734Y-101644863D01*
X146185420Y-101639967D01*
X146185419Y-101639967D01*
X146178145Y-101636819D01*
X146170322Y-101635580D01*
X146170312Y-101635577D01*
X146134476Y-101629901D01*
X146122856Y-101627495D01*
X146087711Y-101618472D01*
X146087710Y-101618472D01*
X146080030Y-101616500D01*
X146059776Y-101616500D01*
X146040065Y-101614949D01*
X146027886Y-101613020D01*
X146020057Y-101611780D01*
X146012165Y-101612526D01*
X145976039Y-101615941D01*
X145964181Y-101616500D01*
X145958200Y-101616500D01*
X145890079Y-101596498D01*
X145870853Y-101580157D01*
X145870580Y-101580460D01*
X145865668Y-101576037D01*
X145861253Y-101571134D01*
X145706752Y-101458882D01*
X145700724Y-101456198D01*
X145700722Y-101456197D01*
X145538319Y-101383891D01*
X145538318Y-101383891D01*
X145532288Y-101381206D01*
X145438888Y-101361353D01*
X145351944Y-101342872D01*
X145351939Y-101342872D01*
X145345487Y-101341500D01*
X145154513Y-101341500D01*
X145148061Y-101342872D01*
X145148056Y-101342872D01*
X145061112Y-101361353D01*
X144967712Y-101381206D01*
X144961682Y-101383891D01*
X144961681Y-101383891D01*
X144799278Y-101456197D01*
X144799276Y-101456198D01*
X144793248Y-101458882D01*
X144638747Y-101571134D01*
X144634326Y-101576044D01*
X144634325Y-101576045D01*
X144576770Y-101639967D01*
X144510960Y-101713056D01*
X144415473Y-101878444D01*
X144356458Y-102060072D01*
X144336496Y-102250000D01*
X144356458Y-102439928D01*
X144358498Y-102446206D01*
X144373867Y-102493508D01*
X144375894Y-102564476D01*
X144347672Y-102616753D01*
X144260960Y-102713056D01*
X144165473Y-102878444D01*
X144106458Y-103060072D01*
X144086496Y-103250000D01*
X144087186Y-103256565D01*
X144093539Y-103317006D01*
X144106458Y-103439928D01*
X144123307Y-103491784D01*
X144125335Y-103562750D01*
X144088673Y-103623548D01*
X144038630Y-103651714D01*
X143996407Y-103663981D01*
X143989584Y-103668016D01*
X143978966Y-103674295D01*
X143961213Y-103682992D01*
X143953568Y-103686019D01*
X143942383Y-103690448D01*
X143928705Y-103700386D01*
X143906612Y-103716437D01*
X143896695Y-103722951D01*
X143858638Y-103745458D01*
X143844317Y-103759779D01*
X143829284Y-103772619D01*
X143812893Y-103784528D01*
X143804217Y-103795016D01*
X143784702Y-103818605D01*
X143776712Y-103827384D01*
X141774500Y-105829595D01*
X141712188Y-105863621D01*
X141685405Y-105866500D01*
X140314594Y-105866500D01*
X140246473Y-105846498D01*
X140225499Y-105829595D01*
X137420405Y-103024500D01*
X137386379Y-102962188D01*
X137383500Y-102935405D01*
X137383500Y-98444669D01*
X138842001Y-98444669D01*
X138842371Y-98451490D01*
X138847895Y-98502352D01*
X138851521Y-98517604D01*
X138896676Y-98638054D01*
X138905214Y-98653649D01*
X138981715Y-98755724D01*
X138994276Y-98768285D01*
X139096351Y-98844786D01*
X139111946Y-98853324D01*
X139232394Y-98898478D01*
X139247649Y-98902105D01*
X139298514Y-98907631D01*
X139305328Y-98908000D01*
X140077885Y-98908000D01*
X140093124Y-98903525D01*
X140094329Y-98902135D01*
X140096000Y-98894452D01*
X140096000Y-98889884D01*
X140604000Y-98889884D01*
X140608475Y-98905123D01*
X140609865Y-98906328D01*
X140617548Y-98907999D01*
X141394669Y-98907999D01*
X141401490Y-98907629D01*
X141452352Y-98902105D01*
X141467604Y-98898479D01*
X141588054Y-98853324D01*
X141603649Y-98844786D01*
X141705724Y-98768285D01*
X141718285Y-98755724D01*
X141794786Y-98653649D01*
X141803324Y-98638054D01*
X141848478Y-98517606D01*
X141852105Y-98502351D01*
X141857631Y-98451486D01*
X141858000Y-98444672D01*
X141858000Y-96772115D01*
X141853525Y-96756876D01*
X141852135Y-96755671D01*
X141844452Y-96754000D01*
X140622115Y-96754000D01*
X140606876Y-96758475D01*
X140605671Y-96759865D01*
X140604000Y-96767548D01*
X140604000Y-98889884D01*
X140096000Y-98889884D01*
X140096000Y-96772115D01*
X140091525Y-96756876D01*
X140090135Y-96755671D01*
X140082452Y-96754000D01*
X138860116Y-96754000D01*
X138844877Y-96758475D01*
X138843672Y-96759865D01*
X138842001Y-96767548D01*
X138842001Y-98444669D01*
X137383500Y-98444669D01*
X137383500Y-96227885D01*
X138842000Y-96227885D01*
X138846475Y-96243124D01*
X138847865Y-96244329D01*
X138855548Y-96246000D01*
X140077885Y-96246000D01*
X140093124Y-96241525D01*
X140094329Y-96240135D01*
X140096000Y-96232452D01*
X140096000Y-96227885D01*
X140604000Y-96227885D01*
X140608475Y-96243124D01*
X140609865Y-96244329D01*
X140617548Y-96246000D01*
X141839884Y-96246000D01*
X141855123Y-96241525D01*
X141856328Y-96240135D01*
X141857999Y-96232452D01*
X141857999Y-94998134D01*
X145141500Y-94998134D01*
X145148255Y-95060316D01*
X145199385Y-95196705D01*
X145245284Y-95257948D01*
X145257953Y-95274852D01*
X145282801Y-95341358D01*
X145267748Y-95410741D01*
X145257953Y-95425982D01*
X145205214Y-95496352D01*
X145196676Y-95511946D01*
X145151522Y-95632394D01*
X145147895Y-95647649D01*
X145142369Y-95698514D01*
X145142000Y-95705328D01*
X145142000Y-96227885D01*
X145146475Y-96243124D01*
X145147865Y-96244329D01*
X145155548Y-96246000D01*
X148139884Y-96246000D01*
X148155123Y-96241525D01*
X148156328Y-96240135D01*
X148157999Y-96232452D01*
X148157999Y-96011699D01*
X148178001Y-95943578D01*
X148231657Y-95897085D01*
X148301931Y-95886981D01*
X148310190Y-95888451D01*
X148334990Y-95893722D01*
X148398056Y-95907128D01*
X148398061Y-95907128D01*
X148404513Y-95908500D01*
X148595487Y-95908500D01*
X148601940Y-95907128D01*
X148601953Y-95907127D01*
X148714803Y-95883139D01*
X148785593Y-95888540D01*
X148842226Y-95931357D01*
X148866720Y-95997994D01*
X148867000Y-96006385D01*
X148867000Y-96227885D01*
X148871475Y-96243124D01*
X148872865Y-96244329D01*
X148880548Y-96246000D01*
X149690385Y-96246000D01*
X149705624Y-96241525D01*
X149706829Y-96240135D01*
X149708500Y-96232452D01*
X149708500Y-95285116D01*
X149704025Y-95269877D01*
X149702635Y-95268672D01*
X149694952Y-95267001D01*
X149577905Y-95267001D01*
X149571389Y-95267338D01*
X149537911Y-95270812D01*
X149468090Y-95257948D01*
X149416308Y-95209377D01*
X149399005Y-95140521D01*
X149399597Y-95132314D01*
X149407165Y-95060316D01*
X149413504Y-95000000D01*
X149393542Y-94810072D01*
X149334527Y-94628444D01*
X149296743Y-94563000D01*
X149280005Y-94494005D01*
X149296743Y-94437000D01*
X149331223Y-94377279D01*
X149331224Y-94377278D01*
X149334527Y-94371556D01*
X149393542Y-94189928D01*
X149401931Y-94110116D01*
X149412814Y-94006565D01*
X149413504Y-94000000D01*
X149408770Y-93954960D01*
X149394232Y-93816635D01*
X149394232Y-93816633D01*
X149393542Y-93810072D01*
X149334527Y-93628444D01*
X149239040Y-93463056D01*
X149127956Y-93339684D01*
X149115675Y-93326045D01*
X149115674Y-93326044D01*
X149111253Y-93321134D01*
X148956752Y-93208882D01*
X148950724Y-93206198D01*
X148950722Y-93206197D01*
X148788319Y-93133891D01*
X148788318Y-93133891D01*
X148782288Y-93131206D01*
X148688888Y-93111353D01*
X148601944Y-93092872D01*
X148601939Y-93092872D01*
X148595487Y-93091500D01*
X148404513Y-93091500D01*
X148398061Y-93092872D01*
X148398056Y-93092872D01*
X148311112Y-93111353D01*
X148217712Y-93131206D01*
X148211685Y-93133889D01*
X148211677Y-93133892D01*
X148181209Y-93147458D01*
X148110842Y-93156893D01*
X148046545Y-93126787D01*
X148029133Y-93107917D01*
X148018642Y-93093919D01*
X148013261Y-93086739D01*
X147896705Y-92999385D01*
X147760316Y-92948255D01*
X147698134Y-92941500D01*
X145601866Y-92941500D01*
X145539684Y-92948255D01*
X145403295Y-92999385D01*
X145286739Y-93086739D01*
X145199385Y-93203295D01*
X145148255Y-93339684D01*
X145141500Y-93401866D01*
X145141500Y-94998134D01*
X141857999Y-94998134D01*
X141857999Y-94555331D01*
X141857629Y-94548510D01*
X141852105Y-94497648D01*
X141848479Y-94482396D01*
X141803324Y-94361946D01*
X141794786Y-94346351D01*
X141718285Y-94244276D01*
X141705724Y-94231715D01*
X141603649Y-94155214D01*
X141588054Y-94146676D01*
X141467606Y-94101522D01*
X141452351Y-94097895D01*
X141401486Y-94092369D01*
X141394672Y-94092000D01*
X140622115Y-94092000D01*
X140606876Y-94096475D01*
X140605671Y-94097865D01*
X140604000Y-94105548D01*
X140604000Y-96227885D01*
X140096000Y-96227885D01*
X140096000Y-94110116D01*
X140091525Y-94094877D01*
X140090135Y-94093672D01*
X140082452Y-94092001D01*
X139305331Y-94092001D01*
X139298510Y-94092371D01*
X139247648Y-94097895D01*
X139232396Y-94101521D01*
X139111946Y-94146676D01*
X139096351Y-94155214D01*
X138994276Y-94231715D01*
X138981715Y-94244276D01*
X138905214Y-94346351D01*
X138896676Y-94361946D01*
X138851522Y-94482394D01*
X138847895Y-94497649D01*
X138842369Y-94548514D01*
X138842000Y-94555328D01*
X138842000Y-96227885D01*
X137383500Y-96227885D01*
X137383500Y-90064594D01*
X137403502Y-89996473D01*
X137420405Y-89975499D01*
X137669071Y-89726833D01*
X137731383Y-89692807D01*
X137802198Y-89697872D01*
X137859034Y-89740419D01*
X137883687Y-89804946D01*
X137885021Y-89820192D01*
X137895885Y-89944371D01*
X137952880Y-90157076D01*
X137955205Y-90162061D01*
X138043618Y-90351666D01*
X138043621Y-90351671D01*
X138045944Y-90356653D01*
X138049100Y-90361160D01*
X138049101Y-90361162D01*
X138155436Y-90513023D01*
X138172251Y-90537038D01*
X138327962Y-90692749D01*
X138332471Y-90695906D01*
X138332473Y-90695908D01*
X138376096Y-90726453D01*
X138508346Y-90819056D01*
X138707924Y-90912120D01*
X138920629Y-90969115D01*
X139140000Y-90988307D01*
X139359371Y-90969115D01*
X139572076Y-90912120D01*
X139771654Y-90819056D01*
X139903904Y-90726453D01*
X139947527Y-90695908D01*
X139947529Y-90695906D01*
X139952038Y-90692749D01*
X140107749Y-90537038D01*
X140124565Y-90513023D01*
X140181787Y-90431301D01*
X140237244Y-90386973D01*
X140307864Y-90379664D01*
X140371224Y-90411695D01*
X140388213Y-90431301D01*
X140445436Y-90513023D01*
X140462251Y-90537038D01*
X140617962Y-90692749D01*
X140622471Y-90695906D01*
X140622473Y-90695908D01*
X140666096Y-90726453D01*
X140798346Y-90819056D01*
X140997924Y-90912120D01*
X141210629Y-90969115D01*
X141430000Y-90988307D01*
X141649371Y-90969115D01*
X141862076Y-90912120D01*
X142061654Y-90819056D01*
X142193904Y-90726453D01*
X142237527Y-90695908D01*
X142237529Y-90695906D01*
X142242038Y-90692749D01*
X142397749Y-90537038D01*
X142414565Y-90513023D01*
X142520899Y-90361162D01*
X142520900Y-90361160D01*
X142524056Y-90356653D01*
X142526379Y-90351671D01*
X142526382Y-90351666D01*
X142614795Y-90162061D01*
X142617120Y-90157076D01*
X142674115Y-89944371D01*
X142693307Y-89725000D01*
X142674115Y-89505629D01*
X142617120Y-89292924D01*
X142534369Y-89115463D01*
X142526382Y-89098334D01*
X142526379Y-89098329D01*
X142524056Y-89093347D01*
X142516184Y-89082104D01*
X142400908Y-88917473D01*
X142400906Y-88917470D01*
X142397749Y-88912962D01*
X142242038Y-88757251D01*
X142185310Y-88717529D01*
X142099208Y-88657240D01*
X142061654Y-88630944D01*
X141862076Y-88537880D01*
X141649371Y-88480885D01*
X141430000Y-88461693D01*
X141210629Y-88480885D01*
X140997924Y-88537880D01*
X140904562Y-88581415D01*
X140803334Y-88628618D01*
X140803329Y-88628621D01*
X140798347Y-88630944D01*
X140793840Y-88634100D01*
X140793838Y-88634101D01*
X140622473Y-88754092D01*
X140622470Y-88754094D01*
X140617962Y-88757251D01*
X140462251Y-88912962D01*
X140459094Y-88917470D01*
X140459092Y-88917473D01*
X140388213Y-89018699D01*
X140332756Y-89063027D01*
X140262136Y-89070336D01*
X140198776Y-89038305D01*
X140181787Y-89018699D01*
X140110908Y-88917473D01*
X140110906Y-88917470D01*
X140107749Y-88912962D01*
X139952038Y-88757251D01*
X139895310Y-88717529D01*
X139809208Y-88657240D01*
X139771654Y-88630944D01*
X139572076Y-88537880D01*
X139359371Y-88480885D01*
X139319308Y-88477380D01*
X139219947Y-88468687D01*
X139153829Y-88442823D01*
X139112190Y-88385320D01*
X139108249Y-88314433D01*
X139141834Y-88254070D01*
X139214094Y-88181811D01*
X139475501Y-87920404D01*
X139537813Y-87886379D01*
X139564596Y-87883500D01*
X141685406Y-87883500D01*
X141753527Y-87903502D01*
X141774501Y-87920405D01*
X142246343Y-88392247D01*
X142253887Y-88400537D01*
X142258000Y-88407018D01*
X142263777Y-88412443D01*
X142307667Y-88453658D01*
X142310509Y-88456413D01*
X142330230Y-88476134D01*
X142333425Y-88478612D01*
X142342447Y-88486318D01*
X142374679Y-88516586D01*
X142381628Y-88520406D01*
X142392432Y-88526346D01*
X142408956Y-88537199D01*
X142424959Y-88549613D01*
X142465543Y-88567176D01*
X142476173Y-88572383D01*
X142514940Y-88593695D01*
X142522617Y-88595666D01*
X142522622Y-88595668D01*
X142534558Y-88598732D01*
X142553266Y-88605137D01*
X142571855Y-88613181D01*
X142579683Y-88614421D01*
X142579690Y-88614423D01*
X142615524Y-88620099D01*
X142627144Y-88622505D01*
X142662289Y-88631528D01*
X142669970Y-88633500D01*
X142690224Y-88633500D01*
X142709934Y-88635051D01*
X142729943Y-88638220D01*
X142737835Y-88637474D01*
X142756580Y-88635702D01*
X142773962Y-88634059D01*
X142785819Y-88633500D01*
X146421233Y-88633500D01*
X146432416Y-88634027D01*
X146439909Y-88635702D01*
X146447835Y-88635453D01*
X146447836Y-88635453D01*
X146507986Y-88633562D01*
X146511945Y-88633500D01*
X146539856Y-88633500D01*
X146543791Y-88633003D01*
X146543856Y-88632995D01*
X146555693Y-88632062D01*
X146587951Y-88631048D01*
X146591970Y-88630922D01*
X146599889Y-88630673D01*
X146619343Y-88625021D01*
X146638700Y-88621013D01*
X146650930Y-88619468D01*
X146650931Y-88619468D01*
X146658797Y-88618474D01*
X146666168Y-88615555D01*
X146666170Y-88615555D01*
X146699912Y-88602196D01*
X146711142Y-88598351D01*
X146745983Y-88588229D01*
X146745984Y-88588229D01*
X146753593Y-88586018D01*
X146760412Y-88581985D01*
X146760417Y-88581983D01*
X146771028Y-88575707D01*
X146788776Y-88567012D01*
X146807617Y-88559552D01*
X146827987Y-88544753D01*
X146843387Y-88533564D01*
X146853307Y-88527048D01*
X146884535Y-88508580D01*
X146884538Y-88508578D01*
X146891362Y-88504542D01*
X146905683Y-88490221D01*
X146920717Y-88477380D01*
X146922432Y-88476134D01*
X146937107Y-88465472D01*
X146942157Y-88459368D01*
X146942162Y-88459363D01*
X146965293Y-88431402D01*
X146973283Y-88422621D01*
X147912258Y-87483647D01*
X147920537Y-87476113D01*
X147927018Y-87472000D01*
X147973644Y-87422348D01*
X147976398Y-87419507D01*
X147996135Y-87399770D01*
X147998615Y-87396573D01*
X148006320Y-87387551D01*
X148031159Y-87361100D01*
X148036586Y-87355321D01*
X148040405Y-87348375D01*
X148040407Y-87348372D01*
X148046348Y-87337566D01*
X148057199Y-87321047D01*
X148064758Y-87311301D01*
X148069614Y-87305041D01*
X148072759Y-87297772D01*
X148072762Y-87297768D01*
X148087174Y-87264463D01*
X148092391Y-87253813D01*
X148113695Y-87215060D01*
X148118733Y-87195437D01*
X148125137Y-87176734D01*
X148130033Y-87165420D01*
X148130033Y-87165419D01*
X148133181Y-87158145D01*
X148134420Y-87150322D01*
X148134423Y-87150312D01*
X148140099Y-87114476D01*
X148142505Y-87102856D01*
X148151528Y-87067711D01*
X148151528Y-87067710D01*
X148153500Y-87060030D01*
X148153500Y-87039776D01*
X148155051Y-87020065D01*
X148156980Y-87007886D01*
X148158220Y-87000057D01*
X148154059Y-86956038D01*
X148153500Y-86944181D01*
X148153500Y-86063354D01*
X148173502Y-85995233D01*
X148207228Y-85960142D01*
X148274134Y-85913294D01*
X148327527Y-85875908D01*
X148327530Y-85875906D01*
X148332038Y-85872749D01*
X148446905Y-85757882D01*
X148509217Y-85723856D01*
X148580032Y-85728921D01*
X148625095Y-85757882D01*
X148739962Y-85872749D01*
X148920346Y-85999056D01*
X149119924Y-86092120D01*
X149332629Y-86149115D01*
X149552000Y-86168307D01*
X149771371Y-86149115D01*
X149984076Y-86092120D01*
X150183654Y-85999056D01*
X150364038Y-85872749D01*
X150519749Y-85717038D01*
X150561795Y-85656991D01*
X150642899Y-85541162D01*
X150642900Y-85541160D01*
X150646056Y-85536653D01*
X150648379Y-85531671D01*
X150648382Y-85531666D01*
X150704200Y-85411962D01*
X150739120Y-85337076D01*
X150796115Y-85124371D01*
X150815307Y-84905000D01*
X150796115Y-84685629D01*
X150739120Y-84472924D01*
X150670429Y-84325615D01*
X150648382Y-84278334D01*
X150648379Y-84278329D01*
X150646056Y-84273347D01*
X150642899Y-84268838D01*
X150522908Y-84097473D01*
X150522906Y-84097470D01*
X150519749Y-84092962D01*
X150400382Y-83973595D01*
X150366356Y-83911283D01*
X150371421Y-83840468D01*
X150413968Y-83783632D01*
X150480488Y-83758821D01*
X150489477Y-83758500D01*
X151240500Y-83758500D01*
X151308621Y-83778502D01*
G37*
%TD.AperFunction*%
%TD*%
M02*
