M48
; DRILL file {KiCad 6.0.10+dfsg-1~bpo11+1} date dom 29 ene 2023 22:13:54
; FORMAT={-:-/ absolute / inch / decimal}
; #@! TF.CreationDate,2023-01-29T22:13:54-06:00
; #@! TF.GenerationSoftware,Kicad,Pcbnew,6.0.10+dfsg-1~bpo11+1
; #@! TF.FileFunction,Plated,1,4,PTH
FMAT,2
INCH
; #@! TA.AperFunction,Plated,PTH,ViaDrill
T1C0.0157
; #@! TA.AperFunction,Plated,PTH,ComponentDrill
T2C0.0350
; #@! TA.AperFunction,Plated,PTH,ComponentDrill
T3C0.0374
; #@! TA.AperFunction,Plated,PTH,ComponentDrill
T4C0.0394
; #@! TA.AperFunction,Plated,PTH,ComponentDrill
T5C0.0618
%
G90
G05
T1
X5.2283Y-3.1929
X5.3071Y-3.9331
X5.3248Y-3.9961
X5.374Y-3.6299
X5.3937Y-3.7047
X5.3937Y-3.7835
X5.3937Y-3.8622
X5.4626Y-3.9961
X5.6063Y-3.8976
X5.6102Y-4.2402
X5.622Y-3.8307
X5.6811Y-4.2874
X5.689Y-3.8268
X5.7087Y-4.065
X5.7185Y-4.0256
X5.7205Y-3.9528
X5.7382Y-4.1634
X5.7874Y-4.1634
X5.7972Y-3.9862
X5.8031Y-4.2835
X5.8465Y-3.7008
X5.8465Y-3.7402
X5.8465Y-4.2835
X5.8583Y-3.9843
X5.8858Y-4.2835
X5.9843Y-3.7402
X5.9961Y-3.9606
X6.0531Y-3.8484
X6.0925Y-4.1634
X6.3661Y-4.2913
X6.5354Y-3.7795
X6.5709Y-4.1299
X6.6122Y-3.7992
T2
X5.478Y-3.5325
X5.5681Y-3.5325
X5.6079Y-3.2726
X5.6479Y-3.3427
X5.6879Y-3.2726
X5.7279Y-3.3427
X5.7679Y-3.2726
X5.8079Y-3.3427
X5.8479Y-3.2726
X5.8879Y-3.3427
X5.928Y-3.5325
X6.0181Y-3.5325
T3
X5.1772Y-4.605
X5.2756Y-4.605
X5.374Y-4.605
X5.6693Y-4.6037
X5.7677Y-4.6037
X5.8661Y-4.6037
X6.1614Y-4.605
X6.2598Y-4.605
X6.3583Y-4.605
T4
X5.0197Y-4.0
X5.0197Y-4.1
X5.0197Y-4.2
X5.0197Y-4.3
X5.0197Y-4.4
X6.4488Y-3.352
X6.4488Y-3.452
X6.4488Y-3.552
X6.4488Y-3.652
X6.4488Y-3.752
T5
X5.428Y-3.3077
X6.0681Y-3.3077
T0
M30
