%TF.GenerationSoftware,KiCad,Pcbnew,6.0.9+dfsg-1~bpo11+1*%
%TF.CreationDate,2022-12-30T18:48:50-06:00*%
%TF.ProjectId,Pedals,50656461-6c73-42e6-9b69-6361645f7063,rev?*%
%TF.SameCoordinates,Original*%
%TF.FileFunction,Soldermask,Top*%
%TF.FilePolarity,Negative*%
%FSLAX46Y46*%
G04 Gerber Fmt 4.6, Leading zero omitted, Abs format (unit mm)*
G04 Created by KiCad (PCBNEW 6.0.9+dfsg-1~bpo11+1) date 2022-12-30 18:48:50*
%MOMM*%
%LPD*%
G01*
G04 APERTURE LIST*
G04 Aperture macros list*
%AMRoundRect*
0 Rectangle with rounded corners*
0 $1 Rounding radius*
0 $2 $3 $4 $5 $6 $7 $8 $9 X,Y pos of 4 corners*
0 Add a 4 corners polygon primitive as box body*
4,1,4,$2,$3,$4,$5,$6,$7,$8,$9,$2,$3,0*
0 Add four circle primitives for the rounded corners*
1,1,$1+$1,$2,$3*
1,1,$1+$1,$4,$5*
1,1,$1+$1,$6,$7*
1,1,$1+$1,$8,$9*
0 Add four rect primitives between the rounded corners*
20,1,$1+$1,$2,$3,$4,$5,0*
20,1,$1+$1,$4,$5,$6,$7,0*
20,1,$1+$1,$6,$7,$8,$9,0*
20,1,$1+$1,$8,$9,$2,$3,0*%
G04 Aperture macros list end*
%TA.AperFunction,Profile*%
%ADD10C,0.349999*%
%TD*%
%TA.AperFunction,Profile*%
%ADD11C,2.075000*%
%TD*%
%ADD12RoundRect,0.250000X0.600000X0.725000X-0.600000X0.725000X-0.600000X-0.725000X0.600000X-0.725000X0*%
%ADD13O,1.700000X1.950000*%
%ADD14RoundRect,0.250000X0.475000X-0.337500X0.475000X0.337500X-0.475000X0.337500X-0.475000X-0.337500X0*%
%ADD15C,3.250000*%
%ADD16R,1.500000X1.500000*%
%ADD17C,1.500000*%
%ADD18C,2.300000*%
%ADD19RoundRect,0.250000X0.450000X-0.350000X0.450000X0.350000X-0.450000X0.350000X-0.450000X-0.350000X0*%
%ADD20C,0.750000*%
%ADD21R,1.000000X1.450000*%
%ADD22RoundRect,0.125000X-0.625000X-0.125000X0.625000X-0.125000X0.625000X0.125000X-0.625000X0.125000X0*%
%ADD23RoundRect,0.125000X-0.125000X-0.625000X0.125000X-0.625000X0.125000X0.625000X-0.125000X0.625000X0*%
%ADD24RoundRect,0.250000X-0.475000X0.337500X-0.475000X-0.337500X0.475000X-0.337500X0.475000X0.337500X0*%
%ADD25RoundRect,0.250000X0.325000X0.450000X-0.325000X0.450000X-0.325000X-0.450000X0.325000X-0.450000X0*%
%ADD26R,1.700000X1.700000*%
%ADD27O,1.700000X1.700000*%
G04 APERTURE END LIST*
D10*
X125183550Y-75797418D02*
X125363960Y-75478420D01*
X166262042Y-73300778D02*
X166553182Y-73527581D01*
X124624190Y-121510361D02*
X124526193Y-121157226D01*
X124336701Y-78587814D02*
X124382194Y-78221573D01*
X161799997Y-71829097D02*
X162171901Y-71838314D01*
X129971872Y-126602905D02*
X129618736Y-126504908D01*
X131058717Y-71865797D02*
X131428097Y-71838314D01*
X169299997Y-79329097D02*
X169299997Y-119329097D01*
X168416448Y-75797418D02*
X168580885Y-76124473D01*
X126766193Y-124888857D02*
X126496700Y-124632400D01*
X129971872Y-72055289D02*
X130329990Y-71974539D01*
X167359757Y-74295289D02*
X167601514Y-74575913D01*
X163270007Y-71974539D02*
X163628126Y-72055289D01*
X169290780Y-119701000D02*
X169263297Y-120070380D01*
X163981261Y-126504908D02*
X163628126Y-126602905D01*
X124382194Y-78221573D02*
X124445443Y-77859086D01*
X131800000Y-126829097D02*
X131428097Y-126819879D01*
X127337956Y-73300778D02*
X127638996Y-73089185D01*
X131428097Y-126819879D02*
X131058717Y-126792397D01*
X126240242Y-74295289D02*
X126496700Y-74025796D01*
X165650675Y-125765138D02*
X165331676Y-125945548D01*
X169154555Y-120799107D02*
X169073805Y-121157226D01*
X168580885Y-76124473D02*
X168729094Y-76458971D01*
X124870904Y-76458971D02*
X125019113Y-76124473D01*
X166553182Y-73527581D02*
X166833806Y-73769338D01*
X163628126Y-72055289D02*
X163981261Y-72153286D01*
X127949323Y-72893056D02*
X128268322Y-72712646D01*
X168860820Y-121857898D02*
X168729094Y-122199223D01*
X125363960Y-123179774D02*
X125183550Y-122860776D01*
X167601514Y-124082282D02*
X167359757Y-124362906D01*
X129618736Y-126504908D02*
X129271199Y-126389919D01*
X124336701Y-120070380D02*
X124309218Y-119701000D01*
X130692477Y-71911290D02*
X131058717Y-71865797D01*
X161799997Y-126829097D02*
X131800000Y-126829097D01*
X125998484Y-124082282D02*
X125771682Y-123791142D01*
X169073805Y-77500968D02*
X169154555Y-77859086D01*
X163628126Y-126602905D02*
X163270007Y-126683655D01*
X168975808Y-77147833D02*
X169073805Y-77500968D01*
X164328798Y-126389919D02*
X163981261Y-126504908D01*
X127337956Y-125357417D02*
X127046816Y-125130614D01*
X124309218Y-119701000D02*
X124300001Y-119329097D01*
D11*
X130737500Y-76000000D02*
G75*
G03*
X130737500Y-76000000I-1037500J0D01*
G01*
D10*
X161799997Y-71829097D02*
X161799997Y-71829097D01*
X129618736Y-72153286D02*
X129971872Y-72055289D01*
X125771682Y-123791142D02*
X125560089Y-123490101D01*
X124300001Y-79329097D02*
X124309218Y-78957193D01*
X127046816Y-125130614D02*
X126766193Y-124888857D01*
X124739178Y-76800295D02*
X124870904Y-76458971D01*
X126496700Y-124632400D02*
X126240242Y-124362906D01*
X166553182Y-125130614D02*
X166262042Y-125357417D01*
X165650675Y-72893056D02*
X165961002Y-73089185D01*
X169263297Y-120070380D02*
X169217804Y-120436620D01*
X127638996Y-125569009D02*
X127337956Y-125357417D01*
X130329990Y-126683655D02*
X129971872Y-126602905D01*
X124739178Y-121857898D02*
X124624190Y-121510361D01*
X128595377Y-72548209D02*
X128929874Y-72400000D01*
X167103300Y-74025796D02*
X167359757Y-74295289D01*
X162541280Y-71865797D02*
X162907520Y-71911290D01*
X162171901Y-71838314D02*
X162541280Y-71865797D01*
X166833806Y-73769338D02*
X167103300Y-74025796D01*
X162907520Y-71911290D02*
X163270007Y-71974539D01*
X131058717Y-126792397D02*
X130692477Y-126746904D01*
X124382194Y-120436620D02*
X124336701Y-120070380D01*
X168729094Y-122199223D02*
X168580885Y-122533720D01*
X165961002Y-73089185D02*
X166262042Y-73300778D01*
X125560089Y-123490101D02*
X125363960Y-123179774D01*
X165004621Y-72548209D02*
X165331676Y-72712646D01*
X168729094Y-76458971D02*
X168860820Y-76800295D01*
X168416448Y-122860776D02*
X168236038Y-123179774D01*
X164670123Y-72400000D02*
X165004621Y-72548209D01*
X163981261Y-72153286D02*
X164328798Y-72268274D01*
X165331676Y-72712646D02*
X165650675Y-72893056D01*
X126766193Y-73769338D02*
X127046816Y-73527581D01*
X129271199Y-72268274D02*
X129618736Y-72153286D01*
X165331676Y-125945548D02*
X165004621Y-126109985D01*
X169299997Y-119329097D02*
X169290780Y-119701000D01*
X126240242Y-124362906D02*
X125998484Y-124082282D01*
X131800000Y-71829097D02*
X161799997Y-71829097D01*
X126496700Y-74025796D02*
X126766193Y-73769338D01*
X169073805Y-121157226D02*
X168975808Y-121510361D01*
X166262042Y-125357417D02*
X165961002Y-125569009D01*
D11*
X164337500Y-76000000D02*
G75*
G03*
X164337500Y-76000000I-1037500J0D01*
G01*
D10*
X168236038Y-123179774D02*
X168039910Y-123490101D01*
X169154555Y-77859086D02*
X169217804Y-78221573D01*
X169217804Y-120436620D02*
X169154555Y-120799107D01*
X129271199Y-126389919D02*
X128929874Y-126258193D01*
X167828317Y-123791142D02*
X167601514Y-124082282D01*
X124445443Y-77859086D02*
X124526193Y-77500968D01*
X128268322Y-125945548D02*
X127949323Y-125765138D01*
X165004621Y-126109985D02*
X164670123Y-126258193D01*
X168236038Y-75478420D02*
X168416448Y-75797418D01*
X130329990Y-71974539D02*
X130692477Y-71911290D01*
X126496700Y-124632400D02*
X126496700Y-124632400D01*
X124526193Y-77500968D02*
X124624190Y-77147833D01*
X168975808Y-121510361D02*
X168860820Y-121857898D01*
X124526193Y-121157226D02*
X124445443Y-120799107D01*
X169290780Y-78957193D02*
X169299997Y-79329097D01*
X131428097Y-71838314D02*
X131800000Y-71829097D01*
X127046816Y-73527581D02*
X127337956Y-73300778D01*
X131800000Y-71829097D02*
X131800000Y-71829097D01*
X166833806Y-124888857D02*
X166553182Y-125130614D01*
X125183550Y-122860776D02*
X125019113Y-122533720D01*
X162541280Y-126792397D02*
X162171901Y-126819879D01*
X125771682Y-74867052D02*
X125998484Y-74575913D01*
X127638996Y-73089185D02*
X127949323Y-72893056D01*
X128929874Y-126258193D02*
X128595377Y-126109985D01*
X168039910Y-75168093D02*
X168236038Y-75478420D01*
X169299997Y-79329097D02*
X169299997Y-79329097D01*
X130692477Y-126746904D02*
X130329990Y-126683655D01*
X163270007Y-126683655D02*
X162907520Y-126746904D01*
X161799997Y-126829097D02*
X161799997Y-126829097D01*
D11*
X130737500Y-122700000D02*
G75*
G03*
X130737500Y-122700000I-1037500J0D01*
G01*
D10*
X167359757Y-124362906D02*
X167103300Y-124632400D01*
X124624190Y-77147833D02*
X124739178Y-76800295D01*
X125560089Y-75168093D02*
X125771682Y-74867052D01*
X125998484Y-74575913D02*
X126240242Y-74295289D01*
X167828317Y-74867052D02*
X168039910Y-75168093D01*
X165961002Y-125569009D02*
X165650675Y-125765138D01*
X127949323Y-125765138D02*
X127638996Y-125569009D01*
X125363960Y-75478420D02*
X125560089Y-75168093D01*
X128595377Y-126109985D02*
X128268322Y-125945548D01*
X164670123Y-126258193D02*
X164328798Y-126389919D01*
X131800000Y-126829097D02*
X131800000Y-126829097D01*
X168580885Y-122533720D02*
X168416448Y-122860776D01*
X124445443Y-120799107D02*
X124382194Y-120436620D01*
X167103300Y-74025796D02*
X167103300Y-74025796D01*
X128268322Y-72712646D02*
X128595377Y-72548209D01*
D11*
X164337500Y-122700000D02*
G75*
G03*
X164337500Y-122700000I-1037500J0D01*
G01*
D10*
X169263297Y-78587814D02*
X169290780Y-78957193D01*
X169299997Y-119329097D02*
X169299997Y-119329097D01*
X168039910Y-123490101D02*
X167828317Y-123791142D01*
X162907520Y-126746904D02*
X162541280Y-126792397D01*
X124300001Y-79329097D02*
X124300001Y-79329097D01*
X124309218Y-78957193D02*
X124336701Y-78587814D01*
X168860820Y-76800295D02*
X168975808Y-77147833D01*
X125019113Y-122533720D02*
X124870904Y-122199223D01*
X164328798Y-72268274D02*
X164670123Y-72400000D01*
X128929874Y-72400000D02*
X129271199Y-72268274D01*
X126496700Y-74025796D02*
X126496700Y-74025796D01*
X162171901Y-126819879D02*
X161799997Y-126829097D01*
X124870904Y-122199223D02*
X124739178Y-121857898D01*
X124300001Y-119329097D02*
X124300001Y-79329097D01*
X167103300Y-124632400D02*
X166833806Y-124888857D01*
X167601514Y-74575913D02*
X167828317Y-74867052D01*
X167103300Y-124632400D02*
X167103300Y-124632400D01*
X169217804Y-78221573D02*
X169263297Y-78587814D01*
X125019113Y-76124473D02*
X125183550Y-75797418D01*
D12*
%TO.C,BRAKE1*%
X149000000Y-116935000D03*
D13*
X146500000Y-116935000D03*
X144000000Y-116935000D03*
%TD*%
D14*
%TO.C,C2*%
X135250000Y-105037500D03*
X135250000Y-102962500D03*
%TD*%
D12*
%TO.C,CLUTCH1*%
X161500000Y-116967500D03*
D13*
X159000000Y-116967500D03*
X156500000Y-116967500D03*
%TD*%
D15*
%TO.C,DATA1*%
X152350000Y-80585000D03*
X139650000Y-80585000D03*
D16*
X142440000Y-83125000D03*
D17*
X143456000Y-84905000D03*
X144472000Y-83125000D03*
X145488000Y-84905000D03*
X146504000Y-83125000D03*
X147520000Y-84905000D03*
X148536000Y-83125000D03*
X149552000Y-84905000D03*
X139140000Y-89725000D03*
X141430000Y-89725000D03*
X150570000Y-89725000D03*
X152860000Y-89725000D03*
D18*
X137870000Y-84015000D03*
X154130000Y-84015000D03*
%TD*%
D19*
%TO.C,R1*%
X163000000Y-105030000D03*
X163000000Y-103030000D03*
%TD*%
D20*
%TO.C,RST1*%
X168225000Y-108750000D03*
X165475000Y-108750000D03*
D21*
X167700000Y-111325000D03*
X167700000Y-106175000D03*
X166000000Y-106175000D03*
X166000000Y-111325000D03*
%TD*%
D14*
%TO.C,C1*%
X138750000Y-105037500D03*
X138750000Y-102962500D03*
%TD*%
D20*
%TO.C,BOOT1*%
X168225000Y-101000000D03*
X165475000Y-101000000D03*
D21*
X167700000Y-103575000D03*
X167700000Y-98425000D03*
X166000000Y-103575000D03*
X166000000Y-98425000D03*
%TD*%
D22*
%TO.C,U1*%
X142325000Y-100200000D03*
X142325000Y-101000000D03*
X142325000Y-101800000D03*
X142325000Y-102600000D03*
X142325000Y-103400000D03*
X142325000Y-104200000D03*
X142325000Y-105000000D03*
X142325000Y-105800000D03*
D23*
X143700000Y-107175000D03*
X144500000Y-107175000D03*
X145300000Y-107175000D03*
X146100000Y-107175000D03*
X146900000Y-107175000D03*
X147700000Y-107175000D03*
X148500000Y-107175000D03*
X149300000Y-107175000D03*
D22*
X150675000Y-105800000D03*
X150675000Y-105000000D03*
X150675000Y-104200000D03*
X150675000Y-103400000D03*
X150675000Y-102600000D03*
X150675000Y-101800000D03*
X150675000Y-101000000D03*
X150675000Y-100200000D03*
D23*
X149300000Y-98825000D03*
X148500000Y-98825000D03*
X147700000Y-98825000D03*
X146900000Y-98825000D03*
X146100000Y-98825000D03*
X145300000Y-98825000D03*
X144500000Y-98825000D03*
X143700000Y-98825000D03*
%TD*%
D24*
%TO.C,C3*%
X155250000Y-107712500D03*
X155250000Y-109787500D03*
%TD*%
D12*
%TO.C,ACCEL1*%
X136500000Y-116967500D03*
D13*
X134000000Y-116967500D03*
X131500000Y-116967500D03*
%TD*%
D25*
%TO.C,PWD1*%
X131375000Y-84500000D03*
X129325000Y-84500000D03*
%TD*%
D26*
%TO.C,ST-LINK1*%
X163800000Y-95300000D03*
D27*
X163800000Y-92760000D03*
X163800000Y-90220000D03*
X163800000Y-87680000D03*
X163800000Y-85140000D03*
%TD*%
M02*
