M48
; DRILL file {KiCad 6.0.9+dfsg-1~bpo11+1} date vie 30 dic 2022 18:48:47
; FORMAT={-:-/ absolute / inch / decimal}
; #@! TF.CreationDate,2022-12-30T18:48:47-06:00
; #@! TF.GenerationSoftware,Kicad,Pcbnew,6.0.9+dfsg-1~bpo11+1
; #@! TF.FileFunction,Plated,1,2,PTH
FMAT,2
INCH
; #@! TA.AperFunction,Plated,PTH,ViaDrill
T1C0.0157
; #@! TA.AperFunction,Plated,PTH,ComponentDrill
T2C0.0350
; #@! TA.AperFunction,Plated,PTH,ComponentDrill
T3C0.0374
; #@! TA.AperFunction,Plated,PTH,ComponentDrill
T4C0.0394
; #@! TA.AperFunction,Plated,PTH,ComponentDrill
T5C0.0618
%
G90
G05
T1
X5.0394Y-3.3268
X5.3248Y-3.9961
X5.4134Y-4.3012
X5.4626Y-3.9961
X5.7087Y-4.065
X5.7185Y-4.0256
X5.7382Y-4.1634
X5.7874Y-4.1634
X5.7972Y-3.9862
X5.8465Y-3.7008
X5.8465Y-3.7402
X5.8563Y-3.9961
X5.9744Y-4.2323
X5.9843Y-3.7402
X6.0531Y-3.8484
X6.0531Y-4.2421
X6.0925Y-4.1634
X6.2402Y-4.3012
X6.6122Y-3.7992
T2
X5.478Y-3.5325
X5.5681Y-3.5325
X5.6079Y-3.2726
X5.6479Y-3.3427
X5.6879Y-3.2726
X5.7279Y-3.3427
X5.7679Y-3.2726
X5.8079Y-3.3427
X5.8479Y-3.2726
X5.8879Y-3.3427
X5.928Y-3.5325
X6.0181Y-3.5325
T3
X5.1772Y-4.605
X5.2756Y-4.605
X5.374Y-4.605
X5.6693Y-4.6037
X5.7677Y-4.6037
X5.8661Y-4.6037
X6.1614Y-4.605
X6.2598Y-4.605
X6.3583Y-4.605
T4
X6.4488Y-3.352
X6.4488Y-3.452
X6.4488Y-3.552
X6.4488Y-3.652
X6.4488Y-3.752
T5
X5.428Y-3.3077
X6.0681Y-3.3077
T0
M30
